<?xml version="1.0" encoding="utf-8" standalone="no"?>
<!DOCTYPE svg PUBLIC "-//W3C//DTD SVG 1.1//EN"
  "http://www.w3.org/Graphics/SVG/1.1/DTD/svg11.dtd">
<svg xmlns:xlink="http://www.w3.org/1999/xlink" width="1742.08pt" height="665.20375pt" viewBox="0 0 1742.08 665.20375" xmlns="http://www.w3.org/2000/svg" version="1.1">
 <metadata>
  <rdf:RDF xmlns:dc="http://purl.org/dc/elements/1.1/" xmlns:cc="http://creativecommons.org/ns#" xmlns:rdf="http://www.w3.org/1999/02/22-rdf-syntax-ns#">
   <cc:Work>
    <dc:type rdf:resource="http://purl.org/dc/dcmitype/StillImage"/>
    <dc:date>2026-03-18T19:37:34.873029</dc:date>
    <dc:format>image/svg+xml</dc:format>
    <dc:creator>
     <cc:Agent>
      <dc:title>Matplotlib v3.10.8, https://matplotlib.org/</dc:title>
     </cc:Agent>
    </dc:creator>
   </cc:Work>
  </rdf:RDF>
 </metadata>
 <defs>
  <style type="text/css">*{stroke-linejoin: round; stroke-linecap: butt}</style>
 </defs>
 <g id="figure_1">
  <g id="patch_1">
   <path d="M 0 665.20375 
L 1742.08 665.20375 
L 1742.08 0 
L 0 0 
z
" style="fill: #ffffff"/>
  </g>
  <g id="axes_1">
   <g id="patch_2">
    <path d="M 103.93125 581.1925 
L 819.27625 581.1925 
L 819.27625 47.5125 
L 103.93125 47.5125 
z
" style="fill: #ffffff"/>
   </g>
   <g id="patch_3">
    <path d="M 136.446932 581.1925 
L 141.670335 581.1925 
L 141.670335 488.432244 
L 136.446932 488.432244 
z
" clip-path="url(#p63ec0221d7)" style="fill: #2196f3; opacity: 0.8"/>
   </g>
   <g id="patch_4">
    <path d="M 149.505439 581.1925 
L 154.728841 581.1925 
L 154.728841 446.176009 
L 149.505439 446.176009 
z
" clip-path="url(#p63ec0221d7)" style="fill: #2196f3; opacity: 0.8"/>
   </g>
   <g id="patch_5">
    <path d="M 162.563945 581.1925 
L 167.787348 581.1925 
L 167.787348 512.702955 
L 162.563945 512.702955 
z
" clip-path="url(#p63ec0221d7)" style="fill: #2196f3; opacity: 0.8"/>
   </g>
   <g id="patch_6">
    <path d="M 175.622452 581.1925 
L 180.845855 581.1925 
L 180.845855 527.150397 
L 175.622452 527.150397 
z
" clip-path="url(#p63ec0221d7)" style="fill: #2196f3; opacity: 0.8"/>
   </g>
   <g id="patch_7">
    <path d="M 188.680959 581.1925 
L 193.904362 581.1925 
L 193.904362 401.935881 
L 188.680959 401.935881 
z
" clip-path="url(#p63ec0221d7)" style="fill: #2196f3; opacity: 0.8"/>
   </g>
   <g id="patch_8">
    <path d="M 201.739466 581.1925 
L 206.962868 581.1925 
L 206.962868 495.047148 
L 201.739466 495.047148 
z
" clip-path="url(#p63ec0221d7)" style="fill: #2196f3; opacity: 0.8"/>
   </g>
   <g id="patch_9">
    <path d="M 214.797972 581.1925 
L 220.021375 581.1925 
L 220.021375 482.539747 
L 214.797972 482.539747 
z
" clip-path="url(#p63ec0221d7)" style="fill: #2196f3; opacity: 0.8"/>
   </g>
   <g id="patch_10">
    <path d="M 227.856479 581.1925 
L 233.079882 581.1925 
L 233.079882 294.644474 
L 227.856479 294.644474 
z
" clip-path="url(#p63ec0221d7)" style="fill: #2196f3; opacity: 0.8"/>
   </g>
   <g id="patch_11">
    <path d="M 240.914986 581.1925 
L 246.138389 581.1925 
L 246.138389 397.399935 
L 240.914986 397.399935 
z
" clip-path="url(#p63ec0221d7)" style="fill: #2196f3; opacity: 0.8"/>
   </g>
   <g id="patch_12">
    <path d="M 253.973493 581.1925 
L 259.196895 581.1925 
L 259.196895 493.777616 
L 253.973493 493.777616 
z
" clip-path="url(#p63ec0221d7)" style="fill: #2196f3; opacity: 0.8"/>
   </g>
   <g id="patch_13">
    <path d="M 267.031999 581.1925 
L 272.255402 581.1925 
L 272.255402 448.926098 
L 267.031999 448.926098 
z
" clip-path="url(#p63ec0221d7)" style="fill: #2196f3; opacity: 0.8"/>
   </g>
   <g id="patch_14">
    <path d="M 280.090506 581.1925 
L 285.313909 581.1925 
L 285.313909 445.132945 
L 280.090506 445.132945 
z
" clip-path="url(#p63ec0221d7)" style="fill: #2196f3; opacity: 0.8"/>
   </g>
   <g id="patch_15">
    <path d="M 293.149013 581.1925 
L 298.372416 581.1925 
L 298.372416 507.307766 
L 293.149013 507.307766 
z
" clip-path="url(#p63ec0221d7)" style="fill: #2196f3; opacity: 0.8"/>
   </g>
   <g id="patch_16">
    <path d="M 306.20752 581.1925 
L 311.430922 581.1925 
L 311.430922 437.243155 
L 306.20752 437.243155 
z
" clip-path="url(#p63ec0221d7)" style="fill: #2196f3; opacity: 0.8"/>
   </g>
   <g id="patch_17">
    <path d="M 319.266026 581.1925 
L 324.489429 581.1925 
L 324.489429 428.907972 
L 319.266026 428.907972 
z
" clip-path="url(#p63ec0221d7)" style="fill: #2196f3; opacity: 0.8"/>
   </g>
   <g id="patch_18">
    <path d="M 332.324533 581.1925 
L 337.547936 581.1925 
L 337.547936 429.214766 
L 332.324533 429.214766 
z
" clip-path="url(#p63ec0221d7)" style="fill: #2196f3; opacity: 0.8"/>
   </g>
   <g id="patch_19">
    <path d="M 345.38304 581.1925 
L 350.606443 581.1925 
L 350.606443 455.622094 
L 345.38304 455.622094 
z
" clip-path="url(#p63ec0221d7)" style="fill: #2196f3; opacity: 0.8"/>
   </g>
   <g id="patch_20">
    <path d="M 358.441547 581.1925 
L 363.664949 581.1925 
L 363.664949 420.420054 
L 358.441547 420.420054 
z
" clip-path="url(#p63ec0221d7)" style="fill: #2196f3; opacity: 0.8"/>
   </g>
   <g id="patch_21">
    <path d="M 371.500053 581.1925 
L 376.723456 581.1925 
L 376.723456 474.735825 
L 371.500053 474.735825 
z
" clip-path="url(#p63ec0221d7)" style="fill: #2196f3; opacity: 0.8"/>
   </g>
   <g id="patch_22">
    <path d="M 384.55856 581.1925 
L 389.781963 581.1925 
L 389.781963 406.022499 
L 384.55856 406.022499 
z
" clip-path="url(#p63ec0221d7)" style="fill: #2196f3; opacity: 0.8"/>
   </g>
   <g id="patch_23">
    <path d="M 397.617067 581.1925 
L 402.84047 581.1925 
L 402.84047 435.875454 
L 397.617067 435.875454 
z
" clip-path="url(#p63ec0221d7)" style="fill: #2196f3; opacity: 0.8"/>
   </g>
   <g id="patch_24">
    <path d="M 410.675574 581.1925 
L 415.898976 581.1925 
L 415.898976 373.690044 
L 410.675574 373.690044 
z
" clip-path="url(#p63ec0221d7)" style="fill: #2196f3; opacity: 0.8"/>
   </g>
   <g id="patch_25">
    <path d="M 423.73408 581.1925 
L 428.957483 581.1925 
L 428.957483 383.966205 
L 423.73408 383.966205 
z
" clip-path="url(#p63ec0221d7)" style="fill: #2196f3; opacity: 0.8"/>
   </g>
   <g id="patch_26">
    <path d="M 436.792587 581.1925 
L 442.01599 581.1925 
L 442.01599 442.922991 
L 436.792587 442.922991 
z
" clip-path="url(#p63ec0221d7)" style="fill: #2196f3; opacity: 0.8"/>
   </g>
   <g id="patch_27">
    <path d="M 449.851094 581.1925 
L 455.074497 581.1925 
L 455.074497 429.218907 
L 449.851094 429.218907 
z
" clip-path="url(#p63ec0221d7)" style="fill: #2196f3; opacity: 0.8"/>
   </g>
   <g id="patch_28">
    <path d="M 462.909601 581.1925 
L 468.133003 581.1925 
L 468.133003 450.006794 
L 462.909601 450.006794 
z
" clip-path="url(#p63ec0221d7)" style="fill: #2196f3; opacity: 0.8"/>
   </g>
   <g id="patch_29">
    <path d="M 475.968107 581.1925 
L 481.19151 581.1925 
L 481.19151 367.58324 
L 475.968107 367.58324 
z
" clip-path="url(#p63ec0221d7)" style="fill: #2196f3; opacity: 0.8"/>
   </g>
   <g id="patch_30">
    <path d="M 489.026614 581.1925 
L 494.250017 581.1925 
L 494.250017 401.195689 
L 489.026614 401.195689 
z
" clip-path="url(#p63ec0221d7)" style="fill: #2196f3; opacity: 0.8"/>
   </g>
   <g id="patch_31">
    <path d="M 502.085121 581.1925 
L 507.308524 581.1925 
L 507.308524 315.154334 
L 502.085121 315.154334 
z
" clip-path="url(#p63ec0221d7)" style="fill: #2196f3; opacity: 0.8"/>
   </g>
   <g id="patch_32">
    <path d="M 515.143628 581.1925 
L 520.36703 581.1925 
L 520.36703 340.019986 
L 515.143628 340.019986 
z
" clip-path="url(#p63ec0221d7)" style="fill: #2196f3; opacity: 0.8"/>
   </g>
   <g id="patch_33">
    <path d="M 528.202134 581.1925 
L 533.425537 581.1925 
L 533.425537 412.006017 
L 528.202134 412.006017 
z
" clip-path="url(#p63ec0221d7)" style="fill: #2196f3; opacity: 0.8"/>
   </g>
   <g id="patch_34">
    <path d="M 541.260641 581.1925 
L 546.484044 581.1925 
L 546.484044 433.667206 
L 541.260641 433.667206 
z
" clip-path="url(#p63ec0221d7)" style="fill: #2196f3; opacity: 0.8"/>
   </g>
   <g id="patch_35">
    <path d="M 554.319148 581.1925 
L 559.542551 581.1925 
L 559.542551 275.174304 
L 554.319148 275.174304 
z
" clip-path="url(#p63ec0221d7)" style="fill: #2196f3; opacity: 0.8"/>
   </g>
   <g id="patch_36">
    <path d="M 567.377655 581.1925 
L 572.601057 581.1925 
L 572.601057 343.722866 
L 567.377655 343.722866 
z
" clip-path="url(#p63ec0221d7)" style="fill: #2196f3; opacity: 0.8"/>
   </g>
   <g id="patch_37">
    <path d="M 580.436161 581.1925 
L 585.659564 581.1925 
L 585.659564 301.428823 
L 580.436161 301.428823 
z
" clip-path="url(#p63ec0221d7)" style="fill: #2196f3; opacity: 0.8"/>
   </g>
   <g id="patch_38">
    <path d="M 593.494668 581.1925 
L 598.718071 581.1925 
L 598.718071 309.530521 
L 593.494668 309.530521 
z
" clip-path="url(#p63ec0221d7)" style="fill: #2196f3; opacity: 0.8"/>
   </g>
   <g id="patch_39">
    <path d="M 606.553175 581.1925 
L 611.776578 581.1925 
L 611.776578 294.300205 
L 606.553175 294.300205 
z
" clip-path="url(#p63ec0221d7)" style="fill: #2196f3; opacity: 0.8"/>
   </g>
   <g id="patch_40">
    <path d="M 619.611682 581.1925 
L 624.835084 581.1925 
L 624.835084 288.430513 
L 619.611682 288.430513 
z
" clip-path="url(#p63ec0221d7)" style="fill: #2196f3; opacity: 0.8"/>
   </g>
   <g id="patch_41">
    <path d="M 632.670188 581.1925 
L 637.893591 581.1925 
L 637.893591 271.274462 
L 632.670188 271.274462 
z
" clip-path="url(#p63ec0221d7)" style="fill: #2196f3; opacity: 0.8"/>
   </g>
   <g id="patch_42">
    <path d="M 645.728695 581.1925 
L 650.952098 581.1925 
L 650.952098 217.663745 
L 645.728695 217.663745 
z
" clip-path="url(#p63ec0221d7)" style="fill: #2196f3; opacity: 0.8"/>
   </g>
   <g id="patch_43">
    <path d="M 658.787202 581.1925 
L 664.010605 581.1925 
L 664.010605 334.535048 
L 658.787202 334.535048 
z
" clip-path="url(#p63ec0221d7)" style="fill: #2196f3; opacity: 0.8"/>
   </g>
   <g id="patch_44">
    <path d="M 671.845709 581.1925 
L 677.069111 581.1925 
L 677.069111 321.878786 
L 671.845709 321.878786 
z
" clip-path="url(#p63ec0221d7)" style="fill: #2196f3; opacity: 0.8"/>
   </g>
   <g id="patch_45">
    <path d="M 684.904215 581.1925 
L 690.127618 581.1925 
L 690.127618 346.561347 
L 684.904215 346.561347 
z
" clip-path="url(#p63ec0221d7)" style="fill: #2196f3; opacity: 0.8"/>
   </g>
   <g id="patch_46">
    <path d="M 697.962722 581.1925 
L 703.186125 581.1925 
L 703.186125 159.165418 
L 697.962722 159.165418 
z
" clip-path="url(#p63ec0221d7)" style="fill: #2196f3; opacity: 0.8"/>
   </g>
   <g id="patch_47">
    <path d="M 711.021229 581.1925 
L 716.244632 581.1925 
L 716.244632 217.190389 
L 711.021229 217.190389 
z
" clip-path="url(#p63ec0221d7)" style="fill: #2196f3; opacity: 0.8"/>
   </g>
   <g id="patch_48">
    <path d="M 724.079736 581.1925 
L 729.303138 581.1925 
L 729.303138 181.94783 
L 724.079736 181.94783 
z
" clip-path="url(#p63ec0221d7)" style="fill: #2196f3; opacity: 0.8"/>
   </g>
   <g id="patch_49">
    <path d="M 737.138243 581.1925 
L 742.361645 581.1925 
L 742.361645 289.266791 
L 737.138243 289.266791 
z
" clip-path="url(#p63ec0221d7)" style="fill: #2196f3; opacity: 0.8"/>
   </g>
   <g id="patch_50">
    <path d="M 750.196749 581.1925 
L 755.420152 581.1925 
L 755.420152 181.352556 
L 750.196749 181.352556 
z
" clip-path="url(#p63ec0221d7)" style="fill: #2196f3; opacity: 0.8"/>
   </g>
   <g id="patch_51">
    <path d="M 763.255256 581.1925 
L 768.478659 581.1925 
L 768.478659 163.206411 
L 763.255256 163.206411 
z
" clip-path="url(#p63ec0221d7)" style="fill: #2196f3; opacity: 0.8"/>
   </g>
   <g id="patch_52">
    <path d="M 776.313763 581.1925 
L 781.537165 581.1925 
L 781.537165 72.925833 
L 776.313763 72.925833 
z
" clip-path="url(#p63ec0221d7)" style="fill: #2196f3; opacity: 0.8"/>
   </g>
   <g id="patch_53">
    <path d="M 141.670335 581.1925 
L 146.893737 581.1925 
L 146.893737 283.435225 
L 141.670335 283.435225 
z
" clip-path="url(#p63ec0221d7)" style="fill: #f44336; opacity: 0.8"/>
   </g>
   <g id="patch_54">
    <path d="M 154.728841 581.1925 
L 159.952244 581.1925 
L 159.952244 294.833745 
L 154.728841 294.833745 
z
" clip-path="url(#p63ec0221d7)" style="fill: #f44336; opacity: 0.8"/>
   </g>
   <g id="patch_55">
    <path d="M 167.787348 581.1925 
L 173.010751 581.1925 
L 173.010751 362.263657 
L 167.787348 362.263657 
z
" clip-path="url(#p63ec0221d7)" style="fill: #f44336; opacity: 0.8"/>
   </g>
   <g id="patch_56">
    <path d="M 180.845855 581.1925 
L 186.069257 581.1925 
L 186.069257 416.314746 
L 180.845855 416.314746 
z
" clip-path="url(#p63ec0221d7)" style="fill: #f44336; opacity: 0.8"/>
   </g>
   <g id="patch_57">
    <path d="M 193.904362 581.1925 
L 199.127764 581.1925 
L 199.127764 294.187401 
L 193.904362 294.187401 
z
" clip-path="url(#p63ec0221d7)" style="fill: #f44336; opacity: 0.8"/>
   </g>
   <g id="patch_58">
    <path d="M 206.962868 581.1925 
L 212.186271 581.1925 
L 212.186271 390.160732 
L 206.962868 390.160732 
z
" clip-path="url(#p63ec0221d7)" style="fill: #f44336; opacity: 0.8"/>
   </g>
   <g id="patch_59">
    <path d="M 220.021375 581.1925 
L 225.244778 581.1925 
L 225.244778 390.812595 
L 220.021375 390.812595 
z
" clip-path="url(#p63ec0221d7)" style="fill: #f44336; opacity: 0.8"/>
   </g>
   <g id="patch_60">
    <path d="M 233.079882 581.1925 
L 238.303285 581.1925 
L 238.303285 225.791563 
L 233.079882 225.791563 
z
" clip-path="url(#p63ec0221d7)" style="fill: #f44336; opacity: 0.8"/>
   </g>
   <g id="patch_61">
    <path d="M 246.138389 581.1925 
L 251.361791 581.1925 
L 251.361791 336.014191 
L 246.138389 336.014191 
z
" clip-path="url(#p63ec0221d7)" style="fill: #f44336; opacity: 0.8"/>
   </g>
   <g id="patch_62">
    <path d="M 259.196895 581.1925 
L 264.420298 581.1925 
L 264.420298 436.550862 
L 259.196895 436.550862 
z
" clip-path="url(#p63ec0221d7)" style="fill: #f44336; opacity: 0.8"/>
   </g>
   <g id="patch_63">
    <path d="M 272.255402 581.1925 
L 277.478805 581.1925 
L 277.478805 394.15106 
L 272.255402 394.15106 
z
" clip-path="url(#p63ec0221d7)" style="fill: #f44336; opacity: 0.8"/>
   </g>
   <g id="patch_64">
    <path d="M 285.313909 581.1925 
L 290.537312 581.1925 
L 290.537312 396.417243 
L 285.313909 396.417243 
z
" clip-path="url(#p63ec0221d7)" style="fill: #f44336; opacity: 0.8"/>
   </g>
   <g id="patch_65">
    <path d="M 298.372416 581.1925 
L 303.595818 581.1925 
L 303.595818 459.535385 
L 298.372416 459.535385 
z
" clip-path="url(#p63ec0221d7)" style="fill: #f44336; opacity: 0.8"/>
   </g>
   <g id="patch_66">
    <path d="M 311.430922 581.1925 
L 316.654325 581.1925 
L 316.654325 396.019785 
L 311.430922 396.019785 
z
" clip-path="url(#p63ec0221d7)" style="fill: #f44336; opacity: 0.8"/>
   </g>
   <g id="patch_67">
    <path d="M 324.489429 581.1925 
L 329.712832 581.1925 
L 329.712832 404.449143 
L 324.489429 404.449143 
z
" clip-path="url(#p63ec0221d7)" style="fill: #f44336; opacity: 0.8"/>
   </g>
   <g id="patch_68">
    <path d="M 337.547936 581.1925 
L 342.771339 581.1925 
L 342.771339 431.716113 
L 337.547936 431.716113 
z
" clip-path="url(#p63ec0221d7)" style="fill: #f44336; opacity: 0.8"/>
   </g>
   <g id="patch_69">
    <path d="M 350.606443 581.1925 
L 355.829845 581.1925 
L 355.829845 465.084525 
L 350.606443 465.084525 
z
" clip-path="url(#p63ec0221d7)" style="fill: #f44336; opacity: 0.8"/>
   </g>
   <g id="patch_70">
    <path d="M 363.664949 581.1925 
L 368.888352 581.1925 
L 368.888352 431.588713 
L 363.664949 431.588713 
z
" clip-path="url(#p63ec0221d7)" style="fill: #f44336; opacity: 0.8"/>
   </g>
   <g id="patch_71">
    <path d="M 376.723456 581.1925 
L 381.946859 581.1925 
L 381.946859 494.325893 
L 376.723456 494.325893 
z
" clip-path="url(#p63ec0221d7)" style="fill: #f44336; opacity: 0.8"/>
   </g>
   <g id="patch_72">
    <path d="M 389.781963 581.1925 
L 395.005366 581.1925 
L 395.005366 437.933244 
L 389.781963 437.933244 
z
" clip-path="url(#p63ec0221d7)" style="fill: #f44336; opacity: 0.8"/>
   </g>
   <g id="patch_73">
    <path d="M 402.84047 581.1925 
L 408.063872 581.1925 
L 408.063872 468.155897 
L 402.84047 468.155897 
z
" clip-path="url(#p63ec0221d7)" style="fill: #f44336; opacity: 0.8"/>
   </g>
   <g id="patch_74">
    <path d="M 415.898976 581.1925 
L 421.122379 581.1925 
L 421.122379 410.679305 
L 415.898976 410.679305 
z
" clip-path="url(#p63ec0221d7)" style="fill: #f44336; opacity: 0.8"/>
   </g>
   <g id="patch_75">
    <path d="M 428.957483 581.1925 
L 434.180886 581.1925 
L 434.180886 421.89922 
L 428.957483 421.89922 
z
" clip-path="url(#p63ec0221d7)" style="fill: #f44336; opacity: 0.8"/>
   </g>
   <g id="patch_76">
    <path d="M 442.01599 581.1925 
L 447.239393 581.1925 
L 447.239393 481.115316 
L 442.01599 481.115316 
z
" clip-path="url(#p63ec0221d7)" style="fill: #f44336; opacity: 0.8"/>
   </g>
   <g id="patch_77">
    <path d="M 455.074497 581.1925 
L 460.297899 581.1925 
L 460.297899 469.061063 
L 455.074497 469.061063 
z
" clip-path="url(#p63ec0221d7)" style="fill: #f44336; opacity: 0.8"/>
   </g>
   <g id="patch_78">
    <path d="M 468.133003 581.1925 
L 473.356406 581.1925 
L 473.356406 492.281608 
L 468.133003 492.281608 
z
" clip-path="url(#p63ec0221d7)" style="fill: #f44336; opacity: 0.8"/>
   </g>
   <g id="patch_79">
    <path d="M 481.19151 581.1925 
L 486.414913 581.1925 
L 486.414913 420.666157 
L 481.19151 420.666157 
z
" clip-path="url(#p63ec0221d7)" style="fill: #f44336; opacity: 0.8"/>
   </g>
   <g id="patch_80">
    <path d="M 494.250017 581.1925 
L 499.47342 581.1925 
L 499.47342 455.606056 
L 494.250017 455.606056 
z
" clip-path="url(#p63ec0221d7)" style="fill: #f44336; opacity: 0.8"/>
   </g>
   <g id="patch_81">
    <path d="M 507.308524 581.1925 
L 512.531926 581.1925 
L 512.531926 376.632783 
L 507.308524 376.632783 
z
" clip-path="url(#p63ec0221d7)" style="fill: #f44336; opacity: 0.8"/>
   </g>
   <g id="patch_82">
    <path d="M 520.36703 581.1925 
L 525.590433 581.1925 
L 525.590433 408.74955 
L 520.36703 408.74955 
z
" clip-path="url(#p63ec0221d7)" style="fill: #f44336; opacity: 0.8"/>
   </g>
   <g id="patch_83">
    <path d="M 533.425537 581.1925 
L 538.64894 581.1925 
L 538.64894 483.176 
L 533.425537 483.176 
z
" clip-path="url(#p63ec0221d7)" style="fill: #f44336; opacity: 0.8"/>
   </g>
   <g id="patch_84">
    <path d="M 546.484044 581.1925 
L 551.707447 581.1925 
L 551.707447 509.135314 
L 546.484044 509.135314 
z
" clip-path="url(#p63ec0221d7)" style="fill: #f44336; opacity: 0.8"/>
   </g>
   <g id="patch_85">
    <path d="M 559.542551 581.1925 
L 564.765953 581.1925 
L 564.765953 355.63988 
L 559.542551 355.63988 
z
" clip-path="url(#p63ec0221d7)" style="fill: #f44336; opacity: 0.8"/>
   </g>
   <g id="patch_86">
    <path d="M 572.601057 581.1925 
L 577.82446 581.1925 
L 577.82446 431.242393 
L 572.601057 431.242393 
z
" clip-path="url(#p63ec0221d7)" style="fill: #f44336; opacity: 0.8"/>
   </g>
   <g id="patch_87">
    <path d="M 585.659564 581.1925 
L 590.882967 581.1925 
L 590.882967 394.267565 
L 585.659564 394.267565 
z
" clip-path="url(#p63ec0221d7)" style="fill: #f44336; opacity: 0.8"/>
   </g>
   <g id="patch_88">
    <path d="M 598.718071 581.1925 
L 603.941474 581.1925 
L 603.941474 402.419407 
L 598.718071 402.419407 
z
" clip-path="url(#p63ec0221d7)" style="fill: #f44336; opacity: 0.8"/>
   </g>
   <g id="patch_89">
    <path d="M 611.776578 581.1925 
L 616.99998 581.1925 
L 616.99998 403.46918 
L 611.776578 403.46918 
z
" clip-path="url(#p63ec0221d7)" style="fill: #f44336; opacity: 0.8"/>
   </g>
   <g id="patch_90">
    <path d="M 624.835084 581.1925 
L 630.058487 581.1925 
L 630.058487 408.231333 
L 624.835084 408.231333 
z
" clip-path="url(#p63ec0221d7)" style="fill: #f44336; opacity: 0.8"/>
   </g>
   <g id="patch_91">
    <path d="M 637.893591 581.1925 
L 643.116994 581.1925 
L 643.116994 396.265619 
L 637.893591 396.265619 
z
" clip-path="url(#p63ec0221d7)" style="fill: #f44336; opacity: 0.8"/>
   </g>
   <g id="patch_92">
    <path d="M 650.952098 581.1925 
L 656.175501 581.1925 
L 656.175501 367.323833 
L 650.952098 367.323833 
z
" clip-path="url(#p63ec0221d7)" style="fill: #f44336; opacity: 0.8"/>
   </g>
   <g id="patch_93">
    <path d="M 664.010605 581.1925 
L 669.234007 581.1925 
L 669.234007 490.194794 
L 664.010605 490.194794 
z
" clip-path="url(#p63ec0221d7)" style="fill: #f44336; opacity: 0.8"/>
   </g>
   <g id="patch_94">
    <path d="M 677.069111 581.1925 
L 682.292514 581.1925 
L 682.292514 510.845722 
L 677.069111 510.845722 
z
" clip-path="url(#p63ec0221d7)" style="fill: #f44336; opacity: 0.8"/>
   </g>
   <g id="patch_95">
    <path d="M 690.127618 581.1925 
L 695.351021 581.1925 
L 695.351021 550.322711 
L 690.127618 550.322711 
z
" clip-path="url(#p63ec0221d7)" style="fill: #f44336; opacity: 0.8"/>
   </g>
   <g id="patch_96">
    <path d="M 703.186125 581.1925 
L 708.409528 581.1925 
L 708.409528 374.254085 
L 703.186125 374.254085 
z
" clip-path="url(#p63ec0221d7)" style="fill: #f44336; opacity: 0.8"/>
   </g>
   <g id="patch_97">
    <path d="M 716.244632 581.1925 
L 721.468034 581.1925 
L 721.468034 445.596788 
L 716.244632 445.596788 
z
" clip-path="url(#p63ec0221d7)" style="fill: #f44336; opacity: 0.8"/>
   </g>
   <g id="patch_98">
    <path d="M 729.303138 581.1925 
L 734.526541 581.1925 
L 734.526541 413.89402 
L 729.303138 413.89402 
z
" clip-path="url(#p63ec0221d7)" style="fill: #f44336; opacity: 0.8"/>
   </g>
   <g id="patch_99">
    <path d="M 742.361645 581.1925 
L 747.585048 581.1925 
L 747.585048 525.777487 
L 742.361645 525.777487 
z
" clip-path="url(#p63ec0221d7)" style="fill: #f44336; opacity: 0.8"/>
   </g>
   <g id="patch_100">
    <path d="M 755.420152 581.1925 
L 760.643555 581.1925 
L 760.643555 479.53375 
L 755.420152 479.53375 
z
" clip-path="url(#p63ec0221d7)" style="fill: #f44336; opacity: 0.8"/>
   </g>
   <g id="patch_101">
    <path d="M 768.478659 581.1925 
L 773.702061 581.1925 
L 773.702061 462.006597 
L 768.478659 462.006597 
z
" clip-path="url(#p63ec0221d7)" style="fill: #f44336; opacity: 0.8"/>
   </g>
   <g id="patch_102">
    <path d="M 781.537165 581.1925 
L 786.760568 581.1925 
L 786.760568 481.247224 
L 781.537165 481.247224 
z
" clip-path="url(#p63ec0221d7)" style="fill: #f44336; opacity: 0.8"/>
   </g>
   <g id="matplotlib.axis_1">
    <g id="xtick_1">
     <g id="line2d_1">
      <defs>
       <path id="m8b615713d0" d="M 0 0 
L 0 3.5 
" style="stroke: #000000; stroke-width: 0.8"/>
      </defs>
      <g>
       <use xlink:href="#m8b615713d0" x="141.670335" y="581.1925" style="stroke: #000000; stroke-width: 0.8"/>
      </g>
     </g>
     <g id="text_1">
      <!-- 0 -->
      <g transform="translate(131.490335 612.5075) scale(0.32 -0.32)">
       <defs>
        <path id="DejaVuSans-30" d="M 2034 4250 
Q 1547 4250 1301 3770 
Q 1056 3291 1056 2328 
Q 1056 1369 1301 889 
Q 1547 409 2034 409 
Q 2525 409 2770 889 
Q 3016 1369 3016 2328 
Q 3016 3291 2770 3770 
Q 2525 4250 2034 4250 
z
M 2034 4750 
Q 2819 4750 3233 4129 
Q 3647 3509 3647 2328 
Q 3647 1150 3233 529 
Q 2819 -91 2034 -91 
Q 1250 -91 836 529 
Q 422 1150 422 2328 
Q 422 3509 836 4129 
Q 1250 4750 2034 4750 
z
" transform="scale(0.015625)"/>
       </defs>
       <use xlink:href="#DejaVuSans-30"/>
      </g>
     </g>
    </g>
    <g id="xtick_2">
     <g id="line2d_2">
      <g>
       <use xlink:href="#m8b615713d0" x="272.255402" y="581.1925" style="stroke: #000000; stroke-width: 0.8"/>
      </g>
     </g>
     <g id="text_2">
      <!-- 10 -->
      <g transform="translate(251.895402 612.5075) scale(0.32 -0.32)">
       <defs>
        <path id="DejaVuSans-31" d="M 794 531 
L 1825 531 
L 1825 4091 
L 703 3866 
L 703 4441 
L 1819 4666 
L 2450 4666 
L 2450 531 
L 3481 531 
L 3481 0 
L 794 0 
L 794 531 
z
" transform="scale(0.015625)"/>
       </defs>
       <use xlink:href="#DejaVuSans-31"/>
       <use xlink:href="#DejaVuSans-30" transform="translate(63.623047 0)"/>
      </g>
     </g>
    </g>
    <g id="xtick_3">
     <g id="line2d_3">
      <g>
       <use xlink:href="#m8b615713d0" x="402.84047" y="581.1925" style="stroke: #000000; stroke-width: 0.8"/>
      </g>
     </g>
     <g id="text_3">
      <!-- 20 -->
      <g transform="translate(382.48047 612.5075) scale(0.32 -0.32)">
       <defs>
        <path id="DejaVuSans-32" d="M 1228 531 
L 3431 531 
L 3431 0 
L 469 0 
L 469 531 
Q 828 903 1448 1529 
Q 2069 2156 2228 2338 
Q 2531 2678 2651 2914 
Q 2772 3150 2772 3378 
Q 2772 3750 2511 3984 
Q 2250 4219 1831 4219 
Q 1534 4219 1204 4116 
Q 875 4013 500 3803 
L 500 4441 
Q 881 4594 1212 4672 
Q 1544 4750 1819 4750 
Q 2544 4750 2975 4387 
Q 3406 4025 3406 3419 
Q 3406 3131 3298 2873 
Q 3191 2616 2906 2266 
Q 2828 2175 2409 1742 
Q 1991 1309 1228 531 
z
" transform="scale(0.015625)"/>
       </defs>
       <use xlink:href="#DejaVuSans-32"/>
       <use xlink:href="#DejaVuSans-30" transform="translate(63.623047 0)"/>
      </g>
     </g>
    </g>
    <g id="xtick_4">
     <g id="line2d_4">
      <g>
       <use xlink:href="#m8b615713d0" x="533.425537" y="581.1925" style="stroke: #000000; stroke-width: 0.8"/>
      </g>
     </g>
     <g id="text_4">
      <!-- 30 -->
      <g transform="translate(513.065537 612.5075) scale(0.32 -0.32)">
       <defs>
        <path id="DejaVuSans-33" d="M 2597 2516 
Q 3050 2419 3304 2112 
Q 3559 1806 3559 1356 
Q 3559 666 3084 287 
Q 2609 -91 1734 -91 
Q 1441 -91 1130 -33 
Q 819 25 488 141 
L 488 750 
Q 750 597 1062 519 
Q 1375 441 1716 441 
Q 2309 441 2620 675 
Q 2931 909 2931 1356 
Q 2931 1769 2642 2001 
Q 2353 2234 1838 2234 
L 1294 2234 
L 1294 2753 
L 1863 2753 
Q 2328 2753 2575 2939 
Q 2822 3125 2822 3475 
Q 2822 3834 2567 4026 
Q 2313 4219 1838 4219 
Q 1578 4219 1281 4162 
Q 984 4106 628 3988 
L 628 4550 
Q 988 4650 1302 4700 
Q 1616 4750 1894 4750 
Q 2613 4750 3031 4423 
Q 3450 4097 3450 3541 
Q 3450 3153 3228 2886 
Q 3006 2619 2597 2516 
z
" transform="scale(0.015625)"/>
       </defs>
       <use xlink:href="#DejaVuSans-33"/>
       <use xlink:href="#DejaVuSans-30" transform="translate(63.623047 0)"/>
      </g>
     </g>
    </g>
    <g id="xtick_5">
     <g id="line2d_5">
      <g>
       <use xlink:href="#m8b615713d0" x="664.010605" y="581.1925" style="stroke: #000000; stroke-width: 0.8"/>
      </g>
     </g>
     <g id="text_5">
      <!-- 40 -->
      <g transform="translate(643.650605 612.5075) scale(0.32 -0.32)">
       <defs>
        <path id="DejaVuSans-34" d="M 2419 4116 
L 825 1625 
L 2419 1625 
L 2419 4116 
z
M 2253 4666 
L 3047 4666 
L 3047 1625 
L 3713 1625 
L 3713 1100 
L 3047 1100 
L 3047 0 
L 2419 0 
L 2419 1100 
L 313 1100 
L 313 1709 
L 2253 4666 
z
" transform="scale(0.015625)"/>
       </defs>
       <use xlink:href="#DejaVuSans-34"/>
       <use xlink:href="#DejaVuSans-30" transform="translate(63.623047 0)"/>
      </g>
     </g>
    </g>
    <g id="xtick_6">
     <g id="line2d_6">
      <g>
       <use xlink:href="#m8b615713d0" x="794.595672" y="581.1925" style="stroke: #000000; stroke-width: 0.8"/>
      </g>
     </g>
     <g id="text_6">
      <!-- 50 -->
      <g transform="translate(774.235672 612.5075) scale(0.32 -0.32)">
       <defs>
        <path id="DejaVuSans-35" d="M 691 4666 
L 3169 4666 
L 3169 4134 
L 1269 4134 
L 1269 2991 
Q 1406 3038 1543 3061 
Q 1681 3084 1819 3084 
Q 2600 3084 3056 2656 
Q 3513 2228 3513 1497 
Q 3513 744 3044 326 
Q 2575 -91 1722 -91 
Q 1428 -91 1123 -41 
Q 819 9 494 109 
L 494 744 
Q 775 591 1075 516 
Q 1375 441 1709 441 
Q 2250 441 2565 725 
Q 2881 1009 2881 1497 
Q 2881 1984 2565 2268 
Q 2250 2553 1709 2553 
Q 1456 2553 1204 2497 
Q 953 2441 691 2322 
L 691 4666 
z
" transform="scale(0.015625)"/>
       </defs>
       <use xlink:href="#DejaVuSans-35"/>
       <use xlink:href="#DejaVuSans-30" transform="translate(63.623047 0)"/>
      </g>
     </g>
    </g>
    <g id="text_7">
     <!-- Slot de inventario -->
     <g transform="translate(302.115312 650.516875) scale(0.36 -0.36)">
      <defs>
       <path id="DejaVuSans-53" d="M 3425 4513 
L 3425 3897 
Q 3066 4069 2747 4153 
Q 2428 4238 2131 4238 
Q 1616 4238 1336 4038 
Q 1056 3838 1056 3469 
Q 1056 3159 1242 3001 
Q 1428 2844 1947 2747 
L 2328 2669 
Q 3034 2534 3370 2195 
Q 3706 1856 3706 1288 
Q 3706 609 3251 259 
Q 2797 -91 1919 -91 
Q 1588 -91 1214 -16 
Q 841 59 441 206 
L 441 856 
Q 825 641 1194 531 
Q 1563 422 1919 422 
Q 2459 422 2753 634 
Q 3047 847 3047 1241 
Q 3047 1584 2836 1778 
Q 2625 1972 2144 2069 
L 1759 2144 
Q 1053 2284 737 2584 
Q 422 2884 422 3419 
Q 422 4038 858 4394 
Q 1294 4750 2059 4750 
Q 2388 4750 2728 4690 
Q 3069 4631 3425 4513 
z
" transform="scale(0.015625)"/>
       <path id="DejaVuSans-6c" d="M 603 4863 
L 1178 4863 
L 1178 0 
L 603 0 
L 603 4863 
z
" transform="scale(0.015625)"/>
       <path id="DejaVuSans-6f" d="M 1959 3097 
Q 1497 3097 1228 2736 
Q 959 2375 959 1747 
Q 959 1119 1226 758 
Q 1494 397 1959 397 
Q 2419 397 2687 759 
Q 2956 1122 2956 1747 
Q 2956 2369 2687 2733 
Q 2419 3097 1959 3097 
z
M 1959 3584 
Q 2709 3584 3137 3096 
Q 3566 2609 3566 1747 
Q 3566 888 3137 398 
Q 2709 -91 1959 -91 
Q 1206 -91 779 398 
Q 353 888 353 1747 
Q 353 2609 779 3096 
Q 1206 3584 1959 3584 
z
" transform="scale(0.015625)"/>
       <path id="DejaVuSans-74" d="M 1172 4494 
L 1172 3500 
L 2356 3500 
L 2356 3053 
L 1172 3053 
L 1172 1153 
Q 1172 725 1289 603 
Q 1406 481 1766 481 
L 2356 481 
L 2356 0 
L 1766 0 
Q 1100 0 847 248 
Q 594 497 594 1153 
L 594 3053 
L 172 3053 
L 172 3500 
L 594 3500 
L 594 4494 
L 1172 4494 
z
" transform="scale(0.015625)"/>
       <path id="DejaVuSans-20" transform="scale(0.015625)"/>
       <path id="DejaVuSans-64" d="M 2906 2969 
L 2906 4863 
L 3481 4863 
L 3481 0 
L 2906 0 
L 2906 525 
Q 2725 213 2448 61 
Q 2172 -91 1784 -91 
Q 1150 -91 751 415 
Q 353 922 353 1747 
Q 353 2572 751 3078 
Q 1150 3584 1784 3584 
Q 2172 3584 2448 3432 
Q 2725 3281 2906 2969 
z
M 947 1747 
Q 947 1113 1208 752 
Q 1469 391 1925 391 
Q 2381 391 2643 752 
Q 2906 1113 2906 1747 
Q 2906 2381 2643 2742 
Q 2381 3103 1925 3103 
Q 1469 3103 1208 2742 
Q 947 2381 947 1747 
z
" transform="scale(0.015625)"/>
       <path id="DejaVuSans-65" d="M 3597 1894 
L 3597 1613 
L 953 1613 
Q 991 1019 1311 708 
Q 1631 397 2203 397 
Q 2534 397 2845 478 
Q 3156 559 3463 722 
L 3463 178 
Q 3153 47 2828 -22 
Q 2503 -91 2169 -91 
Q 1331 -91 842 396 
Q 353 884 353 1716 
Q 353 2575 817 3079 
Q 1281 3584 2069 3584 
Q 2775 3584 3186 3129 
Q 3597 2675 3597 1894 
z
M 3022 2063 
Q 3016 2534 2758 2815 
Q 2500 3097 2075 3097 
Q 1594 3097 1305 2825 
Q 1016 2553 972 2059 
L 3022 2063 
z
" transform="scale(0.015625)"/>
       <path id="DejaVuSans-69" d="M 603 3500 
L 1178 3500 
L 1178 0 
L 603 0 
L 603 3500 
z
M 603 4863 
L 1178 4863 
L 1178 4134 
L 603 4134 
L 603 4863 
z
" transform="scale(0.015625)"/>
       <path id="DejaVuSans-6e" d="M 3513 2113 
L 3513 0 
L 2938 0 
L 2938 2094 
Q 2938 2591 2744 2837 
Q 2550 3084 2163 3084 
Q 1697 3084 1428 2787 
Q 1159 2491 1159 1978 
L 1159 0 
L 581 0 
L 581 3500 
L 1159 3500 
L 1159 2956 
Q 1366 3272 1645 3428 
Q 1925 3584 2291 3584 
Q 2894 3584 3203 3211 
Q 3513 2838 3513 2113 
z
" transform="scale(0.015625)"/>
       <path id="DejaVuSans-76" d="M 191 3500 
L 800 3500 
L 1894 563 
L 2988 3500 
L 3597 3500 
L 2284 0 
L 1503 0 
L 191 3500 
z
" transform="scale(0.015625)"/>
       <path id="DejaVuSans-61" d="M 2194 1759 
Q 1497 1759 1228 1600 
Q 959 1441 959 1056 
Q 959 750 1161 570 
Q 1363 391 1709 391 
Q 2188 391 2477 730 
Q 2766 1069 2766 1631 
L 2766 1759 
L 2194 1759 
z
M 3341 1997 
L 3341 0 
L 2766 0 
L 2766 531 
Q 2569 213 2275 61 
Q 1981 -91 1556 -91 
Q 1019 -91 701 211 
Q 384 513 384 1019 
Q 384 1609 779 1909 
Q 1175 2209 1959 2209 
L 2766 2209 
L 2766 2266 
Q 2766 2663 2505 2880 
Q 2244 3097 1772 3097 
Q 1472 3097 1187 3025 
Q 903 2953 641 2809 
L 641 3341 
Q 956 3463 1253 3523 
Q 1550 3584 1831 3584 
Q 2591 3584 2966 3190 
Q 3341 2797 3341 1997 
z
" transform="scale(0.015625)"/>
       <path id="DejaVuSans-72" d="M 2631 2963 
Q 2534 3019 2420 3045 
Q 2306 3072 2169 3072 
Q 1681 3072 1420 2755 
Q 1159 2438 1159 1844 
L 1159 0 
L 581 0 
L 581 3500 
L 1159 3500 
L 1159 2956 
Q 1341 3275 1631 3429 
Q 1922 3584 2338 3584 
Q 2397 3584 2469 3576 
Q 2541 3569 2628 3553 
L 2631 2963 
z
" transform="scale(0.015625)"/>
      </defs>
      <use xlink:href="#DejaVuSans-53"/>
      <use xlink:href="#DejaVuSans-6c" transform="translate(63.476562 0)"/>
      <use xlink:href="#DejaVuSans-6f" transform="translate(91.259766 0)"/>
      <use xlink:href="#DejaVuSans-74" transform="translate(152.441406 0)"/>
      <use xlink:href="#DejaVuSans-20" transform="translate(191.650391 0)"/>
      <use xlink:href="#DejaVuSans-64" transform="translate(223.4375 0)"/>
      <use xlink:href="#DejaVuSans-65" transform="translate(286.914062 0)"/>
      <use xlink:href="#DejaVuSans-20" transform="translate(348.4375 0)"/>
      <use xlink:href="#DejaVuSans-69" transform="translate(380.224609 0)"/>
      <use xlink:href="#DejaVuSans-6e" transform="translate(408.007812 0)"/>
      <use xlink:href="#DejaVuSans-76" transform="translate(471.386719 0)"/>
      <use xlink:href="#DejaVuSans-65" transform="translate(530.566406 0)"/>
      <use xlink:href="#DejaVuSans-6e" transform="translate(592.089844 0)"/>
      <use xlink:href="#DejaVuSans-74" transform="translate(655.46875 0)"/>
      <use xlink:href="#DejaVuSans-61" transform="translate(694.677734 0)"/>
      <use xlink:href="#DejaVuSans-72" transform="translate(755.957031 0)"/>
      <use xlink:href="#DejaVuSans-69" transform="translate(797.070312 0)"/>
      <use xlink:href="#DejaVuSans-6f" transform="translate(824.853516 0)"/>
     </g>
    </g>
   </g>
   <g id="matplotlib.axis_2">
    <g id="ytick_1">
     <g id="line2d_7">
      <path d="M 103.93125 581.1925 
L 819.27625 581.1925 
" clip-path="url(#p63ec0221d7)" style="fill: none; stroke: #b0b0b0; stroke-opacity: 0.3; stroke-width: 0.8; stroke-linecap: square"/>
     </g>
     <g id="line2d_8">
      <defs>
       <path id="ma271ec0fec" d="M 0 0 
L -3.5 0 
" style="stroke: #000000; stroke-width: 0.8"/>
      </defs>
      <g>
       <use xlink:href="#ma271ec0fec" x="103.93125" y="581.1925" style="stroke: #000000; stroke-width: 0.8"/>
      </g>
     </g>
     <g id="text_8">
      <!-- 0.0 -->
      <g transform="translate(46.04125 593.35) scale(0.32 -0.32)">
       <defs>
        <path id="DejaVuSans-2e" d="M 684 794 
L 1344 794 
L 1344 0 
L 684 0 
L 684 794 
z
" transform="scale(0.015625)"/>
       </defs>
       <use xlink:href="#DejaVuSans-30"/>
       <use xlink:href="#DejaVuSans-2e" transform="translate(63.623047 0)"/>
       <use xlink:href="#DejaVuSans-30" transform="translate(95.410156 0)"/>
      </g>
     </g>
    </g>
    <g id="ytick_2">
     <g id="line2d_9">
      <path d="M 103.93125 503.959614 
L 819.27625 503.959614 
" clip-path="url(#p63ec0221d7)" style="fill: none; stroke: #b0b0b0; stroke-opacity: 0.3; stroke-width: 0.8; stroke-linecap: square"/>
     </g>
     <g id="line2d_10">
      <g>
       <use xlink:href="#ma271ec0fec" x="103.93125" y="503.959614" style="stroke: #000000; stroke-width: 0.8"/>
      </g>
     </g>
     <g id="text_9">
      <!-- 0.1 -->
      <g transform="translate(46.04125 516.117114) scale(0.32 -0.32)">
       <use xlink:href="#DejaVuSans-30"/>
       <use xlink:href="#DejaVuSans-2e" transform="translate(63.623047 0)"/>
       <use xlink:href="#DejaVuSans-31" transform="translate(95.410156 0)"/>
      </g>
     </g>
    </g>
    <g id="ytick_3">
     <g id="line2d_11">
      <path d="M 103.93125 426.726728 
L 819.27625 426.726728 
" clip-path="url(#p63ec0221d7)" style="fill: none; stroke: #b0b0b0; stroke-opacity: 0.3; stroke-width: 0.8; stroke-linecap: square"/>
     </g>
     <g id="line2d_12">
      <g>
       <use xlink:href="#ma271ec0fec" x="103.93125" y="426.726728" style="stroke: #000000; stroke-width: 0.8"/>
      </g>
     </g>
     <g id="text_10">
      <!-- 0.2 -->
      <g transform="translate(46.04125 438.884228) scale(0.32 -0.32)">
       <use xlink:href="#DejaVuSans-30"/>
       <use xlink:href="#DejaVuSans-2e" transform="translate(63.623047 0)"/>
       <use xlink:href="#DejaVuSans-32" transform="translate(95.410156 0)"/>
      </g>
     </g>
    </g>
    <g id="ytick_4">
     <g id="line2d_13">
      <path d="M 103.93125 349.493841 
L 819.27625 349.493841 
" clip-path="url(#p63ec0221d7)" style="fill: none; stroke: #b0b0b0; stroke-opacity: 0.3; stroke-width: 0.8; stroke-linecap: square"/>
     </g>
     <g id="line2d_14">
      <g>
       <use xlink:href="#ma271ec0fec" x="103.93125" y="349.493841" style="stroke: #000000; stroke-width: 0.8"/>
      </g>
     </g>
     <g id="text_11">
      <!-- 0.3 -->
      <g transform="translate(46.04125 361.651341) scale(0.32 -0.32)">
       <use xlink:href="#DejaVuSans-30"/>
       <use xlink:href="#DejaVuSans-2e" transform="translate(63.623047 0)"/>
       <use xlink:href="#DejaVuSans-33" transform="translate(95.410156 0)"/>
      </g>
     </g>
    </g>
    <g id="ytick_5">
     <g id="line2d_15">
      <path d="M 103.93125 272.260955 
L 819.27625 272.260955 
" clip-path="url(#p63ec0221d7)" style="fill: none; stroke: #b0b0b0; stroke-opacity: 0.3; stroke-width: 0.8; stroke-linecap: square"/>
     </g>
     <g id="line2d_16">
      <g>
       <use xlink:href="#ma271ec0fec" x="103.93125" y="272.260955" style="stroke: #000000; stroke-width: 0.8"/>
      </g>
     </g>
     <g id="text_12">
      <!-- 0.4 -->
      <g transform="translate(46.04125 284.418455) scale(0.32 -0.32)">
       <use xlink:href="#DejaVuSans-30"/>
       <use xlink:href="#DejaVuSans-2e" transform="translate(63.623047 0)"/>
       <use xlink:href="#DejaVuSans-34" transform="translate(95.410156 0)"/>
      </g>
     </g>
    </g>
    <g id="ytick_6">
     <g id="line2d_17">
      <path d="M 103.93125 195.028069 
L 819.27625 195.028069 
" clip-path="url(#p63ec0221d7)" style="fill: none; stroke: #b0b0b0; stroke-opacity: 0.3; stroke-width: 0.8; stroke-linecap: square"/>
     </g>
     <g id="line2d_18">
      <g>
       <use xlink:href="#ma271ec0fec" x="103.93125" y="195.028069" style="stroke: #000000; stroke-width: 0.8"/>
      </g>
     </g>
     <g id="text_13">
      <!-- 0.5 -->
      <g transform="translate(46.04125 207.185569) scale(0.32 -0.32)">
       <use xlink:href="#DejaVuSans-30"/>
       <use xlink:href="#DejaVuSans-2e" transform="translate(63.623047 0)"/>
       <use xlink:href="#DejaVuSans-35" transform="translate(95.410156 0)"/>
      </g>
     </g>
    </g>
    <g id="ytick_7">
     <g id="line2d_19">
      <path d="M 103.93125 117.795183 
L 819.27625 117.795183 
" clip-path="url(#p63ec0221d7)" style="fill: none; stroke: #b0b0b0; stroke-opacity: 0.3; stroke-width: 0.8; stroke-linecap: square"/>
     </g>
     <g id="line2d_20">
      <g>
       <use xlink:href="#ma271ec0fec" x="103.93125" y="117.795183" style="stroke: #000000; stroke-width: 0.8"/>
      </g>
     </g>
     <g id="text_14">
      <!-- 0.6 -->
      <g transform="translate(46.04125 129.952683) scale(0.32 -0.32)">
       <defs>
        <path id="DejaVuSans-36" d="M 2113 2584 
Q 1688 2584 1439 2293 
Q 1191 2003 1191 1497 
Q 1191 994 1439 701 
Q 1688 409 2113 409 
Q 2538 409 2786 701 
Q 3034 994 3034 1497 
Q 3034 2003 2786 2293 
Q 2538 2584 2113 2584 
z
M 3366 4563 
L 3366 3988 
Q 3128 4100 2886 4159 
Q 2644 4219 2406 4219 
Q 1781 4219 1451 3797 
Q 1122 3375 1075 2522 
Q 1259 2794 1537 2939 
Q 1816 3084 2150 3084 
Q 2853 3084 3261 2657 
Q 3669 2231 3669 1497 
Q 3669 778 3244 343 
Q 2819 -91 2113 -91 
Q 1303 -91 875 529 
Q 447 1150 447 2328 
Q 447 3434 972 4092 
Q 1497 4750 2381 4750 
Q 2619 4750 2861 4703 
Q 3103 4656 3366 4563 
z
" transform="scale(0.015625)"/>
       </defs>
       <use xlink:href="#DejaVuSans-30"/>
       <use xlink:href="#DejaVuSans-2e" transform="translate(63.623047 0)"/>
       <use xlink:href="#DejaVuSans-36" transform="translate(95.410156 0)"/>
      </g>
     </g>
    </g>
    <g id="text_15">
     <!-- Valor esperado ($) -->
     <g transform="translate(34.554375 480.48125) rotate(-90) scale(0.36 -0.36)">
      <defs>
       <path id="DejaVuSans-56" d="M 1831 0 
L 50 4666 
L 709 4666 
L 2188 738 
L 3669 4666 
L 4325 4666 
L 2547 0 
L 1831 0 
z
" transform="scale(0.015625)"/>
       <path id="DejaVuSans-73" d="M 2834 3397 
L 2834 2853 
Q 2591 2978 2328 3040 
Q 2066 3103 1784 3103 
Q 1356 3103 1142 2972 
Q 928 2841 928 2578 
Q 928 2378 1081 2264 
Q 1234 2150 1697 2047 
L 1894 2003 
Q 2506 1872 2764 1633 
Q 3022 1394 3022 966 
Q 3022 478 2636 193 
Q 2250 -91 1575 -91 
Q 1294 -91 989 -36 
Q 684 19 347 128 
L 347 722 
Q 666 556 975 473 
Q 1284 391 1588 391 
Q 1994 391 2212 530 
Q 2431 669 2431 922 
Q 2431 1156 2273 1281 
Q 2116 1406 1581 1522 
L 1381 1569 
Q 847 1681 609 1914 
Q 372 2147 372 2553 
Q 372 3047 722 3315 
Q 1072 3584 1716 3584 
Q 2034 3584 2315 3537 
Q 2597 3491 2834 3397 
z
" transform="scale(0.015625)"/>
       <path id="DejaVuSans-70" d="M 1159 525 
L 1159 -1331 
L 581 -1331 
L 581 3500 
L 1159 3500 
L 1159 2969 
Q 1341 3281 1617 3432 
Q 1894 3584 2278 3584 
Q 2916 3584 3314 3078 
Q 3713 2572 3713 1747 
Q 3713 922 3314 415 
Q 2916 -91 2278 -91 
Q 1894 -91 1617 61 
Q 1341 213 1159 525 
z
M 3116 1747 
Q 3116 2381 2855 2742 
Q 2594 3103 2138 3103 
Q 1681 3103 1420 2742 
Q 1159 2381 1159 1747 
Q 1159 1113 1420 752 
Q 1681 391 2138 391 
Q 2594 391 2855 752 
Q 3116 1113 3116 1747 
z
" transform="scale(0.015625)"/>
       <path id="DejaVuSans-28" d="M 1984 4856 
Q 1566 4138 1362 3434 
Q 1159 2731 1159 2009 
Q 1159 1288 1364 580 
Q 1569 -128 1984 -844 
L 1484 -844 
Q 1016 -109 783 600 
Q 550 1309 550 2009 
Q 550 2706 781 3412 
Q 1013 4119 1484 4856 
L 1984 4856 
z
" transform="scale(0.015625)"/>
       <path id="DejaVuSans-24" d="M 2163 -941 
L 1850 -941 
L 1847 0 
Q 1519 6 1191 76 
Q 863 147 531 288 
L 531 850 
Q 850 650 1176 548 
Q 1503 447 1850 444 
L 1850 1869 
Q 1159 1981 845 2250 
Q 531 2519 531 2988 
Q 531 3497 872 3790 
Q 1213 4084 1850 4128 
L 1850 4863 
L 2163 4863 
L 2163 4138 
Q 2453 4125 2725 4076 
Q 2997 4028 3256 3944 
L 3256 3397 
Q 2997 3528 2723 3600 
Q 2450 3672 2163 3684 
L 2163 2350 
Q 2872 2241 3206 1959 
Q 3541 1678 3541 1191 
Q 3541 663 3186 358 
Q 2831 53 2163 6 
L 2163 -941 
z
M 1850 2406 
L 1850 3688 
Q 1488 3647 1297 3481 
Q 1106 3316 1106 3041 
Q 1106 2772 1282 2622 
Q 1459 2472 1850 2406 
z
M 2163 1806 
L 2163 453 
Q 2559 506 2761 678 
Q 2963 850 2963 1131 
Q 2963 1406 2770 1568 
Q 2578 1731 2163 1806 
z
" transform="scale(0.015625)"/>
       <path id="DejaVuSans-29" d="M 513 4856 
L 1013 4856 
Q 1481 4119 1714 3412 
Q 1947 2706 1947 2009 
Q 1947 1309 1714 600 
Q 1481 -109 1013 -844 
L 513 -844 
Q 928 -128 1133 580 
Q 1338 1288 1338 2009 
Q 1338 2731 1133 3434 
Q 928 4138 513 4856 
z
" transform="scale(0.015625)"/>
      </defs>
      <use xlink:href="#DejaVuSans-56"/>
      <use xlink:href="#DejaVuSans-61" transform="translate(60.658203 0)"/>
      <use xlink:href="#DejaVuSans-6c" transform="translate(121.9375 0)"/>
      <use xlink:href="#DejaVuSans-6f" transform="translate(149.720703 0)"/>
      <use xlink:href="#DejaVuSans-72" transform="translate(210.902344 0)"/>
      <use xlink:href="#DejaVuSans-20" transform="translate(252.015625 0)"/>
      <use xlink:href="#DejaVuSans-65" transform="translate(283.802734 0)"/>
      <use xlink:href="#DejaVuSans-73" transform="translate(345.326172 0)"/>
      <use xlink:href="#DejaVuSans-70" transform="translate(397.425781 0)"/>
      <use xlink:href="#DejaVuSans-65" transform="translate(460.902344 0)"/>
      <use xlink:href="#DejaVuSans-72" transform="translate(522.425781 0)"/>
      <use xlink:href="#DejaVuSans-61" transform="translate(563.539062 0)"/>
      <use xlink:href="#DejaVuSans-64" transform="translate(624.818359 0)"/>
      <use xlink:href="#DejaVuSans-6f" transform="translate(688.294922 0)"/>
      <use xlink:href="#DejaVuSans-20" transform="translate(749.476562 0)"/>
      <use xlink:href="#DejaVuSans-28" transform="translate(781.263672 0)"/>
      <use xlink:href="#DejaVuSans-24" transform="translate(820.277344 0)"/>
      <use xlink:href="#DejaVuSans-29" transform="translate(883.900391 0)"/>
     </g>
    </g>
   </g>
   <g id="patch_103">
    <path d="M 103.93125 581.1925 
L 103.93125 47.5125 
" style="fill: none; stroke: #000000; stroke-width: 0.8; stroke-linejoin: miter; stroke-linecap: square"/>
   </g>
   <g id="patch_104">
    <path d="M 819.27625 581.1925 
L 819.27625 47.5125 
" style="fill: none; stroke: #000000; stroke-width: 0.8; stroke-linejoin: miter; stroke-linecap: square"/>
   </g>
   <g id="patch_105">
    <path d="M 103.93125 581.1925 
L 819.27625 581.1925 
" style="fill: none; stroke: #000000; stroke-width: 0.8; stroke-linejoin: miter; stroke-linecap: square"/>
   </g>
   <g id="patch_106">
    <path d="M 103.93125 47.5125 
L 819.27625 47.5125 
" style="fill: none; stroke: #000000; stroke-width: 0.8; stroke-linejoin: miter; stroke-linecap: square"/>
   </g>
   <g id="text_16">
    <!-- Valor por impresión -->
    <g transform="translate(266.631875 39.19375) scale(0.4 -0.4)">
     <defs>
      <path id="DejaVuSans-6d" d="M 3328 2828 
Q 3544 3216 3844 3400 
Q 4144 3584 4550 3584 
Q 5097 3584 5394 3201 
Q 5691 2819 5691 2113 
L 5691 0 
L 5113 0 
L 5113 2094 
Q 5113 2597 4934 2840 
Q 4756 3084 4391 3084 
Q 3944 3084 3684 2787 
Q 3425 2491 3425 1978 
L 3425 0 
L 2847 0 
L 2847 2094 
Q 2847 2600 2669 2842 
Q 2491 3084 2119 3084 
Q 1678 3084 1418 2786 
Q 1159 2488 1159 1978 
L 1159 0 
L 581 0 
L 581 3500 
L 1159 3500 
L 1159 2956 
Q 1356 3278 1631 3431 
Q 1906 3584 2284 3584 
Q 2666 3584 2933 3390 
Q 3200 3197 3328 2828 
z
" transform="scale(0.015625)"/>
      <path id="DejaVuSans-f3" d="M 1959 3097 
Q 1497 3097 1228 2736 
Q 959 2375 959 1747 
Q 959 1119 1226 758 
Q 1494 397 1959 397 
Q 2419 397 2687 759 
Q 2956 1122 2956 1747 
Q 2956 2369 2687 2733 
Q 2419 3097 1959 3097 
z
M 1959 3584 
Q 2709 3584 3137 3096 
Q 3566 2609 3566 1747 
Q 3566 888 3137 398 
Q 2709 -91 1959 -91 
Q 1206 -91 779 398 
Q 353 888 353 1747 
Q 353 2609 779 3096 
Q 1206 3584 1959 3584 
z
M 2394 5119 
L 3016 5119 
L 1998 3944 
L 1519 3944 
L 2394 5119 
z
" transform="scale(0.015625)"/>
     </defs>
     <use xlink:href="#DejaVuSans-56"/>
     <use xlink:href="#DejaVuSans-61" transform="translate(60.658203 0)"/>
     <use xlink:href="#DejaVuSans-6c" transform="translate(121.9375 0)"/>
     <use xlink:href="#DejaVuSans-6f" transform="translate(149.720703 0)"/>
     <use xlink:href="#DejaVuSans-72" transform="translate(210.902344 0)"/>
     <use xlink:href="#DejaVuSans-20" transform="translate(252.015625 0)"/>
     <use xlink:href="#DejaVuSans-70" transform="translate(283.802734 0)"/>
     <use xlink:href="#DejaVuSans-6f" transform="translate(347.279297 0)"/>
     <use xlink:href="#DejaVuSans-72" transform="translate(408.460938 0)"/>
     <use xlink:href="#DejaVuSans-20" transform="translate(449.574219 0)"/>
     <use xlink:href="#DejaVuSans-69" transform="translate(481.361328 0)"/>
     <use xlink:href="#DejaVuSans-6d" transform="translate(509.144531 0)"/>
     <use xlink:href="#DejaVuSans-70" transform="translate(606.556641 0)"/>
     <use xlink:href="#DejaVuSans-72" transform="translate(670.033203 0)"/>
     <use xlink:href="#DejaVuSans-65" transform="translate(708.896484 0)"/>
     <use xlink:href="#DejaVuSans-73" transform="translate(770.419922 0)"/>
     <use xlink:href="#DejaVuSans-69" transform="translate(822.519531 0)"/>
     <use xlink:href="#DejaVuSans-f3" transform="translate(850.302734 0)"/>
     <use xlink:href="#DejaVuSans-6e" transform="translate(911.484375 0)"/>
    </g>
   </g>
   <g id="legend_1">
    <g id="patch_107">
     <path d="M 126.33125 167.0525 
L 615.48125 167.0525 
Q 621.88125 167.0525 621.88125 160.6525 
L 621.88125 69.9125 
Q 621.88125 63.5125 615.48125 63.5125 
L 126.33125 63.5125 
Q 119.93125 63.5125 119.93125 69.9125 
L 119.93125 160.6525 
Q 119.93125 167.0525 126.33125 167.0525 
z
" style="fill: #ffffff; opacity: 0.8; stroke: #cccccc; stroke-linejoin: miter"/>
    </g>
    <g id="patch_108">
     <path d="M 132.73125 100.6275 
L 196.73125 100.6275 
L 196.73125 78.2275 
L 132.73125 78.2275 
z
" style="fill: #2196f3; opacity: 0.8"/>
    </g>
    <g id="text_17">
     <!-- A  CPC=$2.0, CTR≈15% -->
     <g transform="translate(222.33125 100.6275) scale(0.32 -0.32)">
      <defs>
       <path id="DejaVuSans-41" d="M 2188 4044 
L 1331 1722 
L 3047 1722 
L 2188 4044 
z
M 1831 4666 
L 2547 4666 
L 4325 0 
L 3669 0 
L 3244 1197 
L 1141 1197 
L 716 0 
L 50 0 
L 1831 4666 
z
" transform="scale(0.015625)"/>
       <path id="DejaVuSans-43" d="M 4122 4306 
L 4122 3641 
Q 3803 3938 3442 4084 
Q 3081 4231 2675 4231 
Q 1875 4231 1450 3742 
Q 1025 3253 1025 2328 
Q 1025 1406 1450 917 
Q 1875 428 2675 428 
Q 3081 428 3442 575 
Q 3803 722 4122 1019 
L 4122 359 
Q 3791 134 3420 21 
Q 3050 -91 2638 -91 
Q 1578 -91 968 557 
Q 359 1206 359 2328 
Q 359 3453 968 4101 
Q 1578 4750 2638 4750 
Q 3056 4750 3426 4639 
Q 3797 4528 4122 4306 
z
" transform="scale(0.015625)"/>
       <path id="DejaVuSans-50" d="M 1259 4147 
L 1259 2394 
L 2053 2394 
Q 2494 2394 2734 2622 
Q 2975 2850 2975 3272 
Q 2975 3691 2734 3919 
Q 2494 4147 2053 4147 
L 1259 4147 
z
M 628 4666 
L 2053 4666 
Q 2838 4666 3239 4311 
Q 3641 3956 3641 3272 
Q 3641 2581 3239 2228 
Q 2838 1875 2053 1875 
L 1259 1875 
L 1259 0 
L 628 0 
L 628 4666 
z
" transform="scale(0.015625)"/>
       <path id="DejaVuSans-3d" d="M 678 2906 
L 4684 2906 
L 4684 2381 
L 678 2381 
L 678 2906 
z
M 678 1631 
L 4684 1631 
L 4684 1100 
L 678 1100 
L 678 1631 
z
" transform="scale(0.015625)"/>
       <path id="DejaVuSans-2c" d="M 750 794 
L 1409 794 
L 1409 256 
L 897 -744 
L 494 -744 
L 750 256 
L 750 794 
z
" transform="scale(0.015625)"/>
       <path id="DejaVuSans-54" d="M -19 4666 
L 3928 4666 
L 3928 4134 
L 2272 4134 
L 2272 0 
L 1638 0 
L 1638 4134 
L -19 4134 
L -19 4666 
z
" transform="scale(0.015625)"/>
       <path id="DejaVuSans-52" d="M 2841 2188 
Q 3044 2119 3236 1894 
Q 3428 1669 3622 1275 
L 4263 0 
L 3584 0 
L 2988 1197 
Q 2756 1666 2539 1819 
Q 2322 1972 1947 1972 
L 1259 1972 
L 1259 0 
L 628 0 
L 628 4666 
L 2053 4666 
Q 2853 4666 3247 4331 
Q 3641 3997 3641 3322 
Q 3641 2881 3436 2590 
Q 3231 2300 2841 2188 
z
M 1259 4147 
L 1259 2491 
L 2053 2491 
Q 2509 2491 2742 2702 
Q 2975 2913 2975 3322 
Q 2975 3731 2742 3939 
Q 2509 4147 2053 4147 
L 1259 4147 
z
" transform="scale(0.015625)"/>
       <path id="DejaVuSans-2248" d="M 4684 1947 
L 4684 1388 
Q 4356 1144 4076 1036 
Q 3797 928 3494 928 
Q 3150 928 2694 1113 
Q 2663 1125 2641 1134 
Q 2622 1141 2575 1159 
Q 2091 1350 1797 1350 
Q 1522 1350 1253 1231 
Q 984 1113 678 850 
L 678 1409 
Q 1006 1653 1286 1761 
Q 1566 1869 1869 1869 
Q 2213 1869 2672 1684 
Q 2706 1669 2722 1663 
Q 2741 1656 2788 1638 
Q 3272 1447 3566 1447 
Q 3834 1447 4098 1564 
Q 4363 1681 4684 1947 
z
M 4684 3163 
L 4684 2606 
Q 4356 2359 4076 2251 
Q 3797 2144 3494 2144 
Q 3150 2144 2694 2328 
Q 2663 2341 2641 2350 
Q 2622 2356 2575 2375 
Q 2091 2566 1797 2566 
Q 1522 2566 1253 2447 
Q 984 2328 678 2069 
L 678 2625 
Q 1006 2869 1286 2976 
Q 1566 3084 1869 3084 
Q 2213 3084 2672 2900 
Q 2703 2888 2719 2881 
Q 2741 2872 2788 2853 
Q 3272 2663 3566 2663 
Q 3834 2663 4098 2780 
Q 4363 2897 4684 3163 
z
" transform="scale(0.015625)"/>
       <path id="DejaVuSans-25" d="M 4653 2053 
Q 4381 2053 4226 1822 
Q 4072 1591 4072 1178 
Q 4072 772 4226 539 
Q 4381 306 4653 306 
Q 4919 306 5073 539 
Q 5228 772 5228 1178 
Q 5228 1588 5073 1820 
Q 4919 2053 4653 2053 
z
M 4653 2450 
Q 5147 2450 5437 2106 
Q 5728 1763 5728 1178 
Q 5728 594 5436 251 
Q 5144 -91 4653 -91 
Q 4153 -91 3862 251 
Q 3572 594 3572 1178 
Q 3572 1766 3864 2108 
Q 4156 2450 4653 2450 
z
M 1428 4353 
Q 1159 4353 1004 4120 
Q 850 3888 850 3481 
Q 850 3069 1003 2837 
Q 1156 2606 1428 2606 
Q 1700 2606 1854 2837 
Q 2009 3069 2009 3481 
Q 2009 3884 1853 4118 
Q 1697 4353 1428 4353 
z
M 4250 4750 
L 4750 4750 
L 1831 -91 
L 1331 -91 
L 4250 4750 
z
M 1428 4750 
Q 1922 4750 2215 4408 
Q 2509 4066 2509 3481 
Q 2509 2891 2217 2550 
Q 1925 2209 1428 2209 
Q 931 2209 642 2551 
Q 353 2894 353 3481 
Q 353 4063 643 4406 
Q 934 4750 1428 4750 
z
" transform="scale(0.015625)"/>
      </defs>
      <use xlink:href="#DejaVuSans-41"/>
      <use xlink:href="#DejaVuSans-20" transform="translate(68.408203 0)"/>
      <use xlink:href="#DejaVuSans-20" transform="translate(100.195312 0)"/>
      <use xlink:href="#DejaVuSans-43" transform="translate(131.982422 0)"/>
      <use xlink:href="#DejaVuSans-50" transform="translate(201.806641 0)"/>
      <use xlink:href="#DejaVuSans-43" transform="translate(262.109375 0)"/>
      <use xlink:href="#DejaVuSans-3d" transform="translate(331.933594 0)"/>
      <use xlink:href="#DejaVuSans-24" transform="translate(415.722656 0)"/>
      <use xlink:href="#DejaVuSans-32" transform="translate(479.345703 0)"/>
      <use xlink:href="#DejaVuSans-2e" transform="translate(542.96875 0)"/>
      <use xlink:href="#DejaVuSans-30" transform="translate(574.755859 0)"/>
      <use xlink:href="#DejaVuSans-2c" transform="translate(638.378906 0)"/>
      <use xlink:href="#DejaVuSans-20" transform="translate(670.166016 0)"/>
      <use xlink:href="#DejaVuSans-43" transform="translate(701.953125 0)"/>
      <use xlink:href="#DejaVuSans-54" transform="translate(771.777344 0)"/>
      <use xlink:href="#DejaVuSans-52" transform="translate(832.861328 0)"/>
      <use xlink:href="#DejaVuSans-2248" transform="translate(902.34375 0)"/>
      <use xlink:href="#DejaVuSans-31" transform="translate(986.132812 0)"/>
      <use xlink:href="#DejaVuSans-35" transform="translate(1049.755859 0)"/>
      <use xlink:href="#DejaVuSans-25" transform="translate(1113.378906 0)"/>
     </g>
    </g>
    <g id="patch_109">
     <path d="M 132.73125 147.5975 
L 196.73125 147.5975 
L 196.73125 125.1975 
L 132.73125 125.1975 
z
" style="fill: #f44336; opacity: 0.8"/>
    </g>
    <g id="text_18">
     <!-- B  CPC=$0.8, CTR≈25% -->
     <g transform="translate(222.33125 147.5975) scale(0.32 -0.32)">
      <defs>
       <path id="DejaVuSans-42" d="M 1259 2228 
L 1259 519 
L 2272 519 
Q 2781 519 3026 730 
Q 3272 941 3272 1375 
Q 3272 1813 3026 2020 
Q 2781 2228 2272 2228 
L 1259 2228 
z
M 1259 4147 
L 1259 2741 
L 2194 2741 
Q 2656 2741 2882 2914 
Q 3109 3088 3109 3444 
Q 3109 3797 2882 3972 
Q 2656 4147 2194 4147 
L 1259 4147 
z
M 628 4666 
L 2241 4666 
Q 2963 4666 3353 4366 
Q 3744 4066 3744 3513 
Q 3744 3084 3544 2831 
Q 3344 2578 2956 2516 
Q 3422 2416 3680 2098 
Q 3938 1781 3938 1306 
Q 3938 681 3513 340 
Q 3088 0 2303 0 
L 628 0 
L 628 4666 
z
" transform="scale(0.015625)"/>
       <path id="DejaVuSans-38" d="M 2034 2216 
Q 1584 2216 1326 1975 
Q 1069 1734 1069 1313 
Q 1069 891 1326 650 
Q 1584 409 2034 409 
Q 2484 409 2743 651 
Q 3003 894 3003 1313 
Q 3003 1734 2745 1975 
Q 2488 2216 2034 2216 
z
M 1403 2484 
Q 997 2584 770 2862 
Q 544 3141 544 3541 
Q 544 4100 942 4425 
Q 1341 4750 2034 4750 
Q 2731 4750 3128 4425 
Q 3525 4100 3525 3541 
Q 3525 3141 3298 2862 
Q 3072 2584 2669 2484 
Q 3125 2378 3379 2068 
Q 3634 1759 3634 1313 
Q 3634 634 3220 271 
Q 2806 -91 2034 -91 
Q 1263 -91 848 271 
Q 434 634 434 1313 
Q 434 1759 690 2068 
Q 947 2378 1403 2484 
z
M 1172 3481 
Q 1172 3119 1398 2916 
Q 1625 2713 2034 2713 
Q 2441 2713 2670 2916 
Q 2900 3119 2900 3481 
Q 2900 3844 2670 4047 
Q 2441 4250 2034 4250 
Q 1625 4250 1398 4047 
Q 1172 3844 1172 3481 
z
" transform="scale(0.015625)"/>
      </defs>
      <use xlink:href="#DejaVuSans-42"/>
      <use xlink:href="#DejaVuSans-20" transform="translate(68.603516 0)"/>
      <use xlink:href="#DejaVuSans-20" transform="translate(100.390625 0)"/>
      <use xlink:href="#DejaVuSans-43" transform="translate(132.177734 0)"/>
      <use xlink:href="#DejaVuSans-50" transform="translate(202.001953 0)"/>
      <use xlink:href="#DejaVuSans-43" transform="translate(262.304688 0)"/>
      <use xlink:href="#DejaVuSans-3d" transform="translate(332.128906 0)"/>
      <use xlink:href="#DejaVuSans-24" transform="translate(415.917969 0)"/>
      <use xlink:href="#DejaVuSans-30" transform="translate(479.541016 0)"/>
      <use xlink:href="#DejaVuSans-2e" transform="translate(543.164062 0)"/>
      <use xlink:href="#DejaVuSans-38" transform="translate(574.951172 0)"/>
      <use xlink:href="#DejaVuSans-2c" transform="translate(638.574219 0)"/>
      <use xlink:href="#DejaVuSans-20" transform="translate(670.361328 0)"/>
      <use xlink:href="#DejaVuSans-43" transform="translate(702.148438 0)"/>
      <use xlink:href="#DejaVuSans-54" transform="translate(771.972656 0)"/>
      <use xlink:href="#DejaVuSans-52" transform="translate(833.056641 0)"/>
      <use xlink:href="#DejaVuSans-2248" transform="translate(902.539062 0)"/>
      <use xlink:href="#DejaVuSans-32" transform="translate(986.328125 0)"/>
      <use xlink:href="#DejaVuSans-35" transform="translate(1049.951172 0)"/>
      <use xlink:href="#DejaVuSans-25" transform="translate(1113.574219 0)"/>
     </g>
    </g>
   </g>
  </g>
  <g id="axes_2">
   <g id="patch_110">
    <path d="M 950.65125 581.1925 
L 1665.99625 581.1925 
L 1665.99625 47.5125 
L 950.65125 47.5125 
z
" style="fill: #ffffff"/>
   </g>
   <g id="patch_111">
    <path d="M 983.166932 581.1925 
L 993.613737 581.1925 
L 993.613737 283.435225 
L 983.166932 283.435225 
z
" clip-path="url(#pe7024a037c)" style="fill: #f44336; opacity: 0.7"/>
   </g>
   <g id="patch_112">
    <path d="M 996.225439 581.1925 
L 1006.672244 581.1925 
L 1006.672244 294.833745 
L 996.225439 294.833745 
z
" clip-path="url(#pe7024a037c)" style="fill: #f44336; opacity: 0.7"/>
   </g>
   <g id="patch_113">
    <path d="M 1009.283945 581.1925 
L 1019.730751 581.1925 
L 1019.730751 362.263657 
L 1009.283945 362.263657 
z
" clip-path="url(#pe7024a037c)" style="fill: #f44336; opacity: 0.7"/>
   </g>
   <g id="patch_114">
    <path d="M 1022.342452 581.1925 
L 1032.789257 581.1925 
L 1032.789257 416.314746 
L 1022.342452 416.314746 
z
" clip-path="url(#pe7024a037c)" style="fill: #f44336; opacity: 0.7"/>
   </g>
   <g id="patch_115">
    <path d="M 1035.400959 581.1925 
L 1045.847764 581.1925 
L 1045.847764 294.187401 
L 1035.400959 294.187401 
z
" clip-path="url(#pe7024a037c)" style="fill: #f44336; opacity: 0.7"/>
   </g>
   <g id="patch_116">
    <path d="M 1048.459466 581.1925 
L 1058.906271 581.1925 
L 1058.906271 390.160732 
L 1048.459466 390.160732 
z
" clip-path="url(#pe7024a037c)" style="fill: #f44336; opacity: 0.7"/>
   </g>
   <g id="patch_117">
    <path d="M 1061.517972 581.1925 
L 1071.964778 581.1925 
L 1071.964778 390.812595 
L 1061.517972 390.812595 
z
" clip-path="url(#pe7024a037c)" style="fill: #f44336; opacity: 0.7"/>
   </g>
   <g id="patch_118">
    <path d="M 1074.576479 581.1925 
L 1085.023285 581.1925 
L 1085.023285 225.791563 
L 1074.576479 225.791563 
z
" clip-path="url(#pe7024a037c)" style="fill: #f44336; opacity: 0.7"/>
   </g>
   <g id="patch_119">
    <path d="M 1087.634986 581.1925 
L 1098.081791 581.1925 
L 1098.081791 336.014191 
L 1087.634986 336.014191 
z
" clip-path="url(#pe7024a037c)" style="fill: #f44336; opacity: 0.7"/>
   </g>
   <g id="patch_120">
    <path d="M 1100.693493 581.1925 
L 1111.140298 581.1925 
L 1111.140298 436.550862 
L 1100.693493 436.550862 
z
" clip-path="url(#pe7024a037c)" style="fill: #f44336; opacity: 0.7"/>
   </g>
   <g id="patch_121">
    <path d="M 1113.751999 581.1925 
L 1124.198805 581.1925 
L 1124.198805 394.15106 
L 1113.751999 394.15106 
z
" clip-path="url(#pe7024a037c)" style="fill: #f44336; opacity: 0.7"/>
   </g>
   <g id="patch_122">
    <path d="M 1126.810506 581.1925 
L 1137.257312 581.1925 
L 1137.257312 396.417243 
L 1126.810506 396.417243 
z
" clip-path="url(#pe7024a037c)" style="fill: #f44336; opacity: 0.7"/>
   </g>
   <g id="patch_123">
    <path d="M 1139.869013 581.1925 
L 1150.315818 581.1925 
L 1150.315818 459.535385 
L 1139.869013 459.535385 
z
" clip-path="url(#pe7024a037c)" style="fill: #f44336; opacity: 0.7"/>
   </g>
   <g id="patch_124">
    <path d="M 1152.92752 581.1925 
L 1163.374325 581.1925 
L 1163.374325 396.019785 
L 1152.92752 396.019785 
z
" clip-path="url(#pe7024a037c)" style="fill: #f44336; opacity: 0.7"/>
   </g>
   <g id="patch_125">
    <path d="M 1165.986026 581.1925 
L 1176.432832 581.1925 
L 1176.432832 404.449143 
L 1165.986026 404.449143 
z
" clip-path="url(#pe7024a037c)" style="fill: #f44336; opacity: 0.7"/>
   </g>
   <g id="patch_126">
    <path d="M 1179.044533 581.1925 
L 1189.491339 581.1925 
L 1189.491339 429.214766 
L 1179.044533 429.214766 
z
" clip-path="url(#pe7024a037c)" style="fill: #2196f3; opacity: 0.7"/>
   </g>
   <g id="patch_127">
    <path d="M 1192.10304 581.1925 
L 1202.549845 581.1925 
L 1202.549845 455.622094 
L 1192.10304 455.622094 
z
" clip-path="url(#pe7024a037c)" style="fill: #2196f3; opacity: 0.7"/>
   </g>
   <g id="patch_128">
    <path d="M 1205.161547 581.1925 
L 1215.608352 581.1925 
L 1215.608352 420.420054 
L 1205.161547 420.420054 
z
" clip-path="url(#pe7024a037c)" style="fill: #2196f3; opacity: 0.7"/>
   </g>
   <g id="patch_129">
    <path d="M 1218.220053 581.1925 
L 1228.666859 581.1925 
L 1228.666859 474.735825 
L 1218.220053 474.735825 
z
" clip-path="url(#pe7024a037c)" style="fill: #2196f3; opacity: 0.7"/>
   </g>
   <g id="patch_130">
    <path d="M 1231.27856 581.1925 
L 1241.725366 581.1925 
L 1241.725366 406.022499 
L 1231.27856 406.022499 
z
" clip-path="url(#pe7024a037c)" style="fill: #2196f3; opacity: 0.7"/>
   </g>
   <g id="patch_131">
    <path d="M 1244.337067 581.1925 
L 1254.783872 581.1925 
L 1254.783872 435.875454 
L 1244.337067 435.875454 
z
" clip-path="url(#pe7024a037c)" style="fill: #2196f3; opacity: 0.7"/>
   </g>
   <g id="patch_132">
    <path d="M 1257.395574 581.1925 
L 1267.842379 581.1925 
L 1267.842379 373.690044 
L 1257.395574 373.690044 
z
" clip-path="url(#pe7024a037c)" style="fill: #2196f3; opacity: 0.7"/>
   </g>
   <g id="patch_133">
    <path d="M 1270.45408 581.1925 
L 1280.900886 581.1925 
L 1280.900886 383.966205 
L 1270.45408 383.966205 
z
" clip-path="url(#pe7024a037c)" style="fill: #2196f3; opacity: 0.7"/>
   </g>
   <g id="patch_134">
    <path d="M 1283.512587 581.1925 
L 1293.959393 581.1925 
L 1293.959393 442.922991 
L 1283.512587 442.922991 
z
" clip-path="url(#pe7024a037c)" style="fill: #2196f3; opacity: 0.7"/>
   </g>
   <g id="patch_135">
    <path d="M 1296.571094 581.1925 
L 1307.017899 581.1925 
L 1307.017899 429.218907 
L 1296.571094 429.218907 
z
" clip-path="url(#pe7024a037c)" style="fill: #2196f3; opacity: 0.7"/>
   </g>
   <g id="patch_136">
    <path d="M 1309.629601 581.1925 
L 1320.076406 581.1925 
L 1320.076406 450.006794 
L 1309.629601 450.006794 
z
" clip-path="url(#pe7024a037c)" style="fill: #2196f3; opacity: 0.7"/>
   </g>
   <g id="patch_137">
    <path d="M 1322.688107 581.1925 
L 1333.134913 581.1925 
L 1333.134913 367.58324 
L 1322.688107 367.58324 
z
" clip-path="url(#pe7024a037c)" style="fill: #2196f3; opacity: 0.7"/>
   </g>
   <g id="patch_138">
    <path d="M 1335.746614 581.1925 
L 1346.19342 581.1925 
L 1346.19342 401.195689 
L 1335.746614 401.195689 
z
" clip-path="url(#pe7024a037c)" style="fill: #2196f3; opacity: 0.7"/>
   </g>
   <g id="patch_139">
    <path d="M 1348.805121 581.1925 
L 1359.251926 581.1925 
L 1359.251926 315.154334 
L 1348.805121 315.154334 
z
" clip-path="url(#pe7024a037c)" style="fill: #2196f3; opacity: 0.7"/>
   </g>
   <g id="patch_140">
    <path d="M 1361.863628 581.1925 
L 1372.310433 581.1925 
L 1372.310433 340.019986 
L 1361.863628 340.019986 
z
" clip-path="url(#pe7024a037c)" style="fill: #2196f3; opacity: 0.7"/>
   </g>
   <g id="patch_141">
    <path d="M 1374.922134 581.1925 
L 1385.36894 581.1925 
L 1385.36894 412.006017 
L 1374.922134 412.006017 
z
" clip-path="url(#pe7024a037c)" style="fill: #2196f3; opacity: 0.7"/>
   </g>
   <g id="patch_142">
    <path d="M 1387.980641 581.1925 
L 1398.427447 581.1925 
L 1398.427447 433.667206 
L 1387.980641 433.667206 
z
" clip-path="url(#pe7024a037c)" style="fill: #2196f3; opacity: 0.7"/>
   </g>
   <g id="patch_143">
    <path d="M 1401.039148 581.1925 
L 1411.485953 581.1925 
L 1411.485953 275.174304 
L 1401.039148 275.174304 
z
" clip-path="url(#pe7024a037c)" style="fill: #2196f3; opacity: 0.7"/>
   </g>
   <g id="patch_144">
    <path d="M 1414.097655 581.1925 
L 1424.54446 581.1925 
L 1424.54446 343.722866 
L 1414.097655 343.722866 
z
" clip-path="url(#pe7024a037c)" style="fill: #2196f3; opacity: 0.7"/>
   </g>
   <g id="patch_145">
    <path d="M 1427.156161 581.1925 
L 1437.602967 581.1925 
L 1437.602967 301.428823 
L 1427.156161 301.428823 
z
" clip-path="url(#pe7024a037c)" style="fill: #2196f3; opacity: 0.7"/>
   </g>
   <g id="patch_146">
    <path d="M 1440.214668 581.1925 
L 1450.661474 581.1925 
L 1450.661474 309.530521 
L 1440.214668 309.530521 
z
" clip-path="url(#pe7024a037c)" style="fill: #2196f3; opacity: 0.7"/>
   </g>
   <g id="patch_147">
    <path d="M 1453.273175 581.1925 
L 1463.71998 581.1925 
L 1463.71998 294.300205 
L 1453.273175 294.300205 
z
" clip-path="url(#pe7024a037c)" style="fill: #2196f3; opacity: 0.7"/>
   </g>
   <g id="patch_148">
    <path d="M 1466.331682 581.1925 
L 1476.778487 581.1925 
L 1476.778487 288.430513 
L 1466.331682 288.430513 
z
" clip-path="url(#pe7024a037c)" style="fill: #2196f3; opacity: 0.7"/>
   </g>
   <g id="patch_149">
    <path d="M 1479.390188 581.1925 
L 1489.836994 581.1925 
L 1489.836994 271.274462 
L 1479.390188 271.274462 
z
" clip-path="url(#pe7024a037c)" style="fill: #2196f3; opacity: 0.7"/>
   </g>
   <g id="patch_150">
    <path d="M 1492.448695 581.1925 
L 1502.895501 581.1925 
L 1502.895501 217.663745 
L 1492.448695 217.663745 
z
" clip-path="url(#pe7024a037c)" style="fill: #2196f3; opacity: 0.7"/>
   </g>
   <g id="patch_151">
    <path d="M 1505.507202 581.1925 
L 1515.954007 581.1925 
L 1515.954007 334.535048 
L 1505.507202 334.535048 
z
" clip-path="url(#pe7024a037c)" style="fill: #2196f3; opacity: 0.7"/>
   </g>
   <g id="patch_152">
    <path d="M 1518.565709 581.1925 
L 1529.012514 581.1925 
L 1529.012514 321.878786 
L 1518.565709 321.878786 
z
" clip-path="url(#pe7024a037c)" style="fill: #2196f3; opacity: 0.7"/>
   </g>
   <g id="patch_153">
    <path d="M 1531.624215 581.1925 
L 1542.071021 581.1925 
L 1542.071021 346.561347 
L 1531.624215 346.561347 
z
" clip-path="url(#pe7024a037c)" style="fill: #2196f3; opacity: 0.7"/>
   </g>
   <g id="patch_154">
    <path d="M 1544.682722 581.1925 
L 1555.129528 581.1925 
L 1555.129528 159.165418 
L 1544.682722 159.165418 
z
" clip-path="url(#pe7024a037c)" style="fill: #2196f3; opacity: 0.7"/>
   </g>
   <g id="patch_155">
    <path d="M 1557.741229 581.1925 
L 1568.188034 581.1925 
L 1568.188034 217.190389 
L 1557.741229 217.190389 
z
" clip-path="url(#pe7024a037c)" style="fill: #2196f3; opacity: 0.7"/>
   </g>
   <g id="patch_156">
    <path d="M 1570.799736 581.1925 
L 1581.246541 581.1925 
L 1581.246541 181.94783 
L 1570.799736 181.94783 
z
" clip-path="url(#pe7024a037c)" style="fill: #2196f3; opacity: 0.7"/>
   </g>
   <g id="patch_157">
    <path d="M 1583.858243 581.1925 
L 1594.305048 581.1925 
L 1594.305048 289.266791 
L 1583.858243 289.266791 
z
" clip-path="url(#pe7024a037c)" style="fill: #2196f3; opacity: 0.7"/>
   </g>
   <g id="patch_158">
    <path d="M 1596.916749 581.1925 
L 1607.363555 581.1925 
L 1607.363555 181.352556 
L 1596.916749 181.352556 
z
" clip-path="url(#pe7024a037c)" style="fill: #2196f3; opacity: 0.7"/>
   </g>
   <g id="patch_159">
    <path d="M 1609.975256 581.1925 
L 1620.422061 581.1925 
L 1620.422061 163.206411 
L 1609.975256 163.206411 
z
" clip-path="url(#pe7024a037c)" style="fill: #2196f3; opacity: 0.7"/>
   </g>
   <g id="patch_160">
    <path d="M 1623.033763 581.1925 
L 1633.480568 581.1925 
L 1633.480568 72.925833 
L 1623.033763 72.925833 
z
" clip-path="url(#pe7024a037c)" style="fill: #2196f3; opacity: 0.7"/>
   </g>
   <g id="matplotlib.axis_3">
    <g id="xtick_7">
     <g id="line2d_21">
      <g>
       <use xlink:href="#m8b615713d0" x="988.390335" y="581.1925" style="stroke: #000000; stroke-width: 0.8"/>
      </g>
     </g>
     <g id="text_19">
      <!-- 0 -->
      <g transform="translate(978.210335 612.5075) scale(0.32 -0.32)">
       <use xlink:href="#DejaVuSans-30"/>
      </g>
     </g>
    </g>
    <g id="xtick_8">
     <g id="line2d_22">
      <g>
       <use xlink:href="#m8b615713d0" x="1118.975402" y="581.1925" style="stroke: #000000; stroke-width: 0.8"/>
      </g>
     </g>
     <g id="text_20">
      <!-- 10 -->
      <g transform="translate(1098.615402 612.5075) scale(0.32 -0.32)">
       <use xlink:href="#DejaVuSans-31"/>
       <use xlink:href="#DejaVuSans-30" transform="translate(63.623047 0)"/>
      </g>
     </g>
    </g>
    <g id="xtick_9">
     <g id="line2d_23">
      <g>
       <use xlink:href="#m8b615713d0" x="1249.56047" y="581.1925" style="stroke: #000000; stroke-width: 0.8"/>
      </g>
     </g>
     <g id="text_21">
      <!-- 20 -->
      <g transform="translate(1229.20047 612.5075) scale(0.32 -0.32)">
       <use xlink:href="#DejaVuSans-32"/>
       <use xlink:href="#DejaVuSans-30" transform="translate(63.623047 0)"/>
      </g>
     </g>
    </g>
    <g id="xtick_10">
     <g id="line2d_24">
      <g>
       <use xlink:href="#m8b615713d0" x="1380.145537" y="581.1925" style="stroke: #000000; stroke-width: 0.8"/>
      </g>
     </g>
     <g id="text_22">
      <!-- 30 -->
      <g transform="translate(1359.785537 612.5075) scale(0.32 -0.32)">
       <use xlink:href="#DejaVuSans-33"/>
       <use xlink:href="#DejaVuSans-30" transform="translate(63.623047 0)"/>
      </g>
     </g>
    </g>
    <g id="xtick_11">
     <g id="line2d_25">
      <g>
       <use xlink:href="#m8b615713d0" x="1510.730605" y="581.1925" style="stroke: #000000; stroke-width: 0.8"/>
      </g>
     </g>
     <g id="text_23">
      <!-- 40 -->
      <g transform="translate(1490.370605 612.5075) scale(0.32 -0.32)">
       <use xlink:href="#DejaVuSans-34"/>
       <use xlink:href="#DejaVuSans-30" transform="translate(63.623047 0)"/>
      </g>
     </g>
    </g>
    <g id="xtick_12">
     <g id="line2d_26">
      <g>
       <use xlink:href="#m8b615713d0" x="1641.315672" y="581.1925" style="stroke: #000000; stroke-width: 0.8"/>
      </g>
     </g>
     <g id="text_24">
      <!-- 50 -->
      <g transform="translate(1620.955672 612.5075) scale(0.32 -0.32)">
       <use xlink:href="#DejaVuSans-35"/>
       <use xlink:href="#DejaVuSans-30" transform="translate(63.623047 0)"/>
      </g>
     </g>
    </g>
    <g id="text_25">
     <!-- Slot de inventario -->
     <g transform="translate(1148.835312 650.516875) scale(0.36 -0.36)">
      <use xlink:href="#DejaVuSans-53"/>
      <use xlink:href="#DejaVuSans-6c" transform="translate(63.476562 0)"/>
      <use xlink:href="#DejaVuSans-6f" transform="translate(91.259766 0)"/>
      <use xlink:href="#DejaVuSans-74" transform="translate(152.441406 0)"/>
      <use xlink:href="#DejaVuSans-20" transform="translate(191.650391 0)"/>
      <use xlink:href="#DejaVuSans-64" transform="translate(223.4375 0)"/>
      <use xlink:href="#DejaVuSans-65" transform="translate(286.914062 0)"/>
      <use xlink:href="#DejaVuSans-20" transform="translate(348.4375 0)"/>
      <use xlink:href="#DejaVuSans-69" transform="translate(380.224609 0)"/>
      <use xlink:href="#DejaVuSans-6e" transform="translate(408.007812 0)"/>
      <use xlink:href="#DejaVuSans-76" transform="translate(471.386719 0)"/>
      <use xlink:href="#DejaVuSans-65" transform="translate(530.566406 0)"/>
      <use xlink:href="#DejaVuSans-6e" transform="translate(592.089844 0)"/>
      <use xlink:href="#DejaVuSans-74" transform="translate(655.46875 0)"/>
      <use xlink:href="#DejaVuSans-61" transform="translate(694.677734 0)"/>
      <use xlink:href="#DejaVuSans-72" transform="translate(755.957031 0)"/>
      <use xlink:href="#DejaVuSans-69" transform="translate(797.070312 0)"/>
      <use xlink:href="#DejaVuSans-6f" transform="translate(824.853516 0)"/>
     </g>
    </g>
   </g>
   <g id="matplotlib.axis_4">
    <g id="ytick_8">
     <g id="line2d_27">
      <path d="M 950.65125 581.1925 
L 1665.99625 581.1925 
" clip-path="url(#pe7024a037c)" style="fill: none; stroke: #b0b0b0; stroke-opacity: 0.3; stroke-width: 0.8; stroke-linecap: square"/>
     </g>
     <g id="line2d_28">
      <g>
       <use xlink:href="#ma271ec0fec" x="950.65125" y="581.1925" style="stroke: #000000; stroke-width: 0.8"/>
      </g>
     </g>
     <g id="text_26">
      <!-- 0.0 -->
      <g transform="translate(892.76125 593.35) scale(0.32 -0.32)">
       <use xlink:href="#DejaVuSans-30"/>
       <use xlink:href="#DejaVuSans-2e" transform="translate(63.623047 0)"/>
       <use xlink:href="#DejaVuSans-30" transform="translate(95.410156 0)"/>
      </g>
     </g>
    </g>
    <g id="ytick_9">
     <g id="line2d_29">
      <path d="M 950.65125 503.959614 
L 1665.99625 503.959614 
" clip-path="url(#pe7024a037c)" style="fill: none; stroke: #b0b0b0; stroke-opacity: 0.3; stroke-width: 0.8; stroke-linecap: square"/>
     </g>
     <g id="line2d_30">
      <g>
       <use xlink:href="#ma271ec0fec" x="950.65125" y="503.959614" style="stroke: #000000; stroke-width: 0.8"/>
      </g>
     </g>
     <g id="text_27">
      <!-- 0.1 -->
      <g transform="translate(892.76125 516.117114) scale(0.32 -0.32)">
       <use xlink:href="#DejaVuSans-30"/>
       <use xlink:href="#DejaVuSans-2e" transform="translate(63.623047 0)"/>
       <use xlink:href="#DejaVuSans-31" transform="translate(95.410156 0)"/>
      </g>
     </g>
    </g>
    <g id="ytick_10">
     <g id="line2d_31">
      <path d="M 950.65125 426.726728 
L 1665.99625 426.726728 
" clip-path="url(#pe7024a037c)" style="fill: none; stroke: #b0b0b0; stroke-opacity: 0.3; stroke-width: 0.8; stroke-linecap: square"/>
     </g>
     <g id="line2d_32">
      <g>
       <use xlink:href="#ma271ec0fec" x="950.65125" y="426.726728" style="stroke: #000000; stroke-width: 0.8"/>
      </g>
     </g>
     <g id="text_28">
      <!-- 0.2 -->
      <g transform="translate(892.76125 438.884228) scale(0.32 -0.32)">
       <use xlink:href="#DejaVuSans-30"/>
       <use xlink:href="#DejaVuSans-2e" transform="translate(63.623047 0)"/>
       <use xlink:href="#DejaVuSans-32" transform="translate(95.410156 0)"/>
      </g>
     </g>
    </g>
    <g id="ytick_11">
     <g id="line2d_33">
      <path d="M 950.65125 349.493841 
L 1665.99625 349.493841 
" clip-path="url(#pe7024a037c)" style="fill: none; stroke: #b0b0b0; stroke-opacity: 0.3; stroke-width: 0.8; stroke-linecap: square"/>
     </g>
     <g id="line2d_34">
      <g>
       <use xlink:href="#ma271ec0fec" x="950.65125" y="349.493841" style="stroke: #000000; stroke-width: 0.8"/>
      </g>
     </g>
     <g id="text_29">
      <!-- 0.3 -->
      <g transform="translate(892.76125 361.651341) scale(0.32 -0.32)">
       <use xlink:href="#DejaVuSans-30"/>
       <use xlink:href="#DejaVuSans-2e" transform="translate(63.623047 0)"/>
       <use xlink:href="#DejaVuSans-33" transform="translate(95.410156 0)"/>
      </g>
     </g>
    </g>
    <g id="ytick_12">
     <g id="line2d_35">
      <path d="M 950.65125 272.260955 
L 1665.99625 272.260955 
" clip-path="url(#pe7024a037c)" style="fill: none; stroke: #b0b0b0; stroke-opacity: 0.3; stroke-width: 0.8; stroke-linecap: square"/>
     </g>
     <g id="line2d_36">
      <g>
       <use xlink:href="#ma271ec0fec" x="950.65125" y="272.260955" style="stroke: #000000; stroke-width: 0.8"/>
      </g>
     </g>
     <g id="text_30">
      <!-- 0.4 -->
      <g transform="translate(892.76125 284.418455) scale(0.32 -0.32)">
       <use xlink:href="#DejaVuSans-30"/>
       <use xlink:href="#DejaVuSans-2e" transform="translate(63.623047 0)"/>
       <use xlink:href="#DejaVuSans-34" transform="translate(95.410156 0)"/>
      </g>
     </g>
    </g>
    <g id="ytick_13">
     <g id="line2d_37">
      <path d="M 950.65125 195.028069 
L 1665.99625 195.028069 
" clip-path="url(#pe7024a037c)" style="fill: none; stroke: #b0b0b0; stroke-opacity: 0.3; stroke-width: 0.8; stroke-linecap: square"/>
     </g>
     <g id="line2d_38">
      <g>
       <use xlink:href="#ma271ec0fec" x="950.65125" y="195.028069" style="stroke: #000000; stroke-width: 0.8"/>
      </g>
     </g>
     <g id="text_31">
      <!-- 0.5 -->
      <g transform="translate(892.76125 207.185569) scale(0.32 -0.32)">
       <use xlink:href="#DejaVuSans-30"/>
       <use xlink:href="#DejaVuSans-2e" transform="translate(63.623047 0)"/>
       <use xlink:href="#DejaVuSans-35" transform="translate(95.410156 0)"/>
      </g>
     </g>
    </g>
    <g id="ytick_14">
     <g id="line2d_39">
      <path d="M 950.65125 117.795183 
L 1665.99625 117.795183 
" clip-path="url(#pe7024a037c)" style="fill: none; stroke: #b0b0b0; stroke-opacity: 0.3; stroke-width: 0.8; stroke-linecap: square"/>
     </g>
     <g id="line2d_40">
      <g>
       <use xlink:href="#ma271ec0fec" x="950.65125" y="117.795183" style="stroke: #000000; stroke-width: 0.8"/>
      </g>
     </g>
     <g id="text_32">
      <!-- 0.6 -->
      <g transform="translate(892.76125 129.952683) scale(0.32 -0.32)">
       <use xlink:href="#DejaVuSans-30"/>
       <use xlink:href="#DejaVuSans-2e" transform="translate(63.623047 0)"/>
       <use xlink:href="#DejaVuSans-36" transform="translate(95.410156 0)"/>
      </g>
     </g>
    </g>
    <g id="text_33">
     <!-- Valor asignado ($) -->
     <g transform="translate(881.274375 478.369062) rotate(-90) scale(0.36 -0.36)">
      <defs>
       <path id="DejaVuSans-67" d="M 2906 1791 
Q 2906 2416 2648 2759 
Q 2391 3103 1925 3103 
Q 1463 3103 1205 2759 
Q 947 2416 947 1791 
Q 947 1169 1205 825 
Q 1463 481 1925 481 
Q 2391 481 2648 825 
Q 2906 1169 2906 1791 
z
M 3481 434 
Q 3481 -459 3084 -895 
Q 2688 -1331 1869 -1331 
Q 1566 -1331 1297 -1286 
Q 1028 -1241 775 -1147 
L 775 -588 
Q 1028 -725 1275 -790 
Q 1522 -856 1778 -856 
Q 2344 -856 2625 -561 
Q 2906 -266 2906 331 
L 2906 616 
Q 2728 306 2450 153 
Q 2172 0 1784 0 
Q 1141 0 747 490 
Q 353 981 353 1791 
Q 353 2603 747 3093 
Q 1141 3584 1784 3584 
Q 2172 3584 2450 3431 
Q 2728 3278 2906 2969 
L 2906 3500 
L 3481 3500 
L 3481 434 
z
" transform="scale(0.015625)"/>
      </defs>
      <use xlink:href="#DejaVuSans-56"/>
      <use xlink:href="#DejaVuSans-61" transform="translate(60.658203 0)"/>
      <use xlink:href="#DejaVuSans-6c" transform="translate(121.9375 0)"/>
      <use xlink:href="#DejaVuSans-6f" transform="translate(149.720703 0)"/>
      <use xlink:href="#DejaVuSans-72" transform="translate(210.902344 0)"/>
      <use xlink:href="#DejaVuSans-20" transform="translate(252.015625 0)"/>
      <use xlink:href="#DejaVuSans-61" transform="translate(283.802734 0)"/>
      <use xlink:href="#DejaVuSans-73" transform="translate(345.082031 0)"/>
      <use xlink:href="#DejaVuSans-69" transform="translate(397.181641 0)"/>
      <use xlink:href="#DejaVuSans-67" transform="translate(424.964844 0)"/>
      <use xlink:href="#DejaVuSans-6e" transform="translate(488.441406 0)"/>
      <use xlink:href="#DejaVuSans-61" transform="translate(551.820312 0)"/>
      <use xlink:href="#DejaVuSans-64" transform="translate(613.099609 0)"/>
      <use xlink:href="#DejaVuSans-6f" transform="translate(676.576172 0)"/>
      <use xlink:href="#DejaVuSans-20" transform="translate(737.757812 0)"/>
      <use xlink:href="#DejaVuSans-28" transform="translate(769.544922 0)"/>
      <use xlink:href="#DejaVuSans-24" transform="translate(808.558594 0)"/>
      <use xlink:href="#DejaVuSans-29" transform="translate(872.181641 0)"/>
     </g>
    </g>
   </g>
   <g id="patch_161">
    <path d="M 950.65125 581.1925 
L 950.65125 47.5125 
" style="fill: none; stroke: #000000; stroke-width: 0.8; stroke-linejoin: miter; stroke-linecap: square"/>
   </g>
   <g id="patch_162">
    <path d="M 1665.99625 581.1925 
L 1665.99625 47.5125 
" style="fill: none; stroke: #000000; stroke-width: 0.8; stroke-linejoin: miter; stroke-linecap: square"/>
   </g>
   <g id="patch_163">
    <path d="M 950.65125 581.1925 
L 1665.99625 581.1925 
" style="fill: none; stroke: #000000; stroke-width: 0.8; stroke-linejoin: miter; stroke-linecap: square"/>
   </g>
   <g id="patch_164">
    <path d="M 950.65125 47.5125 
L 1665.99625 47.5125 
" style="fill: none; stroke: #000000; stroke-width: 0.8; stroke-linejoin: miter; stroke-linecap: square"/>
   </g>
   <g id="text_34">
    <g id="patch_165">
     <path d="M 1100.513437 144.587625 
L 1516.134062 144.587625 
Q 1527.334062 144.587625 1527.334062 133.387625 
L 1527.334062 74.935 
Q 1527.334062 63.735 1516.134062 63.735 
L 1100.513437 63.735 
Q 1089.313437 63.735 1089.313437 74.935 
L 1089.313437 133.387625 
Q 1089.313437 144.587625 1100.513437 144.587625 
z
" style="fill: #fff9c4; opacity: 0.9; stroke: #000000; stroke-linejoin: miter"/>
    </g>
    <!-- A domina 35/50 slots -->
    <g transform="translate(1160.09 96.210625) scale(0.28 -0.28)">
     <defs>
      <path id="DejaVuSans-2f" d="M 1625 4666 
L 2156 4666 
L 531 -594 
L 0 -594 
L 1625 4666 
z
" transform="scale(0.015625)"/>
     </defs>
     <use xlink:href="#DejaVuSans-41"/>
     <use xlink:href="#DejaVuSans-20" transform="translate(68.408203 0)"/>
     <use xlink:href="#DejaVuSans-64" transform="translate(100.195312 0)"/>
     <use xlink:href="#DejaVuSans-6f" transform="translate(163.671875 0)"/>
     <use xlink:href="#DejaVuSans-6d" transform="translate(224.853516 0)"/>
     <use xlink:href="#DejaVuSans-69" transform="translate(322.265625 0)"/>
     <use xlink:href="#DejaVuSans-6e" transform="translate(350.048828 0)"/>
     <use xlink:href="#DejaVuSans-61" transform="translate(413.427734 0)"/>
     <use xlink:href="#DejaVuSans-20" transform="translate(474.707031 0)"/>
     <use xlink:href="#DejaVuSans-33" transform="translate(506.494141 0)"/>
     <use xlink:href="#DejaVuSans-35" transform="translate(570.117188 0)"/>
     <use xlink:href="#DejaVuSans-2f" transform="translate(633.740234 0)"/>
     <use xlink:href="#DejaVuSans-35" transform="translate(667.431641 0)"/>
     <use xlink:href="#DejaVuSans-30" transform="translate(731.054688 0)"/>
     <use xlink:href="#DejaVuSans-20" transform="translate(794.677734 0)"/>
     <use xlink:href="#DejaVuSans-73" transform="translate(826.464844 0)"/>
     <use xlink:href="#DejaVuSans-6c" transform="translate(878.564453 0)"/>
     <use xlink:href="#DejaVuSans-6f" transform="translate(906.347656 0)"/>
     <use xlink:href="#DejaVuSans-74" transform="translate(967.529297 0)"/>
     <use xlink:href="#DejaVuSans-73" transform="translate(1006.738281 0)"/>
    </g>
    <!-- B sub-ejecuta su presupuesto -->
    <g transform="translate(1100.513437 127.5645) scale(0.28 -0.28)">
     <defs>
      <path id="DejaVuSans-75" d="M 544 1381 
L 544 3500 
L 1119 3500 
L 1119 1403 
Q 1119 906 1312 657 
Q 1506 409 1894 409 
Q 2359 409 2629 706 
Q 2900 1003 2900 1516 
L 2900 3500 
L 3475 3500 
L 3475 0 
L 2900 0 
L 2900 538 
Q 2691 219 2414 64 
Q 2138 -91 1772 -91 
Q 1169 -91 856 284 
Q 544 659 544 1381 
z
M 1991 3584 
L 1991 3584 
z
" transform="scale(0.015625)"/>
      <path id="DejaVuSans-62" d="M 3116 1747 
Q 3116 2381 2855 2742 
Q 2594 3103 2138 3103 
Q 1681 3103 1420 2742 
Q 1159 2381 1159 1747 
Q 1159 1113 1420 752 
Q 1681 391 2138 391 
Q 2594 391 2855 752 
Q 3116 1113 3116 1747 
z
M 1159 2969 
Q 1341 3281 1617 3432 
Q 1894 3584 2278 3584 
Q 2916 3584 3314 3078 
Q 3713 2572 3713 1747 
Q 3713 922 3314 415 
Q 2916 -91 2278 -91 
Q 1894 -91 1617 61 
Q 1341 213 1159 525 
L 1159 0 
L 581 0 
L 581 4863 
L 1159 4863 
L 1159 2969 
z
" transform="scale(0.015625)"/>
      <path id="DejaVuSans-2d" d="M 313 2009 
L 1997 2009 
L 1997 1497 
L 313 1497 
L 313 2009 
z
" transform="scale(0.015625)"/>
      <path id="DejaVuSans-6a" d="M 603 3500 
L 1178 3500 
L 1178 -63 
Q 1178 -731 923 -1031 
Q 669 -1331 103 -1331 
L -116 -1331 
L -116 -844 
L 38 -844 
Q 366 -844 484 -692 
Q 603 -541 603 -63 
L 603 3500 
z
M 603 4863 
L 1178 4863 
L 1178 4134 
L 603 4134 
L 603 4863 
z
" transform="scale(0.015625)"/>
      <path id="DejaVuSans-63" d="M 3122 3366 
L 3122 2828 
Q 2878 2963 2633 3030 
Q 2388 3097 2138 3097 
Q 1578 3097 1268 2742 
Q 959 2388 959 1747 
Q 959 1106 1268 751 
Q 1578 397 2138 397 
Q 2388 397 2633 464 
Q 2878 531 3122 666 
L 3122 134 
Q 2881 22 2623 -34 
Q 2366 -91 2075 -91 
Q 1284 -91 818 406 
Q 353 903 353 1747 
Q 353 2603 823 3093 
Q 1294 3584 2113 3584 
Q 2378 3584 2631 3529 
Q 2884 3475 3122 3366 
z
" transform="scale(0.015625)"/>
     </defs>
     <use xlink:href="#DejaVuSans-42"/>
     <use xlink:href="#DejaVuSans-20" transform="translate(68.603516 0)"/>
     <use xlink:href="#DejaVuSans-73" transform="translate(100.390625 0)"/>
     <use xlink:href="#DejaVuSans-75" transform="translate(152.490234 0)"/>
     <use xlink:href="#DejaVuSans-62" transform="translate(215.869141 0)"/>
     <use xlink:href="#DejaVuSans-2d" transform="translate(279.345703 0)"/>
     <use xlink:href="#DejaVuSans-65" transform="translate(315.429688 0)"/>
     <use xlink:href="#DejaVuSans-6a" transform="translate(376.953125 0)"/>
     <use xlink:href="#DejaVuSans-65" transform="translate(404.736328 0)"/>
     <use xlink:href="#DejaVuSans-63" transform="translate(466.259766 0)"/>
     <use xlink:href="#DejaVuSans-75" transform="translate(521.240234 0)"/>
     <use xlink:href="#DejaVuSans-74" transform="translate(584.619141 0)"/>
     <use xlink:href="#DejaVuSans-61" transform="translate(623.828125 0)"/>
     <use xlink:href="#DejaVuSans-20" transform="translate(685.107422 0)"/>
     <use xlink:href="#DejaVuSans-73" transform="translate(716.894531 0)"/>
     <use xlink:href="#DejaVuSans-75" transform="translate(768.994141 0)"/>
     <use xlink:href="#DejaVuSans-20" transform="translate(832.373047 0)"/>
     <use xlink:href="#DejaVuSans-70" transform="translate(864.160156 0)"/>
     <use xlink:href="#DejaVuSans-72" transform="translate(927.636719 0)"/>
     <use xlink:href="#DejaVuSans-65" transform="translate(966.5 0)"/>
     <use xlink:href="#DejaVuSans-73" transform="translate(1028.023438 0)"/>
     <use xlink:href="#DejaVuSans-75" transform="translate(1080.123047 0)"/>
     <use xlink:href="#DejaVuSans-70" transform="translate(1143.501953 0)"/>
     <use xlink:href="#DejaVuSans-75" transform="translate(1206.978516 0)"/>
     <use xlink:href="#DejaVuSans-65" transform="translate(1270.357422 0)"/>
     <use xlink:href="#DejaVuSans-73" transform="translate(1331.880859 0)"/>
     <use xlink:href="#DejaVuSans-74" transform="translate(1383.980469 0)"/>
     <use xlink:href="#DejaVuSans-6f" transform="translate(1423.189453 0)"/>
    </g>
   </g>
   <g id="text_35">
    <!-- Asignación greedy: A=35 slots, B=15 slots -->
    <g transform="translate(881.7675 39.19375) scale(0.4 -0.4)">
     <defs>
      <path id="DejaVuSans-79" d="M 2059 -325 
Q 1816 -950 1584 -1140 
Q 1353 -1331 966 -1331 
L 506 -1331 
L 506 -850 
L 844 -850 
Q 1081 -850 1212 -737 
Q 1344 -625 1503 -206 
L 1606 56 
L 191 3500 
L 800 3500 
L 1894 763 
L 2988 3500 
L 3597 3500 
L 2059 -325 
z
" transform="scale(0.015625)"/>
      <path id="DejaVuSans-3a" d="M 750 794 
L 1409 794 
L 1409 0 
L 750 0 
L 750 794 
z
M 750 3309 
L 1409 3309 
L 1409 2516 
L 750 2516 
L 750 3309 
z
" transform="scale(0.015625)"/>
     </defs>
     <use xlink:href="#DejaVuSans-41"/>
     <use xlink:href="#DejaVuSans-73" transform="translate(68.408203 0)"/>
     <use xlink:href="#DejaVuSans-69" transform="translate(120.507812 0)"/>
     <use xlink:href="#DejaVuSans-67" transform="translate(148.291016 0)"/>
     <use xlink:href="#DejaVuSans-6e" transform="translate(211.767578 0)"/>
     <use xlink:href="#DejaVuSans-61" transform="translate(275.146484 0)"/>
     <use xlink:href="#DejaVuSans-63" transform="translate(336.425781 0)"/>
     <use xlink:href="#DejaVuSans-69" transform="translate(391.40625 0)"/>
     <use xlink:href="#DejaVuSans-f3" transform="translate(419.189453 0)"/>
     <use xlink:href="#DejaVuSans-6e" transform="translate(480.371094 0)"/>
     <use xlink:href="#DejaVuSans-20" transform="translate(543.75 0)"/>
     <use xlink:href="#DejaVuSans-67" transform="translate(575.537109 0)"/>
     <use xlink:href="#DejaVuSans-72" transform="translate(639.013672 0)"/>
     <use xlink:href="#DejaVuSans-65" transform="translate(677.876953 0)"/>
     <use xlink:href="#DejaVuSans-65" transform="translate(739.400391 0)"/>
     <use xlink:href="#DejaVuSans-64" transform="translate(800.923828 0)"/>
     <use xlink:href="#DejaVuSans-79" transform="translate(864.400391 0)"/>
     <use xlink:href="#DejaVuSans-3a" transform="translate(916.330078 0)"/>
     <use xlink:href="#DejaVuSans-20" transform="translate(950.021484 0)"/>
     <use xlink:href="#DejaVuSans-41" transform="translate(981.808594 0)"/>
     <use xlink:href="#DejaVuSans-3d" transform="translate(1050.216797 0)"/>
     <use xlink:href="#DejaVuSans-33" transform="translate(1134.005859 0)"/>
     <use xlink:href="#DejaVuSans-35" transform="translate(1197.628906 0)"/>
     <use xlink:href="#DejaVuSans-20" transform="translate(1261.251953 0)"/>
     <use xlink:href="#DejaVuSans-73" transform="translate(1293.039062 0)"/>
     <use xlink:href="#DejaVuSans-6c" transform="translate(1345.138672 0)"/>
     <use xlink:href="#DejaVuSans-6f" transform="translate(1372.921875 0)"/>
     <use xlink:href="#DejaVuSans-74" transform="translate(1434.103516 0)"/>
     <use xlink:href="#DejaVuSans-73" transform="translate(1473.3125 0)"/>
     <use xlink:href="#DejaVuSans-2c" transform="translate(1525.412109 0)"/>
     <use xlink:href="#DejaVuSans-20" transform="translate(1557.199219 0)"/>
     <use xlink:href="#DejaVuSans-42" transform="translate(1588.986328 0)"/>
     <use xlink:href="#DejaVuSans-3d" transform="translate(1657.589844 0)"/>
     <use xlink:href="#DejaVuSans-31" transform="translate(1741.378906 0)"/>
     <use xlink:href="#DejaVuSans-35" transform="translate(1805.001953 0)"/>
     <use xlink:href="#DejaVuSans-20" transform="translate(1868.625 0)"/>
     <use xlink:href="#DejaVuSans-73" transform="translate(1900.412109 0)"/>
     <use xlink:href="#DejaVuSans-6c" transform="translate(1952.511719 0)"/>
     <use xlink:href="#DejaVuSans-6f" transform="translate(1980.294922 0)"/>
     <use xlink:href="#DejaVuSans-74" transform="translate(2041.476562 0)"/>
     <use xlink:href="#DejaVuSans-73" transform="translate(2080.685547 0)"/>
    </g>
   </g>
  </g>
 </g>
 <defs>
  <clipPath id="p63ec0221d7">
   <rect x="103.93125" y="47.5125" width="715.345" height="533.68"/>
  </clipPath>
  <clipPath id="pe7024a037c">
   <rect x="950.65125" y="47.5125" width="715.345" height="533.68"/>
  </clipPath>
 </defs>
</svg>
