<?xml version="1.0" encoding="utf-8" standalone="no"?>
<!DOCTYPE svg PUBLIC "-//W3C//DTD SVG 1.1//EN"
  "http://www.w3.org/Graphics/SVG/1.1/DTD/svg11.dtd">
<svg xmlns:xlink="http://www.w3.org/1999/xlink" width="992.59875pt" height="412.22125pt" viewBox="0 0 992.59875 412.22125" xmlns="http://www.w3.org/2000/svg" version="1.1">
 <metadata>
  <rdf:RDF xmlns:dc="http://purl.org/dc/elements/1.1/" xmlns:cc="http://creativecommons.org/ns#" xmlns:rdf="http://www.w3.org/1999/02/22-rdf-syntax-ns#">
   <cc:Work>
    <dc:type rdf:resource="http://purl.org/dc/dcmitype/StillImage"/>
    <dc:date>2026-03-15T21:09:49.976864</dc:date>
    <dc:format>image/svg+xml</dc:format>
    <dc:creator>
     <cc:Agent>
      <dc:title>Matplotlib v3.10.8, https://matplotlib.org/</dc:title>
     </cc:Agent>
    </dc:creator>
   </cc:Work>
  </rdf:RDF>
 </metadata>
 <defs>
  <style type="text/css">*{stroke-linejoin: round; stroke-linecap: butt}</style>
 </defs>
 <g id="figure_1">
  <g id="patch_1">
   <path d="M 0 412.22125 
L 992.59875 412.22125 
L 992.59875 0 
L 0 0 
z
" style="fill: #ffffff"/>
  </g>
  <g id="axes_1">
   <g id="patch_2">
    <path d="M 75.193125 361.115625 
L 492.458125 361.115625 
L 492.458125 29.196875 
L 75.193125 29.196875 
z
" style="fill: #ffffff"/>
   </g>
   <g id="patch_3">
    <path d="M 94.159716 221.860022 
L 100.2534 221.860022 
L 100.2534 189.451859 
L 94.159716 189.451859 
z
" clip-path="url(#p21f195d0de)" style="fill: #2196f3; opacity: 0.7"/>
   </g>
   <g id="patch_4">
    <path d="M 101.776821 221.860022 
L 107.870505 221.860022 
L 107.870505 174.688565 
L 101.776821 174.688565 
z
" clip-path="url(#p21f195d0de)" style="fill: #2196f3; opacity: 0.7"/>
   </g>
   <g id="patch_5">
    <path d="M 109.393925 221.860022 
L 115.487609 221.860022 
L 115.487609 197.931451 
L 109.393925 197.931451 
z
" clip-path="url(#p21f195d0de)" style="fill: #2196f3; opacity: 0.7"/>
   </g>
   <g id="patch_6">
    <path d="M 117.01103 221.860022 
L 123.104714 221.860022 
L 123.104714 202.979034 
L 117.01103 202.979034 
z
" clip-path="url(#p21f195d0de)" style="fill: #2196f3; opacity: 0.7"/>
   </g>
   <g id="patch_7">
    <path d="M 124.628135 221.860022 
L 130.721819 221.860022 
L 130.721819 159.232147 
L 124.628135 159.232147 
z
" clip-path="url(#p21f195d0de)" style="fill: #2196f3; opacity: 0.7"/>
   </g>
   <g id="patch_8">
    <path d="M 132.24524 221.860022 
L 138.338924 221.860022 
L 138.338924 191.762945 
L 132.24524 191.762945 
z
" clip-path="url(#p21f195d0de)" style="fill: #2196f3; opacity: 0.7"/>
   </g>
   <g id="patch_9">
    <path d="M 139.862345 221.860022 
L 145.956028 221.860022 
L 145.956028 187.393165 
L 139.862345 187.393165 
z
" clip-path="url(#p21f195d0de)" style="fill: #2196f3; opacity: 0.7"/>
   </g>
   <g id="patch_10">
    <path d="M 147.479449 221.860022 
L 153.573133 221.860022 
L 153.573133 121.747156 
L 147.479449 121.747156 
z
" clip-path="url(#p21f195d0de)" style="fill: #2196f3; opacity: 0.7"/>
   </g>
   <g id="patch_11">
    <path d="M 155.096554 221.860022 
L 161.190238 221.860022 
L 161.190238 157.647399 
L 155.096554 157.647399 
z
" clip-path="url(#p21f195d0de)" style="fill: #2196f3; opacity: 0.7"/>
   </g>
   <g id="patch_12">
    <path d="M 162.713659 221.860022 
L 168.807343 221.860022 
L 168.807343 191.319401 
L 162.713659 191.319401 
z
" clip-path="url(#p21f195d0de)" style="fill: #2196f3; opacity: 0.7"/>
   </g>
   <g id="patch_13">
    <path d="M 170.330764 221.860022 
L 176.424448 221.860022 
L 176.424448 175.649379 
L 170.330764 175.649379 
z
" clip-path="url(#p21f195d0de)" style="fill: #2196f3; opacity: 0.7"/>
   </g>
   <g id="patch_14">
    <path d="M 177.947869 221.860022 
L 184.041552 221.860022 
L 184.041552 174.324144 
L 177.947869 174.324144 
z
" clip-path="url(#p21f195d0de)" style="fill: #2196f3; opacity: 0.7"/>
   </g>
   <g id="patch_15">
    <path d="M 185.564973 221.860022 
L 191.658657 221.860022 
L 191.658657 196.046505 
L 185.564973 196.046505 
z
" clip-path="url(#p21f195d0de)" style="fill: #2196f3; opacity: 0.7"/>
   </g>
   <g id="patch_16">
    <path d="M 193.182078 221.860022 
L 199.275762 221.860022 
L 199.275762 171.567645 
L 193.182078 171.567645 
z
" clip-path="url(#p21f195d0de)" style="fill: #2196f3; opacity: 0.7"/>
   </g>
   <g id="patch_17">
    <path d="M 200.799183 221.860022 
L 206.892867 221.860022 
L 206.892867 168.655536 
L 200.799183 168.655536 
z
" clip-path="url(#p21f195d0de)" style="fill: #2196f3; opacity: 0.7"/>
   </g>
   <g id="patch_18">
    <path d="M 208.416288 221.860022 
L 214.509971 221.860022 
L 214.509971 168.762722 
L 208.416288 168.762722 
z
" clip-path="url(#p21f195d0de)" style="fill: #2196f3; opacity: 0.7"/>
   </g>
   <g id="patch_19">
    <path d="M 216.033392 221.860022 
L 222.127076 221.860022 
L 222.127076 177.988796 
L 216.033392 177.988796 
z
" clip-path="url(#p21f195d0de)" style="fill: #2196f3; opacity: 0.7"/>
   </g>
   <g id="patch_20">
    <path d="M 223.650497 221.860022 
L 229.744181 221.860022 
L 229.744181 165.690065 
L 223.650497 165.690065 
z
" clip-path="url(#p21f195d0de)" style="fill: #2196f3; opacity: 0.7"/>
   </g>
   <g id="patch_21">
    <path d="M 231.267602 221.860022 
L 237.361286 221.860022 
L 237.361286 184.666666 
L 231.267602 184.666666 
z
" clip-path="url(#p21f195d0de)" style="fill: #2196f3; opacity: 0.7"/>
   </g>
   <g id="patch_22">
    <path d="M 238.884707 221.860022 
L 244.978391 221.860022 
L 244.978391 160.659912 
L 238.884707 160.659912 
z
" clip-path="url(#p21f195d0de)" style="fill: #2196f3; opacity: 0.7"/>
   </g>
   <g id="patch_23">
    <path d="M 246.501812 221.860022 
L 252.595495 221.860022 
L 252.595495 171.089803 
L 246.501812 171.089803 
z
" clip-path="url(#p21f195d0de)" style="fill: #2196f3; opacity: 0.7"/>
   </g>
   <g id="patch_24">
    <path d="M 254.118916 221.860022 
L 260.2126 221.860022 
L 260.2126 149.363744 
L 254.118916 149.363744 
z
" clip-path="url(#p21f195d0de)" style="fill: #2196f3; opacity: 0.7"/>
   </g>
   <g id="patch_25">
    <path d="M 261.736021 221.860022 
L 267.829705 221.860022 
L 267.829705 152.953982 
L 261.736021 152.953982 
z
" clip-path="url(#p21f195d0de)" style="fill: #2196f3; opacity: 0.7"/>
   </g>
   <g id="patch_26">
    <path d="M 269.353126 221.860022 
L 275.44681 221.860022 
L 275.44681 173.55204 
L 269.353126 173.55204 
z
" clip-path="url(#p21f195d0de)" style="fill: #2196f3; opacity: 0.7"/>
   </g>
   <g id="patch_27">
    <path d="M 276.970231 221.860022 
L 283.063915 221.860022 
L 283.063915 168.764169 
L 276.970231 168.764169 
z
" clip-path="url(#p21f195d0de)" style="fill: #2196f3; opacity: 0.7"/>
   </g>
   <g id="patch_28">
    <path d="M 284.587335 221.860022 
L 290.681019 221.860022 
L 290.681019 176.026947 
L 284.587335 176.026947 
z
" clip-path="url(#p21f195d0de)" style="fill: #2196f3; opacity: 0.7"/>
   </g>
   <g id="patch_29">
    <path d="M 292.20444 221.860022 
L 298.298124 221.860022 
L 298.298124 147.230175 
L 292.20444 147.230175 
z
" clip-path="url(#p21f195d0de)" style="fill: #2196f3; opacity: 0.7"/>
   </g>
   <g id="patch_30">
    <path d="M 299.821545 221.860022 
L 305.915229 221.860022 
L 305.915229 158.973542 
L 299.821545 158.973542 
z
" clip-path="url(#p21f195d0de)" style="fill: #2196f3; opacity: 0.7"/>
   </g>
   <g id="patch_31">
    <path d="M 307.43865 221.860022 
L 313.532334 221.860022 
L 313.532334 128.912799 
L 307.43865 128.912799 
z
" clip-path="url(#p21f195d0de)" style="fill: #2196f3; opacity: 0.7"/>
   </g>
   <g id="patch_32">
    <path d="M 315.055755 221.860022 
L 321.149438 221.860022 
L 321.149438 137.600249 
L 315.055755 137.600249 
z
" clip-path="url(#p21f195d0de)" style="fill: #2196f3; opacity: 0.7"/>
   </g>
   <g id="patch_33">
    <path d="M 322.672859 221.860022 
L 328.766543 221.860022 
L 328.766543 162.750406 
L 322.672859 162.750406 
z
" clip-path="url(#p21f195d0de)" style="fill: #2196f3; opacity: 0.7"/>
   </g>
   <g id="patch_34">
    <path d="M 330.289964 221.860022 
L 336.383648 221.860022 
L 336.383648 170.318296 
L 330.289964 170.318296 
z
" clip-path="url(#p21f195d0de)" style="fill: #2196f3; opacity: 0.7"/>
   </g>
   <g id="patch_35">
    <path d="M 337.907069 221.860022 
L 344.000753 221.860022 
L 344.000753 114.944756 
L 337.907069 114.944756 
z
" clip-path="url(#p21f195d0de)" style="fill: #2196f3; opacity: 0.7"/>
   </g>
   <g id="patch_36">
    <path d="M 345.524174 221.860022 
L 351.617858 221.860022 
L 351.617858 138.893945 
L 345.524174 138.893945 
z
" clip-path="url(#p21f195d0de)" style="fill: #2196f3; opacity: 0.7"/>
   </g>
   <g id="patch_37">
    <path d="M 353.141279 221.860022 
L 359.234962 221.860022 
L 359.234962 124.117442 
L 353.141279 124.117442 
z
" clip-path="url(#p21f195d0de)" style="fill: #2196f3; opacity: 0.7"/>
   </g>
   <g id="patch_38">
    <path d="M 360.758383 221.860022 
L 366.852067 221.860022 
L 366.852067 126.947977 
L 360.758383 126.947977 
z
" clip-path="url(#p21f195d0de)" style="fill: #2196f3; opacity: 0.7"/>
   </g>
   <g id="patch_39">
    <path d="M 368.375488 221.860022 
L 374.469172 221.860022 
L 374.469172 121.626877 
L 368.375488 121.626877 
z
" clip-path="url(#p21f195d0de)" style="fill: #2196f3; opacity: 0.7"/>
   </g>
   <g id="patch_40">
    <path d="M 375.992593 221.860022 
L 382.086277 221.860022 
L 382.086277 119.57615 
L 375.992593 119.57615 
z
" clip-path="url(#p21f195d0de)" style="fill: #2196f3; opacity: 0.7"/>
   </g>
   <g id="patch_41">
    <path d="M 383.609698 221.860022 
L 389.703381 221.860022 
L 389.703381 113.582246 
L 383.609698 113.582246 
z
" clip-path="url(#p21f195d0de)" style="fill: #2196f3; opacity: 0.7"/>
   </g>
   <g id="patch_42">
    <path d="M 391.226802 221.860022 
L 397.320486 221.860022 
L 397.320486 94.851974 
L 391.226802 94.851974 
z
" clip-path="url(#p21f195d0de)" style="fill: #2196f3; opacity: 0.7"/>
   </g>
   <g id="patch_43">
    <path d="M 398.843907 221.860022 
L 404.937591 221.860022 
L 404.937591 135.683946 
L 398.843907 135.683946 
z
" clip-path="url(#p21f195d0de)" style="fill: #2196f3; opacity: 0.7"/>
   </g>
   <g id="patch_44">
    <path d="M 406.461012 221.860022 
L 412.554696 221.860022 
L 412.554696 131.262158 
L 406.461012 131.262158 
z
" clip-path="url(#p21f195d0de)" style="fill: #2196f3; opacity: 0.7"/>
   </g>
   <g id="patch_45">
    <path d="M 414.078117 221.860022 
L 420.171801 221.860022 
L 420.171801 139.885641 
L 414.078117 139.885641 
z
" clip-path="url(#p21f195d0de)" style="fill: #2196f3; opacity: 0.7"/>
   </g>
   <g id="patch_46">
    <path d="M 421.695222 221.860022 
L 427.788905 221.860022 
L 427.788905 74.41409 
L 421.695222 74.41409 
z
" clip-path="url(#p21f195d0de)" style="fill: #2196f3; opacity: 0.7"/>
   </g>
   <g id="patch_47">
    <path d="M 429.312326 221.860022 
L 435.40601 221.860022 
L 435.40601 94.686595 
L 429.312326 94.686595 
z
" clip-path="url(#p21f195d0de)" style="fill: #2196f3; opacity: 0.7"/>
   </g>
   <g id="patch_48">
    <path d="M 436.929431 221.860022 
L 443.023115 221.860022 
L 443.023115 82.373708 
L 436.929431 82.373708 
z
" clip-path="url(#p21f195d0de)" style="fill: #2196f3; opacity: 0.7"/>
   </g>
   <g id="patch_49">
    <path d="M 444.546536 221.860022 
L 450.64022 221.860022 
L 450.64022 119.868325 
L 444.546536 119.868325 
z
" clip-path="url(#p21f195d0de)" style="fill: #2196f3; opacity: 0.7"/>
   </g>
   <g id="patch_50">
    <path d="M 452.163641 221.860022 
L 458.257325 221.860022 
L 458.257325 82.165734 
L 452.163641 82.165734 
z
" clip-path="url(#p21f195d0de)" style="fill: #2196f3; opacity: 0.7"/>
   </g>
   <g id="patch_51">
    <path d="M 459.780745 221.860022 
L 465.874429 221.860022 
L 465.874429 75.825915 
L 459.780745 75.825915 
z
" clip-path="url(#p21f195d0de)" style="fill: #2196f3; opacity: 0.7"/>
   </g>
   <g id="patch_52">
    <path d="M 467.39785 221.860022 
L 473.491534 221.860022 
L 473.491534 44.284091 
L 467.39785 44.284091 
z
" clip-path="url(#p21f195d0de)" style="fill: #2196f3; opacity: 0.7"/>
   </g>
   <g id="patch_53">
    <path d="M 94.159716 221.860022 
L 100.2534 221.860022 
L 100.2534 325.889124 
L 94.159716 325.889124 
z
" clip-path="url(#p21f195d0de)" style="fill: #f44336; opacity: 0.7"/>
   </g>
   <g id="patch_54">
    <path d="M 101.776821 221.860022 
L 107.870505 221.860022 
L 107.870505 321.906761 
L 101.776821 321.906761 
z
" clip-path="url(#p21f195d0de)" style="fill: #f44336; opacity: 0.7"/>
   </g>
   <g id="patch_55">
    <path d="M 109.393925 221.860022 
L 115.487609 221.860022 
L 115.487609 298.3484 
L 109.393925 298.3484 
z
" clip-path="url(#p21f195d0de)" style="fill: #f44336; opacity: 0.7"/>
   </g>
   <g id="patch_56">
    <path d="M 117.01103 221.860022 
L 123.104714 221.860022 
L 123.104714 279.464273 
L 117.01103 279.464273 
z
" clip-path="url(#p21f195d0de)" style="fill: #f44336; opacity: 0.7"/>
   </g>
   <g id="patch_57">
    <path d="M 124.628135 221.860022 
L 130.721819 221.860022 
L 130.721819 322.132577 
L 124.628135 322.132577 
z
" clip-path="url(#p21f195d0de)" style="fill: #f44336; opacity: 0.7"/>
   </g>
   <g id="patch_58">
    <path d="M 132.24524 221.860022 
L 138.338924 221.860022 
L 138.338924 288.601845 
L 132.24524 288.601845 
z
" clip-path="url(#p21f195d0de)" style="fill: #f44336; opacity: 0.7"/>
   </g>
   <g id="patch_59">
    <path d="M 139.862345 221.860022 
L 145.956028 221.860022 
L 145.956028 288.3741 
L 139.862345 288.3741 
z
" clip-path="url(#p21f195d0de)" style="fill: #f44336; opacity: 0.7"/>
   </g>
   <g id="patch_60">
    <path d="M 147.479449 221.860022 
L 153.573133 221.860022 
L 153.573133 346.028409 
L 147.479449 346.028409 
z
" clip-path="url(#p21f195d0de)" style="fill: #f44336; opacity: 0.7"/>
   </g>
   <g id="patch_61">
    <path d="M 155.096554 221.860022 
L 161.190238 221.860022 
L 161.190238 307.519321 
L 155.096554 307.519321 
z
" clip-path="url(#p21f195d0de)" style="fill: #f44336; opacity: 0.7"/>
   </g>
   <g id="patch_62">
    <path d="M 162.713659 221.860022 
L 168.807343 221.860022 
L 168.807343 272.394269 
L 162.713659 272.394269 
z
" clip-path="url(#p21f195d0de)" style="fill: #f44336; opacity: 0.7"/>
   </g>
   <g id="patch_63">
    <path d="M 170.330764 221.860022 
L 176.424448 221.860022 
L 176.424448 287.207722 
L 170.330764 287.207722 
z
" clip-path="url(#p21f195d0de)" style="fill: #f44336; opacity: 0.7"/>
   </g>
   <g id="patch_64">
    <path d="M 177.947869 221.860022 
L 184.041552 221.860022 
L 184.041552 286.415973 
L 177.947869 286.415973 
z
" clip-path="url(#p21f195d0de)" style="fill: #f44336; opacity: 0.7"/>
   </g>
   <g id="patch_65">
    <path d="M 185.564973 221.860022 
L 191.658657 221.860022 
L 191.658657 264.36404 
L 185.564973 264.36404 
z
" clip-path="url(#p21f195d0de)" style="fill: #f44336; opacity: 0.7"/>
   </g>
   <g id="patch_66">
    <path d="M 193.182078 221.860022 
L 199.275762 221.860022 
L 199.275762 286.554836 
L 193.182078 286.554836 
z
" clip-path="url(#p21f195d0de)" style="fill: #f44336; opacity: 0.7"/>
   </g>
   <g id="patch_67">
    <path d="M 200.799183 221.860022 
L 206.892867 221.860022 
L 206.892867 283.609824 
L 200.799183 283.609824 
z
" clip-path="url(#p21f195d0de)" style="fill: #f44336; opacity: 0.7"/>
   </g>
   <g id="patch_68">
    <path d="M 208.416288 221.860022 
L 214.509971 221.860022 
L 214.509971 274.083412 
L 208.416288 274.083412 
z
" clip-path="url(#p21f195d0de)" style="fill: #f44336; opacity: 0.7"/>
   </g>
   <g id="patch_69">
    <path d="M 216.033392 221.860022 
L 222.127076 221.860022 
L 222.127076 262.425306 
L 216.033392 262.425306 
z
" clip-path="url(#p21f195d0de)" style="fill: #f44336; opacity: 0.7"/>
   </g>
   <g id="patch_70">
    <path d="M 223.650497 221.860022 
L 229.744181 221.860022 
L 229.744181 274.127923 
L 223.650497 274.127923 
z
" clip-path="url(#p21f195d0de)" style="fill: #f44336; opacity: 0.7"/>
   </g>
   <g id="patch_71">
    <path d="M 231.267602 221.860022 
L 237.361286 221.860022 
L 237.361286 252.209088 
L 231.267602 252.209088 
z
" clip-path="url(#p21f195d0de)" style="fill: #f44336; opacity: 0.7"/>
   </g>
   <g id="patch_72">
    <path d="M 238.884707 221.860022 
L 244.978391 221.860022 
L 244.978391 271.911299 
L 238.884707 271.911299 
z
" clip-path="url(#p21f195d0de)" style="fill: #f44336; opacity: 0.7"/>
   </g>
   <g id="patch_73">
    <path d="M 246.501812 221.860022 
L 252.595495 221.860022 
L 252.595495 261.352244 
L 246.501812 261.352244 
z
" clip-path="url(#p21f195d0de)" style="fill: #f44336; opacity: 0.7"/>
   </g>
   <g id="patch_74">
    <path d="M 254.118916 221.860022 
L 260.2126 221.860022 
L 260.2126 281.433158 
L 254.118916 281.433158 
z
" clip-path="url(#p21f195d0de)" style="fill: #f44336; opacity: 0.7"/>
   </g>
   <g id="patch_75">
    <path d="M 261.736021 221.860022 
L 267.829705 221.860022 
L 267.829705 277.513194 
L 261.736021 277.513194 
z
" clip-path="url(#p21f195d0de)" style="fill: #f44336; opacity: 0.7"/>
   </g>
   <g id="patch_76">
    <path d="M 269.353126 221.860022 
L 275.44681 221.860022 
L 275.44681 256.82454 
L 269.353126 256.82454 
z
" clip-path="url(#p21f195d0de)" style="fill: #f44336; opacity: 0.7"/>
   </g>
   <g id="patch_77">
    <path d="M 276.970231 221.860022 
L 283.063915 221.860022 
L 283.063915 261.036001 
L 276.970231 261.036001 
z
" clip-path="url(#p21f195d0de)" style="fill: #f44336; opacity: 0.7"/>
   </g>
   <g id="patch_78">
    <path d="M 284.587335 221.860022 
L 290.681019 221.860022 
L 290.681019 252.923311 
L 284.587335 252.923311 
z
" clip-path="url(#p21f195d0de)" style="fill: #f44336; opacity: 0.7"/>
   </g>
   <g id="patch_79">
    <path d="M 292.20444 221.860022 
L 298.298124 221.860022 
L 298.298124 277.943997 
L 292.20444 277.943997 
z
" clip-path="url(#p21f195d0de)" style="fill: #f44336; opacity: 0.7"/>
   </g>
   <g id="patch_80">
    <path d="M 299.821545 221.860022 
L 305.915229 221.860022 
L 305.915229 265.736851 
L 299.821545 265.736851 
z
" clip-path="url(#p21f195d0de)" style="fill: #f44336; opacity: 0.7"/>
   </g>
   <g id="patch_81">
    <path d="M 307.43865 221.860022 
L 313.532334 221.860022 
L 313.532334 293.328179 
L 307.43865 293.328179 
z
" clip-path="url(#p21f195d0de)" style="fill: #f44336; opacity: 0.7"/>
   </g>
   <g id="patch_82">
    <path d="M 315.055755 221.860022 
L 321.149438 221.860022 
L 321.149438 282.107367 
L 315.055755 282.107367 
z
" clip-path="url(#p21f195d0de)" style="fill: #f44336; opacity: 0.7"/>
   </g>
   <g id="patch_83">
    <path d="M 322.672859 221.860022 
L 328.766543 221.860022 
L 328.766543 256.104587 
L 322.672859 256.104587 
z
" clip-path="url(#p21f195d0de)" style="fill: #f44336; opacity: 0.7"/>
   </g>
   <g id="patch_84">
    <path d="M 330.289964 221.860022 
L 336.383648 221.860022 
L 336.383648 247.035039 
L 330.289964 247.035039 
z
" clip-path="url(#p21f195d0de)" style="fill: #f44336; opacity: 0.7"/>
   </g>
   <g id="patch_85">
    <path d="M 337.907069 221.860022 
L 344.000753 221.860022 
L 344.000753 300.662586 
L 337.907069 300.662586 
z
" clip-path="url(#p21f195d0de)" style="fill: #f44336; opacity: 0.7"/>
   </g>
   <g id="patch_86">
    <path d="M 345.524174 221.860022 
L 351.617858 221.860022 
L 351.617858 274.248918 
L 345.524174 274.248918 
z
" clip-path="url(#p21f195d0de)" style="fill: #f44336; opacity: 0.7"/>
   </g>
   <g id="patch_87">
    <path d="M 353.141279 221.860022 
L 359.234962 221.860022 
L 359.234962 287.167018 
L 353.141279 287.167018 
z
" clip-path="url(#p21f195d0de)" style="fill: #f44336; opacity: 0.7"/>
   </g>
   <g id="patch_88">
    <path d="M 360.758383 221.860022 
L 366.852067 221.860022 
L 366.852067 284.318964 
L 360.758383 284.318964 
z
" clip-path="url(#p21f195d0de)" style="fill: #f44336; opacity: 0.7"/>
   </g>
   <g id="patch_89">
    <path d="M 368.375488 221.860022 
L 374.469172 221.860022 
L 374.469172 283.952199 
L 368.375488 283.952199 
z
" clip-path="url(#p21f195d0de)" style="fill: #f44336; opacity: 0.7"/>
   </g>
   <g id="patch_90">
    <path d="M 375.992593 221.860022 
L 382.086277 221.860022 
L 382.086277 282.288419 
L 375.992593 282.288419 
z
" clip-path="url(#p21f195d0de)" style="fill: #f44336; opacity: 0.7"/>
   </g>
   <g id="patch_91">
    <path d="M 383.609698 221.860022 
L 389.703381 221.860022 
L 389.703381 286.468947 
L 383.609698 286.468947 
z
" clip-path="url(#p21f195d0de)" style="fill: #f44336; opacity: 0.7"/>
   </g>
   <g id="patch_92">
    <path d="M 391.226802 221.860022 
L 397.320486 221.860022 
L 397.320486 296.580499 
L 391.226802 296.580499 
z
" clip-path="url(#p21f195d0de)" style="fill: #f44336; opacity: 0.7"/>
   </g>
   <g id="patch_93">
    <path d="M 398.843907 221.860022 
L 404.937591 221.860022 
L 404.937591 253.652393 
L 398.843907 253.652393 
z
" clip-path="url(#p21f195d0de)" style="fill: #f44336; opacity: 0.7"/>
   </g>
   <g id="patch_94">
    <path d="M 406.461012 221.860022 
L 412.554696 221.860022 
L 412.554696 246.437464 
L 406.461012 246.437464 
z
" clip-path="url(#p21f195d0de)" style="fill: #f44336; opacity: 0.7"/>
   </g>
   <g id="patch_95">
    <path d="M 414.078117 221.860022 
L 420.171801 221.860022 
L 420.171801 232.645171 
L 414.078117 232.645171 
z
" clip-path="url(#p21f195d0de)" style="fill: #f44336; opacity: 0.7"/>
   </g>
   <g id="patch_96">
    <path d="M 421.695222 221.860022 
L 427.788905 221.860022 
L 427.788905 294.159238 
L 421.695222 294.159238 
z
" clip-path="url(#p21f195d0de)" style="fill: #f44336; opacity: 0.7"/>
   </g>
   <g id="patch_97">
    <path d="M 429.312326 221.860022 
L 435.40601 221.860022 
L 435.40601 269.233844 
L 429.312326 269.233844 
z
" clip-path="url(#p21f195d0de)" style="fill: #f44336; opacity: 0.7"/>
   </g>
   <g id="patch_98">
    <path d="M 436.929431 221.860022 
L 443.023115 221.860022 
L 443.023115 280.310015 
L 436.929431 280.310015 
z
" clip-path="url(#p21f195d0de)" style="fill: #f44336; opacity: 0.7"/>
   </g>
   <g id="patch_99">
    <path d="M 444.546536 221.860022 
L 450.64022 221.860022 
L 450.64022 241.220671 
L 444.546536 241.220671 
z
" clip-path="url(#p21f195d0de)" style="fill: #f44336; opacity: 0.7"/>
   </g>
   <g id="patch_100">
    <path d="M 452.163641 221.860022 
L 458.257325 221.860022 
L 458.257325 257.377101 
L 452.163641 257.377101 
z
" clip-path="url(#p21f195d0de)" style="fill: #f44336; opacity: 0.7"/>
   </g>
   <g id="patch_101">
    <path d="M 459.780745 221.860022 
L 465.874429 221.860022 
L 465.874429 263.500659 
L 459.780745 263.500659 
z
" clip-path="url(#p21f195d0de)" style="fill: #f44336; opacity: 0.7"/>
   </g>
   <g id="patch_102">
    <path d="M 467.39785 221.860022 
L 473.491534 221.860022 
L 473.491534 256.778455 
L 467.39785 256.778455 
z
" clip-path="url(#p21f195d0de)" style="fill: #f44336; opacity: 0.7"/>
   </g>
   <g id="matplotlib.axis_1">
    <g id="xtick_1">
     <g id="line2d_1">
      <defs>
       <path id="mff2992d033" d="M 0 0 
L 0 3.5 
" style="stroke: #000000; stroke-width: 0.8"/>
      </defs>
      <g>
       <use xlink:href="#mff2992d033" x="97.206558" y="361.115625" style="stroke: #000000; stroke-width: 0.8"/>
      </g>
     </g>
     <g id="text_1">
      <!-- 0 -->
      <g transform="translate(92.116558 380.273125) scale(0.16 -0.16)">
       <defs>
        <path id="DejaVuSans-30" d="M 2034 4250 
Q 1547 4250 1301 3770 
Q 1056 3291 1056 2328 
Q 1056 1369 1301 889 
Q 1547 409 2034 409 
Q 2525 409 2770 889 
Q 3016 1369 3016 2328 
Q 3016 3291 2770 3770 
Q 2525 4250 2034 4250 
z
M 2034 4750 
Q 2819 4750 3233 4129 
Q 3647 3509 3647 2328 
Q 3647 1150 3233 529 
Q 2819 -91 2034 -91 
Q 1250 -91 836 529 
Q 422 1150 422 2328 
Q 422 3509 836 4129 
Q 1250 4750 2034 4750 
z
" transform="scale(0.015625)"/>
       </defs>
       <use xlink:href="#DejaVuSans-30"/>
      </g>
     </g>
    </g>
    <g id="xtick_2">
     <g id="line2d_2">
      <g>
       <use xlink:href="#mff2992d033" x="173.377606" y="361.115625" style="stroke: #000000; stroke-width: 0.8"/>
      </g>
     </g>
     <g id="text_2">
      <!-- 10 -->
      <g transform="translate(163.197606 380.273125) scale(0.16 -0.16)">
       <defs>
        <path id="DejaVuSans-31" d="M 794 531 
L 1825 531 
L 1825 4091 
L 703 3866 
L 703 4441 
L 1819 4666 
L 2450 4666 
L 2450 531 
L 3481 531 
L 3481 0 
L 794 0 
L 794 531 
z
" transform="scale(0.015625)"/>
       </defs>
       <use xlink:href="#DejaVuSans-31"/>
       <use xlink:href="#DejaVuSans-30" transform="translate(63.623047 0)"/>
      </g>
     </g>
    </g>
    <g id="xtick_3">
     <g id="line2d_3">
      <g>
       <use xlink:href="#mff2992d033" x="249.548653" y="361.115625" style="stroke: #000000; stroke-width: 0.8"/>
      </g>
     </g>
     <g id="text_3">
      <!-- 20 -->
      <g transform="translate(239.368653 380.273125) scale(0.16 -0.16)">
       <defs>
        <path id="DejaVuSans-32" d="M 1228 531 
L 3431 531 
L 3431 0 
L 469 0 
L 469 531 
Q 828 903 1448 1529 
Q 2069 2156 2228 2338 
Q 2531 2678 2651 2914 
Q 2772 3150 2772 3378 
Q 2772 3750 2511 3984 
Q 2250 4219 1831 4219 
Q 1534 4219 1204 4116 
Q 875 4013 500 3803 
L 500 4441 
Q 881 4594 1212 4672 
Q 1544 4750 1819 4750 
Q 2544 4750 2975 4387 
Q 3406 4025 3406 3419 
Q 3406 3131 3298 2873 
Q 3191 2616 2906 2266 
Q 2828 2175 2409 1742 
Q 1991 1309 1228 531 
z
" transform="scale(0.015625)"/>
       </defs>
       <use xlink:href="#DejaVuSans-32"/>
       <use xlink:href="#DejaVuSans-30" transform="translate(63.623047 0)"/>
      </g>
     </g>
    </g>
    <g id="xtick_4">
     <g id="line2d_4">
      <g>
       <use xlink:href="#mff2992d033" x="325.719701" y="361.115625" style="stroke: #000000; stroke-width: 0.8"/>
      </g>
     </g>
     <g id="text_4">
      <!-- 30 -->
      <g transform="translate(315.539701 380.273125) scale(0.16 -0.16)">
       <defs>
        <path id="DejaVuSans-33" d="M 2597 2516 
Q 3050 2419 3304 2112 
Q 3559 1806 3559 1356 
Q 3559 666 3084 287 
Q 2609 -91 1734 -91 
Q 1441 -91 1130 -33 
Q 819 25 488 141 
L 488 750 
Q 750 597 1062 519 
Q 1375 441 1716 441 
Q 2309 441 2620 675 
Q 2931 909 2931 1356 
Q 2931 1769 2642 2001 
Q 2353 2234 1838 2234 
L 1294 2234 
L 1294 2753 
L 1863 2753 
Q 2328 2753 2575 2939 
Q 2822 3125 2822 3475 
Q 2822 3834 2567 4026 
Q 2313 4219 1838 4219 
Q 1578 4219 1281 4162 
Q 984 4106 628 3988 
L 628 4550 
Q 988 4650 1302 4700 
Q 1616 4750 1894 4750 
Q 2613 4750 3031 4423 
Q 3450 4097 3450 3541 
Q 3450 3153 3228 2886 
Q 3006 2619 2597 2516 
z
" transform="scale(0.015625)"/>
       </defs>
       <use xlink:href="#DejaVuSans-33"/>
       <use xlink:href="#DejaVuSans-30" transform="translate(63.623047 0)"/>
      </g>
     </g>
    </g>
    <g id="xtick_5">
     <g id="line2d_5">
      <g>
       <use xlink:href="#mff2992d033" x="401.890749" y="361.115625" style="stroke: #000000; stroke-width: 0.8"/>
      </g>
     </g>
     <g id="text_5">
      <!-- 40 -->
      <g transform="translate(391.710749 380.273125) scale(0.16 -0.16)">
       <defs>
        <path id="DejaVuSans-34" d="M 2419 4116 
L 825 1625 
L 2419 1625 
L 2419 4116 
z
M 2253 4666 
L 3047 4666 
L 3047 1625 
L 3713 1625 
L 3713 1100 
L 3047 1100 
L 3047 0 
L 2419 0 
L 2419 1100 
L 313 1100 
L 313 1709 
L 2253 4666 
z
" transform="scale(0.015625)"/>
       </defs>
       <use xlink:href="#DejaVuSans-34"/>
       <use xlink:href="#DejaVuSans-30" transform="translate(63.623047 0)"/>
      </g>
     </g>
    </g>
    <g id="xtick_6">
     <g id="line2d_6">
      <g>
       <use xlink:href="#mff2992d033" x="478.061797" y="361.115625" style="stroke: #000000; stroke-width: 0.8"/>
      </g>
     </g>
     <g id="text_6">
      <!-- 50 -->
      <g transform="translate(467.881797 380.273125) scale(0.16 -0.16)">
       <defs>
        <path id="DejaVuSans-35" d="M 691 4666 
L 3169 4666 
L 3169 4134 
L 1269 4134 
L 1269 2991 
Q 1406 3038 1543 3061 
Q 1681 3084 1819 3084 
Q 2600 3084 3056 2656 
Q 3513 2228 3513 1497 
Q 3513 744 3044 326 
Q 2575 -91 1722 -91 
Q 1428 -91 1123 -41 
Q 819 9 494 109 
L 494 744 
Q 775 591 1075 516 
Q 1375 441 1709 441 
Q 2250 441 2565 725 
Q 2881 1009 2881 1497 
Q 2881 1984 2565 2268 
Q 2250 2553 1709 2553 
Q 1456 2553 1204 2497 
Q 953 2441 691 2322 
L 691 4666 
z
" transform="scale(0.015625)"/>
       </defs>
       <use xlink:href="#DejaVuSans-35"/>
       <use xlink:href="#DejaVuSans-30" transform="translate(63.623047 0)"/>
      </g>
     </g>
    </g>
    <g id="text_7">
     <!-- Slot de inventario (ordenado) -->
     <g transform="translate(151.458125 401.277812) scale(0.18 -0.18)">
      <defs>
       <path id="DejaVuSans-53" d="M 3425 4513 
L 3425 3897 
Q 3066 4069 2747 4153 
Q 2428 4238 2131 4238 
Q 1616 4238 1336 4038 
Q 1056 3838 1056 3469 
Q 1056 3159 1242 3001 
Q 1428 2844 1947 2747 
L 2328 2669 
Q 3034 2534 3370 2195 
Q 3706 1856 3706 1288 
Q 3706 609 3251 259 
Q 2797 -91 1919 -91 
Q 1588 -91 1214 -16 
Q 841 59 441 206 
L 441 856 
Q 825 641 1194 531 
Q 1563 422 1919 422 
Q 2459 422 2753 634 
Q 3047 847 3047 1241 
Q 3047 1584 2836 1778 
Q 2625 1972 2144 2069 
L 1759 2144 
Q 1053 2284 737 2584 
Q 422 2884 422 3419 
Q 422 4038 858 4394 
Q 1294 4750 2059 4750 
Q 2388 4750 2728 4690 
Q 3069 4631 3425 4513 
z
" transform="scale(0.015625)"/>
       <path id="DejaVuSans-6c" d="M 603 4863 
L 1178 4863 
L 1178 0 
L 603 0 
L 603 4863 
z
" transform="scale(0.015625)"/>
       <path id="DejaVuSans-6f" d="M 1959 3097 
Q 1497 3097 1228 2736 
Q 959 2375 959 1747 
Q 959 1119 1226 758 
Q 1494 397 1959 397 
Q 2419 397 2687 759 
Q 2956 1122 2956 1747 
Q 2956 2369 2687 2733 
Q 2419 3097 1959 3097 
z
M 1959 3584 
Q 2709 3584 3137 3096 
Q 3566 2609 3566 1747 
Q 3566 888 3137 398 
Q 2709 -91 1959 -91 
Q 1206 -91 779 398 
Q 353 888 353 1747 
Q 353 2609 779 3096 
Q 1206 3584 1959 3584 
z
" transform="scale(0.015625)"/>
       <path id="DejaVuSans-74" d="M 1172 4494 
L 1172 3500 
L 2356 3500 
L 2356 3053 
L 1172 3053 
L 1172 1153 
Q 1172 725 1289 603 
Q 1406 481 1766 481 
L 2356 481 
L 2356 0 
L 1766 0 
Q 1100 0 847 248 
Q 594 497 594 1153 
L 594 3053 
L 172 3053 
L 172 3500 
L 594 3500 
L 594 4494 
L 1172 4494 
z
" transform="scale(0.015625)"/>
       <path id="DejaVuSans-20" transform="scale(0.015625)"/>
       <path id="DejaVuSans-64" d="M 2906 2969 
L 2906 4863 
L 3481 4863 
L 3481 0 
L 2906 0 
L 2906 525 
Q 2725 213 2448 61 
Q 2172 -91 1784 -91 
Q 1150 -91 751 415 
Q 353 922 353 1747 
Q 353 2572 751 3078 
Q 1150 3584 1784 3584 
Q 2172 3584 2448 3432 
Q 2725 3281 2906 2969 
z
M 947 1747 
Q 947 1113 1208 752 
Q 1469 391 1925 391 
Q 2381 391 2643 752 
Q 2906 1113 2906 1747 
Q 2906 2381 2643 2742 
Q 2381 3103 1925 3103 
Q 1469 3103 1208 2742 
Q 947 2381 947 1747 
z
" transform="scale(0.015625)"/>
       <path id="DejaVuSans-65" d="M 3597 1894 
L 3597 1613 
L 953 1613 
Q 991 1019 1311 708 
Q 1631 397 2203 397 
Q 2534 397 2845 478 
Q 3156 559 3463 722 
L 3463 178 
Q 3153 47 2828 -22 
Q 2503 -91 2169 -91 
Q 1331 -91 842 396 
Q 353 884 353 1716 
Q 353 2575 817 3079 
Q 1281 3584 2069 3584 
Q 2775 3584 3186 3129 
Q 3597 2675 3597 1894 
z
M 3022 2063 
Q 3016 2534 2758 2815 
Q 2500 3097 2075 3097 
Q 1594 3097 1305 2825 
Q 1016 2553 972 2059 
L 3022 2063 
z
" transform="scale(0.015625)"/>
       <path id="DejaVuSans-69" d="M 603 3500 
L 1178 3500 
L 1178 0 
L 603 0 
L 603 3500 
z
M 603 4863 
L 1178 4863 
L 1178 4134 
L 603 4134 
L 603 4863 
z
" transform="scale(0.015625)"/>
       <path id="DejaVuSans-6e" d="M 3513 2113 
L 3513 0 
L 2938 0 
L 2938 2094 
Q 2938 2591 2744 2837 
Q 2550 3084 2163 3084 
Q 1697 3084 1428 2787 
Q 1159 2491 1159 1978 
L 1159 0 
L 581 0 
L 581 3500 
L 1159 3500 
L 1159 2956 
Q 1366 3272 1645 3428 
Q 1925 3584 2291 3584 
Q 2894 3584 3203 3211 
Q 3513 2838 3513 2113 
z
" transform="scale(0.015625)"/>
       <path id="DejaVuSans-76" d="M 191 3500 
L 800 3500 
L 1894 563 
L 2988 3500 
L 3597 3500 
L 2284 0 
L 1503 0 
L 191 3500 
z
" transform="scale(0.015625)"/>
       <path id="DejaVuSans-61" d="M 2194 1759 
Q 1497 1759 1228 1600 
Q 959 1441 959 1056 
Q 959 750 1161 570 
Q 1363 391 1709 391 
Q 2188 391 2477 730 
Q 2766 1069 2766 1631 
L 2766 1759 
L 2194 1759 
z
M 3341 1997 
L 3341 0 
L 2766 0 
L 2766 531 
Q 2569 213 2275 61 
Q 1981 -91 1556 -91 
Q 1019 -91 701 211 
Q 384 513 384 1019 
Q 384 1609 779 1909 
Q 1175 2209 1959 2209 
L 2766 2209 
L 2766 2266 
Q 2766 2663 2505 2880 
Q 2244 3097 1772 3097 
Q 1472 3097 1187 3025 
Q 903 2953 641 2809 
L 641 3341 
Q 956 3463 1253 3523 
Q 1550 3584 1831 3584 
Q 2591 3584 2966 3190 
Q 3341 2797 3341 1997 
z
" transform="scale(0.015625)"/>
       <path id="DejaVuSans-72" d="M 2631 2963 
Q 2534 3019 2420 3045 
Q 2306 3072 2169 3072 
Q 1681 3072 1420 2755 
Q 1159 2438 1159 1844 
L 1159 0 
L 581 0 
L 581 3500 
L 1159 3500 
L 1159 2956 
Q 1341 3275 1631 3429 
Q 1922 3584 2338 3584 
Q 2397 3584 2469 3576 
Q 2541 3569 2628 3553 
L 2631 2963 
z
" transform="scale(0.015625)"/>
       <path id="DejaVuSans-28" d="M 1984 4856 
Q 1566 4138 1362 3434 
Q 1159 2731 1159 2009 
Q 1159 1288 1364 580 
Q 1569 -128 1984 -844 
L 1484 -844 
Q 1016 -109 783 600 
Q 550 1309 550 2009 
Q 550 2706 781 3412 
Q 1013 4119 1484 4856 
L 1984 4856 
z
" transform="scale(0.015625)"/>
       <path id="DejaVuSans-29" d="M 513 4856 
L 1013 4856 
Q 1481 4119 1714 3412 
Q 1947 2706 1947 2009 
Q 1947 1309 1714 600 
Q 1481 -109 1013 -844 
L 513 -844 
Q 928 -128 1133 580 
Q 1338 1288 1338 2009 
Q 1338 2731 1133 3434 
Q 928 4138 513 4856 
z
" transform="scale(0.015625)"/>
      </defs>
      <use xlink:href="#DejaVuSans-53"/>
      <use xlink:href="#DejaVuSans-6c" transform="translate(63.476562 0)"/>
      <use xlink:href="#DejaVuSans-6f" transform="translate(91.259766 0)"/>
      <use xlink:href="#DejaVuSans-74" transform="translate(152.441406 0)"/>
      <use xlink:href="#DejaVuSans-20" transform="translate(191.650391 0)"/>
      <use xlink:href="#DejaVuSans-64" transform="translate(223.4375 0)"/>
      <use xlink:href="#DejaVuSans-65" transform="translate(286.914062 0)"/>
      <use xlink:href="#DejaVuSans-20" transform="translate(348.4375 0)"/>
      <use xlink:href="#DejaVuSans-69" transform="translate(380.224609 0)"/>
      <use xlink:href="#DejaVuSans-6e" transform="translate(408.007812 0)"/>
      <use xlink:href="#DejaVuSans-76" transform="translate(471.386719 0)"/>
      <use xlink:href="#DejaVuSans-65" transform="translate(530.566406 0)"/>
      <use xlink:href="#DejaVuSans-6e" transform="translate(592.089844 0)"/>
      <use xlink:href="#DejaVuSans-74" transform="translate(655.46875 0)"/>
      <use xlink:href="#DejaVuSans-61" transform="translate(694.677734 0)"/>
      <use xlink:href="#DejaVuSans-72" transform="translate(755.957031 0)"/>
      <use xlink:href="#DejaVuSans-69" transform="translate(797.070312 0)"/>
      <use xlink:href="#DejaVuSans-6f" transform="translate(824.853516 0)"/>
      <use xlink:href="#DejaVuSans-20" transform="translate(886.035156 0)"/>
      <use xlink:href="#DejaVuSans-28" transform="translate(917.822266 0)"/>
      <use xlink:href="#DejaVuSans-6f" transform="translate(956.835938 0)"/>
      <use xlink:href="#DejaVuSans-72" transform="translate(1018.017578 0)"/>
      <use xlink:href="#DejaVuSans-64" transform="translate(1057.380859 0)"/>
      <use xlink:href="#DejaVuSans-65" transform="translate(1120.857422 0)"/>
      <use xlink:href="#DejaVuSans-6e" transform="translate(1182.380859 0)"/>
      <use xlink:href="#DejaVuSans-61" transform="translate(1245.759766 0)"/>
      <use xlink:href="#DejaVuSans-64" transform="translate(1307.039062 0)"/>
      <use xlink:href="#DejaVuSans-6f" transform="translate(1370.515625 0)"/>
      <use xlink:href="#DejaVuSans-29" transform="translate(1431.697266 0)"/>
     </g>
    </g>
   </g>
   <g id="matplotlib.axis_2">
    <g id="ytick_1">
     <g id="line2d_7">
      <path d="M 75.193125 329.793141 
L 492.458125 329.793141 
" clip-path="url(#p21f195d0de)" style="fill: none; stroke: #b0b0b0; stroke-opacity: 0.3; stroke-width: 0.8; stroke-linecap: square"/>
     </g>
     <g id="line2d_8">
      <defs>
       <path id="m2597d909b5" d="M 0 0 
L -3.5 0 
" style="stroke: #000000; stroke-width: 0.8"/>
      </defs>
      <g>
       <use xlink:href="#m2597d909b5" x="75.193125" y="329.793141" style="stroke: #000000; stroke-width: 0.8"/>
      </g>
     </g>
     <g id="text_8">
      <!-- −0.4 -->
      <g transform="translate(29.340625 335.871891) scale(0.16 -0.16)">
       <defs>
        <path id="DejaVuSans-2212" d="M 678 2272 
L 4684 2272 
L 4684 1741 
L 678 1741 
L 678 2272 
z
" transform="scale(0.015625)"/>
        <path id="DejaVuSans-2e" d="M 684 794 
L 1344 794 
L 1344 0 
L 684 0 
L 684 794 
z
" transform="scale(0.015625)"/>
       </defs>
       <use xlink:href="#DejaVuSans-2212"/>
       <use xlink:href="#DejaVuSans-30" transform="translate(83.789062 0)"/>
       <use xlink:href="#DejaVuSans-2e" transform="translate(147.412109 0)"/>
       <use xlink:href="#DejaVuSans-34" transform="translate(179.199219 0)"/>
      </g>
     </g>
    </g>
    <g id="ytick_2">
     <g id="line2d_9">
      <path d="M 75.193125 275.826581 
L 492.458125 275.826581 
" clip-path="url(#p21f195d0de)" style="fill: none; stroke: #b0b0b0; stroke-opacity: 0.3; stroke-width: 0.8; stroke-linecap: square"/>
     </g>
     <g id="line2d_10">
      <g>
       <use xlink:href="#m2597d909b5" x="75.193125" y="275.826581" style="stroke: #000000; stroke-width: 0.8"/>
      </g>
     </g>
     <g id="text_9">
      <!-- −0.2 -->
      <g transform="translate(29.340625 281.905331) scale(0.16 -0.16)">
       <use xlink:href="#DejaVuSans-2212"/>
       <use xlink:href="#DejaVuSans-30" transform="translate(83.789062 0)"/>
       <use xlink:href="#DejaVuSans-2e" transform="translate(147.412109 0)"/>
       <use xlink:href="#DejaVuSans-32" transform="translate(179.199219 0)"/>
      </g>
     </g>
    </g>
    <g id="ytick_3">
     <g id="line2d_11">
      <path d="M 75.193125 221.860022 
L 492.458125 221.860022 
" clip-path="url(#p21f195d0de)" style="fill: none; stroke: #b0b0b0; stroke-opacity: 0.3; stroke-width: 0.8; stroke-linecap: square"/>
     </g>
     <g id="line2d_12">
      <g>
       <use xlink:href="#m2597d909b5" x="75.193125" y="221.860022" style="stroke: #000000; stroke-width: 0.8"/>
      </g>
     </g>
     <g id="text_10">
      <!-- 0.0 -->
      <g transform="translate(42.748125 227.938772) scale(0.16 -0.16)">
       <use xlink:href="#DejaVuSans-30"/>
       <use xlink:href="#DejaVuSans-2e" transform="translate(63.623047 0)"/>
       <use xlink:href="#DejaVuSans-30" transform="translate(95.410156 0)"/>
      </g>
     </g>
    </g>
    <g id="ytick_4">
     <g id="line2d_13">
      <path d="M 75.193125 167.893462 
L 492.458125 167.893462 
" clip-path="url(#p21f195d0de)" style="fill: none; stroke: #b0b0b0; stroke-opacity: 0.3; stroke-width: 0.8; stroke-linecap: square"/>
     </g>
     <g id="line2d_14">
      <g>
       <use xlink:href="#m2597d909b5" x="75.193125" y="167.893462" style="stroke: #000000; stroke-width: 0.8"/>
      </g>
     </g>
     <g id="text_11">
      <!-- 0.2 -->
      <g transform="translate(42.748125 173.972212) scale(0.16 -0.16)">
       <use xlink:href="#DejaVuSans-30"/>
       <use xlink:href="#DejaVuSans-2e" transform="translate(63.623047 0)"/>
       <use xlink:href="#DejaVuSans-32" transform="translate(95.410156 0)"/>
      </g>
     </g>
    </g>
    <g id="ytick_5">
     <g id="line2d_15">
      <path d="M 75.193125 113.926903 
L 492.458125 113.926903 
" clip-path="url(#p21f195d0de)" style="fill: none; stroke: #b0b0b0; stroke-opacity: 0.3; stroke-width: 0.8; stroke-linecap: square"/>
     </g>
     <g id="line2d_16">
      <g>
       <use xlink:href="#m2597d909b5" x="75.193125" y="113.926903" style="stroke: #000000; stroke-width: 0.8"/>
      </g>
     </g>
     <g id="text_12">
      <!-- 0.4 -->
      <g transform="translate(42.748125 120.005653) scale(0.16 -0.16)">
       <use xlink:href="#DejaVuSans-30"/>
       <use xlink:href="#DejaVuSans-2e" transform="translate(63.623047 0)"/>
       <use xlink:href="#DejaVuSans-34" transform="translate(95.410156 0)"/>
      </g>
     </g>
    </g>
    <g id="ytick_6">
     <g id="line2d_17">
      <path d="M 75.193125 59.960343 
L 492.458125 59.960343 
" clip-path="url(#p21f195d0de)" style="fill: none; stroke: #b0b0b0; stroke-opacity: 0.3; stroke-width: 0.8; stroke-linecap: square"/>
     </g>
     <g id="line2d_18">
      <g>
       <use xlink:href="#m2597d909b5" x="75.193125" y="59.960343" style="stroke: #000000; stroke-width: 0.8"/>
      </g>
     </g>
     <g id="text_13">
      <!-- 0.6 -->
      <g transform="translate(42.748125 66.039093) scale(0.16 -0.16)">
       <defs>
        <path id="DejaVuSans-36" d="M 2113 2584 
Q 1688 2584 1439 2293 
Q 1191 2003 1191 1497 
Q 1191 994 1439 701 
Q 1688 409 2113 409 
Q 2538 409 2786 701 
Q 3034 994 3034 1497 
Q 3034 2003 2786 2293 
Q 2538 2584 2113 2584 
z
M 3366 4563 
L 3366 3988 
Q 3128 4100 2886 4159 
Q 2644 4219 2406 4219 
Q 1781 4219 1451 3797 
Q 1122 3375 1075 2522 
Q 1259 2794 1537 2939 
Q 1816 3084 2150 3084 
Q 2853 3084 3261 2657 
Q 3669 2231 3669 1497 
Q 3669 778 3244 343 
Q 2819 -91 2113 -91 
Q 1303 -91 875 529 
Q 447 1150 447 2328 
Q 447 3434 972 4092 
Q 1497 4750 2381 4750 
Q 2619 4750 2861 4703 
Q 3103 4656 3366 4563 
z
" transform="scale(0.015625)"/>
       </defs>
       <use xlink:href="#DejaVuSans-30"/>
       <use xlink:href="#DejaVuSans-2e" transform="translate(63.623047 0)"/>
       <use xlink:href="#DejaVuSans-36" transform="translate(95.410156 0)"/>
      </g>
     </g>
    </g>
    <g id="text_14">
     <!-- Valor esperado por impresión ($) -->
     <g transform="translate(21.597188 343.276562) rotate(-90) scale(0.18 -0.18)">
      <defs>
       <path id="DejaVuSans-56" d="M 1831 0 
L 50 4666 
L 709 4666 
L 2188 738 
L 3669 4666 
L 4325 4666 
L 2547 0 
L 1831 0 
z
" transform="scale(0.015625)"/>
       <path id="DejaVuSans-73" d="M 2834 3397 
L 2834 2853 
Q 2591 2978 2328 3040 
Q 2066 3103 1784 3103 
Q 1356 3103 1142 2972 
Q 928 2841 928 2578 
Q 928 2378 1081 2264 
Q 1234 2150 1697 2047 
L 1894 2003 
Q 2506 1872 2764 1633 
Q 3022 1394 3022 966 
Q 3022 478 2636 193 
Q 2250 -91 1575 -91 
Q 1294 -91 989 -36 
Q 684 19 347 128 
L 347 722 
Q 666 556 975 473 
Q 1284 391 1588 391 
Q 1994 391 2212 530 
Q 2431 669 2431 922 
Q 2431 1156 2273 1281 
Q 2116 1406 1581 1522 
L 1381 1569 
Q 847 1681 609 1914 
Q 372 2147 372 2553 
Q 372 3047 722 3315 
Q 1072 3584 1716 3584 
Q 2034 3584 2315 3537 
Q 2597 3491 2834 3397 
z
" transform="scale(0.015625)"/>
       <path id="DejaVuSans-70" d="M 1159 525 
L 1159 -1331 
L 581 -1331 
L 581 3500 
L 1159 3500 
L 1159 2969 
Q 1341 3281 1617 3432 
Q 1894 3584 2278 3584 
Q 2916 3584 3314 3078 
Q 3713 2572 3713 1747 
Q 3713 922 3314 415 
Q 2916 -91 2278 -91 
Q 1894 -91 1617 61 
Q 1341 213 1159 525 
z
M 3116 1747 
Q 3116 2381 2855 2742 
Q 2594 3103 2138 3103 
Q 1681 3103 1420 2742 
Q 1159 2381 1159 1747 
Q 1159 1113 1420 752 
Q 1681 391 2138 391 
Q 2594 391 2855 752 
Q 3116 1113 3116 1747 
z
" transform="scale(0.015625)"/>
       <path id="DejaVuSans-6d" d="M 3328 2828 
Q 3544 3216 3844 3400 
Q 4144 3584 4550 3584 
Q 5097 3584 5394 3201 
Q 5691 2819 5691 2113 
L 5691 0 
L 5113 0 
L 5113 2094 
Q 5113 2597 4934 2840 
Q 4756 3084 4391 3084 
Q 3944 3084 3684 2787 
Q 3425 2491 3425 1978 
L 3425 0 
L 2847 0 
L 2847 2094 
Q 2847 2600 2669 2842 
Q 2491 3084 2119 3084 
Q 1678 3084 1418 2786 
Q 1159 2488 1159 1978 
L 1159 0 
L 581 0 
L 581 3500 
L 1159 3500 
L 1159 2956 
Q 1356 3278 1631 3431 
Q 1906 3584 2284 3584 
Q 2666 3584 2933 3390 
Q 3200 3197 3328 2828 
z
" transform="scale(0.015625)"/>
       <path id="DejaVuSans-f3" d="M 1959 3097 
Q 1497 3097 1228 2736 
Q 959 2375 959 1747 
Q 959 1119 1226 758 
Q 1494 397 1959 397 
Q 2419 397 2687 759 
Q 2956 1122 2956 1747 
Q 2956 2369 2687 2733 
Q 2419 3097 1959 3097 
z
M 1959 3584 
Q 2709 3584 3137 3096 
Q 3566 2609 3566 1747 
Q 3566 888 3137 398 
Q 2709 -91 1959 -91 
Q 1206 -91 779 398 
Q 353 888 353 1747 
Q 353 2609 779 3096 
Q 1206 3584 1959 3584 
z
M 2394 5119 
L 3016 5119 
L 1998 3944 
L 1519 3944 
L 2394 5119 
z
" transform="scale(0.015625)"/>
       <path id="DejaVuSans-24" d="M 2163 -941 
L 1850 -941 
L 1847 0 
Q 1519 6 1191 76 
Q 863 147 531 288 
L 531 850 
Q 850 650 1176 548 
Q 1503 447 1850 444 
L 1850 1869 
Q 1159 1981 845 2250 
Q 531 2519 531 2988 
Q 531 3497 872 3790 
Q 1213 4084 1850 4128 
L 1850 4863 
L 2163 4863 
L 2163 4138 
Q 2453 4125 2725 4076 
Q 2997 4028 3256 3944 
L 3256 3397 
Q 2997 3528 2723 3600 
Q 2450 3672 2163 3684 
L 2163 2350 
Q 2872 2241 3206 1959 
Q 3541 1678 3541 1191 
Q 3541 663 3186 358 
Q 2831 53 2163 6 
L 2163 -941 
z
M 1850 2406 
L 1850 3688 
Q 1488 3647 1297 3481 
Q 1106 3316 1106 3041 
Q 1106 2772 1282 2622 
Q 1459 2472 1850 2406 
z
M 2163 1806 
L 2163 453 
Q 2559 506 2761 678 
Q 2963 850 2963 1131 
Q 2963 1406 2770 1568 
Q 2578 1731 2163 1806 
z
" transform="scale(0.015625)"/>
      </defs>
      <use xlink:href="#DejaVuSans-56"/>
      <use xlink:href="#DejaVuSans-61" transform="translate(60.658203 0)"/>
      <use xlink:href="#DejaVuSans-6c" transform="translate(121.9375 0)"/>
      <use xlink:href="#DejaVuSans-6f" transform="translate(149.720703 0)"/>
      <use xlink:href="#DejaVuSans-72" transform="translate(210.902344 0)"/>
      <use xlink:href="#DejaVuSans-20" transform="translate(252.015625 0)"/>
      <use xlink:href="#DejaVuSans-65" transform="translate(283.802734 0)"/>
      <use xlink:href="#DejaVuSans-73" transform="translate(345.326172 0)"/>
      <use xlink:href="#DejaVuSans-70" transform="translate(397.425781 0)"/>
      <use xlink:href="#DejaVuSans-65" transform="translate(460.902344 0)"/>
      <use xlink:href="#DejaVuSans-72" transform="translate(522.425781 0)"/>
      <use xlink:href="#DejaVuSans-61" transform="translate(563.539062 0)"/>
      <use xlink:href="#DejaVuSans-64" transform="translate(624.818359 0)"/>
      <use xlink:href="#DejaVuSans-6f" transform="translate(688.294922 0)"/>
      <use xlink:href="#DejaVuSans-20" transform="translate(749.476562 0)"/>
      <use xlink:href="#DejaVuSans-70" transform="translate(781.263672 0)"/>
      <use xlink:href="#DejaVuSans-6f" transform="translate(844.740234 0)"/>
      <use xlink:href="#DejaVuSans-72" transform="translate(905.921875 0)"/>
      <use xlink:href="#DejaVuSans-20" transform="translate(947.035156 0)"/>
      <use xlink:href="#DejaVuSans-69" transform="translate(978.822266 0)"/>
      <use xlink:href="#DejaVuSans-6d" transform="translate(1006.605469 0)"/>
      <use xlink:href="#DejaVuSans-70" transform="translate(1104.017578 0)"/>
      <use xlink:href="#DejaVuSans-72" transform="translate(1167.494141 0)"/>
      <use xlink:href="#DejaVuSans-65" transform="translate(1206.357422 0)"/>
      <use xlink:href="#DejaVuSans-73" transform="translate(1267.880859 0)"/>
      <use xlink:href="#DejaVuSans-69" transform="translate(1319.980469 0)"/>
      <use xlink:href="#DejaVuSans-f3" transform="translate(1347.763672 0)"/>
      <use xlink:href="#DejaVuSans-6e" transform="translate(1408.945312 0)"/>
      <use xlink:href="#DejaVuSans-20" transform="translate(1472.324219 0)"/>
      <use xlink:href="#DejaVuSans-28" transform="translate(1504.111328 0)"/>
      <use xlink:href="#DejaVuSans-24" transform="translate(1543.125 0)"/>
      <use xlink:href="#DejaVuSans-29" transform="translate(1606.748047 0)"/>
     </g>
    </g>
   </g>
   <g id="line2d_19">
    <path d="M 75.193125 221.860022 
L 492.458125 221.860022 
" clip-path="url(#p21f195d0de)" style="fill: none; stroke: #808080; stroke-width: 0.5; stroke-linecap: square"/>
   </g>
   <g id="patch_103">
    <path d="M 75.193125 361.115625 
L 75.193125 29.196875 
" style="fill: none; stroke: #000000; stroke-width: 0.8; stroke-linejoin: miter; stroke-linecap: square"/>
   </g>
   <g id="patch_104">
    <path d="M 492.458125 361.115625 
L 492.458125 29.196875 
" style="fill: none; stroke: #000000; stroke-width: 0.8; stroke-linejoin: miter; stroke-linecap: square"/>
   </g>
   <g id="patch_105">
    <path d="M 75.193125 361.115625 
L 492.458125 361.115625 
" style="fill: none; stroke: #000000; stroke-width: 0.8; stroke-linejoin: miter; stroke-linecap: square"/>
   </g>
   <g id="patch_106">
    <path d="M 75.193125 29.196875 
L 492.458125 29.196875 
" style="fill: none; stroke: #000000; stroke-width: 0.8; stroke-linejoin: miter; stroke-linecap: square"/>
   </g>
   <g id="text_15">
    <!-- CTR × CPC por slot -->
    <g transform="translate(188.094375 23.196875) scale(0.2 -0.2)">
     <defs>
      <path id="DejaVuSans-43" d="M 4122 4306 
L 4122 3641 
Q 3803 3938 3442 4084 
Q 3081 4231 2675 4231 
Q 1875 4231 1450 3742 
Q 1025 3253 1025 2328 
Q 1025 1406 1450 917 
Q 1875 428 2675 428 
Q 3081 428 3442 575 
Q 3803 722 4122 1019 
L 4122 359 
Q 3791 134 3420 21 
Q 3050 -91 2638 -91 
Q 1578 -91 968 557 
Q 359 1206 359 2328 
Q 359 3453 968 4101 
Q 1578 4750 2638 4750 
Q 3056 4750 3426 4639 
Q 3797 4528 4122 4306 
z
" transform="scale(0.015625)"/>
      <path id="DejaVuSans-54" d="M -19 4666 
L 3928 4666 
L 3928 4134 
L 2272 4134 
L 2272 0 
L 1638 0 
L 1638 4134 
L -19 4134 
L -19 4666 
z
" transform="scale(0.015625)"/>
      <path id="DejaVuSans-52" d="M 2841 2188 
Q 3044 2119 3236 1894 
Q 3428 1669 3622 1275 
L 4263 0 
L 3584 0 
L 2988 1197 
Q 2756 1666 2539 1819 
Q 2322 1972 1947 1972 
L 1259 1972 
L 1259 0 
L 628 0 
L 628 4666 
L 2053 4666 
Q 2853 4666 3247 4331 
Q 3641 3997 3641 3322 
Q 3641 2881 3436 2590 
Q 3231 2300 2841 2188 
z
M 1259 4147 
L 1259 2491 
L 2053 2491 
Q 2509 2491 2742 2702 
Q 2975 2913 2975 3322 
Q 2975 3731 2742 3939 
Q 2509 4147 2053 4147 
L 1259 4147 
z
" transform="scale(0.015625)"/>
      <path id="DejaVuSans-d7" d="M 4488 3438 
L 3059 2003 
L 4488 575 
L 4116 197 
L 2681 1631 
L 1247 197 
L 878 575 
L 2303 2003 
L 878 3438 
L 1247 3816 
L 2681 2381 
L 4116 3816 
L 4488 3438 
z
" transform="scale(0.015625)"/>
      <path id="DejaVuSans-50" d="M 1259 4147 
L 1259 2394 
L 2053 2394 
Q 2494 2394 2734 2622 
Q 2975 2850 2975 3272 
Q 2975 3691 2734 3919 
Q 2494 4147 2053 4147 
L 1259 4147 
z
M 628 4666 
L 2053 4666 
Q 2838 4666 3239 4311 
Q 3641 3956 3641 3272 
Q 3641 2581 3239 2228 
Q 2838 1875 2053 1875 
L 1259 1875 
L 1259 0 
L 628 0 
L 628 4666 
z
" transform="scale(0.015625)"/>
     </defs>
     <use xlink:href="#DejaVuSans-43"/>
     <use xlink:href="#DejaVuSans-54" transform="translate(69.824219 0)"/>
     <use xlink:href="#DejaVuSans-52" transform="translate(130.908203 0)"/>
     <use xlink:href="#DejaVuSans-20" transform="translate(200.390625 0)"/>
     <use xlink:href="#DejaVuSans-d7" transform="translate(232.177734 0)"/>
     <use xlink:href="#DejaVuSans-20" transform="translate(315.966797 0)"/>
     <use xlink:href="#DejaVuSans-43" transform="translate(347.753906 0)"/>
     <use xlink:href="#DejaVuSans-50" transform="translate(417.578125 0)"/>
     <use xlink:href="#DejaVuSans-43" transform="translate(477.880859 0)"/>
     <use xlink:href="#DejaVuSans-20" transform="translate(547.705078 0)"/>
     <use xlink:href="#DejaVuSans-70" transform="translate(579.492188 0)"/>
     <use xlink:href="#DejaVuSans-6f" transform="translate(642.96875 0)"/>
     <use xlink:href="#DejaVuSans-72" transform="translate(704.150391 0)"/>
     <use xlink:href="#DejaVuSans-20" transform="translate(745.263672 0)"/>
     <use xlink:href="#DejaVuSans-73" transform="translate(777.050781 0)"/>
     <use xlink:href="#DejaVuSans-6c" transform="translate(829.150391 0)"/>
     <use xlink:href="#DejaVuSans-6f" transform="translate(856.933594 0)"/>
     <use xlink:href="#DejaVuSans-74" transform="translate(918.115234 0)"/>
    </g>
   </g>
   <g id="legend_1">
    <g id="patch_107">
     <path d="M 83.593125 74.024375 
L 250.11 74.024375 
Q 252.51 74.024375 252.51 71.624375 
L 252.51 37.596875 
Q 252.51 35.196875 250.11 35.196875 
L 83.593125 35.196875 
Q 81.193125 35.196875 81.193125 37.596875 
L 81.193125 71.624375 
Q 81.193125 74.024375 83.593125 74.024375 
z
" style="fill: #ffffff; opacity: 0.8; stroke: #cccccc; stroke-linejoin: miter"/>
    </g>
    <g id="patch_108">
     <path d="M 85.993125 49.115 
L 109.993125 49.115 
L 109.993125 40.715 
L 85.993125 40.715 
z
" style="fill: #2196f3; opacity: 0.7"/>
    </g>
    <g id="text_16">
     <!-- Cliente A (CPC=$2.0) -->
     <g transform="translate(119.593125 49.115) scale(0.12 -0.12)">
      <defs>
       <path id="DejaVuSans-41" d="M 2188 4044 
L 1331 1722 
L 3047 1722 
L 2188 4044 
z
M 1831 4666 
L 2547 4666 
L 4325 0 
L 3669 0 
L 3244 1197 
L 1141 1197 
L 716 0 
L 50 0 
L 1831 4666 
z
" transform="scale(0.015625)"/>
       <path id="DejaVuSans-3d" d="M 678 2906 
L 4684 2906 
L 4684 2381 
L 678 2381 
L 678 2906 
z
M 678 1631 
L 4684 1631 
L 4684 1100 
L 678 1100 
L 678 1631 
z
" transform="scale(0.015625)"/>
      </defs>
      <use xlink:href="#DejaVuSans-43"/>
      <use xlink:href="#DejaVuSans-6c" transform="translate(69.824219 0)"/>
      <use xlink:href="#DejaVuSans-69" transform="translate(97.607422 0)"/>
      <use xlink:href="#DejaVuSans-65" transform="translate(125.390625 0)"/>
      <use xlink:href="#DejaVuSans-6e" transform="translate(186.914062 0)"/>
      <use xlink:href="#DejaVuSans-74" transform="translate(250.292969 0)"/>
      <use xlink:href="#DejaVuSans-65" transform="translate(289.501953 0)"/>
      <use xlink:href="#DejaVuSans-20" transform="translate(351.025391 0)"/>
      <use xlink:href="#DejaVuSans-41" transform="translate(382.8125 0)"/>
      <use xlink:href="#DejaVuSans-20" transform="translate(451.220703 0)"/>
      <use xlink:href="#DejaVuSans-28" transform="translate(483.007812 0)"/>
      <use xlink:href="#DejaVuSans-43" transform="translate(522.021484 0)"/>
      <use xlink:href="#DejaVuSans-50" transform="translate(591.845703 0)"/>
      <use xlink:href="#DejaVuSans-43" transform="translate(652.148438 0)"/>
      <use xlink:href="#DejaVuSans-3d" transform="translate(721.972656 0)"/>
      <use xlink:href="#DejaVuSans-24" transform="translate(805.761719 0)"/>
      <use xlink:href="#DejaVuSans-32" transform="translate(869.384766 0)"/>
      <use xlink:href="#DejaVuSans-2e" transform="translate(933.007812 0)"/>
      <use xlink:href="#DejaVuSans-30" transform="translate(964.794922 0)"/>
      <use xlink:href="#DejaVuSans-29" transform="translate(1028.417969 0)"/>
     </g>
    </g>
    <g id="patch_109">
     <path d="M 85.993125 66.72875 
L 109.993125 66.72875 
L 109.993125 58.32875 
L 85.993125 58.32875 
z
" style="fill: #f44336; opacity: 0.7"/>
    </g>
    <g id="text_17">
     <!-- Cliente B (CPC=$0.8) -->
     <g transform="translate(119.593125 66.72875) scale(0.12 -0.12)">
      <defs>
       <path id="DejaVuSans-42" d="M 1259 2228 
L 1259 519 
L 2272 519 
Q 2781 519 3026 730 
Q 3272 941 3272 1375 
Q 3272 1813 3026 2020 
Q 2781 2228 2272 2228 
L 1259 2228 
z
M 1259 4147 
L 1259 2741 
L 2194 2741 
Q 2656 2741 2882 2914 
Q 3109 3088 3109 3444 
Q 3109 3797 2882 3972 
Q 2656 4147 2194 4147 
L 1259 4147 
z
M 628 4666 
L 2241 4666 
Q 2963 4666 3353 4366 
Q 3744 4066 3744 3513 
Q 3744 3084 3544 2831 
Q 3344 2578 2956 2516 
Q 3422 2416 3680 2098 
Q 3938 1781 3938 1306 
Q 3938 681 3513 340 
Q 3088 0 2303 0 
L 628 0 
L 628 4666 
z
" transform="scale(0.015625)"/>
       <path id="DejaVuSans-38" d="M 2034 2216 
Q 1584 2216 1326 1975 
Q 1069 1734 1069 1313 
Q 1069 891 1326 650 
Q 1584 409 2034 409 
Q 2484 409 2743 651 
Q 3003 894 3003 1313 
Q 3003 1734 2745 1975 
Q 2488 2216 2034 2216 
z
M 1403 2484 
Q 997 2584 770 2862 
Q 544 3141 544 3541 
Q 544 4100 942 4425 
Q 1341 4750 2034 4750 
Q 2731 4750 3128 4425 
Q 3525 4100 3525 3541 
Q 3525 3141 3298 2862 
Q 3072 2584 2669 2484 
Q 3125 2378 3379 2068 
Q 3634 1759 3634 1313 
Q 3634 634 3220 271 
Q 2806 -91 2034 -91 
Q 1263 -91 848 271 
Q 434 634 434 1313 
Q 434 1759 690 2068 
Q 947 2378 1403 2484 
z
M 1172 3481 
Q 1172 3119 1398 2916 
Q 1625 2713 2034 2713 
Q 2441 2713 2670 2916 
Q 2900 3119 2900 3481 
Q 2900 3844 2670 4047 
Q 2441 4250 2034 4250 
Q 1625 4250 1398 4047 
Q 1172 3844 1172 3481 
z
" transform="scale(0.015625)"/>
      </defs>
      <use xlink:href="#DejaVuSans-43"/>
      <use xlink:href="#DejaVuSans-6c" transform="translate(69.824219 0)"/>
      <use xlink:href="#DejaVuSans-69" transform="translate(97.607422 0)"/>
      <use xlink:href="#DejaVuSans-65" transform="translate(125.390625 0)"/>
      <use xlink:href="#DejaVuSans-6e" transform="translate(186.914062 0)"/>
      <use xlink:href="#DejaVuSans-74" transform="translate(250.292969 0)"/>
      <use xlink:href="#DejaVuSans-65" transform="translate(289.501953 0)"/>
      <use xlink:href="#DejaVuSans-20" transform="translate(351.025391 0)"/>
      <use xlink:href="#DejaVuSans-42" transform="translate(382.8125 0)"/>
      <use xlink:href="#DejaVuSans-20" transform="translate(451.416016 0)"/>
      <use xlink:href="#DejaVuSans-28" transform="translate(483.203125 0)"/>
      <use xlink:href="#DejaVuSans-43" transform="translate(522.216797 0)"/>
      <use xlink:href="#DejaVuSans-50" transform="translate(592.041016 0)"/>
      <use xlink:href="#DejaVuSans-43" transform="translate(652.34375 0)"/>
      <use xlink:href="#DejaVuSans-3d" transform="translate(722.167969 0)"/>
      <use xlink:href="#DejaVuSans-24" transform="translate(805.957031 0)"/>
      <use xlink:href="#DejaVuSans-30" transform="translate(869.580078 0)"/>
      <use xlink:href="#DejaVuSans-2e" transform="translate(933.203125 0)"/>
      <use xlink:href="#DejaVuSans-38" transform="translate(964.990234 0)"/>
      <use xlink:href="#DejaVuSans-29" transform="translate(1028.613281 0)"/>
     </g>
    </g>
   </g>
  </g>
  <g id="axes_2">
   <g id="patch_110">
    <path d="M 563.488125 361.115625 
L 980.753125 361.115625 
L 980.753125 29.196875 
L 563.488125 29.196875 
z
" style="fill: #ffffff"/>
   </g>
   <g id="patch_111">
    <path d="M 582.454716 361.115625 
L 588.5484 361.115625 
L 588.5484 175.927455 
L 582.454716 175.927455 
z
" clip-path="url(#pd6423fa84a)" style="fill: #f44336; opacity: 0.7"/>
   </g>
   <g id="patch_112">
    <path d="M 590.071821 361.115625 
L 596.165505 361.115625 
L 596.165505 183.01669 
L 590.071821 183.01669 
z
" clip-path="url(#pd6423fa84a)" style="fill: #f44336; opacity: 0.7"/>
   </g>
   <g id="patch_113">
    <path d="M 597.688925 361.115625 
L 603.782609 361.115625 
L 603.782609 224.954278 
L 597.688925 224.954278 
z
" clip-path="url(#pd6423fa84a)" style="fill: #f44336; opacity: 0.7"/>
   </g>
   <g id="patch_114">
    <path d="M 605.30603 361.115625 
L 611.399714 361.115625 
L 611.399714 258.570996 
L 605.30603 258.570996 
z
" clip-path="url(#pd6423fa84a)" style="fill: #f44336; opacity: 0.7"/>
   </g>
   <g id="patch_115">
    <path d="M 612.923135 361.115625 
L 619.016819 361.115625 
L 619.016819 182.6147 
L 612.923135 182.6147 
z
" clip-path="url(#pd6423fa84a)" style="fill: #f44336; opacity: 0.7"/>
   </g>
   <g id="patch_116">
    <path d="M 620.54024 361.115625 
L 626.633924 361.115625 
L 626.633924 242.304679 
L 620.54024 242.304679 
z
" clip-path="url(#pd6423fa84a)" style="fill: #f44336; opacity: 0.7"/>
   </g>
   <g id="patch_117">
    <path d="M 628.157345 361.115625 
L 634.251028 361.115625 
L 634.251028 242.710101 
L 628.157345 242.710101 
z
" clip-path="url(#pd6423fa84a)" style="fill: #f44336; opacity: 0.7"/>
   </g>
   <g id="patch_118">
    <path d="M 635.774449 361.115625 
L 641.868133 361.115625 
L 641.868133 140.07636 
L 635.774449 140.07636 
z
" clip-path="url(#pd6423fa84a)" style="fill: #f44336; opacity: 0.7"/>
   </g>
   <g id="patch_119">
    <path d="M 643.391554 361.115625 
L 649.485238 361.115625 
L 649.485238 208.628596 
L 643.391554 208.628596 
z
" clip-path="url(#pd6423fa84a)" style="fill: #f44336; opacity: 0.7"/>
   </g>
   <g id="patch_120">
    <path d="M 651.008659 361.115625 
L 657.102343 361.115625 
L 657.102343 271.156714 
L 651.008659 271.156714 
z
" clip-path="url(#pd6423fa84a)" style="fill: #f44336; opacity: 0.7"/>
   </g>
   <g id="patch_121">
    <path d="M 658.625764 361.115625 
L 664.719448 361.115625 
L 664.719448 244.786437 
L 658.625764 244.786437 
z
" clip-path="url(#pd6423fa84a)" style="fill: #f44336; opacity: 0.7"/>
   </g>
   <g id="patch_122">
    <path d="M 666.242869 361.115625 
L 672.336552 361.115625 
L 672.336552 246.195875 
L 666.242869 246.195875 
z
" clip-path="url(#pd6423fa84a)" style="fill: #f44336; opacity: 0.7"/>
   </g>
   <g id="patch_123">
    <path d="M 673.859973 361.115625 
L 679.953657 361.115625 
L 679.953657 285.451786 
L 673.859973 285.451786 
z
" clip-path="url(#pd6423fa84a)" style="fill: #f44336; opacity: 0.7"/>
   </g>
   <g id="patch_124">
    <path d="M 681.477078 361.115625 
L 687.570762 361.115625 
L 687.570762 245.948678 
L 681.477078 245.948678 
z
" clip-path="url(#pd6423fa84a)" style="fill: #f44336; opacity: 0.7"/>
   </g>
   <g id="patch_125">
    <path d="M 689.094183 361.115625 
L 695.187867 361.115625 
L 695.187867 251.191262 
L 689.094183 251.191262 
z
" clip-path="url(#pd6423fa84a)" style="fill: #f44336; opacity: 0.7"/>
   </g>
   <g id="patch_126">
    <path d="M 696.711288 361.115625 
L 702.804971 361.115625 
L 702.804971 266.594078 
L 696.711288 266.594078 
z
" clip-path="url(#pd6423fa84a)" style="fill: #2196f3; opacity: 0.7"/>
   </g>
   <g id="patch_127">
    <path d="M 704.328392 361.115625 
L 710.422076 361.115625 
L 710.422076 283.01794 
L 704.328392 283.01794 
z
" clip-path="url(#pd6423fa84a)" style="fill: #2196f3; opacity: 0.7"/>
   </g>
   <g id="patch_128">
    <path d="M 711.945497 361.115625 
L 718.039181 361.115625 
L 718.039181 261.124265 
L 711.945497 261.124265 
z
" clip-path="url(#pd6423fa84a)" style="fill: #2196f3; opacity: 0.7"/>
   </g>
   <g id="patch_129">
    <path d="M 719.562602 361.115625 
L 725.656286 361.115625 
L 725.656286 294.905599 
L 719.562602 294.905599 
z
" clip-path="url(#pd6423fa84a)" style="fill: #2196f3; opacity: 0.7"/>
   </g>
   <g id="patch_130">
    <path d="M 727.179707 361.115625 
L 733.273391 361.115625 
L 733.273391 252.1698 
L 727.179707 252.1698 
z
" clip-path="url(#pd6423fa84a)" style="fill: #2196f3; opacity: 0.7"/>
   </g>
   <g id="patch_131">
    <path d="M 734.796812 361.115625 
L 740.890495 361.115625 
L 740.890495 270.736649 
L 734.796812 270.736649 
z
" clip-path="url(#pd6423fa84a)" style="fill: #2196f3; opacity: 0.7"/>
   </g>
   <g id="patch_132">
    <path d="M 742.413916 361.115625 
L 748.5076 361.115625 
L 748.5076 232.060844 
L 742.413916 232.060844 
z
" clip-path="url(#pd6423fa84a)" style="fill: #2196f3; opacity: 0.7"/>
   </g>
   <g id="patch_133">
    <path d="M 750.031021 361.115625 
L 756.124705 361.115625 
L 756.124705 238.452034 
L 750.031021 238.452034 
z
" clip-path="url(#pd6423fa84a)" style="fill: #2196f3; opacity: 0.7"/>
   </g>
   <g id="patch_134">
    <path d="M 757.648126 361.115625 
L 763.74181 361.115625 
L 763.74181 275.119817 
L 757.648126 275.119817 
z
" clip-path="url(#pd6423fa84a)" style="fill: #2196f3; opacity: 0.7"/>
   </g>
   <g id="patch_135">
    <path d="M 765.265231 361.115625 
L 771.358915 361.115625 
L 771.358915 266.596653 
L 765.265231 266.596653 
z
" clip-path="url(#pd6423fa84a)" style="fill: #2196f3; opacity: 0.7"/>
   </g>
   <g id="patch_136">
    <path d="M 772.882335 361.115625 
L 778.976019 361.115625 
L 778.976019 279.525542 
L 772.882335 279.525542 
z
" clip-path="url(#pd6423fa84a)" style="fill: #2196f3; opacity: 0.7"/>
   </g>
   <g id="patch_137">
    <path d="M 780.49944 361.115625 
L 786.593124 361.115625 
L 786.593124 228.262757 
L 780.49944 228.262757 
z
" clip-path="url(#pd6423fa84a)" style="fill: #2196f3; opacity: 0.7"/>
   </g>
   <g id="patch_138">
    <path d="M 788.116545 361.115625 
L 794.210229 361.115625 
L 794.210229 249.167798 
L 788.116545 249.167798 
z
" clip-path="url(#pd6423fa84a)" style="fill: #2196f3; opacity: 0.7"/>
   </g>
   <g id="patch_139">
    <path d="M 795.73365 361.115625 
L 801.827334 361.115625 
L 801.827334 195.654945 
L 795.73365 195.654945 
z
" clip-path="url(#pd6423fa84a)" style="fill: #2196f3; opacity: 0.7"/>
   </g>
   <g id="patch_140">
    <path d="M 803.350755 361.115625 
L 809.444438 361.115625 
L 809.444438 211.119973 
L 803.350755 211.119973 
z
" clip-path="url(#pd6423fa84a)" style="fill: #2196f3; opacity: 0.7"/>
   </g>
   <g id="patch_141">
    <path d="M 810.967859 361.115625 
L 817.061543 361.115625 
L 817.061543 255.89121 
L 810.967859 255.89121 
z
" clip-path="url(#pd6423fa84a)" style="fill: #2196f3; opacity: 0.7"/>
   </g>
   <g id="patch_142">
    <path d="M 818.584964 361.115625 
L 824.678648 361.115625 
L 824.678648 269.363243 
L 818.584964 269.363243 
z
" clip-path="url(#pd6423fa84a)" style="fill: #2196f3; opacity: 0.7"/>
   </g>
   <g id="patch_143">
    <path d="M 826.202069 361.115625 
L 832.295753 361.115625 
L 832.295753 170.78963 
L 826.202069 170.78963 
z
" clip-path="url(#pd6423fa84a)" style="fill: #2196f3; opacity: 0.7"/>
   </g>
   <g id="patch_144">
    <path d="M 833.819174 361.115625 
L 839.912858 361.115625 
L 839.912858 213.422955 
L 833.819174 213.422955 
z
" clip-path="url(#pd6423fa84a)" style="fill: #2196f3; opacity: 0.7"/>
   </g>
   <g id="patch_145">
    <path d="M 841.436279 361.115625 
L 847.529962 361.115625 
L 847.529962 187.118455 
L 841.436279 187.118455 
z
" clip-path="url(#pd6423fa84a)" style="fill: #2196f3; opacity: 0.7"/>
   </g>
   <g id="patch_146">
    <path d="M 849.053383 361.115625 
L 855.147067 361.115625 
L 855.147067 192.157252 
L 849.053383 192.157252 
z
" clip-path="url(#pd6423fa84a)" style="fill: #2196f3; opacity: 0.7"/>
   </g>
   <g id="patch_147">
    <path d="M 856.670488 361.115625 
L 862.764172 361.115625 
L 862.764172 182.684858 
L 856.670488 182.684858 
z
" clip-path="url(#pd6423fa84a)" style="fill: #2196f3; opacity: 0.7"/>
   </g>
   <g id="patch_148">
    <path d="M 864.287593 361.115625 
L 870.381277 361.115625 
L 870.381277 179.034241 
L 864.287593 179.034241 
z
" clip-path="url(#pd6423fa84a)" style="fill: #2196f3; opacity: 0.7"/>
   </g>
   <g id="patch_149">
    <path d="M 871.904698 361.115625 
L 877.998381 361.115625 
L 877.998381 168.364149 
L 871.904698 168.364149 
z
" clip-path="url(#pd6423fa84a)" style="fill: #2196f3; opacity: 0.7"/>
   </g>
   <g id="patch_150">
    <path d="M 879.521802 361.115625 
L 885.615486 361.115625 
L 885.615486 135.021318 
L 879.521802 135.021318 
z
" clip-path="url(#pd6423fa84a)" style="fill: #2196f3; opacity: 0.7"/>
   </g>
   <g id="patch_151">
    <path d="M 887.138907 361.115625 
L 893.232591 361.115625 
L 893.232591 207.708652 
L 887.138907 207.708652 
z
" clip-path="url(#pd6423fa84a)" style="fill: #2196f3; opacity: 0.7"/>
   </g>
   <g id="patch_152">
    <path d="M 894.756012 361.115625 
L 900.849696 361.115625 
L 900.849696 199.837174 
L 894.756012 199.837174 
z
" clip-path="url(#pd6423fa84a)" style="fill: #2196f3; opacity: 0.7"/>
   </g>
   <g id="patch_153">
    <path d="M 902.373117 361.115625 
L 908.466801 361.115625 
L 908.466801 215.18833 
L 902.373117 215.18833 
z
" clip-path="url(#pd6423fa84a)" style="fill: #2196f3; opacity: 0.7"/>
   </g>
   <g id="patch_154">
    <path d="M 909.990222 361.115625 
L 916.083905 361.115625 
L 916.083905 98.638669 
L 909.990222 98.638669 
z
" clip-path="url(#pd6423fa84a)" style="fill: #2196f3; opacity: 0.7"/>
   </g>
   <g id="patch_155">
    <path d="M 917.607326 361.115625 
L 923.70101 361.115625 
L 923.70101 134.726917 
L 917.607326 134.726917 
z
" clip-path="url(#pd6423fa84a)" style="fill: #2196f3; opacity: 0.7"/>
   </g>
   <g id="patch_156">
    <path d="M 925.224431 361.115625 
L 931.318115 361.115625 
L 931.318115 112.808041 
L 925.224431 112.808041 
z
" clip-path="url(#pd6423fa84a)" style="fill: #2196f3; opacity: 0.7"/>
   </g>
   <g id="patch_157">
    <path d="M 932.841536 361.115625 
L 938.93522 361.115625 
L 938.93522 179.554359 
L 932.841536 179.554359 
z
" clip-path="url(#pd6423fa84a)" style="fill: #2196f3; opacity: 0.7"/>
   </g>
   <g id="patch_158">
    <path d="M 940.458641 361.115625 
L 946.552325 361.115625 
L 946.552325 112.437814 
L 940.458641 112.437814 
z
" clip-path="url(#pd6423fa84a)" style="fill: #2196f3; opacity: 0.7"/>
   </g>
   <g id="patch_159">
    <path d="M 948.075745 361.115625 
L 954.169429 361.115625 
L 954.169429 101.151939 
L 948.075745 101.151939 
z
" clip-path="url(#pd6423fa84a)" style="fill: #2196f3; opacity: 0.7"/>
   </g>
   <g id="patch_160">
    <path d="M 955.69285 361.115625 
L 961.786534 361.115625 
L 961.786534 45.00253 
L 955.69285 45.00253 
z
" clip-path="url(#pd6423fa84a)" style="fill: #2196f3; opacity: 0.7"/>
   </g>
   <g id="matplotlib.axis_3">
    <g id="xtick_7">
     <g id="line2d_20">
      <g>
       <use xlink:href="#mff2992d033" x="585.501558" y="361.115625" style="stroke: #000000; stroke-width: 0.8"/>
      </g>
     </g>
     <g id="text_18">
      <!-- 0 -->
      <g transform="translate(580.411558 380.273125) scale(0.16 -0.16)">
       <use xlink:href="#DejaVuSans-30"/>
      </g>
     </g>
    </g>
    <g id="xtick_8">
     <g id="line2d_21">
      <g>
       <use xlink:href="#mff2992d033" x="661.672606" y="361.115625" style="stroke: #000000; stroke-width: 0.8"/>
      </g>
     </g>
     <g id="text_19">
      <!-- 10 -->
      <g transform="translate(651.492606 380.273125) scale(0.16 -0.16)">
       <use xlink:href="#DejaVuSans-31"/>
       <use xlink:href="#DejaVuSans-30" transform="translate(63.623047 0)"/>
      </g>
     </g>
    </g>
    <g id="xtick_9">
     <g id="line2d_22">
      <g>
       <use xlink:href="#mff2992d033" x="737.843653" y="361.115625" style="stroke: #000000; stroke-width: 0.8"/>
      </g>
     </g>
     <g id="text_20">
      <!-- 20 -->
      <g transform="translate(727.663653 380.273125) scale(0.16 -0.16)">
       <use xlink:href="#DejaVuSans-32"/>
       <use xlink:href="#DejaVuSans-30" transform="translate(63.623047 0)"/>
      </g>
     </g>
    </g>
    <g id="xtick_10">
     <g id="line2d_23">
      <g>
       <use xlink:href="#mff2992d033" x="814.014701" y="361.115625" style="stroke: #000000; stroke-width: 0.8"/>
      </g>
     </g>
     <g id="text_21">
      <!-- 30 -->
      <g transform="translate(803.834701 380.273125) scale(0.16 -0.16)">
       <use xlink:href="#DejaVuSans-33"/>
       <use xlink:href="#DejaVuSans-30" transform="translate(63.623047 0)"/>
      </g>
     </g>
    </g>
    <g id="xtick_11">
     <g id="line2d_24">
      <g>
       <use xlink:href="#mff2992d033" x="890.185749" y="361.115625" style="stroke: #000000; stroke-width: 0.8"/>
      </g>
     </g>
     <g id="text_22">
      <!-- 40 -->
      <g transform="translate(880.005749 380.273125) scale(0.16 -0.16)">
       <use xlink:href="#DejaVuSans-34"/>
       <use xlink:href="#DejaVuSans-30" transform="translate(63.623047 0)"/>
      </g>
     </g>
    </g>
    <g id="xtick_12">
     <g id="line2d_25">
      <g>
       <use xlink:href="#mff2992d033" x="966.356797" y="361.115625" style="stroke: #000000; stroke-width: 0.8"/>
      </g>
     </g>
     <g id="text_23">
      <!-- 50 -->
      <g transform="translate(956.176797 380.273125) scale(0.16 -0.16)">
       <use xlink:href="#DejaVuSans-35"/>
       <use xlink:href="#DejaVuSans-30" transform="translate(63.623047 0)"/>
      </g>
     </g>
    </g>
    <g id="text_24">
     <!-- Slot de inventario -->
     <g transform="translate(692.376406 401.277812) scale(0.18 -0.18)">
      <use xlink:href="#DejaVuSans-53"/>
      <use xlink:href="#DejaVuSans-6c" transform="translate(63.476562 0)"/>
      <use xlink:href="#DejaVuSans-6f" transform="translate(91.259766 0)"/>
      <use xlink:href="#DejaVuSans-74" transform="translate(152.441406 0)"/>
      <use xlink:href="#DejaVuSans-20" transform="translate(191.650391 0)"/>
      <use xlink:href="#DejaVuSans-64" transform="translate(223.4375 0)"/>
      <use xlink:href="#DejaVuSans-65" transform="translate(286.914062 0)"/>
      <use xlink:href="#DejaVuSans-20" transform="translate(348.4375 0)"/>
      <use xlink:href="#DejaVuSans-69" transform="translate(380.224609 0)"/>
      <use xlink:href="#DejaVuSans-6e" transform="translate(408.007812 0)"/>
      <use xlink:href="#DejaVuSans-76" transform="translate(471.386719 0)"/>
      <use xlink:href="#DejaVuSans-65" transform="translate(530.566406 0)"/>
      <use xlink:href="#DejaVuSans-6e" transform="translate(592.089844 0)"/>
      <use xlink:href="#DejaVuSans-74" transform="translate(655.46875 0)"/>
      <use xlink:href="#DejaVuSans-61" transform="translate(694.677734 0)"/>
      <use xlink:href="#DejaVuSans-72" transform="translate(755.957031 0)"/>
      <use xlink:href="#DejaVuSans-69" transform="translate(797.070312 0)"/>
      <use xlink:href="#DejaVuSans-6f" transform="translate(824.853516 0)"/>
     </g>
    </g>
   </g>
   <g id="matplotlib.axis_4">
    <g id="ytick_7">
     <g id="line2d_26">
      <path d="M 563.488125 361.115625 
L 980.753125 361.115625 
" clip-path="url(#pd6423fa84a)" style="fill: none; stroke: #b0b0b0; stroke-opacity: 0.3; stroke-width: 0.8; stroke-linecap: square"/>
     </g>
     <g id="line2d_27">
      <g>
       <use xlink:href="#m2597d909b5" x="563.488125" y="361.115625" style="stroke: #000000; stroke-width: 0.8"/>
      </g>
     </g>
     <g id="text_25">
      <!-- 0.0 -->
      <g transform="translate(531.043125 367.194375) scale(0.16 -0.16)">
       <use xlink:href="#DejaVuSans-30"/>
       <use xlink:href="#DejaVuSans-2e" transform="translate(63.623047 0)"/>
       <use xlink:href="#DejaVuSans-30" transform="translate(95.410156 0)"/>
      </g>
     </g>
    </g>
    <g id="ytick_8">
     <g id="line2d_28">
      <path d="M 563.488125 313.081142 
L 980.753125 313.081142 
" clip-path="url(#pd6423fa84a)" style="fill: none; stroke: #b0b0b0; stroke-opacity: 0.3; stroke-width: 0.8; stroke-linecap: square"/>
     </g>
     <g id="line2d_29">
      <g>
       <use xlink:href="#m2597d909b5" x="563.488125" y="313.081142" style="stroke: #000000; stroke-width: 0.8"/>
      </g>
     </g>
     <g id="text_26">
      <!-- 0.1 -->
      <g transform="translate(531.043125 319.159892) scale(0.16 -0.16)">
       <use xlink:href="#DejaVuSans-30"/>
       <use xlink:href="#DejaVuSans-2e" transform="translate(63.623047 0)"/>
       <use xlink:href="#DejaVuSans-31" transform="translate(95.410156 0)"/>
      </g>
     </g>
    </g>
    <g id="ytick_9">
     <g id="line2d_30">
      <path d="M 563.488125 265.046658 
L 980.753125 265.046658 
" clip-path="url(#pd6423fa84a)" style="fill: none; stroke: #b0b0b0; stroke-opacity: 0.3; stroke-width: 0.8; stroke-linecap: square"/>
     </g>
     <g id="line2d_31">
      <g>
       <use xlink:href="#m2597d909b5" x="563.488125" y="265.046658" style="stroke: #000000; stroke-width: 0.8"/>
      </g>
     </g>
     <g id="text_27">
      <!-- 0.2 -->
      <g transform="translate(531.043125 271.125408) scale(0.16 -0.16)">
       <use xlink:href="#DejaVuSans-30"/>
       <use xlink:href="#DejaVuSans-2e" transform="translate(63.623047 0)"/>
       <use xlink:href="#DejaVuSans-32" transform="translate(95.410156 0)"/>
      </g>
     </g>
    </g>
    <g id="ytick_10">
     <g id="line2d_32">
      <path d="M 563.488125 217.012175 
L 980.753125 217.012175 
" clip-path="url(#pd6423fa84a)" style="fill: none; stroke: #b0b0b0; stroke-opacity: 0.3; stroke-width: 0.8; stroke-linecap: square"/>
     </g>
     <g id="line2d_33">
      <g>
       <use xlink:href="#m2597d909b5" x="563.488125" y="217.012175" style="stroke: #000000; stroke-width: 0.8"/>
      </g>
     </g>
     <g id="text_28">
      <!-- 0.3 -->
      <g transform="translate(531.043125 223.090925) scale(0.16 -0.16)">
       <use xlink:href="#DejaVuSans-30"/>
       <use xlink:href="#DejaVuSans-2e" transform="translate(63.623047 0)"/>
       <use xlink:href="#DejaVuSans-33" transform="translate(95.410156 0)"/>
      </g>
     </g>
    </g>
    <g id="ytick_11">
     <g id="line2d_34">
      <path d="M 563.488125 168.977692 
L 980.753125 168.977692 
" clip-path="url(#pd6423fa84a)" style="fill: none; stroke: #b0b0b0; stroke-opacity: 0.3; stroke-width: 0.8; stroke-linecap: square"/>
     </g>
     <g id="line2d_35">
      <g>
       <use xlink:href="#m2597d909b5" x="563.488125" y="168.977692" style="stroke: #000000; stroke-width: 0.8"/>
      </g>
     </g>
     <g id="text_29">
      <!-- 0.4 -->
      <g transform="translate(531.043125 175.056442) scale(0.16 -0.16)">
       <use xlink:href="#DejaVuSans-30"/>
       <use xlink:href="#DejaVuSans-2e" transform="translate(63.623047 0)"/>
       <use xlink:href="#DejaVuSans-34" transform="translate(95.410156 0)"/>
      </g>
     </g>
    </g>
    <g id="ytick_12">
     <g id="line2d_36">
      <path d="M 563.488125 120.943209 
L 980.753125 120.943209 
" clip-path="url(#pd6423fa84a)" style="fill: none; stroke: #b0b0b0; stroke-opacity: 0.3; stroke-width: 0.8; stroke-linecap: square"/>
     </g>
     <g id="line2d_37">
      <g>
       <use xlink:href="#m2597d909b5" x="563.488125" y="120.943209" style="stroke: #000000; stroke-width: 0.8"/>
      </g>
     </g>
     <g id="text_30">
      <!-- 0.5 -->
      <g transform="translate(531.043125 127.021959) scale(0.16 -0.16)">
       <use xlink:href="#DejaVuSans-30"/>
       <use xlink:href="#DejaVuSans-2e" transform="translate(63.623047 0)"/>
       <use xlink:href="#DejaVuSans-35" transform="translate(95.410156 0)"/>
      </g>
     </g>
    </g>
    <g id="ytick_13">
     <g id="line2d_38">
      <path d="M 563.488125 72.908725 
L 980.753125 72.908725 
" clip-path="url(#pd6423fa84a)" style="fill: none; stroke: #b0b0b0; stroke-opacity: 0.3; stroke-width: 0.8; stroke-linecap: square"/>
     </g>
     <g id="line2d_39">
      <g>
       <use xlink:href="#m2597d909b5" x="563.488125" y="72.908725" style="stroke: #000000; stroke-width: 0.8"/>
      </g>
     </g>
     <g id="text_31">
      <!-- 0.6 -->
      <g transform="translate(531.043125 78.987475) scale(0.16 -0.16)">
       <use xlink:href="#DejaVuSans-30"/>
       <use xlink:href="#DejaVuSans-2e" transform="translate(63.623047 0)"/>
       <use xlink:href="#DejaVuSans-36" transform="translate(95.410156 0)"/>
      </g>
     </g>
    </g>
    <g id="text_32">
     <!-- Valor del slot asignado ($) -->
     <g transform="translate(523.299687 312.860781) rotate(-90) scale(0.18 -0.18)">
      <defs>
       <path id="DejaVuSans-67" d="M 2906 1791 
Q 2906 2416 2648 2759 
Q 2391 3103 1925 3103 
Q 1463 3103 1205 2759 
Q 947 2416 947 1791 
Q 947 1169 1205 825 
Q 1463 481 1925 481 
Q 2391 481 2648 825 
Q 2906 1169 2906 1791 
z
M 3481 434 
Q 3481 -459 3084 -895 
Q 2688 -1331 1869 -1331 
Q 1566 -1331 1297 -1286 
Q 1028 -1241 775 -1147 
L 775 -588 
Q 1028 -725 1275 -790 
Q 1522 -856 1778 -856 
Q 2344 -856 2625 -561 
Q 2906 -266 2906 331 
L 2906 616 
Q 2728 306 2450 153 
Q 2172 0 1784 0 
Q 1141 0 747 490 
Q 353 981 353 1791 
Q 353 2603 747 3093 
Q 1141 3584 1784 3584 
Q 2172 3584 2450 3431 
Q 2728 3278 2906 2969 
L 2906 3500 
L 3481 3500 
L 3481 434 
z
" transform="scale(0.015625)"/>
      </defs>
      <use xlink:href="#DejaVuSans-56"/>
      <use xlink:href="#DejaVuSans-61" transform="translate(60.658203 0)"/>
      <use xlink:href="#DejaVuSans-6c" transform="translate(121.9375 0)"/>
      <use xlink:href="#DejaVuSans-6f" transform="translate(149.720703 0)"/>
      <use xlink:href="#DejaVuSans-72" transform="translate(210.902344 0)"/>
      <use xlink:href="#DejaVuSans-20" transform="translate(252.015625 0)"/>
      <use xlink:href="#DejaVuSans-64" transform="translate(283.802734 0)"/>
      <use xlink:href="#DejaVuSans-65" transform="translate(347.279297 0)"/>
      <use xlink:href="#DejaVuSans-6c" transform="translate(408.802734 0)"/>
      <use xlink:href="#DejaVuSans-20" transform="translate(436.585938 0)"/>
      <use xlink:href="#DejaVuSans-73" transform="translate(468.373047 0)"/>
      <use xlink:href="#DejaVuSans-6c" transform="translate(520.472656 0)"/>
      <use xlink:href="#DejaVuSans-6f" transform="translate(548.255859 0)"/>
      <use xlink:href="#DejaVuSans-74" transform="translate(609.4375 0)"/>
      <use xlink:href="#DejaVuSans-20" transform="translate(648.646484 0)"/>
      <use xlink:href="#DejaVuSans-61" transform="translate(680.433594 0)"/>
      <use xlink:href="#DejaVuSans-73" transform="translate(741.712891 0)"/>
      <use xlink:href="#DejaVuSans-69" transform="translate(793.8125 0)"/>
      <use xlink:href="#DejaVuSans-67" transform="translate(821.595703 0)"/>
      <use xlink:href="#DejaVuSans-6e" transform="translate(885.072266 0)"/>
      <use xlink:href="#DejaVuSans-61" transform="translate(948.451172 0)"/>
      <use xlink:href="#DejaVuSans-64" transform="translate(1009.730469 0)"/>
      <use xlink:href="#DejaVuSans-6f" transform="translate(1073.207031 0)"/>
      <use xlink:href="#DejaVuSans-20" transform="translate(1134.388672 0)"/>
      <use xlink:href="#DejaVuSans-28" transform="translate(1166.175781 0)"/>
      <use xlink:href="#DejaVuSans-24" transform="translate(1205.189453 0)"/>
      <use xlink:href="#DejaVuSans-29" transform="translate(1268.8125 0)"/>
     </g>
    </g>
   </g>
   <g id="patch_161">
    <path d="M 563.488125 361.115625 
L 563.488125 29.196875 
" style="fill: none; stroke: #000000; stroke-width: 0.8; stroke-linejoin: miter; stroke-linecap: square"/>
   </g>
   <g id="patch_162">
    <path d="M 980.753125 361.115625 
L 980.753125 29.196875 
" style="fill: none; stroke: #000000; stroke-width: 0.8; stroke-linejoin: miter; stroke-linecap: square"/>
   </g>
   <g id="patch_163">
    <path d="M 563.488125 361.115625 
L 980.753125 361.115625 
" style="fill: none; stroke: #000000; stroke-width: 0.8; stroke-linejoin: miter; stroke-linecap: square"/>
   </g>
   <g id="patch_164">
    <path d="M 563.488125 29.196875 
L 980.753125 29.196875 
" style="fill: none; stroke: #000000; stroke-width: 0.8; stroke-linejoin: miter; stroke-linecap: square"/>
   </g>
   <g id="text_33">
    <g id="patch_165">
     <path d="M 675.637266 85.588281 
L 868.603984 85.588281 
Q 872.503984 85.588281 872.503984 81.688281 
L 872.503984 54.549562 
Q 872.503984 50.649562 868.603984 50.649562 
L 675.637266 50.649562 
Q 671.737266 50.649562 671.737266 54.549562 
L 671.737266 81.688281 
Q 671.737266 85.588281 675.637266 85.588281 
z
" style="fill: #fff9c4; opacity: 0.9; stroke: #000000; stroke-linejoin: miter"/>
    </g>
    <!-- A domina 35/50 slots -->
    <g transform="translate(703.297812 64.427531) scale(0.13 -0.13)">
     <defs>
      <path id="DejaVuSans-2f" d="M 1625 4666 
L 2156 4666 
L 531 -594 
L 0 -594 
L 1625 4666 
z
" transform="scale(0.015625)"/>
     </defs>
     <use xlink:href="#DejaVuSans-41"/>
     <use xlink:href="#DejaVuSans-20" transform="translate(68.408203 0)"/>
     <use xlink:href="#DejaVuSans-64" transform="translate(100.195312 0)"/>
     <use xlink:href="#DejaVuSans-6f" transform="translate(163.671875 0)"/>
     <use xlink:href="#DejaVuSans-6d" transform="translate(224.853516 0)"/>
     <use xlink:href="#DejaVuSans-69" transform="translate(322.265625 0)"/>
     <use xlink:href="#DejaVuSans-6e" transform="translate(350.048828 0)"/>
     <use xlink:href="#DejaVuSans-61" transform="translate(413.427734 0)"/>
     <use xlink:href="#DejaVuSans-20" transform="translate(474.707031 0)"/>
     <use xlink:href="#DejaVuSans-33" transform="translate(506.494141 0)"/>
     <use xlink:href="#DejaVuSans-35" transform="translate(570.117188 0)"/>
     <use xlink:href="#DejaVuSans-2f" transform="translate(633.740234 0)"/>
     <use xlink:href="#DejaVuSans-35" transform="translate(667.431641 0)"/>
     <use xlink:href="#DejaVuSans-30" transform="translate(731.054688 0)"/>
     <use xlink:href="#DejaVuSans-20" transform="translate(794.677734 0)"/>
     <use xlink:href="#DejaVuSans-73" transform="translate(826.464844 0)"/>
     <use xlink:href="#DejaVuSans-6c" transform="translate(878.564453 0)"/>
     <use xlink:href="#DejaVuSans-6f" transform="translate(906.347656 0)"/>
     <use xlink:href="#DejaVuSans-74" transform="translate(967.529297 0)"/>
     <use xlink:href="#DejaVuSans-73" transform="translate(1006.738281 0)"/>
    </g>
    <!-- B sub-ejecuta su presupuesto -->
    <g transform="translate(675.637266 78.984688) scale(0.13 -0.13)">
     <defs>
      <path id="DejaVuSans-75" d="M 544 1381 
L 544 3500 
L 1119 3500 
L 1119 1403 
Q 1119 906 1312 657 
Q 1506 409 1894 409 
Q 2359 409 2629 706 
Q 2900 1003 2900 1516 
L 2900 3500 
L 3475 3500 
L 3475 0 
L 2900 0 
L 2900 538 
Q 2691 219 2414 64 
Q 2138 -91 1772 -91 
Q 1169 -91 856 284 
Q 544 659 544 1381 
z
M 1991 3584 
L 1991 3584 
z
" transform="scale(0.015625)"/>
      <path id="DejaVuSans-62" d="M 3116 1747 
Q 3116 2381 2855 2742 
Q 2594 3103 2138 3103 
Q 1681 3103 1420 2742 
Q 1159 2381 1159 1747 
Q 1159 1113 1420 752 
Q 1681 391 2138 391 
Q 2594 391 2855 752 
Q 3116 1113 3116 1747 
z
M 1159 2969 
Q 1341 3281 1617 3432 
Q 1894 3584 2278 3584 
Q 2916 3584 3314 3078 
Q 3713 2572 3713 1747 
Q 3713 922 3314 415 
Q 2916 -91 2278 -91 
Q 1894 -91 1617 61 
Q 1341 213 1159 525 
L 1159 0 
L 581 0 
L 581 4863 
L 1159 4863 
L 1159 2969 
z
" transform="scale(0.015625)"/>
      <path id="DejaVuSans-2d" d="M 313 2009 
L 1997 2009 
L 1997 1497 
L 313 1497 
L 313 2009 
z
" transform="scale(0.015625)"/>
      <path id="DejaVuSans-6a" d="M 603 3500 
L 1178 3500 
L 1178 -63 
Q 1178 -731 923 -1031 
Q 669 -1331 103 -1331 
L -116 -1331 
L -116 -844 
L 38 -844 
Q 366 -844 484 -692 
Q 603 -541 603 -63 
L 603 3500 
z
M 603 4863 
L 1178 4863 
L 1178 4134 
L 603 4134 
L 603 4863 
z
" transform="scale(0.015625)"/>
      <path id="DejaVuSans-63" d="M 3122 3366 
L 3122 2828 
Q 2878 2963 2633 3030 
Q 2388 3097 2138 3097 
Q 1578 3097 1268 2742 
Q 959 2388 959 1747 
Q 959 1106 1268 751 
Q 1578 397 2138 397 
Q 2388 397 2633 464 
Q 2878 531 3122 666 
L 3122 134 
Q 2881 22 2623 -34 
Q 2366 -91 2075 -91 
Q 1284 -91 818 406 
Q 353 903 353 1747 
Q 353 2603 823 3093 
Q 1294 3584 2113 3584 
Q 2378 3584 2631 3529 
Q 2884 3475 3122 3366 
z
" transform="scale(0.015625)"/>
     </defs>
     <use xlink:href="#DejaVuSans-42"/>
     <use xlink:href="#DejaVuSans-20" transform="translate(68.603516 0)"/>
     <use xlink:href="#DejaVuSans-73" transform="translate(100.390625 0)"/>
     <use xlink:href="#DejaVuSans-75" transform="translate(152.490234 0)"/>
     <use xlink:href="#DejaVuSans-62" transform="translate(215.869141 0)"/>
     <use xlink:href="#DejaVuSans-2d" transform="translate(279.345703 0)"/>
     <use xlink:href="#DejaVuSans-65" transform="translate(315.429688 0)"/>
     <use xlink:href="#DejaVuSans-6a" transform="translate(376.953125 0)"/>
     <use xlink:href="#DejaVuSans-65" transform="translate(404.736328 0)"/>
     <use xlink:href="#DejaVuSans-63" transform="translate(466.259766 0)"/>
     <use xlink:href="#DejaVuSans-75" transform="translate(521.240234 0)"/>
     <use xlink:href="#DejaVuSans-74" transform="translate(584.619141 0)"/>
     <use xlink:href="#DejaVuSans-61" transform="translate(623.828125 0)"/>
     <use xlink:href="#DejaVuSans-20" transform="translate(685.107422 0)"/>
     <use xlink:href="#DejaVuSans-73" transform="translate(716.894531 0)"/>
     <use xlink:href="#DejaVuSans-75" transform="translate(768.994141 0)"/>
     <use xlink:href="#DejaVuSans-20" transform="translate(832.373047 0)"/>
     <use xlink:href="#DejaVuSans-70" transform="translate(864.160156 0)"/>
     <use xlink:href="#DejaVuSans-72" transform="translate(927.636719 0)"/>
     <use xlink:href="#DejaVuSans-65" transform="translate(966.5 0)"/>
     <use xlink:href="#DejaVuSans-73" transform="translate(1028.023438 0)"/>
     <use xlink:href="#DejaVuSans-75" transform="translate(1080.123047 0)"/>
     <use xlink:href="#DejaVuSans-70" transform="translate(1143.501953 0)"/>
     <use xlink:href="#DejaVuSans-75" transform="translate(1206.978516 0)"/>
     <use xlink:href="#DejaVuSans-65" transform="translate(1270.357422 0)"/>
     <use xlink:href="#DejaVuSans-73" transform="translate(1331.880859 0)"/>
     <use xlink:href="#DejaVuSans-74" transform="translate(1383.980469 0)"/>
     <use xlink:href="#DejaVuSans-6f" transform="translate(1423.189453 0)"/>
    </g>
   </g>
   <g id="text_34">
    <!-- Asignación greedy: A=35 slots, B=15 slots -->
    <g transform="translate(558.8425 23.196875) scale(0.2 -0.2)">
     <defs>
      <path id="DejaVuSans-79" d="M 2059 -325 
Q 1816 -950 1584 -1140 
Q 1353 -1331 966 -1331 
L 506 -1331 
L 506 -850 
L 844 -850 
Q 1081 -850 1212 -737 
Q 1344 -625 1503 -206 
L 1606 56 
L 191 3500 
L 800 3500 
L 1894 763 
L 2988 3500 
L 3597 3500 
L 2059 -325 
z
" transform="scale(0.015625)"/>
      <path id="DejaVuSans-3a" d="M 750 794 
L 1409 794 
L 1409 0 
L 750 0 
L 750 794 
z
M 750 3309 
L 1409 3309 
L 1409 2516 
L 750 2516 
L 750 3309 
z
" transform="scale(0.015625)"/>
      <path id="DejaVuSans-2c" d="M 750 794 
L 1409 794 
L 1409 256 
L 897 -744 
L 494 -744 
L 750 256 
L 750 794 
z
" transform="scale(0.015625)"/>
     </defs>
     <use xlink:href="#DejaVuSans-41"/>
     <use xlink:href="#DejaVuSans-73" transform="translate(68.408203 0)"/>
     <use xlink:href="#DejaVuSans-69" transform="translate(120.507812 0)"/>
     <use xlink:href="#DejaVuSans-67" transform="translate(148.291016 0)"/>
     <use xlink:href="#DejaVuSans-6e" transform="translate(211.767578 0)"/>
     <use xlink:href="#DejaVuSans-61" transform="translate(275.146484 0)"/>
     <use xlink:href="#DejaVuSans-63" transform="translate(336.425781 0)"/>
     <use xlink:href="#DejaVuSans-69" transform="translate(391.40625 0)"/>
     <use xlink:href="#DejaVuSans-f3" transform="translate(419.189453 0)"/>
     <use xlink:href="#DejaVuSans-6e" transform="translate(480.371094 0)"/>
     <use xlink:href="#DejaVuSans-20" transform="translate(543.75 0)"/>
     <use xlink:href="#DejaVuSans-67" transform="translate(575.537109 0)"/>
     <use xlink:href="#DejaVuSans-72" transform="translate(639.013672 0)"/>
     <use xlink:href="#DejaVuSans-65" transform="translate(677.876953 0)"/>
     <use xlink:href="#DejaVuSans-65" transform="translate(739.400391 0)"/>
     <use xlink:href="#DejaVuSans-64" transform="translate(800.923828 0)"/>
     <use xlink:href="#DejaVuSans-79" transform="translate(864.400391 0)"/>
     <use xlink:href="#DejaVuSans-3a" transform="translate(916.330078 0)"/>
     <use xlink:href="#DejaVuSans-20" transform="translate(950.021484 0)"/>
     <use xlink:href="#DejaVuSans-41" transform="translate(981.808594 0)"/>
     <use xlink:href="#DejaVuSans-3d" transform="translate(1050.216797 0)"/>
     <use xlink:href="#DejaVuSans-33" transform="translate(1134.005859 0)"/>
     <use xlink:href="#DejaVuSans-35" transform="translate(1197.628906 0)"/>
     <use xlink:href="#DejaVuSans-20" transform="translate(1261.251953 0)"/>
     <use xlink:href="#DejaVuSans-73" transform="translate(1293.039062 0)"/>
     <use xlink:href="#DejaVuSans-6c" transform="translate(1345.138672 0)"/>
     <use xlink:href="#DejaVuSans-6f" transform="translate(1372.921875 0)"/>
     <use xlink:href="#DejaVuSans-74" transform="translate(1434.103516 0)"/>
     <use xlink:href="#DejaVuSans-73" transform="translate(1473.3125 0)"/>
     <use xlink:href="#DejaVuSans-2c" transform="translate(1525.412109 0)"/>
     <use xlink:href="#DejaVuSans-20" transform="translate(1557.199219 0)"/>
     <use xlink:href="#DejaVuSans-42" transform="translate(1588.986328 0)"/>
     <use xlink:href="#DejaVuSans-3d" transform="translate(1657.589844 0)"/>
     <use xlink:href="#DejaVuSans-31" transform="translate(1741.378906 0)"/>
     <use xlink:href="#DejaVuSans-35" transform="translate(1805.001953 0)"/>
     <use xlink:href="#DejaVuSans-20" transform="translate(1868.625 0)"/>
     <use xlink:href="#DejaVuSans-73" transform="translate(1900.412109 0)"/>
     <use xlink:href="#DejaVuSans-6c" transform="translate(1952.511719 0)"/>
     <use xlink:href="#DejaVuSans-6f" transform="translate(1980.294922 0)"/>
     <use xlink:href="#DejaVuSans-74" transform="translate(2041.476562 0)"/>
     <use xlink:href="#DejaVuSans-73" transform="translate(2080.685547 0)"/>
    </g>
   </g>
  </g>
 </g>
 <defs>
  <clipPath id="p21f195d0de">
   <rect x="75.193125" y="29.196875" width="417.265" height="331.91875"/>
  </clipPath>
  <clipPath id="pd6423fa84a">
   <rect x="563.488125" y="29.196875" width="417.265" height="331.91875"/>
  </clipPath>
 </defs>
</svg>
