<?xml version="1.0" encoding="utf-8" standalone="no"?>
<!DOCTYPE svg PUBLIC "-//W3C//DTD SVG 1.1//EN"
  "http://www.w3.org/Graphics/SVG/1.1/DTD/svg11.dtd">
<svg xmlns:xlink="http://www.w3.org/1999/xlink" width="1400.81pt" height="377.20375pt" viewBox="0 0 1400.81 377.20375" xmlns="http://www.w3.org/2000/svg" version="1.1">
 <metadata>
  <rdf:RDF xmlns:dc="http://purl.org/dc/elements/1.1/" xmlns:cc="http://creativecommons.org/ns#" xmlns:rdf="http://www.w3.org/1999/02/22-rdf-syntax-ns#">
   <cc:Work>
    <dc:type rdf:resource="http://purl.org/dc/dcmitype/StillImage"/>
    <dc:date>2026-03-18T18:59:06.661665</dc:date>
    <dc:format>image/svg+xml</dc:format>
    <dc:creator>
     <cc:Agent>
      <dc:title>Matplotlib v3.10.8, https://matplotlib.org/</dc:title>
     </cc:Agent>
    </dc:creator>
   </cc:Work>
  </rdf:RDF>
 </metadata>
 <defs>
  <style type="text/css">*{stroke-linejoin: round; stroke-linecap: butt}</style>
 </defs>
 <g id="figure_1">
  <g id="patch_1">
   <path d="M 0 377.20375 
L 1400.81 377.20375 
L 1400.81 0 
L 0 0 
z
" style="fill: #ffffff"/>
  </g>
  <g id="axes_1">
   <g id="patch_2">
    <path d="M 303.87625 293.1925 
L 658.41125 293.1925 
L 658.41125 47.5125 
L 303.87625 47.5125 
z
" style="fill: #ffffff"/>
   </g>
   <g id="patch_3">
    <path d="M 319.991477 293.1925 
L 322.580269 293.1925 
L 322.580269 250.490244 
L 319.991477 250.490244 
z
" clip-path="url(#p4f6db9f020)" style="fill: #2196f3; opacity: 0.8"/>
   </g>
   <g id="patch_4">
    <path d="M 326.463456 293.1925 
L 329.052248 293.1925 
L 329.052248 231.037554 
L 326.463456 231.037554 
z
" clip-path="url(#p4f6db9f020)" style="fill: #2196f3; opacity: 0.8"/>
   </g>
   <g id="patch_5">
    <path d="M 332.935435 293.1925 
L 335.524226 293.1925 
L 335.524226 261.663285 
L 332.935435 261.663285 
z
" clip-path="url(#p4f6db9f020)" style="fill: #2196f3; opacity: 0.8"/>
   </g>
   <g id="patch_6">
    <path d="M 339.407414 293.1925 
L 341.996205 293.1925 
L 341.996205 268.314176 
L 339.407414 268.314176 
z
" clip-path="url(#p4f6db9f020)" style="fill: #2196f3; opacity: 0.8"/>
   </g>
   <g id="patch_7">
    <path d="M 345.879393 293.1925 
L 348.468184 293.1925 
L 348.468184 210.671577 
L 345.879393 210.671577 
z
" clip-path="url(#p4f6db9f020)" style="fill: #2196f3; opacity: 0.8"/>
   </g>
   <g id="patch_8">
    <path d="M 352.351371 293.1925 
L 354.940163 293.1925 
L 354.940163 253.535421 
L 352.351371 253.535421 
z
" clip-path="url(#p4f6db9f020)" style="fill: #2196f3; opacity: 0.8"/>
   </g>
   <g id="patch_9">
    <path d="M 358.82335 293.1925 
L 361.412142 293.1925 
L 361.412142 247.777629 
L 358.82335 247.777629 
z
" clip-path="url(#p4f6db9f020)" style="fill: #2196f3; opacity: 0.8"/>
   </g>
   <g id="patch_10">
    <path d="M 365.295329 293.1925 
L 367.884121 293.1925 
L 367.884121 161.279895 
L 365.295329 161.279895 
z
" clip-path="url(#p4f6db9f020)" style="fill: #2196f3; opacity: 0.8"/>
   </g>
   <g id="patch_11">
    <path d="M 371.767308 293.1925 
L 374.356099 293.1925 
L 374.356099 208.583451 
L 371.767308 208.583451 
z
" clip-path="url(#p4f6db9f020)" style="fill: #2196f3; opacity: 0.8"/>
   </g>
   <g id="patch_12">
    <path d="M 378.239287 293.1925 
L 380.828078 293.1925 
L 380.828078 252.950991 
L 378.239287 252.950991 
z
" clip-path="url(#p4f6db9f020)" style="fill: #2196f3; opacity: 0.8"/>
   </g>
   <g id="patch_13">
    <path d="M 384.711266 293.1925 
L 387.300057 293.1925 
L 387.300057 232.30356 
L 384.711266 232.30356 
z
" clip-path="url(#p4f6db9f020)" style="fill: #2196f3; opacity: 0.8"/>
   </g>
   <g id="patch_14">
    <path d="M 391.183244 293.1925 
L 393.772036 293.1925 
L 393.772036 230.557379 
L 391.183244 230.557379 
z
" clip-path="url(#p4f6db9f020)" style="fill: #2196f3; opacity: 0.8"/>
   </g>
   <g id="patch_15">
    <path d="M 397.655223 293.1925 
L 400.244015 293.1925 
L 400.244015 259.179606 
L 397.655223 259.179606 
z
" clip-path="url(#p4f6db9f020)" style="fill: #2196f3; opacity: 0.8"/>
   </g>
   <g id="patch_16">
    <path d="M 404.127202 293.1925 
L 406.715994 293.1925 
L 406.715994 226.925308 
L 404.127202 226.925308 
z
" clip-path="url(#p4f6db9f020)" style="fill: #2196f3; opacity: 0.8"/>
   </g>
   <g id="patch_17">
    <path d="M 410.599181 293.1925 
L 413.187972 293.1925 
L 413.187972 223.0882 
L 410.599181 223.0882 
z
" clip-path="url(#p4f6db9f020)" style="fill: #2196f3; opacity: 0.8"/>
   </g>
   <g id="patch_18">
    <path d="M 417.07116 293.1925 
L 419.659951 293.1925 
L 419.659951 223.229433 
L 417.07116 223.229433 
z
" clip-path="url(#p4f6db9f020)" style="fill: #2196f3; opacity: 0.8"/>
   </g>
   <g id="patch_19">
    <path d="M 423.543138 293.1925 
L 426.13193 293.1925 
L 426.13193 235.386067 
L 423.543138 235.386067 
z
" clip-path="url(#p4f6db9f020)" style="fill: #2196f3; opacity: 0.8"/>
   </g>
   <g id="patch_20">
    <path d="M 430.015117 293.1925 
L 432.603909 293.1925 
L 432.603909 219.18078 
L 430.015117 219.18078 
z
" clip-path="url(#p4f6db9f020)" style="fill: #2196f3; opacity: 0.8"/>
   </g>
   <g id="patch_21">
    <path d="M 436.487096 293.1925 
L 439.075888 293.1925 
L 439.075888 244.185087 
L 436.487096 244.185087 
z
" clip-path="url(#p4f6db9f020)" style="fill: #2196f3; opacity: 0.8"/>
   </g>
   <g id="patch_22">
    <path d="M 442.959075 293.1925 
L 445.547866 293.1925 
L 445.547866 212.552855 
L 442.959075 212.552855 
z
" clip-path="url(#p4f6db9f020)" style="fill: #2196f3; opacity: 0.8"/>
   </g>
   <g id="patch_23">
    <path d="M 449.431054 293.1925 
L 452.019845 293.1925 
L 452.019845 226.295686 
L 449.431054 226.295686 
z
" clip-path="url(#p4f6db9f020)" style="fill: #2196f3; opacity: 0.8"/>
   </g>
   <g id="patch_24">
    <path d="M 455.903033 293.1925 
L 458.491824 293.1925 
L 458.491824 197.668584 
L 455.903033 197.668584 
z
" clip-path="url(#p4f6db9f020)" style="fill: #2196f3; opacity: 0.8"/>
   </g>
   <g id="patch_25">
    <path d="M 462.375011 293.1925 
L 464.963803 293.1925 
L 464.963803 202.399223 
L 462.375011 202.399223 
z
" clip-path="url(#p4f6db9f020)" style="fill: #2196f3; opacity: 0.8"/>
   </g>
   <g id="patch_26">
    <path d="M 468.84699 293.1925 
L 471.435782 293.1925 
L 471.435782 229.540025 
L 468.84699 229.540025 
z
" clip-path="url(#p4f6db9f020)" style="fill: #2196f3; opacity: 0.8"/>
   </g>
   <g id="patch_27">
    <path d="M 475.318969 293.1925 
L 477.907761 293.1925 
L 477.907761 223.231339 
L 475.318969 223.231339 
z
" clip-path="url(#p4f6db9f020)" style="fill: #2196f3; opacity: 0.8"/>
   </g>
   <g id="patch_28">
    <path d="M 481.790948 293.1925 
L 484.379739 293.1925 
L 484.379739 232.801059 
L 481.790948 232.801059 
z
" clip-path="url(#p4f6db9f020)" style="fill: #2196f3; opacity: 0.8"/>
   </g>
   <g id="patch_29">
    <path d="M 488.262927 293.1925 
L 490.851718 293.1925 
L 490.851718 194.857312 
L 488.262927 194.857312 
z
" clip-path="url(#p4f6db9f020)" style="fill: #2196f3; opacity: 0.8"/>
   </g>
   <g id="patch_30">
    <path d="M 494.734906 293.1925 
L 497.323697 293.1925 
L 497.323697 210.330829 
L 494.734906 210.330829 
z
" clip-path="url(#p4f6db9f020)" style="fill: #2196f3; opacity: 0.8"/>
   </g>
   <g id="patch_31">
    <path d="M 501.206884 293.1925 
L 503.795676 293.1925 
L 503.795676 170.721625 
L 501.206884 170.721625 
z
" clip-path="url(#p4f6db9f020)" style="fill: #2196f3; opacity: 0.8"/>
   </g>
   <g id="patch_32">
    <path d="M 507.678863 293.1925 
L 510.267655 293.1925 
L 510.267655 182.168547 
L 507.678863 182.168547 
z
" clip-path="url(#p4f6db9f020)" style="fill: #2196f3; opacity: 0.8"/>
   </g>
   <g id="patch_33">
    <path d="M 514.150842 293.1925 
L 516.739634 293.1925 
L 516.739634 215.307372 
L 514.150842 215.307372 
z
" clip-path="url(#p4f6db9f020)" style="fill: #2196f3; opacity: 0.8"/>
   </g>
   <g id="patch_34">
    <path d="M 520.622821 293.1925 
L 523.211612 293.1925 
L 523.211612 225.279117 
L 520.622821 225.279117 
z
" clip-path="url(#p4f6db9f020)" style="fill: #2196f3; opacity: 0.8"/>
   </g>
   <g id="patch_35">
    <path d="M 527.0948 293.1925 
L 529.683591 293.1925 
L 529.683591 152.316787 
L 527.0948 152.316787 
z
" clip-path="url(#p4f6db9f020)" style="fill: #2196f3; opacity: 0.8"/>
   </g>
   <g id="patch_36">
    <path d="M 533.566778 293.1925 
L 536.15557 293.1925 
L 536.15557 183.873171 
L 533.566778 183.873171 
z
" clip-path="url(#p4f6db9f020)" style="fill: #2196f3; opacity: 0.8"/>
   </g>
   <g id="patch_37">
    <path d="M 540.038757 293.1925 
L 542.627549 293.1925 
L 542.627549 164.403076 
L 540.038757 164.403076 
z
" clip-path="url(#p4f6db9f020)" style="fill: #2196f3; opacity: 0.8"/>
   </g>
   <g id="patch_38">
    <path d="M 546.510736 293.1925 
L 549.099528 293.1925 
L 549.099528 168.132698 
L 546.510736 168.132698 
z
" clip-path="url(#p4f6db9f020)" style="fill: #2196f3; opacity: 0.8"/>
   </g>
   <g id="patch_39">
    <path d="M 552.982715 293.1925 
L 555.571506 293.1925 
L 555.571506 161.121411 
L 552.982715 161.121411 
z
" clip-path="url(#p4f6db9f020)" style="fill: #2196f3; opacity: 0.8"/>
   </g>
   <g id="patch_40">
    <path d="M 559.454694 293.1925 
L 562.043485 293.1925 
L 562.043485 158.419293 
L 559.454694 158.419293 
z
" clip-path="url(#p4f6db9f020)" style="fill: #2196f3; opacity: 0.8"/>
   </g>
   <g id="patch_41">
    <path d="M 565.926673 293.1925 
L 568.515464 293.1925 
L 568.515464 150.521492 
L 565.926673 150.521492 
z
" clip-path="url(#p4f6db9f020)" style="fill: #2196f3; opacity: 0.8"/>
   </g>
   <g id="patch_42">
    <path d="M 572.398651 293.1925 
L 574.987443 293.1925 
L 574.987443 125.841757 
L 572.398651 125.841757 
z
" clip-path="url(#p4f6db9f020)" style="fill: #2196f3; opacity: 0.8"/>
   </g>
   <g id="patch_43">
    <path d="M 578.87063 293.1925 
L 581.459422 293.1925 
L 581.459422 179.643551 
L 578.87063 179.643551 
z
" clip-path="url(#p4f6db9f020)" style="fill: #2196f3; opacity: 0.8"/>
   </g>
   <g id="patch_44">
    <path d="M 585.342609 293.1925 
L 587.931401 293.1925 
L 587.931401 173.817232 
L 585.342609 173.817232 
z
" clip-path="url(#p4f6db9f020)" style="fill: #2196f3; opacity: 0.8"/>
   </g>
   <g id="patch_45">
    <path d="M 591.814588 293.1925 
L 594.403379 293.1925 
L 594.403379 185.179868 
L 591.814588 185.179868 
z
" clip-path="url(#p4f6db9f020)" style="fill: #2196f3; opacity: 0.8"/>
   </g>
   <g id="patch_46">
    <path d="M 598.286567 293.1925 
L 600.875358 293.1925 
L 600.875358 98.912007 
L 598.286567 98.912007 
z
" clip-path="url(#p4f6db9f020)" style="fill: #2196f3; opacity: 0.8"/>
   </g>
   <g id="patch_47">
    <path d="M 604.758546 293.1925 
L 607.347337 293.1925 
L 607.347337 125.623847 
L 604.758546 125.623847 
z
" clip-path="url(#p4f6db9f020)" style="fill: #2196f3; opacity: 0.8"/>
   </g>
   <g id="patch_48">
    <path d="M 611.230524 293.1925 
L 613.819316 293.1925 
L 613.819316 109.399908 
L 611.230524 109.399908 
z
" clip-path="url(#p4f6db9f020)" style="fill: #2196f3; opacity: 0.8"/>
   </g>
   <g id="patch_49">
    <path d="M 617.702503 293.1925 
L 620.291295 293.1925 
L 620.291295 158.804274 
L 617.702503 158.804274 
z
" clip-path="url(#p4f6db9f020)" style="fill: #2196f3; opacity: 0.8"/>
   </g>
   <g id="patch_50">
    <path d="M 624.174482 293.1925 
L 626.763274 293.1925 
L 626.763274 109.125873 
L 624.174482 109.125873 
z
" clip-path="url(#p4f6db9f020)" style="fill: #2196f3; opacity: 0.8"/>
   </g>
   <g id="patch_51">
    <path d="M 630.646461 293.1925 
L 633.235252 293.1925 
L 633.235252 100.772281 
L 630.646461 100.772281 
z
" clip-path="url(#p4f6db9f020)" style="fill: #2196f3; opacity: 0.8"/>
   </g>
   <g id="patch_52">
    <path d="M 637.11844 293.1925 
L 639.707231 293.1925 
L 639.707231 59.211548 
L 637.11844 59.211548 
z
" clip-path="url(#p4f6db9f020)" style="fill: #2196f3; opacity: 0.8"/>
   </g>
   <g id="patch_53">
    <path d="M 322.580269 293.1925 
L 325.16906 293.1925 
L 325.16906 156.119709 
L 322.580269 156.119709 
z
" clip-path="url(#p4f6db9f020)" style="fill: #f44336; opacity: 0.8"/>
   </g>
   <g id="patch_54">
    <path d="M 329.052248 293.1925 
L 331.641039 293.1925 
L 331.641039 161.367026 
L 329.052248 161.367026 
z
" clip-path="url(#p4f6db9f020)" style="fill: #f44336; opacity: 0.8"/>
   </g>
   <g id="patch_55">
    <path d="M 335.524226 293.1925 
L 338.113018 293.1925 
L 338.113018 192.408438 
L 335.524226 192.408438 
z
" clip-path="url(#p4f6db9f020)" style="fill: #f44336; opacity: 0.8"/>
   </g>
   <g id="patch_56">
    <path d="M 341.996205 293.1925 
L 344.584997 293.1925 
L 344.584997 217.290899 
L 341.996205 217.290899 
z
" clip-path="url(#p4f6db9f020)" style="fill: #f44336; opacity: 0.8"/>
   </g>
   <g id="patch_57">
    <path d="M 348.468184 293.1925 
L 351.056976 293.1925 
L 351.056976 161.069481 
L 348.468184 161.069481 
z
" clip-path="url(#p4f6db9f020)" style="fill: #f44336; opacity: 0.8"/>
   </g>
   <g id="patch_58">
    <path d="M 354.940163 293.1925 
L 357.528954 293.1925 
L 357.528954 205.250878 
L 354.940163 205.250878 
z
" clip-path="url(#p4f6db9f020)" style="fill: #f44336; opacity: 0.8"/>
   </g>
   <g id="patch_59">
    <path d="M 361.412142 293.1925 
L 364.000933 293.1925 
L 364.000933 205.550964 
L 361.412142 205.550964 
z
" clip-path="url(#p4f6db9f020)" style="fill: #f44336; opacity: 0.8"/>
   </g>
   <g id="patch_60">
    <path d="M 367.884121 293.1925 
L 370.472912 293.1925 
L 370.472912 129.583404 
L 367.884121 129.583404 
z
" clip-path="url(#p4f6db9f020)" style="fill: #f44336; opacity: 0.8"/>
   </g>
   <g id="patch_61">
    <path d="M 374.356099 293.1925 
L 376.944891 293.1925 
L 376.944891 180.324476 
L 374.356099 180.324476 
z
" clip-path="url(#p4f6db9f020)" style="fill: #f44336; opacity: 0.8"/>
   </g>
   <g id="patch_62">
    <path d="M 380.828078 293.1925 
L 383.41687 293.1925 
L 383.41687 226.60661 
L 380.828078 226.60661 
z
" clip-path="url(#p4f6db9f020)" style="fill: #f44336; opacity: 0.8"/>
   </g>
   <g id="patch_63">
    <path d="M 387.300057 293.1925 
L 389.888849 293.1925 
L 389.888849 207.087829 
L 387.300057 207.087829 
z
" clip-path="url(#p4f6db9f020)" style="fill: #f44336; opacity: 0.8"/>
   </g>
   <g id="patch_64">
    <path d="M 393.772036 293.1925 
L 396.360827 293.1925 
L 396.360827 208.131068 
L 393.772036 208.131068 
z
" clip-path="url(#p4f6db9f020)" style="fill: #f44336; opacity: 0.8"/>
   </g>
   <g id="patch_65">
    <path d="M 400.244015 293.1925 
L 402.832806 293.1925 
L 402.832806 237.187553 
L 400.244015 237.187553 
z
" clip-path="url(#p4f6db9f020)" style="fill: #f44336; opacity: 0.8"/>
   </g>
   <g id="patch_66">
    <path d="M 406.715994 293.1925 
L 409.304785 293.1925 
L 409.304785 207.948098 
L 406.715994 207.948098 
z
" clip-path="url(#p4f6db9f020)" style="fill: #f44336; opacity: 0.8"/>
   </g>
   <g id="patch_67">
    <path d="M 413.187972 293.1925 
L 415.776764 293.1925 
L 415.776764 211.828559 
L 413.187972 211.828559 
z
" clip-path="url(#p4f6db9f020)" style="fill: #f44336; opacity: 0.8"/>
   </g>
   <g id="patch_68">
    <path d="M 419.659951 293.1925 
L 422.248743 293.1925 
L 422.248743 224.38093 
L 419.659951 224.38093 
z
" clip-path="url(#p4f6db9f020)" style="fill: #f44336; opacity: 0.8"/>
   </g>
   <g id="patch_69">
    <path d="M 426.13193 293.1925 
L 428.720722 293.1925 
L 428.720722 239.742104 
L 426.13193 239.742104 
z
" clip-path="url(#p4f6db9f020)" style="fill: #f44336; opacity: 0.8"/>
   </g>
   <g id="patch_70">
    <path d="M 432.603909 293.1925 
L 435.1927 293.1925 
L 435.1927 224.322281 
L 432.603909 224.322281 
z
" clip-path="url(#p4f6db9f020)" style="fill: #f44336; opacity: 0.8"/>
   </g>
   <g id="patch_71">
    <path d="M 439.075888 293.1925 
L 441.664679 293.1925 
L 441.664679 253.20339 
L 439.075888 253.20339 
z
" clip-path="url(#p4f6db9f020)" style="fill: #f44336; opacity: 0.8"/>
   </g>
   <g id="patch_72">
    <path d="M 445.547866 293.1925 
L 448.136658 293.1925 
L 448.136658 227.242991 
L 445.547866 227.242991 
z
" clip-path="url(#p4f6db9f020)" style="fill: #f44336; opacity: 0.8"/>
   </g>
   <g id="patch_73">
    <path d="M 452.019845 293.1925 
L 454.608637 293.1925 
L 454.608637 241.156013 
L 452.019845 241.156013 
z
" clip-path="url(#p4f6db9f020)" style="fill: #f44336; opacity: 0.8"/>
   </g>
   <g id="patch_74">
    <path d="M 458.491824 293.1925 
L 461.080616 293.1925 
L 461.080616 214.696619 
L 458.491824 214.696619 
z
" clip-path="url(#p4f6db9f020)" style="fill: #f44336; opacity: 0.8"/>
   </g>
   <g id="patch_75">
    <path d="M 464.963803 293.1925 
L 467.552594 293.1925 
L 467.552594 219.861716 
L 464.963803 219.861716 
z
" clip-path="url(#p4f6db9f020)" style="fill: #f44336; opacity: 0.8"/>
   </g>
   <g id="patch_76">
    <path d="M 471.435782 293.1925 
L 474.024573 293.1925 
L 474.024573 247.121891 
L 471.435782 247.121891 
z
" clip-path="url(#p4f6db9f020)" style="fill: #f44336; opacity: 0.8"/>
   </g>
   <g id="patch_77">
    <path d="M 477.907761 293.1925 
L 480.496552 293.1925 
L 480.496552 241.572706 
L 477.907761 241.572706 
z
" clip-path="url(#p4f6db9f020)" style="fill: #f44336; opacity: 0.8"/>
   </g>
   <g id="patch_78">
    <path d="M 484.379739 293.1925 
L 486.968531 293.1925 
L 486.968531 252.262302 
L 484.379739 252.262302 
z
" clip-path="url(#p4f6db9f020)" style="fill: #f44336; opacity: 0.8"/>
   </g>
   <g id="patch_79">
    <path d="M 490.851718 293.1925 
L 493.44051 293.1925 
L 493.44051 219.294074 
L 490.851718 219.294074 
z
" clip-path="url(#p4f6db9f020)" style="fill: #f44336; opacity: 0.8"/>
   </g>
   <g id="patch_80">
    <path d="M 497.323697 293.1925 
L 499.912489 293.1925 
L 499.912489 235.378683 
L 497.323697 235.378683 
z
" clip-path="url(#p4f6db9f020)" style="fill: #f44336; opacity: 0.8"/>
   </g>
   <g id="patch_81">
    <path d="M 503.795676 293.1925 
L 506.384467 293.1925 
L 506.384467 199.023276 
L 503.795676 199.023276 
z
" clip-path="url(#p4f6db9f020)" style="fill: #f44336; opacity: 0.8"/>
   </g>
   <g id="patch_82">
    <path d="M 510.267655 293.1925 
L 512.856446 293.1925 
L 512.856446 213.808255 
L 510.267655 213.808255 
z
" clip-path="url(#p4f6db9f020)" style="fill: #f44336; opacity: 0.8"/>
   </g>
   <g id="patch_83">
    <path d="M 516.739634 293.1925 
L 519.328425 293.1925 
L 519.328425 248.070529 
L 516.739634 248.070529 
z
" clip-path="url(#p4f6db9f020)" style="fill: #f44336; opacity: 0.8"/>
   </g>
   <g id="patch_84">
    <path d="M 523.211612 293.1925 
L 525.800404 293.1925 
L 525.800404 260.020919 
L 523.211612 260.020919 
z
" clip-path="url(#p4f6db9f020)" style="fill: #f44336; opacity: 0.8"/>
   </g>
   <g id="patch_85">
    <path d="M 529.683591 293.1925 
L 532.272383 293.1925 
L 532.272383 189.359177 
L 529.683591 189.359177 
z
" clip-path="url(#p4f6db9f020)" style="fill: #f44336; opacity: 0.8"/>
   </g>
   <g id="patch_86">
    <path d="M 536.15557 293.1925 
L 538.744362 293.1925 
L 538.744362 224.162852 
L 536.15557 224.162852 
z
" clip-path="url(#p4f6db9f020)" style="fill: #f44336; opacity: 0.8"/>
   </g>
   <g id="patch_87">
    <path d="M 542.627549 293.1925 
L 545.21634 293.1925 
L 545.21634 207.141462 
L 542.627549 207.141462 
z
" clip-path="url(#p4f6db9f020)" style="fill: #f44336; opacity: 0.8"/>
   </g>
   <g id="patch_88">
    <path d="M 549.099528 293.1925 
L 551.688319 293.1925 
L 551.688319 210.894168 
L 549.099528 210.894168 
z
" clip-path="url(#p4f6db9f020)" style="fill: #f44336; opacity: 0.8"/>
   </g>
   <g id="patch_89">
    <path d="M 555.571506 293.1925 
L 558.160298 293.1925 
L 558.160298 211.377432 
L 555.571506 211.377432 
z
" clip-path="url(#p4f6db9f020)" style="fill: #f44336; opacity: 0.8"/>
   </g>
   <g id="patch_90">
    <path d="M 562.043485 293.1925 
L 564.632277 293.1925 
L 564.632277 213.569693 
L 562.043485 213.569693 
z
" clip-path="url(#p4f6db9f020)" style="fill: #f44336; opacity: 0.8"/>
   </g>
   <g id="patch_91">
    <path d="M 568.515464 293.1925 
L 571.104256 293.1925 
L 571.104256 208.061267 
L 568.515464 208.061267 
z
" clip-path="url(#p4f6db9f020)" style="fill: #f44336; opacity: 0.8"/>
   </g>
   <g id="patch_92">
    <path d="M 574.987443 293.1925 
L 577.576234 293.1925 
L 577.576234 194.737894 
L 574.987443 194.737894 
z
" clip-path="url(#p4f6db9f020)" style="fill: #f44336; opacity: 0.8"/>
   </g>
   <g id="patch_93">
    <path d="M 581.459422 293.1925 
L 584.048213 293.1925 
L 584.048213 251.301636 
L 581.459422 251.301636 
z
" clip-path="url(#p4f6db9f020)" style="fill: #f44336; opacity: 0.8"/>
   </g>
   <g id="patch_94">
    <path d="M 587.931401 293.1925 
L 590.520192 293.1925 
L 590.520192 260.808306 
L 587.931401 260.808306 
z
" clip-path="url(#p4f6db9f020)" style="fill: #f44336; opacity: 0.8"/>
   </g>
   <g id="patch_95">
    <path d="M 594.403379 293.1925 
L 596.992171 293.1925 
L 596.992171 278.981569 
L 594.403379 278.981569 
z
" clip-path="url(#p4f6db9f020)" style="fill: #f44336; opacity: 0.8"/>
   </g>
   <g id="patch_96">
    <path d="M 600.875358 293.1925 
L 603.46415 293.1925 
L 603.46415 197.928241 
L 600.875358 197.928241 
z
" clip-path="url(#p4f6db9f020)" style="fill: #f44336; opacity: 0.8"/>
   </g>
   <g id="patch_97">
    <path d="M 607.347337 293.1925 
L 609.936129 293.1925 
L 609.936129 230.770909 
L 607.347337 230.770909 
z
" clip-path="url(#p4f6db9f020)" style="fill: #f44336; opacity: 0.8"/>
   </g>
   <g id="patch_98">
    <path d="M 613.819316 293.1925 
L 616.408107 293.1925 
L 616.408107 216.176516 
L 613.819316 216.176516 
z
" clip-path="url(#p4f6db9f020)" style="fill: #f44336; opacity: 0.8"/>
   </g>
   <g id="patch_99">
    <path d="M 620.291295 293.1925 
L 622.880086 293.1925 
L 622.880086 267.682156 
L 620.291295 267.682156 
z
" clip-path="url(#p4f6db9f020)" style="fill: #f44336; opacity: 0.8"/>
   </g>
   <g id="patch_100">
    <path d="M 626.763274 293.1925 
L 629.352065 293.1925 
L 629.352065 246.393816 
L 626.763274 246.393816 
z
" clip-path="url(#p4f6db9f020)" style="fill: #f44336; opacity: 0.8"/>
   </g>
   <g id="patch_101">
    <path d="M 633.235252 293.1925 
L 635.824044 293.1925 
L 635.824044 238.325178 
L 633.235252 238.325178 
z
" clip-path="url(#p4f6db9f020)" style="fill: #f44336; opacity: 0.8"/>
   </g>
   <g id="patch_102">
    <path d="M 639.707231 293.1925 
L 642.296023 293.1925 
L 642.296023 247.182615 
L 639.707231 247.182615 
z
" clip-path="url(#p4f6db9f020)" style="fill: #f44336; opacity: 0.8"/>
   </g>
   <g id="matplotlib.axis_1">
    <g id="xtick_1">
     <g id="line2d_1">
      <defs>
       <path id="m1599e70b46" d="M 0 0 
L 0 3.5 
" style="stroke: #000000; stroke-width: 0.8"/>
      </defs>
      <g>
       <use xlink:href="#m1599e70b46" x="322.580269" y="293.1925" style="stroke: #000000; stroke-width: 0.8"/>
      </g>
     </g>
     <g id="text_1">
      <!-- 0 -->
      <g transform="translate(312.400269 324.5075) scale(0.32 -0.32)">
       <defs>
        <path id="DejaVuSans-30" d="M 2034 4250 
Q 1547 4250 1301 3770 
Q 1056 3291 1056 2328 
Q 1056 1369 1301 889 
Q 1547 409 2034 409 
Q 2525 409 2770 889 
Q 3016 1369 3016 2328 
Q 3016 3291 2770 3770 
Q 2525 4250 2034 4250 
z
M 2034 4750 
Q 2819 4750 3233 4129 
Q 3647 3509 3647 2328 
Q 3647 1150 3233 529 
Q 2819 -91 2034 -91 
Q 1250 -91 836 529 
Q 422 1150 422 2328 
Q 422 3509 836 4129 
Q 1250 4750 2034 4750 
z
" transform="scale(0.015625)"/>
       </defs>
       <use xlink:href="#DejaVuSans-30"/>
      </g>
     </g>
    </g>
    <g id="xtick_2">
     <g id="line2d_2">
      <g>
       <use xlink:href="#m1599e70b46" x="452.019845" y="293.1925" style="stroke: #000000; stroke-width: 0.8"/>
      </g>
     </g>
     <g id="text_2">
      <!-- 20 -->
      <g transform="translate(431.659845 324.5075) scale(0.32 -0.32)">
       <defs>
        <path id="DejaVuSans-32" d="M 1228 531 
L 3431 531 
L 3431 0 
L 469 0 
L 469 531 
Q 828 903 1448 1529 
Q 2069 2156 2228 2338 
Q 2531 2678 2651 2914 
Q 2772 3150 2772 3378 
Q 2772 3750 2511 3984 
Q 2250 4219 1831 4219 
Q 1534 4219 1204 4116 
Q 875 4013 500 3803 
L 500 4441 
Q 881 4594 1212 4672 
Q 1544 4750 1819 4750 
Q 2544 4750 2975 4387 
Q 3406 4025 3406 3419 
Q 3406 3131 3298 2873 
Q 3191 2616 2906 2266 
Q 2828 2175 2409 1742 
Q 1991 1309 1228 531 
z
" transform="scale(0.015625)"/>
       </defs>
       <use xlink:href="#DejaVuSans-32"/>
       <use xlink:href="#DejaVuSans-30" transform="translate(63.623047 0)"/>
      </g>
     </g>
    </g>
    <g id="xtick_3">
     <g id="line2d_3">
      <g>
       <use xlink:href="#m1599e70b46" x="581.459422" y="293.1925" style="stroke: #000000; stroke-width: 0.8"/>
      </g>
     </g>
     <g id="text_3">
      <!-- 40 -->
      <g transform="translate(561.099422 324.5075) scale(0.32 -0.32)">
       <defs>
        <path id="DejaVuSans-34" d="M 2419 4116 
L 825 1625 
L 2419 1625 
L 2419 4116 
z
M 2253 4666 
L 3047 4666 
L 3047 1625 
L 3713 1625 
L 3713 1100 
L 3047 1100 
L 3047 0 
L 2419 0 
L 2419 1100 
L 313 1100 
L 313 1709 
L 2253 4666 
z
" transform="scale(0.015625)"/>
       </defs>
       <use xlink:href="#DejaVuSans-34"/>
       <use xlink:href="#DejaVuSans-30" transform="translate(63.623047 0)"/>
      </g>
     </g>
    </g>
    <g id="text_4">
     <!-- Slot de inventario (ordenado por ventaja de A) -->
     <g transform="translate(61.614375 362.516875) scale(0.36 -0.36)">
      <defs>
       <path id="DejaVuSans-53" d="M 3425 4513 
L 3425 3897 
Q 3066 4069 2747 4153 
Q 2428 4238 2131 4238 
Q 1616 4238 1336 4038 
Q 1056 3838 1056 3469 
Q 1056 3159 1242 3001 
Q 1428 2844 1947 2747 
L 2328 2669 
Q 3034 2534 3370 2195 
Q 3706 1856 3706 1288 
Q 3706 609 3251 259 
Q 2797 -91 1919 -91 
Q 1588 -91 1214 -16 
Q 841 59 441 206 
L 441 856 
Q 825 641 1194 531 
Q 1563 422 1919 422 
Q 2459 422 2753 634 
Q 3047 847 3047 1241 
Q 3047 1584 2836 1778 
Q 2625 1972 2144 2069 
L 1759 2144 
Q 1053 2284 737 2584 
Q 422 2884 422 3419 
Q 422 4038 858 4394 
Q 1294 4750 2059 4750 
Q 2388 4750 2728 4690 
Q 3069 4631 3425 4513 
z
" transform="scale(0.015625)"/>
       <path id="DejaVuSans-6c" d="M 603 4863 
L 1178 4863 
L 1178 0 
L 603 0 
L 603 4863 
z
" transform="scale(0.015625)"/>
       <path id="DejaVuSans-6f" d="M 1959 3097 
Q 1497 3097 1228 2736 
Q 959 2375 959 1747 
Q 959 1119 1226 758 
Q 1494 397 1959 397 
Q 2419 397 2687 759 
Q 2956 1122 2956 1747 
Q 2956 2369 2687 2733 
Q 2419 3097 1959 3097 
z
M 1959 3584 
Q 2709 3584 3137 3096 
Q 3566 2609 3566 1747 
Q 3566 888 3137 398 
Q 2709 -91 1959 -91 
Q 1206 -91 779 398 
Q 353 888 353 1747 
Q 353 2609 779 3096 
Q 1206 3584 1959 3584 
z
" transform="scale(0.015625)"/>
       <path id="DejaVuSans-74" d="M 1172 4494 
L 1172 3500 
L 2356 3500 
L 2356 3053 
L 1172 3053 
L 1172 1153 
Q 1172 725 1289 603 
Q 1406 481 1766 481 
L 2356 481 
L 2356 0 
L 1766 0 
Q 1100 0 847 248 
Q 594 497 594 1153 
L 594 3053 
L 172 3053 
L 172 3500 
L 594 3500 
L 594 4494 
L 1172 4494 
z
" transform="scale(0.015625)"/>
       <path id="DejaVuSans-20" transform="scale(0.015625)"/>
       <path id="DejaVuSans-64" d="M 2906 2969 
L 2906 4863 
L 3481 4863 
L 3481 0 
L 2906 0 
L 2906 525 
Q 2725 213 2448 61 
Q 2172 -91 1784 -91 
Q 1150 -91 751 415 
Q 353 922 353 1747 
Q 353 2572 751 3078 
Q 1150 3584 1784 3584 
Q 2172 3584 2448 3432 
Q 2725 3281 2906 2969 
z
M 947 1747 
Q 947 1113 1208 752 
Q 1469 391 1925 391 
Q 2381 391 2643 752 
Q 2906 1113 2906 1747 
Q 2906 2381 2643 2742 
Q 2381 3103 1925 3103 
Q 1469 3103 1208 2742 
Q 947 2381 947 1747 
z
" transform="scale(0.015625)"/>
       <path id="DejaVuSans-65" d="M 3597 1894 
L 3597 1613 
L 953 1613 
Q 991 1019 1311 708 
Q 1631 397 2203 397 
Q 2534 397 2845 478 
Q 3156 559 3463 722 
L 3463 178 
Q 3153 47 2828 -22 
Q 2503 -91 2169 -91 
Q 1331 -91 842 396 
Q 353 884 353 1716 
Q 353 2575 817 3079 
Q 1281 3584 2069 3584 
Q 2775 3584 3186 3129 
Q 3597 2675 3597 1894 
z
M 3022 2063 
Q 3016 2534 2758 2815 
Q 2500 3097 2075 3097 
Q 1594 3097 1305 2825 
Q 1016 2553 972 2059 
L 3022 2063 
z
" transform="scale(0.015625)"/>
       <path id="DejaVuSans-69" d="M 603 3500 
L 1178 3500 
L 1178 0 
L 603 0 
L 603 3500 
z
M 603 4863 
L 1178 4863 
L 1178 4134 
L 603 4134 
L 603 4863 
z
" transform="scale(0.015625)"/>
       <path id="DejaVuSans-6e" d="M 3513 2113 
L 3513 0 
L 2938 0 
L 2938 2094 
Q 2938 2591 2744 2837 
Q 2550 3084 2163 3084 
Q 1697 3084 1428 2787 
Q 1159 2491 1159 1978 
L 1159 0 
L 581 0 
L 581 3500 
L 1159 3500 
L 1159 2956 
Q 1366 3272 1645 3428 
Q 1925 3584 2291 3584 
Q 2894 3584 3203 3211 
Q 3513 2838 3513 2113 
z
" transform="scale(0.015625)"/>
       <path id="DejaVuSans-76" d="M 191 3500 
L 800 3500 
L 1894 563 
L 2988 3500 
L 3597 3500 
L 2284 0 
L 1503 0 
L 191 3500 
z
" transform="scale(0.015625)"/>
       <path id="DejaVuSans-61" d="M 2194 1759 
Q 1497 1759 1228 1600 
Q 959 1441 959 1056 
Q 959 750 1161 570 
Q 1363 391 1709 391 
Q 2188 391 2477 730 
Q 2766 1069 2766 1631 
L 2766 1759 
L 2194 1759 
z
M 3341 1997 
L 3341 0 
L 2766 0 
L 2766 531 
Q 2569 213 2275 61 
Q 1981 -91 1556 -91 
Q 1019 -91 701 211 
Q 384 513 384 1019 
Q 384 1609 779 1909 
Q 1175 2209 1959 2209 
L 2766 2209 
L 2766 2266 
Q 2766 2663 2505 2880 
Q 2244 3097 1772 3097 
Q 1472 3097 1187 3025 
Q 903 2953 641 2809 
L 641 3341 
Q 956 3463 1253 3523 
Q 1550 3584 1831 3584 
Q 2591 3584 2966 3190 
Q 3341 2797 3341 1997 
z
" transform="scale(0.015625)"/>
       <path id="DejaVuSans-72" d="M 2631 2963 
Q 2534 3019 2420 3045 
Q 2306 3072 2169 3072 
Q 1681 3072 1420 2755 
Q 1159 2438 1159 1844 
L 1159 0 
L 581 0 
L 581 3500 
L 1159 3500 
L 1159 2956 
Q 1341 3275 1631 3429 
Q 1922 3584 2338 3584 
Q 2397 3584 2469 3576 
Q 2541 3569 2628 3553 
L 2631 2963 
z
" transform="scale(0.015625)"/>
       <path id="DejaVuSans-28" d="M 1984 4856 
Q 1566 4138 1362 3434 
Q 1159 2731 1159 2009 
Q 1159 1288 1364 580 
Q 1569 -128 1984 -844 
L 1484 -844 
Q 1016 -109 783 600 
Q 550 1309 550 2009 
Q 550 2706 781 3412 
Q 1013 4119 1484 4856 
L 1984 4856 
z
" transform="scale(0.015625)"/>
       <path id="DejaVuSans-70" d="M 1159 525 
L 1159 -1331 
L 581 -1331 
L 581 3500 
L 1159 3500 
L 1159 2969 
Q 1341 3281 1617 3432 
Q 1894 3584 2278 3584 
Q 2916 3584 3314 3078 
Q 3713 2572 3713 1747 
Q 3713 922 3314 415 
Q 2916 -91 2278 -91 
Q 1894 -91 1617 61 
Q 1341 213 1159 525 
z
M 3116 1747 
Q 3116 2381 2855 2742 
Q 2594 3103 2138 3103 
Q 1681 3103 1420 2742 
Q 1159 2381 1159 1747 
Q 1159 1113 1420 752 
Q 1681 391 2138 391 
Q 2594 391 2855 752 
Q 3116 1113 3116 1747 
z
" transform="scale(0.015625)"/>
       <path id="DejaVuSans-6a" d="M 603 3500 
L 1178 3500 
L 1178 -63 
Q 1178 -731 923 -1031 
Q 669 -1331 103 -1331 
L -116 -1331 
L -116 -844 
L 38 -844 
Q 366 -844 484 -692 
Q 603 -541 603 -63 
L 603 3500 
z
M 603 4863 
L 1178 4863 
L 1178 4134 
L 603 4134 
L 603 4863 
z
" transform="scale(0.015625)"/>
       <path id="DejaVuSans-41" d="M 2188 4044 
L 1331 1722 
L 3047 1722 
L 2188 4044 
z
M 1831 4666 
L 2547 4666 
L 4325 0 
L 3669 0 
L 3244 1197 
L 1141 1197 
L 716 0 
L 50 0 
L 1831 4666 
z
" transform="scale(0.015625)"/>
       <path id="DejaVuSans-29" d="M 513 4856 
L 1013 4856 
Q 1481 4119 1714 3412 
Q 1947 2706 1947 2009 
Q 1947 1309 1714 600 
Q 1481 -109 1013 -844 
L 513 -844 
Q 928 -128 1133 580 
Q 1338 1288 1338 2009 
Q 1338 2731 1133 3434 
Q 928 4138 513 4856 
z
" transform="scale(0.015625)"/>
      </defs>
      <use xlink:href="#DejaVuSans-53"/>
      <use xlink:href="#DejaVuSans-6c" transform="translate(63.476562 0)"/>
      <use xlink:href="#DejaVuSans-6f" transform="translate(91.259766 0)"/>
      <use xlink:href="#DejaVuSans-74" transform="translate(152.441406 0)"/>
      <use xlink:href="#DejaVuSans-20" transform="translate(191.650391 0)"/>
      <use xlink:href="#DejaVuSans-64" transform="translate(223.4375 0)"/>
      <use xlink:href="#DejaVuSans-65" transform="translate(286.914062 0)"/>
      <use xlink:href="#DejaVuSans-20" transform="translate(348.4375 0)"/>
      <use xlink:href="#DejaVuSans-69" transform="translate(380.224609 0)"/>
      <use xlink:href="#DejaVuSans-6e" transform="translate(408.007812 0)"/>
      <use xlink:href="#DejaVuSans-76" transform="translate(471.386719 0)"/>
      <use xlink:href="#DejaVuSans-65" transform="translate(530.566406 0)"/>
      <use xlink:href="#DejaVuSans-6e" transform="translate(592.089844 0)"/>
      <use xlink:href="#DejaVuSans-74" transform="translate(655.46875 0)"/>
      <use xlink:href="#DejaVuSans-61" transform="translate(694.677734 0)"/>
      <use xlink:href="#DejaVuSans-72" transform="translate(755.957031 0)"/>
      <use xlink:href="#DejaVuSans-69" transform="translate(797.070312 0)"/>
      <use xlink:href="#DejaVuSans-6f" transform="translate(824.853516 0)"/>
      <use xlink:href="#DejaVuSans-20" transform="translate(886.035156 0)"/>
      <use xlink:href="#DejaVuSans-28" transform="translate(917.822266 0)"/>
      <use xlink:href="#DejaVuSans-6f" transform="translate(956.835938 0)"/>
      <use xlink:href="#DejaVuSans-72" transform="translate(1018.017578 0)"/>
      <use xlink:href="#DejaVuSans-64" transform="translate(1057.380859 0)"/>
      <use xlink:href="#DejaVuSans-65" transform="translate(1120.857422 0)"/>
      <use xlink:href="#DejaVuSans-6e" transform="translate(1182.380859 0)"/>
      <use xlink:href="#DejaVuSans-61" transform="translate(1245.759766 0)"/>
      <use xlink:href="#DejaVuSans-64" transform="translate(1307.039062 0)"/>
      <use xlink:href="#DejaVuSans-6f" transform="translate(1370.515625 0)"/>
      <use xlink:href="#DejaVuSans-20" transform="translate(1431.697266 0)"/>
      <use xlink:href="#DejaVuSans-70" transform="translate(1463.484375 0)"/>
      <use xlink:href="#DejaVuSans-6f" transform="translate(1526.960938 0)"/>
      <use xlink:href="#DejaVuSans-72" transform="translate(1588.142578 0)"/>
      <use xlink:href="#DejaVuSans-20" transform="translate(1629.255859 0)"/>
      <use xlink:href="#DejaVuSans-76" transform="translate(1661.042969 0)"/>
      <use xlink:href="#DejaVuSans-65" transform="translate(1720.222656 0)"/>
      <use xlink:href="#DejaVuSans-6e" transform="translate(1781.746094 0)"/>
      <use xlink:href="#DejaVuSans-74" transform="translate(1845.125 0)"/>
      <use xlink:href="#DejaVuSans-61" transform="translate(1884.333984 0)"/>
      <use xlink:href="#DejaVuSans-6a" transform="translate(1945.613281 0)"/>
      <use xlink:href="#DejaVuSans-61" transform="translate(1973.396484 0)"/>
      <use xlink:href="#DejaVuSans-20" transform="translate(2034.675781 0)"/>
      <use xlink:href="#DejaVuSans-64" transform="translate(2066.462891 0)"/>
      <use xlink:href="#DejaVuSans-65" transform="translate(2129.939453 0)"/>
      <use xlink:href="#DejaVuSans-20" transform="translate(2191.462891 0)"/>
      <use xlink:href="#DejaVuSans-41" transform="translate(2223.25 0)"/>
      <use xlink:href="#DejaVuSans-29" transform="translate(2291.658203 0)"/>
     </g>
    </g>
   </g>
   <g id="matplotlib.axis_2">
    <g id="ytick_1">
     <g id="line2d_4">
      <path d="M 303.87625 293.1925 
L 658.41125 293.1925 
" clip-path="url(#p4f6db9f020)" style="fill: none; stroke: #b0b0b0; stroke-opacity: 0.3; stroke-width: 0.8; stroke-linecap: square"/>
     </g>
     <g id="line2d_5">
      <defs>
       <path id="mf38f84e653" d="M 0 0 
L -3.5 0 
" style="stroke: #000000; stroke-width: 0.8"/>
      </defs>
      <g>
       <use xlink:href="#mf38f84e653" x="303.87625" y="293.1925" style="stroke: #000000; stroke-width: 0.8"/>
      </g>
     </g>
     <g id="text_5">
      <!-- 0.00 -->
      <g transform="translate(225.62625 305.35) scale(0.32 -0.32)">
       <defs>
        <path id="DejaVuSans-2e" d="M 684 794 
L 1344 794 
L 1344 0 
L 684 0 
L 684 794 
z
" transform="scale(0.015625)"/>
       </defs>
       <use xlink:href="#DejaVuSans-30"/>
       <use xlink:href="#DejaVuSans-2e" transform="translate(63.623047 0)"/>
       <use xlink:href="#DejaVuSans-30" transform="translate(95.410156 0)"/>
       <use xlink:href="#DejaVuSans-30" transform="translate(159.033203 0)"/>
      </g>
     </g>
    </g>
    <g id="ytick_2">
     <g id="line2d_6">
      <path d="M 303.87625 204.306953 
L 658.41125 204.306953 
" clip-path="url(#p4f6db9f020)" style="fill: none; stroke: #b0b0b0; stroke-opacity: 0.3; stroke-width: 0.8; stroke-linecap: square"/>
     </g>
     <g id="line2d_7">
      <g>
       <use xlink:href="#mf38f84e653" x="303.87625" y="204.306953" style="stroke: #000000; stroke-width: 0.8"/>
      </g>
     </g>
     <g id="text_6">
      <!-- 0.25 -->
      <g transform="translate(225.62625 216.464453) scale(0.32 -0.32)">
       <defs>
        <path id="DejaVuSans-35" d="M 691 4666 
L 3169 4666 
L 3169 4134 
L 1269 4134 
L 1269 2991 
Q 1406 3038 1543 3061 
Q 1681 3084 1819 3084 
Q 2600 3084 3056 2656 
Q 3513 2228 3513 1497 
Q 3513 744 3044 326 
Q 2575 -91 1722 -91 
Q 1428 -91 1123 -41 
Q 819 9 494 109 
L 494 744 
Q 775 591 1075 516 
Q 1375 441 1709 441 
Q 2250 441 2565 725 
Q 2881 1009 2881 1497 
Q 2881 1984 2565 2268 
Q 2250 2553 1709 2553 
Q 1456 2553 1204 2497 
Q 953 2441 691 2322 
L 691 4666 
z
" transform="scale(0.015625)"/>
       </defs>
       <use xlink:href="#DejaVuSans-30"/>
       <use xlink:href="#DejaVuSans-2e" transform="translate(63.623047 0)"/>
       <use xlink:href="#DejaVuSans-32" transform="translate(95.410156 0)"/>
       <use xlink:href="#DejaVuSans-35" transform="translate(159.033203 0)"/>
      </g>
     </g>
    </g>
    <g id="ytick_3">
     <g id="line2d_8">
      <path d="M 303.87625 115.421406 
L 658.41125 115.421406 
" clip-path="url(#p4f6db9f020)" style="fill: none; stroke: #b0b0b0; stroke-opacity: 0.3; stroke-width: 0.8; stroke-linecap: square"/>
     </g>
     <g id="line2d_9">
      <g>
       <use xlink:href="#mf38f84e653" x="303.87625" y="115.421406" style="stroke: #000000; stroke-width: 0.8"/>
      </g>
     </g>
     <g id="text_7">
      <!-- 0.50 -->
      <g transform="translate(225.62625 127.578906) scale(0.32 -0.32)">
       <use xlink:href="#DejaVuSans-30"/>
       <use xlink:href="#DejaVuSans-2e" transform="translate(63.623047 0)"/>
       <use xlink:href="#DejaVuSans-35" transform="translate(95.410156 0)"/>
       <use xlink:href="#DejaVuSans-30" transform="translate(159.033203 0)"/>
      </g>
     </g>
    </g>
    <g id="text_8">
     <!-- Valor esperado por impresión (CTR × CPC, $) -->
     <g transform="translate(214.139375 576.620937) rotate(-90) scale(0.36 -0.36)">
      <defs>
       <path id="DejaVuSans-56" d="M 1831 0 
L 50 4666 
L 709 4666 
L 2188 738 
L 3669 4666 
L 4325 4666 
L 2547 0 
L 1831 0 
z
" transform="scale(0.015625)"/>
       <path id="DejaVuSans-73" d="M 2834 3397 
L 2834 2853 
Q 2591 2978 2328 3040 
Q 2066 3103 1784 3103 
Q 1356 3103 1142 2972 
Q 928 2841 928 2578 
Q 928 2378 1081 2264 
Q 1234 2150 1697 2047 
L 1894 2003 
Q 2506 1872 2764 1633 
Q 3022 1394 3022 966 
Q 3022 478 2636 193 
Q 2250 -91 1575 -91 
Q 1294 -91 989 -36 
Q 684 19 347 128 
L 347 722 
Q 666 556 975 473 
Q 1284 391 1588 391 
Q 1994 391 2212 530 
Q 2431 669 2431 922 
Q 2431 1156 2273 1281 
Q 2116 1406 1581 1522 
L 1381 1569 
Q 847 1681 609 1914 
Q 372 2147 372 2553 
Q 372 3047 722 3315 
Q 1072 3584 1716 3584 
Q 2034 3584 2315 3537 
Q 2597 3491 2834 3397 
z
" transform="scale(0.015625)"/>
       <path id="DejaVuSans-6d" d="M 3328 2828 
Q 3544 3216 3844 3400 
Q 4144 3584 4550 3584 
Q 5097 3584 5394 3201 
Q 5691 2819 5691 2113 
L 5691 0 
L 5113 0 
L 5113 2094 
Q 5113 2597 4934 2840 
Q 4756 3084 4391 3084 
Q 3944 3084 3684 2787 
Q 3425 2491 3425 1978 
L 3425 0 
L 2847 0 
L 2847 2094 
Q 2847 2600 2669 2842 
Q 2491 3084 2119 3084 
Q 1678 3084 1418 2786 
Q 1159 2488 1159 1978 
L 1159 0 
L 581 0 
L 581 3500 
L 1159 3500 
L 1159 2956 
Q 1356 3278 1631 3431 
Q 1906 3584 2284 3584 
Q 2666 3584 2933 3390 
Q 3200 3197 3328 2828 
z
" transform="scale(0.015625)"/>
       <path id="DejaVuSans-f3" d="M 1959 3097 
Q 1497 3097 1228 2736 
Q 959 2375 959 1747 
Q 959 1119 1226 758 
Q 1494 397 1959 397 
Q 2419 397 2687 759 
Q 2956 1122 2956 1747 
Q 2956 2369 2687 2733 
Q 2419 3097 1959 3097 
z
M 1959 3584 
Q 2709 3584 3137 3096 
Q 3566 2609 3566 1747 
Q 3566 888 3137 398 
Q 2709 -91 1959 -91 
Q 1206 -91 779 398 
Q 353 888 353 1747 
Q 353 2609 779 3096 
Q 1206 3584 1959 3584 
z
M 2394 5119 
L 3016 5119 
L 1998 3944 
L 1519 3944 
L 2394 5119 
z
" transform="scale(0.015625)"/>
       <path id="DejaVuSans-43" d="M 4122 4306 
L 4122 3641 
Q 3803 3938 3442 4084 
Q 3081 4231 2675 4231 
Q 1875 4231 1450 3742 
Q 1025 3253 1025 2328 
Q 1025 1406 1450 917 
Q 1875 428 2675 428 
Q 3081 428 3442 575 
Q 3803 722 4122 1019 
L 4122 359 
Q 3791 134 3420 21 
Q 3050 -91 2638 -91 
Q 1578 -91 968 557 
Q 359 1206 359 2328 
Q 359 3453 968 4101 
Q 1578 4750 2638 4750 
Q 3056 4750 3426 4639 
Q 3797 4528 4122 4306 
z
" transform="scale(0.015625)"/>
       <path id="DejaVuSans-54" d="M -19 4666 
L 3928 4666 
L 3928 4134 
L 2272 4134 
L 2272 0 
L 1638 0 
L 1638 4134 
L -19 4134 
L -19 4666 
z
" transform="scale(0.015625)"/>
       <path id="DejaVuSans-52" d="M 2841 2188 
Q 3044 2119 3236 1894 
Q 3428 1669 3622 1275 
L 4263 0 
L 3584 0 
L 2988 1197 
Q 2756 1666 2539 1819 
Q 2322 1972 1947 1972 
L 1259 1972 
L 1259 0 
L 628 0 
L 628 4666 
L 2053 4666 
Q 2853 4666 3247 4331 
Q 3641 3997 3641 3322 
Q 3641 2881 3436 2590 
Q 3231 2300 2841 2188 
z
M 1259 4147 
L 1259 2491 
L 2053 2491 
Q 2509 2491 2742 2702 
Q 2975 2913 2975 3322 
Q 2975 3731 2742 3939 
Q 2509 4147 2053 4147 
L 1259 4147 
z
" transform="scale(0.015625)"/>
       <path id="DejaVuSans-d7" d="M 4488 3438 
L 3059 2003 
L 4488 575 
L 4116 197 
L 2681 1631 
L 1247 197 
L 878 575 
L 2303 2003 
L 878 3438 
L 1247 3816 
L 2681 2381 
L 4116 3816 
L 4488 3438 
z
" transform="scale(0.015625)"/>
       <path id="DejaVuSans-50" d="M 1259 4147 
L 1259 2394 
L 2053 2394 
Q 2494 2394 2734 2622 
Q 2975 2850 2975 3272 
Q 2975 3691 2734 3919 
Q 2494 4147 2053 4147 
L 1259 4147 
z
M 628 4666 
L 2053 4666 
Q 2838 4666 3239 4311 
Q 3641 3956 3641 3272 
Q 3641 2581 3239 2228 
Q 2838 1875 2053 1875 
L 1259 1875 
L 1259 0 
L 628 0 
L 628 4666 
z
" transform="scale(0.015625)"/>
       <path id="DejaVuSans-2c" d="M 750 794 
L 1409 794 
L 1409 256 
L 897 -744 
L 494 -744 
L 750 256 
L 750 794 
z
" transform="scale(0.015625)"/>
       <path id="DejaVuSans-24" d="M 2163 -941 
L 1850 -941 
L 1847 0 
Q 1519 6 1191 76 
Q 863 147 531 288 
L 531 850 
Q 850 650 1176 548 
Q 1503 447 1850 444 
L 1850 1869 
Q 1159 1981 845 2250 
Q 531 2519 531 2988 
Q 531 3497 872 3790 
Q 1213 4084 1850 4128 
L 1850 4863 
L 2163 4863 
L 2163 4138 
Q 2453 4125 2725 4076 
Q 2997 4028 3256 3944 
L 3256 3397 
Q 2997 3528 2723 3600 
Q 2450 3672 2163 3684 
L 2163 2350 
Q 2872 2241 3206 1959 
Q 3541 1678 3541 1191 
Q 3541 663 3186 358 
Q 2831 53 2163 6 
L 2163 -941 
z
M 1850 2406 
L 1850 3688 
Q 1488 3647 1297 3481 
Q 1106 3316 1106 3041 
Q 1106 2772 1282 2622 
Q 1459 2472 1850 2406 
z
M 2163 1806 
L 2163 453 
Q 2559 506 2761 678 
Q 2963 850 2963 1131 
Q 2963 1406 2770 1568 
Q 2578 1731 2163 1806 
z
" transform="scale(0.015625)"/>
      </defs>
      <use xlink:href="#DejaVuSans-56"/>
      <use xlink:href="#DejaVuSans-61" transform="translate(60.658203 0)"/>
      <use xlink:href="#DejaVuSans-6c" transform="translate(121.9375 0)"/>
      <use xlink:href="#DejaVuSans-6f" transform="translate(149.720703 0)"/>
      <use xlink:href="#DejaVuSans-72" transform="translate(210.902344 0)"/>
      <use xlink:href="#DejaVuSans-20" transform="translate(252.015625 0)"/>
      <use xlink:href="#DejaVuSans-65" transform="translate(283.802734 0)"/>
      <use xlink:href="#DejaVuSans-73" transform="translate(345.326172 0)"/>
      <use xlink:href="#DejaVuSans-70" transform="translate(397.425781 0)"/>
      <use xlink:href="#DejaVuSans-65" transform="translate(460.902344 0)"/>
      <use xlink:href="#DejaVuSans-72" transform="translate(522.425781 0)"/>
      <use xlink:href="#DejaVuSans-61" transform="translate(563.539062 0)"/>
      <use xlink:href="#DejaVuSans-64" transform="translate(624.818359 0)"/>
      <use xlink:href="#DejaVuSans-6f" transform="translate(688.294922 0)"/>
      <use xlink:href="#DejaVuSans-20" transform="translate(749.476562 0)"/>
      <use xlink:href="#DejaVuSans-70" transform="translate(781.263672 0)"/>
      <use xlink:href="#DejaVuSans-6f" transform="translate(844.740234 0)"/>
      <use xlink:href="#DejaVuSans-72" transform="translate(905.921875 0)"/>
      <use xlink:href="#DejaVuSans-20" transform="translate(947.035156 0)"/>
      <use xlink:href="#DejaVuSans-69" transform="translate(978.822266 0)"/>
      <use xlink:href="#DejaVuSans-6d" transform="translate(1006.605469 0)"/>
      <use xlink:href="#DejaVuSans-70" transform="translate(1104.017578 0)"/>
      <use xlink:href="#DejaVuSans-72" transform="translate(1167.494141 0)"/>
      <use xlink:href="#DejaVuSans-65" transform="translate(1206.357422 0)"/>
      <use xlink:href="#DejaVuSans-73" transform="translate(1267.880859 0)"/>
      <use xlink:href="#DejaVuSans-69" transform="translate(1319.980469 0)"/>
      <use xlink:href="#DejaVuSans-f3" transform="translate(1347.763672 0)"/>
      <use xlink:href="#DejaVuSans-6e" transform="translate(1408.945312 0)"/>
      <use xlink:href="#DejaVuSans-20" transform="translate(1472.324219 0)"/>
      <use xlink:href="#DejaVuSans-28" transform="translate(1504.111328 0)"/>
      <use xlink:href="#DejaVuSans-43" transform="translate(1543.125 0)"/>
      <use xlink:href="#DejaVuSans-54" transform="translate(1612.949219 0)"/>
      <use xlink:href="#DejaVuSans-52" transform="translate(1674.033203 0)"/>
      <use xlink:href="#DejaVuSans-20" transform="translate(1743.515625 0)"/>
      <use xlink:href="#DejaVuSans-d7" transform="translate(1775.302734 0)"/>
      <use xlink:href="#DejaVuSans-20" transform="translate(1859.091797 0)"/>
      <use xlink:href="#DejaVuSans-43" transform="translate(1890.878906 0)"/>
      <use xlink:href="#DejaVuSans-50" transform="translate(1960.703125 0)"/>
      <use xlink:href="#DejaVuSans-43" transform="translate(2021.005859 0)"/>
      <use xlink:href="#DejaVuSans-2c" transform="translate(2090.830078 0)"/>
      <use xlink:href="#DejaVuSans-20" transform="translate(2122.617188 0)"/>
      <use xlink:href="#DejaVuSans-24" transform="translate(2154.404297 0)"/>
      <use xlink:href="#DejaVuSans-29" transform="translate(2218.027344 0)"/>
     </g>
    </g>
   </g>
   <g id="patch_103">
    <path d="M 303.87625 293.1925 
L 303.87625 47.5125 
" style="fill: none; stroke: #000000; stroke-width: 0.8; stroke-linejoin: miter; stroke-linecap: square"/>
   </g>
   <g id="patch_104">
    <path d="M 658.41125 293.1925 
L 658.41125 47.5125 
" style="fill: none; stroke: #000000; stroke-width: 0.8; stroke-linejoin: miter; stroke-linecap: square"/>
   </g>
   <g id="patch_105">
    <path d="M 303.87625 293.1925 
L 658.41125 293.1925 
" style="fill: none; stroke: #000000; stroke-width: 0.8; stroke-linejoin: miter; stroke-linecap: square"/>
   </g>
   <g id="patch_106">
    <path d="M 303.87625 47.5125 
L 658.41125 47.5125 
" style="fill: none; stroke: #000000; stroke-width: 0.8; stroke-linejoin: miter; stroke-linecap: square"/>
   </g>
   <g id="text_9">
    <!-- Valor por impresión — ambos clientes positivos -->
    <g transform="translate(7.2 39.19375) scale(0.4 -0.4)">
     <defs>
      <path id="DejaVuSans-2014" d="M 313 1978 
L 6088 1978 
L 6088 1528 
L 313 1528 
L 313 1978 
z
" transform="scale(0.015625)"/>
      <path id="DejaVuSans-62" d="M 3116 1747 
Q 3116 2381 2855 2742 
Q 2594 3103 2138 3103 
Q 1681 3103 1420 2742 
Q 1159 2381 1159 1747 
Q 1159 1113 1420 752 
Q 1681 391 2138 391 
Q 2594 391 2855 752 
Q 3116 1113 3116 1747 
z
M 1159 2969 
Q 1341 3281 1617 3432 
Q 1894 3584 2278 3584 
Q 2916 3584 3314 3078 
Q 3713 2572 3713 1747 
Q 3713 922 3314 415 
Q 2916 -91 2278 -91 
Q 1894 -91 1617 61 
Q 1341 213 1159 525 
L 1159 0 
L 581 0 
L 581 4863 
L 1159 4863 
L 1159 2969 
z
" transform="scale(0.015625)"/>
      <path id="DejaVuSans-63" d="M 3122 3366 
L 3122 2828 
Q 2878 2963 2633 3030 
Q 2388 3097 2138 3097 
Q 1578 3097 1268 2742 
Q 959 2388 959 1747 
Q 959 1106 1268 751 
Q 1578 397 2138 397 
Q 2388 397 2633 464 
Q 2878 531 3122 666 
L 3122 134 
Q 2881 22 2623 -34 
Q 2366 -91 2075 -91 
Q 1284 -91 818 406 
Q 353 903 353 1747 
Q 353 2603 823 3093 
Q 1294 3584 2113 3584 
Q 2378 3584 2631 3529 
Q 2884 3475 3122 3366 
z
" transform="scale(0.015625)"/>
     </defs>
     <use xlink:href="#DejaVuSans-56"/>
     <use xlink:href="#DejaVuSans-61" transform="translate(60.658203 0)"/>
     <use xlink:href="#DejaVuSans-6c" transform="translate(121.9375 0)"/>
     <use xlink:href="#DejaVuSans-6f" transform="translate(149.720703 0)"/>
     <use xlink:href="#DejaVuSans-72" transform="translate(210.902344 0)"/>
     <use xlink:href="#DejaVuSans-20" transform="translate(252.015625 0)"/>
     <use xlink:href="#DejaVuSans-70" transform="translate(283.802734 0)"/>
     <use xlink:href="#DejaVuSans-6f" transform="translate(347.279297 0)"/>
     <use xlink:href="#DejaVuSans-72" transform="translate(408.460938 0)"/>
     <use xlink:href="#DejaVuSans-20" transform="translate(449.574219 0)"/>
     <use xlink:href="#DejaVuSans-69" transform="translate(481.361328 0)"/>
     <use xlink:href="#DejaVuSans-6d" transform="translate(509.144531 0)"/>
     <use xlink:href="#DejaVuSans-70" transform="translate(606.556641 0)"/>
     <use xlink:href="#DejaVuSans-72" transform="translate(670.033203 0)"/>
     <use xlink:href="#DejaVuSans-65" transform="translate(708.896484 0)"/>
     <use xlink:href="#DejaVuSans-73" transform="translate(770.419922 0)"/>
     <use xlink:href="#DejaVuSans-69" transform="translate(822.519531 0)"/>
     <use xlink:href="#DejaVuSans-f3" transform="translate(850.302734 0)"/>
     <use xlink:href="#DejaVuSans-6e" transform="translate(911.484375 0)"/>
     <use xlink:href="#DejaVuSans-20" transform="translate(974.863281 0)"/>
     <use xlink:href="#DejaVuSans-2014" transform="translate(1006.650391 0)"/>
     <use xlink:href="#DejaVuSans-20" transform="translate(1106.650391 0)"/>
     <use xlink:href="#DejaVuSans-61" transform="translate(1138.4375 0)"/>
     <use xlink:href="#DejaVuSans-6d" transform="translate(1199.716797 0)"/>
     <use xlink:href="#DejaVuSans-62" transform="translate(1297.128906 0)"/>
     <use xlink:href="#DejaVuSans-6f" transform="translate(1360.605469 0)"/>
     <use xlink:href="#DejaVuSans-73" transform="translate(1421.787109 0)"/>
     <use xlink:href="#DejaVuSans-20" transform="translate(1473.886719 0)"/>
     <use xlink:href="#DejaVuSans-63" transform="translate(1505.673828 0)"/>
     <use xlink:href="#DejaVuSans-6c" transform="translate(1560.654297 0)"/>
     <use xlink:href="#DejaVuSans-69" transform="translate(1588.4375 0)"/>
     <use xlink:href="#DejaVuSans-65" transform="translate(1616.220703 0)"/>
     <use xlink:href="#DejaVuSans-6e" transform="translate(1677.744141 0)"/>
     <use xlink:href="#DejaVuSans-74" transform="translate(1741.123047 0)"/>
     <use xlink:href="#DejaVuSans-65" transform="translate(1780.332031 0)"/>
     <use xlink:href="#DejaVuSans-73" transform="translate(1841.855469 0)"/>
     <use xlink:href="#DejaVuSans-20" transform="translate(1893.955078 0)"/>
     <use xlink:href="#DejaVuSans-70" transform="translate(1925.742188 0)"/>
     <use xlink:href="#DejaVuSans-6f" transform="translate(1989.21875 0)"/>
     <use xlink:href="#DejaVuSans-73" transform="translate(2050.400391 0)"/>
     <use xlink:href="#DejaVuSans-69" transform="translate(2102.5 0)"/>
     <use xlink:href="#DejaVuSans-74" transform="translate(2130.283203 0)"/>
     <use xlink:href="#DejaVuSans-69" transform="translate(2169.492188 0)"/>
     <use xlink:href="#DejaVuSans-76" transform="translate(2197.275391 0)"/>
     <use xlink:href="#DejaVuSans-6f" transform="translate(2256.455078 0)"/>
     <use xlink:href="#DejaVuSans-73" transform="translate(2317.636719 0)"/>
    </g>
   </g>
   <g id="legend_1">
    <g id="patch_107">
     <path d="M 312.27625 92.34 
L 547.195 92.34 
Q 549.595 92.34 549.595 89.94 
L 549.595 55.9125 
Q 549.595 53.5125 547.195 53.5125 
L 312.27625 53.5125 
Q 309.87625 53.5125 309.87625 55.9125 
L 309.87625 89.94 
Q 309.87625 92.34 312.27625 92.34 
z
" style="fill: #ffffff; opacity: 0.8; stroke: #cccccc; stroke-linejoin: miter"/>
    </g>
    <g id="patch_108">
     <path d="M 314.67625 67.430625 
L 338.67625 67.430625 
L 338.67625 59.030625 
L 314.67625 59.030625 
z
" style="fill: #2196f3; opacity: 0.8"/>
    </g>
    <g id="text_10">
     <!-- Cliente A (CPC=$2.0, CTR≈15%) -->
     <g transform="translate(348.27625 67.430625) scale(0.12 -0.12)">
      <defs>
       <path id="DejaVuSans-3d" d="M 678 2906 
L 4684 2906 
L 4684 2381 
L 678 2381 
L 678 2906 
z
M 678 1631 
L 4684 1631 
L 4684 1100 
L 678 1100 
L 678 1631 
z
" transform="scale(0.015625)"/>
       <path id="DejaVuSans-2248" d="M 4684 1947 
L 4684 1388 
Q 4356 1144 4076 1036 
Q 3797 928 3494 928 
Q 3150 928 2694 1113 
Q 2663 1125 2641 1134 
Q 2622 1141 2575 1159 
Q 2091 1350 1797 1350 
Q 1522 1350 1253 1231 
Q 984 1113 678 850 
L 678 1409 
Q 1006 1653 1286 1761 
Q 1566 1869 1869 1869 
Q 2213 1869 2672 1684 
Q 2706 1669 2722 1663 
Q 2741 1656 2788 1638 
Q 3272 1447 3566 1447 
Q 3834 1447 4098 1564 
Q 4363 1681 4684 1947 
z
M 4684 3163 
L 4684 2606 
Q 4356 2359 4076 2251 
Q 3797 2144 3494 2144 
Q 3150 2144 2694 2328 
Q 2663 2341 2641 2350 
Q 2622 2356 2575 2375 
Q 2091 2566 1797 2566 
Q 1522 2566 1253 2447 
Q 984 2328 678 2069 
L 678 2625 
Q 1006 2869 1286 2976 
Q 1566 3084 1869 3084 
Q 2213 3084 2672 2900 
Q 2703 2888 2719 2881 
Q 2741 2872 2788 2853 
Q 3272 2663 3566 2663 
Q 3834 2663 4098 2780 
Q 4363 2897 4684 3163 
z
" transform="scale(0.015625)"/>
       <path id="DejaVuSans-31" d="M 794 531 
L 1825 531 
L 1825 4091 
L 703 3866 
L 703 4441 
L 1819 4666 
L 2450 4666 
L 2450 531 
L 3481 531 
L 3481 0 
L 794 0 
L 794 531 
z
" transform="scale(0.015625)"/>
       <path id="DejaVuSans-25" d="M 4653 2053 
Q 4381 2053 4226 1822 
Q 4072 1591 4072 1178 
Q 4072 772 4226 539 
Q 4381 306 4653 306 
Q 4919 306 5073 539 
Q 5228 772 5228 1178 
Q 5228 1588 5073 1820 
Q 4919 2053 4653 2053 
z
M 4653 2450 
Q 5147 2450 5437 2106 
Q 5728 1763 5728 1178 
Q 5728 594 5436 251 
Q 5144 -91 4653 -91 
Q 4153 -91 3862 251 
Q 3572 594 3572 1178 
Q 3572 1766 3864 2108 
Q 4156 2450 4653 2450 
z
M 1428 4353 
Q 1159 4353 1004 4120 
Q 850 3888 850 3481 
Q 850 3069 1003 2837 
Q 1156 2606 1428 2606 
Q 1700 2606 1854 2837 
Q 2009 3069 2009 3481 
Q 2009 3884 1853 4118 
Q 1697 4353 1428 4353 
z
M 4250 4750 
L 4750 4750 
L 1831 -91 
L 1331 -91 
L 4250 4750 
z
M 1428 4750 
Q 1922 4750 2215 4408 
Q 2509 4066 2509 3481 
Q 2509 2891 2217 2550 
Q 1925 2209 1428 2209 
Q 931 2209 642 2551 
Q 353 2894 353 3481 
Q 353 4063 643 4406 
Q 934 4750 1428 4750 
z
" transform="scale(0.015625)"/>
      </defs>
      <use xlink:href="#DejaVuSans-43"/>
      <use xlink:href="#DejaVuSans-6c" transform="translate(69.824219 0)"/>
      <use xlink:href="#DejaVuSans-69" transform="translate(97.607422 0)"/>
      <use xlink:href="#DejaVuSans-65" transform="translate(125.390625 0)"/>
      <use xlink:href="#DejaVuSans-6e" transform="translate(186.914062 0)"/>
      <use xlink:href="#DejaVuSans-74" transform="translate(250.292969 0)"/>
      <use xlink:href="#DejaVuSans-65" transform="translate(289.501953 0)"/>
      <use xlink:href="#DejaVuSans-20" transform="translate(351.025391 0)"/>
      <use xlink:href="#DejaVuSans-41" transform="translate(382.8125 0)"/>
      <use xlink:href="#DejaVuSans-20" transform="translate(451.220703 0)"/>
      <use xlink:href="#DejaVuSans-28" transform="translate(483.007812 0)"/>
      <use xlink:href="#DejaVuSans-43" transform="translate(522.021484 0)"/>
      <use xlink:href="#DejaVuSans-50" transform="translate(591.845703 0)"/>
      <use xlink:href="#DejaVuSans-43" transform="translate(652.148438 0)"/>
      <use xlink:href="#DejaVuSans-3d" transform="translate(721.972656 0)"/>
      <use xlink:href="#DejaVuSans-24" transform="translate(805.761719 0)"/>
      <use xlink:href="#DejaVuSans-32" transform="translate(869.384766 0)"/>
      <use xlink:href="#DejaVuSans-2e" transform="translate(933.007812 0)"/>
      <use xlink:href="#DejaVuSans-30" transform="translate(964.794922 0)"/>
      <use xlink:href="#DejaVuSans-2c" transform="translate(1028.417969 0)"/>
      <use xlink:href="#DejaVuSans-20" transform="translate(1060.205078 0)"/>
      <use xlink:href="#DejaVuSans-43" transform="translate(1091.992188 0)"/>
      <use xlink:href="#DejaVuSans-54" transform="translate(1161.816406 0)"/>
      <use xlink:href="#DejaVuSans-52" transform="translate(1222.900391 0)"/>
      <use xlink:href="#DejaVuSans-2248" transform="translate(1292.382812 0)"/>
      <use xlink:href="#DejaVuSans-31" transform="translate(1376.171875 0)"/>
      <use xlink:href="#DejaVuSans-35" transform="translate(1439.794922 0)"/>
      <use xlink:href="#DejaVuSans-25" transform="translate(1503.417969 0)"/>
      <use xlink:href="#DejaVuSans-29" transform="translate(1598.4375 0)"/>
     </g>
    </g>
    <g id="patch_109">
     <path d="M 314.67625 85.044375 
L 338.67625 85.044375 
L 338.67625 76.644375 
L 314.67625 76.644375 
z
" style="fill: #f44336; opacity: 0.8"/>
    </g>
    <g id="text_11">
     <!-- Cliente B (CPC=$0.8, CTR≈25%) -->
     <g transform="translate(348.27625 85.044375) scale(0.12 -0.12)">
      <defs>
       <path id="DejaVuSans-42" d="M 1259 2228 
L 1259 519 
L 2272 519 
Q 2781 519 3026 730 
Q 3272 941 3272 1375 
Q 3272 1813 3026 2020 
Q 2781 2228 2272 2228 
L 1259 2228 
z
M 1259 4147 
L 1259 2741 
L 2194 2741 
Q 2656 2741 2882 2914 
Q 3109 3088 3109 3444 
Q 3109 3797 2882 3972 
Q 2656 4147 2194 4147 
L 1259 4147 
z
M 628 4666 
L 2241 4666 
Q 2963 4666 3353 4366 
Q 3744 4066 3744 3513 
Q 3744 3084 3544 2831 
Q 3344 2578 2956 2516 
Q 3422 2416 3680 2098 
Q 3938 1781 3938 1306 
Q 3938 681 3513 340 
Q 3088 0 2303 0 
L 628 0 
L 628 4666 
z
" transform="scale(0.015625)"/>
       <path id="DejaVuSans-38" d="M 2034 2216 
Q 1584 2216 1326 1975 
Q 1069 1734 1069 1313 
Q 1069 891 1326 650 
Q 1584 409 2034 409 
Q 2484 409 2743 651 
Q 3003 894 3003 1313 
Q 3003 1734 2745 1975 
Q 2488 2216 2034 2216 
z
M 1403 2484 
Q 997 2584 770 2862 
Q 544 3141 544 3541 
Q 544 4100 942 4425 
Q 1341 4750 2034 4750 
Q 2731 4750 3128 4425 
Q 3525 4100 3525 3541 
Q 3525 3141 3298 2862 
Q 3072 2584 2669 2484 
Q 3125 2378 3379 2068 
Q 3634 1759 3634 1313 
Q 3634 634 3220 271 
Q 2806 -91 2034 -91 
Q 1263 -91 848 271 
Q 434 634 434 1313 
Q 434 1759 690 2068 
Q 947 2378 1403 2484 
z
M 1172 3481 
Q 1172 3119 1398 2916 
Q 1625 2713 2034 2713 
Q 2441 2713 2670 2916 
Q 2900 3119 2900 3481 
Q 2900 3844 2670 4047 
Q 2441 4250 2034 4250 
Q 1625 4250 1398 4047 
Q 1172 3844 1172 3481 
z
" transform="scale(0.015625)"/>
      </defs>
      <use xlink:href="#DejaVuSans-43"/>
      <use xlink:href="#DejaVuSans-6c" transform="translate(69.824219 0)"/>
      <use xlink:href="#DejaVuSans-69" transform="translate(97.607422 0)"/>
      <use xlink:href="#DejaVuSans-65" transform="translate(125.390625 0)"/>
      <use xlink:href="#DejaVuSans-6e" transform="translate(186.914062 0)"/>
      <use xlink:href="#DejaVuSans-74" transform="translate(250.292969 0)"/>
      <use xlink:href="#DejaVuSans-65" transform="translate(289.501953 0)"/>
      <use xlink:href="#DejaVuSans-20" transform="translate(351.025391 0)"/>
      <use xlink:href="#DejaVuSans-42" transform="translate(382.8125 0)"/>
      <use xlink:href="#DejaVuSans-20" transform="translate(451.416016 0)"/>
      <use xlink:href="#DejaVuSans-28" transform="translate(483.203125 0)"/>
      <use xlink:href="#DejaVuSans-43" transform="translate(522.216797 0)"/>
      <use xlink:href="#DejaVuSans-50" transform="translate(592.041016 0)"/>
      <use xlink:href="#DejaVuSans-43" transform="translate(652.34375 0)"/>
      <use xlink:href="#DejaVuSans-3d" transform="translate(722.167969 0)"/>
      <use xlink:href="#DejaVuSans-24" transform="translate(805.957031 0)"/>
      <use xlink:href="#DejaVuSans-30" transform="translate(869.580078 0)"/>
      <use xlink:href="#DejaVuSans-2e" transform="translate(933.203125 0)"/>
      <use xlink:href="#DejaVuSans-38" transform="translate(964.990234 0)"/>
      <use xlink:href="#DejaVuSans-2c" transform="translate(1028.613281 0)"/>
      <use xlink:href="#DejaVuSans-20" transform="translate(1060.400391 0)"/>
      <use xlink:href="#DejaVuSans-43" transform="translate(1092.1875 0)"/>
      <use xlink:href="#DejaVuSans-54" transform="translate(1162.011719 0)"/>
      <use xlink:href="#DejaVuSans-52" transform="translate(1223.095703 0)"/>
      <use xlink:href="#DejaVuSans-2248" transform="translate(1292.578125 0)"/>
      <use xlink:href="#DejaVuSans-32" transform="translate(1376.367188 0)"/>
      <use xlink:href="#DejaVuSans-35" transform="translate(1439.990234 0)"/>
      <use xlink:href="#DejaVuSans-25" transform="translate(1503.613281 0)"/>
      <use xlink:href="#DejaVuSans-29" transform="translate(1598.632812 0)"/>
     </g>
    </g>
   </g>
  </g>
  <g id="axes_2">
   <g id="patch_110">
    <path d="M 789.78625 293.1925 
L 1144.32125 293.1925 
L 1144.32125 47.5125 
L 789.78625 47.5125 
z
" style="fill: #ffffff"/>
   </g>
   <g id="patch_111">
    <path d="M 805.901477 293.1925 
L 811.07906 293.1925 
L 811.07906 156.119709 
L 805.901477 156.119709 
z
" clip-path="url(#p8d7d68b949)" style="fill: #f44336; opacity: 0.7"/>
   </g>
   <g id="patch_112">
    <path d="M 812.373456 293.1925 
L 817.551039 293.1925 
L 817.551039 161.367026 
L 812.373456 161.367026 
z
" clip-path="url(#p8d7d68b949)" style="fill: #f44336; opacity: 0.7"/>
   </g>
   <g id="patch_113">
    <path d="M 818.845435 293.1925 
L 824.023018 293.1925 
L 824.023018 192.408438 
L 818.845435 192.408438 
z
" clip-path="url(#p8d7d68b949)" style="fill: #f44336; opacity: 0.7"/>
   </g>
   <g id="patch_114">
    <path d="M 825.317414 293.1925 
L 830.494997 293.1925 
L 830.494997 217.290899 
L 825.317414 217.290899 
z
" clip-path="url(#p8d7d68b949)" style="fill: #f44336; opacity: 0.7"/>
   </g>
   <g id="patch_115">
    <path d="M 831.789393 293.1925 
L 836.966976 293.1925 
L 836.966976 161.069481 
L 831.789393 161.069481 
z
" clip-path="url(#p8d7d68b949)" style="fill: #f44336; opacity: 0.7"/>
   </g>
   <g id="patch_116">
    <path d="M 838.261371 293.1925 
L 843.438954 293.1925 
L 843.438954 205.250878 
L 838.261371 205.250878 
z
" clip-path="url(#p8d7d68b949)" style="fill: #f44336; opacity: 0.7"/>
   </g>
   <g id="patch_117">
    <path d="M 844.73335 293.1925 
L 849.910933 293.1925 
L 849.910933 205.550964 
L 844.73335 205.550964 
z
" clip-path="url(#p8d7d68b949)" style="fill: #f44336; opacity: 0.7"/>
   </g>
   <g id="patch_118">
    <path d="M 851.205329 293.1925 
L 856.382912 293.1925 
L 856.382912 129.583404 
L 851.205329 129.583404 
z
" clip-path="url(#p8d7d68b949)" style="fill: #f44336; opacity: 0.7"/>
   </g>
   <g id="patch_119">
    <path d="M 857.677308 293.1925 
L 862.854891 293.1925 
L 862.854891 180.324476 
L 857.677308 180.324476 
z
" clip-path="url(#p8d7d68b949)" style="fill: #f44336; opacity: 0.7"/>
   </g>
   <g id="patch_120">
    <path d="M 864.149287 293.1925 
L 869.32687 293.1925 
L 869.32687 226.60661 
L 864.149287 226.60661 
z
" clip-path="url(#p8d7d68b949)" style="fill: #f44336; opacity: 0.7"/>
   </g>
   <g id="patch_121">
    <path d="M 870.621266 293.1925 
L 875.798849 293.1925 
L 875.798849 207.087829 
L 870.621266 207.087829 
z
" clip-path="url(#p8d7d68b949)" style="fill: #f44336; opacity: 0.7"/>
   </g>
   <g id="patch_122">
    <path d="M 877.093244 293.1925 
L 882.270827 293.1925 
L 882.270827 208.131068 
L 877.093244 208.131068 
z
" clip-path="url(#p8d7d68b949)" style="fill: #f44336; opacity: 0.7"/>
   </g>
   <g id="patch_123">
    <path d="M 883.565223 293.1925 
L 888.742806 293.1925 
L 888.742806 237.187553 
L 883.565223 237.187553 
z
" clip-path="url(#p8d7d68b949)" style="fill: #f44336; opacity: 0.7"/>
   </g>
   <g id="patch_124">
    <path d="M 890.037202 293.1925 
L 895.214785 293.1925 
L 895.214785 207.948098 
L 890.037202 207.948098 
z
" clip-path="url(#p8d7d68b949)" style="fill: #f44336; opacity: 0.7"/>
   </g>
   <g id="patch_125">
    <path d="M 896.509181 293.1925 
L 901.686764 293.1925 
L 901.686764 211.828559 
L 896.509181 211.828559 
z
" clip-path="url(#p8d7d68b949)" style="fill: #f44336; opacity: 0.7"/>
   </g>
   <g id="patch_126">
    <path d="M 902.98116 293.1925 
L 908.158743 293.1925 
L 908.158743 223.229433 
L 902.98116 223.229433 
z
" clip-path="url(#p8d7d68b949)" style="fill: #2196f3; opacity: 0.7"/>
   </g>
   <g id="patch_127">
    <path d="M 909.453138 293.1925 
L 914.630722 293.1925 
L 914.630722 235.386067 
L 909.453138 235.386067 
z
" clip-path="url(#p8d7d68b949)" style="fill: #2196f3; opacity: 0.7"/>
   </g>
   <g id="patch_128">
    <path d="M 915.925117 293.1925 
L 921.1027 293.1925 
L 921.1027 219.18078 
L 915.925117 219.18078 
z
" clip-path="url(#p8d7d68b949)" style="fill: #2196f3; opacity: 0.7"/>
   </g>
   <g id="patch_129">
    <path d="M 922.397096 293.1925 
L 927.574679 293.1925 
L 927.574679 244.185087 
L 922.397096 244.185087 
z
" clip-path="url(#p8d7d68b949)" style="fill: #2196f3; opacity: 0.7"/>
   </g>
   <g id="patch_130">
    <path d="M 928.869075 293.1925 
L 934.046658 293.1925 
L 934.046658 212.552855 
L 928.869075 212.552855 
z
" clip-path="url(#p8d7d68b949)" style="fill: #2196f3; opacity: 0.7"/>
   </g>
   <g id="patch_131">
    <path d="M 935.341054 293.1925 
L 940.518637 293.1925 
L 940.518637 226.295686 
L 935.341054 226.295686 
z
" clip-path="url(#p8d7d68b949)" style="fill: #2196f3; opacity: 0.7"/>
   </g>
   <g id="patch_132">
    <path d="M 941.813033 293.1925 
L 946.990616 293.1925 
L 946.990616 197.668584 
L 941.813033 197.668584 
z
" clip-path="url(#p8d7d68b949)" style="fill: #2196f3; opacity: 0.7"/>
   </g>
   <g id="patch_133">
    <path d="M 948.285011 293.1925 
L 953.462594 293.1925 
L 953.462594 202.399223 
L 948.285011 202.399223 
z
" clip-path="url(#p8d7d68b949)" style="fill: #2196f3; opacity: 0.7"/>
   </g>
   <g id="patch_134">
    <path d="M 954.75699 293.1925 
L 959.934573 293.1925 
L 959.934573 229.540025 
L 954.75699 229.540025 
z
" clip-path="url(#p8d7d68b949)" style="fill: #2196f3; opacity: 0.7"/>
   </g>
   <g id="patch_135">
    <path d="M 961.228969 293.1925 
L 966.406552 293.1925 
L 966.406552 223.231339 
L 961.228969 223.231339 
z
" clip-path="url(#p8d7d68b949)" style="fill: #2196f3; opacity: 0.7"/>
   </g>
   <g id="patch_136">
    <path d="M 967.700948 293.1925 
L 972.878531 293.1925 
L 972.878531 232.801059 
L 967.700948 232.801059 
z
" clip-path="url(#p8d7d68b949)" style="fill: #2196f3; opacity: 0.7"/>
   </g>
   <g id="patch_137">
    <path d="M 974.172927 293.1925 
L 979.35051 293.1925 
L 979.35051 194.857312 
L 974.172927 194.857312 
z
" clip-path="url(#p8d7d68b949)" style="fill: #2196f3; opacity: 0.7"/>
   </g>
   <g id="patch_138">
    <path d="M 980.644906 293.1925 
L 985.822489 293.1925 
L 985.822489 210.330829 
L 980.644906 210.330829 
z
" clip-path="url(#p8d7d68b949)" style="fill: #2196f3; opacity: 0.7"/>
   </g>
   <g id="patch_139">
    <path d="M 987.116884 293.1925 
L 992.294467 293.1925 
L 992.294467 170.721625 
L 987.116884 170.721625 
z
" clip-path="url(#p8d7d68b949)" style="fill: #2196f3; opacity: 0.7"/>
   </g>
   <g id="patch_140">
    <path d="M 993.588863 293.1925 
L 998.766446 293.1925 
L 998.766446 182.168547 
L 993.588863 182.168547 
z
" clip-path="url(#p8d7d68b949)" style="fill: #2196f3; opacity: 0.7"/>
   </g>
   <g id="patch_141">
    <path d="M 1000.060842 293.1925 
L 1005.238425 293.1925 
L 1005.238425 215.307372 
L 1000.060842 215.307372 
z
" clip-path="url(#p8d7d68b949)" style="fill: #2196f3; opacity: 0.7"/>
   </g>
   <g id="patch_142">
    <path d="M 1006.532821 293.1925 
L 1011.710404 293.1925 
L 1011.710404 225.279117 
L 1006.532821 225.279117 
z
" clip-path="url(#p8d7d68b949)" style="fill: #2196f3; opacity: 0.7"/>
   </g>
   <g id="patch_143">
    <path d="M 1013.0048 293.1925 
L 1018.182383 293.1925 
L 1018.182383 152.316787 
L 1013.0048 152.316787 
z
" clip-path="url(#p8d7d68b949)" style="fill: #2196f3; opacity: 0.7"/>
   </g>
   <g id="patch_144">
    <path d="M 1019.476778 293.1925 
L 1024.654362 293.1925 
L 1024.654362 183.873171 
L 1019.476778 183.873171 
z
" clip-path="url(#p8d7d68b949)" style="fill: #2196f3; opacity: 0.7"/>
   </g>
   <g id="patch_145">
    <path d="M 1025.948757 293.1925 
L 1031.12634 293.1925 
L 1031.12634 164.403076 
L 1025.948757 164.403076 
z
" clip-path="url(#p8d7d68b949)" style="fill: #2196f3; opacity: 0.7"/>
   </g>
   <g id="patch_146">
    <path d="M 1032.420736 293.1925 
L 1037.598319 293.1925 
L 1037.598319 168.132698 
L 1032.420736 168.132698 
z
" clip-path="url(#p8d7d68b949)" style="fill: #2196f3; opacity: 0.7"/>
   </g>
   <g id="patch_147">
    <path d="M 1038.892715 293.1925 
L 1044.070298 293.1925 
L 1044.070298 161.121411 
L 1038.892715 161.121411 
z
" clip-path="url(#p8d7d68b949)" style="fill: #2196f3; opacity: 0.7"/>
   </g>
   <g id="patch_148">
    <path d="M 1045.364694 293.1925 
L 1050.542277 293.1925 
L 1050.542277 158.419293 
L 1045.364694 158.419293 
z
" clip-path="url(#p8d7d68b949)" style="fill: #2196f3; opacity: 0.7"/>
   </g>
   <g id="patch_149">
    <path d="M 1051.836673 293.1925 
L 1057.014256 293.1925 
L 1057.014256 150.521492 
L 1051.836673 150.521492 
z
" clip-path="url(#p8d7d68b949)" style="fill: #2196f3; opacity: 0.7"/>
   </g>
   <g id="patch_150">
    <path d="M 1058.308651 293.1925 
L 1063.486234 293.1925 
L 1063.486234 125.841757 
L 1058.308651 125.841757 
z
" clip-path="url(#p8d7d68b949)" style="fill: #2196f3; opacity: 0.7"/>
   </g>
   <g id="patch_151">
    <path d="M 1064.78063 293.1925 
L 1069.958213 293.1925 
L 1069.958213 179.643551 
L 1064.78063 179.643551 
z
" clip-path="url(#p8d7d68b949)" style="fill: #2196f3; opacity: 0.7"/>
   </g>
   <g id="patch_152">
    <path d="M 1071.252609 293.1925 
L 1076.430192 293.1925 
L 1076.430192 173.817232 
L 1071.252609 173.817232 
z
" clip-path="url(#p8d7d68b949)" style="fill: #2196f3; opacity: 0.7"/>
   </g>
   <g id="patch_153">
    <path d="M 1077.724588 293.1925 
L 1082.902171 293.1925 
L 1082.902171 185.179868 
L 1077.724588 185.179868 
z
" clip-path="url(#p8d7d68b949)" style="fill: #2196f3; opacity: 0.7"/>
   </g>
   <g id="patch_154">
    <path d="M 1084.196567 293.1925 
L 1089.37415 293.1925 
L 1089.37415 98.912007 
L 1084.196567 98.912007 
z
" clip-path="url(#p8d7d68b949)" style="fill: #2196f3; opacity: 0.7"/>
   </g>
   <g id="patch_155">
    <path d="M 1090.668546 293.1925 
L 1095.846129 293.1925 
L 1095.846129 125.623847 
L 1090.668546 125.623847 
z
" clip-path="url(#p8d7d68b949)" style="fill: #2196f3; opacity: 0.7"/>
   </g>
   <g id="patch_156">
    <path d="M 1097.140524 293.1925 
L 1102.318107 293.1925 
L 1102.318107 109.399908 
L 1097.140524 109.399908 
z
" clip-path="url(#p8d7d68b949)" style="fill: #2196f3; opacity: 0.7"/>
   </g>
   <g id="patch_157">
    <path d="M 1103.612503 293.1925 
L 1108.790086 293.1925 
L 1108.790086 158.804274 
L 1103.612503 158.804274 
z
" clip-path="url(#p8d7d68b949)" style="fill: #2196f3; opacity: 0.7"/>
   </g>
   <g id="patch_158">
    <path d="M 1110.084482 293.1925 
L 1115.262065 293.1925 
L 1115.262065 109.125873 
L 1110.084482 109.125873 
z
" clip-path="url(#p8d7d68b949)" style="fill: #2196f3; opacity: 0.7"/>
   </g>
   <g id="patch_159">
    <path d="M 1116.556461 293.1925 
L 1121.734044 293.1925 
L 1121.734044 100.772281 
L 1116.556461 100.772281 
z
" clip-path="url(#p8d7d68b949)" style="fill: #2196f3; opacity: 0.7"/>
   </g>
   <g id="patch_160">
    <path d="M 1123.02844 293.1925 
L 1128.206023 293.1925 
L 1128.206023 59.211548 
L 1123.02844 59.211548 
z
" clip-path="url(#p8d7d68b949)" style="fill: #2196f3; opacity: 0.7"/>
   </g>
   <g id="matplotlib.axis_3">
    <g id="xtick_4">
     <g id="line2d_10">
      <g>
       <use xlink:href="#m1599e70b46" x="808.490269" y="293.1925" style="stroke: #000000; stroke-width: 0.8"/>
      </g>
     </g>
     <g id="text_12">
      <!-- 0 -->
      <g transform="translate(798.310269 324.5075) scale(0.32 -0.32)">
       <use xlink:href="#DejaVuSans-30"/>
      </g>
     </g>
    </g>
    <g id="xtick_5">
     <g id="line2d_11">
      <g>
       <use xlink:href="#m1599e70b46" x="937.929845" y="293.1925" style="stroke: #000000; stroke-width: 0.8"/>
      </g>
     </g>
     <g id="text_13">
      <!-- 20 -->
      <g transform="translate(917.569845 324.5075) scale(0.32 -0.32)">
       <use xlink:href="#DejaVuSans-32"/>
       <use xlink:href="#DejaVuSans-30" transform="translate(63.623047 0)"/>
      </g>
     </g>
    </g>
    <g id="xtick_6">
     <g id="line2d_12">
      <g>
       <use xlink:href="#m1599e70b46" x="1067.369422" y="293.1925" style="stroke: #000000; stroke-width: 0.8"/>
      </g>
     </g>
     <g id="text_14">
      <!-- 40 -->
      <g transform="translate(1047.009422 324.5075) scale(0.32 -0.32)">
       <use xlink:href="#DejaVuSans-34"/>
       <use xlink:href="#DejaVuSans-30" transform="translate(63.623047 0)"/>
      </g>
     </g>
    </g>
    <g id="text_15">
     <!-- Slot de inventario -->
     <g transform="translate(807.565313 362.516875) scale(0.36 -0.36)">
      <use xlink:href="#DejaVuSans-53"/>
      <use xlink:href="#DejaVuSans-6c" transform="translate(63.476562 0)"/>
      <use xlink:href="#DejaVuSans-6f" transform="translate(91.259766 0)"/>
      <use xlink:href="#DejaVuSans-74" transform="translate(152.441406 0)"/>
      <use xlink:href="#DejaVuSans-20" transform="translate(191.650391 0)"/>
      <use xlink:href="#DejaVuSans-64" transform="translate(223.4375 0)"/>
      <use xlink:href="#DejaVuSans-65" transform="translate(286.914062 0)"/>
      <use xlink:href="#DejaVuSans-20" transform="translate(348.4375 0)"/>
      <use xlink:href="#DejaVuSans-69" transform="translate(380.224609 0)"/>
      <use xlink:href="#DejaVuSans-6e" transform="translate(408.007812 0)"/>
      <use xlink:href="#DejaVuSans-76" transform="translate(471.386719 0)"/>
      <use xlink:href="#DejaVuSans-65" transform="translate(530.566406 0)"/>
      <use xlink:href="#DejaVuSans-6e" transform="translate(592.089844 0)"/>
      <use xlink:href="#DejaVuSans-74" transform="translate(655.46875 0)"/>
      <use xlink:href="#DejaVuSans-61" transform="translate(694.677734 0)"/>
      <use xlink:href="#DejaVuSans-72" transform="translate(755.957031 0)"/>
      <use xlink:href="#DejaVuSans-69" transform="translate(797.070312 0)"/>
      <use xlink:href="#DejaVuSans-6f" transform="translate(824.853516 0)"/>
     </g>
    </g>
   </g>
   <g id="matplotlib.axis_4">
    <g id="ytick_4">
     <g id="line2d_13">
      <path d="M 789.78625 293.1925 
L 1144.32125 293.1925 
" clip-path="url(#p8d7d68b949)" style="fill: none; stroke: #b0b0b0; stroke-opacity: 0.3; stroke-width: 0.8; stroke-linecap: square"/>
     </g>
     <g id="line2d_14">
      <g>
       <use xlink:href="#mf38f84e653" x="789.78625" y="293.1925" style="stroke: #000000; stroke-width: 0.8"/>
      </g>
     </g>
     <g id="text_16">
      <!-- 0.00 -->
      <g transform="translate(711.53625 305.35) scale(0.32 -0.32)">
       <use xlink:href="#DejaVuSans-30"/>
       <use xlink:href="#DejaVuSans-2e" transform="translate(63.623047 0)"/>
       <use xlink:href="#DejaVuSans-30" transform="translate(95.410156 0)"/>
       <use xlink:href="#DejaVuSans-30" transform="translate(159.033203 0)"/>
      </g>
     </g>
    </g>
    <g id="ytick_5">
     <g id="line2d_15">
      <path d="M 789.78625 204.306953 
L 1144.32125 204.306953 
" clip-path="url(#p8d7d68b949)" style="fill: none; stroke: #b0b0b0; stroke-opacity: 0.3; stroke-width: 0.8; stroke-linecap: square"/>
     </g>
     <g id="line2d_16">
      <g>
       <use xlink:href="#mf38f84e653" x="789.78625" y="204.306953" style="stroke: #000000; stroke-width: 0.8"/>
      </g>
     </g>
     <g id="text_17">
      <!-- 0.25 -->
      <g transform="translate(711.53625 216.464453) scale(0.32 -0.32)">
       <use xlink:href="#DejaVuSans-30"/>
       <use xlink:href="#DejaVuSans-2e" transform="translate(63.623047 0)"/>
       <use xlink:href="#DejaVuSans-32" transform="translate(95.410156 0)"/>
       <use xlink:href="#DejaVuSans-35" transform="translate(159.033203 0)"/>
      </g>
     </g>
    </g>
    <g id="ytick_6">
     <g id="line2d_17">
      <path d="M 789.78625 115.421406 
L 1144.32125 115.421406 
" clip-path="url(#p8d7d68b949)" style="fill: none; stroke: #b0b0b0; stroke-opacity: 0.3; stroke-width: 0.8; stroke-linecap: square"/>
     </g>
     <g id="line2d_18">
      <g>
       <use xlink:href="#mf38f84e653" x="789.78625" y="115.421406" style="stroke: #000000; stroke-width: 0.8"/>
      </g>
     </g>
     <g id="text_18">
      <!-- 0.50 -->
      <g transform="translate(711.53625 127.578906) scale(0.32 -0.32)">
       <use xlink:href="#DejaVuSans-30"/>
       <use xlink:href="#DejaVuSans-2e" transform="translate(63.623047 0)"/>
       <use xlink:href="#DejaVuSans-35" transform="translate(95.410156 0)"/>
       <use xlink:href="#DejaVuSans-30" transform="translate(159.033203 0)"/>
      </g>
     </g>
    </g>
    <g id="text_19">
     <!-- Valor del slot asignado ($) -->
     <g transform="translate(700.049375 405.761562) rotate(-90) scale(0.36 -0.36)">
      <defs>
       <path id="DejaVuSans-67" d="M 2906 1791 
Q 2906 2416 2648 2759 
Q 2391 3103 1925 3103 
Q 1463 3103 1205 2759 
Q 947 2416 947 1791 
Q 947 1169 1205 825 
Q 1463 481 1925 481 
Q 2391 481 2648 825 
Q 2906 1169 2906 1791 
z
M 3481 434 
Q 3481 -459 3084 -895 
Q 2688 -1331 1869 -1331 
Q 1566 -1331 1297 -1286 
Q 1028 -1241 775 -1147 
L 775 -588 
Q 1028 -725 1275 -790 
Q 1522 -856 1778 -856 
Q 2344 -856 2625 -561 
Q 2906 -266 2906 331 
L 2906 616 
Q 2728 306 2450 153 
Q 2172 0 1784 0 
Q 1141 0 747 490 
Q 353 981 353 1791 
Q 353 2603 747 3093 
Q 1141 3584 1784 3584 
Q 2172 3584 2450 3431 
Q 2728 3278 2906 2969 
L 2906 3500 
L 3481 3500 
L 3481 434 
z
" transform="scale(0.015625)"/>
      </defs>
      <use xlink:href="#DejaVuSans-56"/>
      <use xlink:href="#DejaVuSans-61" transform="translate(60.658203 0)"/>
      <use xlink:href="#DejaVuSans-6c" transform="translate(121.9375 0)"/>
      <use xlink:href="#DejaVuSans-6f" transform="translate(149.720703 0)"/>
      <use xlink:href="#DejaVuSans-72" transform="translate(210.902344 0)"/>
      <use xlink:href="#DejaVuSans-20" transform="translate(252.015625 0)"/>
      <use xlink:href="#DejaVuSans-64" transform="translate(283.802734 0)"/>
      <use xlink:href="#DejaVuSans-65" transform="translate(347.279297 0)"/>
      <use xlink:href="#DejaVuSans-6c" transform="translate(408.802734 0)"/>
      <use xlink:href="#DejaVuSans-20" transform="translate(436.585938 0)"/>
      <use xlink:href="#DejaVuSans-73" transform="translate(468.373047 0)"/>
      <use xlink:href="#DejaVuSans-6c" transform="translate(520.472656 0)"/>
      <use xlink:href="#DejaVuSans-6f" transform="translate(548.255859 0)"/>
      <use xlink:href="#DejaVuSans-74" transform="translate(609.4375 0)"/>
      <use xlink:href="#DejaVuSans-20" transform="translate(648.646484 0)"/>
      <use xlink:href="#DejaVuSans-61" transform="translate(680.433594 0)"/>
      <use xlink:href="#DejaVuSans-73" transform="translate(741.712891 0)"/>
      <use xlink:href="#DejaVuSans-69" transform="translate(793.8125 0)"/>
      <use xlink:href="#DejaVuSans-67" transform="translate(821.595703 0)"/>
      <use xlink:href="#DejaVuSans-6e" transform="translate(885.072266 0)"/>
      <use xlink:href="#DejaVuSans-61" transform="translate(948.451172 0)"/>
      <use xlink:href="#DejaVuSans-64" transform="translate(1009.730469 0)"/>
      <use xlink:href="#DejaVuSans-6f" transform="translate(1073.207031 0)"/>
      <use xlink:href="#DejaVuSans-20" transform="translate(1134.388672 0)"/>
      <use xlink:href="#DejaVuSans-28" transform="translate(1166.175781 0)"/>
      <use xlink:href="#DejaVuSans-24" transform="translate(1205.189453 0)"/>
      <use xlink:href="#DejaVuSans-29" transform="translate(1268.8125 0)"/>
     </g>
    </g>
   </g>
   <g id="patch_161">
    <path d="M 789.78625 293.1925 
L 789.78625 47.5125 
" style="fill: none; stroke: #000000; stroke-width: 0.8; stroke-linejoin: miter; stroke-linecap: square"/>
   </g>
   <g id="patch_162">
    <path d="M 1144.32125 293.1925 
L 1144.32125 47.5125 
" style="fill: none; stroke: #000000; stroke-width: 0.8; stroke-linejoin: miter; stroke-linecap: square"/>
   </g>
   <g id="patch_163">
    <path d="M 789.78625 293.1925 
L 1144.32125 293.1925 
" style="fill: none; stroke: #000000; stroke-width: 0.8; stroke-linejoin: miter; stroke-linecap: square"/>
   </g>
   <g id="patch_164">
    <path d="M 789.78625 47.5125 
L 1144.32125 47.5125 
" style="fill: none; stroke: #000000; stroke-width: 0.8; stroke-linejoin: miter; stroke-linecap: square"/>
   </g>
   <g id="text_20">
    <g id="patch_165">
     <path d="M 870.570391 90.968094 
L 1063.537109 90.968094 
Q 1067.437109 90.968094 1067.437109 87.068094 
L 1067.437109 59.929375 
Q 1067.437109 56.029375 1063.537109 56.029375 
L 870.570391 56.029375 
Q 866.670391 56.029375 866.670391 59.929375 
L 866.670391 87.068094 
Q 866.670391 90.968094 870.570391 90.968094 
z
" style="fill: #fff9c4; opacity: 0.9; stroke: #000000; stroke-linejoin: miter"/>
    </g>
    <!-- A domina 35/50 slots -->
    <g transform="translate(898.230937 69.807344) scale(0.13 -0.13)">
     <defs>
      <path id="DejaVuSans-33" d="M 2597 2516 
Q 3050 2419 3304 2112 
Q 3559 1806 3559 1356 
Q 3559 666 3084 287 
Q 2609 -91 1734 -91 
Q 1441 -91 1130 -33 
Q 819 25 488 141 
L 488 750 
Q 750 597 1062 519 
Q 1375 441 1716 441 
Q 2309 441 2620 675 
Q 2931 909 2931 1356 
Q 2931 1769 2642 2001 
Q 2353 2234 1838 2234 
L 1294 2234 
L 1294 2753 
L 1863 2753 
Q 2328 2753 2575 2939 
Q 2822 3125 2822 3475 
Q 2822 3834 2567 4026 
Q 2313 4219 1838 4219 
Q 1578 4219 1281 4162 
Q 984 4106 628 3988 
L 628 4550 
Q 988 4650 1302 4700 
Q 1616 4750 1894 4750 
Q 2613 4750 3031 4423 
Q 3450 4097 3450 3541 
Q 3450 3153 3228 2886 
Q 3006 2619 2597 2516 
z
" transform="scale(0.015625)"/>
      <path id="DejaVuSans-2f" d="M 1625 4666 
L 2156 4666 
L 531 -594 
L 0 -594 
L 1625 4666 
z
" transform="scale(0.015625)"/>
     </defs>
     <use xlink:href="#DejaVuSans-41"/>
     <use xlink:href="#DejaVuSans-20" transform="translate(68.408203 0)"/>
     <use xlink:href="#DejaVuSans-64" transform="translate(100.195312 0)"/>
     <use xlink:href="#DejaVuSans-6f" transform="translate(163.671875 0)"/>
     <use xlink:href="#DejaVuSans-6d" transform="translate(224.853516 0)"/>
     <use xlink:href="#DejaVuSans-69" transform="translate(322.265625 0)"/>
     <use xlink:href="#DejaVuSans-6e" transform="translate(350.048828 0)"/>
     <use xlink:href="#DejaVuSans-61" transform="translate(413.427734 0)"/>
     <use xlink:href="#DejaVuSans-20" transform="translate(474.707031 0)"/>
     <use xlink:href="#DejaVuSans-33" transform="translate(506.494141 0)"/>
     <use xlink:href="#DejaVuSans-35" transform="translate(570.117188 0)"/>
     <use xlink:href="#DejaVuSans-2f" transform="translate(633.740234 0)"/>
     <use xlink:href="#DejaVuSans-35" transform="translate(667.431641 0)"/>
     <use xlink:href="#DejaVuSans-30" transform="translate(731.054688 0)"/>
     <use xlink:href="#DejaVuSans-20" transform="translate(794.677734 0)"/>
     <use xlink:href="#DejaVuSans-73" transform="translate(826.464844 0)"/>
     <use xlink:href="#DejaVuSans-6c" transform="translate(878.564453 0)"/>
     <use xlink:href="#DejaVuSans-6f" transform="translate(906.347656 0)"/>
     <use xlink:href="#DejaVuSans-74" transform="translate(967.529297 0)"/>
     <use xlink:href="#DejaVuSans-73" transform="translate(1006.738281 0)"/>
    </g>
    <!-- B sub-ejecuta su presupuesto -->
    <g transform="translate(870.570391 84.3645) scale(0.13 -0.13)">
     <defs>
      <path id="DejaVuSans-75" d="M 544 1381 
L 544 3500 
L 1119 3500 
L 1119 1403 
Q 1119 906 1312 657 
Q 1506 409 1894 409 
Q 2359 409 2629 706 
Q 2900 1003 2900 1516 
L 2900 3500 
L 3475 3500 
L 3475 0 
L 2900 0 
L 2900 538 
Q 2691 219 2414 64 
Q 2138 -91 1772 -91 
Q 1169 -91 856 284 
Q 544 659 544 1381 
z
M 1991 3584 
L 1991 3584 
z
" transform="scale(0.015625)"/>
      <path id="DejaVuSans-2d" d="M 313 2009 
L 1997 2009 
L 1997 1497 
L 313 1497 
L 313 2009 
z
" transform="scale(0.015625)"/>
     </defs>
     <use xlink:href="#DejaVuSans-42"/>
     <use xlink:href="#DejaVuSans-20" transform="translate(68.603516 0)"/>
     <use xlink:href="#DejaVuSans-73" transform="translate(100.390625 0)"/>
     <use xlink:href="#DejaVuSans-75" transform="translate(152.490234 0)"/>
     <use xlink:href="#DejaVuSans-62" transform="translate(215.869141 0)"/>
     <use xlink:href="#DejaVuSans-2d" transform="translate(279.345703 0)"/>
     <use xlink:href="#DejaVuSans-65" transform="translate(315.429688 0)"/>
     <use xlink:href="#DejaVuSans-6a" transform="translate(376.953125 0)"/>
     <use xlink:href="#DejaVuSans-65" transform="translate(404.736328 0)"/>
     <use xlink:href="#DejaVuSans-63" transform="translate(466.259766 0)"/>
     <use xlink:href="#DejaVuSans-75" transform="translate(521.240234 0)"/>
     <use xlink:href="#DejaVuSans-74" transform="translate(584.619141 0)"/>
     <use xlink:href="#DejaVuSans-61" transform="translate(623.828125 0)"/>
     <use xlink:href="#DejaVuSans-20" transform="translate(685.107422 0)"/>
     <use xlink:href="#DejaVuSans-73" transform="translate(716.894531 0)"/>
     <use xlink:href="#DejaVuSans-75" transform="translate(768.994141 0)"/>
     <use xlink:href="#DejaVuSans-20" transform="translate(832.373047 0)"/>
     <use xlink:href="#DejaVuSans-70" transform="translate(864.160156 0)"/>
     <use xlink:href="#DejaVuSans-72" transform="translate(927.636719 0)"/>
     <use xlink:href="#DejaVuSans-65" transform="translate(966.5 0)"/>
     <use xlink:href="#DejaVuSans-73" transform="translate(1028.023438 0)"/>
     <use xlink:href="#DejaVuSans-75" transform="translate(1080.123047 0)"/>
     <use xlink:href="#DejaVuSans-70" transform="translate(1143.501953 0)"/>
     <use xlink:href="#DejaVuSans-75" transform="translate(1206.978516 0)"/>
     <use xlink:href="#DejaVuSans-65" transform="translate(1270.357422 0)"/>
     <use xlink:href="#DejaVuSans-73" transform="translate(1331.880859 0)"/>
     <use xlink:href="#DejaVuSans-74" transform="translate(1383.980469 0)"/>
     <use xlink:href="#DejaVuSans-6f" transform="translate(1423.189453 0)"/>
    </g>
   </g>
   <g id="text_21">
    <!-- Asignación greedy: A=35 slots, B=15 slots -->
    <g transform="translate(540.4975 39.19375) scale(0.4 -0.4)">
     <defs>
      <path id="DejaVuSans-79" d="M 2059 -325 
Q 1816 -950 1584 -1140 
Q 1353 -1331 966 -1331 
L 506 -1331 
L 506 -850 
L 844 -850 
Q 1081 -850 1212 -737 
Q 1344 -625 1503 -206 
L 1606 56 
L 191 3500 
L 800 3500 
L 1894 763 
L 2988 3500 
L 3597 3500 
L 2059 -325 
z
" transform="scale(0.015625)"/>
      <path id="DejaVuSans-3a" d="M 750 794 
L 1409 794 
L 1409 0 
L 750 0 
L 750 794 
z
M 750 3309 
L 1409 3309 
L 1409 2516 
L 750 2516 
L 750 3309 
z
" transform="scale(0.015625)"/>
     </defs>
     <use xlink:href="#DejaVuSans-41"/>
     <use xlink:href="#DejaVuSans-73" transform="translate(68.408203 0)"/>
     <use xlink:href="#DejaVuSans-69" transform="translate(120.507812 0)"/>
     <use xlink:href="#DejaVuSans-67" transform="translate(148.291016 0)"/>
     <use xlink:href="#DejaVuSans-6e" transform="translate(211.767578 0)"/>
     <use xlink:href="#DejaVuSans-61" transform="translate(275.146484 0)"/>
     <use xlink:href="#DejaVuSans-63" transform="translate(336.425781 0)"/>
     <use xlink:href="#DejaVuSans-69" transform="translate(391.40625 0)"/>
     <use xlink:href="#DejaVuSans-f3" transform="translate(419.189453 0)"/>
     <use xlink:href="#DejaVuSans-6e" transform="translate(480.371094 0)"/>
     <use xlink:href="#DejaVuSans-20" transform="translate(543.75 0)"/>
     <use xlink:href="#DejaVuSans-67" transform="translate(575.537109 0)"/>
     <use xlink:href="#DejaVuSans-72" transform="translate(639.013672 0)"/>
     <use xlink:href="#DejaVuSans-65" transform="translate(677.876953 0)"/>
     <use xlink:href="#DejaVuSans-65" transform="translate(739.400391 0)"/>
     <use xlink:href="#DejaVuSans-64" transform="translate(800.923828 0)"/>
     <use xlink:href="#DejaVuSans-79" transform="translate(864.400391 0)"/>
     <use xlink:href="#DejaVuSans-3a" transform="translate(916.330078 0)"/>
     <use xlink:href="#DejaVuSans-20" transform="translate(950.021484 0)"/>
     <use xlink:href="#DejaVuSans-41" transform="translate(981.808594 0)"/>
     <use xlink:href="#DejaVuSans-3d" transform="translate(1050.216797 0)"/>
     <use xlink:href="#DejaVuSans-33" transform="translate(1134.005859 0)"/>
     <use xlink:href="#DejaVuSans-35" transform="translate(1197.628906 0)"/>
     <use xlink:href="#DejaVuSans-20" transform="translate(1261.251953 0)"/>
     <use xlink:href="#DejaVuSans-73" transform="translate(1293.039062 0)"/>
     <use xlink:href="#DejaVuSans-6c" transform="translate(1345.138672 0)"/>
     <use xlink:href="#DejaVuSans-6f" transform="translate(1372.921875 0)"/>
     <use xlink:href="#DejaVuSans-74" transform="translate(1434.103516 0)"/>
     <use xlink:href="#DejaVuSans-73" transform="translate(1473.3125 0)"/>
     <use xlink:href="#DejaVuSans-2c" transform="translate(1525.412109 0)"/>
     <use xlink:href="#DejaVuSans-20" transform="translate(1557.199219 0)"/>
     <use xlink:href="#DejaVuSans-42" transform="translate(1588.986328 0)"/>
     <use xlink:href="#DejaVuSans-3d" transform="translate(1657.589844 0)"/>
     <use xlink:href="#DejaVuSans-31" transform="translate(1741.378906 0)"/>
     <use xlink:href="#DejaVuSans-35" transform="translate(1805.001953 0)"/>
     <use xlink:href="#DejaVuSans-20" transform="translate(1868.625 0)"/>
     <use xlink:href="#DejaVuSans-73" transform="translate(1900.412109 0)"/>
     <use xlink:href="#DejaVuSans-6c" transform="translate(1952.511719 0)"/>
     <use xlink:href="#DejaVuSans-6f" transform="translate(1980.294922 0)"/>
     <use xlink:href="#DejaVuSans-74" transform="translate(2041.476562 0)"/>
     <use xlink:href="#DejaVuSans-73" transform="translate(2080.685547 0)"/>
    </g>
   </g>
  </g>
 </g>
 <defs>
  <clipPath id="p4f6db9f020">
   <rect x="303.87625" y="47.5125" width="354.535" height="245.68"/>
  </clipPath>
  <clipPath id="p8d7d68b949">
   <rect x="789.78625" y="47.5125" width="354.535" height="245.68"/>
  </clipPath>
 </defs>
</svg>
