<?xml version="1.0" encoding="utf-8" standalone="no"?>
<!DOCTYPE svg PUBLIC "-//W3C//DTD SVG 1.1//EN"
  "http://www.w3.org/Graphics/SVG/1.1/DTD/svg11.dtd">
<svg xmlns:xlink="http://www.w3.org/1999/xlink" width="698.745pt" height="410.910625pt" viewBox="0 0 698.745 410.910625" xmlns="http://www.w3.org/2000/svg" version="1.1">
 <metadata>
  <rdf:RDF xmlns:dc="http://purl.org/dc/elements/1.1/" xmlns:cc="http://creativecommons.org/ns#" xmlns:rdf="http://www.w3.org/1999/02/22-rdf-syntax-ns#">
   <cc:Work>
    <dc:type rdf:resource="http://purl.org/dc/dcmitype/StillImage"/>
    <dc:date>2026-03-15T21:09:46.711550</dc:date>
    <dc:format>image/svg+xml</dc:format>
    <dc:creator>
     <cc:Agent>
      <dc:title>Matplotlib v3.10.8, https://matplotlib.org/</dc:title>
     </cc:Agent>
    </dc:creator>
   </cc:Work>
  </rdf:RDF>
 </metadata>
 <defs>
  <style type="text/css">*{stroke-linejoin: round; stroke-linecap: butt}</style>
 </defs>
 <g id="figure_1">
  <g id="patch_1">
   <path d="M 0 410.910625 
L 698.745 410.910625 
L 698.745 0 
L 0 0 
z
" style="fill: #ffffff"/>
  </g>
  <g id="axes_1">
   <g id="patch_2">
    <path d="M 63.805 356.705625 
L 678.8225 356.705625 
L 678.8225 29.196875 
L 63.805 29.196875 
z
" style="fill: #ffffff"/>
   </g>
   <g id="matplotlib.axis_1">
    <g id="xtick_1">
     <g id="line2d_1">
      <path d="M 63.805 356.705625 
L 63.805 29.196875 
" clip-path="url(#p163fdfb713)" style="fill: none; stroke: #b0b0b0; stroke-opacity: 0.3; stroke-width: 0.8; stroke-linecap: square"/>
     </g>
     <g id="line2d_2">
      <defs>
       <path id="m25e5673368" d="M 0 0 
L 0 3.5 
" style="stroke: #000000; stroke-width: 0.8"/>
      </defs>
      <g>
       <use xlink:href="#m25e5673368" x="63.805" y="356.705625" style="stroke: #000000; stroke-width: 0.8"/>
      </g>
     </g>
     <g id="text_1">
      <!-- 0.0 -->
      <g transform="translate(51.0825 375.863125) scale(0.16 -0.16)">
       <defs>
        <path id="DejaVuSans-30" d="M 2034 4250 
Q 1547 4250 1301 3770 
Q 1056 3291 1056 2328 
Q 1056 1369 1301 889 
Q 1547 409 2034 409 
Q 2525 409 2770 889 
Q 3016 1369 3016 2328 
Q 3016 3291 2770 3770 
Q 2525 4250 2034 4250 
z
M 2034 4750 
Q 2819 4750 3233 4129 
Q 3647 3509 3647 2328 
Q 3647 1150 3233 529 
Q 2819 -91 2034 -91 
Q 1250 -91 836 529 
Q 422 1150 422 2328 
Q 422 3509 836 4129 
Q 1250 4750 2034 4750 
z
" transform="scale(0.015625)"/>
        <path id="DejaVuSans-2e" d="M 684 794 
L 1344 794 
L 1344 0 
L 684 0 
L 684 794 
z
" transform="scale(0.015625)"/>
       </defs>
       <use xlink:href="#DejaVuSans-30"/>
       <use xlink:href="#DejaVuSans-2e" transform="translate(63.623047 0)"/>
       <use xlink:href="#DejaVuSans-30" transform="translate(95.410156 0)"/>
      </g>
     </g>
    </g>
    <g id="xtick_2">
     <g id="line2d_3">
      <path d="M 151.664643 356.705625 
L 151.664643 29.196875 
" clip-path="url(#p163fdfb713)" style="fill: none; stroke: #b0b0b0; stroke-opacity: 0.3; stroke-width: 0.8; stroke-linecap: square"/>
     </g>
     <g id="line2d_4">
      <g>
       <use xlink:href="#m25e5673368" x="151.664643" y="356.705625" style="stroke: #000000; stroke-width: 0.8"/>
      </g>
     </g>
     <g id="text_2">
      <!-- 0.1 -->
      <g transform="translate(138.942143 375.863125) scale(0.16 -0.16)">
       <defs>
        <path id="DejaVuSans-31" d="M 794 531 
L 1825 531 
L 1825 4091 
L 703 3866 
L 703 4441 
L 1819 4666 
L 2450 4666 
L 2450 531 
L 3481 531 
L 3481 0 
L 794 0 
L 794 531 
z
" transform="scale(0.015625)"/>
       </defs>
       <use xlink:href="#DejaVuSans-30"/>
       <use xlink:href="#DejaVuSans-2e" transform="translate(63.623047 0)"/>
       <use xlink:href="#DejaVuSans-31" transform="translate(95.410156 0)"/>
      </g>
     </g>
    </g>
    <g id="xtick_3">
     <g id="line2d_5">
      <path d="M 239.524286 356.705625 
L 239.524286 29.196875 
" clip-path="url(#p163fdfb713)" style="fill: none; stroke: #b0b0b0; stroke-opacity: 0.3; stroke-width: 0.8; stroke-linecap: square"/>
     </g>
     <g id="line2d_6">
      <g>
       <use xlink:href="#m25e5673368" x="239.524286" y="356.705625" style="stroke: #000000; stroke-width: 0.8"/>
      </g>
     </g>
     <g id="text_3">
      <!-- 0.2 -->
      <g transform="translate(226.801786 375.863125) scale(0.16 -0.16)">
       <defs>
        <path id="DejaVuSans-32" d="M 1228 531 
L 3431 531 
L 3431 0 
L 469 0 
L 469 531 
Q 828 903 1448 1529 
Q 2069 2156 2228 2338 
Q 2531 2678 2651 2914 
Q 2772 3150 2772 3378 
Q 2772 3750 2511 3984 
Q 2250 4219 1831 4219 
Q 1534 4219 1204 4116 
Q 875 4013 500 3803 
L 500 4441 
Q 881 4594 1212 4672 
Q 1544 4750 1819 4750 
Q 2544 4750 2975 4387 
Q 3406 4025 3406 3419 
Q 3406 3131 3298 2873 
Q 3191 2616 2906 2266 
Q 2828 2175 2409 1742 
Q 1991 1309 1228 531 
z
" transform="scale(0.015625)"/>
       </defs>
       <use xlink:href="#DejaVuSans-30"/>
       <use xlink:href="#DejaVuSans-2e" transform="translate(63.623047 0)"/>
       <use xlink:href="#DejaVuSans-32" transform="translate(95.410156 0)"/>
      </g>
     </g>
    </g>
    <g id="xtick_4">
     <g id="line2d_7">
      <path d="M 327.383929 356.705625 
L 327.383929 29.196875 
" clip-path="url(#p163fdfb713)" style="fill: none; stroke: #b0b0b0; stroke-opacity: 0.3; stroke-width: 0.8; stroke-linecap: square"/>
     </g>
     <g id="line2d_8">
      <g>
       <use xlink:href="#m25e5673368" x="327.383929" y="356.705625" style="stroke: #000000; stroke-width: 0.8"/>
      </g>
     </g>
     <g id="text_4">
      <!-- 0.3 -->
      <g transform="translate(314.661429 375.863125) scale(0.16 -0.16)">
       <defs>
        <path id="DejaVuSans-33" d="M 2597 2516 
Q 3050 2419 3304 2112 
Q 3559 1806 3559 1356 
Q 3559 666 3084 287 
Q 2609 -91 1734 -91 
Q 1441 -91 1130 -33 
Q 819 25 488 141 
L 488 750 
Q 750 597 1062 519 
Q 1375 441 1716 441 
Q 2309 441 2620 675 
Q 2931 909 2931 1356 
Q 2931 1769 2642 2001 
Q 2353 2234 1838 2234 
L 1294 2234 
L 1294 2753 
L 1863 2753 
Q 2328 2753 2575 2939 
Q 2822 3125 2822 3475 
Q 2822 3834 2567 4026 
Q 2313 4219 1838 4219 
Q 1578 4219 1281 4162 
Q 984 4106 628 3988 
L 628 4550 
Q 988 4650 1302 4700 
Q 1616 4750 1894 4750 
Q 2613 4750 3031 4423 
Q 3450 4097 3450 3541 
Q 3450 3153 3228 2886 
Q 3006 2619 2597 2516 
z
" transform="scale(0.015625)"/>
       </defs>
       <use xlink:href="#DejaVuSans-30"/>
       <use xlink:href="#DejaVuSans-2e" transform="translate(63.623047 0)"/>
       <use xlink:href="#DejaVuSans-33" transform="translate(95.410156 0)"/>
      </g>
     </g>
    </g>
    <g id="xtick_5">
     <g id="line2d_9">
      <path d="M 415.243571 356.705625 
L 415.243571 29.196875 
" clip-path="url(#p163fdfb713)" style="fill: none; stroke: #b0b0b0; stroke-opacity: 0.3; stroke-width: 0.8; stroke-linecap: square"/>
     </g>
     <g id="line2d_10">
      <g>
       <use xlink:href="#m25e5673368" x="415.243571" y="356.705625" style="stroke: #000000; stroke-width: 0.8"/>
      </g>
     </g>
     <g id="text_5">
      <!-- 0.4 -->
      <g transform="translate(402.521071 375.863125) scale(0.16 -0.16)">
       <defs>
        <path id="DejaVuSans-34" d="M 2419 4116 
L 825 1625 
L 2419 1625 
L 2419 4116 
z
M 2253 4666 
L 3047 4666 
L 3047 1625 
L 3713 1625 
L 3713 1100 
L 3047 1100 
L 3047 0 
L 2419 0 
L 2419 1100 
L 313 1100 
L 313 1709 
L 2253 4666 
z
" transform="scale(0.015625)"/>
       </defs>
       <use xlink:href="#DejaVuSans-30"/>
       <use xlink:href="#DejaVuSans-2e" transform="translate(63.623047 0)"/>
       <use xlink:href="#DejaVuSans-34" transform="translate(95.410156 0)"/>
      </g>
     </g>
    </g>
    <g id="xtick_6">
     <g id="line2d_11">
      <path d="M 503.103214 356.705625 
L 503.103214 29.196875 
" clip-path="url(#p163fdfb713)" style="fill: none; stroke: #b0b0b0; stroke-opacity: 0.3; stroke-width: 0.8; stroke-linecap: square"/>
     </g>
     <g id="line2d_12">
      <g>
       <use xlink:href="#m25e5673368" x="503.103214" y="356.705625" style="stroke: #000000; stroke-width: 0.8"/>
      </g>
     </g>
     <g id="text_6">
      <!-- 0.5 -->
      <g transform="translate(490.380714 375.863125) scale(0.16 -0.16)">
       <defs>
        <path id="DejaVuSans-35" d="M 691 4666 
L 3169 4666 
L 3169 4134 
L 1269 4134 
L 1269 2991 
Q 1406 3038 1543 3061 
Q 1681 3084 1819 3084 
Q 2600 3084 3056 2656 
Q 3513 2228 3513 1497 
Q 3513 744 3044 326 
Q 2575 -91 1722 -91 
Q 1428 -91 1123 -41 
Q 819 9 494 109 
L 494 744 
Q 775 591 1075 516 
Q 1375 441 1709 441 
Q 2250 441 2565 725 
Q 2881 1009 2881 1497 
Q 2881 1984 2565 2268 
Q 2250 2553 1709 2553 
Q 1456 2553 1204 2497 
Q 953 2441 691 2322 
L 691 4666 
z
" transform="scale(0.015625)"/>
       </defs>
       <use xlink:href="#DejaVuSans-30"/>
       <use xlink:href="#DejaVuSans-2e" transform="translate(63.623047 0)"/>
       <use xlink:href="#DejaVuSans-35" transform="translate(95.410156 0)"/>
      </g>
     </g>
    </g>
    <g id="xtick_7">
     <g id="line2d_13">
      <path d="M 590.962857 356.705625 
L 590.962857 29.196875 
" clip-path="url(#p163fdfb713)" style="fill: none; stroke: #b0b0b0; stroke-opacity: 0.3; stroke-width: 0.8; stroke-linecap: square"/>
     </g>
     <g id="line2d_14">
      <g>
       <use xlink:href="#m25e5673368" x="590.962857" y="356.705625" style="stroke: #000000; stroke-width: 0.8"/>
      </g>
     </g>
     <g id="text_7">
      <!-- 0.6 -->
      <g transform="translate(578.240357 375.863125) scale(0.16 -0.16)">
       <defs>
        <path id="DejaVuSans-36" d="M 2113 2584 
Q 1688 2584 1439 2293 
Q 1191 2003 1191 1497 
Q 1191 994 1439 701 
Q 1688 409 2113 409 
Q 2538 409 2786 701 
Q 3034 994 3034 1497 
Q 3034 2003 2786 2293 
Q 2538 2584 2113 2584 
z
M 3366 4563 
L 3366 3988 
Q 3128 4100 2886 4159 
Q 2644 4219 2406 4219 
Q 1781 4219 1451 3797 
Q 1122 3375 1075 2522 
Q 1259 2794 1537 2939 
Q 1816 3084 2150 3084 
Q 2853 3084 3261 2657 
Q 3669 2231 3669 1497 
Q 3669 778 3244 343 
Q 2819 -91 2113 -91 
Q 1303 -91 875 529 
Q 447 1150 447 2328 
Q 447 3434 972 4092 
Q 1497 4750 2381 4750 
Q 2619 4750 2861 4703 
Q 3103 4656 3366 4563 
z
" transform="scale(0.015625)"/>
       </defs>
       <use xlink:href="#DejaVuSans-30"/>
       <use xlink:href="#DejaVuSans-2e" transform="translate(63.623047 0)"/>
       <use xlink:href="#DejaVuSans-36" transform="translate(95.410156 0)"/>
      </g>
     </g>
    </g>
    <g id="xtick_8">
     <g id="line2d_15">
      <path d="M 678.8225 356.705625 
L 678.8225 29.196875 
" clip-path="url(#p163fdfb713)" style="fill: none; stroke: #b0b0b0; stroke-opacity: 0.3; stroke-width: 0.8; stroke-linecap: square"/>
     </g>
     <g id="line2d_16">
      <g>
       <use xlink:href="#m25e5673368" x="678.8225" y="356.705625" style="stroke: #000000; stroke-width: 0.8"/>
      </g>
     </g>
     <g id="text_8">
      <!-- 0.7 -->
      <g transform="translate(666.1 375.863125) scale(0.16 -0.16)">
       <defs>
        <path id="DejaVuSans-37" d="M 525 4666 
L 3525 4666 
L 3525 4397 
L 1831 0 
L 1172 0 
L 2766 4134 
L 525 4134 
L 525 4666 
z
" transform="scale(0.015625)"/>
       </defs>
       <use xlink:href="#DejaVuSans-30"/>
       <use xlink:href="#DejaVuSans-2e" transform="translate(63.623047 0)"/>
       <use xlink:href="#DejaVuSans-37" transform="translate(95.410156 0)"/>
      </g>
     </g>
    </g>
    <g id="text_9">
     <!-- Probabilidad estimada $\hat{p}$ -->
     <g transform="translate(262.05375 399.930625) scale(0.18 -0.18)">
      <defs>
       <path id="DejaVuSans-50" d="M 1259 4147 
L 1259 2394 
L 2053 2394 
Q 2494 2394 2734 2622 
Q 2975 2850 2975 3272 
Q 2975 3691 2734 3919 
Q 2494 4147 2053 4147 
L 1259 4147 
z
M 628 4666 
L 2053 4666 
Q 2838 4666 3239 4311 
Q 3641 3956 3641 3272 
Q 3641 2581 3239 2228 
Q 2838 1875 2053 1875 
L 1259 1875 
L 1259 0 
L 628 0 
L 628 4666 
z
" transform="scale(0.015625)"/>
       <path id="DejaVuSans-72" d="M 2631 2963 
Q 2534 3019 2420 3045 
Q 2306 3072 2169 3072 
Q 1681 3072 1420 2755 
Q 1159 2438 1159 1844 
L 1159 0 
L 581 0 
L 581 3500 
L 1159 3500 
L 1159 2956 
Q 1341 3275 1631 3429 
Q 1922 3584 2338 3584 
Q 2397 3584 2469 3576 
Q 2541 3569 2628 3553 
L 2631 2963 
z
" transform="scale(0.015625)"/>
       <path id="DejaVuSans-6f" d="M 1959 3097 
Q 1497 3097 1228 2736 
Q 959 2375 959 1747 
Q 959 1119 1226 758 
Q 1494 397 1959 397 
Q 2419 397 2687 759 
Q 2956 1122 2956 1747 
Q 2956 2369 2687 2733 
Q 2419 3097 1959 3097 
z
M 1959 3584 
Q 2709 3584 3137 3096 
Q 3566 2609 3566 1747 
Q 3566 888 3137 398 
Q 2709 -91 1959 -91 
Q 1206 -91 779 398 
Q 353 888 353 1747 
Q 353 2609 779 3096 
Q 1206 3584 1959 3584 
z
" transform="scale(0.015625)"/>
       <path id="DejaVuSans-62" d="M 3116 1747 
Q 3116 2381 2855 2742 
Q 2594 3103 2138 3103 
Q 1681 3103 1420 2742 
Q 1159 2381 1159 1747 
Q 1159 1113 1420 752 
Q 1681 391 2138 391 
Q 2594 391 2855 752 
Q 3116 1113 3116 1747 
z
M 1159 2969 
Q 1341 3281 1617 3432 
Q 1894 3584 2278 3584 
Q 2916 3584 3314 3078 
Q 3713 2572 3713 1747 
Q 3713 922 3314 415 
Q 2916 -91 2278 -91 
Q 1894 -91 1617 61 
Q 1341 213 1159 525 
L 1159 0 
L 581 0 
L 581 4863 
L 1159 4863 
L 1159 2969 
z
" transform="scale(0.015625)"/>
       <path id="DejaVuSans-61" d="M 2194 1759 
Q 1497 1759 1228 1600 
Q 959 1441 959 1056 
Q 959 750 1161 570 
Q 1363 391 1709 391 
Q 2188 391 2477 730 
Q 2766 1069 2766 1631 
L 2766 1759 
L 2194 1759 
z
M 3341 1997 
L 3341 0 
L 2766 0 
L 2766 531 
Q 2569 213 2275 61 
Q 1981 -91 1556 -91 
Q 1019 -91 701 211 
Q 384 513 384 1019 
Q 384 1609 779 1909 
Q 1175 2209 1959 2209 
L 2766 2209 
L 2766 2266 
Q 2766 2663 2505 2880 
Q 2244 3097 1772 3097 
Q 1472 3097 1187 3025 
Q 903 2953 641 2809 
L 641 3341 
Q 956 3463 1253 3523 
Q 1550 3584 1831 3584 
Q 2591 3584 2966 3190 
Q 3341 2797 3341 1997 
z
" transform="scale(0.015625)"/>
       <path id="DejaVuSans-69" d="M 603 3500 
L 1178 3500 
L 1178 0 
L 603 0 
L 603 3500 
z
M 603 4863 
L 1178 4863 
L 1178 4134 
L 603 4134 
L 603 4863 
z
" transform="scale(0.015625)"/>
       <path id="DejaVuSans-6c" d="M 603 4863 
L 1178 4863 
L 1178 0 
L 603 0 
L 603 4863 
z
" transform="scale(0.015625)"/>
       <path id="DejaVuSans-64" d="M 2906 2969 
L 2906 4863 
L 3481 4863 
L 3481 0 
L 2906 0 
L 2906 525 
Q 2725 213 2448 61 
Q 2172 -91 1784 -91 
Q 1150 -91 751 415 
Q 353 922 353 1747 
Q 353 2572 751 3078 
Q 1150 3584 1784 3584 
Q 2172 3584 2448 3432 
Q 2725 3281 2906 2969 
z
M 947 1747 
Q 947 1113 1208 752 
Q 1469 391 1925 391 
Q 2381 391 2643 752 
Q 2906 1113 2906 1747 
Q 2906 2381 2643 2742 
Q 2381 3103 1925 3103 
Q 1469 3103 1208 2742 
Q 947 2381 947 1747 
z
" transform="scale(0.015625)"/>
       <path id="DejaVuSans-20" transform="scale(0.015625)"/>
       <path id="DejaVuSans-65" d="M 3597 1894 
L 3597 1613 
L 953 1613 
Q 991 1019 1311 708 
Q 1631 397 2203 397 
Q 2534 397 2845 478 
Q 3156 559 3463 722 
L 3463 178 
Q 3153 47 2828 -22 
Q 2503 -91 2169 -91 
Q 1331 -91 842 396 
Q 353 884 353 1716 
Q 353 2575 817 3079 
Q 1281 3584 2069 3584 
Q 2775 3584 3186 3129 
Q 3597 2675 3597 1894 
z
M 3022 2063 
Q 3016 2534 2758 2815 
Q 2500 3097 2075 3097 
Q 1594 3097 1305 2825 
Q 1016 2553 972 2059 
L 3022 2063 
z
" transform="scale(0.015625)"/>
       <path id="DejaVuSans-73" d="M 2834 3397 
L 2834 2853 
Q 2591 2978 2328 3040 
Q 2066 3103 1784 3103 
Q 1356 3103 1142 2972 
Q 928 2841 928 2578 
Q 928 2378 1081 2264 
Q 1234 2150 1697 2047 
L 1894 2003 
Q 2506 1872 2764 1633 
Q 3022 1394 3022 966 
Q 3022 478 2636 193 
Q 2250 -91 1575 -91 
Q 1294 -91 989 -36 
Q 684 19 347 128 
L 347 722 
Q 666 556 975 473 
Q 1284 391 1588 391 
Q 1994 391 2212 530 
Q 2431 669 2431 922 
Q 2431 1156 2273 1281 
Q 2116 1406 1581 1522 
L 1381 1569 
Q 847 1681 609 1914 
Q 372 2147 372 2553 
Q 372 3047 722 3315 
Q 1072 3584 1716 3584 
Q 2034 3584 2315 3537 
Q 2597 3491 2834 3397 
z
" transform="scale(0.015625)"/>
       <path id="DejaVuSans-74" d="M 1172 4494 
L 1172 3500 
L 2356 3500 
L 2356 3053 
L 1172 3053 
L 1172 1153 
Q 1172 725 1289 603 
Q 1406 481 1766 481 
L 2356 481 
L 2356 0 
L 1766 0 
Q 1100 0 847 248 
Q 594 497 594 1153 
L 594 3053 
L 172 3053 
L 172 3500 
L 594 3500 
L 594 4494 
L 1172 4494 
z
" transform="scale(0.015625)"/>
       <path id="DejaVuSans-6d" d="M 3328 2828 
Q 3544 3216 3844 3400 
Q 4144 3584 4550 3584 
Q 5097 3584 5394 3201 
Q 5691 2819 5691 2113 
L 5691 0 
L 5113 0 
L 5113 2094 
Q 5113 2597 4934 2840 
Q 4756 3084 4391 3084 
Q 3944 3084 3684 2787 
Q 3425 2491 3425 1978 
L 3425 0 
L 2847 0 
L 2847 2094 
Q 2847 2600 2669 2842 
Q 2491 3084 2119 3084 
Q 1678 3084 1418 2786 
Q 1159 2488 1159 1978 
L 1159 0 
L 581 0 
L 581 3500 
L 1159 3500 
L 1159 2956 
Q 1356 3278 1631 3431 
Q 1906 3584 2284 3584 
Q 2666 3584 2933 3390 
Q 3200 3197 3328 2828 
z
" transform="scale(0.015625)"/>
       <path id="DejaVuSans-302" d="M -1831 5119 
L -1369 5119 
L -603 3944 
L -1038 3944 
L -1600 4709 
L -2163 3944 
L -2597 3944 
L -1831 5119 
z
M -1600 3584 
L -1600 3584 
z
" transform="scale(0.015625)"/>
       <path id="DejaVuSans-Oblique-70" d="M 3175 2156 
Q 3175 2616 2975 2859 
Q 2775 3103 2400 3103 
Q 2144 3103 1911 2972 
Q 1678 2841 1497 2591 
Q 1319 2344 1212 1994 
Q 1106 1644 1106 1300 
Q 1106 863 1306 627 
Q 1506 391 1875 391 
Q 2147 391 2380 519 
Q 2613 647 2778 891 
Q 2956 1147 3065 1494 
Q 3175 1841 3175 2156 
z
M 1394 2969 
Q 1625 3272 1939 3428 
Q 2253 3584 2638 3584 
Q 3175 3584 3472 3232 
Q 3769 2881 3769 2247 
Q 3769 1728 3584 1258 
Q 3400 788 3053 416 
Q 2822 169 2531 39 
Q 2241 -91 1919 -91 
Q 1547 -91 1294 64 
Q 1041 219 916 525 
L 556 -1331 
L -19 -1331 
L 922 3500 
L 1497 3500 
L 1394 2969 
z
" transform="scale(0.015625)"/>
      </defs>
      <use xlink:href="#DejaVuSans-50" transform="translate(0 0.515625)"/>
      <use xlink:href="#DejaVuSans-72" transform="translate(60.302734 0.515625)"/>
      <use xlink:href="#DejaVuSans-6f" transform="translate(101.416016 0.515625)"/>
      <use xlink:href="#DejaVuSans-62" transform="translate(162.597656 0.515625)"/>
      <use xlink:href="#DejaVuSans-61" transform="translate(226.074219 0.515625)"/>
      <use xlink:href="#DejaVuSans-62" transform="translate(287.353516 0.515625)"/>
      <use xlink:href="#DejaVuSans-69" transform="translate(350.830078 0.515625)"/>
      <use xlink:href="#DejaVuSans-6c" transform="translate(378.613281 0.515625)"/>
      <use xlink:href="#DejaVuSans-69" transform="translate(406.396484 0.515625)"/>
      <use xlink:href="#DejaVuSans-64" transform="translate(434.179688 0.515625)"/>
      <use xlink:href="#DejaVuSans-61" transform="translate(497.65625 0.515625)"/>
      <use xlink:href="#DejaVuSans-64" transform="translate(558.935547 0.515625)"/>
      <use xlink:href="#DejaVuSans-20" transform="translate(622.412109 0.515625)"/>
      <use xlink:href="#DejaVuSans-65" transform="translate(654.199219 0.515625)"/>
      <use xlink:href="#DejaVuSans-73" transform="translate(715.722656 0.515625)"/>
      <use xlink:href="#DejaVuSans-74" transform="translate(767.822266 0.515625)"/>
      <use xlink:href="#DejaVuSans-69" transform="translate(807.03125 0.515625)"/>
      <use xlink:href="#DejaVuSans-6d" transform="translate(834.814453 0.515625)"/>
      <use xlink:href="#DejaVuSans-61" transform="translate(932.226562 0.515625)"/>
      <use xlink:href="#DejaVuSans-64" transform="translate(993.505859 0.515625)"/>
      <use xlink:href="#DejaVuSans-61" transform="translate(1056.982422 0.515625)"/>
      <use xlink:href="#DejaVuSans-20" transform="translate(1118.261719 0.515625)"/>
      <use xlink:href="#DejaVuSans-302" transform="translate(1214.496094 13.015625)"/>
      <use xlink:href="#DejaVuSans-Oblique-70" transform="translate(1150.048828 0.515625)"/>
     </g>
    </g>
   </g>
   <g id="matplotlib.axis_2">
    <g id="ytick_1">
     <g id="line2d_17">
      <path d="M 63.805 346.929244 
L 678.8225 346.929244 
" clip-path="url(#p163fdfb713)" style="fill: none; stroke: #b0b0b0; stroke-opacity: 0.3; stroke-width: 0.8; stroke-linecap: square"/>
     </g>
     <g id="line2d_18">
      <defs>
       <path id="m6d3d7b2b15" d="M 0 0 
L -3.5 0 
" style="stroke: #000000; stroke-width: 0.8"/>
      </defs>
      <g>
       <use xlink:href="#m6d3d7b2b15" x="63.805" y="346.929244" style="stroke: #000000; stroke-width: 0.8"/>
      </g>
     </g>
     <g id="text_10">
      <!-- 0.0 -->
      <g transform="translate(31.36 353.007994) scale(0.16 -0.16)">
       <use xlink:href="#DejaVuSans-30"/>
       <use xlink:href="#DejaVuSans-2e" transform="translate(63.623047 0)"/>
       <use xlink:href="#DejaVuSans-30" transform="translate(95.410156 0)"/>
      </g>
     </g>
    </g>
    <g id="ytick_2">
     <g id="line2d_19">
      <path d="M 63.805 298.047341 
L 678.8225 298.047341 
" clip-path="url(#p163fdfb713)" style="fill: none; stroke: #b0b0b0; stroke-opacity: 0.3; stroke-width: 0.8; stroke-linecap: square"/>
     </g>
     <g id="line2d_20">
      <g>
       <use xlink:href="#m6d3d7b2b15" x="63.805" y="298.047341" style="stroke: #000000; stroke-width: 0.8"/>
      </g>
     </g>
     <g id="text_11">
      <!-- 0.1 -->
      <g transform="translate(31.36 304.126091) scale(0.16 -0.16)">
       <use xlink:href="#DejaVuSans-30"/>
       <use xlink:href="#DejaVuSans-2e" transform="translate(63.623047 0)"/>
       <use xlink:href="#DejaVuSans-31" transform="translate(95.410156 0)"/>
      </g>
     </g>
    </g>
    <g id="ytick_3">
     <g id="line2d_21">
      <path d="M 63.805 249.165438 
L 678.8225 249.165438 
" clip-path="url(#p163fdfb713)" style="fill: none; stroke: #b0b0b0; stroke-opacity: 0.3; stroke-width: 0.8; stroke-linecap: square"/>
     </g>
     <g id="line2d_22">
      <g>
       <use xlink:href="#m6d3d7b2b15" x="63.805" y="249.165438" style="stroke: #000000; stroke-width: 0.8"/>
      </g>
     </g>
     <g id="text_12">
      <!-- 0.2 -->
      <g transform="translate(31.36 255.244188) scale(0.16 -0.16)">
       <use xlink:href="#DejaVuSans-30"/>
       <use xlink:href="#DejaVuSans-2e" transform="translate(63.623047 0)"/>
       <use xlink:href="#DejaVuSans-32" transform="translate(95.410156 0)"/>
      </g>
     </g>
    </g>
    <g id="ytick_4">
     <g id="line2d_23">
      <path d="M 63.805 200.283535 
L 678.8225 200.283535 
" clip-path="url(#p163fdfb713)" style="fill: none; stroke: #b0b0b0; stroke-opacity: 0.3; stroke-width: 0.8; stroke-linecap: square"/>
     </g>
     <g id="line2d_24">
      <g>
       <use xlink:href="#m6d3d7b2b15" x="63.805" y="200.283535" style="stroke: #000000; stroke-width: 0.8"/>
      </g>
     </g>
     <g id="text_13">
      <!-- 0.3 -->
      <g transform="translate(31.36 206.362285) scale(0.16 -0.16)">
       <use xlink:href="#DejaVuSans-30"/>
       <use xlink:href="#DejaVuSans-2e" transform="translate(63.623047 0)"/>
       <use xlink:href="#DejaVuSans-33" transform="translate(95.410156 0)"/>
      </g>
     </g>
    </g>
    <g id="ytick_5">
     <g id="line2d_25">
      <path d="M 63.805 151.401632 
L 678.8225 151.401632 
" clip-path="url(#p163fdfb713)" style="fill: none; stroke: #b0b0b0; stroke-opacity: 0.3; stroke-width: 0.8; stroke-linecap: square"/>
     </g>
     <g id="line2d_26">
      <g>
       <use xlink:href="#m6d3d7b2b15" x="63.805" y="151.401632" style="stroke: #000000; stroke-width: 0.8"/>
      </g>
     </g>
     <g id="text_14">
      <!-- 0.4 -->
      <g transform="translate(31.36 157.480382) scale(0.16 -0.16)">
       <use xlink:href="#DejaVuSans-30"/>
       <use xlink:href="#DejaVuSans-2e" transform="translate(63.623047 0)"/>
       <use xlink:href="#DejaVuSans-34" transform="translate(95.410156 0)"/>
      </g>
     </g>
    </g>
    <g id="ytick_6">
     <g id="line2d_27">
      <path d="M 63.805 102.519729 
L 678.8225 102.519729 
" clip-path="url(#p163fdfb713)" style="fill: none; stroke: #b0b0b0; stroke-opacity: 0.3; stroke-width: 0.8; stroke-linecap: square"/>
     </g>
     <g id="line2d_28">
      <g>
       <use xlink:href="#m6d3d7b2b15" x="63.805" y="102.519729" style="stroke: #000000; stroke-width: 0.8"/>
      </g>
     </g>
     <g id="text_15">
      <!-- 0.5 -->
      <g transform="translate(31.36 108.598479) scale(0.16 -0.16)">
       <use xlink:href="#DejaVuSans-30"/>
       <use xlink:href="#DejaVuSans-2e" transform="translate(63.623047 0)"/>
       <use xlink:href="#DejaVuSans-35" transform="translate(95.410156 0)"/>
      </g>
     </g>
    </g>
    <g id="ytick_7">
     <g id="line2d_29">
      <path d="M 63.805 53.637826 
L 678.8225 53.637826 
" clip-path="url(#p163fdfb713)" style="fill: none; stroke: #b0b0b0; stroke-opacity: 0.3; stroke-width: 0.8; stroke-linecap: square"/>
     </g>
     <g id="line2d_30">
      <g>
       <use xlink:href="#m6d3d7b2b15" x="63.805" y="53.637826" style="stroke: #000000; stroke-width: 0.8"/>
      </g>
     </g>
     <g id="text_16">
      <!-- 0.6 -->
      <g transform="translate(31.36 59.716576) scale(0.16 -0.16)">
       <use xlink:href="#DejaVuSans-30"/>
       <use xlink:href="#DejaVuSans-2e" transform="translate(63.623047 0)"/>
       <use xlink:href="#DejaVuSans-36" transform="translate(95.410156 0)"/>
      </g>
     </g>
    </g>
    <g id="text_17">
     <!-- Fracción óptima de apuesta $f^*$ -->
     <g transform="translate(23.58 331.10125) rotate(-90) scale(0.18 -0.18)">
      <defs>
       <path id="DejaVuSans-46" d="M 628 4666 
L 3309 4666 
L 3309 4134 
L 1259 4134 
L 1259 2759 
L 3109 2759 
L 3109 2228 
L 1259 2228 
L 1259 0 
L 628 0 
L 628 4666 
z
" transform="scale(0.015625)"/>
       <path id="DejaVuSans-63" d="M 3122 3366 
L 3122 2828 
Q 2878 2963 2633 3030 
Q 2388 3097 2138 3097 
Q 1578 3097 1268 2742 
Q 959 2388 959 1747 
Q 959 1106 1268 751 
Q 1578 397 2138 397 
Q 2388 397 2633 464 
Q 2878 531 3122 666 
L 3122 134 
Q 2881 22 2623 -34 
Q 2366 -91 2075 -91 
Q 1284 -91 818 406 
Q 353 903 353 1747 
Q 353 2603 823 3093 
Q 1294 3584 2113 3584 
Q 2378 3584 2631 3529 
Q 2884 3475 3122 3366 
z
" transform="scale(0.015625)"/>
       <path id="DejaVuSans-f3" d="M 1959 3097 
Q 1497 3097 1228 2736 
Q 959 2375 959 1747 
Q 959 1119 1226 758 
Q 1494 397 1959 397 
Q 2419 397 2687 759 
Q 2956 1122 2956 1747 
Q 2956 2369 2687 2733 
Q 2419 3097 1959 3097 
z
M 1959 3584 
Q 2709 3584 3137 3096 
Q 3566 2609 3566 1747 
Q 3566 888 3137 398 
Q 2709 -91 1959 -91 
Q 1206 -91 779 398 
Q 353 888 353 1747 
Q 353 2609 779 3096 
Q 1206 3584 1959 3584 
z
M 2394 5119 
L 3016 5119 
L 1998 3944 
L 1519 3944 
L 2394 5119 
z
" transform="scale(0.015625)"/>
       <path id="DejaVuSans-6e" d="M 3513 2113 
L 3513 0 
L 2938 0 
L 2938 2094 
Q 2938 2591 2744 2837 
Q 2550 3084 2163 3084 
Q 1697 3084 1428 2787 
Q 1159 2491 1159 1978 
L 1159 0 
L 581 0 
L 581 3500 
L 1159 3500 
L 1159 2956 
Q 1366 3272 1645 3428 
Q 1925 3584 2291 3584 
Q 2894 3584 3203 3211 
Q 3513 2838 3513 2113 
z
" transform="scale(0.015625)"/>
       <path id="DejaVuSans-70" d="M 1159 525 
L 1159 -1331 
L 581 -1331 
L 581 3500 
L 1159 3500 
L 1159 2969 
Q 1341 3281 1617 3432 
Q 1894 3584 2278 3584 
Q 2916 3584 3314 3078 
Q 3713 2572 3713 1747 
Q 3713 922 3314 415 
Q 2916 -91 2278 -91 
Q 1894 -91 1617 61 
Q 1341 213 1159 525 
z
M 3116 1747 
Q 3116 2381 2855 2742 
Q 2594 3103 2138 3103 
Q 1681 3103 1420 2742 
Q 1159 2381 1159 1747 
Q 1159 1113 1420 752 
Q 1681 391 2138 391 
Q 2594 391 2855 752 
Q 3116 1113 3116 1747 
z
" transform="scale(0.015625)"/>
       <path id="DejaVuSans-75" d="M 544 1381 
L 544 3500 
L 1119 3500 
L 1119 1403 
Q 1119 906 1312 657 
Q 1506 409 1894 409 
Q 2359 409 2629 706 
Q 2900 1003 2900 1516 
L 2900 3500 
L 3475 3500 
L 3475 0 
L 2900 0 
L 2900 538 
Q 2691 219 2414 64 
Q 2138 -91 1772 -91 
Q 1169 -91 856 284 
Q 544 659 544 1381 
z
M 1991 3584 
L 1991 3584 
z
" transform="scale(0.015625)"/>
       <path id="DejaVuSans-Oblique-66" d="M 3059 4863 
L 2969 4384 
L 2419 4384 
Q 2106 4384 1964 4261 
Q 1822 4138 1753 3809 
L 1691 3500 
L 2638 3500 
L 2553 3053 
L 1606 3053 
L 1013 0 
L 434 0 
L 1031 3053 
L 481 3053 
L 563 3500 
L 1113 3500 
L 1159 3744 
Q 1278 4363 1576 4613 
Q 1875 4863 2516 4863 
L 3059 4863 
z
" transform="scale(0.015625)"/>
       <path id="DejaVuSans-2a" d="M 3009 3897 
L 1888 3291 
L 3009 2681 
L 2828 2375 
L 1778 3009 
L 1778 1831 
L 1422 1831 
L 1422 3009 
L 372 2375 
L 191 2681 
L 1313 3291 
L 191 3897 
L 372 4206 
L 1422 3572 
L 1422 4750 
L 1778 4750 
L 1778 3572 
L 2828 4206 
L 3009 3897 
z
" transform="scale(0.015625)"/>
      </defs>
      <use xlink:href="#DejaVuSans-46" transform="translate(0 0.765625)"/>
      <use xlink:href="#DejaVuSans-72" transform="translate(57.519531 0.765625)"/>
      <use xlink:href="#DejaVuSans-61" transform="translate(98.632812 0.765625)"/>
      <use xlink:href="#DejaVuSans-63" transform="translate(159.912109 0.765625)"/>
      <use xlink:href="#DejaVuSans-63" transform="translate(214.892578 0.765625)"/>
      <use xlink:href="#DejaVuSans-69" transform="translate(269.873047 0.765625)"/>
      <use xlink:href="#DejaVuSans-f3" transform="translate(297.65625 0.765625)"/>
      <use xlink:href="#DejaVuSans-6e" transform="translate(358.837891 0.765625)"/>
      <use xlink:href="#DejaVuSans-20" transform="translate(422.216797 0.765625)"/>
      <use xlink:href="#DejaVuSans-f3" transform="translate(454.003906 0.765625)"/>
      <use xlink:href="#DejaVuSans-70" transform="translate(515.185547 0.765625)"/>
      <use xlink:href="#DejaVuSans-74" transform="translate(578.662109 0.765625)"/>
      <use xlink:href="#DejaVuSans-69" transform="translate(617.871094 0.765625)"/>
      <use xlink:href="#DejaVuSans-6d" transform="translate(645.654297 0.765625)"/>
      <use xlink:href="#DejaVuSans-61" transform="translate(743.066406 0.765625)"/>
      <use xlink:href="#DejaVuSans-20" transform="translate(804.345703 0.765625)"/>
      <use xlink:href="#DejaVuSans-64" transform="translate(836.132812 0.765625)"/>
      <use xlink:href="#DejaVuSans-65" transform="translate(899.609375 0.765625)"/>
      <use xlink:href="#DejaVuSans-20" transform="translate(961.132812 0.765625)"/>
      <use xlink:href="#DejaVuSans-61" transform="translate(992.919922 0.765625)"/>
      <use xlink:href="#DejaVuSans-70" transform="translate(1054.199219 0.765625)"/>
      <use xlink:href="#DejaVuSans-75" transform="translate(1117.675781 0.765625)"/>
      <use xlink:href="#DejaVuSans-65" transform="translate(1181.054688 0.765625)"/>
      <use xlink:href="#DejaVuSans-73" transform="translate(1242.578125 0.765625)"/>
      <use xlink:href="#DejaVuSans-74" transform="translate(1294.677734 0.765625)"/>
      <use xlink:href="#DejaVuSans-61" transform="translate(1333.886719 0.765625)"/>
      <use xlink:href="#DejaVuSans-20" transform="translate(1395.166016 0.765625)"/>
      <use xlink:href="#DejaVuSans-Oblique-66" transform="translate(1426.953125 0.765625)"/>
      <use xlink:href="#DejaVuSans-2a" transform="translate(1483.243607 39.046875) scale(0.7)"/>
     </g>
    </g>
   </g>
   <g id="line2d_31">
    <path d="M 72.590964 346.929244 
L 238.238964 346.929244 
L 239.964464 346.62312 
L 699.745 26.866705 
L 699.745 26.866705 
" clip-path="url(#p163fdfb713)" style="fill: none; stroke: #2196f3; stroke-width: 2.5; stroke-linecap: square"/>
   </g>
   <g id="line2d_32">
    <path d="M 63.805 346.929244 
L 678.8225 346.929244 
" clip-path="url(#p163fdfb713)" style="fill: none; stroke: #808080; stroke-width: 0.5; stroke-linecap: square"/>
   </g>
   <g id="patch_3">
    <path d="M 63.805 356.705625 
L 63.805 29.196875 
" style="fill: none; stroke: #000000; stroke-width: 0.8; stroke-linejoin: miter; stroke-linecap: square"/>
   </g>
   <g id="patch_4">
    <path d="M 678.8225 356.705625 
L 678.8225 29.196875 
" style="fill: none; stroke: #000000; stroke-width: 0.8; stroke-linejoin: miter; stroke-linecap: square"/>
   </g>
   <g id="patch_5">
    <path d="M 63.805 356.705625 
L 678.8225 356.705625 
" style="fill: none; stroke: #000000; stroke-width: 0.8; stroke-linejoin: miter; stroke-linecap: square"/>
   </g>
   <g id="patch_6">
    <path d="M 63.805 29.196875 
L 678.8225 29.196875 
" style="fill: none; stroke: #000000; stroke-width: 0.8; stroke-linejoin: miter; stroke-linecap: square"/>
   </g>
   <g id="patch_7">
    <path d="M 360.807999 293.981521 
Q 301.08221 320.055463 242.38107 345.682084 
" style="fill: none; stroke: #4caf50; stroke-linecap: round"/>
    <path d="M 248.633589 346.00767 
L 242.38107 345.682084 
L 246.39305 340.87542 
" style="fill: none; stroke: #4caf50; stroke-linecap: round"/>
   </g>
   <g id="text_18">
    <!-- Real: p=20%, f*=0% -->
    <g style="fill: #4caf50" transform="translate(309.812 288.270961) scale(0.14 -0.14)">
     <defs>
      <path id="DejaVuSans-52" d="M 2841 2188 
Q 3044 2119 3236 1894 
Q 3428 1669 3622 1275 
L 4263 0 
L 3584 0 
L 2988 1197 
Q 2756 1666 2539 1819 
Q 2322 1972 1947 1972 
L 1259 1972 
L 1259 0 
L 628 0 
L 628 4666 
L 2053 4666 
Q 2853 4666 3247 4331 
Q 3641 3997 3641 3322 
Q 3641 2881 3436 2590 
Q 3231 2300 2841 2188 
z
M 1259 4147 
L 1259 2491 
L 2053 2491 
Q 2509 2491 2742 2702 
Q 2975 2913 2975 3322 
Q 2975 3731 2742 3939 
Q 2509 4147 2053 4147 
L 1259 4147 
z
" transform="scale(0.015625)"/>
      <path id="DejaVuSans-3a" d="M 750 794 
L 1409 794 
L 1409 0 
L 750 0 
L 750 794 
z
M 750 3309 
L 1409 3309 
L 1409 2516 
L 750 2516 
L 750 3309 
z
" transform="scale(0.015625)"/>
      <path id="DejaVuSans-3d" d="M 678 2906 
L 4684 2906 
L 4684 2381 
L 678 2381 
L 678 2906 
z
M 678 1631 
L 4684 1631 
L 4684 1100 
L 678 1100 
L 678 1631 
z
" transform="scale(0.015625)"/>
      <path id="DejaVuSans-25" d="M 4653 2053 
Q 4381 2053 4226 1822 
Q 4072 1591 4072 1178 
Q 4072 772 4226 539 
Q 4381 306 4653 306 
Q 4919 306 5073 539 
Q 5228 772 5228 1178 
Q 5228 1588 5073 1820 
Q 4919 2053 4653 2053 
z
M 4653 2450 
Q 5147 2450 5437 2106 
Q 5728 1763 5728 1178 
Q 5728 594 5436 251 
Q 5144 -91 4653 -91 
Q 4153 -91 3862 251 
Q 3572 594 3572 1178 
Q 3572 1766 3864 2108 
Q 4156 2450 4653 2450 
z
M 1428 4353 
Q 1159 4353 1004 4120 
Q 850 3888 850 3481 
Q 850 3069 1003 2837 
Q 1156 2606 1428 2606 
Q 1700 2606 1854 2837 
Q 2009 3069 2009 3481 
Q 2009 3884 1853 4118 
Q 1697 4353 1428 4353 
z
M 4250 4750 
L 4750 4750 
L 1831 -91 
L 1331 -91 
L 4250 4750 
z
M 1428 4750 
Q 1922 4750 2215 4408 
Q 2509 4066 2509 3481 
Q 2509 2891 2217 2550 
Q 1925 2209 1428 2209 
Q 931 2209 642 2551 
Q 353 2894 353 3481 
Q 353 4063 643 4406 
Q 934 4750 1428 4750 
z
" transform="scale(0.015625)"/>
      <path id="DejaVuSans-2c" d="M 750 794 
L 1409 794 
L 1409 256 
L 897 -744 
L 494 -744 
L 750 256 
L 750 794 
z
" transform="scale(0.015625)"/>
      <path id="DejaVuSans-66" d="M 2375 4863 
L 2375 4384 
L 1825 4384 
Q 1516 4384 1395 4259 
Q 1275 4134 1275 3809 
L 1275 3500 
L 2222 3500 
L 2222 3053 
L 1275 3053 
L 1275 0 
L 697 0 
L 697 3053 
L 147 3053 
L 147 3500 
L 697 3500 
L 697 3744 
Q 697 4328 969 4595 
Q 1241 4863 1831 4863 
L 2375 4863 
z
" transform="scale(0.015625)"/>
     </defs>
     <use xlink:href="#DejaVuSans-52"/>
     <use xlink:href="#DejaVuSans-65" transform="translate(64.982422 0)"/>
     <use xlink:href="#DejaVuSans-61" transform="translate(126.505859 0)"/>
     <use xlink:href="#DejaVuSans-6c" transform="translate(187.785156 0)"/>
     <use xlink:href="#DejaVuSans-3a" transform="translate(215.568359 0)"/>
     <use xlink:href="#DejaVuSans-20" transform="translate(249.259766 0)"/>
     <use xlink:href="#DejaVuSans-70" transform="translate(281.046875 0)"/>
     <use xlink:href="#DejaVuSans-3d" transform="translate(344.523438 0)"/>
     <use xlink:href="#DejaVuSans-32" transform="translate(428.3125 0)"/>
     <use xlink:href="#DejaVuSans-30" transform="translate(491.935547 0)"/>
     <use xlink:href="#DejaVuSans-25" transform="translate(555.558594 0)"/>
     <use xlink:href="#DejaVuSans-2c" transform="translate(650.578125 0)"/>
     <use xlink:href="#DejaVuSans-20" transform="translate(682.365234 0)"/>
     <use xlink:href="#DejaVuSans-66" transform="translate(714.152344 0)"/>
     <use xlink:href="#DejaVuSans-2a" transform="translate(749.357422 0)"/>
     <use xlink:href="#DejaVuSans-3d" transform="translate(799.357422 0)"/>
     <use xlink:href="#DejaVuSans-30" transform="translate(883.146484 0)"/>
     <use xlink:href="#DejaVuSans-25" transform="translate(946.769531 0)"/>
    </g>
   </g>
   <g id="patch_8">
    <path d="M 465.266913 242.456658 
Q 397.2785 263.841977 330.356605 284.891829 
" style="fill: none; stroke: #f44336; stroke-linecap: round"/>
    <path d="M 336.538717 285.882532 
L 330.356605 284.891829 
L 334.858435 280.540561 
" style="fill: none; stroke: #f44336; stroke-linecap: round"/>
   </g>
   <g id="text_19">
    <!-- Sobreestimada: p=30%, f*=12% -->
    <g style="fill: #f44336" transform="translate(380.099714 236.944963) scale(0.14 -0.14)">
     <defs>
      <path id="DejaVuSans-53" d="M 3425 4513 
L 3425 3897 
Q 3066 4069 2747 4153 
Q 2428 4238 2131 4238 
Q 1616 4238 1336 4038 
Q 1056 3838 1056 3469 
Q 1056 3159 1242 3001 
Q 1428 2844 1947 2747 
L 2328 2669 
Q 3034 2534 3370 2195 
Q 3706 1856 3706 1288 
Q 3706 609 3251 259 
Q 2797 -91 1919 -91 
Q 1588 -91 1214 -16 
Q 841 59 441 206 
L 441 856 
Q 825 641 1194 531 
Q 1563 422 1919 422 
Q 2459 422 2753 634 
Q 3047 847 3047 1241 
Q 3047 1584 2836 1778 
Q 2625 1972 2144 2069 
L 1759 2144 
Q 1053 2284 737 2584 
Q 422 2884 422 3419 
Q 422 4038 858 4394 
Q 1294 4750 2059 4750 
Q 2388 4750 2728 4690 
Q 3069 4631 3425 4513 
z
" transform="scale(0.015625)"/>
     </defs>
     <use xlink:href="#DejaVuSans-53"/>
     <use xlink:href="#DejaVuSans-6f" transform="translate(63.476562 0)"/>
     <use xlink:href="#DejaVuSans-62" transform="translate(124.658203 0)"/>
     <use xlink:href="#DejaVuSans-72" transform="translate(188.134766 0)"/>
     <use xlink:href="#DejaVuSans-65" transform="translate(226.998047 0)"/>
     <use xlink:href="#DejaVuSans-65" transform="translate(288.521484 0)"/>
     <use xlink:href="#DejaVuSans-73" transform="translate(350.044922 0)"/>
     <use xlink:href="#DejaVuSans-74" transform="translate(402.144531 0)"/>
     <use xlink:href="#DejaVuSans-69" transform="translate(441.353516 0)"/>
     <use xlink:href="#DejaVuSans-6d" transform="translate(469.136719 0)"/>
     <use xlink:href="#DejaVuSans-61" transform="translate(566.548828 0)"/>
     <use xlink:href="#DejaVuSans-64" transform="translate(627.828125 0)"/>
     <use xlink:href="#DejaVuSans-61" transform="translate(691.304688 0)"/>
     <use xlink:href="#DejaVuSans-3a" transform="translate(752.583984 0)"/>
     <use xlink:href="#DejaVuSans-20" transform="translate(786.275391 0)"/>
     <use xlink:href="#DejaVuSans-70" transform="translate(818.0625 0)"/>
     <use xlink:href="#DejaVuSans-3d" transform="translate(881.539062 0)"/>
     <use xlink:href="#DejaVuSans-33" transform="translate(965.328125 0)"/>
     <use xlink:href="#DejaVuSans-30" transform="translate(1028.951172 0)"/>
     <use xlink:href="#DejaVuSans-25" transform="translate(1092.574219 0)"/>
     <use xlink:href="#DejaVuSans-2c" transform="translate(1187.59375 0)"/>
     <use xlink:href="#DejaVuSans-20" transform="translate(1219.380859 0)"/>
     <use xlink:href="#DejaVuSans-66" transform="translate(1251.167969 0)"/>
     <use xlink:href="#DejaVuSans-2a" transform="translate(1286.373047 0)"/>
     <use xlink:href="#DejaVuSans-3d" transform="translate(1336.373047 0)"/>
     <use xlink:href="#DejaVuSans-31" transform="translate(1420.162109 0)"/>
     <use xlink:href="#DejaVuSans-32" transform="translate(1483.785156 0)"/>
     <use xlink:href="#DejaVuSans-25" transform="translate(1547.408203 0)"/>
    </g>
   </g>
   <g id="patch_9">
    <path d="M 243.00367 344.509491 
Q 283.453694 316.378342 323.903718 288.247193 
" style="fill: none; stroke: #ff9800; stroke-width: 2; stroke-linecap: round"/>
    <path d="M 250.085007 343.482519 
L 243.00367 344.509491 
L 246.430894 338.228238 
" style="fill: none; stroke: #ff9800; stroke-width: 2; stroke-linecap: round"/>
    <path d="M 316.822382 289.274166 
L 323.903718 288.247193 
L 320.476494 294.528446 
" style="fill: none; stroke: #ff9800; stroke-width: 2; stroke-linecap: round"/>
   </g>
   <g id="text_20">
    <!-- Δf* = 12% -->
    <g style="fill: #ff9800" transform="translate(246.666138 331.042626) scale(0.13 -0.13)">
     <defs>
      <path id="DejaVuSans-Bold-394" d="M 4922 0 
L 31 0 
L 1759 4666 
L 3194 4666 
L 4922 0 
z
M 1559 909 
L 3384 909 
L 2478 3572 
L 1559 909 
z
" transform="scale(0.015625)"/>
      <path id="DejaVuSans-Bold-66" d="M 2841 4863 
L 2841 4128 
L 2222 4128 
Q 1984 4128 1890 4042 
Q 1797 3956 1797 3744 
L 1797 3500 
L 2753 3500 
L 2753 2700 
L 1797 2700 
L 1797 0 
L 678 0 
L 678 2700 
L 122 2700 
L 122 3500 
L 678 3500 
L 678 3744 
Q 678 4316 997 4589 
Q 1316 4863 1984 4863 
L 2841 4863 
z
" transform="scale(0.015625)"/>
      <path id="DejaVuSans-Bold-2a" d="M 3219 3803 
L 2188 3263 
L 3219 2719 
L 2981 2278 
L 1941 2853 
L 1941 1778 
L 1409 1778 
L 1409 2853 
L 366 2278 
L 128 2719 
L 1172 3263 
L 128 3803 
L 366 4244 
L 1409 3675 
L 1409 4750 
L 1941 4750 
L 1941 3675 
L 2981 4244 
L 3219 3803 
z
" transform="scale(0.015625)"/>
      <path id="DejaVuSans-Bold-20" transform="scale(0.015625)"/>
      <path id="DejaVuSans-Bold-3d" d="M 678 3084 
L 4684 3084 
L 4684 2350 
L 678 2350 
L 678 3084 
z
M 678 1663 
L 4684 1663 
L 4684 922 
L 678 922 
L 678 1663 
z
" transform="scale(0.015625)"/>
      <path id="DejaVuSans-Bold-31" d="M 750 831 
L 1813 831 
L 1813 3847 
L 722 3622 
L 722 4441 
L 1806 4666 
L 2950 4666 
L 2950 831 
L 4013 831 
L 4013 0 
L 750 0 
L 750 831 
z
" transform="scale(0.015625)"/>
      <path id="DejaVuSans-Bold-32" d="M 1844 884 
L 3897 884 
L 3897 0 
L 506 0 
L 506 884 
L 2209 2388 
Q 2438 2594 2547 2791 
Q 2656 2988 2656 3200 
Q 2656 3528 2436 3728 
Q 2216 3928 1850 3928 
Q 1569 3928 1234 3808 
Q 900 3688 519 3450 
L 519 4475 
Q 925 4609 1322 4679 
Q 1719 4750 2100 4750 
Q 2938 4750 3402 4381 
Q 3866 4013 3866 3353 
Q 3866 2972 3669 2642 
Q 3472 2313 2841 1759 
L 1844 884 
z
" transform="scale(0.015625)"/>
      <path id="DejaVuSans-Bold-25" d="M 4959 1925 
Q 4738 1925 4616 1733 
Q 4494 1541 4494 1184 
Q 4494 825 4614 633 
Q 4734 441 4959 441 
Q 5184 441 5303 633 
Q 5422 825 5422 1184 
Q 5422 1541 5301 1733 
Q 5181 1925 4959 1925 
z
M 4959 2450 
Q 5541 2450 5875 2112 
Q 6209 1775 6209 1184 
Q 6209 594 5875 251 
Q 5541 -91 4959 -91 
Q 4378 -91 4042 251 
Q 3706 594 3706 1184 
Q 3706 1772 4042 2111 
Q 4378 2450 4959 2450 
z
M 2094 -91 
L 1403 -91 
L 4319 4750 
L 5013 4750 
L 2094 -91 
z
M 1453 4750 
Q 2034 4750 2367 4411 
Q 2700 4072 2700 3481 
Q 2700 2891 2367 2550 
Q 2034 2209 1453 2209 
Q 872 2209 539 2550 
Q 206 2891 206 3481 
Q 206 4072 539 4411 
Q 872 4750 1453 4750 
z
M 1453 4225 
Q 1228 4225 1106 4031 
Q 984 3838 984 3481 
Q 984 3122 1106 2926 
Q 1228 2731 1453 2731 
Q 1678 2731 1798 2926 
Q 1919 3122 1919 3481 
Q 1919 3838 1797 4031 
Q 1675 4225 1453 4225 
z
" transform="scale(0.015625)"/>
     </defs>
     <use xlink:href="#DejaVuSans-Bold-394"/>
     <use xlink:href="#DejaVuSans-Bold-66" transform="translate(77.392578 0)"/>
     <use xlink:href="#DejaVuSans-Bold-2a" transform="translate(120.898438 0)"/>
     <use xlink:href="#DejaVuSans-Bold-20" transform="translate(173.193359 0)"/>
     <use xlink:href="#DejaVuSans-Bold-3d" transform="translate(208.007812 0)"/>
     <use xlink:href="#DejaVuSans-Bold-20" transform="translate(291.796875 0)"/>
     <use xlink:href="#DejaVuSans-Bold-31" transform="translate(326.611328 0)"/>
     <use xlink:href="#DejaVuSans-Bold-32" transform="translate(396.191406 0)"/>
     <use xlink:href="#DejaVuSans-Bold-25" transform="translate(465.771484 0)"/>
    </g>
   </g>
   <g id="text_21">
    <!-- Kelly Criterion — Sensibilidad a la estimación -->
    <g transform="translate(145.237187 23.196875) scale(0.2 -0.2)">
     <defs>
      <path id="DejaVuSans-4b" d="M 628 4666 
L 1259 4666 
L 1259 2694 
L 3353 4666 
L 4166 4666 
L 1850 2491 
L 4331 0 
L 3500 0 
L 1259 2247 
L 1259 0 
L 628 0 
L 628 4666 
z
" transform="scale(0.015625)"/>
      <path id="DejaVuSans-79" d="M 2059 -325 
Q 1816 -950 1584 -1140 
Q 1353 -1331 966 -1331 
L 506 -1331 
L 506 -850 
L 844 -850 
Q 1081 -850 1212 -737 
Q 1344 -625 1503 -206 
L 1606 56 
L 191 3500 
L 800 3500 
L 1894 763 
L 2988 3500 
L 3597 3500 
L 2059 -325 
z
" transform="scale(0.015625)"/>
      <path id="DejaVuSans-43" d="M 4122 4306 
L 4122 3641 
Q 3803 3938 3442 4084 
Q 3081 4231 2675 4231 
Q 1875 4231 1450 3742 
Q 1025 3253 1025 2328 
Q 1025 1406 1450 917 
Q 1875 428 2675 428 
Q 3081 428 3442 575 
Q 3803 722 4122 1019 
L 4122 359 
Q 3791 134 3420 21 
Q 3050 -91 2638 -91 
Q 1578 -91 968 557 
Q 359 1206 359 2328 
Q 359 3453 968 4101 
Q 1578 4750 2638 4750 
Q 3056 4750 3426 4639 
Q 3797 4528 4122 4306 
z
" transform="scale(0.015625)"/>
      <path id="DejaVuSans-2014" d="M 313 1978 
L 6088 1978 
L 6088 1528 
L 313 1528 
L 313 1978 
z
" transform="scale(0.015625)"/>
     </defs>
     <use xlink:href="#DejaVuSans-4b"/>
     <use xlink:href="#DejaVuSans-65" transform="translate(60.576172 0)"/>
     <use xlink:href="#DejaVuSans-6c" transform="translate(122.099609 0)"/>
     <use xlink:href="#DejaVuSans-6c" transform="translate(149.882812 0)"/>
     <use xlink:href="#DejaVuSans-79" transform="translate(177.666016 0)"/>
     <use xlink:href="#DejaVuSans-20" transform="translate(236.845703 0)"/>
     <use xlink:href="#DejaVuSans-43" transform="translate(268.632812 0)"/>
     <use xlink:href="#DejaVuSans-72" transform="translate(338.457031 0)"/>
     <use xlink:href="#DejaVuSans-69" transform="translate(379.570312 0)"/>
     <use xlink:href="#DejaVuSans-74" transform="translate(407.353516 0)"/>
     <use xlink:href="#DejaVuSans-65" transform="translate(446.5625 0)"/>
     <use xlink:href="#DejaVuSans-72" transform="translate(508.085938 0)"/>
     <use xlink:href="#DejaVuSans-69" transform="translate(549.199219 0)"/>
     <use xlink:href="#DejaVuSans-6f" transform="translate(576.982422 0)"/>
     <use xlink:href="#DejaVuSans-6e" transform="translate(638.164062 0)"/>
     <use xlink:href="#DejaVuSans-20" transform="translate(701.542969 0)"/>
     <use xlink:href="#DejaVuSans-2014" transform="translate(733.330078 0)"/>
     <use xlink:href="#DejaVuSans-20" transform="translate(833.330078 0)"/>
     <use xlink:href="#DejaVuSans-53" transform="translate(865.117188 0)"/>
     <use xlink:href="#DejaVuSans-65" transform="translate(928.59375 0)"/>
     <use xlink:href="#DejaVuSans-6e" transform="translate(990.117188 0)"/>
     <use xlink:href="#DejaVuSans-73" transform="translate(1053.496094 0)"/>
     <use xlink:href="#DejaVuSans-69" transform="translate(1105.595703 0)"/>
     <use xlink:href="#DejaVuSans-62" transform="translate(1133.378906 0)"/>
     <use xlink:href="#DejaVuSans-69" transform="translate(1196.855469 0)"/>
     <use xlink:href="#DejaVuSans-6c" transform="translate(1224.638672 0)"/>
     <use xlink:href="#DejaVuSans-69" transform="translate(1252.421875 0)"/>
     <use xlink:href="#DejaVuSans-64" transform="translate(1280.205078 0)"/>
     <use xlink:href="#DejaVuSans-61" transform="translate(1343.681641 0)"/>
     <use xlink:href="#DejaVuSans-64" transform="translate(1404.960938 0)"/>
     <use xlink:href="#DejaVuSans-20" transform="translate(1468.4375 0)"/>
     <use xlink:href="#DejaVuSans-61" transform="translate(1500.224609 0)"/>
     <use xlink:href="#DejaVuSans-20" transform="translate(1561.503906 0)"/>
     <use xlink:href="#DejaVuSans-6c" transform="translate(1593.291016 0)"/>
     <use xlink:href="#DejaVuSans-61" transform="translate(1621.074219 0)"/>
     <use xlink:href="#DejaVuSans-20" transform="translate(1682.353516 0)"/>
     <use xlink:href="#DejaVuSans-65" transform="translate(1714.140625 0)"/>
     <use xlink:href="#DejaVuSans-73" transform="translate(1775.664062 0)"/>
     <use xlink:href="#DejaVuSans-74" transform="translate(1827.763672 0)"/>
     <use xlink:href="#DejaVuSans-69" transform="translate(1866.972656 0)"/>
     <use xlink:href="#DejaVuSans-6d" transform="translate(1894.755859 0)"/>
     <use xlink:href="#DejaVuSans-61" transform="translate(1992.167969 0)"/>
     <use xlink:href="#DejaVuSans-63" transform="translate(2053.447266 0)"/>
     <use xlink:href="#DejaVuSans-69" transform="translate(2108.427734 0)"/>
     <use xlink:href="#DejaVuSans-f3" transform="translate(2136.210938 0)"/>
     <use xlink:href="#DejaVuSans-6e" transform="translate(2197.392578 0)"/>
    </g>
   </g>
   <g id="line2d_33">
    <defs>
     <path id="m3afc5bee62" d="M 0 6 
C 1.591219 6 3.117479 5.367802 4.242641 4.242641 
C 5.367802 3.117479 6 1.591219 6 0 
C 6 -1.591219 5.367802 -3.117479 4.242641 -4.242641 
C 3.117479 -5.367802 1.591219 -6 0 -6 
C -1.591219 -6 -3.117479 -5.367802 -4.242641 -4.242641 
C -5.367802 -3.117479 -6 -1.591219 -6 0 
C -6 1.591219 -5.367802 3.117479 -4.242641 4.242641 
C -3.117479 5.367802 -1.591219 6 0 6 
z
" style="stroke: #4caf50"/>
    </defs>
    <g clip-path="url(#p163fdfb713)">
     <use xlink:href="#m3afc5bee62" x="239.524286" y="346.929244" style="fill: #4caf50; stroke: #4caf50"/>
    </g>
   </g>
   <g id="line2d_34">
    <defs>
     <path id="m950f59ebd6" d="M 0 6 
C 1.591219 6 3.117479 5.367802 4.242641 4.242641 
C 5.367802 3.117479 6 1.591219 6 0 
C 6 -1.591219 5.367802 -3.117479 4.242641 -4.242641 
C 3.117479 -5.367802 1.591219 -6 0 -6 
C -1.591219 -6 -3.117479 -5.367802 -4.242641 -4.242641 
C -5.367802 -3.117479 -6 -1.591219 -6 0 
C -6 1.591219 -5.367802 3.117479 -4.242641 4.242641 
C -3.117479 5.367802 -1.591219 6 0 6 
z
" style="stroke: #f44336"/>
    </defs>
    <g clip-path="url(#p163fdfb713)">
     <use xlink:href="#m950f59ebd6" x="327.383929" y="285.826866" style="fill: #f44336; stroke: #f44336"/>
    </g>
   </g>
   <g id="legend_1">
    <g id="patch_10">
     <path d="M 73.605 68.956875 
L 227.045 68.956875 
Q 229.845 68.956875 229.845 66.156875 
L 229.845 38.996875 
Q 229.845 36.196875 227.045 36.196875 
L 73.605 36.196875 
Q 70.805 36.196875 70.805 38.996875 
L 70.805 66.156875 
Q 70.805 68.956875 73.605 68.956875 
z
" style="fill: #ffffff; opacity: 0.8; stroke: #cccccc; stroke-linejoin: miter"/>
    </g>
    <g id="line2d_35">
     <path d="M 76.405 52.576875 
L 90.405 52.576875 
L 104.405 52.576875 
" style="fill: none; stroke: #2196f3; stroke-width: 2.5; stroke-linecap: square"/>
    </g>
    <g id="text_22">
     <!-- $f^* = \frac{bp - q}{b}$, $b=4$ -->
     <g transform="translate(115.605 57.476875) scale(0.14 -0.14)">
      <defs>
       <path id="DejaVuSans-Oblique-62" d="M 3169 2138 
Q 3169 2591 2961 2847 
Q 2753 3103 2388 3103 
Q 2122 3103 1889 2973 
Q 1656 2844 1484 2597 
Q 1303 2338 1198 1995 
Q 1094 1653 1094 1313 
Q 1094 881 1298 636 
Q 1503 391 1863 391 
Q 2134 391 2365 517 
Q 2597 644 2772 891 
Q 2950 1147 3059 1487 
Q 3169 1828 3169 2138 
z
M 1381 2969 
Q 1594 3256 1914 3420 
Q 2234 3584 2584 3584 
Q 3122 3584 3439 3221 
Q 3756 2859 3756 2241 
Q 3756 1734 3570 1259 
Q 3384 784 3041 416 
Q 2816 172 2522 40 
Q 2228 -91 1906 -91 
Q 1566 -91 1316 65 
Q 1066 222 909 531 
L 806 0 
L 231 0 
L 1178 4863 
L 1753 4863 
L 1381 2969 
z
" transform="scale(0.015625)"/>
       <path id="DejaVuSans-2212" d="M 678 2272 
L 4684 2272 
L 4684 1741 
L 678 1741 
L 678 2272 
z
" transform="scale(0.015625)"/>
       <path id="DejaVuSans-Oblique-71" d="M 2669 525 
Q 2438 222 2123 65 
Q 1809 -91 1428 -91 
Q 897 -91 595 267 
Q 294 625 294 1253 
Q 294 1759 480 2231 
Q 666 2703 1013 3078 
Q 1238 3322 1530 3453 
Q 1822 3584 2144 3584 
Q 2531 3584 2781 3431 
Q 3031 3278 3144 2969 
L 3244 3494 
L 3822 3494 
L 2888 -1319 
L 2309 -1319 
L 2669 525 
z
M 891 1338 
Q 891 875 1084 633 
Q 1278 391 1644 391 
Q 2188 391 2572 911 
Q 2956 1431 2956 2175 
Q 2956 2625 2757 2864 
Q 2559 3103 2188 3103 
Q 1916 3103 1684 2976 
Q 1453 2850 1281 2606 
Q 1100 2350 995 2006 
Q 891 1663 891 1338 
z
" transform="scale(0.015625)"/>
      </defs>
      <use xlink:href="#DejaVuSans-Oblique-66" transform="translate(0 0.45625)"/>
      <use xlink:href="#DejaVuSans-2a" transform="translate(56.290482 38.7375) scale(0.7)"/>
      <use xlink:href="#DejaVuSans-3d" transform="translate(127.144974 0.45625)"/>
      <use xlink:href="#DejaVuSans-Oblique-62" transform="translate(230.416458 58.810938) scale(0.7)"/>
      <use xlink:href="#DejaVuSans-Oblique-70" transform="translate(274.850052 58.810938) scale(0.7)"/>
      <use xlink:href="#DejaVuSans-2212" transform="translate(332.921341 58.810938) scale(0.7)"/>
      <use xlink:href="#DejaVuSans-Oblique-71" transform="translate(405.21138 58.810938) scale(0.7)"/>
      <use xlink:href="#DejaVuSans-Oblique-62" transform="translate(317.416458 -40.185937) scale(0.7)"/>
      <use xlink:href="#DejaVuSans-2c" transform="translate(462.144974 0.45625)"/>
      <use xlink:href="#DejaVuSans-20" transform="translate(493.932083 0.45625)"/>
      <use xlink:href="#DejaVuSans-Oblique-62" transform="translate(525.719193 0.45625)"/>
      <use xlink:href="#DejaVuSans-3d" transform="translate(608.678177 0.45625)"/>
      <use xlink:href="#DejaVuSans-34" transform="translate(711.949661 0.45625)"/>
      <path d="M 230.416458 19.253125 
L 230.416458 25.503125 
L 449.644974 25.503125 
L 449.644974 19.253125 
L 230.416458 19.253125 
z
"/>
     </g>
    </g>
   </g>
  </g>
 </g>
 <defs>
  <clipPath id="p163fdfb713">
   <rect x="63.805" y="29.196875" width="615.0175" height="327.50875"/>
  </clipPath>
 </defs>
</svg>
