<?xml version="1.0" encoding="utf-8" standalone="no"?>
<!DOCTYPE svg PUBLIC "-//W3C//DTD SVG 1.1//EN"
  "http://www.w3.org/Graphics/SVG/1.1/DTD/svg11.dtd">
<svg xmlns:xlink="http://www.w3.org/1999/xlink" width="1095.83pt" height="591.3225pt" viewBox="0 0 1095.83 591.3225" xmlns="http://www.w3.org/2000/svg" version="1.1">
 <metadata>
  <rdf:RDF xmlns:dc="http://purl.org/dc/elements/1.1/" xmlns:cc="http://creativecommons.org/ns#" xmlns:rdf="http://www.w3.org/1999/02/22-rdf-syntax-ns#">
   <cc:Work>
    <dc:type rdf:resource="http://purl.org/dc/dcmitype/StillImage"/>
    <dc:date>2026-03-18T19:37:34.754341</dc:date>
    <dc:format>image/svg+xml</dc:format>
    <dc:creator>
     <cc:Agent>
      <dc:title>Matplotlib v3.10.8, https://matplotlib.org/</dc:title>
     </cc:Agent>
    </dc:creator>
   </cc:Work>
  </rdf:RDF>
 </metadata>
 <defs>
  <style type="text/css">*{stroke-linejoin: round; stroke-linecap: butt}</style>
 </defs>
 <g id="figure_1">
  <g id="patch_1">
   <path d="M 0 591.3225 
L 1095.83 591.3225 
L 1095.83 0 
L 0 0 
z
" style="fill: #ffffff"/>
  </g>
  <g id="axes_1">
   <g id="patch_2">
    <path d="M 120.655 505.7925 
L 1088.63 505.7925 
L 1088.63 45.9125 
L 120.655 45.9125 
z
" style="fill: #ffffff"/>
   </g>
   <g id="FillBetweenPolyCollection_1">
    <defs>
     <path id="m2780efdf42" d="M 364.807955 -468.763333 
L 364.807955 -468.748723 
L 366.423629 -468.401953 
L 368.039303 -468.051274 
L 369.654977 -467.696693 
L 371.270651 -467.338219 
L 372.886326 -466.975859 
L 374.502 -466.609623 
L 376.117674 -466.239518 
L 377.733348 -465.865552 
L 379.349022 -465.487732 
L 380.964697 -465.106067 
L 382.580371 -464.720565 
L 384.196045 -464.331232 
L 385.811719 -463.938076 
L 387.427393 -463.541105 
L 389.043068 -463.140325 
L 390.658742 -462.735745 
L 392.274416 -462.327372 
L 393.89009 -461.915212 
L 395.505765 -461.499273 
L 397.121439 -461.079561 
L 398.737113 -460.656084 
L 400.352787 -460.228848 
L 401.968461 -459.79786 
L 403.584136 -459.363127 
L 405.19981 -458.924655 
L 406.815484 -458.482451 
L 408.431158 -458.036521 
L 410.046832 -457.586872 
L 411.662507 -457.13351 
L 413.278181 -456.676441 
L 414.893855 -456.215671 
L 416.509529 -455.751207 
L 418.125203 -455.283055 
L 419.740878 -454.81122 
L 421.356552 -454.335708 
L 422.972226 -453.856526 
L 424.5879 -453.373679 
L 426.203574 -452.887172 
L 427.819249 -452.397012 
L 429.434923 -451.903203 
L 431.050597 -451.405752 
L 432.666271 -450.904664 
L 434.281946 -450.399944 
L 435.89762 -449.891598 
L 437.513294 -449.37963 
L 439.128968 -448.864046 
L 440.744642 -448.344852 
L 442.360317 -447.822051 
L 443.975991 -447.29565 
L 445.591665 -446.765653 
L 447.207339 -446.232065 
L 448.823013 -445.69489 
L 450.438688 -445.154134 
L 452.054362 -444.609801 
L 453.670036 -444.061896 
L 455.28571 -443.510424 
L 456.901384 -442.955388 
L 458.517059 -442.396794 
L 460.132733 -441.834646 
L 461.748407 -441.268948 
L 463.364081 -440.699704 
L 464.979755 -440.126919 
L 466.59543 -439.550597 
L 468.211104 -438.970741 
L 469.826778 -438.387357 
L 471.442452 -437.800447 
L 473.058127 -437.210017 
L 474.673801 -436.616069 
L 476.289475 -436.018608 
L 477.905149 -435.417638 
L 479.520823 -434.813161 
L 481.136498 -434.205182 
L 482.752172 -433.593705 
L 484.367846 -432.978733 
L 485.98352 -432.36027 
L 487.599194 -431.738318 
L 489.214869 -431.112882 
L 490.830543 -430.483964 
L 492.446217 -429.851568 
L 494.061891 -429.215698 
L 495.677565 -428.576356 
L 497.29324 -427.933546 
L 498.908914 -427.28727 
L 500.524588 -426.637533 
L 502.140262 -425.984336 
L 503.755936 -425.327682 
L 505.371611 -424.667575 
L 506.987285 -424.004018 
L 508.602959 -423.337013 
L 510.218633 -422.666562 
L 511.834308 -421.99267 
L 513.449982 -421.315337 
L 515.065656 -420.634567 
L 516.68133 -419.950363 
L 518.297004 -419.262727 
L 519.912679 -418.571661 
L 521.528353 -417.877167 
L 523.144027 -417.179249 
L 524.759701 -416.477908 
L 526.375375 -415.773147 
L 527.99105 -415.064968 
L 529.606724 -414.353372 
L 531.222398 -413.638363 
L 532.838072 -412.919942 
L 534.453746 -412.198111 
L 536.069421 -411.472872 
L 537.685095 -410.744228 
L 539.300769 -410.012179 
L 540.916443 -409.276728 
L 542.532117 -408.537877 
L 544.147792 -407.795627 
L 545.763466 -407.04998 
L 547.37914 -406.300938 
L 548.994814 -405.548502 
L 550.610489 -404.792675 
L 552.226163 -404.033456 
L 553.841837 -403.270848 
L 555.457511 -402.504853 
L 557.073185 -401.735472 
L 558.68886 -400.962705 
L 560.304534 -400.186555 
L 561.920208 -399.407022 
L 563.535882 -398.624109 
L 565.151556 -397.837815 
L 566.767231 -397.048142 
L 568.382905 -396.255091 
L 569.998579 -395.458664 
L 571.614253 -394.658861 
L 573.229927 -393.855683 
L 574.845602 -393.049131 
L 576.461276 -392.239207 
L 578.07695 -391.425909 
L 579.692624 -390.609241 
L 581.308298 -389.789202 
L 582.923973 -388.965793 
L 584.539647 -388.139014 
L 586.155321 -387.308867 
L 587.770995 -386.475351 
L 589.38667 -385.638468 
L 591.002344 -384.798218 
L 592.618018 -383.954601 
L 594.233692 -383.107618 
L 595.849366 -382.257269 
L 597.465041 -381.403555 
L 599.080715 -380.546475 
L 600.696389 -379.68603 
L 602.312063 -378.822221 
L 603.927737 -377.955046 
L 605.543412 -377.084507 
L 607.159086 -376.210604 
L 608.77476 -375.333336 
L 610.390434 -374.452704 
L 612.006108 -373.568707 
L 613.621783 -372.681346 
L 615.237457 -371.79062 
L 616.853131 -370.89653 
L 618.468805 -369.999074 
L 620.08448 -369.098253 
L 621.700154 -368.194066 
L 623.315828 -367.286514 
L 624.931502 -366.375596 
L 626.547176 -365.46131 
L 628.162851 -364.543658 
L 629.778525 -363.622639 
L 631.394199 -362.698251 
L 633.009873 -361.770495 
L 634.625547 -360.839369 
L 636.241222 -359.904874 
L 637.856896 -358.967008 
L 639.47257 -358.025771 
L 641.088244 -357.081162 
L 642.703918 -356.133181 
L 644.319593 -355.181825 
L 645.935267 -354.227096 
L 647.550941 -353.268991 
L 649.166615 -352.307509 
L 650.782289 -351.342651 
L 652.397964 -350.374414 
L 654.013638 -349.402798 
L 655.629312 -348.427802 
L 657.244986 -347.449423 
L 658.860661 -346.467663 
L 660.476335 -345.482518 
L 662.092009 -344.493988 
L 663.707683 -343.502071 
L 665.323357 -342.506767 
L 666.939032 -341.508073 
L 668.554706 -340.505989 
L 670.17038 -339.500512 
L 671.786054 -338.491642 
L 673.401728 -337.479377 
L 675.017403 -336.463716 
L 676.633077 -335.444656 
L 678.248751 -334.422196 
L 679.864425 -333.396335 
L 681.480099 -332.367071 
L 683.095774 -331.334401 
L 684.711448 -330.298325 
L 686.327122 -329.25884 
L 687.942796 -328.215945 
L 689.55847 -327.169637 
L 691.174145 -326.119915 
L 692.789819 -325.066777 
L 694.405493 -324.01022 
L 696.021167 -322.950243 
L 697.636842 -321.886843 
L 699.252516 -320.820019 
L 700.86819 -319.749768 
L 702.483864 -318.676088 
L 704.099538 -317.598977 
L 705.715213 -316.518433 
L 707.330887 -315.434452 
L 708.946561 -314.347033 
L 710.562235 -313.256174 
L 712.177909 -312.161872 
L 713.793584 -311.064124 
L 715.409258 -309.962928 
L 717.024932 -308.858281 
L 718.640606 -307.750181 
L 720.25628 -306.638626 
L 721.871955 -305.523612 
L 723.487629 -304.405137 
L 725.103303 -303.283197 
L 726.718977 -302.157792 
L 728.334651 -301.028916 
L 729.950326 -299.896568 
L 731.566 -298.760745 
L 733.181674 -297.621444 
L 734.797348 -296.478661 
L 736.413023 -295.332395 
L 738.028697 -294.182641 
L 739.644371 -293.029396 
L 741.260045 -291.872658 
L 742.875719 -290.712424 
L 744.491394 -289.548689 
L 746.107068 -288.381452 
L 747.722742 -287.210708 
L 749.338416 -286.036454 
L 750.95409 -284.858687 
L 752.569765 -283.677404 
L 754.185439 -282.4926 
L 755.801113 -281.304273 
L 757.416787 -280.11242 
L 759.032461 -278.917035 
L 760.648136 -277.718117 
L 762.26381 -276.515661 
L 763.879484 -275.309663 
L 765.495158 -274.100121 
L 767.110832 -272.887029 
L 768.726507 -271.670385 
L 770.342181 -270.450184 
L 771.957855 -269.226422 
L 773.573529 -267.999097 
L 775.189204 -266.768203 
L 776.804878 -265.533736 
L 778.420552 -264.295694 
L 780.036226 -263.054071 
L 781.6519 -261.808863 
L 783.267575 -260.560067 
L 784.883249 -259.307678 
L 786.498923 -258.051691 
L 788.114597 -256.792104 
L 789.730271 -255.52891 
L 791.345946 -254.262107 
L 792.96162 -252.991689 
L 794.577294 -251.717652 
L 796.192968 -250.439991 
L 797.808642 -249.158703 
L 799.424317 -247.873782 
L 801.039991 -246.585224 
L 802.655665 -245.293024 
L 804.271339 -243.997178 
L 805.887013 -242.69768 
L 807.502688 -241.394527 
L 809.118362 -240.087712 
L 810.734036 -238.777232 
L 812.34971 -237.463082 
L 813.965385 -236.145256 
L 815.581059 -234.82375 
L 817.196733 -233.498558 
L 818.812407 -232.169675 
L 820.428081 -230.837097 
L 822.043756 -229.500818 
L 823.65943 -228.160832 
L 825.275104 -226.817136 
L 826.890778 -225.469723 
L 828.506452 -224.118588 
L 830.122127 -222.763726 
L 831.737801 -221.405131 
L 833.353475 -220.042798 
L 834.969149 -218.676721 
L 836.584823 -217.306895 
L 838.200498 -215.933314 
L 839.816172 -214.555973 
L 841.431846 -213.174866 
L 843.04752 -211.789987 
L 844.663194 -210.40133 
L 846.278869 -209.00889 
L 847.894543 -207.612661 
L 849.510217 -206.212636 
L 851.125891 -204.80881 
L 852.741566 -203.401178 
L 854.35724 -201.989732 
L 855.972914 -200.574467 
L 857.588588 -199.155376 
L 859.204262 -197.732454 
L 860.819937 -196.305694 
L 862.435611 -194.87509 
L 864.051285 -193.440636 
L 865.666959 -192.002325 
L 867.282633 -190.560151 
L 868.898308 -189.114108 
L 870.513982 -187.664188 
L 872.129656 -186.210386 
L 873.74533 -184.752694 
L 875.361004 -183.291107 
L 876.976679 -181.825617 
L 878.592353 -180.356218 
L 880.208027 -178.882903 
L 881.823701 -177.405665 
L 883.439376 -175.924497 
L 885.05505 -174.439392 
L 886.670724 -172.950343 
L 888.286398 -171.457344 
L 889.902072 -169.960387 
L 891.517747 -168.459465 
L 893.133421 -166.954571 
L 894.749095 -165.445698 
L 896.364769 -163.932837 
L 897.980443 -162.415983 
L 899.596118 -160.895128 
L 901.211792 -159.370263 
L 902.827466 -157.841383 
L 904.44314 -156.308478 
L 906.058814 -154.771542 
L 907.674489 -153.230567 
L 909.290163 -151.685546 
L 910.905837 -150.136469 
L 912.521511 -148.583331 
L 914.137185 -147.026122 
L 915.75286 -145.464836 
L 917.368534 -143.899463 
L 918.984208 -142.329997 
L 920.599882 -140.756428 
L 922.215557 -139.17875 
L 923.831231 -137.596953 
L 925.446905 -136.011029 
L 927.062579 -134.420971 
L 928.678253 -132.826769 
L 930.293928 -131.228416 
L 931.909602 -129.625903 
L 933.525276 -128.019222 
L 935.14095 -126.408364 
L 936.756624 -124.79332 
L 938.372299 -123.174081 
L 939.987973 -121.55064 
L 941.603647 -119.922987 
L 943.219321 -118.291113 
L 944.834995 -116.65501 
L 946.45067 -115.014669 
L 948.066344 -113.37008 
L 949.682018 -111.721234 
L 951.297692 -110.068123 
L 952.913366 -108.410737 
L 954.529041 -106.749067 
L 956.144715 -105.083103 
L 957.760389 -103.412837 
L 959.376063 -101.738259 
L 960.991738 -100.059359 
L 962.607412 -98.376128 
L 964.223086 -96.688557 
L 965.83876 -94.996635 
L 967.454434 -93.300352 
L 969.070109 -91.5997 
L 970.685783 -89.894668 
L 972.301457 -88.185247 
L 973.917131 -86.471426 
L 975.532805 -84.753195 
L 977.14848 -83.030544 
L 978.764154 -81.303464 
L 980.379828 -79.571943 
L 981.995502 -77.835972 
L 983.611176 -76.09554 
L 985.226851 -74.350637 
L 986.842525 -72.601252 
L 988.458199 -70.847375 
L 990.073873 -69.088995 
L 991.689547 -67.326101 
L 993.305222 -65.558683 
L 994.920896 -63.78673 
L 996.53657 -62.010232 
L 998.152244 -60.229176 
L 999.767919 -58.443552 
L 1001.383593 -56.653349 
L 1002.999267 -54.858556 
L 1004.614941 -53.059161 
L 1006.230615 -51.255154 
L 1007.84629 -49.446522 
L 1009.461964 -47.633255 
L 1011.077638 -45.815341 
L 1012.693312 -43.992769 
L 1014.308986 -42.165526 
L 1015.924661 -40.333601 
L 1017.540335 -38.496982 
L 1019.156009 -36.655657 
L 1020.771683 -34.809615 
L 1022.387357 -32.958843 
L 1024.003032 -31.10333 
L 1025.618706 -29.243062 
L 1027.23438 -27.378028 
L 1028.850054 -25.508216 
L 1030.465728 -23.633613 
L 1032.081403 -21.754207 
L 1033.697077 -19.869985 
L 1035.312751 -17.980934 
L 1036.928425 -16.087042 
L 1038.5441 -14.188296 
L 1040.159774 -12.284683 
L 1041.775448 -10.37619 
L 1043.391122 -8.462805 
L 1045.006796 -6.544513 
L 1046.622471 -4.621302 
L 1048.238145 -2.693159 
L 1049.853819 -0.760071 
L 1051.469493 1.177977 
L 1053.085167 3.120998 
L 1054.700842 5.069005 
L 1056.316516 7.022011 
L 1057.93219 8.980032 
L 1059.547864 10.94308 
L 1061.163538 12.911169 
L 1062.779213 14.884314 
L 1064.394887 16.862529 
L 1066.010561 18.845828 
L 1067.626235 20.834224 
L 1069.241909 22.827733 
L 1070.857584 24.826369 
L 1072.473258 26.830147 
L 1074.088932 28.83908 
L 1075.704606 30.853185 
L 1077.320281 32.872475 
L 1078.935955 34.896965 
L 1080.551629 36.926672 
L 1082.167303 38.961609 
L 1083.782977 41.001791 
L 1085.398652 43.047235 
L 1087.014326 45.097956 
L 1088.63 47.153968 
L 1088.63 -468.763333 
L 1088.63 -468.763333 
L 1087.014326 -468.763333 
L 1085.398652 -468.763333 
L 1083.782977 -468.763333 
L 1082.167303 -468.763333 
L 1080.551629 -468.763333 
L 1078.935955 -468.763333 
L 1077.320281 -468.763333 
L 1075.704606 -468.763333 
L 1074.088932 -468.763333 
L 1072.473258 -468.763333 
L 1070.857584 -468.763333 
L 1069.241909 -468.763333 
L 1067.626235 -468.763333 
L 1066.010561 -468.763333 
L 1064.394887 -468.763333 
L 1062.779213 -468.763333 
L 1061.163538 -468.763333 
L 1059.547864 -468.763333 
L 1057.93219 -468.763333 
L 1056.316516 -468.763333 
L 1054.700842 -468.763333 
L 1053.085167 -468.763333 
L 1051.469493 -468.763333 
L 1049.853819 -468.763333 
L 1048.238145 -468.763333 
L 1046.622471 -468.763333 
L 1045.006796 -468.763333 
L 1043.391122 -468.763333 
L 1041.775448 -468.763333 
L 1040.159774 -468.763333 
L 1038.5441 -468.763333 
L 1036.928425 -468.763333 
L 1035.312751 -468.763333 
L 1033.697077 -468.763333 
L 1032.081403 -468.763333 
L 1030.465728 -468.763333 
L 1028.850054 -468.763333 
L 1027.23438 -468.763333 
L 1025.618706 -468.763333 
L 1024.003032 -468.763333 
L 1022.387357 -468.763333 
L 1020.771683 -468.763333 
L 1019.156009 -468.763333 
L 1017.540335 -468.763333 
L 1015.924661 -468.763333 
L 1014.308986 -468.763333 
L 1012.693312 -468.763333 
L 1011.077638 -468.763333 
L 1009.461964 -468.763333 
L 1007.84629 -468.763333 
L 1006.230615 -468.763333 
L 1004.614941 -468.763333 
L 1002.999267 -468.763333 
L 1001.383593 -468.763333 
L 999.767919 -468.763333 
L 998.152244 -468.763333 
L 996.53657 -468.763333 
L 994.920896 -468.763333 
L 993.305222 -468.763333 
L 991.689547 -468.763333 
L 990.073873 -468.763333 
L 988.458199 -468.763333 
L 986.842525 -468.763333 
L 985.226851 -468.763333 
L 983.611176 -468.763333 
L 981.995502 -468.763333 
L 980.379828 -468.763333 
L 978.764154 -468.763333 
L 977.14848 -468.763333 
L 975.532805 -468.763333 
L 973.917131 -468.763333 
L 972.301457 -468.763333 
L 970.685783 -468.763333 
L 969.070109 -468.763333 
L 967.454434 -468.763333 
L 965.83876 -468.763333 
L 964.223086 -468.763333 
L 962.607412 -468.763333 
L 960.991738 -468.763333 
L 959.376063 -468.763333 
L 957.760389 -468.763333 
L 956.144715 -468.763333 
L 954.529041 -468.763333 
L 952.913366 -468.763333 
L 951.297692 -468.763333 
L 949.682018 -468.763333 
L 948.066344 -468.763333 
L 946.45067 -468.763333 
L 944.834995 -468.763333 
L 943.219321 -468.763333 
L 941.603647 -468.763333 
L 939.987973 -468.763333 
L 938.372299 -468.763333 
L 936.756624 -468.763333 
L 935.14095 -468.763333 
L 933.525276 -468.763333 
L 931.909602 -468.763333 
L 930.293928 -468.763333 
L 928.678253 -468.763333 
L 927.062579 -468.763333 
L 925.446905 -468.763333 
L 923.831231 -468.763333 
L 922.215557 -468.763333 
L 920.599882 -468.763333 
L 918.984208 -468.763333 
L 917.368534 -468.763333 
L 915.75286 -468.763333 
L 914.137185 -468.763333 
L 912.521511 -468.763333 
L 910.905837 -468.763333 
L 909.290163 -468.763333 
L 907.674489 -468.763333 
L 906.058814 -468.763333 
L 904.44314 -468.763333 
L 902.827466 -468.763333 
L 901.211792 -468.763333 
L 899.596118 -468.763333 
L 897.980443 -468.763333 
L 896.364769 -468.763333 
L 894.749095 -468.763333 
L 893.133421 -468.763333 
L 891.517747 -468.763333 
L 889.902072 -468.763333 
L 888.286398 -468.763333 
L 886.670724 -468.763333 
L 885.05505 -468.763333 
L 883.439376 -468.763333 
L 881.823701 -468.763333 
L 880.208027 -468.763333 
L 878.592353 -468.763333 
L 876.976679 -468.763333 
L 875.361004 -468.763333 
L 873.74533 -468.763333 
L 872.129656 -468.763333 
L 870.513982 -468.763333 
L 868.898308 -468.763333 
L 867.282633 -468.763333 
L 865.666959 -468.763333 
L 864.051285 -468.763333 
L 862.435611 -468.763333 
L 860.819937 -468.763333 
L 859.204262 -468.763333 
L 857.588588 -468.763333 
L 855.972914 -468.763333 
L 854.35724 -468.763333 
L 852.741566 -468.763333 
L 851.125891 -468.763333 
L 849.510217 -468.763333 
L 847.894543 -468.763333 
L 846.278869 -468.763333 
L 844.663194 -468.763333 
L 843.04752 -468.763333 
L 841.431846 -468.763333 
L 839.816172 -468.763333 
L 838.200498 -468.763333 
L 836.584823 -468.763333 
L 834.969149 -468.763333 
L 833.353475 -468.763333 
L 831.737801 -468.763333 
L 830.122127 -468.763333 
L 828.506452 -468.763333 
L 826.890778 -468.763333 
L 825.275104 -468.763333 
L 823.65943 -468.763333 
L 822.043756 -468.763333 
L 820.428081 -468.763333 
L 818.812407 -468.763333 
L 817.196733 -468.763333 
L 815.581059 -468.763333 
L 813.965385 -468.763333 
L 812.34971 -468.763333 
L 810.734036 -468.763333 
L 809.118362 -468.763333 
L 807.502688 -468.763333 
L 805.887013 -468.763333 
L 804.271339 -468.763333 
L 802.655665 -468.763333 
L 801.039991 -468.763333 
L 799.424317 -468.763333 
L 797.808642 -468.763333 
L 796.192968 -468.763333 
L 794.577294 -468.763333 
L 792.96162 -468.763333 
L 791.345946 -468.763333 
L 789.730271 -468.763333 
L 788.114597 -468.763333 
L 786.498923 -468.763333 
L 784.883249 -468.763333 
L 783.267575 -468.763333 
L 781.6519 -468.763333 
L 780.036226 -468.763333 
L 778.420552 -468.763333 
L 776.804878 -468.763333 
L 775.189204 -468.763333 
L 773.573529 -468.763333 
L 771.957855 -468.763333 
L 770.342181 -468.763333 
L 768.726507 -468.763333 
L 767.110832 -468.763333 
L 765.495158 -468.763333 
L 763.879484 -468.763333 
L 762.26381 -468.763333 
L 760.648136 -468.763333 
L 759.032461 -468.763333 
L 757.416787 -468.763333 
L 755.801113 -468.763333 
L 754.185439 -468.763333 
L 752.569765 -468.763333 
L 750.95409 -468.763333 
L 749.338416 -468.763333 
L 747.722742 -468.763333 
L 746.107068 -468.763333 
L 744.491394 -468.763333 
L 742.875719 -468.763333 
L 741.260045 -468.763333 
L 739.644371 -468.763333 
L 738.028697 -468.763333 
L 736.413023 -468.763333 
L 734.797348 -468.763333 
L 733.181674 -468.763333 
L 731.566 -468.763333 
L 729.950326 -468.763333 
L 728.334651 -468.763333 
L 726.718977 -468.763333 
L 725.103303 -468.763333 
L 723.487629 -468.763333 
L 721.871955 -468.763333 
L 720.25628 -468.763333 
L 718.640606 -468.763333 
L 717.024932 -468.763333 
L 715.409258 -468.763333 
L 713.793584 -468.763333 
L 712.177909 -468.763333 
L 710.562235 -468.763333 
L 708.946561 -468.763333 
L 707.330887 -468.763333 
L 705.715213 -468.763333 
L 704.099538 -468.763333 
L 702.483864 -468.763333 
L 700.86819 -468.763333 
L 699.252516 -468.763333 
L 697.636842 -468.763333 
L 696.021167 -468.763333 
L 694.405493 -468.763333 
L 692.789819 -468.763333 
L 691.174145 -468.763333 
L 689.55847 -468.763333 
L 687.942796 -468.763333 
L 686.327122 -468.763333 
L 684.711448 -468.763333 
L 683.095774 -468.763333 
L 681.480099 -468.763333 
L 679.864425 -468.763333 
L 678.248751 -468.763333 
L 676.633077 -468.763333 
L 675.017403 -468.763333 
L 673.401728 -468.763333 
L 671.786054 -468.763333 
L 670.17038 -468.763333 
L 668.554706 -468.763333 
L 666.939032 -468.763333 
L 665.323357 -468.763333 
L 663.707683 -468.763333 
L 662.092009 -468.763333 
L 660.476335 -468.763333 
L 658.860661 -468.763333 
L 657.244986 -468.763333 
L 655.629312 -468.763333 
L 654.013638 -468.763333 
L 652.397964 -468.763333 
L 650.782289 -468.763333 
L 649.166615 -468.763333 
L 647.550941 -468.763333 
L 645.935267 -468.763333 
L 644.319593 -468.763333 
L 642.703918 -468.763333 
L 641.088244 -468.763333 
L 639.47257 -468.763333 
L 637.856896 -468.763333 
L 636.241222 -468.763333 
L 634.625547 -468.763333 
L 633.009873 -468.763333 
L 631.394199 -468.763333 
L 629.778525 -468.763333 
L 628.162851 -468.763333 
L 626.547176 -468.763333 
L 624.931502 -468.763333 
L 623.315828 -468.763333 
L 621.700154 -468.763333 
L 620.08448 -468.763333 
L 618.468805 -468.763333 
L 616.853131 -468.763333 
L 615.237457 -468.763333 
L 613.621783 -468.763333 
L 612.006108 -468.763333 
L 610.390434 -468.763333 
L 608.77476 -468.763333 
L 607.159086 -468.763333 
L 605.543412 -468.763333 
L 603.927737 -468.763333 
L 602.312063 -468.763333 
L 600.696389 -468.763333 
L 599.080715 -468.763333 
L 597.465041 -468.763333 
L 595.849366 -468.763333 
L 594.233692 -468.763333 
L 592.618018 -468.763333 
L 591.002344 -468.763333 
L 589.38667 -468.763333 
L 587.770995 -468.763333 
L 586.155321 -468.763333 
L 584.539647 -468.763333 
L 582.923973 -468.763333 
L 581.308298 -468.763333 
L 579.692624 -468.763333 
L 578.07695 -468.763333 
L 576.461276 -468.763333 
L 574.845602 -468.763333 
L 573.229927 -468.763333 
L 571.614253 -468.763333 
L 569.998579 -468.763333 
L 568.382905 -468.763333 
L 566.767231 -468.763333 
L 565.151556 -468.763333 
L 563.535882 -468.763333 
L 561.920208 -468.763333 
L 560.304534 -468.763333 
L 558.68886 -468.763333 
L 557.073185 -468.763333 
L 555.457511 -468.763333 
L 553.841837 -468.763333 
L 552.226163 -468.763333 
L 550.610489 -468.763333 
L 548.994814 -468.763333 
L 547.37914 -468.763333 
L 545.763466 -468.763333 
L 544.147792 -468.763333 
L 542.532117 -468.763333 
L 540.916443 -468.763333 
L 539.300769 -468.763333 
L 537.685095 -468.763333 
L 536.069421 -468.763333 
L 534.453746 -468.763333 
L 532.838072 -468.763333 
L 531.222398 -468.763333 
L 529.606724 -468.763333 
L 527.99105 -468.763333 
L 526.375375 -468.763333 
L 524.759701 -468.763333 
L 523.144027 -468.763333 
L 521.528353 -468.763333 
L 519.912679 -468.763333 
L 518.297004 -468.763333 
L 516.68133 -468.763333 
L 515.065656 -468.763333 
L 513.449982 -468.763333 
L 511.834308 -468.763333 
L 510.218633 -468.763333 
L 508.602959 -468.763333 
L 506.987285 -468.763333 
L 505.371611 -468.763333 
L 503.755936 -468.763333 
L 502.140262 -468.763333 
L 500.524588 -468.763333 
L 498.908914 -468.763333 
L 497.29324 -468.763333 
L 495.677565 -468.763333 
L 494.061891 -468.763333 
L 492.446217 -468.763333 
L 490.830543 -468.763333 
L 489.214869 -468.763333 
L 487.599194 -468.763333 
L 485.98352 -468.763333 
L 484.367846 -468.763333 
L 482.752172 -468.763333 
L 481.136498 -468.763333 
L 479.520823 -468.763333 
L 477.905149 -468.763333 
L 476.289475 -468.763333 
L 474.673801 -468.763333 
L 473.058127 -468.763333 
L 471.442452 -468.763333 
L 469.826778 -468.763333 
L 468.211104 -468.763333 
L 466.59543 -468.763333 
L 464.979755 -468.763333 
L 463.364081 -468.763333 
L 461.748407 -468.763333 
L 460.132733 -468.763333 
L 458.517059 -468.763333 
L 456.901384 -468.763333 
L 455.28571 -468.763333 
L 453.670036 -468.763333 
L 452.054362 -468.763333 
L 450.438688 -468.763333 
L 448.823013 -468.763333 
L 447.207339 -468.763333 
L 445.591665 -468.763333 
L 443.975991 -468.763333 
L 442.360317 -468.763333 
L 440.744642 -468.763333 
L 439.128968 -468.763333 
L 437.513294 -468.763333 
L 435.89762 -468.763333 
L 434.281946 -468.763333 
L 432.666271 -468.763333 
L 431.050597 -468.763333 
L 429.434923 -468.763333 
L 427.819249 -468.763333 
L 426.203574 -468.763333 
L 424.5879 -468.763333 
L 422.972226 -468.763333 
L 421.356552 -468.763333 
L 419.740878 -468.763333 
L 418.125203 -468.763333 
L 416.509529 -468.763333 
L 414.893855 -468.763333 
L 413.278181 -468.763333 
L 411.662507 -468.763333 
L 410.046832 -468.763333 
L 408.431158 -468.763333 
L 406.815484 -468.763333 
L 405.19981 -468.763333 
L 403.584136 -468.763333 
L 401.968461 -468.763333 
L 400.352787 -468.763333 
L 398.737113 -468.763333 
L 397.121439 -468.763333 
L 395.505765 -468.763333 
L 393.89009 -468.763333 
L 392.274416 -468.763333 
L 390.658742 -468.763333 
L 389.043068 -468.763333 
L 387.427393 -468.763333 
L 385.811719 -468.763333 
L 384.196045 -468.763333 
L 382.580371 -468.763333 
L 380.964697 -468.763333 
L 379.349022 -468.763333 
L 377.733348 -468.763333 
L 376.117674 -468.763333 
L 374.502 -468.763333 
L 372.886326 -468.763333 
L 371.270651 -468.763333 
L 369.654977 -468.763333 
L 368.039303 -468.763333 
L 366.423629 -468.763333 
L 364.807955 -468.763333 
z
" style="stroke: #ff0000; stroke-opacity: 0.12"/>
    </defs>
    <g clip-path="url(#p022d29102c)">
     <use xlink:href="#m2780efdf42" x="0" y="591.3225" style="fill: #ff0000; fill-opacity: 0.12; stroke: #ff0000; stroke-opacity: 0.12"/>
    </g>
   </g>
   <g id="FillBetweenPolyCollection_2">
    <defs>
     <path id="mf8e419c09d" d="M 120.841149 -468.763333 
L 120.841149 -468.811192 
L 122.456823 -469.222765 
L 124.072497 -469.627524 
L 125.688172 -470.025506 
L 127.303846 -470.416748 
L 128.91952 -470.801287 
L 130.535194 -471.17916 
L 132.150868 -471.550402 
L 133.766543 -471.915049 
L 135.382217 -472.273135 
L 136.997891 -472.624697 
L 138.613565 -472.969768 
L 140.22924 -473.308382 
L 141.844914 -473.640572 
L 143.460588 -473.966373 
L 145.076262 -474.285818 
L 146.691936 -474.598938 
L 148.307611 -474.905766 
L 149.923285 -475.206334 
L 151.538959 -475.500673 
L 153.154633 -475.788815 
L 154.770307 -476.070791 
L 156.385982 -476.346632 
L 158.001656 -476.616366 
L 159.61733 -476.880026 
L 161.233004 -477.13764 
L 162.848678 -477.389237 
L 164.464353 -477.634847 
L 166.080027 -477.874498 
L 167.695701 -478.108219 
L 169.311375 -478.336037 
L 170.92705 -478.557982 
L 172.542724 -478.77408 
L 174.158398 -478.984359 
L 175.774072 -479.188845 
L 177.389746 -479.387566 
L 179.005421 -479.580547 
L 180.621095 -479.767816 
L 182.236769 -479.949398 
L 183.852443 -480.125318 
L 185.468117 -480.295602 
L 187.083792 -480.460276 
L 188.699466 -480.619363 
L 190.31514 -480.77289 
L 191.930814 -480.920879 
L 193.546488 -481.063356 
L 195.162163 -481.200344 
L 196.777837 -481.331867 
L 198.393511 -481.457949 
L 200.009185 -481.578612 
L 201.624859 -481.693879 
L 203.240534 -481.803774 
L 204.856208 -481.908318 
L 206.471882 -482.007534 
L 208.087556 -482.101445 
L 209.703231 -482.190072 
L 211.318905 -482.273436 
L 212.934579 -482.351559 
L 214.550253 -482.424463 
L 216.165927 -482.492168 
L 217.781602 -482.554695 
L 219.397276 -482.612064 
L 221.01295 -482.664297 
L 222.628624 -482.711413 
L 224.244298 -482.753433 
L 225.859973 -482.790375 
L 227.475647 -482.82226 
L 229.091321 -482.849107 
L 230.706995 -482.870936 
L 232.322669 -482.887765 
L 233.938344 -482.899613 
L 235.554018 -482.906499 
L 237.169692 -482.908442 
L 238.785366 -482.905459 
L 240.40104 -482.89757 
L 242.016715 -482.884791 
L 243.632389 -482.867141 
L 245.248063 -482.844637 
L 246.863737 -482.817296 
L 248.479412 -482.785137 
L 250.095086 -482.748176 
L 251.71076 -482.70643 
L 253.326434 -482.659915 
L 254.942108 -482.60865 
L 256.557783 -482.552649 
L 258.173457 -482.491929 
L 259.789131 -482.426507 
L 261.404805 -482.356398 
L 263.020479 -482.281618 
L 264.636154 -482.202184 
L 266.251828 -482.118109 
L 267.867502 -482.029411 
L 269.483176 -481.936104 
L 271.09885 -481.838203 
L 272.714525 -481.735723 
L 274.330199 -481.628679 
L 275.945873 -481.517086 
L 277.561547 -481.400957 
L 279.177221 -481.280309 
L 280.792896 -481.155154 
L 282.40857 -481.025507 
L 284.024244 -480.891382 
L 285.639918 -480.752793 
L 287.255593 -480.609753 
L 288.871267 -480.462277 
L 290.486941 -480.310377 
L 292.102615 -480.154066 
L 293.718289 -479.993359 
L 295.333964 -479.828268 
L 296.949638 -479.658806 
L 298.565312 -479.484985 
L 300.180986 -479.30682 
L 301.79666 -479.124321 
L 303.412335 -478.937502 
L 305.028009 -478.746376 
L 306.643683 -478.550953 
L 308.259357 -478.351246 
L 309.875031 -478.147268 
L 311.490706 -477.93903 
L 313.10638 -477.726544 
L 314.722054 -477.509821 
L 316.337728 -477.288874 
L 317.953402 -477.063713 
L 319.569077 -476.834349 
L 321.184751 -476.600795 
L 322.800425 -476.363061 
L 324.416099 -476.121158 
L 326.031774 -475.875097 
L 327.647448 -475.624888 
L 329.263122 -475.370543 
L 330.878796 -475.112072 
L 332.49447 -474.849486 
L 334.110145 -474.582794 
L 335.725819 -474.312007 
L 337.341493 -474.037136 
L 338.957167 -473.75819 
L 340.572841 -473.475179 
L 342.188516 -473.188113 
L 343.80419 -472.897002 
L 345.419864 -472.601855 
L 347.035538 -472.302683 
L 348.651212 -471.999494 
L 350.266887 -471.692298 
L 351.882561 -471.381104 
L 353.498235 -471.065922 
L 355.113909 -470.746761 
L 356.729583 -470.423629 
L 358.345258 -470.096536 
L 359.960932 -469.76549 
L 361.576606 -469.4305 
L 363.19228 -469.091575 
L 363.19228 -468.763333 
L 363.19228 -468.763333 
L 361.576606 -468.763333 
L 359.960932 -468.763333 
L 358.345258 -468.763333 
L 356.729583 -468.763333 
L 355.113909 -468.763333 
L 353.498235 -468.763333 
L 351.882561 -468.763333 
L 350.266887 -468.763333 
L 348.651212 -468.763333 
L 347.035538 -468.763333 
L 345.419864 -468.763333 
L 343.80419 -468.763333 
L 342.188516 -468.763333 
L 340.572841 -468.763333 
L 338.957167 -468.763333 
L 337.341493 -468.763333 
L 335.725819 -468.763333 
L 334.110145 -468.763333 
L 332.49447 -468.763333 
L 330.878796 -468.763333 
L 329.263122 -468.763333 
L 327.647448 -468.763333 
L 326.031774 -468.763333 
L 324.416099 -468.763333 
L 322.800425 -468.763333 
L 321.184751 -468.763333 
L 319.569077 -468.763333 
L 317.953402 -468.763333 
L 316.337728 -468.763333 
L 314.722054 -468.763333 
L 313.10638 -468.763333 
L 311.490706 -468.763333 
L 309.875031 -468.763333 
L 308.259357 -468.763333 
L 306.643683 -468.763333 
L 305.028009 -468.763333 
L 303.412335 -468.763333 
L 301.79666 -468.763333 
L 300.180986 -468.763333 
L 298.565312 -468.763333 
L 296.949638 -468.763333 
L 295.333964 -468.763333 
L 293.718289 -468.763333 
L 292.102615 -468.763333 
L 290.486941 -468.763333 
L 288.871267 -468.763333 
L 287.255593 -468.763333 
L 285.639918 -468.763333 
L 284.024244 -468.763333 
L 282.40857 -468.763333 
L 280.792896 -468.763333 
L 279.177221 -468.763333 
L 277.561547 -468.763333 
L 275.945873 -468.763333 
L 274.330199 -468.763333 
L 272.714525 -468.763333 
L 271.09885 -468.763333 
L 269.483176 -468.763333 
L 267.867502 -468.763333 
L 266.251828 -468.763333 
L 264.636154 -468.763333 
L 263.020479 -468.763333 
L 261.404805 -468.763333 
L 259.789131 -468.763333 
L 258.173457 -468.763333 
L 256.557783 -468.763333 
L 254.942108 -468.763333 
L 253.326434 -468.763333 
L 251.71076 -468.763333 
L 250.095086 -468.763333 
L 248.479412 -468.763333 
L 246.863737 -468.763333 
L 245.248063 -468.763333 
L 243.632389 -468.763333 
L 242.016715 -468.763333 
L 240.40104 -468.763333 
L 238.785366 -468.763333 
L 237.169692 -468.763333 
L 235.554018 -468.763333 
L 233.938344 -468.763333 
L 232.322669 -468.763333 
L 230.706995 -468.763333 
L 229.091321 -468.763333 
L 227.475647 -468.763333 
L 225.859973 -468.763333 
L 224.244298 -468.763333 
L 222.628624 -468.763333 
L 221.01295 -468.763333 
L 219.397276 -468.763333 
L 217.781602 -468.763333 
L 216.165927 -468.763333 
L 214.550253 -468.763333 
L 212.934579 -468.763333 
L 211.318905 -468.763333 
L 209.703231 -468.763333 
L 208.087556 -468.763333 
L 206.471882 -468.763333 
L 204.856208 -468.763333 
L 203.240534 -468.763333 
L 201.624859 -468.763333 
L 200.009185 -468.763333 
L 198.393511 -468.763333 
L 196.777837 -468.763333 
L 195.162163 -468.763333 
L 193.546488 -468.763333 
L 191.930814 -468.763333 
L 190.31514 -468.763333 
L 188.699466 -468.763333 
L 187.083792 -468.763333 
L 185.468117 -468.763333 
L 183.852443 -468.763333 
L 182.236769 -468.763333 
L 180.621095 -468.763333 
L 179.005421 -468.763333 
L 177.389746 -468.763333 
L 175.774072 -468.763333 
L 174.158398 -468.763333 
L 172.542724 -468.763333 
L 170.92705 -468.763333 
L 169.311375 -468.763333 
L 167.695701 -468.763333 
L 166.080027 -468.763333 
L 164.464353 -468.763333 
L 162.848678 -468.763333 
L 161.233004 -468.763333 
L 159.61733 -468.763333 
L 158.001656 -468.763333 
L 156.385982 -468.763333 
L 154.770307 -468.763333 
L 153.154633 -468.763333 
L 151.538959 -468.763333 
L 149.923285 -468.763333 
L 148.307611 -468.763333 
L 146.691936 -468.763333 
L 145.076262 -468.763333 
L 143.460588 -468.763333 
L 141.844914 -468.763333 
L 140.22924 -468.763333 
L 138.613565 -468.763333 
L 136.997891 -468.763333 
L 135.382217 -468.763333 
L 133.766543 -468.763333 
L 132.150868 -468.763333 
L 130.535194 -468.763333 
L 128.91952 -468.763333 
L 127.303846 -468.763333 
L 125.688172 -468.763333 
L 124.072497 -468.763333 
L 122.456823 -468.763333 
L 120.841149 -468.763333 
z
" style="stroke: #008000; stroke-opacity: 0.1"/>
    </defs>
    <g clip-path="url(#p022d29102c)">
     <use xlink:href="#mf8e419c09d" x="0" y="591.3225" style="fill: #008000; fill-opacity: 0.1; stroke: #008000; stroke-opacity: 0.1"/>
    </g>
   </g>
   <g id="matplotlib.axis_1">
    <g id="xtick_1">
     <g id="line2d_1">
      <path d="M 120.655 505.7925 
L 120.655 45.9125 
" clip-path="url(#p022d29102c)" style="fill: none; stroke: #b0b0b0; stroke-opacity: 0.3; stroke-width: 0.8; stroke-linecap: square"/>
     </g>
     <g id="line2d_2">
      <defs>
       <path id="mb364f4b651" d="M 0 0 
L 0 3.5 
" style="stroke: #000000; stroke-width: 0.8"/>
      </defs>
      <g>
       <use xlink:href="#mb364f4b651" x="120.655" y="505.7925" style="stroke: #000000; stroke-width: 0.8"/>
      </g>
     </g>
     <g id="text_1">
      <!-- 0.0 -->
      <g transform="translate(95.21 537.1075) scale(0.32 -0.32)">
       <defs>
        <path id="DejaVuSans-30" d="M 2034 4250 
Q 1547 4250 1301 3770 
Q 1056 3291 1056 2328 
Q 1056 1369 1301 889 
Q 1547 409 2034 409 
Q 2525 409 2770 889 
Q 3016 1369 3016 2328 
Q 3016 3291 2770 3770 
Q 2525 4250 2034 4250 
z
M 2034 4750 
Q 2819 4750 3233 4129 
Q 3647 3509 3647 2328 
Q 3647 1150 3233 529 
Q 2819 -91 2034 -91 
Q 1250 -91 836 529 
Q 422 1150 422 2328 
Q 422 3509 836 4129 
Q 1250 4750 2034 4750 
z
" transform="scale(0.015625)"/>
        <path id="DejaVuSans-2e" d="M 684 794 
L 1344 794 
L 1344 0 
L 684 0 
L 684 794 
z
" transform="scale(0.015625)"/>
       </defs>
       <use xlink:href="#DejaVuSans-30"/>
       <use xlink:href="#DejaVuSans-2e" transform="translate(63.623047 0)"/>
       <use xlink:href="#DejaVuSans-30" transform="translate(95.410156 0)"/>
      </g>
     </g>
    </g>
    <g id="xtick_2">
     <g id="line2d_3">
      <path d="M 306.804038 505.7925 
L 306.804038 45.9125 
" clip-path="url(#p022d29102c)" style="fill: none; stroke: #b0b0b0; stroke-opacity: 0.3; stroke-width: 0.8; stroke-linecap: square"/>
     </g>
     <g id="line2d_4">
      <g>
       <use xlink:href="#mb364f4b651" x="306.804038" y="505.7925" style="stroke: #000000; stroke-width: 0.8"/>
      </g>
     </g>
     <g id="text_2">
      <!-- 0.1 -->
      <g transform="translate(281.359038 537.1075) scale(0.32 -0.32)">
       <defs>
        <path id="DejaVuSans-31" d="M 794 531 
L 1825 531 
L 1825 4091 
L 703 3866 
L 703 4441 
L 1819 4666 
L 2450 4666 
L 2450 531 
L 3481 531 
L 3481 0 
L 794 0 
L 794 531 
z
" transform="scale(0.015625)"/>
       </defs>
       <use xlink:href="#DejaVuSans-30"/>
       <use xlink:href="#DejaVuSans-2e" transform="translate(63.623047 0)"/>
       <use xlink:href="#DejaVuSans-31" transform="translate(95.410156 0)"/>
      </g>
     </g>
    </g>
    <g id="xtick_3">
     <g id="line2d_5">
      <path d="M 492.953077 505.7925 
L 492.953077 45.9125 
" clip-path="url(#p022d29102c)" style="fill: none; stroke: #b0b0b0; stroke-opacity: 0.3; stroke-width: 0.8; stroke-linecap: square"/>
     </g>
     <g id="line2d_6">
      <g>
       <use xlink:href="#mb364f4b651" x="492.953077" y="505.7925" style="stroke: #000000; stroke-width: 0.8"/>
      </g>
     </g>
     <g id="text_3">
      <!-- 0.2 -->
      <g transform="translate(467.508077 537.1075) scale(0.32 -0.32)">
       <defs>
        <path id="DejaVuSans-32" d="M 1228 531 
L 3431 531 
L 3431 0 
L 469 0 
L 469 531 
Q 828 903 1448 1529 
Q 2069 2156 2228 2338 
Q 2531 2678 2651 2914 
Q 2772 3150 2772 3378 
Q 2772 3750 2511 3984 
Q 2250 4219 1831 4219 
Q 1534 4219 1204 4116 
Q 875 4013 500 3803 
L 500 4441 
Q 881 4594 1212 4672 
Q 1544 4750 1819 4750 
Q 2544 4750 2975 4387 
Q 3406 4025 3406 3419 
Q 3406 3131 3298 2873 
Q 3191 2616 2906 2266 
Q 2828 2175 2409 1742 
Q 1991 1309 1228 531 
z
" transform="scale(0.015625)"/>
       </defs>
       <use xlink:href="#DejaVuSans-30"/>
       <use xlink:href="#DejaVuSans-2e" transform="translate(63.623047 0)"/>
       <use xlink:href="#DejaVuSans-32" transform="translate(95.410156 0)"/>
      </g>
     </g>
    </g>
    <g id="xtick_4">
     <g id="line2d_7">
      <path d="M 679.102115 505.7925 
L 679.102115 45.9125 
" clip-path="url(#p022d29102c)" style="fill: none; stroke: #b0b0b0; stroke-opacity: 0.3; stroke-width: 0.8; stroke-linecap: square"/>
     </g>
     <g id="line2d_8">
      <g>
       <use xlink:href="#mb364f4b651" x="679.102115" y="505.7925" style="stroke: #000000; stroke-width: 0.8"/>
      </g>
     </g>
     <g id="text_4">
      <!-- 0.3 -->
      <g transform="translate(653.657115 537.1075) scale(0.32 -0.32)">
       <defs>
        <path id="DejaVuSans-33" d="M 2597 2516 
Q 3050 2419 3304 2112 
Q 3559 1806 3559 1356 
Q 3559 666 3084 287 
Q 2609 -91 1734 -91 
Q 1441 -91 1130 -33 
Q 819 25 488 141 
L 488 750 
Q 750 597 1062 519 
Q 1375 441 1716 441 
Q 2309 441 2620 675 
Q 2931 909 2931 1356 
Q 2931 1769 2642 2001 
Q 2353 2234 1838 2234 
L 1294 2234 
L 1294 2753 
L 1863 2753 
Q 2328 2753 2575 2939 
Q 2822 3125 2822 3475 
Q 2822 3834 2567 4026 
Q 2313 4219 1838 4219 
Q 1578 4219 1281 4162 
Q 984 4106 628 3988 
L 628 4550 
Q 988 4650 1302 4700 
Q 1616 4750 1894 4750 
Q 2613 4750 3031 4423 
Q 3450 4097 3450 3541 
Q 3450 3153 3228 2886 
Q 3006 2619 2597 2516 
z
" transform="scale(0.015625)"/>
       </defs>
       <use xlink:href="#DejaVuSans-30"/>
       <use xlink:href="#DejaVuSans-2e" transform="translate(63.623047 0)"/>
       <use xlink:href="#DejaVuSans-33" transform="translate(95.410156 0)"/>
      </g>
     </g>
    </g>
    <g id="xtick_5">
     <g id="line2d_9">
      <path d="M 865.251154 505.7925 
L 865.251154 45.9125 
" clip-path="url(#p022d29102c)" style="fill: none; stroke: #b0b0b0; stroke-opacity: 0.3; stroke-width: 0.8; stroke-linecap: square"/>
     </g>
     <g id="line2d_10">
      <g>
       <use xlink:href="#mb364f4b651" x="865.251154" y="505.7925" style="stroke: #000000; stroke-width: 0.8"/>
      </g>
     </g>
     <g id="text_5">
      <!-- 0.4 -->
      <g transform="translate(839.806154 537.1075) scale(0.32 -0.32)">
       <defs>
        <path id="DejaVuSans-34" d="M 2419 4116 
L 825 1625 
L 2419 1625 
L 2419 4116 
z
M 2253 4666 
L 3047 4666 
L 3047 1625 
L 3713 1625 
L 3713 1100 
L 3047 1100 
L 3047 0 
L 2419 0 
L 2419 1100 
L 313 1100 
L 313 1709 
L 2253 4666 
z
" transform="scale(0.015625)"/>
       </defs>
       <use xlink:href="#DejaVuSans-30"/>
       <use xlink:href="#DejaVuSans-2e" transform="translate(63.623047 0)"/>
       <use xlink:href="#DejaVuSans-34" transform="translate(95.410156 0)"/>
      </g>
     </g>
    </g>
    <g id="xtick_6">
     <g id="line2d_11">
      <path d="M 1051.400192 505.7925 
L 1051.400192 45.9125 
" clip-path="url(#p022d29102c)" style="fill: none; stroke: #b0b0b0; stroke-opacity: 0.3; stroke-width: 0.8; stroke-linecap: square"/>
     </g>
     <g id="line2d_12">
      <g>
       <use xlink:href="#mb364f4b651" x="1051.400192" y="505.7925" style="stroke: #000000; stroke-width: 0.8"/>
      </g>
     </g>
     <g id="text_6">
      <!-- 0.5 -->
      <g transform="translate(1025.955192 537.1075) scale(0.32 -0.32)">
       <defs>
        <path id="DejaVuSans-35" d="M 691 4666 
L 3169 4666 
L 3169 4134 
L 1269 4134 
L 1269 2991 
Q 1406 3038 1543 3061 
Q 1681 3084 1819 3084 
Q 2600 3084 3056 2656 
Q 3513 2228 3513 1497 
Q 3513 744 3044 326 
Q 2575 -91 1722 -91 
Q 1428 -91 1123 -41 
Q 819 9 494 109 
L 494 744 
Q 775 591 1075 516 
Q 1375 441 1709 441 
Q 2250 441 2565 725 
Q 2881 1009 2881 1497 
Q 2881 1984 2565 2268 
Q 2250 2553 1709 2553 
Q 1456 2553 1204 2497 
Q 953 2441 691 2322 
L 691 4666 
z
" transform="scale(0.015625)"/>
       </defs>
       <use xlink:href="#DejaVuSans-30"/>
       <use xlink:href="#DejaVuSans-2e" transform="translate(63.623047 0)"/>
       <use xlink:href="#DejaVuSans-35" transform="translate(95.410156 0)"/>
      </g>
     </g>
    </g>
    <g id="text_7">
     <!-- Fracción apostada $K$ -->
     <g transform="translate(421.9425 576.5625) scale(0.36 -0.36)">
      <defs>
       <path id="DejaVuSans-46" d="M 628 4666 
L 3309 4666 
L 3309 4134 
L 1259 4134 
L 1259 2759 
L 3109 2759 
L 3109 2228 
L 1259 2228 
L 1259 0 
L 628 0 
L 628 4666 
z
" transform="scale(0.015625)"/>
       <path id="DejaVuSans-72" d="M 2631 2963 
Q 2534 3019 2420 3045 
Q 2306 3072 2169 3072 
Q 1681 3072 1420 2755 
Q 1159 2438 1159 1844 
L 1159 0 
L 581 0 
L 581 3500 
L 1159 3500 
L 1159 2956 
Q 1341 3275 1631 3429 
Q 1922 3584 2338 3584 
Q 2397 3584 2469 3576 
Q 2541 3569 2628 3553 
L 2631 2963 
z
" transform="scale(0.015625)"/>
       <path id="DejaVuSans-61" d="M 2194 1759 
Q 1497 1759 1228 1600 
Q 959 1441 959 1056 
Q 959 750 1161 570 
Q 1363 391 1709 391 
Q 2188 391 2477 730 
Q 2766 1069 2766 1631 
L 2766 1759 
L 2194 1759 
z
M 3341 1997 
L 3341 0 
L 2766 0 
L 2766 531 
Q 2569 213 2275 61 
Q 1981 -91 1556 -91 
Q 1019 -91 701 211 
Q 384 513 384 1019 
Q 384 1609 779 1909 
Q 1175 2209 1959 2209 
L 2766 2209 
L 2766 2266 
Q 2766 2663 2505 2880 
Q 2244 3097 1772 3097 
Q 1472 3097 1187 3025 
Q 903 2953 641 2809 
L 641 3341 
Q 956 3463 1253 3523 
Q 1550 3584 1831 3584 
Q 2591 3584 2966 3190 
Q 3341 2797 3341 1997 
z
" transform="scale(0.015625)"/>
       <path id="DejaVuSans-63" d="M 3122 3366 
L 3122 2828 
Q 2878 2963 2633 3030 
Q 2388 3097 2138 3097 
Q 1578 3097 1268 2742 
Q 959 2388 959 1747 
Q 959 1106 1268 751 
Q 1578 397 2138 397 
Q 2388 397 2633 464 
Q 2878 531 3122 666 
L 3122 134 
Q 2881 22 2623 -34 
Q 2366 -91 2075 -91 
Q 1284 -91 818 406 
Q 353 903 353 1747 
Q 353 2603 823 3093 
Q 1294 3584 2113 3584 
Q 2378 3584 2631 3529 
Q 2884 3475 3122 3366 
z
" transform="scale(0.015625)"/>
       <path id="DejaVuSans-69" d="M 603 3500 
L 1178 3500 
L 1178 0 
L 603 0 
L 603 3500 
z
M 603 4863 
L 1178 4863 
L 1178 4134 
L 603 4134 
L 603 4863 
z
" transform="scale(0.015625)"/>
       <path id="DejaVuSans-f3" d="M 1959 3097 
Q 1497 3097 1228 2736 
Q 959 2375 959 1747 
Q 959 1119 1226 758 
Q 1494 397 1959 397 
Q 2419 397 2687 759 
Q 2956 1122 2956 1747 
Q 2956 2369 2687 2733 
Q 2419 3097 1959 3097 
z
M 1959 3584 
Q 2709 3584 3137 3096 
Q 3566 2609 3566 1747 
Q 3566 888 3137 398 
Q 2709 -91 1959 -91 
Q 1206 -91 779 398 
Q 353 888 353 1747 
Q 353 2609 779 3096 
Q 1206 3584 1959 3584 
z
M 2394 5119 
L 3016 5119 
L 1998 3944 
L 1519 3944 
L 2394 5119 
z
" transform="scale(0.015625)"/>
       <path id="DejaVuSans-6e" d="M 3513 2113 
L 3513 0 
L 2938 0 
L 2938 2094 
Q 2938 2591 2744 2837 
Q 2550 3084 2163 3084 
Q 1697 3084 1428 2787 
Q 1159 2491 1159 1978 
L 1159 0 
L 581 0 
L 581 3500 
L 1159 3500 
L 1159 2956 
Q 1366 3272 1645 3428 
Q 1925 3584 2291 3584 
Q 2894 3584 3203 3211 
Q 3513 2838 3513 2113 
z
" transform="scale(0.015625)"/>
       <path id="DejaVuSans-20" transform="scale(0.015625)"/>
       <path id="DejaVuSans-70" d="M 1159 525 
L 1159 -1331 
L 581 -1331 
L 581 3500 
L 1159 3500 
L 1159 2969 
Q 1341 3281 1617 3432 
Q 1894 3584 2278 3584 
Q 2916 3584 3314 3078 
Q 3713 2572 3713 1747 
Q 3713 922 3314 415 
Q 2916 -91 2278 -91 
Q 1894 -91 1617 61 
Q 1341 213 1159 525 
z
M 3116 1747 
Q 3116 2381 2855 2742 
Q 2594 3103 2138 3103 
Q 1681 3103 1420 2742 
Q 1159 2381 1159 1747 
Q 1159 1113 1420 752 
Q 1681 391 2138 391 
Q 2594 391 2855 752 
Q 3116 1113 3116 1747 
z
" transform="scale(0.015625)"/>
       <path id="DejaVuSans-6f" d="M 1959 3097 
Q 1497 3097 1228 2736 
Q 959 2375 959 1747 
Q 959 1119 1226 758 
Q 1494 397 1959 397 
Q 2419 397 2687 759 
Q 2956 1122 2956 1747 
Q 2956 2369 2687 2733 
Q 2419 3097 1959 3097 
z
M 1959 3584 
Q 2709 3584 3137 3096 
Q 3566 2609 3566 1747 
Q 3566 888 3137 398 
Q 2709 -91 1959 -91 
Q 1206 -91 779 398 
Q 353 888 353 1747 
Q 353 2609 779 3096 
Q 1206 3584 1959 3584 
z
" transform="scale(0.015625)"/>
       <path id="DejaVuSans-73" d="M 2834 3397 
L 2834 2853 
Q 2591 2978 2328 3040 
Q 2066 3103 1784 3103 
Q 1356 3103 1142 2972 
Q 928 2841 928 2578 
Q 928 2378 1081 2264 
Q 1234 2150 1697 2047 
L 1894 2003 
Q 2506 1872 2764 1633 
Q 3022 1394 3022 966 
Q 3022 478 2636 193 
Q 2250 -91 1575 -91 
Q 1294 -91 989 -36 
Q 684 19 347 128 
L 347 722 
Q 666 556 975 473 
Q 1284 391 1588 391 
Q 1994 391 2212 530 
Q 2431 669 2431 922 
Q 2431 1156 2273 1281 
Q 2116 1406 1581 1522 
L 1381 1569 
Q 847 1681 609 1914 
Q 372 2147 372 2553 
Q 372 3047 722 3315 
Q 1072 3584 1716 3584 
Q 2034 3584 2315 3537 
Q 2597 3491 2834 3397 
z
" transform="scale(0.015625)"/>
       <path id="DejaVuSans-74" d="M 1172 4494 
L 1172 3500 
L 2356 3500 
L 2356 3053 
L 1172 3053 
L 1172 1153 
Q 1172 725 1289 603 
Q 1406 481 1766 481 
L 2356 481 
L 2356 0 
L 1766 0 
Q 1100 0 847 248 
Q 594 497 594 1153 
L 594 3053 
L 172 3053 
L 172 3500 
L 594 3500 
L 594 4494 
L 1172 4494 
z
" transform="scale(0.015625)"/>
       <path id="DejaVuSans-64" d="M 2906 2969 
L 2906 4863 
L 3481 4863 
L 3481 0 
L 2906 0 
L 2906 525 
Q 2725 213 2448 61 
Q 2172 -91 1784 -91 
Q 1150 -91 751 415 
Q 353 922 353 1747 
Q 353 2572 751 3078 
Q 1150 3584 1784 3584 
Q 2172 3584 2448 3432 
Q 2725 3281 2906 2969 
z
M 947 1747 
Q 947 1113 1208 752 
Q 1469 391 1925 391 
Q 2381 391 2643 752 
Q 2906 1113 2906 1747 
Q 2906 2381 2643 2742 
Q 2381 3103 1925 3103 
Q 1469 3103 1208 2742 
Q 947 2381 947 1747 
z
" transform="scale(0.015625)"/>
       <path id="DejaVuSans-Oblique-4b" d="M 1081 4666 
L 1716 4666 
L 1331 2700 
L 3781 4666 
L 4622 4666 
L 1850 2438 
L 3878 0 
L 3109 0 
L 1247 2272 
L 806 0 
L 172 0 
L 1081 4666 
z
" transform="scale(0.015625)"/>
      </defs>
      <use xlink:href="#DejaVuSans-46" transform="translate(0 0.015625)"/>
      <use xlink:href="#DejaVuSans-72" transform="translate(57.519531 0.015625)"/>
      <use xlink:href="#DejaVuSans-61" transform="translate(98.632812 0.015625)"/>
      <use xlink:href="#DejaVuSans-63" transform="translate(159.912109 0.015625)"/>
      <use xlink:href="#DejaVuSans-63" transform="translate(214.892578 0.015625)"/>
      <use xlink:href="#DejaVuSans-69" transform="translate(269.873047 0.015625)"/>
      <use xlink:href="#DejaVuSans-f3" transform="translate(297.65625 0.015625)"/>
      <use xlink:href="#DejaVuSans-6e" transform="translate(358.837891 0.015625)"/>
      <use xlink:href="#DejaVuSans-20" transform="translate(422.216797 0.015625)"/>
      <use xlink:href="#DejaVuSans-61" transform="translate(454.003906 0.015625)"/>
      <use xlink:href="#DejaVuSans-70" transform="translate(515.283203 0.015625)"/>
      <use xlink:href="#DejaVuSans-6f" transform="translate(578.759766 0.015625)"/>
      <use xlink:href="#DejaVuSans-73" transform="translate(639.941406 0.015625)"/>
      <use xlink:href="#DejaVuSans-74" transform="translate(692.041016 0.015625)"/>
      <use xlink:href="#DejaVuSans-61" transform="translate(731.25 0.015625)"/>
      <use xlink:href="#DejaVuSans-64" transform="translate(792.529297 0.015625)"/>
      <use xlink:href="#DejaVuSans-61" transform="translate(856.005859 0.015625)"/>
      <use xlink:href="#DejaVuSans-20" transform="translate(917.285156 0.015625)"/>
      <use xlink:href="#DejaVuSans-Oblique-4b" transform="translate(949.072266 0.015625)"/>
     </g>
    </g>
   </g>
   <g id="matplotlib.axis_2">
    <g id="ytick_1">
     <g id="line2d_13">
      <path d="M 120.655 505.7925 
L 1088.63 505.7925 
" clip-path="url(#p022d29102c)" style="fill: none; stroke: #b0b0b0; stroke-opacity: 0.3; stroke-width: 0.8; stroke-linecap: square"/>
     </g>
     <g id="line2d_14">
      <defs>
       <path id="m565b05bb93" d="M 0 0 
L -3.5 0 
" style="stroke: #000000; stroke-width: 0.8"/>
      </defs>
      <g>
       <use xlink:href="#m565b05bb93" x="120.655" y="505.7925" style="stroke: #000000; stroke-width: 0.8"/>
      </g>
     </g>
     <g id="text_8">
      <!-- −20 -->
      <g transform="translate(46.12 517.95) scale(0.32 -0.32)">
       <defs>
        <path id="DejaVuSans-2212" d="M 678 2272 
L 4684 2272 
L 4684 1741 
L 678 1741 
L 678 2272 
z
" transform="scale(0.015625)"/>
       </defs>
       <use xlink:href="#DejaVuSans-2212"/>
       <use xlink:href="#DejaVuSans-32" transform="translate(83.789062 0)"/>
       <use xlink:href="#DejaVuSans-30" transform="translate(147.412109 0)"/>
      </g>
     </g>
    </g>
    <g id="ytick_2">
     <g id="line2d_15">
      <path d="M 120.655 409.984167 
L 1088.63 409.984167 
" clip-path="url(#p022d29102c)" style="fill: none; stroke: #b0b0b0; stroke-opacity: 0.3; stroke-width: 0.8; stroke-linecap: square"/>
     </g>
     <g id="line2d_16">
      <g>
       <use xlink:href="#m565b05bb93" x="120.655" y="409.984167" style="stroke: #000000; stroke-width: 0.8"/>
      </g>
     </g>
     <g id="text_9">
      <!-- −15 -->
      <g transform="translate(46.12 422.141667) scale(0.32 -0.32)">
       <use xlink:href="#DejaVuSans-2212"/>
       <use xlink:href="#DejaVuSans-31" transform="translate(83.789062 0)"/>
       <use xlink:href="#DejaVuSans-35" transform="translate(147.412109 0)"/>
      </g>
     </g>
    </g>
    <g id="ytick_3">
     <g id="line2d_17">
      <path d="M 120.655 314.175833 
L 1088.63 314.175833 
" clip-path="url(#p022d29102c)" style="fill: none; stroke: #b0b0b0; stroke-opacity: 0.3; stroke-width: 0.8; stroke-linecap: square"/>
     </g>
     <g id="line2d_18">
      <g>
       <use xlink:href="#m565b05bb93" x="120.655" y="314.175833" style="stroke: #000000; stroke-width: 0.8"/>
      </g>
     </g>
     <g id="text_10">
      <!-- −10 -->
      <g transform="translate(46.12 326.333333) scale(0.32 -0.32)">
       <use xlink:href="#DejaVuSans-2212"/>
       <use xlink:href="#DejaVuSans-31" transform="translate(83.789062 0)"/>
       <use xlink:href="#DejaVuSans-30" transform="translate(147.412109 0)"/>
      </g>
     </g>
    </g>
    <g id="ytick_4">
     <g id="line2d_19">
      <path d="M 120.655 218.3675 
L 1088.63 218.3675 
" clip-path="url(#p022d29102c)" style="fill: none; stroke: #b0b0b0; stroke-opacity: 0.3; stroke-width: 0.8; stroke-linecap: square"/>
     </g>
     <g id="line2d_20">
      <g>
       <use xlink:href="#m565b05bb93" x="120.655" y="218.3675" style="stroke: #000000; stroke-width: 0.8"/>
      </g>
     </g>
     <g id="text_11">
      <!-- −5 -->
      <g transform="translate(66.48 230.525) scale(0.32 -0.32)">
       <use xlink:href="#DejaVuSans-2212"/>
       <use xlink:href="#DejaVuSans-35" transform="translate(83.789062 0)"/>
      </g>
     </g>
    </g>
    <g id="ytick_5">
     <g id="line2d_21">
      <path d="M 120.655 122.559167 
L 1088.63 122.559167 
" clip-path="url(#p022d29102c)" style="fill: none; stroke: #b0b0b0; stroke-opacity: 0.3; stroke-width: 0.8; stroke-linecap: square"/>
     </g>
     <g id="line2d_22">
      <g>
       <use xlink:href="#m565b05bb93" x="120.655" y="122.559167" style="stroke: #000000; stroke-width: 0.8"/>
      </g>
     </g>
     <g id="text_12">
      <!-- 0 -->
      <g transform="translate(93.295 134.716667) scale(0.32 -0.32)">
       <use xlink:href="#DejaVuSans-30"/>
      </g>
     </g>
    </g>
    <g id="text_13">
     <!-- $G(K)$  (% por apuesta) -->
     <g transform="translate(34.56 472.0525) rotate(-90) scale(0.36 -0.36)">
      <defs>
       <path id="DejaVuSans-Oblique-47" d="M 3494 697 
L 3738 1919 
L 2700 1919 
L 2797 2438 
L 4453 2438 
L 4050 384 
Q 3634 156 3143 32 
Q 2653 -91 2156 -91 
Q 1278 -91 783 396 
Q 288 884 288 1753 
Q 288 2475 589 3126 
Q 891 3778 1422 4213 
Q 1756 4484 2153 4617 
Q 2550 4750 3034 4750 
Q 3472 4750 3873 4639 
Q 4275 4528 4641 4306 
L 4513 3634 
Q 4231 3928 3853 4083 
Q 3475 4238 3047 4238 
Q 2550 4238 2172 4048 
Q 1794 3859 1497 3463 
Q 1244 3125 1098 2667 
Q 953 2209 953 1734 
Q 953 1081 1287 751 
Q 1622 422 2284 422 
Q 2616 422 2925 492 
Q 3234 563 3494 697 
z
" transform="scale(0.015625)"/>
       <path id="DejaVuSans-28" d="M 1984 4856 
Q 1566 4138 1362 3434 
Q 1159 2731 1159 2009 
Q 1159 1288 1364 580 
Q 1569 -128 1984 -844 
L 1484 -844 
Q 1016 -109 783 600 
Q 550 1309 550 2009 
Q 550 2706 781 3412 
Q 1013 4119 1484 4856 
L 1984 4856 
z
" transform="scale(0.015625)"/>
       <path id="DejaVuSans-29" d="M 513 4856 
L 1013 4856 
Q 1481 4119 1714 3412 
Q 1947 2706 1947 2009 
Q 1947 1309 1714 600 
Q 1481 -109 1013 -844 
L 513 -844 
Q 928 -128 1133 580 
Q 1338 1288 1338 2009 
Q 1338 2731 1133 3434 
Q 928 4138 513 4856 
z
" transform="scale(0.015625)"/>
       <path id="DejaVuSans-25" d="M 4653 2053 
Q 4381 2053 4226 1822 
Q 4072 1591 4072 1178 
Q 4072 772 4226 539 
Q 4381 306 4653 306 
Q 4919 306 5073 539 
Q 5228 772 5228 1178 
Q 5228 1588 5073 1820 
Q 4919 2053 4653 2053 
z
M 4653 2450 
Q 5147 2450 5437 2106 
Q 5728 1763 5728 1178 
Q 5728 594 5436 251 
Q 5144 -91 4653 -91 
Q 4153 -91 3862 251 
Q 3572 594 3572 1178 
Q 3572 1766 3864 2108 
Q 4156 2450 4653 2450 
z
M 1428 4353 
Q 1159 4353 1004 4120 
Q 850 3888 850 3481 
Q 850 3069 1003 2837 
Q 1156 2606 1428 2606 
Q 1700 2606 1854 2837 
Q 2009 3069 2009 3481 
Q 2009 3884 1853 4118 
Q 1697 4353 1428 4353 
z
M 4250 4750 
L 4750 4750 
L 1831 -91 
L 1331 -91 
L 4250 4750 
z
M 1428 4750 
Q 1922 4750 2215 4408 
Q 2509 4066 2509 3481 
Q 2509 2891 2217 2550 
Q 1925 2209 1428 2209 
Q 931 2209 642 2551 
Q 353 2894 353 3481 
Q 353 4063 643 4406 
Q 934 4750 1428 4750 
z
" transform="scale(0.015625)"/>
       <path id="DejaVuSans-75" d="M 544 1381 
L 544 3500 
L 1119 3500 
L 1119 1403 
Q 1119 906 1312 657 
Q 1506 409 1894 409 
Q 2359 409 2629 706 
Q 2900 1003 2900 1516 
L 2900 3500 
L 3475 3500 
L 3475 0 
L 2900 0 
L 2900 538 
Q 2691 219 2414 64 
Q 2138 -91 1772 -91 
Q 1169 -91 856 284 
Q 544 659 544 1381 
z
M 1991 3584 
L 1991 3584 
z
" transform="scale(0.015625)"/>
       <path id="DejaVuSans-65" d="M 3597 1894 
L 3597 1613 
L 953 1613 
Q 991 1019 1311 708 
Q 1631 397 2203 397 
Q 2534 397 2845 478 
Q 3156 559 3463 722 
L 3463 178 
Q 3153 47 2828 -22 
Q 2503 -91 2169 -91 
Q 1331 -91 842 396 
Q 353 884 353 1716 
Q 353 2575 817 3079 
Q 1281 3584 2069 3584 
Q 2775 3584 3186 3129 
Q 3597 2675 3597 1894 
z
M 3022 2063 
Q 3016 2534 2758 2815 
Q 2500 3097 2075 3097 
Q 1594 3097 1305 2825 
Q 1016 2553 972 2059 
L 3022 2063 
z
" transform="scale(0.015625)"/>
      </defs>
      <use xlink:href="#DejaVuSans-Oblique-47" transform="translate(0 0.125)"/>
      <use xlink:href="#DejaVuSans-28" transform="translate(77.490234 0.125)"/>
      <use xlink:href="#DejaVuSans-Oblique-4b" transform="translate(116.503906 0.125)"/>
      <use xlink:href="#DejaVuSans-29" transform="translate(182.080078 0.125)"/>
      <use xlink:href="#DejaVuSans-20" transform="translate(221.09375 0.125)"/>
      <use xlink:href="#DejaVuSans-20" transform="translate(252.880859 0.125)"/>
      <use xlink:href="#DejaVuSans-28" transform="translate(284.667969 0.125)"/>
      <use xlink:href="#DejaVuSans-25" transform="translate(323.681641 0.125)"/>
      <use xlink:href="#DejaVuSans-20" transform="translate(418.701172 0.125)"/>
      <use xlink:href="#DejaVuSans-70" transform="translate(450.488281 0.125)"/>
      <use xlink:href="#DejaVuSans-6f" transform="translate(513.964844 0.125)"/>
      <use xlink:href="#DejaVuSans-72" transform="translate(575.146484 0.125)"/>
      <use xlink:href="#DejaVuSans-20" transform="translate(616.259766 0.125)"/>
      <use xlink:href="#DejaVuSans-61" transform="translate(648.046875 0.125)"/>
      <use xlink:href="#DejaVuSans-70" transform="translate(709.326172 0.125)"/>
      <use xlink:href="#DejaVuSans-75" transform="translate(772.802734 0.125)"/>
      <use xlink:href="#DejaVuSans-65" transform="translate(836.181641 0.125)"/>
      <use xlink:href="#DejaVuSans-73" transform="translate(897.705078 0.125)"/>
      <use xlink:href="#DejaVuSans-74" transform="translate(949.804688 0.125)"/>
      <use xlink:href="#DejaVuSans-61" transform="translate(989.013672 0.125)"/>
      <use xlink:href="#DejaVuSans-29" transform="translate(1050.292969 0.125)"/>
     </g>
    </g>
   </g>
   <g id="line2d_23">
    <path d="M 120.655 122.559167 
L 1088.63 122.559167 
" clip-path="url(#p022d29102c)" style="fill: none; stroke-dasharray: 2.96,1.28; stroke-dashoffset: 0; stroke: #808080; stroke-opacity: 0.6; stroke-width: 0.8"/>
   </g>
   <g id="line2d_24">
    <path d="M 120.841149 122.511308 
L 130.535194 120.14334 
L 140.22924 118.014118 
L 149.923285 116.116166 
L 159.61733 114.442474 
L 169.311375 112.986463 
L 179.005421 111.741953 
L 188.699466 110.703137 
L 198.393511 109.864551 
L 208.087556 109.221055 
L 219.397276 108.710436 
L 230.706995 108.451564 
L 242.016715 108.437709 
L 253.326434 108.662585 
L 264.636154 109.120316 
L 275.945873 109.805414 
L 287.255593 110.712747 
L 298.565312 111.837515 
L 309.875031 113.175232 
L 321.184751 114.721705 
L 332.49447 116.473014 
L 343.80419 118.425498 
L 356.729583 120.898871 
L 369.654977 123.625807 
L 382.580371 126.601935 
L 395.505765 129.823227 
L 408.431158 133.285979 
L 421.356552 136.986792 
L 434.281946 140.922556 
L 447.207339 145.090435 
L 460.132733 149.487854 
L 473.058127 154.112483 
L 485.98352 158.96223 
L 498.908914 164.03523 
L 511.834308 169.32983 
L 524.759701 174.844592 
L 537.685095 180.578272 
L 550.610489 186.529825 
L 565.151556 193.484685 
L 579.692624 200.713259 
L 594.233692 208.214882 
L 608.77476 215.989164 
L 623.315828 224.035986 
L 637.856896 232.355492 
L 652.397964 240.948086 
L 666.939032 249.814427 
L 681.480099 258.955429 
L 696.021167 268.372257 
L 710.562235 278.066326 
L 725.103303 288.039303 
L 739.644371 298.293104 
L 754.185439 308.8299 
L 768.726507 319.652115 
L 783.267575 330.762433 
L 797.808642 342.163797 
L 812.34971 353.859418 
L 826.890778 365.852777 
L 841.431846 378.147634 
L 855.972914 390.748033 
L 870.513982 403.658312 
L 885.05505 416.883108 
L 899.596118 430.427372 
L 914.137185 444.296378 
L 928.678253 458.495731 
L 943.219321 473.031387 
L 957.760389 487.909663 
L 972.301457 503.137253 
L 986.842525 518.721248 
L 1001.383593 534.669151 
L 1014.308986 549.156974 
L 1027.23438 563.944472 
L 1040.159774 579.037817 
L 1051.321121 592.3225 
L 1051.321121 592.3225 
" clip-path="url(#p022d29102c)" style="fill: none; stroke: #2196f3; stroke-width: 2.5; stroke-linecap: square"/>
   </g>
   <g id="patch_3">
    <path d="M 120.655 505.7925 
L 120.655 45.9125 
" style="fill: none; stroke: #000000; stroke-width: 0.8; stroke-linejoin: miter; stroke-linecap: square"/>
   </g>
   <g id="patch_4">
    <path d="M 1088.63 505.7925 
L 1088.63 45.9125 
" style="fill: none; stroke: #000000; stroke-width: 0.8; stroke-linejoin: miter; stroke-linecap: square"/>
   </g>
   <g id="patch_5">
    <path d="M 120.655 505.7925 
L 1088.63 505.7925 
" style="fill: none; stroke: #000000; stroke-width: 0.8; stroke-linejoin: miter; stroke-linecap: square"/>
   </g>
   <g id="patch_6">
    <path d="M 120.655 45.9125 
L 1088.63 45.9125 
" style="fill: none; stroke: #000000; stroke-width: 0.8; stroke-linejoin: miter; stroke-linecap: square"/>
   </g>
   <g id="patch_7">
    <path d="M 298.379028 72.344039 
Q 268.552132 89.87158 240.653079 106.26624 
" style="fill: none; stroke: #4caf50; stroke-width: 2; stroke-linecap: round"/>
    <path d="M 251.361664 105.540851 
L 240.653079 106.26624 
L 246.497919 97.264138 
" style="fill: none; stroke: #4caf50; stroke-width: 2; stroke-linecap: round"/>
   </g>
   <g id="text_14">
    <!-- K = 6.25% → G = +0.74%/ap. -->
    <g style="fill: #4caf50" transform="translate(143.92363 64.342197) scale(0.24 -0.24)">
     <defs>
      <path id="DejaVuSans-4b" d="M 628 4666 
L 1259 4666 
L 1259 2694 
L 3353 4666 
L 4166 4666 
L 1850 2491 
L 4331 0 
L 3500 0 
L 1259 2247 
L 1259 0 
L 628 0 
L 628 4666 
z
" transform="scale(0.015625)"/>
      <path id="DejaVuSans-3d" d="M 678 2906 
L 4684 2906 
L 4684 2381 
L 678 2381 
L 678 2906 
z
M 678 1631 
L 4684 1631 
L 4684 1100 
L 678 1100 
L 678 1631 
z
" transform="scale(0.015625)"/>
      <path id="DejaVuSans-36" d="M 2113 2584 
Q 1688 2584 1439 2293 
Q 1191 2003 1191 1497 
Q 1191 994 1439 701 
Q 1688 409 2113 409 
Q 2538 409 2786 701 
Q 3034 994 3034 1497 
Q 3034 2003 2786 2293 
Q 2538 2584 2113 2584 
z
M 3366 4563 
L 3366 3988 
Q 3128 4100 2886 4159 
Q 2644 4219 2406 4219 
Q 1781 4219 1451 3797 
Q 1122 3375 1075 2522 
Q 1259 2794 1537 2939 
Q 1816 3084 2150 3084 
Q 2853 3084 3261 2657 
Q 3669 2231 3669 1497 
Q 3669 778 3244 343 
Q 2819 -91 2113 -91 
Q 1303 -91 875 529 
Q 447 1150 447 2328 
Q 447 3434 972 4092 
Q 1497 4750 2381 4750 
Q 2619 4750 2861 4703 
Q 3103 4656 3366 4563 
z
" transform="scale(0.015625)"/>
      <path id="DejaVuSans-2192" d="M 5050 2147 
L 5050 1866 
L 3822 638 
L 3447 1013 
L 4175 1741 
L 366 1741 
L 366 2272 
L 4175 2272 
L 3447 3000 
L 3822 3375 
L 5050 2147 
z
" transform="scale(0.015625)"/>
      <path id="DejaVuSans-47" d="M 3809 666 
L 3809 1919 
L 2778 1919 
L 2778 2438 
L 4434 2438 
L 4434 434 
Q 4069 175 3628 42 
Q 3188 -91 2688 -91 
Q 1594 -91 976 548 
Q 359 1188 359 2328 
Q 359 3472 976 4111 
Q 1594 4750 2688 4750 
Q 3144 4750 3555 4637 
Q 3966 4525 4313 4306 
L 4313 3634 
Q 3963 3931 3569 4081 
Q 3175 4231 2741 4231 
Q 1884 4231 1454 3753 
Q 1025 3275 1025 2328 
Q 1025 1384 1454 906 
Q 1884 428 2741 428 
Q 3075 428 3337 486 
Q 3600 544 3809 666 
z
" transform="scale(0.015625)"/>
      <path id="DejaVuSans-2b" d="M 2944 4013 
L 2944 2272 
L 4684 2272 
L 4684 1741 
L 2944 1741 
L 2944 0 
L 2419 0 
L 2419 1741 
L 678 1741 
L 678 2272 
L 2419 2272 
L 2419 4013 
L 2944 4013 
z
" transform="scale(0.015625)"/>
      <path id="DejaVuSans-37" d="M 525 4666 
L 3525 4666 
L 3525 4397 
L 1831 0 
L 1172 0 
L 2766 4134 
L 525 4134 
L 525 4666 
z
" transform="scale(0.015625)"/>
      <path id="DejaVuSans-2f" d="M 1625 4666 
L 2156 4666 
L 531 -594 
L 0 -594 
L 1625 4666 
z
" transform="scale(0.015625)"/>
     </defs>
     <use xlink:href="#DejaVuSans-4b"/>
     <use xlink:href="#DejaVuSans-20" transform="translate(65.576172 0)"/>
     <use xlink:href="#DejaVuSans-3d" transform="translate(97.363281 0)"/>
     <use xlink:href="#DejaVuSans-20" transform="translate(181.152344 0)"/>
     <use xlink:href="#DejaVuSans-36" transform="translate(212.939453 0)"/>
     <use xlink:href="#DejaVuSans-2e" transform="translate(276.5625 0)"/>
     <use xlink:href="#DejaVuSans-32" transform="translate(308.349609 0)"/>
     <use xlink:href="#DejaVuSans-35" transform="translate(371.972656 0)"/>
     <use xlink:href="#DejaVuSans-25" transform="translate(435.595703 0)"/>
     <use xlink:href="#DejaVuSans-20" transform="translate(530.615234 0)"/>
     <use xlink:href="#DejaVuSans-2192" transform="translate(562.402344 0)"/>
     <use xlink:href="#DejaVuSans-20" transform="translate(646.191406 0)"/>
     <use xlink:href="#DejaVuSans-47" transform="translate(677.978516 0)"/>
     <use xlink:href="#DejaVuSans-20" transform="translate(755.46875 0)"/>
     <use xlink:href="#DejaVuSans-3d" transform="translate(787.255859 0)"/>
     <use xlink:href="#DejaVuSans-20" transform="translate(871.044922 0)"/>
     <use xlink:href="#DejaVuSans-2b" transform="translate(902.832031 0)"/>
     <use xlink:href="#DejaVuSans-30" transform="translate(986.621094 0)"/>
     <use xlink:href="#DejaVuSans-2e" transform="translate(1050.244141 0)"/>
     <use xlink:href="#DejaVuSans-37" transform="translate(1082.03125 0)"/>
     <use xlink:href="#DejaVuSans-34" transform="translate(1145.654297 0)"/>
     <use xlink:href="#DejaVuSans-25" transform="translate(1209.277344 0)"/>
     <use xlink:href="#DejaVuSans-2f" transform="translate(1304.296875 0)"/>
     <use xlink:href="#DejaVuSans-61" transform="translate(1337.988281 0)"/>
     <use xlink:href="#DejaVuSans-70" transform="translate(1399.267578 0)"/>
     <use xlink:href="#DejaVuSans-2e" transform="translate(1462.744141 0)"/>
    </g>
   </g>
   <g id="patch_8">
    <path d="M 628.564173 110.500834 
Q 491.950133 115.328068 357.570766 120.076341 
" style="fill: none; stroke: #ff9800; stroke-width: 2; stroke-linecap: round"/>
    <path d="M 367.33428 124.534344 
L 357.570766 120.076341 
L 366.995277 114.940331 
" style="fill: none; stroke: #ff9800; stroke-width: 2; stroke-linecap: round"/>
   </g>
   <g id="text_15">
    <!-- K = 12.5% → G = +0.12%/ap. -->
    <g style="fill: #ff9800" transform="translate(632.564856 110.644955) scale(0.24 -0.24)">
     <use xlink:href="#DejaVuSans-4b"/>
     <use xlink:href="#DejaVuSans-20" transform="translate(65.576172 0)"/>
     <use xlink:href="#DejaVuSans-3d" transform="translate(97.363281 0)"/>
     <use xlink:href="#DejaVuSans-20" transform="translate(181.152344 0)"/>
     <use xlink:href="#DejaVuSans-31" transform="translate(212.939453 0)"/>
     <use xlink:href="#DejaVuSans-32" transform="translate(276.5625 0)"/>
     <use xlink:href="#DejaVuSans-2e" transform="translate(340.185547 0)"/>
     <use xlink:href="#DejaVuSans-35" transform="translate(371.972656 0)"/>
     <use xlink:href="#DejaVuSans-25" transform="translate(435.595703 0)"/>
     <use xlink:href="#DejaVuSans-20" transform="translate(530.615234 0)"/>
     <use xlink:href="#DejaVuSans-2192" transform="translate(562.402344 0)"/>
     <use xlink:href="#DejaVuSans-20" transform="translate(646.191406 0)"/>
     <use xlink:href="#DejaVuSans-47" transform="translate(677.978516 0)"/>
     <use xlink:href="#DejaVuSans-20" transform="translate(755.46875 0)"/>
     <use xlink:href="#DejaVuSans-3d" transform="translate(787.255859 0)"/>
     <use xlink:href="#DejaVuSans-20" transform="translate(871.044922 0)"/>
     <use xlink:href="#DejaVuSans-2b" transform="translate(902.832031 0)"/>
     <use xlink:href="#DejaVuSans-30" transform="translate(986.621094 0)"/>
     <use xlink:href="#DejaVuSans-2e" transform="translate(1050.244141 0)"/>
     <use xlink:href="#DejaVuSans-31" transform="translate(1082.03125 0)"/>
     <use xlink:href="#DejaVuSans-32" transform="translate(1145.654297 0)"/>
     <use xlink:href="#DejaVuSans-25" transform="translate(1209.277344 0)"/>
     <use xlink:href="#DejaVuSans-2f" transform="translate(1304.296875 0)"/>
     <use xlink:href="#DejaVuSans-61" transform="translate(1337.988281 0)"/>
     <use xlink:href="#DejaVuSans-70" transform="translate(1399.267578 0)"/>
     <use xlink:href="#DejaVuSans-2e" transform="translate(1462.744141 0)"/>
    </g>
   </g>
   <g id="patch_9">
    <path d="M 547.522445 242.302951 
Q 682.201591 300.292665 814.82696 357.398069 
" style="fill: none; stroke: #f44336; stroke-width: 2; stroke-linecap: round"/>
    <path d="M 807.907862 349.192823 
L 814.82696 357.398069 
L 804.111303 358.0102 
" style="fill: none; stroke: #f44336; stroke-width: 2; stroke-linecap: round"/>
   </g>
   <g id="text_16">
    <!-- K = 37.5% → G = −12.3%/ap. -->
    <g style="fill: #f44336" transform="translate(334.726394 234.52086) scale(0.24 -0.24)">
     <use xlink:href="#DejaVuSans-4b"/>
     <use xlink:href="#DejaVuSans-20" transform="translate(65.576172 0)"/>
     <use xlink:href="#DejaVuSans-3d" transform="translate(97.363281 0)"/>
     <use xlink:href="#DejaVuSans-20" transform="translate(181.152344 0)"/>
     <use xlink:href="#DejaVuSans-33" transform="translate(212.939453 0)"/>
     <use xlink:href="#DejaVuSans-37" transform="translate(276.5625 0)"/>
     <use xlink:href="#DejaVuSans-2e" transform="translate(340.185547 0)"/>
     <use xlink:href="#DejaVuSans-35" transform="translate(371.972656 0)"/>
     <use xlink:href="#DejaVuSans-25" transform="translate(435.595703 0)"/>
     <use xlink:href="#DejaVuSans-20" transform="translate(530.615234 0)"/>
     <use xlink:href="#DejaVuSans-2192" transform="translate(562.402344 0)"/>
     <use xlink:href="#DejaVuSans-20" transform="translate(646.191406 0)"/>
     <use xlink:href="#DejaVuSans-47" transform="translate(677.978516 0)"/>
     <use xlink:href="#DejaVuSans-20" transform="translate(755.46875 0)"/>
     <use xlink:href="#DejaVuSans-3d" transform="translate(787.255859 0)"/>
     <use xlink:href="#DejaVuSans-20" transform="translate(871.044922 0)"/>
     <use xlink:href="#DejaVuSans-2212" transform="translate(902.832031 0)"/>
     <use xlink:href="#DejaVuSans-31" transform="translate(986.621094 0)"/>
     <use xlink:href="#DejaVuSans-32" transform="translate(1050.244141 0)"/>
     <use xlink:href="#DejaVuSans-2e" transform="translate(1113.867188 0)"/>
     <use xlink:href="#DejaVuSans-33" transform="translate(1145.654297 0)"/>
     <use xlink:href="#DejaVuSans-25" transform="translate(1209.277344 0)"/>
     <use xlink:href="#DejaVuSans-2f" transform="translate(1304.296875 0)"/>
     <use xlink:href="#DejaVuSans-61" transform="translate(1337.988281 0)"/>
     <use xlink:href="#DejaVuSans-70" transform="translate(1399.267578 0)"/>
     <use xlink:href="#DejaVuSans-2e" transform="translate(1462.744141 0)"/>
    </g>
   </g>
   <g id="text_17">
    <!-- Crecimiento esperado  (c = 25%, div = 5) -->
    <g transform="translate(186.21125 37.59375) scale(0.4 -0.4)">
     <defs>
      <path id="DejaVuSans-43" d="M 4122 4306 
L 4122 3641 
Q 3803 3938 3442 4084 
Q 3081 4231 2675 4231 
Q 1875 4231 1450 3742 
Q 1025 3253 1025 2328 
Q 1025 1406 1450 917 
Q 1875 428 2675 428 
Q 3081 428 3442 575 
Q 3803 722 4122 1019 
L 4122 359 
Q 3791 134 3420 21 
Q 3050 -91 2638 -91 
Q 1578 -91 968 557 
Q 359 1206 359 2328 
Q 359 3453 968 4101 
Q 1578 4750 2638 4750 
Q 3056 4750 3426 4639 
Q 3797 4528 4122 4306 
z
" transform="scale(0.015625)"/>
      <path id="DejaVuSans-6d" d="M 3328 2828 
Q 3544 3216 3844 3400 
Q 4144 3584 4550 3584 
Q 5097 3584 5394 3201 
Q 5691 2819 5691 2113 
L 5691 0 
L 5113 0 
L 5113 2094 
Q 5113 2597 4934 2840 
Q 4756 3084 4391 3084 
Q 3944 3084 3684 2787 
Q 3425 2491 3425 1978 
L 3425 0 
L 2847 0 
L 2847 2094 
Q 2847 2600 2669 2842 
Q 2491 3084 2119 3084 
Q 1678 3084 1418 2786 
Q 1159 2488 1159 1978 
L 1159 0 
L 581 0 
L 581 3500 
L 1159 3500 
L 1159 2956 
Q 1356 3278 1631 3431 
Q 1906 3584 2284 3584 
Q 2666 3584 2933 3390 
Q 3200 3197 3328 2828 
z
" transform="scale(0.015625)"/>
      <path id="DejaVuSans-2c" d="M 750 794 
L 1409 794 
L 1409 256 
L 897 -744 
L 494 -744 
L 750 256 
L 750 794 
z
" transform="scale(0.015625)"/>
      <path id="DejaVuSans-76" d="M 191 3500 
L 800 3500 
L 1894 563 
L 2988 3500 
L 3597 3500 
L 2284 0 
L 1503 0 
L 191 3500 
z
" transform="scale(0.015625)"/>
     </defs>
     <use xlink:href="#DejaVuSans-43"/>
     <use xlink:href="#DejaVuSans-72" transform="translate(69.824219 0)"/>
     <use xlink:href="#DejaVuSans-65" transform="translate(108.6875 0)"/>
     <use xlink:href="#DejaVuSans-63" transform="translate(170.210938 0)"/>
     <use xlink:href="#DejaVuSans-69" transform="translate(225.191406 0)"/>
     <use xlink:href="#DejaVuSans-6d" transform="translate(252.974609 0)"/>
     <use xlink:href="#DejaVuSans-69" transform="translate(350.386719 0)"/>
     <use xlink:href="#DejaVuSans-65" transform="translate(378.169922 0)"/>
     <use xlink:href="#DejaVuSans-6e" transform="translate(439.693359 0)"/>
     <use xlink:href="#DejaVuSans-74" transform="translate(503.072266 0)"/>
     <use xlink:href="#DejaVuSans-6f" transform="translate(542.28125 0)"/>
     <use xlink:href="#DejaVuSans-20" transform="translate(603.462891 0)"/>
     <use xlink:href="#DejaVuSans-65" transform="translate(635.25 0)"/>
     <use xlink:href="#DejaVuSans-73" transform="translate(696.773438 0)"/>
     <use xlink:href="#DejaVuSans-70" transform="translate(748.873047 0)"/>
     <use xlink:href="#DejaVuSans-65" transform="translate(812.349609 0)"/>
     <use xlink:href="#DejaVuSans-72" transform="translate(873.873047 0)"/>
     <use xlink:href="#DejaVuSans-61" transform="translate(914.986328 0)"/>
     <use xlink:href="#DejaVuSans-64" transform="translate(976.265625 0)"/>
     <use xlink:href="#DejaVuSans-6f" transform="translate(1039.742188 0)"/>
     <use xlink:href="#DejaVuSans-20" transform="translate(1100.923828 0)"/>
     <use xlink:href="#DejaVuSans-20" transform="translate(1132.710938 0)"/>
     <use xlink:href="#DejaVuSans-28" transform="translate(1164.498047 0)"/>
     <use xlink:href="#DejaVuSans-63" transform="translate(1203.511719 0)"/>
     <use xlink:href="#DejaVuSans-20" transform="translate(1258.492188 0)"/>
     <use xlink:href="#DejaVuSans-3d" transform="translate(1290.279297 0)"/>
     <use xlink:href="#DejaVuSans-20" transform="translate(1374.068359 0)"/>
     <use xlink:href="#DejaVuSans-32" transform="translate(1405.855469 0)"/>
     <use xlink:href="#DejaVuSans-35" transform="translate(1469.478516 0)"/>
     <use xlink:href="#DejaVuSans-25" transform="translate(1533.101562 0)"/>
     <use xlink:href="#DejaVuSans-2c" transform="translate(1628.121094 0)"/>
     <use xlink:href="#DejaVuSans-20" transform="translate(1659.908203 0)"/>
     <use xlink:href="#DejaVuSans-64" transform="translate(1691.695312 0)"/>
     <use xlink:href="#DejaVuSans-69" transform="translate(1755.171875 0)"/>
     <use xlink:href="#DejaVuSans-76" transform="translate(1782.955078 0)"/>
     <use xlink:href="#DejaVuSans-20" transform="translate(1842.134766 0)"/>
     <use xlink:href="#DejaVuSans-3d" transform="translate(1873.921875 0)"/>
     <use xlink:href="#DejaVuSans-20" transform="translate(1957.710938 0)"/>
     <use xlink:href="#DejaVuSans-35" transform="translate(1989.498047 0)"/>
     <use xlink:href="#DejaVuSans-29" transform="translate(2053.121094 0)"/>
    </g>
   </g>
   <g id="line2d_25">
    <defs>
     <path id="m5f9e6074a9" d="M 0 7 
C 1.856422 7 3.637059 6.262436 4.949747 4.949747 
C 6.262436 3.637059 7 1.856422 7 0 
C 7 -1.856422 6.262436 -3.637059 4.949747 -4.949747 
C 3.637059 -6.262436 1.856422 -7 0 -7 
C -1.856422 -7 -3.637059 -6.262436 -4.949747 -4.949747 
C -6.262436 -3.637059 -7 -1.856422 -7 0 
C -7 1.856422 -6.262436 3.637059 -4.949747 4.949747 
C -3.637059 6.262436 -1.856422 7 0 7 
z
" style="stroke: #4caf50"/>
    </defs>
    <g clip-path="url(#p022d29102c)">
     <use xlink:href="#m5f9e6074a9" x="236.998149" y="108.41403" style="fill: #4caf50; stroke: #4caf50"/>
    </g>
   </g>
   <g id="line2d_26">
    <defs>
     <path id="m4f5d4ef281" d="M 0 7 
C 1.856422 7 3.637059 6.262436 4.949747 4.949747 
C 6.262436 3.637059 7 1.856422 7 0 
C 7 -1.856422 6.262436 -3.637059 4.949747 -4.949747 
C 3.637059 -6.262436 1.856422 -7 0 -7 
C -1.856422 -7 -3.637059 -6.262436 -4.949747 -4.949747 
C -6.262436 -3.637059 -7 -1.856422 -7 0 
C -7 1.856422 -6.262436 3.637059 -4.949747 4.949747 
C -3.637059 6.262436 -1.856422 7 0 7 
z
" style="stroke: #ff9800"/>
    </defs>
    <g clip-path="url(#p022d29102c)">
     <use xlink:href="#m4f5d4ef281" x="353.341298" y="120.225788" style="fill: #ff9800; stroke: #ff9800"/>
    </g>
   </g>
   <g id="line2d_27">
    <defs>
     <path id="mdfc6125222" d="M 0 7 
C 1.856422 7 3.637059 6.262436 4.949747 4.949747 
C 6.262436 3.637059 7 1.856422 7 0 
C 7 -1.856422 6.262436 -3.637059 4.949747 -4.949747 
C 3.637059 -6.262436 1.856422 -7 0 -7 
C -1.856422 -7 -3.637059 -6.262436 -4.949747 -4.949747 
C -6.262436 -3.637059 -7 -1.856422 -7 0 
C -7 1.856422 -6.262436 3.637059 -4.949747 4.949747 
C -3.637059 6.262436 -1.856422 7 0 7 
z
" style="stroke: #f44336"/>
    </defs>
    <g clip-path="url(#p022d29102c)">
     <use xlink:href="#mdfc6125222" x="818.713894" y="359.071693" style="fill: #f44336; stroke: #f44336"/>
    </g>
   </g>
  </g>
 </g>
 <defs>
  <clipPath id="p022d29102c">
   <rect x="120.655" y="45.9125" width="967.975" height="459.88"/>
  </clipPath>
 </defs>
</svg>
