<?xml version="1.0" encoding="utf-8" standalone="no"?>
<!DOCTYPE svg PUBLIC "-//W3C//DTD SVG 1.1//EN"
  "http://www.w3.org/Graphics/SVG/1.1/DTD/svg11.dtd">
<svg xmlns:xlink="http://www.w3.org/1999/xlink" width="1097.59375pt" height="375.3225pt" viewBox="0 0 1097.59375 375.3225" xmlns="http://www.w3.org/2000/svg" version="1.1">
 <metadata>
  <rdf:RDF xmlns:dc="http://purl.org/dc/elements/1.1/" xmlns:cc="http://creativecommons.org/ns#" xmlns:rdf="http://www.w3.org/1999/02/22-rdf-syntax-ns#">
   <cc:Work>
    <dc:type rdf:resource="http://purl.org/dc/dcmitype/StillImage"/>
    <dc:date>2026-03-18T18:59:06.548954</dc:date>
    <dc:format>image/svg+xml</dc:format>
    <dc:creator>
     <cc:Agent>
      <dc:title>Matplotlib v3.10.8, https://matplotlib.org/</dc:title>
     </cc:Agent>
    </dc:creator>
   </cc:Work>
  </rdf:RDF>
 </metadata>
 <defs>
  <style type="text/css">*{stroke-linejoin: round; stroke-linecap: butt}</style>
 </defs>
 <g id="figure_1">
  <g id="patch_1">
   <path d="M 0 375.3225 
L 1097.59375 375.3225 
L 1097.59375 0 
L 0 0 
z
" style="fill: #ffffff"/>
  </g>
  <g id="axes_1">
   <g id="patch_2">
    <path d="M 328.524952 289.7925 
L 769.068798 289.7925 
L 769.068798 45.9125 
L 328.524952 45.9125 
z
" style="fill: #ffffff"/>
   </g>
   <g id="FillBetweenPolyCollection_1">
    <defs>
     <path id="md4149ebb40" d="M 439.643609 -288.763333 
L 439.643609 -288.755585 
L 440.378933 -288.571689 
L 441.114257 -288.385719 
L 441.849581 -288.197681 
L 442.584905 -288.007577 
L 443.320229 -287.815414 
L 444.055553 -287.621194 
L 444.790877 -287.424923 
L 445.526201 -287.226604 
L 446.261525 -287.026242 
L 446.996849 -286.82384 
L 447.732173 -286.619404 
L 448.467498 -286.412935 
L 449.202822 -286.20444 
L 449.938146 -285.993921 
L 450.67347 -285.781383 
L 451.408794 -285.56683 
L 452.144118 -285.350264 
L 452.879442 -285.131691 
L 453.614766 -284.911113 
L 454.35009 -284.688535 
L 455.085414 -284.46396 
L 455.820738 -284.237391 
L 456.556062 -284.008833 
L 457.291387 -283.778289 
L 458.026711 -283.545762 
L 458.762035 -283.311255 
L 459.497359 -283.074773 
L 460.232683 -282.836319 
L 460.968007 -282.595895 
L 461.703331 -282.353506 
L 462.438655 -282.109154 
L 463.173979 -281.862843 
L 463.909303 -281.614576 
L 464.644627 -281.364357 
L 465.379951 -281.112187 
L 466.115276 -280.858071 
L 466.8506 -280.602011 
L 467.585924 -280.34401 
L 468.321248 -280.084072 
L 469.056572 -279.8222 
L 469.791896 -279.558395 
L 470.52722 -279.292662 
L 471.262544 -279.025003 
L 471.997868 -278.755421 
L 472.733192 -278.483918 
L 473.468516 -278.210498 
L 474.20384 -277.935162 
L 474.939165 -277.657915 
L 475.674489 -277.378758 
L 476.409813 -277.097694 
L 477.145137 -276.814725 
L 477.880461 -276.529855 
L 478.615785 -276.243086 
L 479.351109 -275.954419 
L 480.086433 -275.663859 
L 480.821757 -275.371406 
L 481.557081 -275.077064 
L 482.292405 -274.780835 
L 483.027729 -274.48272 
L 483.763054 -274.182724 
L 484.498378 -273.880847 
L 485.233702 -273.577092 
L 485.969026 -273.271461 
L 486.70435 -272.963957 
L 487.439674 -272.654581 
L 488.174998 -272.343335 
L 488.910322 -272.030223 
L 489.645646 -271.715245 
L 490.38097 -271.398404 
L 491.116294 -271.079702 
L 491.851618 -270.759141 
L 492.586943 -270.436722 
L 493.322267 -270.112449 
L 494.057591 -269.786321 
L 494.792915 -269.458342 
L 495.528239 -269.128514 
L 496.263563 -268.796837 
L 496.998887 -268.463315 
L 497.734211 -268.127947 
L 498.469535 -267.790738 
L 499.204859 -267.451687 
L 499.940183 -267.110797 
L 500.675507 -266.768069 
L 501.410832 -266.423505 
L 502.146156 -266.077107 
L 502.88148 -265.728875 
L 503.616804 -265.378812 
L 504.352128 -265.02692 
L 505.087452 -264.673199 
L 505.822776 -264.317651 
L 506.5581 -263.960277 
L 507.293424 -263.601079 
L 508.028748 -263.240059 
L 508.764072 -262.877217 
L 509.499397 -262.512555 
L 510.234721 -262.146074 
L 510.970045 -261.777776 
L 511.705369 -261.407661 
L 512.440693 -261.035732 
L 513.176017 -260.661988 
L 513.911341 -260.286432 
L 514.646665 -259.909064 
L 515.381989 -259.529886 
L 516.117313 -259.148898 
L 516.852637 -258.766103 
L 517.587961 -258.3815 
L 518.323286 -257.995091 
L 519.05861 -257.606876 
L 519.793934 -257.216858 
L 520.529258 -256.825036 
L 521.264582 -256.431412 
L 521.999906 -256.035986 
L 522.73523 -255.63876 
L 523.470554 -255.239734 
L 524.205878 -254.838909 
L 524.941202 -254.436286 
L 525.676526 -254.031866 
L 526.41185 -253.625649 
L 527.147175 -253.217637 
L 527.882499 -252.807829 
L 528.617823 -252.396227 
L 529.353147 -251.982832 
L 530.088471 -251.567643 
L 530.823795 -251.150662 
L 531.559119 -250.731888 
L 532.294443 -250.311324 
L 533.029767 -249.888969 
L 533.765091 -249.464824 
L 534.500415 -249.038888 
L 535.235739 -248.611164 
L 535.971064 -248.181651 
L 536.706388 -247.75035 
L 537.441712 -247.31726 
L 538.177036 -246.882384 
L 538.91236 -246.44572 
L 539.647684 -246.007269 
L 540.383008 -245.567031 
L 541.118332 -245.125008 
L 541.853656 -244.681199 
L 542.58898 -244.235604 
L 543.324304 -243.788223 
L 544.059628 -243.339058 
L 544.794953 -242.888107 
L 545.530277 -242.435372 
L 546.265601 -241.980852 
L 547.000925 -241.524548 
L 547.736249 -241.066459 
L 548.471573 -240.606586 
L 549.206897 -240.144928 
L 549.942221 -239.681487 
L 550.677545 -239.216261 
L 551.412869 -238.749251 
L 552.148193 -238.280456 
L 552.883517 -237.809878 
L 553.618842 -237.337515 
L 554.354166 -236.863368 
L 555.08949 -236.387436 
L 555.824814 -235.90972 
L 556.560138 -235.430219 
L 557.295462 -234.948932 
L 558.030786 -234.465861 
L 558.76611 -233.981005 
L 559.501434 -233.494362 
L 560.236758 -233.005934 
L 560.972082 -232.51572 
L 561.707406 -232.02372 
L 562.442731 -231.529932 
L 563.178055 -231.034358 
L 563.913379 -230.536996 
L 564.648703 -230.037847 
L 565.384027 -229.536909 
L 566.119351 -229.034183 
L 566.854675 -228.529668 
L 567.589999 -228.023363 
L 568.325323 -227.515268 
L 569.060647 -227.005383 
L 569.795971 -226.493706 
L 570.531295 -225.980239 
L 571.26662 -225.464979 
L 572.001944 -224.947926 
L 572.737268 -224.42908 
L 573.472592 -223.90844 
L 574.207916 -223.386006 
L 574.94324 -222.861776 
L 575.678564 -222.335751 
L 576.413888 -221.807929 
L 577.149212 -221.278309 
L 577.884536 -220.746892 
L 578.61986 -220.213675 
L 579.355184 -219.678659 
L 580.090509 -219.141843 
L 580.825833 -218.603225 
L 581.561157 -218.062805 
L 582.296481 -217.520582 
L 583.031805 -216.976555 
L 583.767129 -216.430724 
L 584.502453 -215.883086 
L 585.237777 -215.333643 
L 585.973101 -214.782391 
L 586.708425 -214.229331 
L 587.443749 -213.674461 
L 588.179073 -213.11778 
L 588.914398 -212.559288 
L 589.649722 -211.998983 
L 590.385046 -211.436865 
L 591.12037 -210.872931 
L 591.855694 -210.307181 
L 592.591018 -209.739614 
L 593.326342 -209.170228 
L 594.061666 -208.599023 
L 594.79699 -208.025997 
L 595.532314 -207.451148 
L 596.267638 -206.874477 
L 597.002962 -206.295981 
L 597.738287 -205.715659 
L 598.473611 -205.13351 
L 599.208935 -204.549532 
L 599.944259 -203.963724 
L 600.679583 -203.376086 
L 601.414907 -202.786614 
L 602.150231 -202.195308 
L 602.885555 -201.602167 
L 603.620879 -201.007189 
L 604.356203 -200.410373 
L 605.091527 -199.811716 
L 605.826851 -199.211218 
L 606.562176 -198.608877 
L 607.2975 -198.004692 
L 608.032824 -197.39866 
L 608.768148 -196.790781 
L 609.503472 -196.181052 
L 610.238796 -195.569473 
L 610.97412 -194.95604 
L 611.709444 -194.340754 
L 612.444768 -193.723611 
L 613.180092 -193.104611 
L 613.915416 -192.483751 
L 614.65074 -191.86103 
L 615.386065 -191.236446 
L 616.121389 -190.609996 
L 616.856713 -189.981681 
L 617.592037 -189.351496 
L 618.327361 -188.719442 
L 619.062685 -188.085515 
L 619.798009 -187.449714 
L 620.533333 -186.812037 
L 621.268657 -186.172481 
L 622.003981 -185.531046 
L 622.739305 -184.887729 
L 623.474629 -184.242527 
L 624.209954 -183.59544 
L 624.945278 -182.946464 
L 625.680602 -182.295598 
L 626.415926 -181.64284 
L 627.15125 -180.988187 
L 627.886574 -180.331638 
L 628.621898 -179.67319 
L 629.357222 -179.012841 
L 630.092546 -178.350589 
L 630.82787 -177.686432 
L 631.563194 -177.020367 
L 632.298518 -176.352392 
L 633.033843 -175.682505 
L 633.769167 -175.010704 
L 634.504491 -174.336986 
L 635.239815 -173.661348 
L 635.975139 -172.983789 
L 636.710463 -172.304306 
L 637.445787 -171.622897 
L 638.181111 -170.939559 
L 638.916435 -170.25429 
L 639.651759 -169.567086 
L 640.387083 -168.877947 
L 641.122407 -168.186869 
L 641.857732 -167.493849 
L 642.593056 -166.798885 
L 643.32838 -166.101975 
L 644.063704 -165.403116 
L 644.799028 -164.702305 
L 645.534352 -163.999539 
L 646.269676 -163.294817 
L 647.005 -162.588134 
L 647.740324 -161.879489 
L 648.475648 -161.168878 
L 649.210972 -160.4563 
L 649.946297 -159.74175 
L 650.681621 -159.025227 
L 651.416945 -158.306727 
L 652.152269 -157.586247 
L 652.887593 -156.863785 
L 653.622917 -156.139338 
L 654.358241 -155.412902 
L 655.093565 -154.684476 
L 655.828889 -153.954055 
L 656.564213 -153.221637 
L 657.299537 -152.487218 
L 658.034861 -151.750797 
L 658.770186 -151.012369 
L 659.50551 -150.271931 
L 660.240834 -149.529481 
L 660.976158 -148.785015 
L 661.711482 -148.03853 
L 662.446806 -147.290023 
L 663.18213 -146.539491 
L 663.917454 -145.786929 
L 664.652778 -145.032336 
L 665.388102 -144.275708 
L 666.123426 -143.517042 
L 666.85875 -142.756333 
L 667.594075 -141.993579 
L 668.329399 -141.228776 
L 669.064723 -140.461922 
L 669.800047 -139.693012 
L 670.535371 -138.922043 
L 671.270695 -138.149011 
L 672.006019 -137.373913 
L 672.741343 -136.596746 
L 673.476667 -135.817506 
L 674.211991 -135.036188 
L 674.947315 -134.252791 
L 675.682639 -133.467309 
L 676.417964 -132.67974 
L 677.153288 -131.89008 
L 677.888612 -131.098324 
L 678.623936 -130.304469 
L 679.35926 -129.508512 
L 680.094584 -128.710448 
L 680.829908 -127.910274 
L 681.565232 -127.107986 
L 682.300556 -126.303579 
L 683.03588 -125.497051 
L 683.771204 -124.688397 
L 684.506528 -123.877612 
L 685.241853 -123.064694 
L 685.977177 -122.249638 
L 686.712501 -121.432441 
L 687.447825 -120.613097 
L 688.183149 -119.791603 
L 688.918473 -118.967954 
L 689.653797 -118.142147 
L 690.389121 -117.314178 
L 691.124445 -116.484042 
L 691.859769 -115.651734 
L 692.595093 -114.817252 
L 693.330417 -113.980589 
L 694.065742 -113.141743 
L 694.801066 -112.300708 
L 695.53639 -111.457481 
L 696.271714 -110.612056 
L 697.007038 -109.76443 
L 697.742362 -108.914598 
L 698.477686 -108.062555 
L 699.21301 -107.208297 
L 699.948334 -106.35182 
L 700.683658 -105.493118 
L 701.418982 -104.632187 
L 702.154306 -103.769022 
L 702.889631 -102.90362 
L 703.624955 -102.035974 
L 704.360279 -101.166081 
L 705.095603 -100.293935 
L 705.830927 -99.419532 
L 706.566251 -98.542867 
L 707.301575 -97.663935 
L 708.036899 -96.782731 
L 708.772223 -95.89925 
L 709.507547 -95.013488 
L 710.242871 -94.125438 
L 710.978195 -93.235097 
L 711.71352 -92.342459 
L 712.448844 -91.447519 
L 713.184168 -90.550272 
L 713.919492 -89.650713 
L 714.654816 -88.748836 
L 715.39014 -87.844637 
L 716.125464 -86.93811 
L 716.860788 -86.02925 
L 717.596112 -85.118051 
L 718.331436 -84.204508 
L 719.06676 -83.288616 
L 719.802084 -82.370369 
L 720.537409 -81.449763 
L 721.272733 -80.52679 
L 722.008057 -79.601447 
L 722.743381 -78.673726 
L 723.478705 -77.743624 
L 724.214029 -76.811133 
L 724.949353 -75.876249 
L 725.684677 -74.938966 
L 726.420001 -73.999278 
L 727.155325 -73.057179 
L 727.890649 -72.112663 
L 728.625973 -71.165725 
L 729.361298 -70.216358 
L 730.096622 -69.264557 
L 730.831946 -68.310316 
L 731.56727 -67.353629 
L 732.302594 -66.39449 
L 733.037918 -65.432892 
L 733.773242 -64.46883 
L 734.508566 -63.502297 
L 735.24389 -62.533288 
L 735.979214 -61.561795 
L 736.714538 -60.587814 
L 737.449862 -59.611337 
L 738.185187 -58.632358 
L 738.920511 -57.650871 
L 739.655835 -56.66687 
L 740.391159 -55.680347 
L 741.126483 -54.691297 
L 741.861807 -53.699712 
L 742.597131 -52.705588 
L 743.332455 -51.708915 
L 744.067779 -50.709689 
L 744.803103 -49.707902 
L 745.538427 -48.703548 
L 746.273751 -47.69662 
L 747.009076 -46.687111 
L 747.7444 -45.675014 
L 748.479724 -44.660322 
L 749.215048 -43.643028 
L 749.950372 -42.623126 
L 750.685696 -41.600608 
L 751.42102 -40.575468 
L 752.156344 -39.547697 
L 752.891668 -38.517289 
L 753.626992 -37.484238 
L 754.362316 -36.448534 
L 755.09764 -35.410172 
L 755.832965 -34.369143 
L 756.568289 -33.325441 
L 757.303613 -32.279058 
L 758.038937 -31.229987 
L 758.774261 -30.178219 
L 759.509585 -29.123748 
L 760.244909 -28.066566 
L 760.980233 -27.006665 
L 761.715557 -25.944037 
L 762.450881 -24.878675 
L 763.186205 -23.810571 
L 763.921529 -22.739717 
L 764.656854 -21.666104 
L 765.392178 -20.589726 
L 766.127502 -19.510574 
L 766.862826 -18.42864 
L 767.59815 -17.343916 
L 768.333474 -16.256394 
L 769.068798 -15.166065 
L 769.068798 -288.763333 
L 769.068798 -288.763333 
L 768.333474 -288.763333 
L 767.59815 -288.763333 
L 766.862826 -288.763333 
L 766.127502 -288.763333 
L 765.392178 -288.763333 
L 764.656854 -288.763333 
L 763.921529 -288.763333 
L 763.186205 -288.763333 
L 762.450881 -288.763333 
L 761.715557 -288.763333 
L 760.980233 -288.763333 
L 760.244909 -288.763333 
L 759.509585 -288.763333 
L 758.774261 -288.763333 
L 758.038937 -288.763333 
L 757.303613 -288.763333 
L 756.568289 -288.763333 
L 755.832965 -288.763333 
L 755.09764 -288.763333 
L 754.362316 -288.763333 
L 753.626992 -288.763333 
L 752.891668 -288.763333 
L 752.156344 -288.763333 
L 751.42102 -288.763333 
L 750.685696 -288.763333 
L 749.950372 -288.763333 
L 749.215048 -288.763333 
L 748.479724 -288.763333 
L 747.7444 -288.763333 
L 747.009076 -288.763333 
L 746.273751 -288.763333 
L 745.538427 -288.763333 
L 744.803103 -288.763333 
L 744.067779 -288.763333 
L 743.332455 -288.763333 
L 742.597131 -288.763333 
L 741.861807 -288.763333 
L 741.126483 -288.763333 
L 740.391159 -288.763333 
L 739.655835 -288.763333 
L 738.920511 -288.763333 
L 738.185187 -288.763333 
L 737.449862 -288.763333 
L 736.714538 -288.763333 
L 735.979214 -288.763333 
L 735.24389 -288.763333 
L 734.508566 -288.763333 
L 733.773242 -288.763333 
L 733.037918 -288.763333 
L 732.302594 -288.763333 
L 731.56727 -288.763333 
L 730.831946 -288.763333 
L 730.096622 -288.763333 
L 729.361298 -288.763333 
L 728.625973 -288.763333 
L 727.890649 -288.763333 
L 727.155325 -288.763333 
L 726.420001 -288.763333 
L 725.684677 -288.763333 
L 724.949353 -288.763333 
L 724.214029 -288.763333 
L 723.478705 -288.763333 
L 722.743381 -288.763333 
L 722.008057 -288.763333 
L 721.272733 -288.763333 
L 720.537409 -288.763333 
L 719.802084 -288.763333 
L 719.06676 -288.763333 
L 718.331436 -288.763333 
L 717.596112 -288.763333 
L 716.860788 -288.763333 
L 716.125464 -288.763333 
L 715.39014 -288.763333 
L 714.654816 -288.763333 
L 713.919492 -288.763333 
L 713.184168 -288.763333 
L 712.448844 -288.763333 
L 711.71352 -288.763333 
L 710.978195 -288.763333 
L 710.242871 -288.763333 
L 709.507547 -288.763333 
L 708.772223 -288.763333 
L 708.036899 -288.763333 
L 707.301575 -288.763333 
L 706.566251 -288.763333 
L 705.830927 -288.763333 
L 705.095603 -288.763333 
L 704.360279 -288.763333 
L 703.624955 -288.763333 
L 702.889631 -288.763333 
L 702.154306 -288.763333 
L 701.418982 -288.763333 
L 700.683658 -288.763333 
L 699.948334 -288.763333 
L 699.21301 -288.763333 
L 698.477686 -288.763333 
L 697.742362 -288.763333 
L 697.007038 -288.763333 
L 696.271714 -288.763333 
L 695.53639 -288.763333 
L 694.801066 -288.763333 
L 694.065742 -288.763333 
L 693.330417 -288.763333 
L 692.595093 -288.763333 
L 691.859769 -288.763333 
L 691.124445 -288.763333 
L 690.389121 -288.763333 
L 689.653797 -288.763333 
L 688.918473 -288.763333 
L 688.183149 -288.763333 
L 687.447825 -288.763333 
L 686.712501 -288.763333 
L 685.977177 -288.763333 
L 685.241853 -288.763333 
L 684.506528 -288.763333 
L 683.771204 -288.763333 
L 683.03588 -288.763333 
L 682.300556 -288.763333 
L 681.565232 -288.763333 
L 680.829908 -288.763333 
L 680.094584 -288.763333 
L 679.35926 -288.763333 
L 678.623936 -288.763333 
L 677.888612 -288.763333 
L 677.153288 -288.763333 
L 676.417964 -288.763333 
L 675.682639 -288.763333 
L 674.947315 -288.763333 
L 674.211991 -288.763333 
L 673.476667 -288.763333 
L 672.741343 -288.763333 
L 672.006019 -288.763333 
L 671.270695 -288.763333 
L 670.535371 -288.763333 
L 669.800047 -288.763333 
L 669.064723 -288.763333 
L 668.329399 -288.763333 
L 667.594075 -288.763333 
L 666.85875 -288.763333 
L 666.123426 -288.763333 
L 665.388102 -288.763333 
L 664.652778 -288.763333 
L 663.917454 -288.763333 
L 663.18213 -288.763333 
L 662.446806 -288.763333 
L 661.711482 -288.763333 
L 660.976158 -288.763333 
L 660.240834 -288.763333 
L 659.50551 -288.763333 
L 658.770186 -288.763333 
L 658.034861 -288.763333 
L 657.299537 -288.763333 
L 656.564213 -288.763333 
L 655.828889 -288.763333 
L 655.093565 -288.763333 
L 654.358241 -288.763333 
L 653.622917 -288.763333 
L 652.887593 -288.763333 
L 652.152269 -288.763333 
L 651.416945 -288.763333 
L 650.681621 -288.763333 
L 649.946297 -288.763333 
L 649.210972 -288.763333 
L 648.475648 -288.763333 
L 647.740324 -288.763333 
L 647.005 -288.763333 
L 646.269676 -288.763333 
L 645.534352 -288.763333 
L 644.799028 -288.763333 
L 644.063704 -288.763333 
L 643.32838 -288.763333 
L 642.593056 -288.763333 
L 641.857732 -288.763333 
L 641.122407 -288.763333 
L 640.387083 -288.763333 
L 639.651759 -288.763333 
L 638.916435 -288.763333 
L 638.181111 -288.763333 
L 637.445787 -288.763333 
L 636.710463 -288.763333 
L 635.975139 -288.763333 
L 635.239815 -288.763333 
L 634.504491 -288.763333 
L 633.769167 -288.763333 
L 633.033843 -288.763333 
L 632.298518 -288.763333 
L 631.563194 -288.763333 
L 630.82787 -288.763333 
L 630.092546 -288.763333 
L 629.357222 -288.763333 
L 628.621898 -288.763333 
L 627.886574 -288.763333 
L 627.15125 -288.763333 
L 626.415926 -288.763333 
L 625.680602 -288.763333 
L 624.945278 -288.763333 
L 624.209954 -288.763333 
L 623.474629 -288.763333 
L 622.739305 -288.763333 
L 622.003981 -288.763333 
L 621.268657 -288.763333 
L 620.533333 -288.763333 
L 619.798009 -288.763333 
L 619.062685 -288.763333 
L 618.327361 -288.763333 
L 617.592037 -288.763333 
L 616.856713 -288.763333 
L 616.121389 -288.763333 
L 615.386065 -288.763333 
L 614.65074 -288.763333 
L 613.915416 -288.763333 
L 613.180092 -288.763333 
L 612.444768 -288.763333 
L 611.709444 -288.763333 
L 610.97412 -288.763333 
L 610.238796 -288.763333 
L 609.503472 -288.763333 
L 608.768148 -288.763333 
L 608.032824 -288.763333 
L 607.2975 -288.763333 
L 606.562176 -288.763333 
L 605.826851 -288.763333 
L 605.091527 -288.763333 
L 604.356203 -288.763333 
L 603.620879 -288.763333 
L 602.885555 -288.763333 
L 602.150231 -288.763333 
L 601.414907 -288.763333 
L 600.679583 -288.763333 
L 599.944259 -288.763333 
L 599.208935 -288.763333 
L 598.473611 -288.763333 
L 597.738287 -288.763333 
L 597.002962 -288.763333 
L 596.267638 -288.763333 
L 595.532314 -288.763333 
L 594.79699 -288.763333 
L 594.061666 -288.763333 
L 593.326342 -288.763333 
L 592.591018 -288.763333 
L 591.855694 -288.763333 
L 591.12037 -288.763333 
L 590.385046 -288.763333 
L 589.649722 -288.763333 
L 588.914398 -288.763333 
L 588.179073 -288.763333 
L 587.443749 -288.763333 
L 586.708425 -288.763333 
L 585.973101 -288.763333 
L 585.237777 -288.763333 
L 584.502453 -288.763333 
L 583.767129 -288.763333 
L 583.031805 -288.763333 
L 582.296481 -288.763333 
L 581.561157 -288.763333 
L 580.825833 -288.763333 
L 580.090509 -288.763333 
L 579.355184 -288.763333 
L 578.61986 -288.763333 
L 577.884536 -288.763333 
L 577.149212 -288.763333 
L 576.413888 -288.763333 
L 575.678564 -288.763333 
L 574.94324 -288.763333 
L 574.207916 -288.763333 
L 573.472592 -288.763333 
L 572.737268 -288.763333 
L 572.001944 -288.763333 
L 571.26662 -288.763333 
L 570.531295 -288.763333 
L 569.795971 -288.763333 
L 569.060647 -288.763333 
L 568.325323 -288.763333 
L 567.589999 -288.763333 
L 566.854675 -288.763333 
L 566.119351 -288.763333 
L 565.384027 -288.763333 
L 564.648703 -288.763333 
L 563.913379 -288.763333 
L 563.178055 -288.763333 
L 562.442731 -288.763333 
L 561.707406 -288.763333 
L 560.972082 -288.763333 
L 560.236758 -288.763333 
L 559.501434 -288.763333 
L 558.76611 -288.763333 
L 558.030786 -288.763333 
L 557.295462 -288.763333 
L 556.560138 -288.763333 
L 555.824814 -288.763333 
L 555.08949 -288.763333 
L 554.354166 -288.763333 
L 553.618842 -288.763333 
L 552.883517 -288.763333 
L 552.148193 -288.763333 
L 551.412869 -288.763333 
L 550.677545 -288.763333 
L 549.942221 -288.763333 
L 549.206897 -288.763333 
L 548.471573 -288.763333 
L 547.736249 -288.763333 
L 547.000925 -288.763333 
L 546.265601 -288.763333 
L 545.530277 -288.763333 
L 544.794953 -288.763333 
L 544.059628 -288.763333 
L 543.324304 -288.763333 
L 542.58898 -288.763333 
L 541.853656 -288.763333 
L 541.118332 -288.763333 
L 540.383008 -288.763333 
L 539.647684 -288.763333 
L 538.91236 -288.763333 
L 538.177036 -288.763333 
L 537.441712 -288.763333 
L 536.706388 -288.763333 
L 535.971064 -288.763333 
L 535.235739 -288.763333 
L 534.500415 -288.763333 
L 533.765091 -288.763333 
L 533.029767 -288.763333 
L 532.294443 -288.763333 
L 531.559119 -288.763333 
L 530.823795 -288.763333 
L 530.088471 -288.763333 
L 529.353147 -288.763333 
L 528.617823 -288.763333 
L 527.882499 -288.763333 
L 527.147175 -288.763333 
L 526.41185 -288.763333 
L 525.676526 -288.763333 
L 524.941202 -288.763333 
L 524.205878 -288.763333 
L 523.470554 -288.763333 
L 522.73523 -288.763333 
L 521.999906 -288.763333 
L 521.264582 -288.763333 
L 520.529258 -288.763333 
L 519.793934 -288.763333 
L 519.05861 -288.763333 
L 518.323286 -288.763333 
L 517.587961 -288.763333 
L 516.852637 -288.763333 
L 516.117313 -288.763333 
L 515.381989 -288.763333 
L 514.646665 -288.763333 
L 513.911341 -288.763333 
L 513.176017 -288.763333 
L 512.440693 -288.763333 
L 511.705369 -288.763333 
L 510.970045 -288.763333 
L 510.234721 -288.763333 
L 509.499397 -288.763333 
L 508.764072 -288.763333 
L 508.028748 -288.763333 
L 507.293424 -288.763333 
L 506.5581 -288.763333 
L 505.822776 -288.763333 
L 505.087452 -288.763333 
L 504.352128 -288.763333 
L 503.616804 -288.763333 
L 502.88148 -288.763333 
L 502.146156 -288.763333 
L 501.410832 -288.763333 
L 500.675507 -288.763333 
L 499.940183 -288.763333 
L 499.204859 -288.763333 
L 498.469535 -288.763333 
L 497.734211 -288.763333 
L 496.998887 -288.763333 
L 496.263563 -288.763333 
L 495.528239 -288.763333 
L 494.792915 -288.763333 
L 494.057591 -288.763333 
L 493.322267 -288.763333 
L 492.586943 -288.763333 
L 491.851618 -288.763333 
L 491.116294 -288.763333 
L 490.38097 -288.763333 
L 489.645646 -288.763333 
L 488.910322 -288.763333 
L 488.174998 -288.763333 
L 487.439674 -288.763333 
L 486.70435 -288.763333 
L 485.969026 -288.763333 
L 485.233702 -288.763333 
L 484.498378 -288.763333 
L 483.763054 -288.763333 
L 483.027729 -288.763333 
L 482.292405 -288.763333 
L 481.557081 -288.763333 
L 480.821757 -288.763333 
L 480.086433 -288.763333 
L 479.351109 -288.763333 
L 478.615785 -288.763333 
L 477.880461 -288.763333 
L 477.145137 -288.763333 
L 476.409813 -288.763333 
L 475.674489 -288.763333 
L 474.939165 -288.763333 
L 474.20384 -288.763333 
L 473.468516 -288.763333 
L 472.733192 -288.763333 
L 471.997868 -288.763333 
L 471.262544 -288.763333 
L 470.52722 -288.763333 
L 469.791896 -288.763333 
L 469.056572 -288.763333 
L 468.321248 -288.763333 
L 467.585924 -288.763333 
L 466.8506 -288.763333 
L 466.115276 -288.763333 
L 465.379951 -288.763333 
L 464.644627 -288.763333 
L 463.909303 -288.763333 
L 463.173979 -288.763333 
L 462.438655 -288.763333 
L 461.703331 -288.763333 
L 460.968007 -288.763333 
L 460.232683 -288.763333 
L 459.497359 -288.763333 
L 458.762035 -288.763333 
L 458.026711 -288.763333 
L 457.291387 -288.763333 
L 456.556062 -288.763333 
L 455.820738 -288.763333 
L 455.085414 -288.763333 
L 454.35009 -288.763333 
L 453.614766 -288.763333 
L 452.879442 -288.763333 
L 452.144118 -288.763333 
L 451.408794 -288.763333 
L 450.67347 -288.763333 
L 449.938146 -288.763333 
L 449.202822 -288.763333 
L 448.467498 -288.763333 
L 447.732173 -288.763333 
L 446.996849 -288.763333 
L 446.261525 -288.763333 
L 445.526201 -288.763333 
L 444.790877 -288.763333 
L 444.055553 -288.763333 
L 443.320229 -288.763333 
L 442.584905 -288.763333 
L 441.849581 -288.763333 
L 441.114257 -288.763333 
L 440.378933 -288.763333 
L 439.643609 -288.763333 
z
" style="stroke: #ff0000; stroke-opacity: 0.12"/>
    </defs>
    <g clip-path="url(#p317bd7c9ac)">
     <use xlink:href="#md4149ebb40" x="0" y="375.3225" style="fill: #ff0000; fill-opacity: 0.12; stroke: #ff0000; stroke-opacity: 0.12"/>
    </g>
   </g>
   <g id="FillBetweenPolyCollection_2">
    <defs>
     <path id="mb53c5eaa04" d="M 328.609672 -288.763333 
L 328.609672 -288.788713 
L 329.344996 -289.006976 
L 330.08032 -289.221624 
L 330.815644 -289.432679 
L 331.550968 -289.640159 
L 332.286292 -289.844085 
L 333.021616 -290.044476 
L 333.75694 -290.24135 
L 334.492265 -290.434727 
L 335.227589 -290.624624 
L 335.962913 -290.811062 
L 336.698237 -290.994057 
L 337.433561 -291.173628 
L 338.168885 -291.349793 
L 338.904209 -291.522569 
L 339.639533 -291.691974 
L 340.374857 -291.858026 
L 341.110181 -292.02074 
L 341.845505 -292.180135 
L 342.580829 -292.336227 
L 343.316154 -292.489033 
L 344.051478 -292.638568 
L 344.786802 -292.784849 
L 345.522126 -292.927893 
L 346.25745 -293.067715 
L 346.992774 -293.204331 
L 347.728098 -293.337756 
L 348.463422 -293.468006 
L 349.198746 -293.595095 
L 349.93407 -293.719041 
L 350.669394 -293.839856 
L 351.404718 -293.957556 
L 352.140043 -294.072155 
L 352.875367 -294.183668 
L 353.610691 -294.29211 
L 354.346015 -294.397494 
L 355.081339 -294.499834 
L 355.816663 -294.599145 
L 356.551987 -294.69544 
L 357.287311 -294.788733 
L 358.022635 -294.879037 
L 358.757959 -294.966365 
L 359.493283 -295.050731 
L 360.228607 -295.132148 
L 360.963932 -295.210629 
L 361.699256 -295.286186 
L 362.43458 -295.358833 
L 363.169904 -295.428581 
L 363.905228 -295.495443 
L 364.640552 -295.559432 
L 365.375876 -295.62056 
L 366.1112 -295.678839 
L 366.846524 -295.73428 
L 367.581848 -295.786895 
L 368.317172 -295.836697 
L 369.052497 -295.883697 
L 369.787821 -295.927906 
L 370.523145 -295.969336 
L 371.258469 -296.007998 
L 371.993793 -296.043902 
L 372.729117 -296.077061 
L 373.464441 -296.107485 
L 374.199765 -296.135185 
L 374.935089 -296.160171 
L 375.670413 -296.182454 
L 376.405737 -296.202045 
L 377.141061 -296.218955 
L 377.876386 -296.233192 
L 378.61171 -296.244768 
L 379.347034 -296.253693 
L 380.082358 -296.259976 
L 380.817682 -296.263628 
L 381.553006 -296.264658 
L 382.28833 -296.263076 
L 383.023654 -296.258892 
L 383.758978 -296.252115 
L 384.494302 -296.242755 
L 385.229626 -296.230821 
L 385.96495 -296.216322 
L 386.700275 -296.199268 
L 387.435599 -296.179667 
L 388.170923 -296.157528 
L 388.906247 -296.132861 
L 389.641571 -296.105674 
L 390.376895 -296.075976 
L 391.112219 -296.043776 
L 391.847543 -296.009082 
L 392.582867 -295.971902 
L 393.318191 -295.932246 
L 394.053515 -295.89012 
L 394.788839 -295.845535 
L 395.524164 -295.798497 
L 396.259488 -295.749015 
L 396.994812 -295.697097 
L 397.730136 -295.64275 
L 398.46546 -295.585984 
L 399.200784 -295.526804 
L 399.936108 -295.46522 
L 400.671432 -295.401239 
L 401.406756 -295.334868 
L 402.14208 -295.266114 
L 402.877404 -295.194986 
L 403.612728 -295.121491 
L 404.348053 -295.045635 
L 405.083377 -294.967426 
L 405.818701 -294.886872 
L 406.554025 -294.803979 
L 407.289349 -294.718754 
L 408.024673 -294.631204 
L 408.759997 -294.541336 
L 409.495321 -294.449157 
L 410.230645 -294.354673 
L 410.965969 -294.257892 
L 411.701293 -294.15882 
L 412.436617 -294.057463 
L 413.171942 -293.953828 
L 413.907266 -293.847921 
L 414.64259 -293.739749 
L 415.377914 -293.629318 
L 416.113238 -293.516634 
L 416.848562 -293.401703 
L 417.583886 -293.284532 
L 418.31921 -293.165126 
L 419.054534 -293.043492 
L 419.789858 -292.919635 
L 420.525182 -292.793562 
L 421.260506 -292.665278 
L 421.995831 -292.534789 
L 422.731155 -292.4021 
L 423.466479 -292.267218 
L 424.201803 -292.130147 
L 424.937127 -291.990895 
L 425.672451 -291.849465 
L 426.407775 -291.705863 
L 427.143099 -291.560095 
L 427.878423 -291.412167 
L 428.613747 -291.262083 
L 429.349071 -291.109848 
L 430.084395 -290.955468 
L 430.81972 -290.798948 
L 431.555044 -290.640294 
L 432.290368 -290.479509 
L 433.025692 -290.316599 
L 433.761016 -290.151569 
L 434.49634 -289.984424 
L 435.231664 -289.815169 
L 435.966988 -289.643808 
L 436.702312 -289.470347 
L 437.437636 -289.294789 
L 438.17296 -289.11714 
L 438.908284 -288.937404 
L 438.908284 -288.763333 
L 438.908284 -288.763333 
L 438.17296 -288.763333 
L 437.437636 -288.763333 
L 436.702312 -288.763333 
L 435.966988 -288.763333 
L 435.231664 -288.763333 
L 434.49634 -288.763333 
L 433.761016 -288.763333 
L 433.025692 -288.763333 
L 432.290368 -288.763333 
L 431.555044 -288.763333 
L 430.81972 -288.763333 
L 430.084395 -288.763333 
L 429.349071 -288.763333 
L 428.613747 -288.763333 
L 427.878423 -288.763333 
L 427.143099 -288.763333 
L 426.407775 -288.763333 
L 425.672451 -288.763333 
L 424.937127 -288.763333 
L 424.201803 -288.763333 
L 423.466479 -288.763333 
L 422.731155 -288.763333 
L 421.995831 -288.763333 
L 421.260506 -288.763333 
L 420.525182 -288.763333 
L 419.789858 -288.763333 
L 419.054534 -288.763333 
L 418.31921 -288.763333 
L 417.583886 -288.763333 
L 416.848562 -288.763333 
L 416.113238 -288.763333 
L 415.377914 -288.763333 
L 414.64259 -288.763333 
L 413.907266 -288.763333 
L 413.171942 -288.763333 
L 412.436617 -288.763333 
L 411.701293 -288.763333 
L 410.965969 -288.763333 
L 410.230645 -288.763333 
L 409.495321 -288.763333 
L 408.759997 -288.763333 
L 408.024673 -288.763333 
L 407.289349 -288.763333 
L 406.554025 -288.763333 
L 405.818701 -288.763333 
L 405.083377 -288.763333 
L 404.348053 -288.763333 
L 403.612728 -288.763333 
L 402.877404 -288.763333 
L 402.14208 -288.763333 
L 401.406756 -288.763333 
L 400.671432 -288.763333 
L 399.936108 -288.763333 
L 399.200784 -288.763333 
L 398.46546 -288.763333 
L 397.730136 -288.763333 
L 396.994812 -288.763333 
L 396.259488 -288.763333 
L 395.524164 -288.763333 
L 394.788839 -288.763333 
L 394.053515 -288.763333 
L 393.318191 -288.763333 
L 392.582867 -288.763333 
L 391.847543 -288.763333 
L 391.112219 -288.763333 
L 390.376895 -288.763333 
L 389.641571 -288.763333 
L 388.906247 -288.763333 
L 388.170923 -288.763333 
L 387.435599 -288.763333 
L 386.700275 -288.763333 
L 385.96495 -288.763333 
L 385.229626 -288.763333 
L 384.494302 -288.763333 
L 383.758978 -288.763333 
L 383.023654 -288.763333 
L 382.28833 -288.763333 
L 381.553006 -288.763333 
L 380.817682 -288.763333 
L 380.082358 -288.763333 
L 379.347034 -288.763333 
L 378.61171 -288.763333 
L 377.876386 -288.763333 
L 377.141061 -288.763333 
L 376.405737 -288.763333 
L 375.670413 -288.763333 
L 374.935089 -288.763333 
L 374.199765 -288.763333 
L 373.464441 -288.763333 
L 372.729117 -288.763333 
L 371.993793 -288.763333 
L 371.258469 -288.763333 
L 370.523145 -288.763333 
L 369.787821 -288.763333 
L 369.052497 -288.763333 
L 368.317172 -288.763333 
L 367.581848 -288.763333 
L 366.846524 -288.763333 
L 366.1112 -288.763333 
L 365.375876 -288.763333 
L 364.640552 -288.763333 
L 363.905228 -288.763333 
L 363.169904 -288.763333 
L 362.43458 -288.763333 
L 361.699256 -288.763333 
L 360.963932 -288.763333 
L 360.228607 -288.763333 
L 359.493283 -288.763333 
L 358.757959 -288.763333 
L 358.022635 -288.763333 
L 357.287311 -288.763333 
L 356.551987 -288.763333 
L 355.816663 -288.763333 
L 355.081339 -288.763333 
L 354.346015 -288.763333 
L 353.610691 -288.763333 
L 352.875367 -288.763333 
L 352.140043 -288.763333 
L 351.404718 -288.763333 
L 350.669394 -288.763333 
L 349.93407 -288.763333 
L 349.198746 -288.763333 
L 348.463422 -288.763333 
L 347.728098 -288.763333 
L 346.992774 -288.763333 
L 346.25745 -288.763333 
L 345.522126 -288.763333 
L 344.786802 -288.763333 
L 344.051478 -288.763333 
L 343.316154 -288.763333 
L 342.580829 -288.763333 
L 341.845505 -288.763333 
L 341.110181 -288.763333 
L 340.374857 -288.763333 
L 339.639533 -288.763333 
L 338.904209 -288.763333 
L 338.168885 -288.763333 
L 337.433561 -288.763333 
L 336.698237 -288.763333 
L 335.962913 -288.763333 
L 335.227589 -288.763333 
L 334.492265 -288.763333 
L 333.75694 -288.763333 
L 333.021616 -288.763333 
L 332.286292 -288.763333 
L 331.550968 -288.763333 
L 330.815644 -288.763333 
L 330.08032 -288.763333 
L 329.344996 -288.763333 
L 328.609672 -288.763333 
z
" style="stroke: #008000; stroke-opacity: 0.1"/>
    </defs>
    <g clip-path="url(#p317bd7c9ac)">
     <use xlink:href="#mb53c5eaa04" x="0" y="375.3225" style="fill: #008000; fill-opacity: 0.1; stroke: #008000; stroke-opacity: 0.1"/>
    </g>
   </g>
   <g id="matplotlib.axis_1">
    <g id="xtick_1">
     <g id="line2d_1">
      <path d="M 328.524952 289.7925 
L 328.524952 45.9125 
" clip-path="url(#p317bd7c9ac)" style="fill: none; stroke: #b0b0b0; stroke-opacity: 0.3; stroke-width: 0.8; stroke-linecap: square"/>
     </g>
     <g id="line2d_2">
      <defs>
       <path id="m828bb63db4" d="M 0 0 
L 0 3.5 
" style="stroke: #000000; stroke-width: 0.8"/>
      </defs>
      <g>
       <use xlink:href="#m828bb63db4" x="328.524952" y="289.7925" style="stroke: #000000; stroke-width: 0.8"/>
      </g>
     </g>
     <g id="text_1">
      <!-- 0.0 -->
      <g transform="translate(303.079952 321.1075) scale(0.32 -0.32)">
       <defs>
        <path id="DejaVuSans-30" d="M 2034 4250 
Q 1547 4250 1301 3770 
Q 1056 3291 1056 2328 
Q 1056 1369 1301 889 
Q 1547 409 2034 409 
Q 2525 409 2770 889 
Q 3016 1369 3016 2328 
Q 3016 3291 2770 3770 
Q 2525 4250 2034 4250 
z
M 2034 4750 
Q 2819 4750 3233 4129 
Q 3647 3509 3647 2328 
Q 3647 1150 3233 529 
Q 2819 -91 2034 -91 
Q 1250 -91 836 529 
Q 422 1150 422 2328 
Q 422 3509 836 4129 
Q 1250 4750 2034 4750 
z
" transform="scale(0.015625)"/>
        <path id="DejaVuSans-2e" d="M 684 794 
L 1344 794 
L 1344 0 
L 684 0 
L 684 794 
z
" transform="scale(0.015625)"/>
       </defs>
       <use xlink:href="#DejaVuSans-30"/>
       <use xlink:href="#DejaVuSans-2e" transform="translate(63.623047 0)"/>
       <use xlink:href="#DejaVuSans-30" transform="translate(95.410156 0)"/>
      </g>
     </g>
    </g>
    <g id="xtick_2">
     <g id="line2d_3">
      <path d="M 497.964893 289.7925 
L 497.964893 45.9125 
" clip-path="url(#p317bd7c9ac)" style="fill: none; stroke: #b0b0b0; stroke-opacity: 0.3; stroke-width: 0.8; stroke-linecap: square"/>
     </g>
     <g id="line2d_4">
      <g>
       <use xlink:href="#m828bb63db4" x="497.964893" y="289.7925" style="stroke: #000000; stroke-width: 0.8"/>
      </g>
     </g>
     <g id="text_2">
      <!-- 0.2 -->
      <g transform="translate(472.519893 321.1075) scale(0.32 -0.32)">
       <defs>
        <path id="DejaVuSans-32" d="M 1228 531 
L 3431 531 
L 3431 0 
L 469 0 
L 469 531 
Q 828 903 1448 1529 
Q 2069 2156 2228 2338 
Q 2531 2678 2651 2914 
Q 2772 3150 2772 3378 
Q 2772 3750 2511 3984 
Q 2250 4219 1831 4219 
Q 1534 4219 1204 4116 
Q 875 4013 500 3803 
L 500 4441 
Q 881 4594 1212 4672 
Q 1544 4750 1819 4750 
Q 2544 4750 2975 4387 
Q 3406 4025 3406 3419 
Q 3406 3131 3298 2873 
Q 3191 2616 2906 2266 
Q 2828 2175 2409 1742 
Q 1991 1309 1228 531 
z
" transform="scale(0.015625)"/>
       </defs>
       <use xlink:href="#DejaVuSans-30"/>
       <use xlink:href="#DejaVuSans-2e" transform="translate(63.623047 0)"/>
       <use xlink:href="#DejaVuSans-32" transform="translate(95.410156 0)"/>
      </g>
     </g>
    </g>
    <g id="xtick_3">
     <g id="line2d_5">
      <path d="M 667.404834 289.7925 
L 667.404834 45.9125 
" clip-path="url(#p317bd7c9ac)" style="fill: none; stroke: #b0b0b0; stroke-opacity: 0.3; stroke-width: 0.8; stroke-linecap: square"/>
     </g>
     <g id="line2d_6">
      <g>
       <use xlink:href="#m828bb63db4" x="667.404834" y="289.7925" style="stroke: #000000; stroke-width: 0.8"/>
      </g>
     </g>
     <g id="text_3">
      <!-- 0.4 -->
      <g transform="translate(641.959834 321.1075) scale(0.32 -0.32)">
       <defs>
        <path id="DejaVuSans-34" d="M 2419 4116 
L 825 1625 
L 2419 1625 
L 2419 4116 
z
M 2253 4666 
L 3047 4666 
L 3047 1625 
L 3713 1625 
L 3713 1100 
L 3047 1100 
L 3047 0 
L 2419 0 
L 2419 1100 
L 313 1100 
L 313 1709 
L 2253 4666 
z
" transform="scale(0.015625)"/>
       </defs>
       <use xlink:href="#DejaVuSans-30"/>
       <use xlink:href="#DejaVuSans-2e" transform="translate(63.623047 0)"/>
       <use xlink:href="#DejaVuSans-34" transform="translate(95.410156 0)"/>
      </g>
     </g>
    </g>
    <g id="text_4">
     <!-- Fracción apostada $K$ -->
     <g transform="translate(366.096875 360.5625) scale(0.36 -0.36)">
      <defs>
       <path id="DejaVuSans-46" d="M 628 4666 
L 3309 4666 
L 3309 4134 
L 1259 4134 
L 1259 2759 
L 3109 2759 
L 3109 2228 
L 1259 2228 
L 1259 0 
L 628 0 
L 628 4666 
z
" transform="scale(0.015625)"/>
       <path id="DejaVuSans-72" d="M 2631 2963 
Q 2534 3019 2420 3045 
Q 2306 3072 2169 3072 
Q 1681 3072 1420 2755 
Q 1159 2438 1159 1844 
L 1159 0 
L 581 0 
L 581 3500 
L 1159 3500 
L 1159 2956 
Q 1341 3275 1631 3429 
Q 1922 3584 2338 3584 
Q 2397 3584 2469 3576 
Q 2541 3569 2628 3553 
L 2631 2963 
z
" transform="scale(0.015625)"/>
       <path id="DejaVuSans-61" d="M 2194 1759 
Q 1497 1759 1228 1600 
Q 959 1441 959 1056 
Q 959 750 1161 570 
Q 1363 391 1709 391 
Q 2188 391 2477 730 
Q 2766 1069 2766 1631 
L 2766 1759 
L 2194 1759 
z
M 3341 1997 
L 3341 0 
L 2766 0 
L 2766 531 
Q 2569 213 2275 61 
Q 1981 -91 1556 -91 
Q 1019 -91 701 211 
Q 384 513 384 1019 
Q 384 1609 779 1909 
Q 1175 2209 1959 2209 
L 2766 2209 
L 2766 2266 
Q 2766 2663 2505 2880 
Q 2244 3097 1772 3097 
Q 1472 3097 1187 3025 
Q 903 2953 641 2809 
L 641 3341 
Q 956 3463 1253 3523 
Q 1550 3584 1831 3584 
Q 2591 3584 2966 3190 
Q 3341 2797 3341 1997 
z
" transform="scale(0.015625)"/>
       <path id="DejaVuSans-63" d="M 3122 3366 
L 3122 2828 
Q 2878 2963 2633 3030 
Q 2388 3097 2138 3097 
Q 1578 3097 1268 2742 
Q 959 2388 959 1747 
Q 959 1106 1268 751 
Q 1578 397 2138 397 
Q 2388 397 2633 464 
Q 2878 531 3122 666 
L 3122 134 
Q 2881 22 2623 -34 
Q 2366 -91 2075 -91 
Q 1284 -91 818 406 
Q 353 903 353 1747 
Q 353 2603 823 3093 
Q 1294 3584 2113 3584 
Q 2378 3584 2631 3529 
Q 2884 3475 3122 3366 
z
" transform="scale(0.015625)"/>
       <path id="DejaVuSans-69" d="M 603 3500 
L 1178 3500 
L 1178 0 
L 603 0 
L 603 3500 
z
M 603 4863 
L 1178 4863 
L 1178 4134 
L 603 4134 
L 603 4863 
z
" transform="scale(0.015625)"/>
       <path id="DejaVuSans-f3" d="M 1959 3097 
Q 1497 3097 1228 2736 
Q 959 2375 959 1747 
Q 959 1119 1226 758 
Q 1494 397 1959 397 
Q 2419 397 2687 759 
Q 2956 1122 2956 1747 
Q 2956 2369 2687 2733 
Q 2419 3097 1959 3097 
z
M 1959 3584 
Q 2709 3584 3137 3096 
Q 3566 2609 3566 1747 
Q 3566 888 3137 398 
Q 2709 -91 1959 -91 
Q 1206 -91 779 398 
Q 353 888 353 1747 
Q 353 2609 779 3096 
Q 1206 3584 1959 3584 
z
M 2394 5119 
L 3016 5119 
L 1998 3944 
L 1519 3944 
L 2394 5119 
z
" transform="scale(0.015625)"/>
       <path id="DejaVuSans-6e" d="M 3513 2113 
L 3513 0 
L 2938 0 
L 2938 2094 
Q 2938 2591 2744 2837 
Q 2550 3084 2163 3084 
Q 1697 3084 1428 2787 
Q 1159 2491 1159 1978 
L 1159 0 
L 581 0 
L 581 3500 
L 1159 3500 
L 1159 2956 
Q 1366 3272 1645 3428 
Q 1925 3584 2291 3584 
Q 2894 3584 3203 3211 
Q 3513 2838 3513 2113 
z
" transform="scale(0.015625)"/>
       <path id="DejaVuSans-20" transform="scale(0.015625)"/>
       <path id="DejaVuSans-70" d="M 1159 525 
L 1159 -1331 
L 581 -1331 
L 581 3500 
L 1159 3500 
L 1159 2969 
Q 1341 3281 1617 3432 
Q 1894 3584 2278 3584 
Q 2916 3584 3314 3078 
Q 3713 2572 3713 1747 
Q 3713 922 3314 415 
Q 2916 -91 2278 -91 
Q 1894 -91 1617 61 
Q 1341 213 1159 525 
z
M 3116 1747 
Q 3116 2381 2855 2742 
Q 2594 3103 2138 3103 
Q 1681 3103 1420 2742 
Q 1159 2381 1159 1747 
Q 1159 1113 1420 752 
Q 1681 391 2138 391 
Q 2594 391 2855 752 
Q 3116 1113 3116 1747 
z
" transform="scale(0.015625)"/>
       <path id="DejaVuSans-6f" d="M 1959 3097 
Q 1497 3097 1228 2736 
Q 959 2375 959 1747 
Q 959 1119 1226 758 
Q 1494 397 1959 397 
Q 2419 397 2687 759 
Q 2956 1122 2956 1747 
Q 2956 2369 2687 2733 
Q 2419 3097 1959 3097 
z
M 1959 3584 
Q 2709 3584 3137 3096 
Q 3566 2609 3566 1747 
Q 3566 888 3137 398 
Q 2709 -91 1959 -91 
Q 1206 -91 779 398 
Q 353 888 353 1747 
Q 353 2609 779 3096 
Q 1206 3584 1959 3584 
z
" transform="scale(0.015625)"/>
       <path id="DejaVuSans-73" d="M 2834 3397 
L 2834 2853 
Q 2591 2978 2328 3040 
Q 2066 3103 1784 3103 
Q 1356 3103 1142 2972 
Q 928 2841 928 2578 
Q 928 2378 1081 2264 
Q 1234 2150 1697 2047 
L 1894 2003 
Q 2506 1872 2764 1633 
Q 3022 1394 3022 966 
Q 3022 478 2636 193 
Q 2250 -91 1575 -91 
Q 1294 -91 989 -36 
Q 684 19 347 128 
L 347 722 
Q 666 556 975 473 
Q 1284 391 1588 391 
Q 1994 391 2212 530 
Q 2431 669 2431 922 
Q 2431 1156 2273 1281 
Q 2116 1406 1581 1522 
L 1381 1569 
Q 847 1681 609 1914 
Q 372 2147 372 2553 
Q 372 3047 722 3315 
Q 1072 3584 1716 3584 
Q 2034 3584 2315 3537 
Q 2597 3491 2834 3397 
z
" transform="scale(0.015625)"/>
       <path id="DejaVuSans-74" d="M 1172 4494 
L 1172 3500 
L 2356 3500 
L 2356 3053 
L 1172 3053 
L 1172 1153 
Q 1172 725 1289 603 
Q 1406 481 1766 481 
L 2356 481 
L 2356 0 
L 1766 0 
Q 1100 0 847 248 
Q 594 497 594 1153 
L 594 3053 
L 172 3053 
L 172 3500 
L 594 3500 
L 594 4494 
L 1172 4494 
z
" transform="scale(0.015625)"/>
       <path id="DejaVuSans-64" d="M 2906 2969 
L 2906 4863 
L 3481 4863 
L 3481 0 
L 2906 0 
L 2906 525 
Q 2725 213 2448 61 
Q 2172 -91 1784 -91 
Q 1150 -91 751 415 
Q 353 922 353 1747 
Q 353 2572 751 3078 
Q 1150 3584 1784 3584 
Q 2172 3584 2448 3432 
Q 2725 3281 2906 2969 
z
M 947 1747 
Q 947 1113 1208 752 
Q 1469 391 1925 391 
Q 2381 391 2643 752 
Q 2906 1113 2906 1747 
Q 2906 2381 2643 2742 
Q 2381 3103 1925 3103 
Q 1469 3103 1208 2742 
Q 947 2381 947 1747 
z
" transform="scale(0.015625)"/>
       <path id="DejaVuSans-Oblique-4b" d="M 1081 4666 
L 1716 4666 
L 1331 2700 
L 3781 4666 
L 4622 4666 
L 1850 2438 
L 3878 0 
L 3109 0 
L 1247 2272 
L 806 0 
L 172 0 
L 1081 4666 
z
" transform="scale(0.015625)"/>
      </defs>
      <use xlink:href="#DejaVuSans-46" transform="translate(0 0.015625)"/>
      <use xlink:href="#DejaVuSans-72" transform="translate(57.519531 0.015625)"/>
      <use xlink:href="#DejaVuSans-61" transform="translate(98.632812 0.015625)"/>
      <use xlink:href="#DejaVuSans-63" transform="translate(159.912109 0.015625)"/>
      <use xlink:href="#DejaVuSans-63" transform="translate(214.892578 0.015625)"/>
      <use xlink:href="#DejaVuSans-69" transform="translate(269.873047 0.015625)"/>
      <use xlink:href="#DejaVuSans-f3" transform="translate(297.65625 0.015625)"/>
      <use xlink:href="#DejaVuSans-6e" transform="translate(358.837891 0.015625)"/>
      <use xlink:href="#DejaVuSans-20" transform="translate(422.216797 0.015625)"/>
      <use xlink:href="#DejaVuSans-61" transform="translate(454.003906 0.015625)"/>
      <use xlink:href="#DejaVuSans-70" transform="translate(515.283203 0.015625)"/>
      <use xlink:href="#DejaVuSans-6f" transform="translate(578.759766 0.015625)"/>
      <use xlink:href="#DejaVuSans-73" transform="translate(639.941406 0.015625)"/>
      <use xlink:href="#DejaVuSans-74" transform="translate(692.041016 0.015625)"/>
      <use xlink:href="#DejaVuSans-61" transform="translate(731.25 0.015625)"/>
      <use xlink:href="#DejaVuSans-64" transform="translate(792.529297 0.015625)"/>
      <use xlink:href="#DejaVuSans-61" transform="translate(856.005859 0.015625)"/>
      <use xlink:href="#DejaVuSans-20" transform="translate(917.285156 0.015625)"/>
      <use xlink:href="#DejaVuSans-Oblique-4b" transform="translate(949.072266 0.015625)"/>
     </g>
    </g>
   </g>
   <g id="matplotlib.axis_2">
    <g id="ytick_1">
     <g id="line2d_7">
      <path d="M 328.524952 289.7925 
L 769.068798 289.7925 
" clip-path="url(#p317bd7c9ac)" style="fill: none; stroke: #b0b0b0; stroke-opacity: 0.3; stroke-width: 0.8; stroke-linecap: square"/>
     </g>
     <g id="line2d_8">
      <defs>
       <path id="mabd4e9821c" d="M 0 0 
L -3.5 0 
" style="stroke: #000000; stroke-width: 0.8"/>
      </defs>
      <g>
       <use xlink:href="#mabd4e9821c" x="328.524952" y="289.7925" style="stroke: #000000; stroke-width: 0.8"/>
      </g>
     </g>
     <g id="text_5">
      <!-- −20 -->
      <g transform="translate(253.989952 301.95) scale(0.32 -0.32)">
       <defs>
        <path id="DejaVuSans-2212" d="M 678 2272 
L 4684 2272 
L 4684 1741 
L 678 1741 
L 678 2272 
z
" transform="scale(0.015625)"/>
       </defs>
       <use xlink:href="#DejaVuSans-2212"/>
       <use xlink:href="#DejaVuSans-32" transform="translate(83.789062 0)"/>
       <use xlink:href="#DejaVuSans-30" transform="translate(147.412109 0)"/>
      </g>
     </g>
    </g>
    <g id="ytick_2">
     <g id="line2d_9">
      <path d="M 328.524952 188.175833 
L 769.068798 188.175833 
" clip-path="url(#p317bd7c9ac)" style="fill: none; stroke: #b0b0b0; stroke-opacity: 0.3; stroke-width: 0.8; stroke-linecap: square"/>
     </g>
     <g id="line2d_10">
      <g>
       <use xlink:href="#mabd4e9821c" x="328.524952" y="188.175833" style="stroke: #000000; stroke-width: 0.8"/>
      </g>
     </g>
     <g id="text_6">
      <!-- −10 -->
      <g transform="translate(253.989952 200.333333) scale(0.32 -0.32)">
       <defs>
        <path id="DejaVuSans-31" d="M 794 531 
L 1825 531 
L 1825 4091 
L 703 3866 
L 703 4441 
L 1819 4666 
L 2450 4666 
L 2450 531 
L 3481 531 
L 3481 0 
L 794 0 
L 794 531 
z
" transform="scale(0.015625)"/>
       </defs>
       <use xlink:href="#DejaVuSans-2212"/>
       <use xlink:href="#DejaVuSans-31" transform="translate(83.789062 0)"/>
       <use xlink:href="#DejaVuSans-30" transform="translate(147.412109 0)"/>
      </g>
     </g>
    </g>
    <g id="ytick_3">
     <g id="line2d_11">
      <path d="M 328.524952 86.559167 
L 769.068798 86.559167 
" clip-path="url(#p317bd7c9ac)" style="fill: none; stroke: #b0b0b0; stroke-opacity: 0.3; stroke-width: 0.8; stroke-linecap: square"/>
     </g>
     <g id="line2d_12">
      <g>
       <use xlink:href="#mabd4e9821c" x="328.524952" y="86.559167" style="stroke: #000000; stroke-width: 0.8"/>
      </g>
     </g>
     <g id="text_7">
      <!-- 0 -->
      <g transform="translate(301.164952 98.716667) scale(0.32 -0.32)">
       <use xlink:href="#DejaVuSans-30"/>
      </g>
     </g>
    </g>
    <g id="text_8">
     <!-- Tasa de crecimiento $G(K)$  (% por apuesta) -->
     <g transform="translate(242.429952 552.5125) rotate(-90) scale(0.36 -0.36)">
      <defs>
       <path id="DejaVuSans-54" d="M -19 4666 
L 3928 4666 
L 3928 4134 
L 2272 4134 
L 2272 0 
L 1638 0 
L 1638 4134 
L -19 4134 
L -19 4666 
z
" transform="scale(0.015625)"/>
       <path id="DejaVuSans-65" d="M 3597 1894 
L 3597 1613 
L 953 1613 
Q 991 1019 1311 708 
Q 1631 397 2203 397 
Q 2534 397 2845 478 
Q 3156 559 3463 722 
L 3463 178 
Q 3153 47 2828 -22 
Q 2503 -91 2169 -91 
Q 1331 -91 842 396 
Q 353 884 353 1716 
Q 353 2575 817 3079 
Q 1281 3584 2069 3584 
Q 2775 3584 3186 3129 
Q 3597 2675 3597 1894 
z
M 3022 2063 
Q 3016 2534 2758 2815 
Q 2500 3097 2075 3097 
Q 1594 3097 1305 2825 
Q 1016 2553 972 2059 
L 3022 2063 
z
" transform="scale(0.015625)"/>
       <path id="DejaVuSans-6d" d="M 3328 2828 
Q 3544 3216 3844 3400 
Q 4144 3584 4550 3584 
Q 5097 3584 5394 3201 
Q 5691 2819 5691 2113 
L 5691 0 
L 5113 0 
L 5113 2094 
Q 5113 2597 4934 2840 
Q 4756 3084 4391 3084 
Q 3944 3084 3684 2787 
Q 3425 2491 3425 1978 
L 3425 0 
L 2847 0 
L 2847 2094 
Q 2847 2600 2669 2842 
Q 2491 3084 2119 3084 
Q 1678 3084 1418 2786 
Q 1159 2488 1159 1978 
L 1159 0 
L 581 0 
L 581 3500 
L 1159 3500 
L 1159 2956 
Q 1356 3278 1631 3431 
Q 1906 3584 2284 3584 
Q 2666 3584 2933 3390 
Q 3200 3197 3328 2828 
z
" transform="scale(0.015625)"/>
       <path id="DejaVuSans-Oblique-47" d="M 3494 697 
L 3738 1919 
L 2700 1919 
L 2797 2438 
L 4453 2438 
L 4050 384 
Q 3634 156 3143 32 
Q 2653 -91 2156 -91 
Q 1278 -91 783 396 
Q 288 884 288 1753 
Q 288 2475 589 3126 
Q 891 3778 1422 4213 
Q 1756 4484 2153 4617 
Q 2550 4750 3034 4750 
Q 3472 4750 3873 4639 
Q 4275 4528 4641 4306 
L 4513 3634 
Q 4231 3928 3853 4083 
Q 3475 4238 3047 4238 
Q 2550 4238 2172 4048 
Q 1794 3859 1497 3463 
Q 1244 3125 1098 2667 
Q 953 2209 953 1734 
Q 953 1081 1287 751 
Q 1622 422 2284 422 
Q 2616 422 2925 492 
Q 3234 563 3494 697 
z
" transform="scale(0.015625)"/>
       <path id="DejaVuSans-28" d="M 1984 4856 
Q 1566 4138 1362 3434 
Q 1159 2731 1159 2009 
Q 1159 1288 1364 580 
Q 1569 -128 1984 -844 
L 1484 -844 
Q 1016 -109 783 600 
Q 550 1309 550 2009 
Q 550 2706 781 3412 
Q 1013 4119 1484 4856 
L 1984 4856 
z
" transform="scale(0.015625)"/>
       <path id="DejaVuSans-29" d="M 513 4856 
L 1013 4856 
Q 1481 4119 1714 3412 
Q 1947 2706 1947 2009 
Q 1947 1309 1714 600 
Q 1481 -109 1013 -844 
L 513 -844 
Q 928 -128 1133 580 
Q 1338 1288 1338 2009 
Q 1338 2731 1133 3434 
Q 928 4138 513 4856 
z
" transform="scale(0.015625)"/>
       <path id="DejaVuSans-25" d="M 4653 2053 
Q 4381 2053 4226 1822 
Q 4072 1591 4072 1178 
Q 4072 772 4226 539 
Q 4381 306 4653 306 
Q 4919 306 5073 539 
Q 5228 772 5228 1178 
Q 5228 1588 5073 1820 
Q 4919 2053 4653 2053 
z
M 4653 2450 
Q 5147 2450 5437 2106 
Q 5728 1763 5728 1178 
Q 5728 594 5436 251 
Q 5144 -91 4653 -91 
Q 4153 -91 3862 251 
Q 3572 594 3572 1178 
Q 3572 1766 3864 2108 
Q 4156 2450 4653 2450 
z
M 1428 4353 
Q 1159 4353 1004 4120 
Q 850 3888 850 3481 
Q 850 3069 1003 2837 
Q 1156 2606 1428 2606 
Q 1700 2606 1854 2837 
Q 2009 3069 2009 3481 
Q 2009 3884 1853 4118 
Q 1697 4353 1428 4353 
z
M 4250 4750 
L 4750 4750 
L 1831 -91 
L 1331 -91 
L 4250 4750 
z
M 1428 4750 
Q 1922 4750 2215 4408 
Q 2509 4066 2509 3481 
Q 2509 2891 2217 2550 
Q 1925 2209 1428 2209 
Q 931 2209 642 2551 
Q 353 2894 353 3481 
Q 353 4063 643 4406 
Q 934 4750 1428 4750 
z
" transform="scale(0.015625)"/>
       <path id="DejaVuSans-75" d="M 544 1381 
L 544 3500 
L 1119 3500 
L 1119 1403 
Q 1119 906 1312 657 
Q 1506 409 1894 409 
Q 2359 409 2629 706 
Q 2900 1003 2900 1516 
L 2900 3500 
L 3475 3500 
L 3475 0 
L 2900 0 
L 2900 538 
Q 2691 219 2414 64 
Q 2138 -91 1772 -91 
Q 1169 -91 856 284 
Q 544 659 544 1381 
z
M 1991 3584 
L 1991 3584 
z
" transform="scale(0.015625)"/>
      </defs>
      <use xlink:href="#DejaVuSans-54" transform="translate(0 0.015625)"/>
      <use xlink:href="#DejaVuSans-61" transform="translate(61.083984 0.015625)"/>
      <use xlink:href="#DejaVuSans-73" transform="translate(122.363281 0.015625)"/>
      <use xlink:href="#DejaVuSans-61" transform="translate(174.462891 0.015625)"/>
      <use xlink:href="#DejaVuSans-20" transform="translate(235.742188 0.015625)"/>
      <use xlink:href="#DejaVuSans-64" transform="translate(267.529297 0.015625)"/>
      <use xlink:href="#DejaVuSans-65" transform="translate(331.005859 0.015625)"/>
      <use xlink:href="#DejaVuSans-20" transform="translate(392.529297 0.015625)"/>
      <use xlink:href="#DejaVuSans-63" transform="translate(424.316406 0.015625)"/>
      <use xlink:href="#DejaVuSans-72" transform="translate(479.296875 0.015625)"/>
      <use xlink:href="#DejaVuSans-65" transform="translate(520.410156 0.015625)"/>
      <use xlink:href="#DejaVuSans-63" transform="translate(581.933594 0.015625)"/>
      <use xlink:href="#DejaVuSans-69" transform="translate(636.914062 0.015625)"/>
      <use xlink:href="#DejaVuSans-6d" transform="translate(664.697266 0.015625)"/>
      <use xlink:href="#DejaVuSans-69" transform="translate(762.109375 0.015625)"/>
      <use xlink:href="#DejaVuSans-65" transform="translate(789.892578 0.015625)"/>
      <use xlink:href="#DejaVuSans-6e" transform="translate(851.416016 0.015625)"/>
      <use xlink:href="#DejaVuSans-74" transform="translate(914.794922 0.015625)"/>
      <use xlink:href="#DejaVuSans-6f" transform="translate(954.003906 0.015625)"/>
      <use xlink:href="#DejaVuSans-20" transform="translate(1015.185547 0.015625)"/>
      <use xlink:href="#DejaVuSans-Oblique-47" transform="translate(1046.972656 0.015625)"/>
      <use xlink:href="#DejaVuSans-28" transform="translate(1124.462891 0.015625)"/>
      <use xlink:href="#DejaVuSans-Oblique-4b" transform="translate(1163.476562 0.015625)"/>
      <use xlink:href="#DejaVuSans-29" transform="translate(1229.052734 0.015625)"/>
      <use xlink:href="#DejaVuSans-20" transform="translate(1268.066406 0.015625)"/>
      <use xlink:href="#DejaVuSans-20" transform="translate(1299.853516 0.015625)"/>
      <use xlink:href="#DejaVuSans-28" transform="translate(1331.640625 0.015625)"/>
      <use xlink:href="#DejaVuSans-25" transform="translate(1370.654297 0.015625)"/>
      <use xlink:href="#DejaVuSans-20" transform="translate(1465.673828 0.015625)"/>
      <use xlink:href="#DejaVuSans-70" transform="translate(1497.460938 0.015625)"/>
      <use xlink:href="#DejaVuSans-6f" transform="translate(1560.9375 0.015625)"/>
      <use xlink:href="#DejaVuSans-72" transform="translate(1622.119141 0.015625)"/>
      <use xlink:href="#DejaVuSans-20" transform="translate(1663.232422 0.015625)"/>
      <use xlink:href="#DejaVuSans-61" transform="translate(1695.019531 0.015625)"/>
      <use xlink:href="#DejaVuSans-70" transform="translate(1756.298828 0.015625)"/>
      <use xlink:href="#DejaVuSans-75" transform="translate(1819.775391 0.015625)"/>
      <use xlink:href="#DejaVuSans-65" transform="translate(1883.154297 0.015625)"/>
      <use xlink:href="#DejaVuSans-73" transform="translate(1944.677734 0.015625)"/>
      <use xlink:href="#DejaVuSans-74" transform="translate(1996.777344 0.015625)"/>
      <use xlink:href="#DejaVuSans-61" transform="translate(2035.986328 0.015625)"/>
      <use xlink:href="#DejaVuSans-29" transform="translate(2097.265625 0.015625)"/>
     </g>
    </g>
   </g>
   <g id="line2d_13">
    <path d="M 328.524952 86.559167 
L 769.068798 86.559167 
" clip-path="url(#p317bd7c9ac)" style="fill: none; stroke-dasharray: 2.96,1.28; stroke-dashoffset: 0; stroke: #808080; stroke-opacity: 0.6; stroke-width: 0.8"/>
   </g>
   <g id="line2d_14">
    <path d="M 328.609672 86.533787 
L 334.492265 84.887773 
L 340.374857 83.464474 
L 346.25745 82.254785 
L 352.140043 81.250345 
L 358.757959 80.356135 
L 365.375876 79.70194 
L 371.993793 79.278598 
L 378.61171 79.077732 
L 385.229626 79.091679 
L 391.847543 79.313418 
L 399.200784 79.795696 
L 406.554025 80.518521 
L 413.907266 81.474579 
L 421.260506 82.657222 
L 428.613747 84.060417 
L 435.966988 85.678692 
L 443.320229 87.507086 
L 451.408794 89.75567 
L 459.497359 92.247727 
L 467.585924 94.97849 
L 475.674489 97.943742 
L 483.763054 101.139776 
L 491.851618 104.563359 
L 499.940183 108.211703 
L 508.764072 112.445283 
L 517.587961 116.941 
L 526.41185 121.696851 
L 535.235739 126.711336 
L 544.059628 131.983442 
L 552.883517 137.512622 
L 561.707406 143.29878 
L 570.531295 149.342261 
L 579.355184 155.643841 
L 588.179073 162.20472 
L 597.002962 169.026519 
L 605.826851 176.111282 
L 614.65074 183.46147 
L 623.474629 191.079973 
L 633.033843 199.639995 
L 642.593056 208.523615 
L 652.152269 217.736253 
L 661.711482 227.28397 
L 670.535371 236.400457 
L 679.35926 245.813988 
L 688.183149 255.530897 
L 697.007038 265.55807 
L 705.830927 275.902968 
L 714.654816 286.573664 
L 723.478705 297.578876 
L 732.302594 308.92801 
L 741.126483 320.631203 
L 749.950372 332.699374 
L 758.774261 345.144281 
L 767.59815 357.978584 
L 769.068798 360.156435 
L 769.068798 360.156435 
" clip-path="url(#p317bd7c9ac)" style="fill: none; stroke: #2196f3; stroke-width: 2.5; stroke-linecap: square"/>
   </g>
   <g id="patch_3">
    <path d="M 328.524952 289.7925 
L 328.524952 45.9125 
" style="fill: none; stroke: #000000; stroke-width: 0.8; stroke-linejoin: miter; stroke-linecap: square"/>
   </g>
   <g id="patch_4">
    <path d="M 769.068798 289.7925 
L 769.068798 45.9125 
" style="fill: none; stroke: #000000; stroke-width: 0.8; stroke-linejoin: miter; stroke-linecap: square"/>
   </g>
   <g id="patch_5">
    <path d="M 328.524952 289.7925 
L 769.068798 289.7925 
" style="fill: none; stroke: #000000; stroke-width: 0.8; stroke-linejoin: miter; stroke-linecap: square"/>
   </g>
   <g id="patch_6">
    <path d="M 328.524952 45.9125 
L 769.068798 45.9125 
" style="fill: none; stroke: #000000; stroke-width: 0.8; stroke-linejoin: miter; stroke-linecap: square"/>
   </g>
   <g id="patch_7">
    <path d="M 454.332763 63.104463 
Q 418.87994 70.867414 385.065355 78.271648 
" style="fill: none; stroke: #4caf50; stroke-width: 1.5; stroke-linecap: round"/>
    <path d="M 395.469883 80.907137 
L 385.065355 78.271648 
L 393.416463 71.529319 
" style="fill: none; stroke: #4caf50; stroke-width: 1.5; stroke-linecap: round"/>
   </g>
   <g id="text_9">
    <!-- K = 6.25% → G = +0.74%/ap. -->
    <g style="fill: #4caf50" transform="translate(339.114948 55.685994) scale(0.24 -0.24)">
     <defs>
      <path id="DejaVuSans-4b" d="M 628 4666 
L 1259 4666 
L 1259 2694 
L 3353 4666 
L 4166 4666 
L 1850 2491 
L 4331 0 
L 3500 0 
L 1259 2247 
L 1259 0 
L 628 0 
L 628 4666 
z
" transform="scale(0.015625)"/>
      <path id="DejaVuSans-3d" d="M 678 2906 
L 4684 2906 
L 4684 2381 
L 678 2381 
L 678 2906 
z
M 678 1631 
L 4684 1631 
L 4684 1100 
L 678 1100 
L 678 1631 
z
" transform="scale(0.015625)"/>
      <path id="DejaVuSans-36" d="M 2113 2584 
Q 1688 2584 1439 2293 
Q 1191 2003 1191 1497 
Q 1191 994 1439 701 
Q 1688 409 2113 409 
Q 2538 409 2786 701 
Q 3034 994 3034 1497 
Q 3034 2003 2786 2293 
Q 2538 2584 2113 2584 
z
M 3366 4563 
L 3366 3988 
Q 3128 4100 2886 4159 
Q 2644 4219 2406 4219 
Q 1781 4219 1451 3797 
Q 1122 3375 1075 2522 
Q 1259 2794 1537 2939 
Q 1816 3084 2150 3084 
Q 2853 3084 3261 2657 
Q 3669 2231 3669 1497 
Q 3669 778 3244 343 
Q 2819 -91 2113 -91 
Q 1303 -91 875 529 
Q 447 1150 447 2328 
Q 447 3434 972 4092 
Q 1497 4750 2381 4750 
Q 2619 4750 2861 4703 
Q 3103 4656 3366 4563 
z
" transform="scale(0.015625)"/>
      <path id="DejaVuSans-35" d="M 691 4666 
L 3169 4666 
L 3169 4134 
L 1269 4134 
L 1269 2991 
Q 1406 3038 1543 3061 
Q 1681 3084 1819 3084 
Q 2600 3084 3056 2656 
Q 3513 2228 3513 1497 
Q 3513 744 3044 326 
Q 2575 -91 1722 -91 
Q 1428 -91 1123 -41 
Q 819 9 494 109 
L 494 744 
Q 775 591 1075 516 
Q 1375 441 1709 441 
Q 2250 441 2565 725 
Q 2881 1009 2881 1497 
Q 2881 1984 2565 2268 
Q 2250 2553 1709 2553 
Q 1456 2553 1204 2497 
Q 953 2441 691 2322 
L 691 4666 
z
" transform="scale(0.015625)"/>
      <path id="DejaVuSans-2192" d="M 5050 2147 
L 5050 1866 
L 3822 638 
L 3447 1013 
L 4175 1741 
L 366 1741 
L 366 2272 
L 4175 2272 
L 3447 3000 
L 3822 3375 
L 5050 2147 
z
" transform="scale(0.015625)"/>
      <path id="DejaVuSans-47" d="M 3809 666 
L 3809 1919 
L 2778 1919 
L 2778 2438 
L 4434 2438 
L 4434 434 
Q 4069 175 3628 42 
Q 3188 -91 2688 -91 
Q 1594 -91 976 548 
Q 359 1188 359 2328 
Q 359 3472 976 4111 
Q 1594 4750 2688 4750 
Q 3144 4750 3555 4637 
Q 3966 4525 4313 4306 
L 4313 3634 
Q 3963 3931 3569 4081 
Q 3175 4231 2741 4231 
Q 1884 4231 1454 3753 
Q 1025 3275 1025 2328 
Q 1025 1384 1454 906 
Q 1884 428 2741 428 
Q 3075 428 3337 486 
Q 3600 544 3809 666 
z
" transform="scale(0.015625)"/>
      <path id="DejaVuSans-2b" d="M 2944 4013 
L 2944 2272 
L 4684 2272 
L 4684 1741 
L 2944 1741 
L 2944 0 
L 2419 0 
L 2419 1741 
L 678 1741 
L 678 2272 
L 2419 2272 
L 2419 4013 
L 2944 4013 
z
" transform="scale(0.015625)"/>
      <path id="DejaVuSans-37" d="M 525 4666 
L 3525 4666 
L 3525 4397 
L 1831 0 
L 1172 0 
L 2766 4134 
L 525 4134 
L 525 4666 
z
" transform="scale(0.015625)"/>
      <path id="DejaVuSans-2f" d="M 1625 4666 
L 2156 4666 
L 531 -594 
L 0 -594 
L 1625 4666 
z
" transform="scale(0.015625)"/>
     </defs>
     <use xlink:href="#DejaVuSans-4b"/>
     <use xlink:href="#DejaVuSans-20" transform="translate(65.576172 0)"/>
     <use xlink:href="#DejaVuSans-3d" transform="translate(97.363281 0)"/>
     <use xlink:href="#DejaVuSans-20" transform="translate(181.152344 0)"/>
     <use xlink:href="#DejaVuSans-36" transform="translate(212.939453 0)"/>
     <use xlink:href="#DejaVuSans-2e" transform="translate(276.5625 0)"/>
     <use xlink:href="#DejaVuSans-32" transform="translate(308.349609 0)"/>
     <use xlink:href="#DejaVuSans-35" transform="translate(371.972656 0)"/>
     <use xlink:href="#DejaVuSans-25" transform="translate(435.595703 0)"/>
     <use xlink:href="#DejaVuSans-20" transform="translate(530.615234 0)"/>
     <use xlink:href="#DejaVuSans-2192" transform="translate(562.402344 0)"/>
     <use xlink:href="#DejaVuSans-20" transform="translate(646.191406 0)"/>
     <use xlink:href="#DejaVuSans-47" transform="translate(677.978516 0)"/>
     <use xlink:href="#DejaVuSans-20" transform="translate(755.46875 0)"/>
     <use xlink:href="#DejaVuSans-3d" transform="translate(787.255859 0)"/>
     <use xlink:href="#DejaVuSans-20" transform="translate(871.044922 0)"/>
     <use xlink:href="#DejaVuSans-2b" transform="translate(902.832031 0)"/>
     <use xlink:href="#DejaVuSans-30" transform="translate(986.621094 0)"/>
     <use xlink:href="#DejaVuSans-2e" transform="translate(1050.244141 0)"/>
     <use xlink:href="#DejaVuSans-37" transform="translate(1082.03125 0)"/>
     <use xlink:href="#DejaVuSans-34" transform="translate(1145.654297 0)"/>
     <use xlink:href="#DejaVuSans-25" transform="translate(1209.277344 0)"/>
     <use xlink:href="#DejaVuSans-2f" transform="translate(1304.296875 0)"/>
     <use xlink:href="#DejaVuSans-61" transform="translate(1337.988281 0)"/>
     <use xlink:href="#DejaVuSans-70" transform="translate(1399.267578 0)"/>
     <use xlink:href="#DejaVuSans-2e" transform="translate(1462.744141 0)"/>
    </g>
   </g>
   <g id="patch_8">
    <path d="M 557.506262 80.620836 
Q 496.966601 82.933059 438.102769 85.181277 
" style="fill: none; stroke: #ff9800; stroke-width: 1.5; stroke-linecap: round"/>
    <path d="M 447.87897 89.611389 
L 438.102769 85.181277 
L 447.512579 80.018384 
" style="fill: none; stroke: #ff9800; stroke-width: 1.5; stroke-linecap: round"/>
   </g>
   <g id="text_10">
    <!-- K = 12.5% → G = +0.12%/ap. -->
    <g style="fill: #ff9800" transform="translate(561.504871 80.240914) scale(0.24 -0.24)">
     <use xlink:href="#DejaVuSans-4b"/>
     <use xlink:href="#DejaVuSans-20" transform="translate(65.576172 0)"/>
     <use xlink:href="#DejaVuSans-3d" transform="translate(97.363281 0)"/>
     <use xlink:href="#DejaVuSans-20" transform="translate(181.152344 0)"/>
     <use xlink:href="#DejaVuSans-31" transform="translate(212.939453 0)"/>
     <use xlink:href="#DejaVuSans-32" transform="translate(276.5625 0)"/>
     <use xlink:href="#DejaVuSans-2e" transform="translate(340.185547 0)"/>
     <use xlink:href="#DejaVuSans-35" transform="translate(371.972656 0)"/>
     <use xlink:href="#DejaVuSans-25" transform="translate(435.595703 0)"/>
     <use xlink:href="#DejaVuSans-20" transform="translate(530.615234 0)"/>
     <use xlink:href="#DejaVuSans-2192" transform="translate(562.402344 0)"/>
     <use xlink:href="#DejaVuSans-20" transform="translate(646.191406 0)"/>
     <use xlink:href="#DejaVuSans-47" transform="translate(677.978516 0)"/>
     <use xlink:href="#DejaVuSans-20" transform="translate(755.46875 0)"/>
     <use xlink:href="#DejaVuSans-3d" transform="translate(787.255859 0)"/>
     <use xlink:href="#DejaVuSans-20" transform="translate(871.044922 0)"/>
     <use xlink:href="#DejaVuSans-2b" transform="translate(902.832031 0)"/>
     <use xlink:href="#DejaVuSans-30" transform="translate(986.621094 0)"/>
     <use xlink:href="#DejaVuSans-2e" transform="translate(1050.244141 0)"/>
     <use xlink:href="#DejaVuSans-31" transform="translate(1082.03125 0)"/>
     <use xlink:href="#DejaVuSans-32" transform="translate(1145.654297 0)"/>
     <use xlink:href="#DejaVuSans-25" transform="translate(1209.277344 0)"/>
     <use xlink:href="#DejaVuSans-2f" transform="translate(1304.296875 0)"/>
     <use xlink:href="#DejaVuSans-61" transform="translate(1337.988281 0)"/>
     <use xlink:href="#DejaVuSans-70" transform="translate(1399.267578 0)"/>
     <use xlink:href="#DejaVuSans-2e" transform="translate(1462.744141 0)"/>
    </g>
   </g>
   <g id="patch_9">
    <path d="M 613.943492 154.667519 
Q 629.592577 182.453248 644.418686 208.77774 
" style="fill: none; stroke: #f44336; stroke-width: 1.5; stroke-linecap: round"/>
    <path d="M 643.889994 198.057643 
L 644.418686 208.77774 
L 635.525393 202.768636 
" style="fill: none; stroke: #f44336; stroke-width: 1.5; stroke-linecap: round"/>
   </g>
   <g id="text_11">
    <!-- K = 37.5% → G = −12.3%/ap. -->
    <g style="fill: #f44336" transform="translate(425.952918 145.933825) scale(0.24 -0.24)">
     <defs>
      <path id="DejaVuSans-33" d="M 2597 2516 
Q 3050 2419 3304 2112 
Q 3559 1806 3559 1356 
Q 3559 666 3084 287 
Q 2609 -91 1734 -91 
Q 1441 -91 1130 -33 
Q 819 25 488 141 
L 488 750 
Q 750 597 1062 519 
Q 1375 441 1716 441 
Q 2309 441 2620 675 
Q 2931 909 2931 1356 
Q 2931 1769 2642 2001 
Q 2353 2234 1838 2234 
L 1294 2234 
L 1294 2753 
L 1863 2753 
Q 2328 2753 2575 2939 
Q 2822 3125 2822 3475 
Q 2822 3834 2567 4026 
Q 2313 4219 1838 4219 
Q 1578 4219 1281 4162 
Q 984 4106 628 3988 
L 628 4550 
Q 988 4650 1302 4700 
Q 1616 4750 1894 4750 
Q 2613 4750 3031 4423 
Q 3450 4097 3450 3541 
Q 3450 3153 3228 2886 
Q 3006 2619 2597 2516 
z
" transform="scale(0.015625)"/>
     </defs>
     <use xlink:href="#DejaVuSans-4b"/>
     <use xlink:href="#DejaVuSans-20" transform="translate(65.576172 0)"/>
     <use xlink:href="#DejaVuSans-3d" transform="translate(97.363281 0)"/>
     <use xlink:href="#DejaVuSans-20" transform="translate(181.152344 0)"/>
     <use xlink:href="#DejaVuSans-33" transform="translate(212.939453 0)"/>
     <use xlink:href="#DejaVuSans-37" transform="translate(276.5625 0)"/>
     <use xlink:href="#DejaVuSans-2e" transform="translate(340.185547 0)"/>
     <use xlink:href="#DejaVuSans-35" transform="translate(371.972656 0)"/>
     <use xlink:href="#DejaVuSans-25" transform="translate(435.595703 0)"/>
     <use xlink:href="#DejaVuSans-20" transform="translate(530.615234 0)"/>
     <use xlink:href="#DejaVuSans-2192" transform="translate(562.402344 0)"/>
     <use xlink:href="#DejaVuSans-20" transform="translate(646.191406 0)"/>
     <use xlink:href="#DejaVuSans-47" transform="translate(677.978516 0)"/>
     <use xlink:href="#DejaVuSans-20" transform="translate(755.46875 0)"/>
     <use xlink:href="#DejaVuSans-3d" transform="translate(787.255859 0)"/>
     <use xlink:href="#DejaVuSans-20" transform="translate(871.044922 0)"/>
     <use xlink:href="#DejaVuSans-2212" transform="translate(902.832031 0)"/>
     <use xlink:href="#DejaVuSans-31" transform="translate(986.621094 0)"/>
     <use xlink:href="#DejaVuSans-32" transform="translate(1050.244141 0)"/>
     <use xlink:href="#DejaVuSans-2e" transform="translate(1113.867188 0)"/>
     <use xlink:href="#DejaVuSans-33" transform="translate(1145.654297 0)"/>
     <use xlink:href="#DejaVuSans-25" transform="translate(1209.277344 0)"/>
     <use xlink:href="#DejaVuSans-2f" transform="translate(1304.296875 0)"/>
     <use xlink:href="#DejaVuSans-61" transform="translate(1337.988281 0)"/>
     <use xlink:href="#DejaVuSans-70" transform="translate(1399.267578 0)"/>
     <use xlink:href="#DejaVuSans-2e" transform="translate(1462.744141 0)"/>
    </g>
   </g>
   <g id="text_12">
    <!-- Crecimiento esperado — c real = 25%,  dividendo = 5 -->
    <g transform="translate(7.2 37.59375) scale(0.4 -0.4)">
     <defs>
      <path id="DejaVuSans-43" d="M 4122 4306 
L 4122 3641 
Q 3803 3938 3442 4084 
Q 3081 4231 2675 4231 
Q 1875 4231 1450 3742 
Q 1025 3253 1025 2328 
Q 1025 1406 1450 917 
Q 1875 428 2675 428 
Q 3081 428 3442 575 
Q 3803 722 4122 1019 
L 4122 359 
Q 3791 134 3420 21 
Q 3050 -91 2638 -91 
Q 1578 -91 968 557 
Q 359 1206 359 2328 
Q 359 3453 968 4101 
Q 1578 4750 2638 4750 
Q 3056 4750 3426 4639 
Q 3797 4528 4122 4306 
z
" transform="scale(0.015625)"/>
      <path id="DejaVuSans-2014" d="M 313 1978 
L 6088 1978 
L 6088 1528 
L 313 1528 
L 313 1978 
z
" transform="scale(0.015625)"/>
      <path id="DejaVuSans-6c" d="M 603 4863 
L 1178 4863 
L 1178 0 
L 603 0 
L 603 4863 
z
" transform="scale(0.015625)"/>
      <path id="DejaVuSans-2c" d="M 750 794 
L 1409 794 
L 1409 256 
L 897 -744 
L 494 -744 
L 750 256 
L 750 794 
z
" transform="scale(0.015625)"/>
      <path id="DejaVuSans-76" d="M 191 3500 
L 800 3500 
L 1894 563 
L 2988 3500 
L 3597 3500 
L 2284 0 
L 1503 0 
L 191 3500 
z
" transform="scale(0.015625)"/>
     </defs>
     <use xlink:href="#DejaVuSans-43"/>
     <use xlink:href="#DejaVuSans-72" transform="translate(69.824219 0)"/>
     <use xlink:href="#DejaVuSans-65" transform="translate(108.6875 0)"/>
     <use xlink:href="#DejaVuSans-63" transform="translate(170.210938 0)"/>
     <use xlink:href="#DejaVuSans-69" transform="translate(225.191406 0)"/>
     <use xlink:href="#DejaVuSans-6d" transform="translate(252.974609 0)"/>
     <use xlink:href="#DejaVuSans-69" transform="translate(350.386719 0)"/>
     <use xlink:href="#DejaVuSans-65" transform="translate(378.169922 0)"/>
     <use xlink:href="#DejaVuSans-6e" transform="translate(439.693359 0)"/>
     <use xlink:href="#DejaVuSans-74" transform="translate(503.072266 0)"/>
     <use xlink:href="#DejaVuSans-6f" transform="translate(542.28125 0)"/>
     <use xlink:href="#DejaVuSans-20" transform="translate(603.462891 0)"/>
     <use xlink:href="#DejaVuSans-65" transform="translate(635.25 0)"/>
     <use xlink:href="#DejaVuSans-73" transform="translate(696.773438 0)"/>
     <use xlink:href="#DejaVuSans-70" transform="translate(748.873047 0)"/>
     <use xlink:href="#DejaVuSans-65" transform="translate(812.349609 0)"/>
     <use xlink:href="#DejaVuSans-72" transform="translate(873.873047 0)"/>
     <use xlink:href="#DejaVuSans-61" transform="translate(914.986328 0)"/>
     <use xlink:href="#DejaVuSans-64" transform="translate(976.265625 0)"/>
     <use xlink:href="#DejaVuSans-6f" transform="translate(1039.742188 0)"/>
     <use xlink:href="#DejaVuSans-20" transform="translate(1100.923828 0)"/>
     <use xlink:href="#DejaVuSans-2014" transform="translate(1132.710938 0)"/>
     <use xlink:href="#DejaVuSans-20" transform="translate(1232.710938 0)"/>
     <use xlink:href="#DejaVuSans-63" transform="translate(1264.498047 0)"/>
     <use xlink:href="#DejaVuSans-20" transform="translate(1319.478516 0)"/>
     <use xlink:href="#DejaVuSans-72" transform="translate(1351.265625 0)"/>
     <use xlink:href="#DejaVuSans-65" transform="translate(1390.128906 0)"/>
     <use xlink:href="#DejaVuSans-61" transform="translate(1451.652344 0)"/>
     <use xlink:href="#DejaVuSans-6c" transform="translate(1512.931641 0)"/>
     <use xlink:href="#DejaVuSans-20" transform="translate(1540.714844 0)"/>
     <use xlink:href="#DejaVuSans-3d" transform="translate(1572.501953 0)"/>
     <use xlink:href="#DejaVuSans-20" transform="translate(1656.291016 0)"/>
     <use xlink:href="#DejaVuSans-32" transform="translate(1688.078125 0)"/>
     <use xlink:href="#DejaVuSans-35" transform="translate(1751.701172 0)"/>
     <use xlink:href="#DejaVuSans-25" transform="translate(1815.324219 0)"/>
     <use xlink:href="#DejaVuSans-2c" transform="translate(1910.34375 0)"/>
     <use xlink:href="#DejaVuSans-20" transform="translate(1942.130859 0)"/>
     <use xlink:href="#DejaVuSans-20" transform="translate(1973.917969 0)"/>
     <use xlink:href="#DejaVuSans-64" transform="translate(2005.705078 0)"/>
     <use xlink:href="#DejaVuSans-69" transform="translate(2069.181641 0)"/>
     <use xlink:href="#DejaVuSans-76" transform="translate(2096.964844 0)"/>
     <use xlink:href="#DejaVuSans-69" transform="translate(2156.144531 0)"/>
     <use xlink:href="#DejaVuSans-64" transform="translate(2183.927734 0)"/>
     <use xlink:href="#DejaVuSans-65" transform="translate(2247.404297 0)"/>
     <use xlink:href="#DejaVuSans-6e" transform="translate(2308.927734 0)"/>
     <use xlink:href="#DejaVuSans-64" transform="translate(2372.306641 0)"/>
     <use xlink:href="#DejaVuSans-6f" transform="translate(2435.783203 0)"/>
     <use xlink:href="#DejaVuSans-20" transform="translate(2496.964844 0)"/>
     <use xlink:href="#DejaVuSans-3d" transform="translate(2528.751953 0)"/>
     <use xlink:href="#DejaVuSans-20" transform="translate(2612.541016 0)"/>
     <use xlink:href="#DejaVuSans-35" transform="translate(2644.328125 0)"/>
    </g>
   </g>
   <g id="line2d_15">
    <defs>
     <path id="m8b80e642e7" d="M 0 6 
C 1.591219 6 3.117479 5.367802 4.242641 4.242641 
C 5.367802 3.117479 6 1.591219 6 0 
C 6 -1.591219 5.367802 -3.117479 4.242641 -4.242641 
C 3.117479 -5.367802 1.591219 -6 0 -6 
C -1.591219 -6 -3.117479 -5.367802 -4.242641 -4.242641 
C -5.367802 -3.117479 -6 -1.591219 -6 0 
C -6 1.591219 -5.367802 3.117479 -4.242641 4.242641 
C -3.117479 5.367802 -1.591219 6 0 6 
z
" style="stroke: #4caf50"/>
    </defs>
    <g clip-path="url(#p317bd7c9ac)">
     <use xlink:href="#m8b80e642e7" x="381.474933" y="79.057827" style="fill: #4caf50; stroke: #4caf50"/>
    </g>
   </g>
   <g id="line2d_16">
    <defs>
     <path id="m329485b31b" d="M 0 6 
C 1.591219 6 3.117479 5.367802 4.242641 4.242641 
C 5.367802 3.117479 6 1.591219 6 0 
C 6 -1.591219 5.367802 -3.117479 4.242641 -4.242641 
C 3.117479 -5.367802 1.591219 -6 0 -6 
C -1.591219 -6 -3.117479 -5.367802 -4.242641 -4.242641 
C -5.367802 -3.117479 -6 -1.591219 -6 0 
C -6 1.591219 -5.367802 3.117479 -4.242641 4.242641 
C -3.117479 5.367802 -1.591219 6 0 6 
z
" style="stroke: #ff9800"/>
    </defs>
    <g clip-path="url(#p317bd7c9ac)">
     <use xlink:href="#m329485b31b" x="434.424915" y="85.321747" style="fill: #ff9800; stroke: #ff9800"/>
    </g>
   </g>
   <g id="line2d_17">
    <defs>
     <path id="m52b13100dd" d="M 0 6 
C 1.591219 6 3.117479 5.367802 4.242641 4.242641 
C 5.367802 3.117479 6 1.591219 6 0 
C 6 -1.591219 5.367802 -3.117479 4.242641 -4.242641 
C 3.117479 -5.367802 1.591219 -6 0 -6 
C -1.591219 -6 -3.117479 -5.367802 -4.242641 -4.242641 
C -5.367802 -3.117479 -6 -1.591219 -6 0 
C -6 1.591219 -5.367802 3.117479 -4.242641 4.242641 
C -3.117479 5.367802 -1.591219 6 0 6 
z
" style="stroke: #f44336"/>
    </defs>
    <g clip-path="url(#p317bd7c9ac)">
     <use xlink:href="#m52b13100dd" x="646.224841" y="211.984658" style="fill: #f44336; stroke: #f44336"/>
    </g>
   </g>
  </g>
 </g>
 <defs>
  <clipPath id="p317bd7c9ac">
   <rect x="328.524952" y="45.9125" width="440.543846" height="243.88"/>
  </clipPath>
 </defs>
</svg>
