<?xml version="1.0" encoding="utf-8" standalone="no"?>
<!DOCTYPE svg PUBLIC "-//W3C//DTD SVG 1.1//EN"
  "http://www.w3.org/Graphics/SVG/1.1/DTD/svg11.dtd">
<svg xmlns:xlink="http://www.w3.org/1999/xlink" width="1094.705pt" height="590.6025pt" viewBox="0 0 1094.705 590.6025" xmlns="http://www.w3.org/2000/svg" version="1.1">
 <metadata>
  <rdf:RDF xmlns:dc="http://purl.org/dc/elements/1.1/" xmlns:cc="http://creativecommons.org/ns#" xmlns:rdf="http://www.w3.org/1999/02/22-rdf-syntax-ns#">
   <cc:Work>
    <dc:type rdf:resource="http://purl.org/dc/dcmitype/StillImage"/>
    <dc:date>2026-03-19T11:01:22.558100</dc:date>
    <dc:format>image/svg+xml</dc:format>
    <dc:creator>
     <cc:Agent>
      <dc:title>Matplotlib v3.10.8, https://matplotlib.org/</dc:title>
     </cc:Agent>
    </dc:creator>
   </cc:Work>
  </rdf:RDF>
 </metadata>
 <defs>
  <style type="text/css">*{stroke-linejoin: round; stroke-linecap: butt}</style>
 </defs>
 <g id="figure_1">
  <g id="patch_1">
   <path d="M 0 590.6025 
L 1094.705 590.6025 
L 1094.705 0 
L 0 0 
z
" style="fill: #ffffff"/>
  </g>
  <g id="axes_1">
   <g id="patch_2">
    <path d="M 120.655 505.0725 
L 1087.505 505.0725 
L 1087.505 45.9125 
L 120.655 45.9125 
z
" style="fill: #ffffff"/>
   </g>
   <g id="FillBetweenPolyCollection_1">
    <defs>
     <path id="m4932dde0bf" d="M 364.524195 -468.163333 
L 364.524195 -468.148746 
L 366.137992 -467.802519 
L 367.751788 -467.452388 
L 369.365584 -467.098363 
L 370.979381 -466.74045 
L 372.593177 -466.378658 
L 374.206974 -466.012995 
L 375.82077 -465.643469 
L 377.434567 -465.270089 
L 379.048363 -464.892861 
L 380.662159 -464.511793 
L 382.275956 -464.126894 
L 383.889752 -463.738171 
L 385.503549 -463.34563 
L 387.117345 -462.949281 
L 388.731142 -462.549129 
L 390.344938 -462.145182 
L 391.958735 -461.737448 
L 393.572531 -461.325934 
L 395.186327 -460.910646 
L 396.800124 -460.491591 
L 398.41392 -460.068777 
L 400.027717 -459.64221 
L 401.641513 -459.211897 
L 403.25531 -458.777844 
L 404.869106 -458.340059 
L 406.482902 -457.898547 
L 408.096699 -457.453315 
L 409.710495 -457.00437 
L 411.324292 -456.551718 
L 412.938088 -456.095364 
L 414.551885 -455.635316 
L 416.165681 -455.171579 
L 417.779478 -454.70416 
L 419.393274 -454.233064 
L 421.00707 -453.758297 
L 422.620867 -453.279864 
L 424.234663 -452.797773 
L 425.84846 -452.312028 
L 427.462256 -451.822635 
L 429.076053 -451.3296 
L 430.689849 -450.832928 
L 432.303646 -450.332624 
L 433.917442 -449.828694 
L 435.531238 -449.321144 
L 437.145035 -448.809978 
L 438.758831 -448.295201 
L 440.372628 -447.776819 
L 441.986424 -447.254838 
L 443.600221 -446.72926 
L 445.214017 -446.200093 
L 446.827813 -445.66734 
L 448.44161 -445.131007 
L 450.055406 -444.591097 
L 451.669203 -444.047617 
L 453.282999 -443.50057 
L 454.896796 -442.949961 
L 456.510592 -442.395794 
L 458.124389 -441.838074 
L 459.738185 -441.276806 
L 461.351981 -440.711994 
L 462.965778 -440.143641 
L 464.579574 -439.571753 
L 466.193371 -438.996333 
L 467.807167 -438.417385 
L 469.420964 -437.834914 
L 471.03476 -437.248924 
L 472.648557 -436.659418 
L 474.262353 -436.0664 
L 475.876149 -435.469874 
L 477.489946 -434.869844 
L 479.103742 -434.266314 
L 480.717539 -433.659288 
L 482.331335 -433.048768 
L 483.945132 -432.434758 
L 485.558928 -431.817263 
L 487.172724 -431.196285 
L 488.786521 -430.571828 
L 490.400317 -429.943895 
L 492.014114 -429.31249 
L 493.62791 -428.677615 
L 495.241707 -428.039274 
L 496.855503 -427.39747 
L 498.4693 -426.752206 
L 500.083096 -426.103486 
L 501.696892 -425.451312 
L 503.310689 -424.795686 
L 504.924485 -424.136613 
L 506.538282 -423.474094 
L 508.152078 -422.808133 
L 509.765875 -422.138733 
L 511.379671 -421.465895 
L 512.993468 -420.789623 
L 514.607264 -420.109919 
L 516.22106 -419.426786 
L 517.834857 -418.740226 
L 519.448653 -418.050242 
L 521.06245 -417.356836 
L 522.676246 -416.660011 
L 524.290043 -415.959768 
L 525.903839 -415.25611 
L 527.517635 -414.549039 
L 529.131432 -413.838558 
L 530.745228 -413.124668 
L 532.359025 -412.407372 
L 533.972821 -411.686671 
L 535.586618 -410.962568 
L 537.200414 -410.235064 
L 538.814211 -409.504161 
L 540.428007 -408.769862 
L 542.041803 -408.032167 
L 543.6556 -407.29108 
L 545.269396 -406.5466 
L 546.883193 -405.798731 
L 548.496989 -405.047473 
L 550.110786 -404.292829 
L 551.724582 -403.534799 
L 553.338378 -402.773385 
L 554.952175 -402.008589 
L 556.565971 -401.240412 
L 558.179768 -400.468855 
L 559.793564 -399.69392 
L 561.407361 -398.915608 
L 563.021157 -398.13392 
L 564.634954 -397.348858 
L 566.24875 -396.560421 
L 567.862546 -395.768612 
L 569.476343 -394.973432 
L 571.090139 -394.174881 
L 572.703936 -393.372961 
L 574.317732 -392.567672 
L 575.931529 -391.759015 
L 577.545325 -390.946991 
L 579.159122 -390.131601 
L 580.772918 -389.312846 
L 582.386714 -388.490726 
L 584.000511 -387.665242 
L 585.614307 -386.836394 
L 587.228104 -386.004184 
L 588.8419 -385.168611 
L 590.455697 -384.329676 
L 592.069493 -383.48738 
L 593.683289 -382.641723 
L 595.297086 -381.792706 
L 596.910882 -380.940328 
L 598.524679 -380.08459 
L 600.138475 -379.225492 
L 601.752272 -378.363035 
L 603.366068 -377.497218 
L 604.979865 -376.628042 
L 606.593661 -375.755507 
L 608.207457 -374.879613 
L 609.821254 -374.000359 
L 611.43505 -373.117746 
L 613.048847 -372.231775 
L 614.662643 -371.342443 
L 616.27644 -370.449752 
L 617.890236 -369.553702 
L 619.504033 -368.654291 
L 621.117829 -367.75152 
L 622.731625 -366.845389 
L 624.345422 -365.935896 
L 625.959218 -365.023043 
L 627.573015 -364.106827 
L 629.186811 -363.18725 
L 630.800608 -362.264309 
L 632.414404 -361.338005 
L 634.0282 -360.408338 
L 635.641997 -359.475305 
L 637.255793 -358.538908 
L 638.86959 -357.599145 
L 640.483386 -356.656015 
L 642.097183 -355.709517 
L 643.710979 -354.759651 
L 645.324776 -353.806417 
L 646.938572 -352.849812 
L 648.552368 -351.889836 
L 650.166165 -350.926488 
L 651.779961 -349.959767 
L 653.393758 -348.989672 
L 655.007554 -348.016202 
L 656.621351 -347.039356 
L 658.235147 -346.059132 
L 659.848944 -345.075529 
L 661.46274 -344.088547 
L 663.076536 -343.098183 
L 664.690333 -342.104437 
L 666.304129 -341.107307 
L 667.917926 -340.106792 
L 669.531722 -339.102889 
L 671.145519 -338.095599 
L 672.759315 -337.084919 
L 674.373111 -336.070848 
L 675.986908 -335.053383 
L 677.600704 -334.032524 
L 679.214501 -333.008269 
L 680.828297 -331.980616 
L 682.442094 -330.949564 
L 684.05589 -329.915109 
L 685.669687 -328.877252 
L 687.283483 -327.835989 
L 688.897279 -326.79132 
L 690.511076 -325.743241 
L 692.124872 -324.691752 
L 693.738669 -323.636849 
L 695.352465 -322.578532 
L 696.966262 -321.516797 
L 698.580058 -320.451643 
L 700.193855 -319.383068 
L 701.807651 -318.311069 
L 703.421447 -317.235644 
L 705.035244 -316.156791 
L 706.64904 -315.074508 
L 708.262837 -313.988791 
L 709.876633 -312.89964 
L 711.49043 -311.807051 
L 713.104226 -310.711022 
L 714.718022 -309.61155 
L 716.331819 -308.508633 
L 717.945615 -307.402268 
L 719.559412 -306.292452 
L 721.173208 -305.179184 
L 722.787005 -304.06246 
L 724.400801 -302.942277 
L 726.014598 -301.818634 
L 727.628394 -300.691526 
L 729.24219 -299.560951 
L 730.855987 -298.426906 
L 732.469783 -297.289388 
L 734.08358 -296.148395 
L 735.697376 -295.003923 
L 737.311173 -293.855969 
L 738.924969 -292.70453 
L 740.538765 -291.549603 
L 742.152562 -290.391185 
L 743.766358 -289.229272 
L 745.380155 -288.063862 
L 746.993951 -286.894951 
L 748.607748 -285.722536 
L 750.221544 -284.546613 
L 751.835341 -283.367179 
L 753.449137 -282.18423 
L 755.062933 -280.997764 
L 756.67673 -279.807776 
L 758.290526 -278.614264 
L 759.904323 -277.417222 
L 761.518119 -276.216649 
L 763.131916 -275.012539 
L 764.745712 -273.80489 
L 766.359509 -272.593698 
L 767.973305 -271.378958 
L 769.587101 -270.160668 
L 771.200898 -268.938822 
L 772.814694 -267.713418 
L 774.428491 -266.484451 
L 776.042287 -265.251918 
L 777.656084 -264.015814 
L 779.26988 -262.776134 
L 780.883676 -261.532876 
L 782.497473 -260.286035 
L 784.111269 -259.035607 
L 785.725066 -257.781587 
L 787.338862 -256.523971 
L 788.952659 -255.262755 
L 790.566455 -253.997935 
L 792.180252 -252.729506 
L 793.794048 -251.457464 
L 795.407844 -250.181804 
L 797.021641 -248.902521 
L 798.635437 -247.619612 
L 800.249234 -246.333072 
L 801.86303 -245.042895 
L 803.476827 -243.749077 
L 805.090623 -242.451614 
L 806.70442 -241.150501 
L 808.318216 -239.845733 
L 809.932012 -238.537305 
L 811.545809 -237.225212 
L 813.159605 -235.909449 
L 814.773402 -234.590011 
L 816.387198 -233.266894 
L 818.000995 -231.940092 
L 819.614791 -230.6096 
L 821.228587 -229.275413 
L 822.842384 -227.937526 
L 824.45618 -226.595933 
L 826.069977 -225.25063 
L 827.683773 -223.90161 
L 829.29757 -222.548869 
L 830.911366 -221.192401 
L 832.525163 -219.832201 
L 834.138959 -218.468263 
L 835.752755 -217.100582 
L 837.366552 -215.729151 
L 838.980348 -214.353967 
L 840.594145 -212.975022 
L 842.207941 -211.592311 
L 843.821738 -210.205828 
L 845.435534 -208.815568 
L 847.049331 -207.421525 
L 848.663127 -206.023692 
L 850.276923 -204.622064 
L 851.89072 -203.216635 
L 853.504516 -201.807399 
L 855.118313 -200.39435 
L 856.732109 -198.977481 
L 858.345906 -197.556787 
L 859.959702 -196.132261 
L 861.573498 -194.703897 
L 863.187295 -193.271689 
L 864.801091 -191.83563 
L 866.414888 -190.395713 
L 868.028684 -188.951934 
L 869.642481 -187.504284 
L 871.256277 -186.052758 
L 872.870074 -184.597349 
L 874.48387 -183.13805 
L 876.097666 -181.674854 
L 877.711463 -180.207756 
L 879.325259 -178.736747 
L 880.939056 -177.261822 
L 882.552852 -175.782973 
L 884.166649 -174.300193 
L 885.780445 -172.813476 
L 887.394241 -171.322814 
L 889.008038 -169.828201 
L 890.621834 -168.329629 
L 892.235631 -166.827091 
L 893.849427 -165.320579 
L 895.463224 -163.810088 
L 897.07702 -162.295608 
L 898.690817 -160.777134 
L 900.304613 -159.254657 
L 901.918409 -157.72817 
L 903.532206 -156.197665 
L 905.146002 -154.663136 
L 906.759799 -153.124573 
L 908.373595 -151.581971 
L 909.987392 -150.03532 
L 911.601188 -148.484613 
L 913.214985 -146.929843 
L 914.828781 -145.371 
L 916.442577 -143.808079 
L 918.056374 -142.241069 
L 919.67017 -140.669964 
L 921.283967 -139.094756 
L 922.897763 -137.515435 
L 924.51156 -135.931995 
L 926.125356 -134.344426 
L 927.739152 -132.75272 
L 929.352949 -131.15687 
L 930.966745 -129.556866 
L 932.580542 -127.9527 
L 934.194338 -126.344363 
L 935.808135 -124.731848 
L 937.421931 -123.115145 
L 939.035728 -121.494245 
L 940.649524 -119.86914 
L 942.26332 -118.239822 
L 943.877117 -116.60628 
L 945.490913 -114.968507 
L 947.10471 -113.326492 
L 948.718506 -111.680228 
L 950.332303 -110.029705 
L 951.946099 -108.374914 
L 953.559896 -106.715846 
L 955.173692 -105.052491 
L 956.787488 -103.38484 
L 958.401285 -101.712883 
L 960.015081 -100.036612 
L 961.628878 -98.356016 
L 963.242674 -96.671087 
L 964.856471 -94.981813 
L 966.470267 -93.288187 
L 968.084063 -91.590197 
L 969.69786 -89.887835 
L 971.311656 -88.18109 
L 972.925453 -86.469952 
L 974.539249 -84.754411 
L 976.153046 -83.034457 
L 977.766842 -81.310081 
L 979.380639 -79.581271 
L 980.994435 -77.848018 
L 982.608231 -76.110311 
L 984.222028 -74.368139 
L 985.835824 -72.621493 
L 987.449621 -70.870362 
L 989.063417 -69.114735 
L 990.677214 -67.354602 
L 992.29101 -65.589951 
L 993.904807 -63.820772 
L 995.518603 -62.047055 
L 997.132399 -60.268787 
L 998.746196 -58.485959 
L 1000.359992 -56.698559 
L 1001.973789 -54.906576 
L 1003.587585 -53.109998 
L 1005.201382 -51.308815 
L 1006.815178 -49.503016 
L 1008.428974 -47.692587 
L 1010.042771 -45.87752 
L 1011.656567 -44.0578 
L 1013.270364 -42.233418 
L 1014.88416 -40.404361 
L 1016.497957 -38.570618 
L 1018.111753 -36.732176 
L 1019.72555 -34.889024 
L 1021.339346 -33.04115 
L 1022.953142 -31.188541 
L 1024.566939 -29.331186 
L 1026.180735 -27.469073 
L 1027.794532 -25.602188 
L 1029.408328 -23.73052 
L 1031.022125 -21.854056 
L 1032.635921 -19.972784 
L 1034.249717 -18.08669 
L 1035.863514 -16.195763 
L 1037.47731 -14.29999 
L 1039.091107 -12.399358 
L 1040.704903 -10.493853 
L 1042.3187 -8.583463 
L 1043.932496 -6.668175 
L 1045.546293 -4.747975 
L 1047.160089 -2.822851 
L 1048.773885 -0.892789 
L 1050.387682 1.042225 
L 1052.001478 2.982203 
L 1053.615275 4.92716 
L 1055.229071 6.877109 
L 1056.842868 8.832064 
L 1058.456664 10.792039 
L 1060.070461 12.757047 
L 1061.684257 14.727103 
L 1063.298053 16.702221 
L 1064.91185 18.682414 
L 1066.525646 20.667698 
L 1068.139443 22.658086 
L 1069.753239 24.653592 
L 1071.367036 26.654233 
L 1072.980832 28.660021 
L 1074.594628 30.670972 
L 1076.208425 32.687101 
L 1077.822221 34.708422 
L 1079.436018 36.73495 
L 1081.049814 38.766701 
L 1082.663611 40.80369 
L 1084.277407 42.845931 
L 1085.891204 44.893441 
L 1087.505 46.946235 
L 1087.505 -468.163333 
L 1087.505 -468.163333 
L 1085.891204 -468.163333 
L 1084.277407 -468.163333 
L 1082.663611 -468.163333 
L 1081.049814 -468.163333 
L 1079.436018 -468.163333 
L 1077.822221 -468.163333 
L 1076.208425 -468.163333 
L 1074.594628 -468.163333 
L 1072.980832 -468.163333 
L 1071.367036 -468.163333 
L 1069.753239 -468.163333 
L 1068.139443 -468.163333 
L 1066.525646 -468.163333 
L 1064.91185 -468.163333 
L 1063.298053 -468.163333 
L 1061.684257 -468.163333 
L 1060.070461 -468.163333 
L 1058.456664 -468.163333 
L 1056.842868 -468.163333 
L 1055.229071 -468.163333 
L 1053.615275 -468.163333 
L 1052.001478 -468.163333 
L 1050.387682 -468.163333 
L 1048.773885 -468.163333 
L 1047.160089 -468.163333 
L 1045.546293 -468.163333 
L 1043.932496 -468.163333 
L 1042.3187 -468.163333 
L 1040.704903 -468.163333 
L 1039.091107 -468.163333 
L 1037.47731 -468.163333 
L 1035.863514 -468.163333 
L 1034.249717 -468.163333 
L 1032.635921 -468.163333 
L 1031.022125 -468.163333 
L 1029.408328 -468.163333 
L 1027.794532 -468.163333 
L 1026.180735 -468.163333 
L 1024.566939 -468.163333 
L 1022.953142 -468.163333 
L 1021.339346 -468.163333 
L 1019.72555 -468.163333 
L 1018.111753 -468.163333 
L 1016.497957 -468.163333 
L 1014.88416 -468.163333 
L 1013.270364 -468.163333 
L 1011.656567 -468.163333 
L 1010.042771 -468.163333 
L 1008.428974 -468.163333 
L 1006.815178 -468.163333 
L 1005.201382 -468.163333 
L 1003.587585 -468.163333 
L 1001.973789 -468.163333 
L 1000.359992 -468.163333 
L 998.746196 -468.163333 
L 997.132399 -468.163333 
L 995.518603 -468.163333 
L 993.904807 -468.163333 
L 992.29101 -468.163333 
L 990.677214 -468.163333 
L 989.063417 -468.163333 
L 987.449621 -468.163333 
L 985.835824 -468.163333 
L 984.222028 -468.163333 
L 982.608231 -468.163333 
L 980.994435 -468.163333 
L 979.380639 -468.163333 
L 977.766842 -468.163333 
L 976.153046 -468.163333 
L 974.539249 -468.163333 
L 972.925453 -468.163333 
L 971.311656 -468.163333 
L 969.69786 -468.163333 
L 968.084063 -468.163333 
L 966.470267 -468.163333 
L 964.856471 -468.163333 
L 963.242674 -468.163333 
L 961.628878 -468.163333 
L 960.015081 -468.163333 
L 958.401285 -468.163333 
L 956.787488 -468.163333 
L 955.173692 -468.163333 
L 953.559896 -468.163333 
L 951.946099 -468.163333 
L 950.332303 -468.163333 
L 948.718506 -468.163333 
L 947.10471 -468.163333 
L 945.490913 -468.163333 
L 943.877117 -468.163333 
L 942.26332 -468.163333 
L 940.649524 -468.163333 
L 939.035728 -468.163333 
L 937.421931 -468.163333 
L 935.808135 -468.163333 
L 934.194338 -468.163333 
L 932.580542 -468.163333 
L 930.966745 -468.163333 
L 929.352949 -468.163333 
L 927.739152 -468.163333 
L 926.125356 -468.163333 
L 924.51156 -468.163333 
L 922.897763 -468.163333 
L 921.283967 -468.163333 
L 919.67017 -468.163333 
L 918.056374 -468.163333 
L 916.442577 -468.163333 
L 914.828781 -468.163333 
L 913.214985 -468.163333 
L 911.601188 -468.163333 
L 909.987392 -468.163333 
L 908.373595 -468.163333 
L 906.759799 -468.163333 
L 905.146002 -468.163333 
L 903.532206 -468.163333 
L 901.918409 -468.163333 
L 900.304613 -468.163333 
L 898.690817 -468.163333 
L 897.07702 -468.163333 
L 895.463224 -468.163333 
L 893.849427 -468.163333 
L 892.235631 -468.163333 
L 890.621834 -468.163333 
L 889.008038 -468.163333 
L 887.394241 -468.163333 
L 885.780445 -468.163333 
L 884.166649 -468.163333 
L 882.552852 -468.163333 
L 880.939056 -468.163333 
L 879.325259 -468.163333 
L 877.711463 -468.163333 
L 876.097666 -468.163333 
L 874.48387 -468.163333 
L 872.870074 -468.163333 
L 871.256277 -468.163333 
L 869.642481 -468.163333 
L 868.028684 -468.163333 
L 866.414888 -468.163333 
L 864.801091 -468.163333 
L 863.187295 -468.163333 
L 861.573498 -468.163333 
L 859.959702 -468.163333 
L 858.345906 -468.163333 
L 856.732109 -468.163333 
L 855.118313 -468.163333 
L 853.504516 -468.163333 
L 851.89072 -468.163333 
L 850.276923 -468.163333 
L 848.663127 -468.163333 
L 847.049331 -468.163333 
L 845.435534 -468.163333 
L 843.821738 -468.163333 
L 842.207941 -468.163333 
L 840.594145 -468.163333 
L 838.980348 -468.163333 
L 837.366552 -468.163333 
L 835.752755 -468.163333 
L 834.138959 -468.163333 
L 832.525163 -468.163333 
L 830.911366 -468.163333 
L 829.29757 -468.163333 
L 827.683773 -468.163333 
L 826.069977 -468.163333 
L 824.45618 -468.163333 
L 822.842384 -468.163333 
L 821.228587 -468.163333 
L 819.614791 -468.163333 
L 818.000995 -468.163333 
L 816.387198 -468.163333 
L 814.773402 -468.163333 
L 813.159605 -468.163333 
L 811.545809 -468.163333 
L 809.932012 -468.163333 
L 808.318216 -468.163333 
L 806.70442 -468.163333 
L 805.090623 -468.163333 
L 803.476827 -468.163333 
L 801.86303 -468.163333 
L 800.249234 -468.163333 
L 798.635437 -468.163333 
L 797.021641 -468.163333 
L 795.407844 -468.163333 
L 793.794048 -468.163333 
L 792.180252 -468.163333 
L 790.566455 -468.163333 
L 788.952659 -468.163333 
L 787.338862 -468.163333 
L 785.725066 -468.163333 
L 784.111269 -468.163333 
L 782.497473 -468.163333 
L 780.883676 -468.163333 
L 779.26988 -468.163333 
L 777.656084 -468.163333 
L 776.042287 -468.163333 
L 774.428491 -468.163333 
L 772.814694 -468.163333 
L 771.200898 -468.163333 
L 769.587101 -468.163333 
L 767.973305 -468.163333 
L 766.359509 -468.163333 
L 764.745712 -468.163333 
L 763.131916 -468.163333 
L 761.518119 -468.163333 
L 759.904323 -468.163333 
L 758.290526 -468.163333 
L 756.67673 -468.163333 
L 755.062933 -468.163333 
L 753.449137 -468.163333 
L 751.835341 -468.163333 
L 750.221544 -468.163333 
L 748.607748 -468.163333 
L 746.993951 -468.163333 
L 745.380155 -468.163333 
L 743.766358 -468.163333 
L 742.152562 -468.163333 
L 740.538765 -468.163333 
L 738.924969 -468.163333 
L 737.311173 -468.163333 
L 735.697376 -468.163333 
L 734.08358 -468.163333 
L 732.469783 -468.163333 
L 730.855987 -468.163333 
L 729.24219 -468.163333 
L 727.628394 -468.163333 
L 726.014598 -468.163333 
L 724.400801 -468.163333 
L 722.787005 -468.163333 
L 721.173208 -468.163333 
L 719.559412 -468.163333 
L 717.945615 -468.163333 
L 716.331819 -468.163333 
L 714.718022 -468.163333 
L 713.104226 -468.163333 
L 711.49043 -468.163333 
L 709.876633 -468.163333 
L 708.262837 -468.163333 
L 706.64904 -468.163333 
L 705.035244 -468.163333 
L 703.421447 -468.163333 
L 701.807651 -468.163333 
L 700.193855 -468.163333 
L 698.580058 -468.163333 
L 696.966262 -468.163333 
L 695.352465 -468.163333 
L 693.738669 -468.163333 
L 692.124872 -468.163333 
L 690.511076 -468.163333 
L 688.897279 -468.163333 
L 687.283483 -468.163333 
L 685.669687 -468.163333 
L 684.05589 -468.163333 
L 682.442094 -468.163333 
L 680.828297 -468.163333 
L 679.214501 -468.163333 
L 677.600704 -468.163333 
L 675.986908 -468.163333 
L 674.373111 -468.163333 
L 672.759315 -468.163333 
L 671.145519 -468.163333 
L 669.531722 -468.163333 
L 667.917926 -468.163333 
L 666.304129 -468.163333 
L 664.690333 -468.163333 
L 663.076536 -468.163333 
L 661.46274 -468.163333 
L 659.848944 -468.163333 
L 658.235147 -468.163333 
L 656.621351 -468.163333 
L 655.007554 -468.163333 
L 653.393758 -468.163333 
L 651.779961 -468.163333 
L 650.166165 -468.163333 
L 648.552368 -468.163333 
L 646.938572 -468.163333 
L 645.324776 -468.163333 
L 643.710979 -468.163333 
L 642.097183 -468.163333 
L 640.483386 -468.163333 
L 638.86959 -468.163333 
L 637.255793 -468.163333 
L 635.641997 -468.163333 
L 634.0282 -468.163333 
L 632.414404 -468.163333 
L 630.800608 -468.163333 
L 629.186811 -468.163333 
L 627.573015 -468.163333 
L 625.959218 -468.163333 
L 624.345422 -468.163333 
L 622.731625 -468.163333 
L 621.117829 -468.163333 
L 619.504033 -468.163333 
L 617.890236 -468.163333 
L 616.27644 -468.163333 
L 614.662643 -468.163333 
L 613.048847 -468.163333 
L 611.43505 -468.163333 
L 609.821254 -468.163333 
L 608.207457 -468.163333 
L 606.593661 -468.163333 
L 604.979865 -468.163333 
L 603.366068 -468.163333 
L 601.752272 -468.163333 
L 600.138475 -468.163333 
L 598.524679 -468.163333 
L 596.910882 -468.163333 
L 595.297086 -468.163333 
L 593.683289 -468.163333 
L 592.069493 -468.163333 
L 590.455697 -468.163333 
L 588.8419 -468.163333 
L 587.228104 -468.163333 
L 585.614307 -468.163333 
L 584.000511 -468.163333 
L 582.386714 -468.163333 
L 580.772918 -468.163333 
L 579.159122 -468.163333 
L 577.545325 -468.163333 
L 575.931529 -468.163333 
L 574.317732 -468.163333 
L 572.703936 -468.163333 
L 571.090139 -468.163333 
L 569.476343 -468.163333 
L 567.862546 -468.163333 
L 566.24875 -468.163333 
L 564.634954 -468.163333 
L 563.021157 -468.163333 
L 561.407361 -468.163333 
L 559.793564 -468.163333 
L 558.179768 -468.163333 
L 556.565971 -468.163333 
L 554.952175 -468.163333 
L 553.338378 -468.163333 
L 551.724582 -468.163333 
L 550.110786 -468.163333 
L 548.496989 -468.163333 
L 546.883193 -468.163333 
L 545.269396 -468.163333 
L 543.6556 -468.163333 
L 542.041803 -468.163333 
L 540.428007 -468.163333 
L 538.814211 -468.163333 
L 537.200414 -468.163333 
L 535.586618 -468.163333 
L 533.972821 -468.163333 
L 532.359025 -468.163333 
L 530.745228 -468.163333 
L 529.131432 -468.163333 
L 527.517635 -468.163333 
L 525.903839 -468.163333 
L 524.290043 -468.163333 
L 522.676246 -468.163333 
L 521.06245 -468.163333 
L 519.448653 -468.163333 
L 517.834857 -468.163333 
L 516.22106 -468.163333 
L 514.607264 -468.163333 
L 512.993468 -468.163333 
L 511.379671 -468.163333 
L 509.765875 -468.163333 
L 508.152078 -468.163333 
L 506.538282 -468.163333 
L 504.924485 -468.163333 
L 503.310689 -468.163333 
L 501.696892 -468.163333 
L 500.083096 -468.163333 
L 498.4693 -468.163333 
L 496.855503 -468.163333 
L 495.241707 -468.163333 
L 493.62791 -468.163333 
L 492.014114 -468.163333 
L 490.400317 -468.163333 
L 488.786521 -468.163333 
L 487.172724 -468.163333 
L 485.558928 -468.163333 
L 483.945132 -468.163333 
L 482.331335 -468.163333 
L 480.717539 -468.163333 
L 479.103742 -468.163333 
L 477.489946 -468.163333 
L 475.876149 -468.163333 
L 474.262353 -468.163333 
L 472.648557 -468.163333 
L 471.03476 -468.163333 
L 469.420964 -468.163333 
L 467.807167 -468.163333 
L 466.193371 -468.163333 
L 464.579574 -468.163333 
L 462.965778 -468.163333 
L 461.351981 -468.163333 
L 459.738185 -468.163333 
L 458.124389 -468.163333 
L 456.510592 -468.163333 
L 454.896796 -468.163333 
L 453.282999 -468.163333 
L 451.669203 -468.163333 
L 450.055406 -468.163333 
L 448.44161 -468.163333 
L 446.827813 -468.163333 
L 445.214017 -468.163333 
L 443.600221 -468.163333 
L 441.986424 -468.163333 
L 440.372628 -468.163333 
L 438.758831 -468.163333 
L 437.145035 -468.163333 
L 435.531238 -468.163333 
L 433.917442 -468.163333 
L 432.303646 -468.163333 
L 430.689849 -468.163333 
L 429.076053 -468.163333 
L 427.462256 -468.163333 
L 425.84846 -468.163333 
L 424.234663 -468.163333 
L 422.620867 -468.163333 
L 421.00707 -468.163333 
L 419.393274 -468.163333 
L 417.779478 -468.163333 
L 416.165681 -468.163333 
L 414.551885 -468.163333 
L 412.938088 -468.163333 
L 411.324292 -468.163333 
L 409.710495 -468.163333 
L 408.096699 -468.163333 
L 406.482902 -468.163333 
L 404.869106 -468.163333 
L 403.25531 -468.163333 
L 401.641513 -468.163333 
L 400.027717 -468.163333 
L 398.41392 -468.163333 
L 396.800124 -468.163333 
L 395.186327 -468.163333 
L 393.572531 -468.163333 
L 391.958735 -468.163333 
L 390.344938 -468.163333 
L 388.731142 -468.163333 
L 387.117345 -468.163333 
L 385.503549 -468.163333 
L 383.889752 -468.163333 
L 382.275956 -468.163333 
L 380.662159 -468.163333 
L 379.048363 -468.163333 
L 377.434567 -468.163333 
L 375.82077 -468.163333 
L 374.206974 -468.163333 
L 372.593177 -468.163333 
L 370.979381 -468.163333 
L 369.365584 -468.163333 
L 367.751788 -468.163333 
L 366.137992 -468.163333 
L 364.524195 -468.163333 
z
" style="stroke: #ff0000; stroke-opacity: 0.12"/>
    </defs>
    <g clip-path="url(#p127647afc9)">
     <use xlink:href="#m4932dde0bf" x="0" y="590.6025" style="fill: #ff0000; fill-opacity: 0.12; stroke: #ff0000; stroke-opacity: 0.12"/>
    </g>
   </g>
   <g id="FillBetweenPolyCollection_2">
    <defs>
     <path id="mb94c6a18b8" d="M 120.840933 -468.163333 
L 120.840933 -468.211117 
L 122.454729 -468.622046 
L 124.068526 -469.026171 
L 125.682322 -469.42353 
L 127.296118 -469.814159 
L 128.909915 -470.198096 
L 130.523711 -470.575378 
L 132.137508 -470.946038 
L 133.751304 -471.310114 
L 135.365101 -471.66764 
L 136.978897 -472.018651 
L 138.592694 -472.363182 
L 140.20649 -472.701266 
L 141.820286 -473.032936 
L 143.434083 -473.358227 
L 145.047879 -473.677172 
L 146.661676 -473.989801 
L 148.275472 -474.296149 
L 149.889269 -474.596246 
L 151.503065 -474.890125 
L 153.116861 -475.177816 
L 154.730658 -475.459351 
L 156.344454 -475.734759 
L 157.958251 -476.004072 
L 159.572047 -476.267318 
L 161.185844 -476.524529 
L 162.79964 -476.775732 
L 164.413437 -477.020957 
L 166.027233 -477.260233 
L 167.641029 -477.493588 
L 169.254826 -477.72105 
L 170.868622 -477.942647 
L 172.482419 -478.158407 
L 174.096215 -478.368356 
L 175.710012 -478.572523 
L 177.323808 -478.770932 
L 178.937605 -478.963612 
L 180.551401 -479.150587 
L 182.165197 -479.331884 
L 183.778994 -479.507529 
L 185.39279 -479.677547 
L 187.006587 -479.841963 
L 188.620383 -480.000801 
L 190.23418 -480.154087 
L 191.847976 -480.301845 
L 193.461772 -480.444099 
L 195.075569 -480.580873 
L 196.689365 -480.71219 
L 198.303162 -480.838074 
L 199.916958 -480.958548 
L 201.530755 -481.073635 
L 203.144551 -481.183357 
L 204.758348 -481.287738 
L 206.372144 -481.386799 
L 207.98594 -481.480563 
L 209.599737 -481.56905 
L 211.213533 -481.652284 
L 212.82733 -481.730285 
L 214.441126 -481.803075 
L 216.054923 -481.870674 
L 217.668719 -481.933103 
L 219.282516 -481.990382 
L 220.896312 -482.042533 
L 222.510108 -482.089576 
L 224.123905 -482.131529 
L 225.737701 -482.168414 
L 227.351498 -482.200249 
L 228.965294 -482.227054 
L 230.579091 -482.248849 
L 232.192887 -482.265651 
L 233.806683 -482.277481 
L 235.42048 -482.284357 
L 237.034276 -482.286296 
L 238.648073 -482.283318 
L 240.261869 -482.275441 
L 241.875666 -482.262682 
L 243.489462 -482.245059 
L 245.103259 -482.222591 
L 246.717055 -482.195293 
L 248.330851 -482.163184 
L 249.944648 -482.126281 
L 251.558444 -482.0846 
L 253.172241 -482.038159 
L 254.786037 -481.986973 
L 256.399834 -481.93106 
L 258.01363 -481.870435 
L 259.627426 -481.805115 
L 261.241223 -481.735116 
L 262.855019 -481.660454 
L 264.468816 -481.581143 
L 266.082612 -481.497201 
L 267.696409 -481.408641 
L 269.310205 -481.31548 
L 270.924002 -481.217732 
L 272.537798 -481.115413 
L 274.151594 -481.008537 
L 275.765391 -480.897118 
L 277.379187 -480.781172 
L 278.992984 -480.660712 
L 280.60678 -480.535753 
L 282.220577 -480.406309 
L 283.834373 -480.272394 
L 285.44817 -480.134022 
L 287.061966 -479.991206 
L 288.675762 -479.843961 
L 290.289559 -479.692298 
L 291.903355 -479.536233 
L 293.517152 -479.375777 
L 295.130948 -479.210944 
L 296.744745 -479.041747 
L 298.358541 -478.868199 
L 299.972337 -478.690313 
L 301.586134 -478.5081 
L 303.19993 -478.321574 
L 304.813727 -478.130746 
L 306.427523 -477.935629 
L 308.04132 -477.736235 
L 309.655116 -477.532576 
L 311.268913 -477.324664 
L 312.882709 -477.112511 
L 314.496505 -476.896128 
L 316.110302 -476.675526 
L 317.724098 -476.450717 
L 319.337895 -476.221713 
L 320.951691 -475.988525 
L 322.565488 -475.751163 
L 324.179284 -475.509638 
L 325.793081 -475.263962 
L 327.406877 -475.014146 
L 329.020673 -474.760199 
L 330.63447 -474.502133 
L 332.248266 -474.239957 
L 333.862063 -473.973683 
L 335.475859 -473.70332 
L 337.089656 -473.428879 
L 338.703452 -473.150369 
L 340.317248 -472.867802 
L 341.931045 -472.581185 
L 343.544841 -472.29053 
L 345.158638 -471.995845 
L 346.772434 -471.697141 
L 348.386231 -471.394427 
L 350.000027 -471.087712 
L 351.613824 -470.777006 
L 353.22762 -470.462317 
L 354.841416 -470.143656 
L 356.455213 -469.82103 
L 358.069009 -469.494448 
L 359.682806 -469.163921 
L 361.296602 -468.829455 
L 362.910399 -468.491061 
L 362.910399 -468.163333 
L 362.910399 -468.163333 
L 361.296602 -468.163333 
L 359.682806 -468.163333 
L 358.069009 -468.163333 
L 356.455213 -468.163333 
L 354.841416 -468.163333 
L 353.22762 -468.163333 
L 351.613824 -468.163333 
L 350.000027 -468.163333 
L 348.386231 -468.163333 
L 346.772434 -468.163333 
L 345.158638 -468.163333 
L 343.544841 -468.163333 
L 341.931045 -468.163333 
L 340.317248 -468.163333 
L 338.703452 -468.163333 
L 337.089656 -468.163333 
L 335.475859 -468.163333 
L 333.862063 -468.163333 
L 332.248266 -468.163333 
L 330.63447 -468.163333 
L 329.020673 -468.163333 
L 327.406877 -468.163333 
L 325.793081 -468.163333 
L 324.179284 -468.163333 
L 322.565488 -468.163333 
L 320.951691 -468.163333 
L 319.337895 -468.163333 
L 317.724098 -468.163333 
L 316.110302 -468.163333 
L 314.496505 -468.163333 
L 312.882709 -468.163333 
L 311.268913 -468.163333 
L 309.655116 -468.163333 
L 308.04132 -468.163333 
L 306.427523 -468.163333 
L 304.813727 -468.163333 
L 303.19993 -468.163333 
L 301.586134 -468.163333 
L 299.972337 -468.163333 
L 298.358541 -468.163333 
L 296.744745 -468.163333 
L 295.130948 -468.163333 
L 293.517152 -468.163333 
L 291.903355 -468.163333 
L 290.289559 -468.163333 
L 288.675762 -468.163333 
L 287.061966 -468.163333 
L 285.44817 -468.163333 
L 283.834373 -468.163333 
L 282.220577 -468.163333 
L 280.60678 -468.163333 
L 278.992984 -468.163333 
L 277.379187 -468.163333 
L 275.765391 -468.163333 
L 274.151594 -468.163333 
L 272.537798 -468.163333 
L 270.924002 -468.163333 
L 269.310205 -468.163333 
L 267.696409 -468.163333 
L 266.082612 -468.163333 
L 264.468816 -468.163333 
L 262.855019 -468.163333 
L 261.241223 -468.163333 
L 259.627426 -468.163333 
L 258.01363 -468.163333 
L 256.399834 -468.163333 
L 254.786037 -468.163333 
L 253.172241 -468.163333 
L 251.558444 -468.163333 
L 249.944648 -468.163333 
L 248.330851 -468.163333 
L 246.717055 -468.163333 
L 245.103259 -468.163333 
L 243.489462 -468.163333 
L 241.875666 -468.163333 
L 240.261869 -468.163333 
L 238.648073 -468.163333 
L 237.034276 -468.163333 
L 235.42048 -468.163333 
L 233.806683 -468.163333 
L 232.192887 -468.163333 
L 230.579091 -468.163333 
L 228.965294 -468.163333 
L 227.351498 -468.163333 
L 225.737701 -468.163333 
L 224.123905 -468.163333 
L 222.510108 -468.163333 
L 220.896312 -468.163333 
L 219.282516 -468.163333 
L 217.668719 -468.163333 
L 216.054923 -468.163333 
L 214.441126 -468.163333 
L 212.82733 -468.163333 
L 211.213533 -468.163333 
L 209.599737 -468.163333 
L 207.98594 -468.163333 
L 206.372144 -468.163333 
L 204.758348 -468.163333 
L 203.144551 -468.163333 
L 201.530755 -468.163333 
L 199.916958 -468.163333 
L 198.303162 -468.163333 
L 196.689365 -468.163333 
L 195.075569 -468.163333 
L 193.461772 -468.163333 
L 191.847976 -468.163333 
L 190.23418 -468.163333 
L 188.620383 -468.163333 
L 187.006587 -468.163333 
L 185.39279 -468.163333 
L 183.778994 -468.163333 
L 182.165197 -468.163333 
L 180.551401 -468.163333 
L 178.937605 -468.163333 
L 177.323808 -468.163333 
L 175.710012 -468.163333 
L 174.096215 -468.163333 
L 172.482419 -468.163333 
L 170.868622 -468.163333 
L 169.254826 -468.163333 
L 167.641029 -468.163333 
L 166.027233 -468.163333 
L 164.413437 -468.163333 
L 162.79964 -468.163333 
L 161.185844 -468.163333 
L 159.572047 -468.163333 
L 157.958251 -468.163333 
L 156.344454 -468.163333 
L 154.730658 -468.163333 
L 153.116861 -468.163333 
L 151.503065 -468.163333 
L 149.889269 -468.163333 
L 148.275472 -468.163333 
L 146.661676 -468.163333 
L 145.047879 -468.163333 
L 143.434083 -468.163333 
L 141.820286 -468.163333 
L 140.20649 -468.163333 
L 138.592694 -468.163333 
L 136.978897 -468.163333 
L 135.365101 -468.163333 
L 133.751304 -468.163333 
L 132.137508 -468.163333 
L 130.523711 -468.163333 
L 128.909915 -468.163333 
L 127.296118 -468.163333 
L 125.682322 -468.163333 
L 124.068526 -468.163333 
L 122.454729 -468.163333 
L 120.840933 -468.163333 
z
" style="stroke: #008000; stroke-opacity: 0.1"/>
    </defs>
    <g clip-path="url(#p127647afc9)">
     <use xlink:href="#mb94c6a18b8" x="0" y="590.6025" style="fill: #008000; fill-opacity: 0.1; stroke: #008000; stroke-opacity: 0.1"/>
    </g>
   </g>
   <g id="matplotlib.axis_1">
    <g id="xtick_1">
     <g id="line2d_1">
      <path d="M 120.655 505.0725 
L 120.655 45.9125 
" clip-path="url(#p127647afc9)" style="fill: none; stroke: #b0b0b0; stroke-opacity: 0.3; stroke-width: 0.8; stroke-linecap: square"/>
     </g>
     <g id="line2d_2">
      <defs>
       <path id="mfacc085af9" d="M 0 0 
L 0 3.5 
" style="stroke: #000000; stroke-width: 0.8"/>
      </defs>
      <g>
       <use xlink:href="#mfacc085af9" x="120.655" y="505.0725" style="stroke: #000000; stroke-width: 0.8"/>
      </g>
     </g>
     <g id="text_1">
      <!-- 0.0 -->
      <g transform="translate(95.21 536.3875) scale(0.32 -0.32)">
       <defs>
        <path id="DejaVuSans-30" d="M 2034 4250 
Q 1547 4250 1301 3770 
Q 1056 3291 1056 2328 
Q 1056 1369 1301 889 
Q 1547 409 2034 409 
Q 2525 409 2770 889 
Q 3016 1369 3016 2328 
Q 3016 3291 2770 3770 
Q 2525 4250 2034 4250 
z
M 2034 4750 
Q 2819 4750 3233 4129 
Q 3647 3509 3647 2328 
Q 3647 1150 3233 529 
Q 2819 -91 2034 -91 
Q 1250 -91 836 529 
Q 422 1150 422 2328 
Q 422 3509 836 4129 
Q 1250 4750 2034 4750 
z
" transform="scale(0.015625)"/>
        <path id="DejaVuSans-2e" d="M 684 794 
L 1344 794 
L 1344 0 
L 684 0 
L 684 794 
z
" transform="scale(0.015625)"/>
       </defs>
       <use xlink:href="#DejaVuSans-30"/>
       <use xlink:href="#DejaVuSans-2e" transform="translate(63.623047 0)"/>
       <use xlink:href="#DejaVuSans-30" transform="translate(95.410156 0)"/>
      </g>
     </g>
    </g>
    <g id="xtick_2">
     <g id="line2d_3">
      <path d="M 306.587692 505.0725 
L 306.587692 45.9125 
" clip-path="url(#p127647afc9)" style="fill: none; stroke: #b0b0b0; stroke-opacity: 0.3; stroke-width: 0.8; stroke-linecap: square"/>
     </g>
     <g id="line2d_4">
      <g>
       <use xlink:href="#mfacc085af9" x="306.587692" y="505.0725" style="stroke: #000000; stroke-width: 0.8"/>
      </g>
     </g>
     <g id="text_2">
      <!-- 0.1 -->
      <g transform="translate(281.142692 536.3875) scale(0.32 -0.32)">
       <defs>
        <path id="DejaVuSans-31" d="M 794 531 
L 1825 531 
L 1825 4091 
L 703 3866 
L 703 4441 
L 1819 4666 
L 2450 4666 
L 2450 531 
L 3481 531 
L 3481 0 
L 794 0 
L 794 531 
z
" transform="scale(0.015625)"/>
       </defs>
       <use xlink:href="#DejaVuSans-30"/>
       <use xlink:href="#DejaVuSans-2e" transform="translate(63.623047 0)"/>
       <use xlink:href="#DejaVuSans-31" transform="translate(95.410156 0)"/>
      </g>
     </g>
    </g>
    <g id="xtick_3">
     <g id="line2d_5">
      <path d="M 492.520385 505.0725 
L 492.520385 45.9125 
" clip-path="url(#p127647afc9)" style="fill: none; stroke: #b0b0b0; stroke-opacity: 0.3; stroke-width: 0.8; stroke-linecap: square"/>
     </g>
     <g id="line2d_6">
      <g>
       <use xlink:href="#mfacc085af9" x="492.520385" y="505.0725" style="stroke: #000000; stroke-width: 0.8"/>
      </g>
     </g>
     <g id="text_3">
      <!-- 0.2 -->
      <g transform="translate(467.075385 536.3875) scale(0.32 -0.32)">
       <defs>
        <path id="DejaVuSans-32" d="M 1228 531 
L 3431 531 
L 3431 0 
L 469 0 
L 469 531 
Q 828 903 1448 1529 
Q 2069 2156 2228 2338 
Q 2531 2678 2651 2914 
Q 2772 3150 2772 3378 
Q 2772 3750 2511 3984 
Q 2250 4219 1831 4219 
Q 1534 4219 1204 4116 
Q 875 4013 500 3803 
L 500 4441 
Q 881 4594 1212 4672 
Q 1544 4750 1819 4750 
Q 2544 4750 2975 4387 
Q 3406 4025 3406 3419 
Q 3406 3131 3298 2873 
Q 3191 2616 2906 2266 
Q 2828 2175 2409 1742 
Q 1991 1309 1228 531 
z
" transform="scale(0.015625)"/>
       </defs>
       <use xlink:href="#DejaVuSans-30"/>
       <use xlink:href="#DejaVuSans-2e" transform="translate(63.623047 0)"/>
       <use xlink:href="#DejaVuSans-32" transform="translate(95.410156 0)"/>
      </g>
     </g>
    </g>
    <g id="xtick_4">
     <g id="line2d_7">
      <path d="M 678.453077 505.0725 
L 678.453077 45.9125 
" clip-path="url(#p127647afc9)" style="fill: none; stroke: #b0b0b0; stroke-opacity: 0.3; stroke-width: 0.8; stroke-linecap: square"/>
     </g>
     <g id="line2d_8">
      <g>
       <use xlink:href="#mfacc085af9" x="678.453077" y="505.0725" style="stroke: #000000; stroke-width: 0.8"/>
      </g>
     </g>
     <g id="text_4">
      <!-- 0.3 -->
      <g transform="translate(653.008077 536.3875) scale(0.32 -0.32)">
       <defs>
        <path id="DejaVuSans-33" d="M 2597 2516 
Q 3050 2419 3304 2112 
Q 3559 1806 3559 1356 
Q 3559 666 3084 287 
Q 2609 -91 1734 -91 
Q 1441 -91 1130 -33 
Q 819 25 488 141 
L 488 750 
Q 750 597 1062 519 
Q 1375 441 1716 441 
Q 2309 441 2620 675 
Q 2931 909 2931 1356 
Q 2931 1769 2642 2001 
Q 2353 2234 1838 2234 
L 1294 2234 
L 1294 2753 
L 1863 2753 
Q 2328 2753 2575 2939 
Q 2822 3125 2822 3475 
Q 2822 3834 2567 4026 
Q 2313 4219 1838 4219 
Q 1578 4219 1281 4162 
Q 984 4106 628 3988 
L 628 4550 
Q 988 4650 1302 4700 
Q 1616 4750 1894 4750 
Q 2613 4750 3031 4423 
Q 3450 4097 3450 3541 
Q 3450 3153 3228 2886 
Q 3006 2619 2597 2516 
z
" transform="scale(0.015625)"/>
       </defs>
       <use xlink:href="#DejaVuSans-30"/>
       <use xlink:href="#DejaVuSans-2e" transform="translate(63.623047 0)"/>
       <use xlink:href="#DejaVuSans-33" transform="translate(95.410156 0)"/>
      </g>
     </g>
    </g>
    <g id="xtick_5">
     <g id="line2d_9">
      <path d="M 864.385769 505.0725 
L 864.385769 45.9125 
" clip-path="url(#p127647afc9)" style="fill: none; stroke: #b0b0b0; stroke-opacity: 0.3; stroke-width: 0.8; stroke-linecap: square"/>
     </g>
     <g id="line2d_10">
      <g>
       <use xlink:href="#mfacc085af9" x="864.385769" y="505.0725" style="stroke: #000000; stroke-width: 0.8"/>
      </g>
     </g>
     <g id="text_5">
      <!-- 0.4 -->
      <g transform="translate(838.940769 536.3875) scale(0.32 -0.32)">
       <defs>
        <path id="DejaVuSans-34" d="M 2419 4116 
L 825 1625 
L 2419 1625 
L 2419 4116 
z
M 2253 4666 
L 3047 4666 
L 3047 1625 
L 3713 1625 
L 3713 1100 
L 3047 1100 
L 3047 0 
L 2419 0 
L 2419 1100 
L 313 1100 
L 313 1709 
L 2253 4666 
z
" transform="scale(0.015625)"/>
       </defs>
       <use xlink:href="#DejaVuSans-30"/>
       <use xlink:href="#DejaVuSans-2e" transform="translate(63.623047 0)"/>
       <use xlink:href="#DejaVuSans-34" transform="translate(95.410156 0)"/>
      </g>
     </g>
    </g>
    <g id="xtick_6">
     <g id="line2d_11">
      <path d="M 1050.318462 505.0725 
L 1050.318462 45.9125 
" clip-path="url(#p127647afc9)" style="fill: none; stroke: #b0b0b0; stroke-opacity: 0.3; stroke-width: 0.8; stroke-linecap: square"/>
     </g>
     <g id="line2d_12">
      <g>
       <use xlink:href="#mfacc085af9" x="1050.318462" y="505.0725" style="stroke: #000000; stroke-width: 0.8"/>
      </g>
     </g>
     <g id="text_6">
      <!-- 0.5 -->
      <g transform="translate(1024.873462 536.3875) scale(0.32 -0.32)">
       <defs>
        <path id="DejaVuSans-35" d="M 691 4666 
L 3169 4666 
L 3169 4134 
L 1269 4134 
L 1269 2991 
Q 1406 3038 1543 3061 
Q 1681 3084 1819 3084 
Q 2600 3084 3056 2656 
Q 3513 2228 3513 1497 
Q 3513 744 3044 326 
Q 2575 -91 1722 -91 
Q 1428 -91 1123 -41 
Q 819 9 494 109 
L 494 744 
Q 775 591 1075 516 
Q 1375 441 1709 441 
Q 2250 441 2565 725 
Q 2881 1009 2881 1497 
Q 2881 1984 2565 2268 
Q 2250 2553 1709 2553 
Q 1456 2553 1204 2497 
Q 953 2441 691 2322 
L 691 4666 
z
" transform="scale(0.015625)"/>
       </defs>
       <use xlink:href="#DejaVuSans-30"/>
       <use xlink:href="#DejaVuSans-2e" transform="translate(63.623047 0)"/>
       <use xlink:href="#DejaVuSans-35" transform="translate(95.410156 0)"/>
      </g>
     </g>
    </g>
    <g id="text_7">
     <!-- Fracción apostada $K$ -->
     <g transform="translate(421.38 575.8425) scale(0.36 -0.36)">
      <defs>
       <path id="DejaVuSans-46" d="M 628 4666 
L 3309 4666 
L 3309 4134 
L 1259 4134 
L 1259 2759 
L 3109 2759 
L 3109 2228 
L 1259 2228 
L 1259 0 
L 628 0 
L 628 4666 
z
" transform="scale(0.015625)"/>
       <path id="DejaVuSans-72" d="M 2631 2963 
Q 2534 3019 2420 3045 
Q 2306 3072 2169 3072 
Q 1681 3072 1420 2755 
Q 1159 2438 1159 1844 
L 1159 0 
L 581 0 
L 581 3500 
L 1159 3500 
L 1159 2956 
Q 1341 3275 1631 3429 
Q 1922 3584 2338 3584 
Q 2397 3584 2469 3576 
Q 2541 3569 2628 3553 
L 2631 2963 
z
" transform="scale(0.015625)"/>
       <path id="DejaVuSans-61" d="M 2194 1759 
Q 1497 1759 1228 1600 
Q 959 1441 959 1056 
Q 959 750 1161 570 
Q 1363 391 1709 391 
Q 2188 391 2477 730 
Q 2766 1069 2766 1631 
L 2766 1759 
L 2194 1759 
z
M 3341 1997 
L 3341 0 
L 2766 0 
L 2766 531 
Q 2569 213 2275 61 
Q 1981 -91 1556 -91 
Q 1019 -91 701 211 
Q 384 513 384 1019 
Q 384 1609 779 1909 
Q 1175 2209 1959 2209 
L 2766 2209 
L 2766 2266 
Q 2766 2663 2505 2880 
Q 2244 3097 1772 3097 
Q 1472 3097 1187 3025 
Q 903 2953 641 2809 
L 641 3341 
Q 956 3463 1253 3523 
Q 1550 3584 1831 3584 
Q 2591 3584 2966 3190 
Q 3341 2797 3341 1997 
z
" transform="scale(0.015625)"/>
       <path id="DejaVuSans-63" d="M 3122 3366 
L 3122 2828 
Q 2878 2963 2633 3030 
Q 2388 3097 2138 3097 
Q 1578 3097 1268 2742 
Q 959 2388 959 1747 
Q 959 1106 1268 751 
Q 1578 397 2138 397 
Q 2388 397 2633 464 
Q 2878 531 3122 666 
L 3122 134 
Q 2881 22 2623 -34 
Q 2366 -91 2075 -91 
Q 1284 -91 818 406 
Q 353 903 353 1747 
Q 353 2603 823 3093 
Q 1294 3584 2113 3584 
Q 2378 3584 2631 3529 
Q 2884 3475 3122 3366 
z
" transform="scale(0.015625)"/>
       <path id="DejaVuSans-69" d="M 603 3500 
L 1178 3500 
L 1178 0 
L 603 0 
L 603 3500 
z
M 603 4863 
L 1178 4863 
L 1178 4134 
L 603 4134 
L 603 4863 
z
" transform="scale(0.015625)"/>
       <path id="DejaVuSans-f3" d="M 1959 3097 
Q 1497 3097 1228 2736 
Q 959 2375 959 1747 
Q 959 1119 1226 758 
Q 1494 397 1959 397 
Q 2419 397 2687 759 
Q 2956 1122 2956 1747 
Q 2956 2369 2687 2733 
Q 2419 3097 1959 3097 
z
M 1959 3584 
Q 2709 3584 3137 3096 
Q 3566 2609 3566 1747 
Q 3566 888 3137 398 
Q 2709 -91 1959 -91 
Q 1206 -91 779 398 
Q 353 888 353 1747 
Q 353 2609 779 3096 
Q 1206 3584 1959 3584 
z
M 2394 5119 
L 3016 5119 
L 1998 3944 
L 1519 3944 
L 2394 5119 
z
" transform="scale(0.015625)"/>
       <path id="DejaVuSans-6e" d="M 3513 2113 
L 3513 0 
L 2938 0 
L 2938 2094 
Q 2938 2591 2744 2837 
Q 2550 3084 2163 3084 
Q 1697 3084 1428 2787 
Q 1159 2491 1159 1978 
L 1159 0 
L 581 0 
L 581 3500 
L 1159 3500 
L 1159 2956 
Q 1366 3272 1645 3428 
Q 1925 3584 2291 3584 
Q 2894 3584 3203 3211 
Q 3513 2838 3513 2113 
z
" transform="scale(0.015625)"/>
       <path id="DejaVuSans-20" transform="scale(0.015625)"/>
       <path id="DejaVuSans-70" d="M 1159 525 
L 1159 -1331 
L 581 -1331 
L 581 3500 
L 1159 3500 
L 1159 2969 
Q 1341 3281 1617 3432 
Q 1894 3584 2278 3584 
Q 2916 3584 3314 3078 
Q 3713 2572 3713 1747 
Q 3713 922 3314 415 
Q 2916 -91 2278 -91 
Q 1894 -91 1617 61 
Q 1341 213 1159 525 
z
M 3116 1747 
Q 3116 2381 2855 2742 
Q 2594 3103 2138 3103 
Q 1681 3103 1420 2742 
Q 1159 2381 1159 1747 
Q 1159 1113 1420 752 
Q 1681 391 2138 391 
Q 2594 391 2855 752 
Q 3116 1113 3116 1747 
z
" transform="scale(0.015625)"/>
       <path id="DejaVuSans-6f" d="M 1959 3097 
Q 1497 3097 1228 2736 
Q 959 2375 959 1747 
Q 959 1119 1226 758 
Q 1494 397 1959 397 
Q 2419 397 2687 759 
Q 2956 1122 2956 1747 
Q 2956 2369 2687 2733 
Q 2419 3097 1959 3097 
z
M 1959 3584 
Q 2709 3584 3137 3096 
Q 3566 2609 3566 1747 
Q 3566 888 3137 398 
Q 2709 -91 1959 -91 
Q 1206 -91 779 398 
Q 353 888 353 1747 
Q 353 2609 779 3096 
Q 1206 3584 1959 3584 
z
" transform="scale(0.015625)"/>
       <path id="DejaVuSans-73" d="M 2834 3397 
L 2834 2853 
Q 2591 2978 2328 3040 
Q 2066 3103 1784 3103 
Q 1356 3103 1142 2972 
Q 928 2841 928 2578 
Q 928 2378 1081 2264 
Q 1234 2150 1697 2047 
L 1894 2003 
Q 2506 1872 2764 1633 
Q 3022 1394 3022 966 
Q 3022 478 2636 193 
Q 2250 -91 1575 -91 
Q 1294 -91 989 -36 
Q 684 19 347 128 
L 347 722 
Q 666 556 975 473 
Q 1284 391 1588 391 
Q 1994 391 2212 530 
Q 2431 669 2431 922 
Q 2431 1156 2273 1281 
Q 2116 1406 1581 1522 
L 1381 1569 
Q 847 1681 609 1914 
Q 372 2147 372 2553 
Q 372 3047 722 3315 
Q 1072 3584 1716 3584 
Q 2034 3584 2315 3537 
Q 2597 3491 2834 3397 
z
" transform="scale(0.015625)"/>
       <path id="DejaVuSans-74" d="M 1172 4494 
L 1172 3500 
L 2356 3500 
L 2356 3053 
L 1172 3053 
L 1172 1153 
Q 1172 725 1289 603 
Q 1406 481 1766 481 
L 2356 481 
L 2356 0 
L 1766 0 
Q 1100 0 847 248 
Q 594 497 594 1153 
L 594 3053 
L 172 3053 
L 172 3500 
L 594 3500 
L 594 4494 
L 1172 4494 
z
" transform="scale(0.015625)"/>
       <path id="DejaVuSans-64" d="M 2906 2969 
L 2906 4863 
L 3481 4863 
L 3481 0 
L 2906 0 
L 2906 525 
Q 2725 213 2448 61 
Q 2172 -91 1784 -91 
Q 1150 -91 751 415 
Q 353 922 353 1747 
Q 353 2572 751 3078 
Q 1150 3584 1784 3584 
Q 2172 3584 2448 3432 
Q 2725 3281 2906 2969 
z
M 947 1747 
Q 947 1113 1208 752 
Q 1469 391 1925 391 
Q 2381 391 2643 752 
Q 2906 1113 2906 1747 
Q 2906 2381 2643 2742 
Q 2381 3103 1925 3103 
Q 1469 3103 1208 2742 
Q 947 2381 947 1747 
z
" transform="scale(0.015625)"/>
       <path id="DejaVuSans-Oblique-4b" d="M 1081 4666 
L 1716 4666 
L 1331 2700 
L 3781 4666 
L 4622 4666 
L 1850 2438 
L 3878 0 
L 3109 0 
L 1247 2272 
L 806 0 
L 172 0 
L 1081 4666 
z
" transform="scale(0.015625)"/>
      </defs>
      <use xlink:href="#DejaVuSans-46" transform="translate(0 0.015625)"/>
      <use xlink:href="#DejaVuSans-72" transform="translate(57.519531 0.015625)"/>
      <use xlink:href="#DejaVuSans-61" transform="translate(98.632812 0.015625)"/>
      <use xlink:href="#DejaVuSans-63" transform="translate(159.912109 0.015625)"/>
      <use xlink:href="#DejaVuSans-63" transform="translate(214.892578 0.015625)"/>
      <use xlink:href="#DejaVuSans-69" transform="translate(269.873047 0.015625)"/>
      <use xlink:href="#DejaVuSans-f3" transform="translate(297.65625 0.015625)"/>
      <use xlink:href="#DejaVuSans-6e" transform="translate(358.837891 0.015625)"/>
      <use xlink:href="#DejaVuSans-20" transform="translate(422.216797 0.015625)"/>
      <use xlink:href="#DejaVuSans-61" transform="translate(454.003906 0.015625)"/>
      <use xlink:href="#DejaVuSans-70" transform="translate(515.283203 0.015625)"/>
      <use xlink:href="#DejaVuSans-6f" transform="translate(578.759766 0.015625)"/>
      <use xlink:href="#DejaVuSans-73" transform="translate(639.941406 0.015625)"/>
      <use xlink:href="#DejaVuSans-74" transform="translate(692.041016 0.015625)"/>
      <use xlink:href="#DejaVuSans-61" transform="translate(731.25 0.015625)"/>
      <use xlink:href="#DejaVuSans-64" transform="translate(792.529297 0.015625)"/>
      <use xlink:href="#DejaVuSans-61" transform="translate(856.005859 0.015625)"/>
      <use xlink:href="#DejaVuSans-20" transform="translate(917.285156 0.015625)"/>
      <use xlink:href="#DejaVuSans-Oblique-4b" transform="translate(949.072266 0.015625)"/>
     </g>
    </g>
   </g>
   <g id="matplotlib.axis_2">
    <g id="ytick_1">
     <g id="line2d_13">
      <path d="M 120.655 505.0725 
L 1087.505 505.0725 
" clip-path="url(#p127647afc9)" style="fill: none; stroke: #b0b0b0; stroke-opacity: 0.3; stroke-width: 0.8; stroke-linecap: square"/>
     </g>
     <g id="line2d_14">
      <defs>
       <path id="mc0f49ad48d" d="M 0 0 
L -3.5 0 
" style="stroke: #000000; stroke-width: 0.8"/>
      </defs>
      <g>
       <use xlink:href="#mc0f49ad48d" x="120.655" y="505.0725" style="stroke: #000000; stroke-width: 0.8"/>
      </g>
     </g>
     <g id="text_8">
      <!-- −20 -->
      <g transform="translate(46.12 517.23) scale(0.32 -0.32)">
       <defs>
        <path id="DejaVuSans-2212" d="M 678 2272 
L 4684 2272 
L 4684 1741 
L 678 1741 
L 678 2272 
z
" transform="scale(0.015625)"/>
       </defs>
       <use xlink:href="#DejaVuSans-2212"/>
       <use xlink:href="#DejaVuSans-32" transform="translate(83.789062 0)"/>
       <use xlink:href="#DejaVuSans-30" transform="translate(147.412109 0)"/>
      </g>
     </g>
    </g>
    <g id="ytick_2">
     <g id="line2d_15">
      <path d="M 120.655 409.414167 
L 1087.505 409.414167 
" clip-path="url(#p127647afc9)" style="fill: none; stroke: #b0b0b0; stroke-opacity: 0.3; stroke-width: 0.8; stroke-linecap: square"/>
     </g>
     <g id="line2d_16">
      <g>
       <use xlink:href="#mc0f49ad48d" x="120.655" y="409.414167" style="stroke: #000000; stroke-width: 0.8"/>
      </g>
     </g>
     <g id="text_9">
      <!-- −15 -->
      <g transform="translate(46.12 421.571667) scale(0.32 -0.32)">
       <use xlink:href="#DejaVuSans-2212"/>
       <use xlink:href="#DejaVuSans-31" transform="translate(83.789062 0)"/>
       <use xlink:href="#DejaVuSans-35" transform="translate(147.412109 0)"/>
      </g>
     </g>
    </g>
    <g id="ytick_3">
     <g id="line2d_17">
      <path d="M 120.655 313.755833 
L 1087.505 313.755833 
" clip-path="url(#p127647afc9)" style="fill: none; stroke: #b0b0b0; stroke-opacity: 0.3; stroke-width: 0.8; stroke-linecap: square"/>
     </g>
     <g id="line2d_18">
      <g>
       <use xlink:href="#mc0f49ad48d" x="120.655" y="313.755833" style="stroke: #000000; stroke-width: 0.8"/>
      </g>
     </g>
     <g id="text_10">
      <!-- −10 -->
      <g transform="translate(46.12 325.913333) scale(0.32 -0.32)">
       <use xlink:href="#DejaVuSans-2212"/>
       <use xlink:href="#DejaVuSans-31" transform="translate(83.789062 0)"/>
       <use xlink:href="#DejaVuSans-30" transform="translate(147.412109 0)"/>
      </g>
     </g>
    </g>
    <g id="ytick_4">
     <g id="line2d_19">
      <path d="M 120.655 218.0975 
L 1087.505 218.0975 
" clip-path="url(#p127647afc9)" style="fill: none; stroke: #b0b0b0; stroke-opacity: 0.3; stroke-width: 0.8; stroke-linecap: square"/>
     </g>
     <g id="line2d_20">
      <g>
       <use xlink:href="#mc0f49ad48d" x="120.655" y="218.0975" style="stroke: #000000; stroke-width: 0.8"/>
      </g>
     </g>
     <g id="text_11">
      <!-- −5 -->
      <g transform="translate(66.48 230.255) scale(0.32 -0.32)">
       <use xlink:href="#DejaVuSans-2212"/>
       <use xlink:href="#DejaVuSans-35" transform="translate(83.789062 0)"/>
      </g>
     </g>
    </g>
    <g id="ytick_5">
     <g id="line2d_21">
      <path d="M 120.655 122.439167 
L 1087.505 122.439167 
" clip-path="url(#p127647afc9)" style="fill: none; stroke: #b0b0b0; stroke-opacity: 0.3; stroke-width: 0.8; stroke-linecap: square"/>
     </g>
     <g id="line2d_22">
      <g>
       <use xlink:href="#mc0f49ad48d" x="120.655" y="122.439167" style="stroke: #000000; stroke-width: 0.8"/>
      </g>
     </g>
     <g id="text_12">
      <!-- 0 -->
      <g transform="translate(93.295 134.596667) scale(0.32 -0.32)">
       <use xlink:href="#DejaVuSans-30"/>
      </g>
     </g>
    </g>
    <g id="text_13">
     <!-- $G(K)$  (% por apuesta) -->
     <g transform="translate(34.56 471.6925) rotate(-90) scale(0.36 -0.36)">
      <defs>
       <path id="DejaVuSans-Oblique-47" d="M 3494 697 
L 3738 1919 
L 2700 1919 
L 2797 2438 
L 4453 2438 
L 4050 384 
Q 3634 156 3143 32 
Q 2653 -91 2156 -91 
Q 1278 -91 783 396 
Q 288 884 288 1753 
Q 288 2475 589 3126 
Q 891 3778 1422 4213 
Q 1756 4484 2153 4617 
Q 2550 4750 3034 4750 
Q 3472 4750 3873 4639 
Q 4275 4528 4641 4306 
L 4513 3634 
Q 4231 3928 3853 4083 
Q 3475 4238 3047 4238 
Q 2550 4238 2172 4048 
Q 1794 3859 1497 3463 
Q 1244 3125 1098 2667 
Q 953 2209 953 1734 
Q 953 1081 1287 751 
Q 1622 422 2284 422 
Q 2616 422 2925 492 
Q 3234 563 3494 697 
z
" transform="scale(0.015625)"/>
       <path id="DejaVuSans-28" d="M 1984 4856 
Q 1566 4138 1362 3434 
Q 1159 2731 1159 2009 
Q 1159 1288 1364 580 
Q 1569 -128 1984 -844 
L 1484 -844 
Q 1016 -109 783 600 
Q 550 1309 550 2009 
Q 550 2706 781 3412 
Q 1013 4119 1484 4856 
L 1984 4856 
z
" transform="scale(0.015625)"/>
       <path id="DejaVuSans-29" d="M 513 4856 
L 1013 4856 
Q 1481 4119 1714 3412 
Q 1947 2706 1947 2009 
Q 1947 1309 1714 600 
Q 1481 -109 1013 -844 
L 513 -844 
Q 928 -128 1133 580 
Q 1338 1288 1338 2009 
Q 1338 2731 1133 3434 
Q 928 4138 513 4856 
z
" transform="scale(0.015625)"/>
       <path id="DejaVuSans-25" d="M 4653 2053 
Q 4381 2053 4226 1822 
Q 4072 1591 4072 1178 
Q 4072 772 4226 539 
Q 4381 306 4653 306 
Q 4919 306 5073 539 
Q 5228 772 5228 1178 
Q 5228 1588 5073 1820 
Q 4919 2053 4653 2053 
z
M 4653 2450 
Q 5147 2450 5437 2106 
Q 5728 1763 5728 1178 
Q 5728 594 5436 251 
Q 5144 -91 4653 -91 
Q 4153 -91 3862 251 
Q 3572 594 3572 1178 
Q 3572 1766 3864 2108 
Q 4156 2450 4653 2450 
z
M 1428 4353 
Q 1159 4353 1004 4120 
Q 850 3888 850 3481 
Q 850 3069 1003 2837 
Q 1156 2606 1428 2606 
Q 1700 2606 1854 2837 
Q 2009 3069 2009 3481 
Q 2009 3884 1853 4118 
Q 1697 4353 1428 4353 
z
M 4250 4750 
L 4750 4750 
L 1831 -91 
L 1331 -91 
L 4250 4750 
z
M 1428 4750 
Q 1922 4750 2215 4408 
Q 2509 4066 2509 3481 
Q 2509 2891 2217 2550 
Q 1925 2209 1428 2209 
Q 931 2209 642 2551 
Q 353 2894 353 3481 
Q 353 4063 643 4406 
Q 934 4750 1428 4750 
z
" transform="scale(0.015625)"/>
       <path id="DejaVuSans-75" d="M 544 1381 
L 544 3500 
L 1119 3500 
L 1119 1403 
Q 1119 906 1312 657 
Q 1506 409 1894 409 
Q 2359 409 2629 706 
Q 2900 1003 2900 1516 
L 2900 3500 
L 3475 3500 
L 3475 0 
L 2900 0 
L 2900 538 
Q 2691 219 2414 64 
Q 2138 -91 1772 -91 
Q 1169 -91 856 284 
Q 544 659 544 1381 
z
M 1991 3584 
L 1991 3584 
z
" transform="scale(0.015625)"/>
       <path id="DejaVuSans-65" d="M 3597 1894 
L 3597 1613 
L 953 1613 
Q 991 1019 1311 708 
Q 1631 397 2203 397 
Q 2534 397 2845 478 
Q 3156 559 3463 722 
L 3463 178 
Q 3153 47 2828 -22 
Q 2503 -91 2169 -91 
Q 1331 -91 842 396 
Q 353 884 353 1716 
Q 353 2575 817 3079 
Q 1281 3584 2069 3584 
Q 2775 3584 3186 3129 
Q 3597 2675 3597 1894 
z
M 3022 2063 
Q 3016 2534 2758 2815 
Q 2500 3097 2075 3097 
Q 1594 3097 1305 2825 
Q 1016 2553 972 2059 
L 3022 2063 
z
" transform="scale(0.015625)"/>
      </defs>
      <use xlink:href="#DejaVuSans-Oblique-47" transform="translate(0 0.125)"/>
      <use xlink:href="#DejaVuSans-28" transform="translate(77.490234 0.125)"/>
      <use xlink:href="#DejaVuSans-Oblique-4b" transform="translate(116.503906 0.125)"/>
      <use xlink:href="#DejaVuSans-29" transform="translate(182.080078 0.125)"/>
      <use xlink:href="#DejaVuSans-20" transform="translate(221.09375 0.125)"/>
      <use xlink:href="#DejaVuSans-20" transform="translate(252.880859 0.125)"/>
      <use xlink:href="#DejaVuSans-28" transform="translate(284.667969 0.125)"/>
      <use xlink:href="#DejaVuSans-25" transform="translate(323.681641 0.125)"/>
      <use xlink:href="#DejaVuSans-20" transform="translate(418.701172 0.125)"/>
      <use xlink:href="#DejaVuSans-70" transform="translate(450.488281 0.125)"/>
      <use xlink:href="#DejaVuSans-6f" transform="translate(513.964844 0.125)"/>
      <use xlink:href="#DejaVuSans-72" transform="translate(575.146484 0.125)"/>
      <use xlink:href="#DejaVuSans-20" transform="translate(616.259766 0.125)"/>
      <use xlink:href="#DejaVuSans-61" transform="translate(648.046875 0.125)"/>
      <use xlink:href="#DejaVuSans-70" transform="translate(709.326172 0.125)"/>
      <use xlink:href="#DejaVuSans-75" transform="translate(772.802734 0.125)"/>
      <use xlink:href="#DejaVuSans-65" transform="translate(836.181641 0.125)"/>
      <use xlink:href="#DejaVuSans-73" transform="translate(897.705078 0.125)"/>
      <use xlink:href="#DejaVuSans-74" transform="translate(949.804688 0.125)"/>
      <use xlink:href="#DejaVuSans-61" transform="translate(989.013672 0.125)"/>
      <use xlink:href="#DejaVuSans-29" transform="translate(1050.292969 0.125)"/>
     </g>
    </g>
   </g>
   <g id="line2d_23">
    <path d="M 120.655 122.439167 
L 1087.505 122.439167 
" clip-path="url(#p127647afc9)" style="fill: none; stroke-dasharray: 2.96,1.28; stroke-dashoffset: 0; stroke: #808080; stroke-opacity: 0.6; stroke-width: 0.8"/>
   </g>
   <g id="line2d_24">
    <path d="M 120.840933 122.391383 
L 130.523711 120.027122 
L 140.20649 117.901234 
L 149.889269 116.006254 
L 159.572047 114.335182 
L 169.254826 112.88145 
L 178.937605 111.638888 
L 188.620383 110.601699 
L 198.303162 109.764426 
L 207.98594 109.121937 
L 219.282516 108.612118 
L 230.579091 108.353651 
L 241.875666 108.339818 
L 253.172241 108.564341 
L 264.468816 109.021357 
L 275.765391 109.705382 
L 287.061966 110.611294 
L 298.358541 111.734301 
L 309.655116 113.069924 
L 320.951691 114.613975 
L 332.248266 116.362543 
L 343.544841 118.31197 
L 356.455213 120.78147 
L 369.365584 123.504137 
L 382.275956 126.475606 
L 395.186327 129.691854 
L 408.096699 133.149185 
L 421.00707 136.844203 
L 433.917442 140.773806 
L 446.827813 144.93516 
L 459.738185 149.325694 
L 472.648557 153.943082 
L 485.558928 158.785237 
L 498.4693 163.850294 
L 511.379671 169.136605 
L 524.290043 174.642732 
L 537.200414 180.367436 
L 550.110786 186.309671 
L 564.634954 193.253642 
L 579.159122 200.470899 
L 593.683289 207.960777 
L 608.207457 215.722887 
L 622.731625 223.757111 
L 637.255793 232.063592 
L 651.779961 240.642733 
L 666.304129 249.495193 
L 680.828297 258.621884 
L 695.352465 268.023968 
L 709.876633 277.70286 
L 724.400801 287.660223 
L 738.924969 297.89797 
L 753.449137 308.41827 
L 767.973305 319.223542 
L 782.497473 330.316465 
L 797.021641 341.699979 
L 811.545809 353.377288 
L 826.069977 365.35187 
L 840.594145 377.627478 
L 855.118313 390.20815 
L 869.642481 403.098216 
L 884.166649 416.302307 
L 898.690817 429.825366 
L 913.214985 443.672657 
L 927.739152 457.84978 
L 942.26332 472.362678 
L 956.787488 487.21766 
L 971.311656 502.42141 
L 985.835824 517.981007 
L 1000.359992 533.903941 
L 1013.270364 548.369082 
L 1026.180735 563.133427 
L 1039.091107 578.203142 
L 1050.352466 591.6025 
L 1050.352466 591.6025 
" clip-path="url(#p127647afc9)" style="fill: none; stroke: #2196f3; stroke-width: 2.5; stroke-linecap: square"/>
   </g>
   <g id="patch_3">
    <path d="M 120.655 505.0725 
L 120.655 45.9125 
" style="fill: none; stroke: #000000; stroke-width: 0.8; stroke-linejoin: miter; stroke-linecap: square"/>
   </g>
   <g id="patch_4">
    <path d="M 1087.505 505.0725 
L 1087.505 45.9125 
" style="fill: none; stroke: #000000; stroke-width: 0.8; stroke-linejoin: miter; stroke-linecap: square"/>
   </g>
   <g id="patch_5">
    <path d="M 120.655 505.0725 
L 1087.505 505.0725 
" style="fill: none; stroke: #000000; stroke-width: 0.8; stroke-linejoin: miter; stroke-linecap: square"/>
   </g>
   <g id="patch_6">
    <path d="M 120.655 45.9125 
L 1087.505 45.9125 
" style="fill: none; stroke: #000000; stroke-width: 0.8; stroke-linejoin: miter; stroke-linecap: square"/>
   </g>
   <g id="patch_7">
    <path d="M 298.29001 72.313314 
Q 268.440664 89.808235 240.520454 106.172476 
" style="fill: none; stroke: #4caf50; stroke-width: 2; stroke-linecap: round"/>
    <path d="M 251.229861 105.459312 
L 240.520454 106.172476 
L 246.375567 97.177052 
" style="fill: none; stroke: #4caf50; stroke-width: 2; stroke-linecap: round"/>
   </g>
   <g id="text_14">
    <!-- K = 6.25% → G = +0.74%/ap. -->
    <g style="fill: #4caf50" transform="translate(143.896587 64.313343) scale(0.24 -0.24)">
     <defs>
      <path id="DejaVuSans-4b" d="M 628 4666 
L 1259 4666 
L 1259 2694 
L 3353 4666 
L 4166 4666 
L 1850 2491 
L 4331 0 
L 3500 0 
L 1259 2247 
L 1259 0 
L 628 0 
L 628 4666 
z
" transform="scale(0.015625)"/>
      <path id="DejaVuSans-3d" d="M 678 2906 
L 4684 2906 
L 4684 2381 
L 678 2381 
L 678 2906 
z
M 678 1631 
L 4684 1631 
L 4684 1100 
L 678 1100 
L 678 1631 
z
" transform="scale(0.015625)"/>
      <path id="DejaVuSans-36" d="M 2113 2584 
Q 1688 2584 1439 2293 
Q 1191 2003 1191 1497 
Q 1191 994 1439 701 
Q 1688 409 2113 409 
Q 2538 409 2786 701 
Q 3034 994 3034 1497 
Q 3034 2003 2786 2293 
Q 2538 2584 2113 2584 
z
M 3366 4563 
L 3366 3988 
Q 3128 4100 2886 4159 
Q 2644 4219 2406 4219 
Q 1781 4219 1451 3797 
Q 1122 3375 1075 2522 
Q 1259 2794 1537 2939 
Q 1816 3084 2150 3084 
Q 2853 3084 3261 2657 
Q 3669 2231 3669 1497 
Q 3669 778 3244 343 
Q 2819 -91 2113 -91 
Q 1303 -91 875 529 
Q 447 1150 447 2328 
Q 447 3434 972 4092 
Q 1497 4750 2381 4750 
Q 2619 4750 2861 4703 
Q 3103 4656 3366 4563 
z
" transform="scale(0.015625)"/>
      <path id="DejaVuSans-2192" d="M 5050 2147 
L 5050 1866 
L 3822 638 
L 3447 1013 
L 4175 1741 
L 366 1741 
L 366 2272 
L 4175 2272 
L 3447 3000 
L 3822 3375 
L 5050 2147 
z
" transform="scale(0.015625)"/>
      <path id="DejaVuSans-47" d="M 3809 666 
L 3809 1919 
L 2778 1919 
L 2778 2438 
L 4434 2438 
L 4434 434 
Q 4069 175 3628 42 
Q 3188 -91 2688 -91 
Q 1594 -91 976 548 
Q 359 1188 359 2328 
Q 359 3472 976 4111 
Q 1594 4750 2688 4750 
Q 3144 4750 3555 4637 
Q 3966 4525 4313 4306 
L 4313 3634 
Q 3963 3931 3569 4081 
Q 3175 4231 2741 4231 
Q 1884 4231 1454 3753 
Q 1025 3275 1025 2328 
Q 1025 1384 1454 906 
Q 1884 428 2741 428 
Q 3075 428 3337 486 
Q 3600 544 3809 666 
z
" transform="scale(0.015625)"/>
      <path id="DejaVuSans-2b" d="M 2944 4013 
L 2944 2272 
L 4684 2272 
L 4684 1741 
L 2944 1741 
L 2944 0 
L 2419 0 
L 2419 1741 
L 678 1741 
L 678 2272 
L 2419 2272 
L 2419 4013 
L 2944 4013 
z
" transform="scale(0.015625)"/>
      <path id="DejaVuSans-37" d="M 525 4666 
L 3525 4666 
L 3525 4397 
L 1831 0 
L 1172 0 
L 2766 4134 
L 525 4134 
L 525 4666 
z
" transform="scale(0.015625)"/>
      <path id="DejaVuSans-2f" d="M 1625 4666 
L 2156 4666 
L 531 -594 
L 0 -594 
L 1625 4666 
z
" transform="scale(0.015625)"/>
     </defs>
     <use xlink:href="#DejaVuSans-4b"/>
     <use xlink:href="#DejaVuSans-20" transform="translate(65.576172 0)"/>
     <use xlink:href="#DejaVuSans-3d" transform="translate(97.363281 0)"/>
     <use xlink:href="#DejaVuSans-20" transform="translate(181.152344 0)"/>
     <use xlink:href="#DejaVuSans-36" transform="translate(212.939453 0)"/>
     <use xlink:href="#DejaVuSans-2e" transform="translate(276.5625 0)"/>
     <use xlink:href="#DejaVuSans-32" transform="translate(308.349609 0)"/>
     <use xlink:href="#DejaVuSans-35" transform="translate(371.972656 0)"/>
     <use xlink:href="#DejaVuSans-25" transform="translate(435.595703 0)"/>
     <use xlink:href="#DejaVuSans-20" transform="translate(530.615234 0)"/>
     <use xlink:href="#DejaVuSans-2192" transform="translate(562.402344 0)"/>
     <use xlink:href="#DejaVuSans-20" transform="translate(646.191406 0)"/>
     <use xlink:href="#DejaVuSans-47" transform="translate(677.978516 0)"/>
     <use xlink:href="#DejaVuSans-20" transform="translate(755.46875 0)"/>
     <use xlink:href="#DejaVuSans-3d" transform="translate(787.255859 0)"/>
     <use xlink:href="#DejaVuSans-20" transform="translate(871.044922 0)"/>
     <use xlink:href="#DejaVuSans-2b" transform="translate(902.832031 0)"/>
     <use xlink:href="#DejaVuSans-30" transform="translate(986.621094 0)"/>
     <use xlink:href="#DejaVuSans-2e" transform="translate(1050.244141 0)"/>
     <use xlink:href="#DejaVuSans-37" transform="translate(1082.03125 0)"/>
     <use xlink:href="#DejaVuSans-34" transform="translate(1145.654297 0)"/>
     <use xlink:href="#DejaVuSans-25" transform="translate(1209.277344 0)"/>
     <use xlink:href="#DejaVuSans-2f" transform="translate(1304.296875 0)"/>
     <use xlink:href="#DejaVuSans-61" transform="translate(1337.988281 0)"/>
     <use xlink:href="#DejaVuSans-70" transform="translate(1399.267578 0)"/>
     <use xlink:href="#DejaVuSans-2e" transform="translate(1462.744141 0)"/>
    </g>
   </g>
   <g id="patch_8">
    <path d="M 627.974019 110.397904 
Q 491.522875 115.21833 357.306406 119.959812 
" style="fill: none; stroke: #ff9800; stroke-width: 2; stroke-linecap: round"/>
    <path d="M 367.069886 124.41789 
L 357.306406 119.959812 
L 366.730957 114.823875 
" style="fill: none; stroke: #ff9800; stroke-width: 2; stroke-linecap: round"/>
   </g>
   <g id="text_15">
    <!-- K = 12.5% → G = +0.12%/ap. -->
    <g style="fill: #ff9800" transform="translate(631.969904 110.543608) scale(0.24 -0.24)">
     <use xlink:href="#DejaVuSans-4b"/>
     <use xlink:href="#DejaVuSans-20" transform="translate(65.576172 0)"/>
     <use xlink:href="#DejaVuSans-3d" transform="translate(97.363281 0)"/>
     <use xlink:href="#DejaVuSans-20" transform="translate(181.152344 0)"/>
     <use xlink:href="#DejaVuSans-31" transform="translate(212.939453 0)"/>
     <use xlink:href="#DejaVuSans-32" transform="translate(276.5625 0)"/>
     <use xlink:href="#DejaVuSans-2e" transform="translate(340.185547 0)"/>
     <use xlink:href="#DejaVuSans-35" transform="translate(371.972656 0)"/>
     <use xlink:href="#DejaVuSans-25" transform="translate(435.595703 0)"/>
     <use xlink:href="#DejaVuSans-20" transform="translate(530.615234 0)"/>
     <use xlink:href="#DejaVuSans-2192" transform="translate(562.402344 0)"/>
     <use xlink:href="#DejaVuSans-20" transform="translate(646.191406 0)"/>
     <use xlink:href="#DejaVuSans-47" transform="translate(677.978516 0)"/>
     <use xlink:href="#DejaVuSans-20" transform="translate(755.46875 0)"/>
     <use xlink:href="#DejaVuSans-3d" transform="translate(787.255859 0)"/>
     <use xlink:href="#DejaVuSans-20" transform="translate(871.044922 0)"/>
     <use xlink:href="#DejaVuSans-2b" transform="translate(902.832031 0)"/>
     <use xlink:href="#DejaVuSans-30" transform="translate(986.621094 0)"/>
     <use xlink:href="#DejaVuSans-2e" transform="translate(1050.244141 0)"/>
     <use xlink:href="#DejaVuSans-31" transform="translate(1082.03125 0)"/>
     <use xlink:href="#DejaVuSans-32" transform="translate(1145.654297 0)"/>
     <use xlink:href="#DejaVuSans-25" transform="translate(1209.277344 0)"/>
     <use xlink:href="#DejaVuSans-2f" transform="translate(1304.296875 0)"/>
     <use xlink:href="#DejaVuSans-61" transform="translate(1337.988281 0)"/>
     <use xlink:href="#DejaVuSans-70" transform="translate(1399.267578 0)"/>
     <use xlink:href="#DejaVuSans-2e" transform="translate(1462.744141 0)"/>
    </g>
   </g>
   <g id="patch_9">
    <path d="M 547.257964 242.006099 
Q 681.66142 299.897968 814.011215 356.90526 
" style="fill: none; stroke: #f44336; stroke-width: 2; stroke-linecap: round"/>
    <path d="M 807.093191 348.699108 
L 814.011215 356.90526 
L 803.295478 357.515988 
" style="fill: none; stroke: #f44336; stroke-width: 2; stroke-linecap: round"/>
   </g>
   <g id="text_16">
    <!-- K = 37.5% → G = −12.3%/ap. -->
    <g style="fill: #f44336" transform="translate(334.477596 234.22557) scale(0.24 -0.24)">
     <use xlink:href="#DejaVuSans-4b"/>
     <use xlink:href="#DejaVuSans-20" transform="translate(65.576172 0)"/>
     <use xlink:href="#DejaVuSans-3d" transform="translate(97.363281 0)"/>
     <use xlink:href="#DejaVuSans-20" transform="translate(181.152344 0)"/>
     <use xlink:href="#DejaVuSans-33" transform="translate(212.939453 0)"/>
     <use xlink:href="#DejaVuSans-37" transform="translate(276.5625 0)"/>
     <use xlink:href="#DejaVuSans-2e" transform="translate(340.185547 0)"/>
     <use xlink:href="#DejaVuSans-35" transform="translate(371.972656 0)"/>
     <use xlink:href="#DejaVuSans-25" transform="translate(435.595703 0)"/>
     <use xlink:href="#DejaVuSans-20" transform="translate(530.615234 0)"/>
     <use xlink:href="#DejaVuSans-2192" transform="translate(562.402344 0)"/>
     <use xlink:href="#DejaVuSans-20" transform="translate(646.191406 0)"/>
     <use xlink:href="#DejaVuSans-47" transform="translate(677.978516 0)"/>
     <use xlink:href="#DejaVuSans-20" transform="translate(755.46875 0)"/>
     <use xlink:href="#DejaVuSans-3d" transform="translate(787.255859 0)"/>
     <use xlink:href="#DejaVuSans-20" transform="translate(871.044922 0)"/>
     <use xlink:href="#DejaVuSans-2212" transform="translate(902.832031 0)"/>
     <use xlink:href="#DejaVuSans-31" transform="translate(986.621094 0)"/>
     <use xlink:href="#DejaVuSans-32" transform="translate(1050.244141 0)"/>
     <use xlink:href="#DejaVuSans-2e" transform="translate(1113.867188 0)"/>
     <use xlink:href="#DejaVuSans-33" transform="translate(1145.654297 0)"/>
     <use xlink:href="#DejaVuSans-25" transform="translate(1209.277344 0)"/>
     <use xlink:href="#DejaVuSans-2f" transform="translate(1304.296875 0)"/>
     <use xlink:href="#DejaVuSans-61" transform="translate(1337.988281 0)"/>
     <use xlink:href="#DejaVuSans-70" transform="translate(1399.267578 0)"/>
     <use xlink:href="#DejaVuSans-2e" transform="translate(1462.744141 0)"/>
    </g>
   </g>
   <g id="text_17">
    <!-- Crecimiento esperado  (c = 25%, div = 5) -->
    <g transform="translate(185.64875 37.59375) scale(0.4 -0.4)">
     <defs>
      <path id="DejaVuSans-43" d="M 4122 4306 
L 4122 3641 
Q 3803 3938 3442 4084 
Q 3081 4231 2675 4231 
Q 1875 4231 1450 3742 
Q 1025 3253 1025 2328 
Q 1025 1406 1450 917 
Q 1875 428 2675 428 
Q 3081 428 3442 575 
Q 3803 722 4122 1019 
L 4122 359 
Q 3791 134 3420 21 
Q 3050 -91 2638 -91 
Q 1578 -91 968 557 
Q 359 1206 359 2328 
Q 359 3453 968 4101 
Q 1578 4750 2638 4750 
Q 3056 4750 3426 4639 
Q 3797 4528 4122 4306 
z
" transform="scale(0.015625)"/>
      <path id="DejaVuSans-6d" d="M 3328 2828 
Q 3544 3216 3844 3400 
Q 4144 3584 4550 3584 
Q 5097 3584 5394 3201 
Q 5691 2819 5691 2113 
L 5691 0 
L 5113 0 
L 5113 2094 
Q 5113 2597 4934 2840 
Q 4756 3084 4391 3084 
Q 3944 3084 3684 2787 
Q 3425 2491 3425 1978 
L 3425 0 
L 2847 0 
L 2847 2094 
Q 2847 2600 2669 2842 
Q 2491 3084 2119 3084 
Q 1678 3084 1418 2786 
Q 1159 2488 1159 1978 
L 1159 0 
L 581 0 
L 581 3500 
L 1159 3500 
L 1159 2956 
Q 1356 3278 1631 3431 
Q 1906 3584 2284 3584 
Q 2666 3584 2933 3390 
Q 3200 3197 3328 2828 
z
" transform="scale(0.015625)"/>
      <path id="DejaVuSans-2c" d="M 750 794 
L 1409 794 
L 1409 256 
L 897 -744 
L 494 -744 
L 750 256 
L 750 794 
z
" transform="scale(0.015625)"/>
      <path id="DejaVuSans-76" d="M 191 3500 
L 800 3500 
L 1894 563 
L 2988 3500 
L 3597 3500 
L 2284 0 
L 1503 0 
L 191 3500 
z
" transform="scale(0.015625)"/>
     </defs>
     <use xlink:href="#DejaVuSans-43"/>
     <use xlink:href="#DejaVuSans-72" transform="translate(69.824219 0)"/>
     <use xlink:href="#DejaVuSans-65" transform="translate(108.6875 0)"/>
     <use xlink:href="#DejaVuSans-63" transform="translate(170.210938 0)"/>
     <use xlink:href="#DejaVuSans-69" transform="translate(225.191406 0)"/>
     <use xlink:href="#DejaVuSans-6d" transform="translate(252.974609 0)"/>
     <use xlink:href="#DejaVuSans-69" transform="translate(350.386719 0)"/>
     <use xlink:href="#DejaVuSans-65" transform="translate(378.169922 0)"/>
     <use xlink:href="#DejaVuSans-6e" transform="translate(439.693359 0)"/>
     <use xlink:href="#DejaVuSans-74" transform="translate(503.072266 0)"/>
     <use xlink:href="#DejaVuSans-6f" transform="translate(542.28125 0)"/>
     <use xlink:href="#DejaVuSans-20" transform="translate(603.462891 0)"/>
     <use xlink:href="#DejaVuSans-65" transform="translate(635.25 0)"/>
     <use xlink:href="#DejaVuSans-73" transform="translate(696.773438 0)"/>
     <use xlink:href="#DejaVuSans-70" transform="translate(748.873047 0)"/>
     <use xlink:href="#DejaVuSans-65" transform="translate(812.349609 0)"/>
     <use xlink:href="#DejaVuSans-72" transform="translate(873.873047 0)"/>
     <use xlink:href="#DejaVuSans-61" transform="translate(914.986328 0)"/>
     <use xlink:href="#DejaVuSans-64" transform="translate(976.265625 0)"/>
     <use xlink:href="#DejaVuSans-6f" transform="translate(1039.742188 0)"/>
     <use xlink:href="#DejaVuSans-20" transform="translate(1100.923828 0)"/>
     <use xlink:href="#DejaVuSans-20" transform="translate(1132.710938 0)"/>
     <use xlink:href="#DejaVuSans-28" transform="translate(1164.498047 0)"/>
     <use xlink:href="#DejaVuSans-63" transform="translate(1203.511719 0)"/>
     <use xlink:href="#DejaVuSans-20" transform="translate(1258.492188 0)"/>
     <use xlink:href="#DejaVuSans-3d" transform="translate(1290.279297 0)"/>
     <use xlink:href="#DejaVuSans-20" transform="translate(1374.068359 0)"/>
     <use xlink:href="#DejaVuSans-32" transform="translate(1405.855469 0)"/>
     <use xlink:href="#DejaVuSans-35" transform="translate(1469.478516 0)"/>
     <use xlink:href="#DejaVuSans-25" transform="translate(1533.101562 0)"/>
     <use xlink:href="#DejaVuSans-2c" transform="translate(1628.121094 0)"/>
     <use xlink:href="#DejaVuSans-20" transform="translate(1659.908203 0)"/>
     <use xlink:href="#DejaVuSans-64" transform="translate(1691.695312 0)"/>
     <use xlink:href="#DejaVuSans-69" transform="translate(1755.171875 0)"/>
     <use xlink:href="#DejaVuSans-76" transform="translate(1782.955078 0)"/>
     <use xlink:href="#DejaVuSans-20" transform="translate(1842.134766 0)"/>
     <use xlink:href="#DejaVuSans-3d" transform="translate(1873.921875 0)"/>
     <use xlink:href="#DejaVuSans-20" transform="translate(1957.710938 0)"/>
     <use xlink:href="#DejaVuSans-35" transform="translate(1989.498047 0)"/>
     <use xlink:href="#DejaVuSans-29" transform="translate(2053.121094 0)"/>
    </g>
   </g>
   <g id="line2d_25">
    <defs>
     <path id="m7a611f5aba" d="M 0 7 
C 1.856422 7 3.637059 6.262436 4.949747 4.949747 
C 6.262436 3.637059 7 1.856422 7 0 
C 7 -1.856422 6.262436 -3.637059 4.949747 -4.949747 
C 3.637059 -6.262436 1.856422 -7 0 -7 
C -1.856422 -7 -3.637059 -6.262436 -4.949747 -4.949747 
C -6.262436 -3.637059 -7 -1.856422 -7 0 
C -7 1.856422 -6.262436 3.637059 -4.949747 4.949747 
C -3.637059 6.262436 -1.856422 7 0 7 
z
" style="stroke: #4caf50"/>
    </defs>
    <g clip-path="url(#p127647afc9)">
     <use xlink:href="#m7a611f5aba" x="236.862933" y="108.316176" style="fill: #4caf50; stroke: #4caf50"/>
    </g>
   </g>
   <g id="line2d_26">
    <defs>
     <path id="m3c749f57ee" d="M 0 7 
C 1.856422 7 3.637059 6.262436 4.949747 4.949747 
C 6.262436 3.637059 7 1.856422 7 0 
C 7 -1.856422 6.262436 -3.637059 4.949747 -4.949747 
C 3.637059 -6.262436 1.856422 -7 0 -7 
C -1.856422 -7 -3.637059 -6.262436 -4.949747 -4.949747 
C -6.262436 -3.637059 -7 -1.856422 -7 0 
C -7 1.856422 -6.262436 3.637059 -4.949747 4.949747 
C -3.637059 6.262436 -1.856422 7 0 7 
z
" style="stroke: #ff9800"/>
    </defs>
    <g clip-path="url(#p127647afc9)">
     <use xlink:href="#m3c749f57ee" x="353.070865" y="120.109441" style="fill: #ff9800; stroke: #ff9800"/>
    </g>
   </g>
   <g id="line2d_27">
    <defs>
     <path id="mdd45253538" d="M 0 7 
C 1.856422 7 3.637059 6.262436 4.949747 4.949747 
C 6.262436 3.637059 7 1.856422 7 0 
C 7 -1.856422 6.262436 -3.637059 4.949747 -4.949747 
C 3.637059 -6.262436 1.856422 -7 0 -7 
C -1.856422 -7 -3.637059 -6.262436 -4.949747 -4.949747 
C -6.262436 -3.637059 -7 -1.856422 -7 0 
C -7 1.856422 -6.262436 3.637059 -4.949747 4.949747 
C -3.637059 6.262436 -1.856422 7 0 7 
z
" style="stroke: #f44336"/>
    </defs>
    <g clip-path="url(#p127647afc9)">
     <use xlink:href="#mdd45253538" x="817.902596" y="358.581403" style="fill: #f44336; stroke: #f44336"/>
    </g>
   </g>
  </g>
 </g>
 <defs>
  <clipPath id="p127647afc9">
   <rect x="120.655" y="45.9125" width="966.85" height="459.16"/>
  </clipPath>
 </defs>
</svg>
