<?xml version="1.0" encoding="utf-8" standalone="no"?>
<!DOCTYPE svg PUBLIC "-//W3C//DTD SVG 1.1//EN"
  "http://www.w3.org/Graphics/SVG/1.1/DTD/svg11.dtd">
<svg xmlns:xlink="http://www.w3.org/1999/xlink" width="698.5525pt" height="410.661875pt" viewBox="0 0 698.5525 410.661875" xmlns="http://www.w3.org/2000/svg" version="1.1">
 <metadata>
  <rdf:RDF xmlns:dc="http://purl.org/dc/elements/1.1/" xmlns:cc="http://creativecommons.org/ns#" xmlns:rdf="http://www.w3.org/1999/02/22-rdf-syntax-ns#">
   <cc:Work>
    <dc:type rdf:resource="http://purl.org/dc/dcmitype/StillImage"/>
    <dc:date>2026-03-18T17:01:17.569584</dc:date>
    <dc:format>image/svg+xml</dc:format>
    <dc:creator>
     <cc:Agent>
      <dc:title>Matplotlib v3.10.8, https://matplotlib.org/</dc:title>
     </cc:Agent>
    </dc:creator>
   </cc:Work>
  </rdf:RDF>
 </metadata>
 <defs>
  <style type="text/css">*{stroke-linejoin: round; stroke-linecap: butt}</style>
 </defs>
 <g id="figure_1">
  <g id="patch_1">
   <path d="M 0 410.661875 
L 698.5525 410.661875 
L 698.5525 0 
L 0 0 
z
" style="fill: #ffffff"/>
  </g>
  <g id="axes_1">
   <g id="patch_2">
    <path d="M 69.4275 358.796875 
L 691.3525 358.796875 
L 691.3525 28.396875 
L 69.4275 28.396875 
z
" style="fill: #ffffff"/>
   </g>
   <g id="FillBetweenPolyCollection_1">
    <defs>
     <path id="me2ec0838b7" d="M 226.296041 -327.198333 
L 226.296041 -327.187837 
L 227.334114 -326.9387 
L 228.372186 -326.686755 
L 229.410259 -326.432007 
L 230.448331 -326.174462 
L 231.486404 -325.914126 
L 232.524476 -325.651004 
L 233.562548 -325.385103 
L 234.600621 -325.116427 
L 235.638693 -324.844983 
L 236.676766 -324.570777 
L 237.714838 -324.293813 
L 238.752911 -324.014097 
L 239.790983 -323.731635 
L 240.829056 -323.446432 
L 241.867128 -323.158493 
L 242.905201 -322.867823 
L 243.943273 -322.574428 
L 244.981345 -322.278312 
L 246.019418 -321.979481 
L 247.05749 -321.67794 
L 248.095563 -321.373694 
L 249.133635 -321.066747 
L 250.171708 -320.757104 
L 251.20978 -320.444771 
L 252.247853 -320.129752 
L 253.285925 -319.812051 
L 254.323998 -319.491673 
L 255.36207 -319.168624 
L 256.400142 -318.842907 
L 257.438215 -318.514526 
L 258.476287 -318.183487 
L 259.51436 -317.849794 
L 260.552432 -317.51345 
L 261.590505 -317.174461 
L 262.628577 -316.832831 
L 263.66665 -316.488563 
L 264.704722 -316.141662 
L 265.742794 -315.792132 
L 266.780867 -315.439977 
L 267.818939 -315.085202 
L 268.857012 -314.727809 
L 269.895084 -314.367803 
L 270.933157 -314.005188 
L 271.971229 -313.639967 
L 273.009302 -313.272145 
L 274.047374 -312.901725 
L 275.085447 -312.52871 
L 276.123519 -312.153105 
L 277.161591 -311.774913 
L 278.199664 -311.394137 
L 279.237736 -311.010782 
L 280.275809 -310.62485 
L 281.313881 -310.236345 
L 282.351954 -309.84527 
L 283.390026 -309.451628 
L 284.428099 -309.055424 
L 285.466171 -308.656659 
L 286.504244 -308.255338 
L 287.542316 -307.851464 
L 288.580388 -307.445039 
L 289.618461 -307.036067 
L 290.656533 -306.62455 
L 291.694606 -306.210493 
L 292.732678 -305.793896 
L 293.770751 -305.374765 
L 294.808823 -304.953101 
L 295.846896 -304.528907 
L 296.884968 -304.102186 
L 297.923041 -303.672941 
L 298.961113 -303.241175 
L 299.999185 -302.80689 
L 301.037258 -302.370089 
L 302.07533 -301.930774 
L 303.113403 -301.488949 
L 304.151475 -301.044614 
L 305.189548 -300.597774 
L 306.22762 -300.148431 
L 307.265693 -299.696586 
L 308.303765 -299.242242 
L 309.341837 -298.785402 
L 310.37991 -298.326068 
L 311.417982 -297.864242 
L 312.456055 -297.399927 
L 313.494127 -296.933124 
L 314.5322 -296.463836 
L 315.570272 -295.992064 
L 316.608345 -295.517811 
L 317.646417 -295.04108 
L 318.68449 -294.561871 
L 319.722562 -294.080187 
L 320.760634 -293.59603 
L 321.798707 -293.109402 
L 322.836779 -292.620304 
L 323.874852 -292.128738 
L 324.912924 -291.634707 
L 325.950997 -291.138212 
L 326.989069 -290.639254 
L 328.027142 -290.137836 
L 329.065214 -289.633959 
L 330.103287 -289.127625 
L 331.141359 -288.618834 
L 332.179431 -288.10759 
L 333.217504 -287.593893 
L 334.255576 -287.077744 
L 335.293649 -286.559146 
L 336.331721 -286.038099 
L 337.369794 -285.514606 
L 338.407866 -284.988667 
L 339.445939 -284.460284 
L 340.484011 -283.929457 
L 341.522084 -283.396189 
L 342.560156 -282.86048 
L 343.598228 -282.322332 
L 344.636301 -281.781746 
L 345.674373 -281.238723 
L 346.712446 -280.693264 
L 347.750518 -280.14537 
L 348.788591 -279.595042 
L 349.826663 -279.042281 
L 350.864736 -278.487088 
L 351.902808 -277.929464 
L 352.94088 -277.36941 
L 353.978953 -276.806927 
L 355.017025 -276.242016 
L 356.055098 -275.674677 
L 357.09317 -275.104911 
L 358.131243 -274.532719 
L 359.169315 -273.958102 
L 360.207388 -273.38106 
L 361.24546 -272.801594 
L 362.283533 -272.219705 
L 363.321605 -271.635393 
L 364.359677 -271.048659 
L 365.39775 -270.459503 
L 366.435822 -269.867927 
L 367.473895 -269.273929 
L 368.511967 -268.677511 
L 369.55004 -268.078673 
L 370.588112 -267.477416 
L 371.626185 -266.87374 
L 372.664257 -266.267645 
L 373.70233 -265.659131 
L 374.740402 -265.0482 
L 375.778474 -264.43485 
L 376.816547 -263.819082 
L 377.854619 -263.200897 
L 378.892692 -262.580295 
L 379.930764 -261.957275 
L 380.968837 -261.331837 
L 382.006909 -260.703983 
L 383.044982 -260.073712 
L 384.083054 -259.441023 
L 385.121127 -258.805917 
L 386.159199 -258.168394 
L 387.197271 -257.528453 
L 388.235344 -256.886095 
L 389.273416 -256.24132 
L 390.311489 -255.594127 
L 391.349561 -254.944515 
L 392.387634 -254.292486 
L 393.425706 -253.638038 
L 394.463779 -252.981172 
L 395.501851 -252.321886 
L 396.539923 -251.660181 
L 397.577996 -250.996056 
L 398.616068 -250.329511 
L 399.654141 -249.660546 
L 400.692213 -248.989159 
L 401.730286 -248.315351 
L 402.768358 -247.639121 
L 403.806431 -246.960468 
L 404.844503 -246.279393 
L 405.882576 -245.595893 
L 406.920648 -244.909969 
L 407.95872 -244.22162 
L 408.996793 -243.530846 
L 410.034865 -242.837645 
L 411.072938 -242.142017 
L 412.11101 -241.443961 
L 413.149083 -240.743476 
L 414.187155 -240.040562 
L 415.225228 -239.335218 
L 416.2633 -238.627442 
L 417.301373 -237.917234 
L 418.339445 -237.204593 
L 419.377517 -236.489519 
L 420.41559 -235.772009 
L 421.453662 -235.052063 
L 422.491735 -234.32968 
L 423.529807 -233.60486 
L 424.56788 -232.8776 
L 425.605952 -232.147899 
L 426.644025 -231.415758 
L 427.682097 -230.681173 
L 428.72017 -229.944145 
L 429.758242 -229.204672 
L 430.796314 -228.462752 
L 431.834387 -227.718385 
L 432.872459 -226.971569 
L 433.910532 -226.222302 
L 434.948604 -225.470584 
L 435.986677 -224.716413 
L 437.024749 -223.959788 
L 438.062822 -223.200706 
L 439.100894 -222.439168 
L 440.138966 -221.67517 
L 441.177039 -220.908712 
L 442.215111 -220.139792 
L 443.253184 -219.368409 
L 444.291256 -218.59456 
L 445.329329 -217.818245 
L 446.367401 -217.039461 
L 447.405474 -216.258206 
L 448.443546 -215.47448 
L 449.481619 -214.688281 
L 450.519691 -213.899606 
L 451.557763 -213.108453 
L 452.595836 -212.314822 
L 453.633908 -211.51871 
L 454.671981 -210.720114 
L 455.710053 -209.919034 
L 456.748126 -209.115468 
L 457.786198 -208.309413 
L 458.824271 -207.500867 
L 459.862343 -206.689828 
L 460.900416 -205.876295 
L 461.938488 -205.060265 
L 462.97656 -204.241735 
L 464.014633 -203.420705 
L 465.052705 -202.597172 
L 466.090778 -201.771133 
L 467.12885 -200.942587 
L 468.166923 -200.11153 
L 469.204995 -199.277962 
L 470.243068 -198.441879 
L 471.28114 -197.603279 
L 472.319213 -196.76216 
L 473.357285 -195.918519 
L 474.395357 -195.072354 
L 475.43343 -194.223663 
L 476.471502 -193.372443 
L 477.509575 -192.518692 
L 478.547647 -191.662407 
L 479.58572 -190.803585 
L 480.623792 -189.942224 
L 481.661865 -189.078322 
L 482.699937 -188.211875 
L 483.73801 -187.342881 
L 484.776082 -186.471337 
L 485.814154 -185.597241 
L 486.852227 -184.72059 
L 487.890299 -183.841381 
L 488.928372 -182.959611 
L 489.966444 -182.075277 
L 491.004517 -181.188377 
L 492.042589 -180.298907 
L 493.080662 -179.406865 
L 494.118734 -178.512248 
L 495.156806 -177.615052 
L 496.194879 -176.715275 
L 497.232951 -175.812914 
L 498.271024 -174.907966 
L 499.309096 -174.000426 
L 500.347169 -173.090294 
L 501.385241 -172.177564 
L 502.423314 -171.262234 
L 503.461386 -170.344301 
L 504.499459 -169.423762 
L 505.537531 -168.500613 
L 506.575603 -167.57485 
L 507.613676 -166.646471 
L 508.651748 -165.715473 
L 509.689821 -164.781851 
L 510.727893 -163.845603 
L 511.765966 -162.906724 
L 512.804038 -161.965212 
L 513.842111 -161.021063 
L 514.880183 -160.074273 
L 515.918256 -159.124839 
L 516.956328 -158.172757 
L 517.9944 -157.218024 
L 519.032473 -156.260635 
L 520.070545 -155.300588 
L 521.108618 -154.337878 
L 522.14669 -153.372501 
L 523.184763 -152.404455 
L 524.222835 -151.433734 
L 525.260908 -150.460336 
L 526.29898 -149.484255 
L 527.337053 -148.50549 
L 528.375125 -147.524034 
L 529.413197 -146.539885 
L 530.45127 -145.553038 
L 531.489342 -144.56349 
L 532.527415 -143.571236 
L 533.565487 -142.576272 
L 534.60356 -141.578594 
L 535.641632 -140.578197 
L 536.679705 -139.575079 
L 537.717777 -138.569234 
L 538.755849 -137.560657 
L 539.793922 -136.549346 
L 540.831994 -135.535295 
L 541.870067 -134.5185 
L 542.908139 -133.498957 
L 543.946212 -132.476661 
L 544.984284 -131.451608 
L 546.022357 -130.423793 
L 547.060429 -129.393212 
L 548.098502 -128.35986 
L 549.136574 -127.323733 
L 550.174646 -126.284825 
L 551.212719 -125.243133 
L 552.250791 -124.198651 
L 553.288864 -123.151375 
L 554.326936 -122.1013 
L 555.365009 -121.048422 
L 556.403081 -119.992734 
L 557.441154 -118.934233 
L 558.479226 -117.872914 
L 559.517299 -116.808772 
L 560.555371 -115.741801 
L 561.593443 -114.671996 
L 562.631516 -113.599354 
L 563.669588 -112.523867 
L 564.707661 -111.445533 
L 565.745733 -110.364344 
L 566.783806 -109.280296 
L 567.821878 -108.193384 
L 568.859951 -107.103603 
L 569.898023 -106.010947 
L 570.936096 -104.915411 
L 571.974168 -103.816989 
L 573.01224 -102.715677 
L 574.050313 -101.611468 
L 575.088385 -100.504357 
L 576.126458 -99.394339 
L 577.16453 -98.281408 
L 578.202603 -97.165558 
L 579.240675 -96.046784 
L 580.278748 -94.92508 
L 581.31682 -93.800441 
L 582.354892 -92.672861 
L 583.392965 -91.542333 
L 584.431037 -90.408852 
L 585.46911 -89.272413 
L 586.507182 -88.133009 
L 587.545255 -86.990634 
L 588.583327 -85.845283 
L 589.6214 -84.696949 
L 590.659472 -83.545626 
L 591.697545 -82.391309 
L 592.735617 -81.23399 
L 593.773689 -80.073665 
L 594.811762 -78.910326 
L 595.849834 -77.743967 
L 596.887907 -76.574583 
L 597.925979 -75.402166 
L 598.964052 -74.22671 
L 600.002124 -73.04821 
L 601.040197 -71.866658 
L 602.078269 -70.682047 
L 603.116342 -69.494372 
L 604.154414 -68.303626 
L 605.192486 -67.109802 
L 606.230559 -65.912894 
L 607.268631 -64.712894 
L 608.306704 -63.509796 
L 609.344776 -62.303593 
L 610.382849 -61.094279 
L 611.420921 -59.881846 
L 612.458994 -58.666287 
L 613.497066 -57.447596 
L 614.535139 -56.225766 
L 615.573211 -55.000789 
L 616.611283 -53.772658 
L 617.649356 -52.541366 
L 618.687428 -51.306906 
L 619.725501 -50.06927 
L 620.763573 -48.828452 
L 621.801646 -47.584444 
L 622.839718 -46.337239 
L 623.877791 -45.086828 
L 624.915863 -43.833206 
L 625.953935 -42.576363 
L 626.992008 -41.316293 
L 628.03008 -40.052988 
L 629.068153 -38.78644 
L 630.106225 -37.516642 
L 631.144298 -36.243585 
L 632.18237 -34.967263 
L 633.220443 -33.687666 
L 634.258515 -32.404788 
L 635.296588 -31.118619 
L 636.33466 -29.829153 
L 637.372732 -28.536381 
L 638.410805 -27.240295 
L 639.448877 -25.940887 
L 640.48695 -24.638149 
L 641.525022 -23.332071 
L 642.563095 -22.022647 
L 643.601167 -20.709867 
L 644.63924 -19.393724 
L 645.677312 -18.074208 
L 646.715385 -16.751312 
L 647.753457 -15.425026 
L 648.791529 -14.095342 
L 649.829602 -12.762252 
L 650.867674 -11.425746 
L 651.905747 -10.085815 
L 652.943819 -8.742452 
L 653.981892 -7.395647 
L 655.019964 -6.04539 
L 656.058037 -4.691674 
L 657.096109 -3.334489 
L 658.134182 -1.973825 
L 659.172254 -0.609674 
L 660.210326 0.757973 
L 661.248399 2.129126 
L 662.286471 3.503795 
L 663.324544 4.881988 
L 664.362616 6.263715 
L 665.400689 7.648987 
L 666.438761 9.037811 
L 667.476834 10.430198 
L 668.514906 11.826158 
L 669.552978 13.2257 
L 670.591051 14.628834 
L 671.629123 16.035571 
L 672.667196 17.445919 
L 673.705268 18.85989 
L 674.743341 20.277493 
L 675.781413 21.698738 
L 676.819486 23.123635 
L 677.857558 24.552195 
L 678.895631 25.984428 
L 679.933703 27.420345 
L 680.971775 28.859955 
L 682.009848 30.30327 
L 683.04792 31.7503 
L 684.085993 33.201056 
L 685.124065 34.655547 
L 686.162138 36.113786 
L 687.20021 37.575783 
L 688.238283 39.041549 
L 689.276355 40.511095 
L 690.314428 41.984432 
L 691.3525 43.46157 
L 691.3525 -327.198333 
L 691.3525 -327.198333 
L 690.314428 -327.198333 
L 689.276355 -327.198333 
L 688.238283 -327.198333 
L 687.20021 -327.198333 
L 686.162138 -327.198333 
L 685.124065 -327.198333 
L 684.085993 -327.198333 
L 683.04792 -327.198333 
L 682.009848 -327.198333 
L 680.971775 -327.198333 
L 679.933703 -327.198333 
L 678.895631 -327.198333 
L 677.857558 -327.198333 
L 676.819486 -327.198333 
L 675.781413 -327.198333 
L 674.743341 -327.198333 
L 673.705268 -327.198333 
L 672.667196 -327.198333 
L 671.629123 -327.198333 
L 670.591051 -327.198333 
L 669.552978 -327.198333 
L 668.514906 -327.198333 
L 667.476834 -327.198333 
L 666.438761 -327.198333 
L 665.400689 -327.198333 
L 664.362616 -327.198333 
L 663.324544 -327.198333 
L 662.286471 -327.198333 
L 661.248399 -327.198333 
L 660.210326 -327.198333 
L 659.172254 -327.198333 
L 658.134182 -327.198333 
L 657.096109 -327.198333 
L 656.058037 -327.198333 
L 655.019964 -327.198333 
L 653.981892 -327.198333 
L 652.943819 -327.198333 
L 651.905747 -327.198333 
L 650.867674 -327.198333 
L 649.829602 -327.198333 
L 648.791529 -327.198333 
L 647.753457 -327.198333 
L 646.715385 -327.198333 
L 645.677312 -327.198333 
L 644.63924 -327.198333 
L 643.601167 -327.198333 
L 642.563095 -327.198333 
L 641.525022 -327.198333 
L 640.48695 -327.198333 
L 639.448877 -327.198333 
L 638.410805 -327.198333 
L 637.372732 -327.198333 
L 636.33466 -327.198333 
L 635.296588 -327.198333 
L 634.258515 -327.198333 
L 633.220443 -327.198333 
L 632.18237 -327.198333 
L 631.144298 -327.198333 
L 630.106225 -327.198333 
L 629.068153 -327.198333 
L 628.03008 -327.198333 
L 626.992008 -327.198333 
L 625.953935 -327.198333 
L 624.915863 -327.198333 
L 623.877791 -327.198333 
L 622.839718 -327.198333 
L 621.801646 -327.198333 
L 620.763573 -327.198333 
L 619.725501 -327.198333 
L 618.687428 -327.198333 
L 617.649356 -327.198333 
L 616.611283 -327.198333 
L 615.573211 -327.198333 
L 614.535139 -327.198333 
L 613.497066 -327.198333 
L 612.458994 -327.198333 
L 611.420921 -327.198333 
L 610.382849 -327.198333 
L 609.344776 -327.198333 
L 608.306704 -327.198333 
L 607.268631 -327.198333 
L 606.230559 -327.198333 
L 605.192486 -327.198333 
L 604.154414 -327.198333 
L 603.116342 -327.198333 
L 602.078269 -327.198333 
L 601.040197 -327.198333 
L 600.002124 -327.198333 
L 598.964052 -327.198333 
L 597.925979 -327.198333 
L 596.887907 -327.198333 
L 595.849834 -327.198333 
L 594.811762 -327.198333 
L 593.773689 -327.198333 
L 592.735617 -327.198333 
L 591.697545 -327.198333 
L 590.659472 -327.198333 
L 589.6214 -327.198333 
L 588.583327 -327.198333 
L 587.545255 -327.198333 
L 586.507182 -327.198333 
L 585.46911 -327.198333 
L 584.431037 -327.198333 
L 583.392965 -327.198333 
L 582.354892 -327.198333 
L 581.31682 -327.198333 
L 580.278748 -327.198333 
L 579.240675 -327.198333 
L 578.202603 -327.198333 
L 577.16453 -327.198333 
L 576.126458 -327.198333 
L 575.088385 -327.198333 
L 574.050313 -327.198333 
L 573.01224 -327.198333 
L 571.974168 -327.198333 
L 570.936096 -327.198333 
L 569.898023 -327.198333 
L 568.859951 -327.198333 
L 567.821878 -327.198333 
L 566.783806 -327.198333 
L 565.745733 -327.198333 
L 564.707661 -327.198333 
L 563.669588 -327.198333 
L 562.631516 -327.198333 
L 561.593443 -327.198333 
L 560.555371 -327.198333 
L 559.517299 -327.198333 
L 558.479226 -327.198333 
L 557.441154 -327.198333 
L 556.403081 -327.198333 
L 555.365009 -327.198333 
L 554.326936 -327.198333 
L 553.288864 -327.198333 
L 552.250791 -327.198333 
L 551.212719 -327.198333 
L 550.174646 -327.198333 
L 549.136574 -327.198333 
L 548.098502 -327.198333 
L 547.060429 -327.198333 
L 546.022357 -327.198333 
L 544.984284 -327.198333 
L 543.946212 -327.198333 
L 542.908139 -327.198333 
L 541.870067 -327.198333 
L 540.831994 -327.198333 
L 539.793922 -327.198333 
L 538.755849 -327.198333 
L 537.717777 -327.198333 
L 536.679705 -327.198333 
L 535.641632 -327.198333 
L 534.60356 -327.198333 
L 533.565487 -327.198333 
L 532.527415 -327.198333 
L 531.489342 -327.198333 
L 530.45127 -327.198333 
L 529.413197 -327.198333 
L 528.375125 -327.198333 
L 527.337053 -327.198333 
L 526.29898 -327.198333 
L 525.260908 -327.198333 
L 524.222835 -327.198333 
L 523.184763 -327.198333 
L 522.14669 -327.198333 
L 521.108618 -327.198333 
L 520.070545 -327.198333 
L 519.032473 -327.198333 
L 517.9944 -327.198333 
L 516.956328 -327.198333 
L 515.918256 -327.198333 
L 514.880183 -327.198333 
L 513.842111 -327.198333 
L 512.804038 -327.198333 
L 511.765966 -327.198333 
L 510.727893 -327.198333 
L 509.689821 -327.198333 
L 508.651748 -327.198333 
L 507.613676 -327.198333 
L 506.575603 -327.198333 
L 505.537531 -327.198333 
L 504.499459 -327.198333 
L 503.461386 -327.198333 
L 502.423314 -327.198333 
L 501.385241 -327.198333 
L 500.347169 -327.198333 
L 499.309096 -327.198333 
L 498.271024 -327.198333 
L 497.232951 -327.198333 
L 496.194879 -327.198333 
L 495.156806 -327.198333 
L 494.118734 -327.198333 
L 493.080662 -327.198333 
L 492.042589 -327.198333 
L 491.004517 -327.198333 
L 489.966444 -327.198333 
L 488.928372 -327.198333 
L 487.890299 -327.198333 
L 486.852227 -327.198333 
L 485.814154 -327.198333 
L 484.776082 -327.198333 
L 483.73801 -327.198333 
L 482.699937 -327.198333 
L 481.661865 -327.198333 
L 480.623792 -327.198333 
L 479.58572 -327.198333 
L 478.547647 -327.198333 
L 477.509575 -327.198333 
L 476.471502 -327.198333 
L 475.43343 -327.198333 
L 474.395357 -327.198333 
L 473.357285 -327.198333 
L 472.319213 -327.198333 
L 471.28114 -327.198333 
L 470.243068 -327.198333 
L 469.204995 -327.198333 
L 468.166923 -327.198333 
L 467.12885 -327.198333 
L 466.090778 -327.198333 
L 465.052705 -327.198333 
L 464.014633 -327.198333 
L 462.97656 -327.198333 
L 461.938488 -327.198333 
L 460.900416 -327.198333 
L 459.862343 -327.198333 
L 458.824271 -327.198333 
L 457.786198 -327.198333 
L 456.748126 -327.198333 
L 455.710053 -327.198333 
L 454.671981 -327.198333 
L 453.633908 -327.198333 
L 452.595836 -327.198333 
L 451.557763 -327.198333 
L 450.519691 -327.198333 
L 449.481619 -327.198333 
L 448.443546 -327.198333 
L 447.405474 -327.198333 
L 446.367401 -327.198333 
L 445.329329 -327.198333 
L 444.291256 -327.198333 
L 443.253184 -327.198333 
L 442.215111 -327.198333 
L 441.177039 -327.198333 
L 440.138966 -327.198333 
L 439.100894 -327.198333 
L 438.062822 -327.198333 
L 437.024749 -327.198333 
L 435.986677 -327.198333 
L 434.948604 -327.198333 
L 433.910532 -327.198333 
L 432.872459 -327.198333 
L 431.834387 -327.198333 
L 430.796314 -327.198333 
L 429.758242 -327.198333 
L 428.72017 -327.198333 
L 427.682097 -327.198333 
L 426.644025 -327.198333 
L 425.605952 -327.198333 
L 424.56788 -327.198333 
L 423.529807 -327.198333 
L 422.491735 -327.198333 
L 421.453662 -327.198333 
L 420.41559 -327.198333 
L 419.377517 -327.198333 
L 418.339445 -327.198333 
L 417.301373 -327.198333 
L 416.2633 -327.198333 
L 415.225228 -327.198333 
L 414.187155 -327.198333 
L 413.149083 -327.198333 
L 412.11101 -327.198333 
L 411.072938 -327.198333 
L 410.034865 -327.198333 
L 408.996793 -327.198333 
L 407.95872 -327.198333 
L 406.920648 -327.198333 
L 405.882576 -327.198333 
L 404.844503 -327.198333 
L 403.806431 -327.198333 
L 402.768358 -327.198333 
L 401.730286 -327.198333 
L 400.692213 -327.198333 
L 399.654141 -327.198333 
L 398.616068 -327.198333 
L 397.577996 -327.198333 
L 396.539923 -327.198333 
L 395.501851 -327.198333 
L 394.463779 -327.198333 
L 393.425706 -327.198333 
L 392.387634 -327.198333 
L 391.349561 -327.198333 
L 390.311489 -327.198333 
L 389.273416 -327.198333 
L 388.235344 -327.198333 
L 387.197271 -327.198333 
L 386.159199 -327.198333 
L 385.121127 -327.198333 
L 384.083054 -327.198333 
L 383.044982 -327.198333 
L 382.006909 -327.198333 
L 380.968837 -327.198333 
L 379.930764 -327.198333 
L 378.892692 -327.198333 
L 377.854619 -327.198333 
L 376.816547 -327.198333 
L 375.778474 -327.198333 
L 374.740402 -327.198333 
L 373.70233 -327.198333 
L 372.664257 -327.198333 
L 371.626185 -327.198333 
L 370.588112 -327.198333 
L 369.55004 -327.198333 
L 368.511967 -327.198333 
L 367.473895 -327.198333 
L 366.435822 -327.198333 
L 365.39775 -327.198333 
L 364.359677 -327.198333 
L 363.321605 -327.198333 
L 362.283533 -327.198333 
L 361.24546 -327.198333 
L 360.207388 -327.198333 
L 359.169315 -327.198333 
L 358.131243 -327.198333 
L 357.09317 -327.198333 
L 356.055098 -327.198333 
L 355.017025 -327.198333 
L 353.978953 -327.198333 
L 352.94088 -327.198333 
L 351.902808 -327.198333 
L 350.864736 -327.198333 
L 349.826663 -327.198333 
L 348.788591 -327.198333 
L 347.750518 -327.198333 
L 346.712446 -327.198333 
L 345.674373 -327.198333 
L 344.636301 -327.198333 
L 343.598228 -327.198333 
L 342.560156 -327.198333 
L 341.522084 -327.198333 
L 340.484011 -327.198333 
L 339.445939 -327.198333 
L 338.407866 -327.198333 
L 337.369794 -327.198333 
L 336.331721 -327.198333 
L 335.293649 -327.198333 
L 334.255576 -327.198333 
L 333.217504 -327.198333 
L 332.179431 -327.198333 
L 331.141359 -327.198333 
L 330.103287 -327.198333 
L 329.065214 -327.198333 
L 328.027142 -327.198333 
L 326.989069 -327.198333 
L 325.950997 -327.198333 
L 324.912924 -327.198333 
L 323.874852 -327.198333 
L 322.836779 -327.198333 
L 321.798707 -327.198333 
L 320.760634 -327.198333 
L 319.722562 -327.198333 
L 318.68449 -327.198333 
L 317.646417 -327.198333 
L 316.608345 -327.198333 
L 315.570272 -327.198333 
L 314.5322 -327.198333 
L 313.494127 -327.198333 
L 312.456055 -327.198333 
L 311.417982 -327.198333 
L 310.37991 -327.198333 
L 309.341837 -327.198333 
L 308.303765 -327.198333 
L 307.265693 -327.198333 
L 306.22762 -327.198333 
L 305.189548 -327.198333 
L 304.151475 -327.198333 
L 303.113403 -327.198333 
L 302.07533 -327.198333 
L 301.037258 -327.198333 
L 299.999185 -327.198333 
L 298.961113 -327.198333 
L 297.923041 -327.198333 
L 296.884968 -327.198333 
L 295.846896 -327.198333 
L 294.808823 -327.198333 
L 293.770751 -327.198333 
L 292.732678 -327.198333 
L 291.694606 -327.198333 
L 290.656533 -327.198333 
L 289.618461 -327.198333 
L 288.580388 -327.198333 
L 287.542316 -327.198333 
L 286.504244 -327.198333 
L 285.466171 -327.198333 
L 284.428099 -327.198333 
L 283.390026 -327.198333 
L 282.351954 -327.198333 
L 281.313881 -327.198333 
L 280.275809 -327.198333 
L 279.237736 -327.198333 
L 278.199664 -327.198333 
L 277.161591 -327.198333 
L 276.123519 -327.198333 
L 275.085447 -327.198333 
L 274.047374 -327.198333 
L 273.009302 -327.198333 
L 271.971229 -327.198333 
L 270.933157 -327.198333 
L 269.895084 -327.198333 
L 268.857012 -327.198333 
L 267.818939 -327.198333 
L 266.780867 -327.198333 
L 265.742794 -327.198333 
L 264.704722 -327.198333 
L 263.66665 -327.198333 
L 262.628577 -327.198333 
L 261.590505 -327.198333 
L 260.552432 -327.198333 
L 259.51436 -327.198333 
L 258.476287 -327.198333 
L 257.438215 -327.198333 
L 256.400142 -327.198333 
L 255.36207 -327.198333 
L 254.323998 -327.198333 
L 253.285925 -327.198333 
L 252.247853 -327.198333 
L 251.20978 -327.198333 
L 250.171708 -327.198333 
L 249.133635 -327.198333 
L 248.095563 -327.198333 
L 247.05749 -327.198333 
L 246.019418 -327.198333 
L 244.981345 -327.198333 
L 243.943273 -327.198333 
L 242.905201 -327.198333 
L 241.867128 -327.198333 
L 240.829056 -327.198333 
L 239.790983 -327.198333 
L 238.752911 -327.198333 
L 237.714838 -327.198333 
L 236.676766 -327.198333 
L 235.638693 -327.198333 
L 234.600621 -327.198333 
L 233.562548 -327.198333 
L 232.524476 -327.198333 
L 231.486404 -327.198333 
L 230.448331 -327.198333 
L 229.410259 -327.198333 
L 228.372186 -327.198333 
L 227.334114 -327.198333 
L 226.296041 -327.198333 
z
" style="stroke: #ff0000; stroke-opacity: 0.12"/>
    </defs>
    <g clip-path="url(#p6d824b3962)">
     <use xlink:href="#me2ec0838b7" x="0" y="410.661875" style="fill: #ff0000; fill-opacity: 0.12; stroke: #ff0000; stroke-opacity: 0.12"/>
    </g>
   </g>
   <g id="FillBetweenPolyCollection_2">
    <defs>
     <path id="me48c98f9cb" d="M 69.547101 -327.198333 
L 69.547101 -327.232717 
L 70.585173 -327.528411 
L 71.623246 -327.819209 
L 72.661318 -328.105139 
L 73.699391 -328.386226 
L 74.737463 -328.662498 
L 75.775536 -328.93398 
L 76.813608 -329.200698 
L 77.851681 -329.462678 
L 78.889753 -329.719945 
L 79.927825 -329.972523 
L 80.965898 -330.220439 
L 82.00397 -330.463715 
L 83.042043 -330.702377 
L 84.080115 -330.936449 
L 85.118188 -331.165953 
L 86.15626 -331.390913 
L 87.194333 -331.611353 
L 88.232405 -331.827296 
L 89.270478 -332.038764 
L 90.30855 -332.245779 
L 91.346622 -332.448364 
L 92.384695 -332.646541 
L 93.422767 -332.840332 
L 94.46084 -333.029757 
L 95.498912 -333.214839 
L 96.536985 -333.395599 
L 97.575057 -333.572057 
L 98.61313 -333.744234 
L 99.651202 -333.91215 
L 100.689275 -334.075826 
L 101.727347 -334.235282 
L 102.765419 -334.390537 
L 103.803492 -334.541612 
L 104.841564 -334.688524 
L 105.879637 -334.831295 
L 106.917709 -334.969942 
L 107.955782 -335.104485 
L 108.993854 -335.234942 
L 110.031927 -335.361332 
L 111.069999 -335.483672 
L 112.108072 -335.601982 
L 113.146144 -335.716278 
L 114.184216 -335.826579 
L 115.222289 -335.932901 
L 116.260361 -336.035264 
L 117.298434 -336.133683 
L 118.336506 -336.228175 
L 119.374579 -336.318758 
L 120.412651 -336.405448 
L 121.450724 -336.488262 
L 122.488796 -336.567215 
L 123.526868 -336.642325 
L 124.564941 -336.713607 
L 125.603013 -336.781077 
L 126.641086 -336.844751 
L 127.679158 -336.904643 
L 128.717231 -336.960771 
L 129.755303 -337.013148 
L 130.793376 -337.061791 
L 131.831448 -337.106713 
L 132.869521 -337.14793 
L 133.907593 -337.185457 
L 134.945665 -337.219307 
L 135.983738 -337.249496 
L 137.02181 -337.276037 
L 138.059883 -337.298945 
L 139.097955 -337.318234 
L 140.136028 -337.333916 
L 141.1741 -337.346007 
L 142.212173 -337.354519 
L 143.250245 -337.359467 
L 144.288318 -337.360863 
L 145.32639 -337.35872 
L 146.364462 -337.353051 
L 147.402535 -337.34387 
L 148.440607 -337.33119 
L 149.47868 -337.315022 
L 150.516752 -337.295379 
L 151.554825 -337.272274 
L 152.592897 -337.24572 
L 153.63097 -337.215727 
L 154.669042 -337.182309 
L 155.707115 -337.145477 
L 156.745187 -337.105243 
L 157.783259 -337.06162 
L 158.821332 -337.014617 
L 159.859404 -336.964247 
L 160.897477 -336.910522 
L 161.935549 -336.853452 
L 162.973622 -336.793049 
L 164.011694 -336.729324 
L 165.049767 -336.662288 
L 166.087839 -336.591951 
L 167.125911 -336.518324 
L 168.163984 -336.441419 
L 169.202056 -336.361245 
L 170.240129 -336.277813 
L 171.278201 -336.191133 
L 172.316274 -336.101216 
L 173.354346 -336.008071 
L 174.392419 -335.911709 
L 175.430491 -335.81214 
L 176.468564 -335.709374 
L 177.506636 -335.603419 
L 178.544708 -335.494287 
L 179.582781 -335.381986 
L 180.620853 -335.266526 
L 181.658926 -335.147917 
L 182.696998 -335.026167 
L 183.735071 -334.901286 
L 184.773143 -334.773283 
L 185.811216 -334.642167 
L 186.849288 -334.507948 
L 187.887361 -334.370633 
L 188.925433 -334.230232 
L 189.963505 -334.086753 
L 191.001578 -333.940205 
L 192.03965 -333.790597 
L 193.077723 -333.637937 
L 194.115795 -333.482233 
L 195.153868 -333.323493 
L 196.19194 -333.161727 
L 197.230013 -332.996941 
L 198.268085 -332.829144 
L 199.306158 -332.658345 
L 200.34423 -332.48455 
L 201.382302 -332.307768 
L 202.420375 -332.128006 
L 203.458447 -331.945272 
L 204.49652 -331.759574 
L 205.534592 -331.570919 
L 206.572665 -331.379315 
L 207.610737 -331.184769 
L 208.64881 -330.987288 
L 209.686882 -330.786879 
L 210.724954 -330.58355 
L 211.763027 -330.377308 
L 212.801099 -330.16816 
L 213.839172 -329.956113 
L 214.877244 -329.741173 
L 215.915317 -329.523347 
L 216.953389 -329.302643 
L 217.991462 -329.079066 
L 219.029534 -328.852624 
L 220.067607 -328.623323 
L 221.105679 -328.39117 
L 222.143751 -328.15617 
L 223.181824 -327.918331 
L 224.219896 -327.677658 
L 225.257969 -327.434158 
L 225.257969 -327.198333 
L 225.257969 -327.198333 
L 224.219896 -327.198333 
L 223.181824 -327.198333 
L 222.143751 -327.198333 
L 221.105679 -327.198333 
L 220.067607 -327.198333 
L 219.029534 -327.198333 
L 217.991462 -327.198333 
L 216.953389 -327.198333 
L 215.915317 -327.198333 
L 214.877244 -327.198333 
L 213.839172 -327.198333 
L 212.801099 -327.198333 
L 211.763027 -327.198333 
L 210.724954 -327.198333 
L 209.686882 -327.198333 
L 208.64881 -327.198333 
L 207.610737 -327.198333 
L 206.572665 -327.198333 
L 205.534592 -327.198333 
L 204.49652 -327.198333 
L 203.458447 -327.198333 
L 202.420375 -327.198333 
L 201.382302 -327.198333 
L 200.34423 -327.198333 
L 199.306158 -327.198333 
L 198.268085 -327.198333 
L 197.230013 -327.198333 
L 196.19194 -327.198333 
L 195.153868 -327.198333 
L 194.115795 -327.198333 
L 193.077723 -327.198333 
L 192.03965 -327.198333 
L 191.001578 -327.198333 
L 189.963505 -327.198333 
L 188.925433 -327.198333 
L 187.887361 -327.198333 
L 186.849288 -327.198333 
L 185.811216 -327.198333 
L 184.773143 -327.198333 
L 183.735071 -327.198333 
L 182.696998 -327.198333 
L 181.658926 -327.198333 
L 180.620853 -327.198333 
L 179.582781 -327.198333 
L 178.544708 -327.198333 
L 177.506636 -327.198333 
L 176.468564 -327.198333 
L 175.430491 -327.198333 
L 174.392419 -327.198333 
L 173.354346 -327.198333 
L 172.316274 -327.198333 
L 171.278201 -327.198333 
L 170.240129 -327.198333 
L 169.202056 -327.198333 
L 168.163984 -327.198333 
L 167.125911 -327.198333 
L 166.087839 -327.198333 
L 165.049767 -327.198333 
L 164.011694 -327.198333 
L 162.973622 -327.198333 
L 161.935549 -327.198333 
L 160.897477 -327.198333 
L 159.859404 -327.198333 
L 158.821332 -327.198333 
L 157.783259 -327.198333 
L 156.745187 -327.198333 
L 155.707115 -327.198333 
L 154.669042 -327.198333 
L 153.63097 -327.198333 
L 152.592897 -327.198333 
L 151.554825 -327.198333 
L 150.516752 -327.198333 
L 149.47868 -327.198333 
L 148.440607 -327.198333 
L 147.402535 -327.198333 
L 146.364462 -327.198333 
L 145.32639 -327.198333 
L 144.288318 -327.198333 
L 143.250245 -327.198333 
L 142.212173 -327.198333 
L 141.1741 -327.198333 
L 140.136028 -327.198333 
L 139.097955 -327.198333 
L 138.059883 -327.198333 
L 137.02181 -327.198333 
L 135.983738 -327.198333 
L 134.945665 -327.198333 
L 133.907593 -327.198333 
L 132.869521 -327.198333 
L 131.831448 -327.198333 
L 130.793376 -327.198333 
L 129.755303 -327.198333 
L 128.717231 -327.198333 
L 127.679158 -327.198333 
L 126.641086 -327.198333 
L 125.603013 -327.198333 
L 124.564941 -327.198333 
L 123.526868 -327.198333 
L 122.488796 -327.198333 
L 121.450724 -327.198333 
L 120.412651 -327.198333 
L 119.374579 -327.198333 
L 118.336506 -327.198333 
L 117.298434 -327.198333 
L 116.260361 -327.198333 
L 115.222289 -327.198333 
L 114.184216 -327.198333 
L 113.146144 -327.198333 
L 112.108072 -327.198333 
L 111.069999 -327.198333 
L 110.031927 -327.198333 
L 108.993854 -327.198333 
L 107.955782 -327.198333 
L 106.917709 -327.198333 
L 105.879637 -327.198333 
L 104.841564 -327.198333 
L 103.803492 -327.198333 
L 102.765419 -327.198333 
L 101.727347 -327.198333 
L 100.689275 -327.198333 
L 99.651202 -327.198333 
L 98.61313 -327.198333 
L 97.575057 -327.198333 
L 96.536985 -327.198333 
L 95.498912 -327.198333 
L 94.46084 -327.198333 
L 93.422767 -327.198333 
L 92.384695 -327.198333 
L 91.346622 -327.198333 
L 90.30855 -327.198333 
L 89.270478 -327.198333 
L 88.232405 -327.198333 
L 87.194333 -327.198333 
L 86.15626 -327.198333 
L 85.118188 -327.198333 
L 84.080115 -327.198333 
L 83.042043 -327.198333 
L 82.00397 -327.198333 
L 80.965898 -327.198333 
L 79.927825 -327.198333 
L 78.889753 -327.198333 
L 77.851681 -327.198333 
L 76.813608 -327.198333 
L 75.775536 -327.198333 
L 74.737463 -327.198333 
L 73.699391 -327.198333 
L 72.661318 -327.198333 
L 71.623246 -327.198333 
L 70.585173 -327.198333 
L 69.547101 -327.198333 
z
" style="stroke: #008000; stroke-opacity: 0.1"/>
    </defs>
    <g clip-path="url(#p6d824b3962)">
     <use xlink:href="#me48c98f9cb" x="0" y="410.661875" style="fill: #008000; fill-opacity: 0.1; stroke: #008000; stroke-opacity: 0.1"/>
    </g>
   </g>
   <g id="matplotlib.axis_1">
    <g id="xtick_1">
     <g id="line2d_1">
      <path d="M 69.4275 358.796875 
L 69.4275 28.396875 
" clip-path="url(#p6d824b3962)" style="fill: none; stroke: #b0b0b0; stroke-opacity: 0.3; stroke-width: 0.8; stroke-linecap: square"/>
     </g>
     <g id="line2d_2">
      <defs>
       <path id="mc6b6c7cf06" d="M 0 0 
L 0 3.5 
" style="stroke: #000000; stroke-width: 0.8"/>
      </defs>
      <g>
       <use xlink:href="#mc6b6c7cf06" x="69.4275" y="358.796875" style="stroke: #000000; stroke-width: 0.8"/>
      </g>
     </g>
     <g id="text_1">
      <!-- 0.0 -->
      <g transform="translate(56.705 377.954375) scale(0.16 -0.16)">
       <defs>
        <path id="DejaVuSans-30" d="M 2034 4250 
Q 1547 4250 1301 3770 
Q 1056 3291 1056 2328 
Q 1056 1369 1301 889 
Q 1547 409 2034 409 
Q 2525 409 2770 889 
Q 3016 1369 3016 2328 
Q 3016 3291 2770 3770 
Q 2525 4250 2034 4250 
z
M 2034 4750 
Q 2819 4750 3233 4129 
Q 3647 3509 3647 2328 
Q 3647 1150 3233 529 
Q 2819 -91 2034 -91 
Q 1250 -91 836 529 
Q 422 1150 422 2328 
Q 422 3509 836 4129 
Q 1250 4750 2034 4750 
z
" transform="scale(0.015625)"/>
        <path id="DejaVuSans-2e" d="M 684 794 
L 1344 794 
L 1344 0 
L 684 0 
L 684 794 
z
" transform="scale(0.015625)"/>
       </defs>
       <use xlink:href="#DejaVuSans-30"/>
       <use xlink:href="#DejaVuSans-2e" transform="translate(63.623047 0)"/>
       <use xlink:href="#DejaVuSans-30" transform="translate(95.410156 0)"/>
      </g>
     </g>
    </g>
    <g id="xtick_2">
     <g id="line2d_3">
      <path d="M 189.028462 358.796875 
L 189.028462 28.396875 
" clip-path="url(#p6d824b3962)" style="fill: none; stroke: #b0b0b0; stroke-opacity: 0.3; stroke-width: 0.8; stroke-linecap: square"/>
     </g>
     <g id="line2d_4">
      <g>
       <use xlink:href="#mc6b6c7cf06" x="189.028462" y="358.796875" style="stroke: #000000; stroke-width: 0.8"/>
      </g>
     </g>
     <g id="text_2">
      <!-- 0.1 -->
      <g transform="translate(176.305962 377.954375) scale(0.16 -0.16)">
       <defs>
        <path id="DejaVuSans-31" d="M 794 531 
L 1825 531 
L 1825 4091 
L 703 3866 
L 703 4441 
L 1819 4666 
L 2450 4666 
L 2450 531 
L 3481 531 
L 3481 0 
L 794 0 
L 794 531 
z
" transform="scale(0.015625)"/>
       </defs>
       <use xlink:href="#DejaVuSans-30"/>
       <use xlink:href="#DejaVuSans-2e" transform="translate(63.623047 0)"/>
       <use xlink:href="#DejaVuSans-31" transform="translate(95.410156 0)"/>
      </g>
     </g>
    </g>
    <g id="xtick_3">
     <g id="line2d_5">
      <path d="M 308.629423 358.796875 
L 308.629423 28.396875 
" clip-path="url(#p6d824b3962)" style="fill: none; stroke: #b0b0b0; stroke-opacity: 0.3; stroke-width: 0.8; stroke-linecap: square"/>
     </g>
     <g id="line2d_6">
      <g>
       <use xlink:href="#mc6b6c7cf06" x="308.629423" y="358.796875" style="stroke: #000000; stroke-width: 0.8"/>
      </g>
     </g>
     <g id="text_3">
      <!-- 0.2 -->
      <g transform="translate(295.906923 377.954375) scale(0.16 -0.16)">
       <defs>
        <path id="DejaVuSans-32" d="M 1228 531 
L 3431 531 
L 3431 0 
L 469 0 
L 469 531 
Q 828 903 1448 1529 
Q 2069 2156 2228 2338 
Q 2531 2678 2651 2914 
Q 2772 3150 2772 3378 
Q 2772 3750 2511 3984 
Q 2250 4219 1831 4219 
Q 1534 4219 1204 4116 
Q 875 4013 500 3803 
L 500 4441 
Q 881 4594 1212 4672 
Q 1544 4750 1819 4750 
Q 2544 4750 2975 4387 
Q 3406 4025 3406 3419 
Q 3406 3131 3298 2873 
Q 3191 2616 2906 2266 
Q 2828 2175 2409 1742 
Q 1991 1309 1228 531 
z
" transform="scale(0.015625)"/>
       </defs>
       <use xlink:href="#DejaVuSans-30"/>
       <use xlink:href="#DejaVuSans-2e" transform="translate(63.623047 0)"/>
       <use xlink:href="#DejaVuSans-32" transform="translate(95.410156 0)"/>
      </g>
     </g>
    </g>
    <g id="xtick_4">
     <g id="line2d_7">
      <path d="M 428.230385 358.796875 
L 428.230385 28.396875 
" clip-path="url(#p6d824b3962)" style="fill: none; stroke: #b0b0b0; stroke-opacity: 0.3; stroke-width: 0.8; stroke-linecap: square"/>
     </g>
     <g id="line2d_8">
      <g>
       <use xlink:href="#mc6b6c7cf06" x="428.230385" y="358.796875" style="stroke: #000000; stroke-width: 0.8"/>
      </g>
     </g>
     <g id="text_4">
      <!-- 0.3 -->
      <g transform="translate(415.507885 377.954375) scale(0.16 -0.16)">
       <defs>
        <path id="DejaVuSans-33" d="M 2597 2516 
Q 3050 2419 3304 2112 
Q 3559 1806 3559 1356 
Q 3559 666 3084 287 
Q 2609 -91 1734 -91 
Q 1441 -91 1130 -33 
Q 819 25 488 141 
L 488 750 
Q 750 597 1062 519 
Q 1375 441 1716 441 
Q 2309 441 2620 675 
Q 2931 909 2931 1356 
Q 2931 1769 2642 2001 
Q 2353 2234 1838 2234 
L 1294 2234 
L 1294 2753 
L 1863 2753 
Q 2328 2753 2575 2939 
Q 2822 3125 2822 3475 
Q 2822 3834 2567 4026 
Q 2313 4219 1838 4219 
Q 1578 4219 1281 4162 
Q 984 4106 628 3988 
L 628 4550 
Q 988 4650 1302 4700 
Q 1616 4750 1894 4750 
Q 2613 4750 3031 4423 
Q 3450 4097 3450 3541 
Q 3450 3153 3228 2886 
Q 3006 2619 2597 2516 
z
" transform="scale(0.015625)"/>
       </defs>
       <use xlink:href="#DejaVuSans-30"/>
       <use xlink:href="#DejaVuSans-2e" transform="translate(63.623047 0)"/>
       <use xlink:href="#DejaVuSans-33" transform="translate(95.410156 0)"/>
      </g>
     </g>
    </g>
    <g id="xtick_5">
     <g id="line2d_9">
      <path d="M 547.831346 358.796875 
L 547.831346 28.396875 
" clip-path="url(#p6d824b3962)" style="fill: none; stroke: #b0b0b0; stroke-opacity: 0.3; stroke-width: 0.8; stroke-linecap: square"/>
     </g>
     <g id="line2d_10">
      <g>
       <use xlink:href="#mc6b6c7cf06" x="547.831346" y="358.796875" style="stroke: #000000; stroke-width: 0.8"/>
      </g>
     </g>
     <g id="text_5">
      <!-- 0.4 -->
      <g transform="translate(535.108846 377.954375) scale(0.16 -0.16)">
       <defs>
        <path id="DejaVuSans-34" d="M 2419 4116 
L 825 1625 
L 2419 1625 
L 2419 4116 
z
M 2253 4666 
L 3047 4666 
L 3047 1625 
L 3713 1625 
L 3713 1100 
L 3047 1100 
L 3047 0 
L 2419 0 
L 2419 1100 
L 313 1100 
L 313 1709 
L 2253 4666 
z
" transform="scale(0.015625)"/>
       </defs>
       <use xlink:href="#DejaVuSans-30"/>
       <use xlink:href="#DejaVuSans-2e" transform="translate(63.623047 0)"/>
       <use xlink:href="#DejaVuSans-34" transform="translate(95.410156 0)"/>
      </g>
     </g>
    </g>
    <g id="xtick_6">
     <g id="line2d_11">
      <path d="M 667.432308 358.796875 
L 667.432308 28.396875 
" clip-path="url(#p6d824b3962)" style="fill: none; stroke: #b0b0b0; stroke-opacity: 0.3; stroke-width: 0.8; stroke-linecap: square"/>
     </g>
     <g id="line2d_12">
      <g>
       <use xlink:href="#mc6b6c7cf06" x="667.432308" y="358.796875" style="stroke: #000000; stroke-width: 0.8"/>
      </g>
     </g>
     <g id="text_6">
      <!-- 0.5 -->
      <g transform="translate(654.709808 377.954375) scale(0.16 -0.16)">
       <defs>
        <path id="DejaVuSans-35" d="M 691 4666 
L 3169 4666 
L 3169 4134 
L 1269 4134 
L 1269 2991 
Q 1406 3038 1543 3061 
Q 1681 3084 1819 3084 
Q 2600 3084 3056 2656 
Q 3513 2228 3513 1497 
Q 3513 744 3044 326 
Q 2575 -91 1722 -91 
Q 1428 -91 1123 -41 
Q 819 9 494 109 
L 494 744 
Q 775 591 1075 516 
Q 1375 441 1709 441 
Q 2250 441 2565 725 
Q 2881 1009 2881 1497 
Q 2881 1984 2565 2268 
Q 2250 2553 1709 2553 
Q 1456 2553 1204 2497 
Q 953 2441 691 2322 
L 691 4666 
z
" transform="scale(0.015625)"/>
       </defs>
       <use xlink:href="#DejaVuSans-30"/>
       <use xlink:href="#DejaVuSans-2e" transform="translate(63.623047 0)"/>
       <use xlink:href="#DejaVuSans-35" transform="translate(95.410156 0)"/>
      </g>
     </g>
    </g>
    <g id="text_7">
     <!-- Fracción apostada $K$ -->
     <g transform="translate(289.04 399.681875) scale(0.18 -0.18)">
      <defs>
       <path id="DejaVuSans-46" d="M 628 4666 
L 3309 4666 
L 3309 4134 
L 1259 4134 
L 1259 2759 
L 3109 2759 
L 3109 2228 
L 1259 2228 
L 1259 0 
L 628 0 
L 628 4666 
z
" transform="scale(0.015625)"/>
       <path id="DejaVuSans-72" d="M 2631 2963 
Q 2534 3019 2420 3045 
Q 2306 3072 2169 3072 
Q 1681 3072 1420 2755 
Q 1159 2438 1159 1844 
L 1159 0 
L 581 0 
L 581 3500 
L 1159 3500 
L 1159 2956 
Q 1341 3275 1631 3429 
Q 1922 3584 2338 3584 
Q 2397 3584 2469 3576 
Q 2541 3569 2628 3553 
L 2631 2963 
z
" transform="scale(0.015625)"/>
       <path id="DejaVuSans-61" d="M 2194 1759 
Q 1497 1759 1228 1600 
Q 959 1441 959 1056 
Q 959 750 1161 570 
Q 1363 391 1709 391 
Q 2188 391 2477 730 
Q 2766 1069 2766 1631 
L 2766 1759 
L 2194 1759 
z
M 3341 1997 
L 3341 0 
L 2766 0 
L 2766 531 
Q 2569 213 2275 61 
Q 1981 -91 1556 -91 
Q 1019 -91 701 211 
Q 384 513 384 1019 
Q 384 1609 779 1909 
Q 1175 2209 1959 2209 
L 2766 2209 
L 2766 2266 
Q 2766 2663 2505 2880 
Q 2244 3097 1772 3097 
Q 1472 3097 1187 3025 
Q 903 2953 641 2809 
L 641 3341 
Q 956 3463 1253 3523 
Q 1550 3584 1831 3584 
Q 2591 3584 2966 3190 
Q 3341 2797 3341 1997 
z
" transform="scale(0.015625)"/>
       <path id="DejaVuSans-63" d="M 3122 3366 
L 3122 2828 
Q 2878 2963 2633 3030 
Q 2388 3097 2138 3097 
Q 1578 3097 1268 2742 
Q 959 2388 959 1747 
Q 959 1106 1268 751 
Q 1578 397 2138 397 
Q 2388 397 2633 464 
Q 2878 531 3122 666 
L 3122 134 
Q 2881 22 2623 -34 
Q 2366 -91 2075 -91 
Q 1284 -91 818 406 
Q 353 903 353 1747 
Q 353 2603 823 3093 
Q 1294 3584 2113 3584 
Q 2378 3584 2631 3529 
Q 2884 3475 3122 3366 
z
" transform="scale(0.015625)"/>
       <path id="DejaVuSans-69" d="M 603 3500 
L 1178 3500 
L 1178 0 
L 603 0 
L 603 3500 
z
M 603 4863 
L 1178 4863 
L 1178 4134 
L 603 4134 
L 603 4863 
z
" transform="scale(0.015625)"/>
       <path id="DejaVuSans-f3" d="M 1959 3097 
Q 1497 3097 1228 2736 
Q 959 2375 959 1747 
Q 959 1119 1226 758 
Q 1494 397 1959 397 
Q 2419 397 2687 759 
Q 2956 1122 2956 1747 
Q 2956 2369 2687 2733 
Q 2419 3097 1959 3097 
z
M 1959 3584 
Q 2709 3584 3137 3096 
Q 3566 2609 3566 1747 
Q 3566 888 3137 398 
Q 2709 -91 1959 -91 
Q 1206 -91 779 398 
Q 353 888 353 1747 
Q 353 2609 779 3096 
Q 1206 3584 1959 3584 
z
M 2394 5119 
L 3016 5119 
L 1998 3944 
L 1519 3944 
L 2394 5119 
z
" transform="scale(0.015625)"/>
       <path id="DejaVuSans-6e" d="M 3513 2113 
L 3513 0 
L 2938 0 
L 2938 2094 
Q 2938 2591 2744 2837 
Q 2550 3084 2163 3084 
Q 1697 3084 1428 2787 
Q 1159 2491 1159 1978 
L 1159 0 
L 581 0 
L 581 3500 
L 1159 3500 
L 1159 2956 
Q 1366 3272 1645 3428 
Q 1925 3584 2291 3584 
Q 2894 3584 3203 3211 
Q 3513 2838 3513 2113 
z
" transform="scale(0.015625)"/>
       <path id="DejaVuSans-20" transform="scale(0.015625)"/>
       <path id="DejaVuSans-70" d="M 1159 525 
L 1159 -1331 
L 581 -1331 
L 581 3500 
L 1159 3500 
L 1159 2969 
Q 1341 3281 1617 3432 
Q 1894 3584 2278 3584 
Q 2916 3584 3314 3078 
Q 3713 2572 3713 1747 
Q 3713 922 3314 415 
Q 2916 -91 2278 -91 
Q 1894 -91 1617 61 
Q 1341 213 1159 525 
z
M 3116 1747 
Q 3116 2381 2855 2742 
Q 2594 3103 2138 3103 
Q 1681 3103 1420 2742 
Q 1159 2381 1159 1747 
Q 1159 1113 1420 752 
Q 1681 391 2138 391 
Q 2594 391 2855 752 
Q 3116 1113 3116 1747 
z
" transform="scale(0.015625)"/>
       <path id="DejaVuSans-6f" d="M 1959 3097 
Q 1497 3097 1228 2736 
Q 959 2375 959 1747 
Q 959 1119 1226 758 
Q 1494 397 1959 397 
Q 2419 397 2687 759 
Q 2956 1122 2956 1747 
Q 2956 2369 2687 2733 
Q 2419 3097 1959 3097 
z
M 1959 3584 
Q 2709 3584 3137 3096 
Q 3566 2609 3566 1747 
Q 3566 888 3137 398 
Q 2709 -91 1959 -91 
Q 1206 -91 779 398 
Q 353 888 353 1747 
Q 353 2609 779 3096 
Q 1206 3584 1959 3584 
z
" transform="scale(0.015625)"/>
       <path id="DejaVuSans-73" d="M 2834 3397 
L 2834 2853 
Q 2591 2978 2328 3040 
Q 2066 3103 1784 3103 
Q 1356 3103 1142 2972 
Q 928 2841 928 2578 
Q 928 2378 1081 2264 
Q 1234 2150 1697 2047 
L 1894 2003 
Q 2506 1872 2764 1633 
Q 3022 1394 3022 966 
Q 3022 478 2636 193 
Q 2250 -91 1575 -91 
Q 1294 -91 989 -36 
Q 684 19 347 128 
L 347 722 
Q 666 556 975 473 
Q 1284 391 1588 391 
Q 1994 391 2212 530 
Q 2431 669 2431 922 
Q 2431 1156 2273 1281 
Q 2116 1406 1581 1522 
L 1381 1569 
Q 847 1681 609 1914 
Q 372 2147 372 2553 
Q 372 3047 722 3315 
Q 1072 3584 1716 3584 
Q 2034 3584 2315 3537 
Q 2597 3491 2834 3397 
z
" transform="scale(0.015625)"/>
       <path id="DejaVuSans-74" d="M 1172 4494 
L 1172 3500 
L 2356 3500 
L 2356 3053 
L 1172 3053 
L 1172 1153 
Q 1172 725 1289 603 
Q 1406 481 1766 481 
L 2356 481 
L 2356 0 
L 1766 0 
Q 1100 0 847 248 
Q 594 497 594 1153 
L 594 3053 
L 172 3053 
L 172 3500 
L 594 3500 
L 594 4494 
L 1172 4494 
z
" transform="scale(0.015625)"/>
       <path id="DejaVuSans-64" d="M 2906 2969 
L 2906 4863 
L 3481 4863 
L 3481 0 
L 2906 0 
L 2906 525 
Q 2725 213 2448 61 
Q 2172 -91 1784 -91 
Q 1150 -91 751 415 
Q 353 922 353 1747 
Q 353 2572 751 3078 
Q 1150 3584 1784 3584 
Q 2172 3584 2448 3432 
Q 2725 3281 2906 2969 
z
M 947 1747 
Q 947 1113 1208 752 
Q 1469 391 1925 391 
Q 2381 391 2643 752 
Q 2906 1113 2906 1747 
Q 2906 2381 2643 2742 
Q 2381 3103 1925 3103 
Q 1469 3103 1208 2742 
Q 947 2381 947 1747 
z
" transform="scale(0.015625)"/>
       <path id="DejaVuSans-Oblique-4b" d="M 1081 4666 
L 1716 4666 
L 1331 2700 
L 3781 4666 
L 4622 4666 
L 1850 2438 
L 3878 0 
L 3109 0 
L 1247 2272 
L 806 0 
L 172 0 
L 1081 4666 
z
" transform="scale(0.015625)"/>
      </defs>
      <use xlink:href="#DejaVuSans-46" transform="translate(0 0.015625)"/>
      <use xlink:href="#DejaVuSans-72" transform="translate(57.519531 0.015625)"/>
      <use xlink:href="#DejaVuSans-61" transform="translate(98.632812 0.015625)"/>
      <use xlink:href="#DejaVuSans-63" transform="translate(159.912109 0.015625)"/>
      <use xlink:href="#DejaVuSans-63" transform="translate(214.892578 0.015625)"/>
      <use xlink:href="#DejaVuSans-69" transform="translate(269.873047 0.015625)"/>
      <use xlink:href="#DejaVuSans-f3" transform="translate(297.65625 0.015625)"/>
      <use xlink:href="#DejaVuSans-6e" transform="translate(358.837891 0.015625)"/>
      <use xlink:href="#DejaVuSans-20" transform="translate(422.216797 0.015625)"/>
      <use xlink:href="#DejaVuSans-61" transform="translate(454.003906 0.015625)"/>
      <use xlink:href="#DejaVuSans-70" transform="translate(515.283203 0.015625)"/>
      <use xlink:href="#DejaVuSans-6f" transform="translate(578.759766 0.015625)"/>
      <use xlink:href="#DejaVuSans-73" transform="translate(639.941406 0.015625)"/>
      <use xlink:href="#DejaVuSans-74" transform="translate(692.041016 0.015625)"/>
      <use xlink:href="#DejaVuSans-61" transform="translate(731.25 0.015625)"/>
      <use xlink:href="#DejaVuSans-64" transform="translate(792.529297 0.015625)"/>
      <use xlink:href="#DejaVuSans-61" transform="translate(856.005859 0.015625)"/>
      <use xlink:href="#DejaVuSans-20" transform="translate(917.285156 0.015625)"/>
      <use xlink:href="#DejaVuSans-Oblique-4b" transform="translate(949.072266 0.015625)"/>
     </g>
    </g>
   </g>
   <g id="matplotlib.axis_2">
    <g id="ytick_1">
     <g id="line2d_13">
      <path d="M 69.4275 358.796875 
L 691.3525 358.796875 
" clip-path="url(#p6d824b3962)" style="fill: none; stroke: #b0b0b0; stroke-opacity: 0.3; stroke-width: 0.8; stroke-linecap: square"/>
     </g>
     <g id="line2d_14">
      <defs>
       <path id="m60fe2969cb" d="M 0 0 
L -3.5 0 
" style="stroke: #000000; stroke-width: 0.8"/>
      </defs>
      <g>
       <use xlink:href="#m60fe2969cb" x="69.4275" y="358.796875" style="stroke: #000000; stroke-width: 0.8"/>
      </g>
     </g>
     <g id="text_8">
      <!-- −20 -->
      <g transform="translate(28.66 364.875625) scale(0.16 -0.16)">
       <defs>
        <path id="DejaVuSans-2212" d="M 678 2272 
L 4684 2272 
L 4684 1741 
L 678 1741 
L 678 2272 
z
" transform="scale(0.015625)"/>
       </defs>
       <use xlink:href="#DejaVuSans-2212"/>
       <use xlink:href="#DejaVuSans-32" transform="translate(83.789062 0)"/>
       <use xlink:href="#DejaVuSans-30" transform="translate(147.412109 0)"/>
      </g>
     </g>
    </g>
    <g id="ytick_2">
     <g id="line2d_15">
      <path d="M 69.4275 289.963542 
L 691.3525 289.963542 
" clip-path="url(#p6d824b3962)" style="fill: none; stroke: #b0b0b0; stroke-opacity: 0.3; stroke-width: 0.8; stroke-linecap: square"/>
     </g>
     <g id="line2d_16">
      <g>
       <use xlink:href="#m60fe2969cb" x="69.4275" y="289.963542" style="stroke: #000000; stroke-width: 0.8"/>
      </g>
     </g>
     <g id="text_9">
      <!-- −15 -->
      <g transform="translate(28.66 296.042292) scale(0.16 -0.16)">
       <use xlink:href="#DejaVuSans-2212"/>
       <use xlink:href="#DejaVuSans-31" transform="translate(83.789062 0)"/>
       <use xlink:href="#DejaVuSans-35" transform="translate(147.412109 0)"/>
      </g>
     </g>
    </g>
    <g id="ytick_3">
     <g id="line2d_17">
      <path d="M 69.4275 221.130208 
L 691.3525 221.130208 
" clip-path="url(#p6d824b3962)" style="fill: none; stroke: #b0b0b0; stroke-opacity: 0.3; stroke-width: 0.8; stroke-linecap: square"/>
     </g>
     <g id="line2d_18">
      <g>
       <use xlink:href="#m60fe2969cb" x="69.4275" y="221.130208" style="stroke: #000000; stroke-width: 0.8"/>
      </g>
     </g>
     <g id="text_10">
      <!-- −10 -->
      <g transform="translate(28.66 227.208958) scale(0.16 -0.16)">
       <use xlink:href="#DejaVuSans-2212"/>
       <use xlink:href="#DejaVuSans-31" transform="translate(83.789062 0)"/>
       <use xlink:href="#DejaVuSans-30" transform="translate(147.412109 0)"/>
      </g>
     </g>
    </g>
    <g id="ytick_4">
     <g id="line2d_19">
      <path d="M 69.4275 152.296875 
L 691.3525 152.296875 
" clip-path="url(#p6d824b3962)" style="fill: none; stroke: #b0b0b0; stroke-opacity: 0.3; stroke-width: 0.8; stroke-linecap: square"/>
     </g>
     <g id="line2d_20">
      <g>
       <use xlink:href="#m60fe2969cb" x="69.4275" y="152.296875" style="stroke: #000000; stroke-width: 0.8"/>
      </g>
     </g>
     <g id="text_11">
      <!-- −5 -->
      <g transform="translate(38.84 158.375625) scale(0.16 -0.16)">
       <use xlink:href="#DejaVuSans-2212"/>
       <use xlink:href="#DejaVuSans-35" transform="translate(83.789062 0)"/>
      </g>
     </g>
    </g>
    <g id="ytick_5">
     <g id="line2d_21">
      <path d="M 69.4275 83.463542 
L 691.3525 83.463542 
" clip-path="url(#p6d824b3962)" style="fill: none; stroke: #b0b0b0; stroke-opacity: 0.3; stroke-width: 0.8; stroke-linecap: square"/>
     </g>
     <g id="line2d_22">
      <g>
       <use xlink:href="#m60fe2969cb" x="69.4275" y="83.463542" style="stroke: #000000; stroke-width: 0.8"/>
      </g>
     </g>
     <g id="text_12">
      <!-- 0 -->
      <g transform="translate(52.2475 89.542292) scale(0.16 -0.16)">
       <use xlink:href="#DejaVuSans-30"/>
      </g>
     </g>
    </g>
    <g id="text_13">
     <!-- Tasa de crecimiento $G(K)$  (% por apuesta) -->
     <g transform="translate(20.88 385.926875) rotate(-90) scale(0.18 -0.18)">
      <defs>
       <path id="DejaVuSans-54" d="M -19 4666 
L 3928 4666 
L 3928 4134 
L 2272 4134 
L 2272 0 
L 1638 0 
L 1638 4134 
L -19 4134 
L -19 4666 
z
" transform="scale(0.015625)"/>
       <path id="DejaVuSans-65" d="M 3597 1894 
L 3597 1613 
L 953 1613 
Q 991 1019 1311 708 
Q 1631 397 2203 397 
Q 2534 397 2845 478 
Q 3156 559 3463 722 
L 3463 178 
Q 3153 47 2828 -22 
Q 2503 -91 2169 -91 
Q 1331 -91 842 396 
Q 353 884 353 1716 
Q 353 2575 817 3079 
Q 1281 3584 2069 3584 
Q 2775 3584 3186 3129 
Q 3597 2675 3597 1894 
z
M 3022 2063 
Q 3016 2534 2758 2815 
Q 2500 3097 2075 3097 
Q 1594 3097 1305 2825 
Q 1016 2553 972 2059 
L 3022 2063 
z
" transform="scale(0.015625)"/>
       <path id="DejaVuSans-6d" d="M 3328 2828 
Q 3544 3216 3844 3400 
Q 4144 3584 4550 3584 
Q 5097 3584 5394 3201 
Q 5691 2819 5691 2113 
L 5691 0 
L 5113 0 
L 5113 2094 
Q 5113 2597 4934 2840 
Q 4756 3084 4391 3084 
Q 3944 3084 3684 2787 
Q 3425 2491 3425 1978 
L 3425 0 
L 2847 0 
L 2847 2094 
Q 2847 2600 2669 2842 
Q 2491 3084 2119 3084 
Q 1678 3084 1418 2786 
Q 1159 2488 1159 1978 
L 1159 0 
L 581 0 
L 581 3500 
L 1159 3500 
L 1159 2956 
Q 1356 3278 1631 3431 
Q 1906 3584 2284 3584 
Q 2666 3584 2933 3390 
Q 3200 3197 3328 2828 
z
" transform="scale(0.015625)"/>
       <path id="DejaVuSans-Oblique-47" d="M 3494 697 
L 3738 1919 
L 2700 1919 
L 2797 2438 
L 4453 2438 
L 4050 384 
Q 3634 156 3143 32 
Q 2653 -91 2156 -91 
Q 1278 -91 783 396 
Q 288 884 288 1753 
Q 288 2475 589 3126 
Q 891 3778 1422 4213 
Q 1756 4484 2153 4617 
Q 2550 4750 3034 4750 
Q 3472 4750 3873 4639 
Q 4275 4528 4641 4306 
L 4513 3634 
Q 4231 3928 3853 4083 
Q 3475 4238 3047 4238 
Q 2550 4238 2172 4048 
Q 1794 3859 1497 3463 
Q 1244 3125 1098 2667 
Q 953 2209 953 1734 
Q 953 1081 1287 751 
Q 1622 422 2284 422 
Q 2616 422 2925 492 
Q 3234 563 3494 697 
z
" transform="scale(0.015625)"/>
       <path id="DejaVuSans-28" d="M 1984 4856 
Q 1566 4138 1362 3434 
Q 1159 2731 1159 2009 
Q 1159 1288 1364 580 
Q 1569 -128 1984 -844 
L 1484 -844 
Q 1016 -109 783 600 
Q 550 1309 550 2009 
Q 550 2706 781 3412 
Q 1013 4119 1484 4856 
L 1984 4856 
z
" transform="scale(0.015625)"/>
       <path id="DejaVuSans-29" d="M 513 4856 
L 1013 4856 
Q 1481 4119 1714 3412 
Q 1947 2706 1947 2009 
Q 1947 1309 1714 600 
Q 1481 -109 1013 -844 
L 513 -844 
Q 928 -128 1133 580 
Q 1338 1288 1338 2009 
Q 1338 2731 1133 3434 
Q 928 4138 513 4856 
z
" transform="scale(0.015625)"/>
       <path id="DejaVuSans-25" d="M 4653 2053 
Q 4381 2053 4226 1822 
Q 4072 1591 4072 1178 
Q 4072 772 4226 539 
Q 4381 306 4653 306 
Q 4919 306 5073 539 
Q 5228 772 5228 1178 
Q 5228 1588 5073 1820 
Q 4919 2053 4653 2053 
z
M 4653 2450 
Q 5147 2450 5437 2106 
Q 5728 1763 5728 1178 
Q 5728 594 5436 251 
Q 5144 -91 4653 -91 
Q 4153 -91 3862 251 
Q 3572 594 3572 1178 
Q 3572 1766 3864 2108 
Q 4156 2450 4653 2450 
z
M 1428 4353 
Q 1159 4353 1004 4120 
Q 850 3888 850 3481 
Q 850 3069 1003 2837 
Q 1156 2606 1428 2606 
Q 1700 2606 1854 2837 
Q 2009 3069 2009 3481 
Q 2009 3884 1853 4118 
Q 1697 4353 1428 4353 
z
M 4250 4750 
L 4750 4750 
L 1831 -91 
L 1331 -91 
L 4250 4750 
z
M 1428 4750 
Q 1922 4750 2215 4408 
Q 2509 4066 2509 3481 
Q 2509 2891 2217 2550 
Q 1925 2209 1428 2209 
Q 931 2209 642 2551 
Q 353 2894 353 3481 
Q 353 4063 643 4406 
Q 934 4750 1428 4750 
z
" transform="scale(0.015625)"/>
       <path id="DejaVuSans-75" d="M 544 1381 
L 544 3500 
L 1119 3500 
L 1119 1403 
Q 1119 906 1312 657 
Q 1506 409 1894 409 
Q 2359 409 2629 706 
Q 2900 1003 2900 1516 
L 2900 3500 
L 3475 3500 
L 3475 0 
L 2900 0 
L 2900 538 
Q 2691 219 2414 64 
Q 2138 -91 1772 -91 
Q 1169 -91 856 284 
Q 544 659 544 1381 
z
M 1991 3584 
L 1991 3584 
z
" transform="scale(0.015625)"/>
      </defs>
      <use xlink:href="#DejaVuSans-54" transform="translate(0 0.015625)"/>
      <use xlink:href="#DejaVuSans-61" transform="translate(61.083984 0.015625)"/>
      <use xlink:href="#DejaVuSans-73" transform="translate(122.363281 0.015625)"/>
      <use xlink:href="#DejaVuSans-61" transform="translate(174.462891 0.015625)"/>
      <use xlink:href="#DejaVuSans-20" transform="translate(235.742188 0.015625)"/>
      <use xlink:href="#DejaVuSans-64" transform="translate(267.529297 0.015625)"/>
      <use xlink:href="#DejaVuSans-65" transform="translate(331.005859 0.015625)"/>
      <use xlink:href="#DejaVuSans-20" transform="translate(392.529297 0.015625)"/>
      <use xlink:href="#DejaVuSans-63" transform="translate(424.316406 0.015625)"/>
      <use xlink:href="#DejaVuSans-72" transform="translate(479.296875 0.015625)"/>
      <use xlink:href="#DejaVuSans-65" transform="translate(520.410156 0.015625)"/>
      <use xlink:href="#DejaVuSans-63" transform="translate(581.933594 0.015625)"/>
      <use xlink:href="#DejaVuSans-69" transform="translate(636.914062 0.015625)"/>
      <use xlink:href="#DejaVuSans-6d" transform="translate(664.697266 0.015625)"/>
      <use xlink:href="#DejaVuSans-69" transform="translate(762.109375 0.015625)"/>
      <use xlink:href="#DejaVuSans-65" transform="translate(789.892578 0.015625)"/>
      <use xlink:href="#DejaVuSans-6e" transform="translate(851.416016 0.015625)"/>
      <use xlink:href="#DejaVuSans-74" transform="translate(914.794922 0.015625)"/>
      <use xlink:href="#DejaVuSans-6f" transform="translate(954.003906 0.015625)"/>
      <use xlink:href="#DejaVuSans-20" transform="translate(1015.185547 0.015625)"/>
      <use xlink:href="#DejaVuSans-Oblique-47" transform="translate(1046.972656 0.015625)"/>
      <use xlink:href="#DejaVuSans-28" transform="translate(1124.462891 0.015625)"/>
      <use xlink:href="#DejaVuSans-Oblique-4b" transform="translate(1163.476562 0.015625)"/>
      <use xlink:href="#DejaVuSans-29" transform="translate(1229.052734 0.015625)"/>
      <use xlink:href="#DejaVuSans-20" transform="translate(1268.066406 0.015625)"/>
      <use xlink:href="#DejaVuSans-20" transform="translate(1299.853516 0.015625)"/>
      <use xlink:href="#DejaVuSans-28" transform="translate(1331.640625 0.015625)"/>
      <use xlink:href="#DejaVuSans-25" transform="translate(1370.654297 0.015625)"/>
      <use xlink:href="#DejaVuSans-20" transform="translate(1465.673828 0.015625)"/>
      <use xlink:href="#DejaVuSans-70" transform="translate(1497.460938 0.015625)"/>
      <use xlink:href="#DejaVuSans-6f" transform="translate(1560.9375 0.015625)"/>
      <use xlink:href="#DejaVuSans-72" transform="translate(1622.119141 0.015625)"/>
      <use xlink:href="#DejaVuSans-20" transform="translate(1663.232422 0.015625)"/>
      <use xlink:href="#DejaVuSans-61" transform="translate(1695.019531 0.015625)"/>
      <use xlink:href="#DejaVuSans-70" transform="translate(1756.298828 0.015625)"/>
      <use xlink:href="#DejaVuSans-75" transform="translate(1819.775391 0.015625)"/>
      <use xlink:href="#DejaVuSans-65" transform="translate(1883.154297 0.015625)"/>
      <use xlink:href="#DejaVuSans-73" transform="translate(1944.677734 0.015625)"/>
      <use xlink:href="#DejaVuSans-74" transform="translate(1996.777344 0.015625)"/>
      <use xlink:href="#DejaVuSans-61" transform="translate(2035.986328 0.015625)"/>
      <use xlink:href="#DejaVuSans-29" transform="translate(2097.265625 0.015625)"/>
     </g>
    </g>
   </g>
   <g id="line2d_23">
    <path d="M 69.4275 83.463542 
L 691.3525 83.463542 
" clip-path="url(#p6d824b3962)" style="fill: none; stroke-dasharray: 2.96,1.28; stroke-dashoffset: 0; stroke: #808080; stroke-opacity: 0.6; stroke-width: 0.8"/>
   </g>
   <g id="line2d_24">
    <path d="M 69.547101 83.429158 
L 76.813608 81.461177 
L 84.080115 79.725426 
L 91.346622 78.213511 
L 98.61313 76.917641 
L 105.879637 75.83058 
L 113.146144 74.945597 
L 121.450724 74.173613 
L 129.755303 73.648727 
L 138.059883 73.36293 
L 146.364462 73.308824 
L 154.669042 73.479566 
L 162.973622 73.868826 
L 171.278201 74.470742 
L 179.582781 75.279889 
L 187.887361 76.291242 
L 197.230013 77.664934 
L 206.572665 79.28256 
L 215.915317 81.138528 
L 225.257969 83.227717 
L 234.600621 85.545448 
L 243.943273 88.087447 
L 253.285925 90.849824 
L 262.628577 93.829044 
L 271.971229 97.021908 
L 282.351954 100.816605 
L 292.732678 104.867979 
L 303.113403 109.172926 
L 313.494127 113.728751 
L 323.874852 118.533137 
L 334.255576 123.584131 
L 344.636301 128.880129 
L 355.017025 134.419859 
L 365.39775 140.202372 
L 375.778474 146.227025 
L 386.159199 152.493481 
L 396.539923 159.001694 
L 406.920648 165.751906 
L 417.301373 172.744641 
L 428.72017 180.71773 
L 440.138966 188.986705 
L 451.557763 197.553422 
L 462.97656 206.42014 
L 474.395357 215.589521 
L 485.814154 225.064634 
L 497.232951 234.848961 
L 508.651748 244.946402 
L 520.070545 255.361287 
L 531.489342 266.098385 
L 542.908139 277.162918 
L 554.326936 288.560575 
L 565.745733 300.297531 
L 577.16453 312.380467 
L 588.583327 324.816592 
L 600.002124 337.613665 
L 610.382849 349.567596 
L 620.763573 361.833423 
L 631.144298 374.41829 
L 641.525022 387.329804 
L 651.905747 400.57606 
L 660.39356 411.661875 
L 660.39356 411.661875 
" clip-path="url(#p6d824b3962)" style="fill: none; stroke: #2196f3; stroke-width: 2.5; stroke-linecap: square"/>
   </g>
   <g id="patch_3">
    <path d="M 69.4275 358.796875 
L 69.4275 28.396875 
" style="fill: none; stroke: #000000; stroke-width: 0.8; stroke-linejoin: miter; stroke-linecap: square"/>
   </g>
   <g id="patch_4">
    <path d="M 691.3525 358.796875 
L 691.3525 28.396875 
" style="fill: none; stroke: #000000; stroke-width: 0.8; stroke-linejoin: miter; stroke-linecap: square"/>
   </g>
   <g id="patch_5">
    <path d="M 69.4275 358.796875 
L 691.3525 358.796875 
" style="fill: none; stroke: #000000; stroke-width: 0.8; stroke-linejoin: miter; stroke-linecap: square"/>
   </g>
   <g id="patch_6">
    <path d="M 69.4275 28.396875 
L 691.3525 28.396875 
" style="fill: none; stroke: #000000; stroke-width: 0.8; stroke-linejoin: miter; stroke-linecap: square"/>
   </g>
   <g id="patch_7">
    <path d="M 225.581476 61.561372 
Q 185.869756 67.288414 147.817914 72.776075 
" style="fill: none; stroke: #4caf50; stroke-width: 1.5; stroke-linecap: round"/>
    <path d="M 152.911337 74.466355 
L 147.817914 72.776075 
L 152.226191 69.715505 
" style="fill: none; stroke: #4caf50; stroke-width: 1.5; stroke-linecap: round"/>
   </g>
   <g id="text_14">
    <!-- K = 6.25% → G = +0.74%/ap. -->
    <g style="fill: #4caf50" transform="translate(192.018486 56.780992) scale(0.12 -0.12)">
     <defs>
      <path id="DejaVuSans-4b" d="M 628 4666 
L 1259 4666 
L 1259 2694 
L 3353 4666 
L 4166 4666 
L 1850 2491 
L 4331 0 
L 3500 0 
L 1259 2247 
L 1259 0 
L 628 0 
L 628 4666 
z
" transform="scale(0.015625)"/>
      <path id="DejaVuSans-3d" d="M 678 2906 
L 4684 2906 
L 4684 2381 
L 678 2381 
L 678 2906 
z
M 678 1631 
L 4684 1631 
L 4684 1100 
L 678 1100 
L 678 1631 
z
" transform="scale(0.015625)"/>
      <path id="DejaVuSans-36" d="M 2113 2584 
Q 1688 2584 1439 2293 
Q 1191 2003 1191 1497 
Q 1191 994 1439 701 
Q 1688 409 2113 409 
Q 2538 409 2786 701 
Q 3034 994 3034 1497 
Q 3034 2003 2786 2293 
Q 2538 2584 2113 2584 
z
M 3366 4563 
L 3366 3988 
Q 3128 4100 2886 4159 
Q 2644 4219 2406 4219 
Q 1781 4219 1451 3797 
Q 1122 3375 1075 2522 
Q 1259 2794 1537 2939 
Q 1816 3084 2150 3084 
Q 2853 3084 3261 2657 
Q 3669 2231 3669 1497 
Q 3669 778 3244 343 
Q 2819 -91 2113 -91 
Q 1303 -91 875 529 
Q 447 1150 447 2328 
Q 447 3434 972 4092 
Q 1497 4750 2381 4750 
Q 2619 4750 2861 4703 
Q 3103 4656 3366 4563 
z
" transform="scale(0.015625)"/>
      <path id="DejaVuSans-2192" d="M 5050 2147 
L 5050 1866 
L 3822 638 
L 3447 1013 
L 4175 1741 
L 366 1741 
L 366 2272 
L 4175 2272 
L 3447 3000 
L 3822 3375 
L 5050 2147 
z
" transform="scale(0.015625)"/>
      <path id="DejaVuSans-47" d="M 3809 666 
L 3809 1919 
L 2778 1919 
L 2778 2438 
L 4434 2438 
L 4434 434 
Q 4069 175 3628 42 
Q 3188 -91 2688 -91 
Q 1594 -91 976 548 
Q 359 1188 359 2328 
Q 359 3472 976 4111 
Q 1594 4750 2688 4750 
Q 3144 4750 3555 4637 
Q 3966 4525 4313 4306 
L 4313 3634 
Q 3963 3931 3569 4081 
Q 3175 4231 2741 4231 
Q 1884 4231 1454 3753 
Q 1025 3275 1025 2328 
Q 1025 1384 1454 906 
Q 1884 428 2741 428 
Q 3075 428 3337 486 
Q 3600 544 3809 666 
z
" transform="scale(0.015625)"/>
      <path id="DejaVuSans-2b" d="M 2944 4013 
L 2944 2272 
L 4684 2272 
L 4684 1741 
L 2944 1741 
L 2944 0 
L 2419 0 
L 2419 1741 
L 678 1741 
L 678 2272 
L 2419 2272 
L 2419 4013 
L 2944 4013 
z
" transform="scale(0.015625)"/>
      <path id="DejaVuSans-37" d="M 525 4666 
L 3525 4666 
L 3525 4397 
L 1831 0 
L 1172 0 
L 2766 4134 
L 525 4134 
L 525 4666 
z
" transform="scale(0.015625)"/>
      <path id="DejaVuSans-2f" d="M 1625 4666 
L 2156 4666 
L 531 -594 
L 0 -594 
L 1625 4666 
z
" transform="scale(0.015625)"/>
     </defs>
     <use xlink:href="#DejaVuSans-4b"/>
     <use xlink:href="#DejaVuSans-20" transform="translate(65.576172 0)"/>
     <use xlink:href="#DejaVuSans-3d" transform="translate(97.363281 0)"/>
     <use xlink:href="#DejaVuSans-20" transform="translate(181.152344 0)"/>
     <use xlink:href="#DejaVuSans-36" transform="translate(212.939453 0)"/>
     <use xlink:href="#DejaVuSans-2e" transform="translate(276.5625 0)"/>
     <use xlink:href="#DejaVuSans-32" transform="translate(308.349609 0)"/>
     <use xlink:href="#DejaVuSans-35" transform="translate(371.972656 0)"/>
     <use xlink:href="#DejaVuSans-25" transform="translate(435.595703 0)"/>
     <use xlink:href="#DejaVuSans-20" transform="translate(530.615234 0)"/>
     <use xlink:href="#DejaVuSans-2192" transform="translate(562.402344 0)"/>
     <use xlink:href="#DejaVuSans-20" transform="translate(646.191406 0)"/>
     <use xlink:href="#DejaVuSans-47" transform="translate(677.978516 0)"/>
     <use xlink:href="#DejaVuSans-20" transform="translate(755.46875 0)"/>
     <use xlink:href="#DejaVuSans-3d" transform="translate(787.255859 0)"/>
     <use xlink:href="#DejaVuSans-20" transform="translate(871.044922 0)"/>
     <use xlink:href="#DejaVuSans-2b" transform="translate(902.832031 0)"/>
     <use xlink:href="#DejaVuSans-30" transform="translate(986.621094 0)"/>
     <use xlink:href="#DejaVuSans-2e" transform="translate(1050.244141 0)"/>
     <use xlink:href="#DejaVuSans-37" transform="translate(1082.03125 0)"/>
     <use xlink:href="#DejaVuSans-34" transform="translate(1145.654297 0)"/>
     <use xlink:href="#DejaVuSans-25" transform="translate(1209.277344 0)"/>
     <use xlink:href="#DejaVuSans-2f" transform="translate(1304.296875 0)"/>
     <use xlink:href="#DejaVuSans-61" transform="translate(1337.988281 0)"/>
     <use xlink:href="#DejaVuSans-70" transform="translate(1399.267578 0)"/>
     <use xlink:href="#DejaVuSans-2e" transform="translate(1462.744141 0)"/>
    </g>
   </g>
   <g id="patch_8">
    <path d="M 322.54115 56.47167 
Q 271.707241 68.891836 222.502462 80.913959 
" style="fill: none; stroke: #ff9800; stroke-width: 1.5; stroke-linecap: round"/>
    <path d="M 227.734934 82.106115 
L 222.502462 80.913959 
L 226.59567 77.443275 
" style="fill: none; stroke: #ff9800; stroke-width: 1.5; stroke-linecap: round"/>
   </g>
   <g id="text_15">
    <!-- K = 12.5% → G = +0.12%/ap. -->
    <g style="fill: #ff9800" transform="translate(266.769087 51.500463) scale(0.12 -0.12)">
     <use xlink:href="#DejaVuSans-4b"/>
     <use xlink:href="#DejaVuSans-20" transform="translate(65.576172 0)"/>
     <use xlink:href="#DejaVuSans-3d" transform="translate(97.363281 0)"/>
     <use xlink:href="#DejaVuSans-20" transform="translate(181.152344 0)"/>
     <use xlink:href="#DejaVuSans-31" transform="translate(212.939453 0)"/>
     <use xlink:href="#DejaVuSans-32" transform="translate(276.5625 0)"/>
     <use xlink:href="#DejaVuSans-2e" transform="translate(340.185547 0)"/>
     <use xlink:href="#DejaVuSans-35" transform="translate(371.972656 0)"/>
     <use xlink:href="#DejaVuSans-25" transform="translate(435.595703 0)"/>
     <use xlink:href="#DejaVuSans-20" transform="translate(530.615234 0)"/>
     <use xlink:href="#DejaVuSans-2192" transform="translate(562.402344 0)"/>
     <use xlink:href="#DejaVuSans-20" transform="translate(646.191406 0)"/>
     <use xlink:href="#DejaVuSans-47" transform="translate(677.978516 0)"/>
     <use xlink:href="#DejaVuSans-20" transform="translate(755.46875 0)"/>
     <use xlink:href="#DejaVuSans-3d" transform="translate(787.255859 0)"/>
     <use xlink:href="#DejaVuSans-20" transform="translate(871.044922 0)"/>
     <use xlink:href="#DejaVuSans-2b" transform="translate(902.832031 0)"/>
     <use xlink:href="#DejaVuSans-30" transform="translate(986.621094 0)"/>
     <use xlink:href="#DejaVuSans-2e" transform="translate(1050.244141 0)"/>
     <use xlink:href="#DejaVuSans-31" transform="translate(1082.03125 0)"/>
     <use xlink:href="#DejaVuSans-32" transform="translate(1145.654297 0)"/>
     <use xlink:href="#DejaVuSans-25" transform="translate(1209.277344 0)"/>
     <use xlink:href="#DejaVuSans-2f" transform="translate(1304.296875 0)"/>
     <use xlink:href="#DejaVuSans-61" transform="translate(1337.988281 0)"/>
     <use xlink:href="#DejaVuSans-70" transform="translate(1399.267578 0)"/>
     <use xlink:href="#DejaVuSans-2e" transform="translate(1462.744141 0)"/>
    </g>
   </g>
   <g id="patch_9">
    <path d="M 317.101244 169.17122 
Q 416.595317 210.892246 514.542809 251.964742 
" style="fill: none; stroke: #f44336; stroke-width: 1.5; stroke-linecap: round"/>
    <path d="M 511.04434 247.895256 
L 514.542809 251.964742 
L 509.188139 252.321825 
" style="fill: none; stroke: #f44336; stroke-width: 1.5; stroke-linecap: round"/>
   </g>
   <g id="text_16">
    <!-- K = 37.5% → G = −12.3%/ap. -->
    <g style="fill: #f44336" transform="translate(206.968606 163.902229) scale(0.12 -0.12)">
     <use xlink:href="#DejaVuSans-4b"/>
     <use xlink:href="#DejaVuSans-20" transform="translate(65.576172 0)"/>
     <use xlink:href="#DejaVuSans-3d" transform="translate(97.363281 0)"/>
     <use xlink:href="#DejaVuSans-20" transform="translate(181.152344 0)"/>
     <use xlink:href="#DejaVuSans-33" transform="translate(212.939453 0)"/>
     <use xlink:href="#DejaVuSans-37" transform="translate(276.5625 0)"/>
     <use xlink:href="#DejaVuSans-2e" transform="translate(340.185547 0)"/>
     <use xlink:href="#DejaVuSans-35" transform="translate(371.972656 0)"/>
     <use xlink:href="#DejaVuSans-25" transform="translate(435.595703 0)"/>
     <use xlink:href="#DejaVuSans-20" transform="translate(530.615234 0)"/>
     <use xlink:href="#DejaVuSans-2192" transform="translate(562.402344 0)"/>
     <use xlink:href="#DejaVuSans-20" transform="translate(646.191406 0)"/>
     <use xlink:href="#DejaVuSans-47" transform="translate(677.978516 0)"/>
     <use xlink:href="#DejaVuSans-20" transform="translate(755.46875 0)"/>
     <use xlink:href="#DejaVuSans-3d" transform="translate(787.255859 0)"/>
     <use xlink:href="#DejaVuSans-20" transform="translate(871.044922 0)"/>
     <use xlink:href="#DejaVuSans-2212" transform="translate(902.832031 0)"/>
     <use xlink:href="#DejaVuSans-31" transform="translate(986.621094 0)"/>
     <use xlink:href="#DejaVuSans-32" transform="translate(1050.244141 0)"/>
     <use xlink:href="#DejaVuSans-2e" transform="translate(1113.867188 0)"/>
     <use xlink:href="#DejaVuSans-33" transform="translate(1145.654297 0)"/>
     <use xlink:href="#DejaVuSans-25" transform="translate(1209.277344 0)"/>
     <use xlink:href="#DejaVuSans-2f" transform="translate(1304.296875 0)"/>
     <use xlink:href="#DejaVuSans-61" transform="translate(1337.988281 0)"/>
     <use xlink:href="#DejaVuSans-70" transform="translate(1399.267578 0)"/>
     <use xlink:href="#DejaVuSans-2e" transform="translate(1462.744141 0)"/>
    </g>
   </g>
   <g id="text_17">
    <!-- Crecimiento esperado — c real = 25%,  dividendo = 5 -->
    <g transform="translate(109.591563 22.396875) scale(0.2 -0.2)">
     <defs>
      <path id="DejaVuSans-43" d="M 4122 4306 
L 4122 3641 
Q 3803 3938 3442 4084 
Q 3081 4231 2675 4231 
Q 1875 4231 1450 3742 
Q 1025 3253 1025 2328 
Q 1025 1406 1450 917 
Q 1875 428 2675 428 
Q 3081 428 3442 575 
Q 3803 722 4122 1019 
L 4122 359 
Q 3791 134 3420 21 
Q 3050 -91 2638 -91 
Q 1578 -91 968 557 
Q 359 1206 359 2328 
Q 359 3453 968 4101 
Q 1578 4750 2638 4750 
Q 3056 4750 3426 4639 
Q 3797 4528 4122 4306 
z
" transform="scale(0.015625)"/>
      <path id="DejaVuSans-2014" d="M 313 1978 
L 6088 1978 
L 6088 1528 
L 313 1528 
L 313 1978 
z
" transform="scale(0.015625)"/>
      <path id="DejaVuSans-6c" d="M 603 4863 
L 1178 4863 
L 1178 0 
L 603 0 
L 603 4863 
z
" transform="scale(0.015625)"/>
      <path id="DejaVuSans-2c" d="M 750 794 
L 1409 794 
L 1409 256 
L 897 -744 
L 494 -744 
L 750 256 
L 750 794 
z
" transform="scale(0.015625)"/>
      <path id="DejaVuSans-76" d="M 191 3500 
L 800 3500 
L 1894 563 
L 2988 3500 
L 3597 3500 
L 2284 0 
L 1503 0 
L 191 3500 
z
" transform="scale(0.015625)"/>
     </defs>
     <use xlink:href="#DejaVuSans-43"/>
     <use xlink:href="#DejaVuSans-72" transform="translate(69.824219 0)"/>
     <use xlink:href="#DejaVuSans-65" transform="translate(108.6875 0)"/>
     <use xlink:href="#DejaVuSans-63" transform="translate(170.210938 0)"/>
     <use xlink:href="#DejaVuSans-69" transform="translate(225.191406 0)"/>
     <use xlink:href="#DejaVuSans-6d" transform="translate(252.974609 0)"/>
     <use xlink:href="#DejaVuSans-69" transform="translate(350.386719 0)"/>
     <use xlink:href="#DejaVuSans-65" transform="translate(378.169922 0)"/>
     <use xlink:href="#DejaVuSans-6e" transform="translate(439.693359 0)"/>
     <use xlink:href="#DejaVuSans-74" transform="translate(503.072266 0)"/>
     <use xlink:href="#DejaVuSans-6f" transform="translate(542.28125 0)"/>
     <use xlink:href="#DejaVuSans-20" transform="translate(603.462891 0)"/>
     <use xlink:href="#DejaVuSans-65" transform="translate(635.25 0)"/>
     <use xlink:href="#DejaVuSans-73" transform="translate(696.773438 0)"/>
     <use xlink:href="#DejaVuSans-70" transform="translate(748.873047 0)"/>
     <use xlink:href="#DejaVuSans-65" transform="translate(812.349609 0)"/>
     <use xlink:href="#DejaVuSans-72" transform="translate(873.873047 0)"/>
     <use xlink:href="#DejaVuSans-61" transform="translate(914.986328 0)"/>
     <use xlink:href="#DejaVuSans-64" transform="translate(976.265625 0)"/>
     <use xlink:href="#DejaVuSans-6f" transform="translate(1039.742188 0)"/>
     <use xlink:href="#DejaVuSans-20" transform="translate(1100.923828 0)"/>
     <use xlink:href="#DejaVuSans-2014" transform="translate(1132.710938 0)"/>
     <use xlink:href="#DejaVuSans-20" transform="translate(1232.710938 0)"/>
     <use xlink:href="#DejaVuSans-63" transform="translate(1264.498047 0)"/>
     <use xlink:href="#DejaVuSans-20" transform="translate(1319.478516 0)"/>
     <use xlink:href="#DejaVuSans-72" transform="translate(1351.265625 0)"/>
     <use xlink:href="#DejaVuSans-65" transform="translate(1390.128906 0)"/>
     <use xlink:href="#DejaVuSans-61" transform="translate(1451.652344 0)"/>
     <use xlink:href="#DejaVuSans-6c" transform="translate(1512.931641 0)"/>
     <use xlink:href="#DejaVuSans-20" transform="translate(1540.714844 0)"/>
     <use xlink:href="#DejaVuSans-3d" transform="translate(1572.501953 0)"/>
     <use xlink:href="#DejaVuSans-20" transform="translate(1656.291016 0)"/>
     <use xlink:href="#DejaVuSans-32" transform="translate(1688.078125 0)"/>
     <use xlink:href="#DejaVuSans-35" transform="translate(1751.701172 0)"/>
     <use xlink:href="#DejaVuSans-25" transform="translate(1815.324219 0)"/>
     <use xlink:href="#DejaVuSans-2c" transform="translate(1910.34375 0)"/>
     <use xlink:href="#DejaVuSans-20" transform="translate(1942.130859 0)"/>
     <use xlink:href="#DejaVuSans-20" transform="translate(1973.917969 0)"/>
     <use xlink:href="#DejaVuSans-64" transform="translate(2005.705078 0)"/>
     <use xlink:href="#DejaVuSans-69" transform="translate(2069.181641 0)"/>
     <use xlink:href="#DejaVuSans-76" transform="translate(2096.964844 0)"/>
     <use xlink:href="#DejaVuSans-69" transform="translate(2156.144531 0)"/>
     <use xlink:href="#DejaVuSans-64" transform="translate(2183.927734 0)"/>
     <use xlink:href="#DejaVuSans-65" transform="translate(2247.404297 0)"/>
     <use xlink:href="#DejaVuSans-6e" transform="translate(2308.927734 0)"/>
     <use xlink:href="#DejaVuSans-64" transform="translate(2372.306641 0)"/>
     <use xlink:href="#DejaVuSans-6f" transform="translate(2435.783203 0)"/>
     <use xlink:href="#DejaVuSans-20" transform="translate(2496.964844 0)"/>
     <use xlink:href="#DejaVuSans-3d" transform="translate(2528.751953 0)"/>
     <use xlink:href="#DejaVuSans-20" transform="translate(2612.541016 0)"/>
     <use xlink:href="#DejaVuSans-35" transform="translate(2644.328125 0)"/>
    </g>
   </g>
   <g id="line2d_25">
    <defs>
     <path id="m750337ade0" d="M 0 6 
C 1.591219 6 3.117479 5.367802 4.242641 4.242641 
C 5.367802 3.117479 6 1.591219 6 0 
C 6 -1.591219 5.367802 -3.117479 4.242641 -4.242641 
C 3.117479 -5.367802 1.591219 -6 0 -6 
C -1.591219 -6 -3.117479 -5.367802 -4.242641 -4.242641 
C -5.367802 -3.117479 -6 -1.591219 -6 0 
C -6 1.591219 -5.367802 3.117479 -4.242641 4.242641 
C -3.117479 5.367802 -1.591219 6 0 6 
z
" style="stroke: #4caf50"/>
    </defs>
    <g clip-path="url(#p6d824b3962)">
     <use xlink:href="#m750337ade0" x="144.178101" y="73.300992" style="fill: #4caf50; stroke: #4caf50"/>
    </g>
   </g>
   <g id="line2d_26">
    <defs>
     <path id="m25ffde7bd7" d="M 0 6 
C 1.591219 6 3.117479 5.367802 4.242641 4.242641 
C 5.367802 3.117479 6 1.591219 6 0 
C 6 -1.591219 5.367802 -3.117479 4.242641 -4.242641 
C 3.117479 -5.367802 1.591219 -6 0 -6 
C -1.591219 -6 -3.117479 -5.367802 -4.242641 -4.242641 
C -5.367802 -3.117479 -6 -1.591219 -6 0 
C -6 1.591219 -5.367802 3.117479 -4.242641 4.242641 
C -3.117479 5.367802 -1.591219 6 0 6 
z
" style="stroke: #ff9800"/>
    </defs>
    <g clip-path="url(#p6d824b3962)">
     <use xlink:href="#m25ffde7bd7" x="218.928702" y="81.78713" style="fill: #ff9800; stroke: #ff9800"/>
    </g>
   </g>
   <g id="line2d_27">
    <defs>
     <path id="m3db7a01e0c" d="M 0 6 
C 1.591219 6 3.117479 5.367802 4.242641 4.242641 
C 5.367802 3.117479 6 1.591219 6 0 
C 6 -1.591219 5.367802 -3.117479 4.242641 -4.242641 
C 3.117479 -5.367802 1.591219 -6 0 -6 
C -1.591219 -6 -3.117479 -5.367802 -4.242641 -4.242641 
C -5.367802 -3.117479 -6 -1.591219 -6 0 
C -6 1.591219 -5.367802 3.117479 -4.242641 4.242641 
C -3.117479 5.367802 -1.591219 6 0 6 
z
" style="stroke: #f44336"/>
    </defs>
    <g clip-path="url(#p6d824b3962)">
     <use xlink:href="#m3db7a01e0c" x="517.931106" y="253.385562" style="fill: #f44336; stroke: #f44336"/>
    </g>
   </g>
  </g>
 </g>
 <defs>
  <clipPath id="p6d824b3962">
   <rect x="69.4275" y="28.396875" width="621.925" height="330.4"/>
  </clipPath>
 </defs>
</svg>
