<?xml version="1.0" encoding="utf-8" standalone="no"?>
<!DOCTYPE svg PUBLIC "-//W3C//DTD SVG 1.1//EN"
  "http://www.w3.org/Graphics/SVG/1.1/DTD/svg11.dtd">
<svg xmlns:xlink="http://www.w3.org/1999/xlink" width="1152pt" height="648pt" viewBox="0 0 1152 648" xmlns="http://www.w3.org/2000/svg" version="1.1">
 <metadata>
  <rdf:RDF xmlns:dc="http://purl.org/dc/elements/1.1/" xmlns:cc="http://creativecommons.org/ns#" xmlns:rdf="http://www.w3.org/1999/02/22-rdf-syntax-ns#">
   <cc:Work>
    <dc:type rdf:resource="http://purl.org/dc/dcmitype/StillImage"/>
    <dc:date>2026-03-18T19:42:38.311503</dc:date>
    <dc:format>image/svg+xml</dc:format>
    <dc:creator>
     <cc:Agent>
      <dc:title>Matplotlib v3.10.8, https://matplotlib.org/</dc:title>
     </cc:Agent>
    </dc:creator>
   </cc:Work>
  </rdf:RDF>
 </metadata>
 <defs>
  <style type="text/css">*{stroke-linejoin: round; stroke-linecap: butt}</style>
 </defs>
 <g id="figure_1">
  <g id="patch_1">
   <path d="M 0 648 
L 1152 648 
L 1152 0 
L 0 0 
z
" style="fill: #ffffff"/>
  </g>
  <g id="axes_1">
   <g id="PathCollection_1">
    <defs>
     <path id="C0_0_881642e4c3" d="M 0 10.246951 
C 2.717523 10.246951 5.324109 9.167267 7.245688 7.245688 
C 9.167267 5.324109 10.246951 2.717523 10.246951 -0 
C 10.246951 -2.717523 9.167267 -5.324109 7.245688 -7.245688 
C 5.324109 -9.167267 2.717523 -10.246951 0 -10.246951 
C -2.717523 -10.246951 -5.324109 -9.167267 -7.245688 -7.245688 
C -9.167267 -5.324109 -10.246951 -2.717523 -10.246951 0 
C -10.246951 2.717523 -9.167267 5.324109 -7.245688 7.245688 
C -5.324109 9.167267 -2.717523 10.246951 0 10.246951 
z
"/>
    </defs>
    <g clip-path="url(#p12364ecdc3)">
     <use xlink:href="#C0_0_881642e4c3" x="50.258824" y="157.68" style="fill: #2196f3; stroke: #2196f3"/>
    </g>
    <g clip-path="url(#p12364ecdc3)">
     <use xlink:href="#C0_0_881642e4c3" x="105.6" y="157.68" style="fill: #2196f3; stroke: #2196f3"/>
    </g>
    <g clip-path="url(#p12364ecdc3)">
     <use xlink:href="#C0_0_881642e4c3" x="160.941176" y="157.68" style="fill: #2196f3; stroke: #2196f3"/>
    </g>
    <g clip-path="url(#p12364ecdc3)">
     <use xlink:href="#C0_0_881642e4c3" x="216.282353" y="157.68" style="fill: #2196f3; stroke: #2196f3"/>
    </g>
    <g clip-path="url(#p12364ecdc3)">
     <use xlink:href="#C0_0_881642e4c3" x="271.623529" y="157.68" style="fill: #2196f3; stroke: #2196f3"/>
    </g>
    <g clip-path="url(#p12364ecdc3)">
     <use xlink:href="#C0_0_881642e4c3" x="326.964706" y="157.68" style="fill: #2196f3; stroke: #2196f3"/>
    </g>
    <g clip-path="url(#p12364ecdc3)">
     <use xlink:href="#C0_0_881642e4c3" x="382.305882" y="157.68" style="fill: #2196f3; stroke: #2196f3"/>
    </g>
    <g clip-path="url(#p12364ecdc3)">
     <use xlink:href="#C0_0_881642e4c3" x="437.647059" y="157.68" style="fill: #2196f3; stroke: #2196f3"/>
    </g>
    <g clip-path="url(#p12364ecdc3)">
     <use xlink:href="#C0_0_881642e4c3" x="492.988235" y="157.68" style="fill: #2196f3; stroke: #2196f3"/>
    </g>
    <g clip-path="url(#p12364ecdc3)">
     <use xlink:href="#C0_0_881642e4c3" x="548.329412" y="157.68" style="fill: #2196f3; stroke: #2196f3"/>
    </g>
    <g clip-path="url(#p12364ecdc3)">
     <use xlink:href="#C0_0_881642e4c3" x="603.670588" y="157.68" style="fill: #2196f3; stroke: #2196f3"/>
    </g>
    <g clip-path="url(#p12364ecdc3)">
     <use xlink:href="#C0_0_881642e4c3" x="659.011765" y="157.68" style="fill: #2196f3; stroke: #2196f3"/>
    </g>
    <g clip-path="url(#p12364ecdc3)">
     <use xlink:href="#C0_0_881642e4c3" x="714.352941" y="157.68" style="fill: #2196f3; stroke: #2196f3"/>
    </g>
    <g clip-path="url(#p12364ecdc3)">
     <use xlink:href="#C0_0_881642e4c3" x="769.694118" y="157.68" style="fill: #2196f3; stroke: #2196f3"/>
    </g>
    <g clip-path="url(#p12364ecdc3)">
     <use xlink:href="#C0_0_881642e4c3" x="825.035294" y="157.68" style="fill: #2196f3; stroke: #2196f3"/>
    </g>
    <g clip-path="url(#p12364ecdc3)">
     <use xlink:href="#C0_0_881642e4c3" x="880.376471" y="157.68" style="fill: #2196f3; stroke: #2196f3"/>
    </g>
    <g clip-path="url(#p12364ecdc3)">
     <use xlink:href="#C0_0_881642e4c3" x="935.717647" y="157.68" style="fill: #2196f3; stroke: #2196f3"/>
    </g>
    <g clip-path="url(#p12364ecdc3)">
     <use xlink:href="#C0_0_881642e4c3" x="991.058824" y="157.68" style="fill: #2196f3; stroke: #2196f3"/>
    </g>
    <g clip-path="url(#p12364ecdc3)">
     <use xlink:href="#C0_0_881642e4c3" x="1046.4" y="157.68" style="fill: #2196f3; stroke: #2196f3"/>
    </g>
    <g clip-path="url(#p12364ecdc3)">
     <use xlink:href="#C0_0_881642e4c3" x="1101.741176" y="157.68" style="fill: #2196f3; stroke: #2196f3"/>
    </g>
    <g clip-path="url(#p12364ecdc3)">
     <use xlink:href="#C0_0_881642e4c3" x="50.258824" y="470.88" style="fill: #f44336; stroke: #f44336"/>
    </g>
    <g clip-path="url(#p12364ecdc3)">
     <use xlink:href="#C0_0_881642e4c3" x="105.6" y="470.88" style="fill: #f44336; stroke: #f44336"/>
    </g>
    <g clip-path="url(#p12364ecdc3)">
     <use xlink:href="#C0_0_881642e4c3" x="160.941176" y="470.88" style="fill: #f44336; stroke: #f44336"/>
    </g>
    <g clip-path="url(#p12364ecdc3)">
     <use xlink:href="#C0_0_881642e4c3" x="216.282353" y="470.88" style="fill: #f44336; stroke: #f44336"/>
    </g>
    <g clip-path="url(#p12364ecdc3)">
     <use xlink:href="#C0_0_881642e4c3" x="271.623529" y="470.88" style="fill: #f44336; stroke: #f44336"/>
    </g>
    <g clip-path="url(#p12364ecdc3)">
     <use xlink:href="#C0_0_881642e4c3" x="326.964706" y="470.88" style="fill: #f44336; stroke: #f44336"/>
    </g>
    <g clip-path="url(#p12364ecdc3)">
     <use xlink:href="#C0_0_881642e4c3" x="382.305882" y="470.88" style="fill: #f44336; stroke: #f44336"/>
    </g>
    <g clip-path="url(#p12364ecdc3)">
     <use xlink:href="#C0_0_881642e4c3" x="437.647059" y="470.88" style="fill: #f44336; stroke: #f44336"/>
    </g>
    <g clip-path="url(#p12364ecdc3)">
     <use xlink:href="#C0_0_881642e4c3" x="492.988235" y="470.88" style="fill: #f44336; stroke: #f44336"/>
    </g>
    <g clip-path="url(#p12364ecdc3)">
     <use xlink:href="#C0_0_881642e4c3" x="548.329412" y="470.88" style="fill: #f44336; stroke: #f44336"/>
    </g>
    <g clip-path="url(#p12364ecdc3)">
     <use xlink:href="#C0_0_881642e4c3" x="603.670588" y="470.88" style="fill: #f44336; stroke: #f44336"/>
    </g>
    <g clip-path="url(#p12364ecdc3)">
     <use xlink:href="#C0_0_881642e4c3" x="659.011765" y="470.88" style="fill: #f44336; stroke: #f44336"/>
    </g>
    <g clip-path="url(#p12364ecdc3)">
     <use xlink:href="#C0_0_881642e4c3" x="714.352941" y="470.88" style="fill: #f44336; stroke: #f44336"/>
    </g>
    <g clip-path="url(#p12364ecdc3)">
     <use xlink:href="#C0_0_881642e4c3" x="769.694118" y="470.88" style="fill: #f44336; stroke: #f44336"/>
    </g>
    <g clip-path="url(#p12364ecdc3)">
     <use xlink:href="#C0_0_881642e4c3" x="825.035294" y="470.88" style="fill: #f44336; stroke: #f44336"/>
    </g>
    <g clip-path="url(#p12364ecdc3)">
     <use xlink:href="#C0_0_881642e4c3" x="880.376471" y="470.88" style="fill: #f44336; stroke: #f44336"/>
    </g>
    <g clip-path="url(#p12364ecdc3)">
     <use xlink:href="#C0_0_881642e4c3" x="935.717647" y="470.88" style="fill: #f44336; stroke: #f44336"/>
    </g>
    <g clip-path="url(#p12364ecdc3)">
     <use xlink:href="#C0_0_881642e4c3" x="991.058824" y="470.88" style="fill: #f44336; stroke: #f44336"/>
    </g>
    <g clip-path="url(#p12364ecdc3)">
     <use xlink:href="#C0_0_881642e4c3" x="1046.4" y="470.88" style="fill: #f44336; stroke: #f44336"/>
    </g>
    <g clip-path="url(#p12364ecdc3)">
     <use xlink:href="#C0_0_881642e4c3" x="1101.741176" y="470.88" style="fill: #f44336; stroke: #f44336"/>
    </g>
   </g>
   <g id="line2d_1">
    <path d="M 105.6 157.68 
L 437.647059 470.88 
" clip-path="url(#p12364ecdc3)" style="fill: none; stroke: #9e9e9e; stroke-opacity: 0.9; stroke-width: 2.2; stroke-linecap: round"/>
   </g>
   <g id="line2d_2">
    <path d="M 437.647059 157.68 
L 659.011765 470.88 
" clip-path="url(#p12364ecdc3)" style="fill: none; stroke: #9e9e9e; stroke-opacity: 0.9; stroke-width: 2.2; stroke-linecap: round"/>
   </g>
   <g id="line2d_3">
    <path d="M 382.305882 157.68 
L 548.329412 470.88 
" clip-path="url(#p12364ecdc3)" style="fill: none; stroke: #9e9e9e; stroke-opacity: 0.9; stroke-width: 2.2; stroke-linecap: round"/>
   </g>
   <g id="line2d_4">
    <path d="M 880.376471 157.68 
L 880.376471 470.88 
" clip-path="url(#p12364ecdc3)" style="fill: none; stroke: #9e9e9e; stroke-opacity: 0.9; stroke-width: 2.2; stroke-linecap: round"/>
   </g>
   <g id="line2d_5">
    <path d="M 326.964706 157.68 
L 105.6 470.88 
" clip-path="url(#p12364ecdc3)" style="fill: none; stroke: #9e9e9e; stroke-opacity: 0.9; stroke-width: 2.2; stroke-linecap: round"/>
   </g>
   <g id="line2d_6">
    <path d="M 935.717647 157.68 
L 271.623529 470.88 
" clip-path="url(#p12364ecdc3)" style="fill: none; stroke: #9e9e9e; stroke-opacity: 0.9; stroke-width: 2.2; stroke-linecap: round"/>
   </g>
   <g id="line2d_7">
    <path d="M 769.694118 157.68 
L 825.035294 470.88 
" clip-path="url(#p12364ecdc3)" style="fill: none; stroke: #9e9e9e; stroke-opacity: 0.9; stroke-width: 2.2; stroke-linecap: round"/>
   </g>
   <g id="line2d_8">
    <path d="M 160.941176 157.68 
L 991.058824 470.88 
" clip-path="url(#p12364ecdc3)" style="fill: none; stroke: #9e9e9e; stroke-opacity: 0.9; stroke-width: 2.2; stroke-linecap: round"/>
   </g>
   <g id="line2d_9">
    <path d="M 714.352941 157.68 
L 216.282353 470.88 
" clip-path="url(#p12364ecdc3)" style="fill: none; stroke: #9e9e9e; stroke-opacity: 0.9; stroke-width: 2.2; stroke-linecap: round"/>
   </g>
   <g id="line2d_10">
    <path d="M 825.035294 157.68 
L 1046.4 470.88 
" clip-path="url(#p12364ecdc3)" style="fill: none; stroke: #9e9e9e; stroke-opacity: 0.9; stroke-width: 2.2; stroke-linecap: round"/>
   </g>
   <g id="line2d_11">
    <path d="M 991.058824 157.68 
L 492.988235 470.88 
" clip-path="url(#p12364ecdc3)" style="fill: none; stroke: #9e9e9e; stroke-opacity: 0.9; stroke-width: 2.2; stroke-linecap: round"/>
   </g>
   <g id="line2d_12">
    <path d="M 603.670588 157.68 
L 160.941176 470.88 
" clip-path="url(#p12364ecdc3)" style="fill: none; stroke: #9e9e9e; stroke-opacity: 0.9; stroke-width: 2.2; stroke-linecap: round"/>
   </g>
   <g id="line2d_13">
    <path d="M 659.011765 157.68 
L 769.694118 470.88 
" clip-path="url(#p12364ecdc3)" style="fill: none; stroke: #9e9e9e; stroke-opacity: 0.9; stroke-width: 2.2; stroke-linecap: round"/>
   </g>
   <g id="line2d_14">
    <path d="M 1046.4 157.68 
L 714.352941 470.88 
" clip-path="url(#p12364ecdc3)" style="fill: none; stroke: #9e9e9e; stroke-opacity: 0.9; stroke-width: 2.2; stroke-linecap: round"/>
   </g>
   <g id="line2d_15">
    <path d="M 216.282353 157.68 
L 326.964706 470.88 
" clip-path="url(#p12364ecdc3)" style="fill: none; stroke: #9e9e9e; stroke-opacity: 0.9; stroke-width: 2.2; stroke-linecap: round"/>
   </g>
   <g id="line2d_16">
    <path d="M 271.623529 157.68 
L 1101.741176 470.88 
" clip-path="url(#p12364ecdc3)" style="fill: none; stroke: #9e9e9e; stroke-opacity: 0.9; stroke-width: 2.2; stroke-linecap: round"/>
   </g>
   <g id="line2d_17">
    <path d="M 50.258824 157.68 
L 50.258824 470.88 
" clip-path="url(#p12364ecdc3)" style="fill: none; stroke: #9e9e9e; stroke-opacity: 0.9; stroke-width: 2.2; stroke-linecap: round"/>
   </g>
   <g id="line2d_18">
    <path d="M 548.329412 157.68 
L 382.305882 470.88 
" clip-path="url(#p12364ecdc3)" style="fill: none; stroke: #9e9e9e; stroke-opacity: 0.9; stroke-width: 2.2; stroke-linecap: round"/>
   </g>
   <g id="line2d_19">
    <path d="M 492.988235 157.68 
L 603.670588 470.88 
" clip-path="url(#p12364ecdc3)" style="fill: none; stroke: #9e9e9e; stroke-opacity: 0.9; stroke-width: 2.2; stroke-linecap: round"/>
   </g>
   <g id="line2d_20">
    <path d="M 1101.741176 157.68 
L 935.717647 470.88 
" clip-path="url(#p12364ecdc3)" style="fill: none; stroke: #9e9e9e; stroke-opacity: 0.9; stroke-width: 2.2; stroke-linecap: round"/>
   </g>
   <g id="line2d_21">
    <path d="M 714.352941 157.68 
L 216.282353 470.88 
" clip-path="url(#p12364ecdc3)" style="fill: none; stroke-dasharray: 24.5,14; stroke-dashoffset: 0; stroke: #ff6d00; stroke-width: 3.5"/>
   </g>
   <g id="line2d_22"/>
   <g id="text_1">
    <g clip-path="url(#p12364ecdc3)">
     <!-- 0 -->
     <g style="fill: #ffffff" transform="translate(47.713824 159.8875) scale(0.08 -0.08)">
      <defs>
       <path id="DejaVuSans-30" d="M 2034 4250 
Q 1547 4250 1301 3770 
Q 1056 3291 1056 2328 
Q 1056 1369 1301 889 
Q 1547 409 2034 409 
Q 2525 409 2770 889 
Q 3016 1369 3016 2328 
Q 3016 3291 2770 3770 
Q 2525 4250 2034 4250 
z
M 2034 4750 
Q 2819 4750 3233 4129 
Q 3647 3509 3647 2328 
Q 3647 1150 3233 529 
Q 2819 -91 2034 -91 
Q 1250 -91 836 529 
Q 422 1150 422 2328 
Q 422 3509 836 4129 
Q 1250 4750 2034 4750 
z
" transform="scale(0.015625)"/>
      </defs>
      <use xlink:href="#DejaVuSans-30"/>
     </g>
    </g>
   </g>
   <g id="text_2">
    <g clip-path="url(#p12364ecdc3)">
     <!-- 1 -->
     <g style="fill: #ffffff" transform="translate(103.055 159.8875) scale(0.08 -0.08)">
      <defs>
       <path id="DejaVuSans-31" d="M 794 531 
L 1825 531 
L 1825 4091 
L 703 3866 
L 703 4441 
L 1819 4666 
L 2450 4666 
L 2450 531 
L 3481 531 
L 3481 0 
L 794 0 
L 794 531 
z
" transform="scale(0.015625)"/>
      </defs>
      <use xlink:href="#DejaVuSans-31"/>
     </g>
    </g>
   </g>
   <g id="text_3">
    <g clip-path="url(#p12364ecdc3)">
     <!-- 2 -->
     <g style="fill: #ffffff" transform="translate(158.396176 159.8875) scale(0.08 -0.08)">
      <defs>
       <path id="DejaVuSans-32" d="M 1228 531 
L 3431 531 
L 3431 0 
L 469 0 
L 469 531 
Q 828 903 1448 1529 
Q 2069 2156 2228 2338 
Q 2531 2678 2651 2914 
Q 2772 3150 2772 3378 
Q 2772 3750 2511 3984 
Q 2250 4219 1831 4219 
Q 1534 4219 1204 4116 
Q 875 4013 500 3803 
L 500 4441 
Q 881 4594 1212 4672 
Q 1544 4750 1819 4750 
Q 2544 4750 2975 4387 
Q 3406 4025 3406 3419 
Q 3406 3131 3298 2873 
Q 3191 2616 2906 2266 
Q 2828 2175 2409 1742 
Q 1991 1309 1228 531 
z
" transform="scale(0.015625)"/>
      </defs>
      <use xlink:href="#DejaVuSans-32"/>
     </g>
    </g>
   </g>
   <g id="text_4">
    <g clip-path="url(#p12364ecdc3)">
     <!-- 3 -->
     <g style="fill: #ffffff" transform="translate(213.737353 159.8875) scale(0.08 -0.08)">
      <defs>
       <path id="DejaVuSans-33" d="M 2597 2516 
Q 3050 2419 3304 2112 
Q 3559 1806 3559 1356 
Q 3559 666 3084 287 
Q 2609 -91 1734 -91 
Q 1441 -91 1130 -33 
Q 819 25 488 141 
L 488 750 
Q 750 597 1062 519 
Q 1375 441 1716 441 
Q 2309 441 2620 675 
Q 2931 909 2931 1356 
Q 2931 1769 2642 2001 
Q 2353 2234 1838 2234 
L 1294 2234 
L 1294 2753 
L 1863 2753 
Q 2328 2753 2575 2939 
Q 2822 3125 2822 3475 
Q 2822 3834 2567 4026 
Q 2313 4219 1838 4219 
Q 1578 4219 1281 4162 
Q 984 4106 628 3988 
L 628 4550 
Q 988 4650 1302 4700 
Q 1616 4750 1894 4750 
Q 2613 4750 3031 4423 
Q 3450 4097 3450 3541 
Q 3450 3153 3228 2886 
Q 3006 2619 2597 2516 
z
" transform="scale(0.015625)"/>
      </defs>
      <use xlink:href="#DejaVuSans-33"/>
     </g>
    </g>
   </g>
   <g id="text_5">
    <g clip-path="url(#p12364ecdc3)">
     <!-- 4 -->
     <g style="fill: #ffffff" transform="translate(269.078529 159.8875) scale(0.08 -0.08)">
      <defs>
       <path id="DejaVuSans-34" d="M 2419 4116 
L 825 1625 
L 2419 1625 
L 2419 4116 
z
M 2253 4666 
L 3047 4666 
L 3047 1625 
L 3713 1625 
L 3713 1100 
L 3047 1100 
L 3047 0 
L 2419 0 
L 2419 1100 
L 313 1100 
L 313 1709 
L 2253 4666 
z
" transform="scale(0.015625)"/>
      </defs>
      <use xlink:href="#DejaVuSans-34"/>
     </g>
    </g>
   </g>
   <g id="text_6">
    <g clip-path="url(#p12364ecdc3)">
     <!-- 5 -->
     <g style="fill: #ffffff" transform="translate(324.419706 159.8875) scale(0.08 -0.08)">
      <defs>
       <path id="DejaVuSans-35" d="M 691 4666 
L 3169 4666 
L 3169 4134 
L 1269 4134 
L 1269 2991 
Q 1406 3038 1543 3061 
Q 1681 3084 1819 3084 
Q 2600 3084 3056 2656 
Q 3513 2228 3513 1497 
Q 3513 744 3044 326 
Q 2575 -91 1722 -91 
Q 1428 -91 1123 -41 
Q 819 9 494 109 
L 494 744 
Q 775 591 1075 516 
Q 1375 441 1709 441 
Q 2250 441 2565 725 
Q 2881 1009 2881 1497 
Q 2881 1984 2565 2268 
Q 2250 2553 1709 2553 
Q 1456 2553 1204 2497 
Q 953 2441 691 2322 
L 691 4666 
z
" transform="scale(0.015625)"/>
      </defs>
      <use xlink:href="#DejaVuSans-35"/>
     </g>
    </g>
   </g>
   <g id="text_7">
    <g clip-path="url(#p12364ecdc3)">
     <!-- 6 -->
     <g style="fill: #ffffff" transform="translate(379.760882 159.8875) scale(0.08 -0.08)">
      <defs>
       <path id="DejaVuSans-36" d="M 2113 2584 
Q 1688 2584 1439 2293 
Q 1191 2003 1191 1497 
Q 1191 994 1439 701 
Q 1688 409 2113 409 
Q 2538 409 2786 701 
Q 3034 994 3034 1497 
Q 3034 2003 2786 2293 
Q 2538 2584 2113 2584 
z
M 3366 4563 
L 3366 3988 
Q 3128 4100 2886 4159 
Q 2644 4219 2406 4219 
Q 1781 4219 1451 3797 
Q 1122 3375 1075 2522 
Q 1259 2794 1537 2939 
Q 1816 3084 2150 3084 
Q 2853 3084 3261 2657 
Q 3669 2231 3669 1497 
Q 3669 778 3244 343 
Q 2819 -91 2113 -91 
Q 1303 -91 875 529 
Q 447 1150 447 2328 
Q 447 3434 972 4092 
Q 1497 4750 2381 4750 
Q 2619 4750 2861 4703 
Q 3103 4656 3366 4563 
z
" transform="scale(0.015625)"/>
      </defs>
      <use xlink:href="#DejaVuSans-36"/>
     </g>
    </g>
   </g>
   <g id="text_8">
    <g clip-path="url(#p12364ecdc3)">
     <!-- 7 -->
     <g style="fill: #ffffff" transform="translate(435.102059 159.8875) scale(0.08 -0.08)">
      <defs>
       <path id="DejaVuSans-37" d="M 525 4666 
L 3525 4666 
L 3525 4397 
L 1831 0 
L 1172 0 
L 2766 4134 
L 525 4134 
L 525 4666 
z
" transform="scale(0.015625)"/>
      </defs>
      <use xlink:href="#DejaVuSans-37"/>
     </g>
    </g>
   </g>
   <g id="text_9">
    <g clip-path="url(#p12364ecdc3)">
     <!-- 8 -->
     <g style="fill: #ffffff" transform="translate(490.443235 159.8875) scale(0.08 -0.08)">
      <defs>
       <path id="DejaVuSans-38" d="M 2034 2216 
Q 1584 2216 1326 1975 
Q 1069 1734 1069 1313 
Q 1069 891 1326 650 
Q 1584 409 2034 409 
Q 2484 409 2743 651 
Q 3003 894 3003 1313 
Q 3003 1734 2745 1975 
Q 2488 2216 2034 2216 
z
M 1403 2484 
Q 997 2584 770 2862 
Q 544 3141 544 3541 
Q 544 4100 942 4425 
Q 1341 4750 2034 4750 
Q 2731 4750 3128 4425 
Q 3525 4100 3525 3541 
Q 3525 3141 3298 2862 
Q 3072 2584 2669 2484 
Q 3125 2378 3379 2068 
Q 3634 1759 3634 1313 
Q 3634 634 3220 271 
Q 2806 -91 2034 -91 
Q 1263 -91 848 271 
Q 434 634 434 1313 
Q 434 1759 690 2068 
Q 947 2378 1403 2484 
z
M 1172 3481 
Q 1172 3119 1398 2916 
Q 1625 2713 2034 2713 
Q 2441 2713 2670 2916 
Q 2900 3119 2900 3481 
Q 2900 3844 2670 4047 
Q 2441 4250 2034 4250 
Q 1625 4250 1398 4047 
Q 1172 3844 1172 3481 
z
" transform="scale(0.015625)"/>
      </defs>
      <use xlink:href="#DejaVuSans-38"/>
     </g>
    </g>
   </g>
   <g id="text_10">
    <g clip-path="url(#p12364ecdc3)">
     <!-- 9 -->
     <g style="fill: #ffffff" transform="translate(545.784412 159.8875) scale(0.08 -0.08)">
      <defs>
       <path id="DejaVuSans-39" d="M 703 97 
L 703 672 
Q 941 559 1184 500 
Q 1428 441 1663 441 
Q 2288 441 2617 861 
Q 2947 1281 2994 2138 
Q 2813 1869 2534 1725 
Q 2256 1581 1919 1581 
Q 1219 1581 811 2004 
Q 403 2428 403 3163 
Q 403 3881 828 4315 
Q 1253 4750 1959 4750 
Q 2769 4750 3195 4129 
Q 3622 3509 3622 2328 
Q 3622 1225 3098 567 
Q 2575 -91 1691 -91 
Q 1453 -91 1209 -44 
Q 966 3 703 97 
z
M 1959 2075 
Q 2384 2075 2632 2365 
Q 2881 2656 2881 3163 
Q 2881 3666 2632 3958 
Q 2384 4250 1959 4250 
Q 1534 4250 1286 3958 
Q 1038 3666 1038 3163 
Q 1038 2656 1286 2365 
Q 1534 2075 1959 2075 
z
" transform="scale(0.015625)"/>
      </defs>
      <use xlink:href="#DejaVuSans-39"/>
     </g>
    </g>
   </g>
   <g id="text_11">
    <g clip-path="url(#p12364ecdc3)">
     <!-- 10 -->
     <g style="fill: #ffffff" transform="translate(598.580588 159.8875) scale(0.08 -0.08)">
      <use xlink:href="#DejaVuSans-31"/>
      <use xlink:href="#DejaVuSans-30" transform="translate(63.623047 0)"/>
     </g>
    </g>
   </g>
   <g id="text_12">
    <g clip-path="url(#p12364ecdc3)">
     <!-- 11 -->
     <g style="fill: #ffffff" transform="translate(653.921765 159.8875) scale(0.08 -0.08)">
      <use xlink:href="#DejaVuSans-31"/>
      <use xlink:href="#DejaVuSans-31" transform="translate(63.623047 0)"/>
     </g>
    </g>
   </g>
   <g id="text_13">
    <g clip-path="url(#p12364ecdc3)">
     <!-- 12 -->
     <g style="fill: #ffffff" transform="translate(709.262941 159.8875) scale(0.08 -0.08)">
      <use xlink:href="#DejaVuSans-31"/>
      <use xlink:href="#DejaVuSans-32" transform="translate(63.623047 0)"/>
     </g>
    </g>
   </g>
   <g id="text_14">
    <g clip-path="url(#p12364ecdc3)">
     <!-- 13 -->
     <g style="fill: #ffffff" transform="translate(764.604118 159.8875) scale(0.08 -0.08)">
      <use xlink:href="#DejaVuSans-31"/>
      <use xlink:href="#DejaVuSans-33" transform="translate(63.623047 0)"/>
     </g>
    </g>
   </g>
   <g id="text_15">
    <g clip-path="url(#p12364ecdc3)">
     <!-- 14 -->
     <g style="fill: #ffffff" transform="translate(819.945294 159.8875) scale(0.08 -0.08)">
      <use xlink:href="#DejaVuSans-31"/>
      <use xlink:href="#DejaVuSans-34" transform="translate(63.623047 0)"/>
     </g>
    </g>
   </g>
   <g id="text_16">
    <g clip-path="url(#p12364ecdc3)">
     <!-- 15 -->
     <g style="fill: #ffffff" transform="translate(875.286471 159.8875) scale(0.08 -0.08)">
      <use xlink:href="#DejaVuSans-31"/>
      <use xlink:href="#DejaVuSans-35" transform="translate(63.623047 0)"/>
     </g>
    </g>
   </g>
   <g id="text_17">
    <g clip-path="url(#p12364ecdc3)">
     <!-- 16 -->
     <g style="fill: #ffffff" transform="translate(930.627647 159.8875) scale(0.08 -0.08)">
      <use xlink:href="#DejaVuSans-31"/>
      <use xlink:href="#DejaVuSans-36" transform="translate(63.623047 0)"/>
     </g>
    </g>
   </g>
   <g id="text_18">
    <g clip-path="url(#p12364ecdc3)">
     <!-- 17 -->
     <g style="fill: #ffffff" transform="translate(985.968824 159.8875) scale(0.08 -0.08)">
      <use xlink:href="#DejaVuSans-31"/>
      <use xlink:href="#DejaVuSans-37" transform="translate(63.623047 0)"/>
     </g>
    </g>
   </g>
   <g id="text_19">
    <g clip-path="url(#p12364ecdc3)">
     <!-- 18 -->
     <g style="fill: #ffffff" transform="translate(1041.31 159.8875) scale(0.08 -0.08)">
      <use xlink:href="#DejaVuSans-31"/>
      <use xlink:href="#DejaVuSans-38" transform="translate(63.623047 0)"/>
     </g>
    </g>
   </g>
   <g id="text_20">
    <g clip-path="url(#p12364ecdc3)">
     <!-- 19 -->
     <g style="fill: #ffffff" transform="translate(1096.651176 159.8875) scale(0.08 -0.08)">
      <use xlink:href="#DejaVuSans-31"/>
      <use xlink:href="#DejaVuSans-39" transform="translate(63.623047 0)"/>
     </g>
    </g>
   </g>
   <g id="text_21">
    <g clip-path="url(#p12364ecdc3)">
     <!-- 0 -->
     <g style="fill: #ffffff" transform="translate(47.713824 473.0875) scale(0.08 -0.08)">
      <use xlink:href="#DejaVuSans-30"/>
     </g>
    </g>
   </g>
   <g id="text_22">
    <g clip-path="url(#p12364ecdc3)">
     <!-- 1 -->
     <g style="fill: #ffffff" transform="translate(103.055 473.0875) scale(0.08 -0.08)">
      <use xlink:href="#DejaVuSans-31"/>
     </g>
    </g>
   </g>
   <g id="text_23">
    <g clip-path="url(#p12364ecdc3)">
     <!-- 2 -->
     <g style="fill: #ffffff" transform="translate(158.396176 473.0875) scale(0.08 -0.08)">
      <use xlink:href="#DejaVuSans-32"/>
     </g>
    </g>
   </g>
   <g id="text_24">
    <g clip-path="url(#p12364ecdc3)">
     <!-- 3 -->
     <g style="fill: #ffffff" transform="translate(213.737353 473.0875) scale(0.08 -0.08)">
      <use xlink:href="#DejaVuSans-33"/>
     </g>
    </g>
   </g>
   <g id="text_25">
    <g clip-path="url(#p12364ecdc3)">
     <!-- 4 -->
     <g style="fill: #ffffff" transform="translate(269.078529 473.0875) scale(0.08 -0.08)">
      <use xlink:href="#DejaVuSans-34"/>
     </g>
    </g>
   </g>
   <g id="text_26">
    <g clip-path="url(#p12364ecdc3)">
     <!-- 5 -->
     <g style="fill: #ffffff" transform="translate(324.419706 473.0875) scale(0.08 -0.08)">
      <use xlink:href="#DejaVuSans-35"/>
     </g>
    </g>
   </g>
   <g id="text_27">
    <g clip-path="url(#p12364ecdc3)">
     <!-- 6 -->
     <g style="fill: #ffffff" transform="translate(379.760882 473.0875) scale(0.08 -0.08)">
      <use xlink:href="#DejaVuSans-36"/>
     </g>
    </g>
   </g>
   <g id="text_28">
    <g clip-path="url(#p12364ecdc3)">
     <!-- 7 -->
     <g style="fill: #ffffff" transform="translate(435.102059 473.0875) scale(0.08 -0.08)">
      <use xlink:href="#DejaVuSans-37"/>
     </g>
    </g>
   </g>
   <g id="text_29">
    <g clip-path="url(#p12364ecdc3)">
     <!-- 8 -->
     <g style="fill: #ffffff" transform="translate(490.443235 473.0875) scale(0.08 -0.08)">
      <use xlink:href="#DejaVuSans-38"/>
     </g>
    </g>
   </g>
   <g id="text_30">
    <g clip-path="url(#p12364ecdc3)">
     <!-- 9 -->
     <g style="fill: #ffffff" transform="translate(545.784412 473.0875) scale(0.08 -0.08)">
      <use xlink:href="#DejaVuSans-39"/>
     </g>
    </g>
   </g>
   <g id="text_31">
    <g clip-path="url(#p12364ecdc3)">
     <!-- 10 -->
     <g style="fill: #ffffff" transform="translate(598.580588 473.0875) scale(0.08 -0.08)">
      <use xlink:href="#DejaVuSans-31"/>
      <use xlink:href="#DejaVuSans-30" transform="translate(63.623047 0)"/>
     </g>
    </g>
   </g>
   <g id="text_32">
    <g clip-path="url(#p12364ecdc3)">
     <!-- 11 -->
     <g style="fill: #ffffff" transform="translate(653.921765 473.0875) scale(0.08 -0.08)">
      <use xlink:href="#DejaVuSans-31"/>
      <use xlink:href="#DejaVuSans-31" transform="translate(63.623047 0)"/>
     </g>
    </g>
   </g>
   <g id="text_33">
    <g clip-path="url(#p12364ecdc3)">
     <!-- 12 -->
     <g style="fill: #ffffff" transform="translate(709.262941 473.0875) scale(0.08 -0.08)">
      <use xlink:href="#DejaVuSans-31"/>
      <use xlink:href="#DejaVuSans-32" transform="translate(63.623047 0)"/>
     </g>
    </g>
   </g>
   <g id="text_34">
    <g clip-path="url(#p12364ecdc3)">
     <!-- 13 -->
     <g style="fill: #ffffff" transform="translate(764.604118 473.0875) scale(0.08 -0.08)">
      <use xlink:href="#DejaVuSans-31"/>
      <use xlink:href="#DejaVuSans-33" transform="translate(63.623047 0)"/>
     </g>
    </g>
   </g>
   <g id="text_35">
    <g clip-path="url(#p12364ecdc3)">
     <!-- 14 -->
     <g style="fill: #ffffff" transform="translate(819.945294 473.0875) scale(0.08 -0.08)">
      <use xlink:href="#DejaVuSans-31"/>
      <use xlink:href="#DejaVuSans-34" transform="translate(63.623047 0)"/>
     </g>
    </g>
   </g>
   <g id="text_36">
    <g clip-path="url(#p12364ecdc3)">
     <!-- 15 -->
     <g style="fill: #ffffff" transform="translate(875.286471 473.0875) scale(0.08 -0.08)">
      <use xlink:href="#DejaVuSans-31"/>
      <use xlink:href="#DejaVuSans-35" transform="translate(63.623047 0)"/>
     </g>
    </g>
   </g>
   <g id="text_37">
    <g clip-path="url(#p12364ecdc3)">
     <!-- 16 -->
     <g style="fill: #ffffff" transform="translate(930.627647 473.0875) scale(0.08 -0.08)">
      <use xlink:href="#DejaVuSans-31"/>
      <use xlink:href="#DejaVuSans-36" transform="translate(63.623047 0)"/>
     </g>
    </g>
   </g>
   <g id="text_38">
    <g clip-path="url(#p12364ecdc3)">
     <!-- 17 -->
     <g style="fill: #ffffff" transform="translate(985.968824 473.0875) scale(0.08 -0.08)">
      <use xlink:href="#DejaVuSans-31"/>
      <use xlink:href="#DejaVuSans-37" transform="translate(63.623047 0)"/>
     </g>
    </g>
   </g>
   <g id="text_39">
    <g clip-path="url(#p12364ecdc3)">
     <!-- 18 -->
     <g style="fill: #ffffff" transform="translate(1041.31 473.0875) scale(0.08 -0.08)">
      <use xlink:href="#DejaVuSans-31"/>
      <use xlink:href="#DejaVuSans-38" transform="translate(63.623047 0)"/>
     </g>
    </g>
   </g>
   <g id="text_40">
    <g clip-path="url(#p12364ecdc3)">
     <!-- 19 -->
     <g style="fill: #ffffff" transform="translate(1096.651176 473.0875) scale(0.08 -0.08)">
      <use xlink:href="#DejaVuSans-31"/>
      <use xlink:href="#DejaVuSans-39" transform="translate(63.623047 0)"/>
     </g>
    </g>
   </g>
   <g id="text_41">
    <!-- Grupo A -->
    <g style="fill: #2196f3" transform="translate(548.69625 67.03125) scale(0.12 -0.12)">
     <defs>
      <path id="DejaVuSans-Bold-47" d="M 4781 347 
Q 4331 128 3847 18 
Q 3363 -91 2847 -91 
Q 1681 -91 1000 561 
Q 319 1213 319 2328 
Q 319 3456 1012 4103 
Q 1706 4750 2913 4750 
Q 3378 4750 3804 4662 
Q 4231 4575 4609 4403 
L 4609 3438 
Q 4219 3659 3833 3768 
Q 3447 3878 3059 3878 
Q 2341 3878 1952 3476 
Q 1563 3075 1563 2328 
Q 1563 1588 1938 1184 
Q 2313 781 3003 781 
Q 3191 781 3352 804 
Q 3513 828 3641 878 
L 3641 1784 
L 2906 1784 
L 2906 2591 
L 4781 2591 
L 4781 347 
z
" transform="scale(0.015625)"/>
      <path id="DejaVuSans-Bold-72" d="M 3138 2547 
Q 2991 2616 2845 2648 
Q 2700 2681 2553 2681 
Q 2122 2681 1889 2404 
Q 1656 2128 1656 1613 
L 1656 0 
L 538 0 
L 538 3500 
L 1656 3500 
L 1656 2925 
Q 1872 3269 2151 3426 
Q 2431 3584 2822 3584 
Q 2878 3584 2943 3579 
Q 3009 3575 3134 3559 
L 3138 2547 
z
" transform="scale(0.015625)"/>
      <path id="DejaVuSans-Bold-75" d="M 500 1363 
L 500 3500 
L 1625 3500 
L 1625 3150 
Q 1625 2866 1622 2436 
Q 1619 2006 1619 1863 
Q 1619 1441 1641 1255 
Q 1663 1069 1716 984 
Q 1784 875 1895 815 
Q 2006 756 2150 756 
Q 2500 756 2700 1025 
Q 2900 1294 2900 1772 
L 2900 3500 
L 4019 3500 
L 4019 0 
L 2900 0 
L 2900 506 
Q 2647 200 2364 54 
Q 2081 -91 1741 -91 
Q 1134 -91 817 281 
Q 500 653 500 1363 
z
" transform="scale(0.015625)"/>
      <path id="DejaVuSans-Bold-70" d="M 1656 506 
L 1656 -1331 
L 538 -1331 
L 538 3500 
L 1656 3500 
L 1656 2988 
Q 1888 3294 2169 3439 
Q 2450 3584 2816 3584 
Q 3463 3584 3878 3070 
Q 4294 2556 4294 1747 
Q 4294 938 3878 423 
Q 3463 -91 2816 -91 
Q 2450 -91 2169 54 
Q 1888 200 1656 506 
z
M 2400 2772 
Q 2041 2772 1848 2508 
Q 1656 2244 1656 1747 
Q 1656 1250 1848 986 
Q 2041 722 2400 722 
Q 2759 722 2948 984 
Q 3138 1247 3138 1747 
Q 3138 2247 2948 2509 
Q 2759 2772 2400 2772 
z
" transform="scale(0.015625)"/>
      <path id="DejaVuSans-Bold-6f" d="M 2203 2784 
Q 1831 2784 1636 2517 
Q 1441 2250 1441 1747 
Q 1441 1244 1636 976 
Q 1831 709 2203 709 
Q 2569 709 2762 976 
Q 2956 1244 2956 1747 
Q 2956 2250 2762 2517 
Q 2569 2784 2203 2784 
z
M 2203 3584 
Q 3106 3584 3614 3096 
Q 4122 2609 4122 1747 
Q 4122 884 3614 396 
Q 3106 -91 2203 -91 
Q 1297 -91 786 396 
Q 275 884 275 1747 
Q 275 2609 786 3096 
Q 1297 3584 2203 3584 
z
" transform="scale(0.015625)"/>
      <path id="DejaVuSans-Bold-20" transform="scale(0.015625)"/>
      <path id="DejaVuSans-Bold-41" d="M 3419 850 
L 1538 850 
L 1241 0 
L 31 0 
L 1759 4666 
L 3194 4666 
L 4922 0 
L 3713 0 
L 3419 850 
z
M 1838 1716 
L 3116 1716 
L 2478 3572 
L 1838 1716 
z
" transform="scale(0.015625)"/>
     </defs>
     <use xlink:href="#DejaVuSans-Bold-47"/>
     <use xlink:href="#DejaVuSans-Bold-72" transform="translate(82.080078 0)"/>
     <use xlink:href="#DejaVuSans-Bold-75" transform="translate(131.396484 0)"/>
     <use xlink:href="#DejaVuSans-Bold-70" transform="translate(202.587891 0)"/>
     <use xlink:href="#DejaVuSans-Bold-6f" transform="translate(274.169922 0)"/>
     <use xlink:href="#DejaVuSans-Bold-20" transform="translate(342.871094 0)"/>
     <use xlink:href="#DejaVuSans-Bold-41" transform="translate(377.685547 0)"/>
    </g>
   </g>
   <g id="text_42">
    <!-- Grupo B -->
    <g style="fill: #f44336" transform="translate(548.766563 546.22725) scale(0.12 -0.12)">
     <defs>
      <path id="DejaVuSans-Bold-42" d="M 2456 2859 
Q 2741 2859 2887 2984 
Q 3034 3109 3034 3353 
Q 3034 3594 2887 3720 
Q 2741 3847 2456 3847 
L 1791 3847 
L 1791 2859 
L 2456 2859 
z
M 2497 819 
Q 2859 819 3042 972 
Q 3225 1125 3225 1434 
Q 3225 1738 3044 1889 
Q 2863 2041 2497 2041 
L 1791 2041 
L 1791 819 
L 2497 819 
z
M 3616 2497 
Q 4003 2384 4215 2081 
Q 4428 1778 4428 1338 
Q 4428 663 3972 331 
Q 3516 0 2584 0 
L 588 0 
L 588 4666 
L 2394 4666 
Q 3366 4666 3802 4372 
Q 4238 4078 4238 3431 
Q 4238 3091 4078 2852 
Q 3919 2613 3616 2497 
z
" transform="scale(0.015625)"/>
     </defs>
     <use xlink:href="#DejaVuSans-Bold-47"/>
     <use xlink:href="#DejaVuSans-Bold-72" transform="translate(82.080078 0)"/>
     <use xlink:href="#DejaVuSans-Bold-75" transform="translate(131.396484 0)"/>
     <use xlink:href="#DejaVuSans-Bold-70" transform="translate(202.587891 0)"/>
     <use xlink:href="#DejaVuSans-Bold-6f" transform="translate(274.169922 0)"/>
     <use xlink:href="#DejaVuSans-Bold-20" transform="translate(342.871094 0)"/>
     <use xlink:href="#DejaVuSans-Bold-42" transform="translate(377.685547 0)"/>
    </g>
   </g>
   <g id="text_43">
    <!-- Greedy — peso estimado total: 4.485 -->
    <g transform="translate(454.328125 27.4) scale(0.13 -0.13)">
     <defs>
      <path id="DejaVuSans-47" d="M 3809 666 
L 3809 1919 
L 2778 1919 
L 2778 2438 
L 4434 2438 
L 4434 434 
Q 4069 175 3628 42 
Q 3188 -91 2688 -91 
Q 1594 -91 976 548 
Q 359 1188 359 2328 
Q 359 3472 976 4111 
Q 1594 4750 2688 4750 
Q 3144 4750 3555 4637 
Q 3966 4525 4313 4306 
L 4313 3634 
Q 3963 3931 3569 4081 
Q 3175 4231 2741 4231 
Q 1884 4231 1454 3753 
Q 1025 3275 1025 2328 
Q 1025 1384 1454 906 
Q 1884 428 2741 428 
Q 3075 428 3337 486 
Q 3600 544 3809 666 
z
" transform="scale(0.015625)"/>
      <path id="DejaVuSans-72" d="M 2631 2963 
Q 2534 3019 2420 3045 
Q 2306 3072 2169 3072 
Q 1681 3072 1420 2755 
Q 1159 2438 1159 1844 
L 1159 0 
L 581 0 
L 581 3500 
L 1159 3500 
L 1159 2956 
Q 1341 3275 1631 3429 
Q 1922 3584 2338 3584 
Q 2397 3584 2469 3576 
Q 2541 3569 2628 3553 
L 2631 2963 
z
" transform="scale(0.015625)"/>
      <path id="DejaVuSans-65" d="M 3597 1894 
L 3597 1613 
L 953 1613 
Q 991 1019 1311 708 
Q 1631 397 2203 397 
Q 2534 397 2845 478 
Q 3156 559 3463 722 
L 3463 178 
Q 3153 47 2828 -22 
Q 2503 -91 2169 -91 
Q 1331 -91 842 396 
Q 353 884 353 1716 
Q 353 2575 817 3079 
Q 1281 3584 2069 3584 
Q 2775 3584 3186 3129 
Q 3597 2675 3597 1894 
z
M 3022 2063 
Q 3016 2534 2758 2815 
Q 2500 3097 2075 3097 
Q 1594 3097 1305 2825 
Q 1016 2553 972 2059 
L 3022 2063 
z
" transform="scale(0.015625)"/>
      <path id="DejaVuSans-64" d="M 2906 2969 
L 2906 4863 
L 3481 4863 
L 3481 0 
L 2906 0 
L 2906 525 
Q 2725 213 2448 61 
Q 2172 -91 1784 -91 
Q 1150 -91 751 415 
Q 353 922 353 1747 
Q 353 2572 751 3078 
Q 1150 3584 1784 3584 
Q 2172 3584 2448 3432 
Q 2725 3281 2906 2969 
z
M 947 1747 
Q 947 1113 1208 752 
Q 1469 391 1925 391 
Q 2381 391 2643 752 
Q 2906 1113 2906 1747 
Q 2906 2381 2643 2742 
Q 2381 3103 1925 3103 
Q 1469 3103 1208 2742 
Q 947 2381 947 1747 
z
" transform="scale(0.015625)"/>
      <path id="DejaVuSans-79" d="M 2059 -325 
Q 1816 -950 1584 -1140 
Q 1353 -1331 966 -1331 
L 506 -1331 
L 506 -850 
L 844 -850 
Q 1081 -850 1212 -737 
Q 1344 -625 1503 -206 
L 1606 56 
L 191 3500 
L 800 3500 
L 1894 763 
L 2988 3500 
L 3597 3500 
L 2059 -325 
z
" transform="scale(0.015625)"/>
      <path id="DejaVuSans-20" transform="scale(0.015625)"/>
      <path id="DejaVuSans-2014" d="M 313 1978 
L 6088 1978 
L 6088 1528 
L 313 1528 
L 313 1978 
z
" transform="scale(0.015625)"/>
      <path id="DejaVuSans-70" d="M 1159 525 
L 1159 -1331 
L 581 -1331 
L 581 3500 
L 1159 3500 
L 1159 2969 
Q 1341 3281 1617 3432 
Q 1894 3584 2278 3584 
Q 2916 3584 3314 3078 
Q 3713 2572 3713 1747 
Q 3713 922 3314 415 
Q 2916 -91 2278 -91 
Q 1894 -91 1617 61 
Q 1341 213 1159 525 
z
M 3116 1747 
Q 3116 2381 2855 2742 
Q 2594 3103 2138 3103 
Q 1681 3103 1420 2742 
Q 1159 2381 1159 1747 
Q 1159 1113 1420 752 
Q 1681 391 2138 391 
Q 2594 391 2855 752 
Q 3116 1113 3116 1747 
z
" transform="scale(0.015625)"/>
      <path id="DejaVuSans-73" d="M 2834 3397 
L 2834 2853 
Q 2591 2978 2328 3040 
Q 2066 3103 1784 3103 
Q 1356 3103 1142 2972 
Q 928 2841 928 2578 
Q 928 2378 1081 2264 
Q 1234 2150 1697 2047 
L 1894 2003 
Q 2506 1872 2764 1633 
Q 3022 1394 3022 966 
Q 3022 478 2636 193 
Q 2250 -91 1575 -91 
Q 1294 -91 989 -36 
Q 684 19 347 128 
L 347 722 
Q 666 556 975 473 
Q 1284 391 1588 391 
Q 1994 391 2212 530 
Q 2431 669 2431 922 
Q 2431 1156 2273 1281 
Q 2116 1406 1581 1522 
L 1381 1569 
Q 847 1681 609 1914 
Q 372 2147 372 2553 
Q 372 3047 722 3315 
Q 1072 3584 1716 3584 
Q 2034 3584 2315 3537 
Q 2597 3491 2834 3397 
z
" transform="scale(0.015625)"/>
      <path id="DejaVuSans-6f" d="M 1959 3097 
Q 1497 3097 1228 2736 
Q 959 2375 959 1747 
Q 959 1119 1226 758 
Q 1494 397 1959 397 
Q 2419 397 2687 759 
Q 2956 1122 2956 1747 
Q 2956 2369 2687 2733 
Q 2419 3097 1959 3097 
z
M 1959 3584 
Q 2709 3584 3137 3096 
Q 3566 2609 3566 1747 
Q 3566 888 3137 398 
Q 2709 -91 1959 -91 
Q 1206 -91 779 398 
Q 353 888 353 1747 
Q 353 2609 779 3096 
Q 1206 3584 1959 3584 
z
" transform="scale(0.015625)"/>
      <path id="DejaVuSans-74" d="M 1172 4494 
L 1172 3500 
L 2356 3500 
L 2356 3053 
L 1172 3053 
L 1172 1153 
Q 1172 725 1289 603 
Q 1406 481 1766 481 
L 2356 481 
L 2356 0 
L 1766 0 
Q 1100 0 847 248 
Q 594 497 594 1153 
L 594 3053 
L 172 3053 
L 172 3500 
L 594 3500 
L 594 4494 
L 1172 4494 
z
" transform="scale(0.015625)"/>
      <path id="DejaVuSans-69" d="M 603 3500 
L 1178 3500 
L 1178 0 
L 603 0 
L 603 3500 
z
M 603 4863 
L 1178 4863 
L 1178 4134 
L 603 4134 
L 603 4863 
z
" transform="scale(0.015625)"/>
      <path id="DejaVuSans-6d" d="M 3328 2828 
Q 3544 3216 3844 3400 
Q 4144 3584 4550 3584 
Q 5097 3584 5394 3201 
Q 5691 2819 5691 2113 
L 5691 0 
L 5113 0 
L 5113 2094 
Q 5113 2597 4934 2840 
Q 4756 3084 4391 3084 
Q 3944 3084 3684 2787 
Q 3425 2491 3425 1978 
L 3425 0 
L 2847 0 
L 2847 2094 
Q 2847 2600 2669 2842 
Q 2491 3084 2119 3084 
Q 1678 3084 1418 2786 
Q 1159 2488 1159 1978 
L 1159 0 
L 581 0 
L 581 3500 
L 1159 3500 
L 1159 2956 
Q 1356 3278 1631 3431 
Q 1906 3584 2284 3584 
Q 2666 3584 2933 3390 
Q 3200 3197 3328 2828 
z
" transform="scale(0.015625)"/>
      <path id="DejaVuSans-61" d="M 2194 1759 
Q 1497 1759 1228 1600 
Q 959 1441 959 1056 
Q 959 750 1161 570 
Q 1363 391 1709 391 
Q 2188 391 2477 730 
Q 2766 1069 2766 1631 
L 2766 1759 
L 2194 1759 
z
M 3341 1997 
L 3341 0 
L 2766 0 
L 2766 531 
Q 2569 213 2275 61 
Q 1981 -91 1556 -91 
Q 1019 -91 701 211 
Q 384 513 384 1019 
Q 384 1609 779 1909 
Q 1175 2209 1959 2209 
L 2766 2209 
L 2766 2266 
Q 2766 2663 2505 2880 
Q 2244 3097 1772 3097 
Q 1472 3097 1187 3025 
Q 903 2953 641 2809 
L 641 3341 
Q 956 3463 1253 3523 
Q 1550 3584 1831 3584 
Q 2591 3584 2966 3190 
Q 3341 2797 3341 1997 
z
" transform="scale(0.015625)"/>
      <path id="DejaVuSans-6c" d="M 603 4863 
L 1178 4863 
L 1178 0 
L 603 0 
L 603 4863 
z
" transform="scale(0.015625)"/>
      <path id="DejaVuSans-3a" d="M 750 794 
L 1409 794 
L 1409 0 
L 750 0 
L 750 794 
z
M 750 3309 
L 1409 3309 
L 1409 2516 
L 750 2516 
L 750 3309 
z
" transform="scale(0.015625)"/>
      <path id="DejaVuSans-2e" d="M 684 794 
L 1344 794 
L 1344 0 
L 684 0 
L 684 794 
z
" transform="scale(0.015625)"/>
     </defs>
     <use xlink:href="#DejaVuSans-47"/>
     <use xlink:href="#DejaVuSans-72" transform="translate(77.490234 0)"/>
     <use xlink:href="#DejaVuSans-65" transform="translate(116.353516 0)"/>
     <use xlink:href="#DejaVuSans-65" transform="translate(177.876953 0)"/>
     <use xlink:href="#DejaVuSans-64" transform="translate(239.400391 0)"/>
     <use xlink:href="#DejaVuSans-79" transform="translate(302.876953 0)"/>
     <use xlink:href="#DejaVuSans-20" transform="translate(362.056641 0)"/>
     <use xlink:href="#DejaVuSans-2014" transform="translate(393.84375 0)"/>
     <use xlink:href="#DejaVuSans-20" transform="translate(493.84375 0)"/>
     <use xlink:href="#DejaVuSans-70" transform="translate(525.630859 0)"/>
     <use xlink:href="#DejaVuSans-65" transform="translate(589.107422 0)"/>
     <use xlink:href="#DejaVuSans-73" transform="translate(650.630859 0)"/>
     <use xlink:href="#DejaVuSans-6f" transform="translate(702.730469 0)"/>
     <use xlink:href="#DejaVuSans-20" transform="translate(763.912109 0)"/>
     <use xlink:href="#DejaVuSans-65" transform="translate(795.699219 0)"/>
     <use xlink:href="#DejaVuSans-73" transform="translate(857.222656 0)"/>
     <use xlink:href="#DejaVuSans-74" transform="translate(909.322266 0)"/>
     <use xlink:href="#DejaVuSans-69" transform="translate(948.53125 0)"/>
     <use xlink:href="#DejaVuSans-6d" transform="translate(976.314453 0)"/>
     <use xlink:href="#DejaVuSans-61" transform="translate(1073.726562 0)"/>
     <use xlink:href="#DejaVuSans-64" transform="translate(1135.005859 0)"/>
     <use xlink:href="#DejaVuSans-6f" transform="translate(1198.482422 0)"/>
     <use xlink:href="#DejaVuSans-20" transform="translate(1259.664062 0)"/>
     <use xlink:href="#DejaVuSans-74" transform="translate(1291.451172 0)"/>
     <use xlink:href="#DejaVuSans-6f" transform="translate(1330.660156 0)"/>
     <use xlink:href="#DejaVuSans-74" transform="translate(1391.841797 0)"/>
     <use xlink:href="#DejaVuSans-61" transform="translate(1431.050781 0)"/>
     <use xlink:href="#DejaVuSans-6c" transform="translate(1492.330078 0)"/>
     <use xlink:href="#DejaVuSans-3a" transform="translate(1520.113281 0)"/>
     <use xlink:href="#DejaVuSans-20" transform="translate(1553.804688 0)"/>
     <use xlink:href="#DejaVuSans-34" transform="translate(1585.591797 0)"/>
     <use xlink:href="#DejaVuSans-2e" transform="translate(1649.214844 0)"/>
     <use xlink:href="#DejaVuSans-34" transform="translate(1681.001953 0)"/>
     <use xlink:href="#DejaVuSans-38" transform="translate(1744.625 0)"/>
     <use xlink:href="#DejaVuSans-35" transform="translate(1808.248047 0)"/>
    </g>
   </g>
   <g id="legend_1">
    <g id="patch_2">
     <path d="M 487.7 591.16 
L 664.3 591.16 
Q 666.3 591.16 666.3 589.16 
L 666.3 560.783437 
Q 666.3 558.783437 664.3 558.783437 
L 487.7 558.783437 
Q 485.7 558.783437 485.7 560.783437 
L 485.7 589.16 
Q 485.7 591.16 487.7 591.16 
z
" style="fill: #ffffff; opacity: 0.9; stroke: #cccccc; stroke-linejoin: miter"/>
    </g>
    <g id="line2d_23">
     <path d="M 489.7 566.881875 
L 499.7 566.881875 
L 509.7 566.881875 
" style="fill: none; stroke-dasharray: 24.5,14; stroke-dashoffset: 0; stroke: #ff6d00; stroke-width: 3.5"/>
    </g>
    <g id="text_44">
     <!-- Mayor $P$ est. = 0.81 -->
     <g transform="translate(517.7 570.381875) scale(0.1 -0.1)">
      <defs>
       <path id="DejaVuSans-4d" d="M 628 4666 
L 1569 4666 
L 2759 1491 
L 3956 4666 
L 4897 4666 
L 4897 0 
L 4281 0 
L 4281 4097 
L 3078 897 
L 2444 897 
L 1241 4097 
L 1241 0 
L 628 0 
L 628 4666 
z
" transform="scale(0.015625)"/>
       <path id="DejaVuSans-Oblique-50" d="M 1081 4666 
L 2541 4666 
Q 3178 4666 3512 4369 
Q 3847 4072 3847 3500 
Q 3847 2731 3353 2303 
Q 2859 1875 1966 1875 
L 1172 1875 
L 806 0 
L 172 0 
L 1081 4666 
z
M 1613 4147 
L 1275 2394 
L 2069 2394 
Q 2606 2394 2893 2669 
Q 3181 2944 3181 3456 
Q 3181 3784 2986 3965 
Q 2791 4147 2438 4147 
L 1613 4147 
z
" transform="scale(0.015625)"/>
       <path id="DejaVuSans-3d" d="M 678 2906 
L 4684 2906 
L 4684 2381 
L 678 2381 
L 678 2906 
z
M 678 1631 
L 4684 1631 
L 4684 1100 
L 678 1100 
L 678 1631 
z
" transform="scale(0.015625)"/>
      </defs>
      <use xlink:href="#DejaVuSans-4d" transform="translate(0 0.78125)"/>
      <use xlink:href="#DejaVuSans-61" transform="translate(86.279297 0.78125)"/>
      <use xlink:href="#DejaVuSans-79" transform="translate(147.558594 0.78125)"/>
      <use xlink:href="#DejaVuSans-6f" transform="translate(206.738281 0.78125)"/>
      <use xlink:href="#DejaVuSans-72" transform="translate(267.919922 0.78125)"/>
      <use xlink:href="#DejaVuSans-20" transform="translate(309.033203 0.78125)"/>
      <use xlink:href="#DejaVuSans-Oblique-50" transform="translate(340.820312 0.78125)"/>
      <use xlink:href="#DejaVuSans-20" transform="translate(401.123047 0.78125)"/>
      <use xlink:href="#DejaVuSans-65" transform="translate(432.910156 0.78125)"/>
      <use xlink:href="#DejaVuSans-73" transform="translate(494.433594 0.78125)"/>
      <use xlink:href="#DejaVuSans-74" transform="translate(546.533203 0.78125)"/>
      <use xlink:href="#DejaVuSans-2e" transform="translate(585.742188 0.78125)"/>
      <use xlink:href="#DejaVuSans-20" transform="translate(617.529297 0.78125)"/>
      <use xlink:href="#DejaVuSans-3d" transform="translate(649.316406 0.78125)"/>
      <use xlink:href="#DejaVuSans-20" transform="translate(733.105469 0.78125)"/>
      <use xlink:href="#DejaVuSans-30" transform="translate(764.892578 0.78125)"/>
      <use xlink:href="#DejaVuSans-2e" transform="translate(828.515625 0.78125)"/>
      <use xlink:href="#DejaVuSans-38" transform="translate(857.677734 0.78125)"/>
      <use xlink:href="#DejaVuSans-31" transform="translate(921.300781 0.78125)"/>
     </g>
    </g>
    <g id="line2d_24">
     <path d="M 489.7 581.580312 
L 499.7 581.580312 
L 509.7 581.580312 
" style="fill: none; stroke-dasharray: 6,9; stroke-dashoffset: 0; stroke: #bf360c; stroke-width: 3"/>
    </g>
    <g id="text_45">
     <!-- (misma arista, $P$ real = 0.97) -->
     <g transform="translate(517.7 585.080312) scale(0.1 -0.1)">
      <defs>
       <path id="DejaVuSans-28" d="M 1984 4856 
Q 1566 4138 1362 3434 
Q 1159 2731 1159 2009 
Q 1159 1288 1364 580 
Q 1569 -128 1984 -844 
L 1484 -844 
Q 1016 -109 783 600 
Q 550 1309 550 2009 
Q 550 2706 781 3412 
Q 1013 4119 1484 4856 
L 1984 4856 
z
" transform="scale(0.015625)"/>
       <path id="DejaVuSans-2c" d="M 750 794 
L 1409 794 
L 1409 256 
L 897 -744 
L 494 -744 
L 750 256 
L 750 794 
z
" transform="scale(0.015625)"/>
       <path id="DejaVuSans-29" d="M 513 4856 
L 1013 4856 
Q 1481 4119 1714 3412 
Q 1947 2706 1947 2009 
Q 1947 1309 1714 600 
Q 1481 -109 1013 -844 
L 513 -844 
Q 928 -128 1133 580 
Q 1338 1288 1338 2009 
Q 1338 2731 1133 3434 
Q 928 4138 513 4856 
z
" transform="scale(0.015625)"/>
      </defs>
      <use xlink:href="#DejaVuSans-28" transform="translate(0 0.015625)"/>
      <use xlink:href="#DejaVuSans-6d" transform="translate(39.013672 0.015625)"/>
      <use xlink:href="#DejaVuSans-69" transform="translate(136.425781 0.015625)"/>
      <use xlink:href="#DejaVuSans-73" transform="translate(164.208984 0.015625)"/>
      <use xlink:href="#DejaVuSans-6d" transform="translate(216.308594 0.015625)"/>
      <use xlink:href="#DejaVuSans-61" transform="translate(313.720703 0.015625)"/>
      <use xlink:href="#DejaVuSans-20" transform="translate(375 0.015625)"/>
      <use xlink:href="#DejaVuSans-61" transform="translate(406.787109 0.015625)"/>
      <use xlink:href="#DejaVuSans-72" transform="translate(468.066406 0.015625)"/>
      <use xlink:href="#DejaVuSans-69" transform="translate(509.179688 0.015625)"/>
      <use xlink:href="#DejaVuSans-73" transform="translate(536.962891 0.015625)"/>
      <use xlink:href="#DejaVuSans-74" transform="translate(589.0625 0.015625)"/>
      <use xlink:href="#DejaVuSans-61" transform="translate(628.271484 0.015625)"/>
      <use xlink:href="#DejaVuSans-2c" transform="translate(689.550781 0.015625)"/>
      <use xlink:href="#DejaVuSans-20" transform="translate(721.337891 0.015625)"/>
      <use xlink:href="#DejaVuSans-Oblique-50" transform="translate(753.125 0.015625)"/>
      <use xlink:href="#DejaVuSans-20" transform="translate(813.427734 0.015625)"/>
      <use xlink:href="#DejaVuSans-72" transform="translate(845.214844 0.015625)"/>
      <use xlink:href="#DejaVuSans-65" transform="translate(886.328125 0.015625)"/>
      <use xlink:href="#DejaVuSans-61" transform="translate(947.851562 0.015625)"/>
      <use xlink:href="#DejaVuSans-6c" transform="translate(1009.130859 0.015625)"/>
      <use xlink:href="#DejaVuSans-20" transform="translate(1036.914062 0.015625)"/>
      <use xlink:href="#DejaVuSans-3d" transform="translate(1068.701172 0.015625)"/>
      <use xlink:href="#DejaVuSans-20" transform="translate(1152.490234 0.015625)"/>
      <use xlink:href="#DejaVuSans-30" transform="translate(1184.277344 0.015625)"/>
      <use xlink:href="#DejaVuSans-2e" transform="translate(1247.900391 0.015625)"/>
      <use xlink:href="#DejaVuSans-39" transform="translate(1279.6875 0.015625)"/>
      <use xlink:href="#DejaVuSans-37" transform="translate(1343.310547 0.015625)"/>
      <use xlink:href="#DejaVuSans-29" transform="translate(1406.933594 0.015625)"/>
     </g>
    </g>
   </g>
  </g>
 </g>
 <defs>
  <clipPath id="p12364ecdc3">
   <rect x="11.52" y="32.4" width="1128.96" height="563.76"/>
  </clipPath>
 </defs>
</svg>
